<?xml version="1.0" encoding="UTF-8"?>
<svg height="100%" width="100%" xmlns="http://www.w3.org/2000/svg">
	<defs>
		<font horiz-adv-x="723" id="web">
			<font-face alphabetic="0" ascent="1006" descent="-258" font-family="" panose-1="2 2 9 3 5 0 0 9 0 4"/>
			<missing-glyph
					d="M0 718H512V0H0ZM50 667V50H462V667ZM259 609Q312 609 347 573T383 478Q383 442 370 417T319 357Q286 327 278 311Q271 294 271 234H225L223 253Q223 294 228 313T253 358T286 395Q332 436 332 474Q332 507 309 533T256 559Q187 559 174 464L124 472Q131 540 165 574T259 609ZM222 184H278V117H222Z"
					horiz-adv-x="512"/>
			<glyph d="" horiz-adv-x="213" unicode=" "/>
			<glyph d="M124 666H386Q344 649 311 535L261 365Q229 257 157 188Q122 239 122 317Q122 332 125 365Q150 552 150 593Q150 654 124 666ZM139 144Q171 144 189 124T208 72Q208 36 183 12T122 -12Q90 -12 71 7T53 58Q53 94 78 119T139 144Z"
				   horiz-adv-x="304" unicode="!"/>
			<glyph d="M402 666H537L500 489Q480 396 394 302H390Q361 362 360 435Q360 462 365 489ZM177 666H312L275 489Q255 396 169 302H165Q136 362 135 435Q135 463 140 489Z"
				   horiz-adv-x="563" unicode="&quot;"/>
			<glyph d="M217 666H293L247 469H394L438 666H517L471 469H560V403H455L424 266H523V201H407L359 0H284L331 201H184L136 0H62L109 201H15V266H125L157 403H58V469H172ZM232 403L200 266H347L379 403Z"
				   horiz-adv-x="583" unicode="#"/>
			<glyph d="M304 741H412L396 661Q475 651 520 621L479 436Q470 495 427 528T328 561Q287 561 257 542T228 490Q228 465 257 440T354 378Q480 305 480 208Q480 128 421 73T260 5L243 -80H135L151 3Q51 13 -7 57L42 277Q45 200 96 153T218 106Q261 106 292 125T323 180Q323 202 298 222T201 284Q79 353 79 458Q79 537 134 591T287 660Z"
				   horiz-adv-x="534" unicode="$"/>
			<glyph d="M668 376Q728 376 763 335T798 224Q798 127 740 57Q683 -12 599 -12Q537 -12 502 30T467 139Q467 233 525 304T668 376ZM634 666H736L243 0H139ZM272 683Q333 683 368 641T403 531Q403 437 346 365Q289 294 203 294Q142 294 107 336T72 446Q72 540 129 611T272 683ZM648 286Q619 286 599 238T580 140Q580 77 617 77Q645 77 665 124T686 223Q686 286 648 286ZM253 593Q225 593 204 546T184 447Q184 384 221 384Q248 384 269 430T291 530Q291 593 253 593Z"
				   horiz-adv-x="814" unicode="%"/>
			<glyph d="M363 684Q444 684 497 644T550 536Q550 426 380 338Q426 275 487 215Q564 292 564 339Q564 367 539 380H781Q743 362 703 300Q646 208 575 143Q629 108 675 108Q697 108 715 118T757 150Q691 -10 588 -10Q525 -10 447 48Q338 -12 225 -12Q127 -12 76 29T25 144Q25 208 63 257T184 353Q139 441 139 491Q139 575 205 629T363 684ZM352 579Q326 579 306 559T287 507Q287 484 300 461T323 420Q412 469 412 521Q412 549 393 564T352 579ZM240 266Q180 224 180 177Q180 141 203 123T266 105Q308 105 356 127Q300 183 240 266Z"
				   horiz-adv-x="764" unicode="&amp;"/>
			<glyph d="M139 666H274L238 489Q229 444 199 393T131 302H127Q97 370 97 435Q97 460 103 489Z" horiz-adv-x="261"
				   unicode="'"/>
			<glyph d="M456 708Q380 671 315 573T209 330T168 64Q168 -26 192 -98T266 -205Q155 -175 87 -74T20 161Q20 347 146 501Q272 656 456 708Z"
				   horiz-adv-x="353" unicode="("/>
			<glyph d="M103 708Q215 676 282 578T350 343Q350 224 292 109T134 -88T-87 -205Q-12 -169 52 -74T158 165T200 439Q200 641 103 708Z"
				   horiz-adv-x="353" unicode=")"/>
			<glyph d="M213 716L360 673Q331 642 304 607T257 519Q339 527 425 581V422Q389 439 347 454T257 472Q279 418 304 386T359 326L216 273Q225 323 225 365Q225 408 214 456Q173 418 150 379T111 304L21 427Q89 440 122 455T187 493Q141 519 99 528T20 543L108 676Q134 620 157 590T214 532Q223 573 223 616Q223 659 213 716Z"
				   horiz-adv-x="418" unicode="*"/>
			<glyph d="M372 570H480L431 340H653L630 233H408L359 0H251L300 233H77L100 340H323Z" horiz-adv-x="695"
				   unicode="+"/>
			<glyph d="M111 175Q156 175 182 142T208 59Q208 3 173 -53T81 -144T-49 -178Q-60 -178 -75 -176Q-10 -154 33 -101Q76 -49 76 5Q48 5 29 25T11 77Q11 118 40 146T111 175Z"
				   horiz-adv-x="261" unicode=","/>
			<glyph d="M53 314H309L285 203H30Z" horiz-adv-x="320" unicode="-"/>
			<glyph d="M111 175Q150 175 172 150T195 88Q195 45 165 15T90 -15Q52 -15 29 9T6 71Q6 114 36 144T111 175Z"
				   horiz-adv-x="261" unicode="."/>
			<glyph d="M415 684H547L92 -15H-45Z" horiz-adv-x="465" unicode="/"/>
			<glyph d="M360 680Q450 680 501 613T552 435Q552 330 504 217Q457 104 385 44T227 -15Q137 -15 86 52T36 231Q36 337 84 449T203 621T360 680ZM328 558Q296 558 267 515T217 383T195 224Q195 170 212 137T257 105Q291 105 320 149T369 282T390 439Q390 493 372 525T328 558Z"
				   horiz-adv-x="534" unicode="0"/>
			<glyph d="M332 666H461L353 145Q345 107 345 83Q345 21 381 0H164L263 475L181 398L119 471Q218 547 332 666Z"
				   horiz-adv-x="534" unicode="1"/>
			<glyph d="M340 681Q433 681 492 633T551 504Q551 443 509 377T385 236L263 123H399Q466 123 513 186L473 0H-34L172 192Q300 310 346 374T393 484Q393 522 369 544T308 567Q268 567 244 546T220 495Q220 476 232 459T271 437L157 326Q116 343 95 379T75 461Q75 519 108 570T201 651T340 681Z"
				   horiz-adv-x="534" unicode="2"/>
			<glyph d="M173 666H620L361 392Q428 373 467 327T506 222Q506 116 425 50T214 -15Q123 -15 65 25T-9 129L133 219Q142 104 242 104Q285 104 313 130T341 196Q341 293 149 301L368 541H237Q197 541 167 530T110 489Z"
				   horiz-adv-x="534" unicode="3"/>
			<glyph d="M341 666H544L458 251H521L495 135H433Q421 78 421 55Q421 16 439 0H253L284 135H-8L2 183ZM376 542L177 251H310Z"
				   horiz-adv-x="534" unicode="4"/>
			<glyph d="M570 687L519 543H283L247 424Q359 420 428 364T498 221Q498 117 417 51T216 -15Q126 -15 64 24T-12 129L130 219Q139 104 239 104Q278 104 305 130T333 198Q333 243 287 272T160 301H78L184 666H445Q539 666 570 687Z"
				   horiz-adv-x="534" unicode="5"/>
			<glyph d="M350 682L579 665Q467 624 382 562T225 407L231 402Q285 444 355 444Q431 444 476 395T522 263Q522 190 484 124T380 21T232 -16Q138 -16 83 41T28 195Q28 342 117 479T350 682ZM285 333Q242 333 212 295T182 198Q182 149 206 125T263 101Q305 101 335 137T365 234Q365 284 341 308T285 333Z"
				   horiz-adv-x="534" unicode="6"/>
			<glyph d="M131 666H623L429 384Q337 248 293 159T234 0H31Q113 140 221 303T392 548H213Q126 548 70 477Z"
				   horiz-adv-x="534" unicode="7"/>
			<glyph d="M354 681Q440 681 493 640T547 533Q547 471 509 423Q471 376 411 361Q464 338 489 298T515 213Q515 118 433 51T232 -16Q135 -16 76 29T17 149Q17 220 63 273T186 343Q103 389 103 478Q103 566 176 623T354 681ZM333 572Q299 572 276 546T253 482Q253 446 273 427T320 409Q354 409 377 435T401 502Q401 536 380 554T333 572ZM269 283Q229 283 201 251T173 174Q173 136 197 116T253 96Q294 96 321 126T349 202Q349 242 324 262T269 283Z"
				   horiz-adv-x="534" unicode="8"/>
			<glyph d="M344 681Q439 681 494 623T549 470Q549 324 460 190T228 -9L-1 8Q116 51 198 109T351 258L345 263Q291 221 221 221Q145 221 100 270T55 403Q55 474 92 539T194 643T344 681ZM313 564Q271 564 241 528T211 431Q211 381 235 357T291 333Q334 333 364 370T394 467Q394 516 369 540T313 564Z"
				   horiz-adv-x="534" unicode="9"/>
			<glyph d="M175 470Q214 470 236 445T259 382Q259 337 228 308T154 279Q116 279 93 303T70 365Q70 410 100 440T175 470ZM114 175Q153 175 175 150T198 88Q198 43 167 14T93 -15Q55 -15 32 9T9 71Q9 116 39 145T114 175Z"
				   horiz-adv-x="261" unicode=":"/>
			<glyph d="M180 470Q219 470 241 445T264 382Q264 337 233 308T159 279Q121 279 98 303T75 365Q75 410 105 440T180 470ZM98 175Q143 175 169 142T195 59Q195 3 160 -53T68 -144T-62 -178L-88 -176Q-23 -154 20 -101T63 5L48 8Q24 13 11 32T-2 77Q-2 118 27 146T98 175Z"
				   horiz-adv-x="261" unicode=";"/>
			<glyph d="M674 597L648 476L257 286L256 280L569 101L543 -21L113 249L130 327Z" horiz-adv-x="695"
				   unicode="&lt;"/>
			<glyph d="M123 448H676L653 341H100ZM77 230H630L607 123H54Z" horiz-adv-x="695" unicode="="/>
			<glyph d="M187 597L617 327L600 249L56 -21L82 101L473 290L474 296L161 476Z" horiz-adv-x="695"
				   unicode="&gt;"/>
			<glyph d="M333 682Q425 682 473 647T521 550Q521 499 488 454T389 369Q314 321 285 292T257 233Q257 211 285 208Q255 180 211 180Q170 180 142 200T114 256Q114 341 227 409Q291 448 315 471T340 521Q340 541 324 552T281 564Q237 564 185 532T101 458L139 643Q229 682 333 682ZM175 144Q207 144 225 124T244 72Q244 36 219 12T158 -12Q126 -12 107 7T89 58Q89 94 114 119T175 144Z"
				   horiz-adv-x="461" unicode="?"/>
			<glyph d="M541 640Q706 640 809 549T913 315Q913 230 875 153T773 34T628 -8Q582 -8 555 6T513 56Q461 -8 375 -8Q314 -8 280 37T246 155Q246 232 281 308T376 429T508 474Q544 474 574 465T618 457Q652 457 700 484L633 155Q626 127 626 107Q626 90 633 73T661 57Q738 57 791 131T844 314Q844 433 759 510T534 587Q424 587 329 536T179 396T125 201Q125 49 233 -43T510 -135Q604 -135 693 -105T843 -17L894 -53Q830 -117 725 -153T513 -190Q299 -190 178 -86T58 192Q58 315 122 418T298 580T541 640ZM493 388Q457 388 423 317T389 163Q389 93 430 93Q453 93 473 125T511 230T528 330Q528 388 493 388Z"
				   horiz-adv-x="951" unicode="@"/>
			<glyph d="M412 666H568L629 103Q633 62 646 34T679 0H418Q435 4 445 23T455 75Q455 84 454 91L448 137H215Q183 78 175 60T168 32Q168 5 192 0H-50Q-8 14 55 113ZM418 462L283 243H437Z"
				   unicode="A"/>
			<glyph d="M112 666H412Q506 666 568 620T631 504Q631 444 591 396T492 339Q541 326 571 282T601 187Q601 101 524 50T317 0H-16Q30 15 45 81L150 585Q153 599 153 610Q153 655 112 666ZM266 295L226 102H313Q362 102 391 128T420 194Q420 238 394 266T326 295ZM323 565L288 395H363Q401 395 426 421T452 485Q452 520 433 542T381 565Z"
				   horiz-adv-x="630" unicode="B"/>
			<glyph d="M460 679Q555 679 609 643L568 453Q551 511 517 538T445 565Q388 565 338 519T259 400T230 255Q230 187 260 144T355 102Q453 102 519 189L488 48Q455 16 401 0T290 -15Q180 -15 110 58T40 249Q40 360 97 460T251 620T460 679Z"
				   horiz-adv-x="558" unicode="C"/>
			<glyph d="M118 666H403Q531 666 607 587T683 367Q683 267 636 182T502 49T302 0H-15Q30 11 46 90L149 584Q152 600 152 614Q152 655 118 666ZM320 560L225 106H300Q382 106 438 192T494 389Q494 468 462 514T370 560Z"
				   horiz-adv-x="683" unicode="D"/>
			<glyph d="M132 666H605L566 472Q561 555 455 555H335L301 395H398Q436 395 461 405T493 431L455 248Q453 269 430 278T376 288H279L243 111H369Q434 111 466 127T529 194L488 0H-15Q42 13 58 83L167 587Q170 599 170 613Q170 637 158 650T132 666Z"
				   horiz-adv-x="572" unicode="E"/>
			<glyph d="M130 666H604L565 472Q560 555 454 555H335L302 395H400Q438 395 462 405T494 431L456 248Q454 269 432 278T377 288H279L236 81Q232 67 232 54Q232 31 243 16T271 0H-15Q43 14 58 83L167 587Q170 601 170 613Q170 632 161 646T130 666Z"
				   horiz-adv-x="562" unicode="F"/>
			<glyph d="M492 681Q534 681 576 671T644 643L603 453Q588 511 554 538T462 565Q402 565 348 519T262 399T230 249Q230 177 261 134T348 92Q359 92 369 95L393 226Q395 240 395 247Q395 272 382 286T356 302H631Q603 294 589 276T570 232L529 33Q493 10 433 -3T313 -17Q183 -17 111 52T40 245Q40 356 102 459T268 621T492 681Z"
				   horiz-adv-x="626" unicode="G"/>
			<glyph d="M125 666H400Q348 652 334 591L291 395H511L553 587Q556 608 556 616Q556 630 552 639T541 655T521 666H796Q745 653 731 591L621 76Q617 57 617 50Q617 27 627 15T652 0H379Q400 3 418 22T443 72L488 288H268L224 76Q221 57 221 50Q221 27 231 14T256 0H-16Q6 4 23 24T46 72L156 587Q159 603 159 616Q159 656 125 666Z"
				   horiz-adv-x="731" unicode="H"/>
			<glyph d="M125 666H400Q348 652 334 591L224 76Q221 64 221 51Q221 28 230 14T254 0H-15Q8 4 24 23T47 72L156 587Q160 606 160 613Q160 636 150 649T125 666Z"
				   horiz-adv-x="335" unicode="I"/>
			<glyph d="M138 666H415Q384 657 368 634T345 571L248 116Q227 16 180 -35T51 -87Q4 -87 -32 -69T-84 -21Q-66 -26 -47 -26Q41 -25 76 138L164 553Q173 590 173 613Q173 659 138 666Z"
				   horiz-adv-x="349" unicode="J"/>
			<glyph d="M121 666H396Q348 654 334 591L285 365L485 571Q535 623 535 648Q535 662 519 666H763Q734 653 710 633T656 585T442 374L561 106Q582 59 611 32T662 0H428L277 331L224 76Q221 57 221 51Q221 29 232 15T257 0H-16Q4 3 22 22T46 72L156 587Q159 600 159 614Q159 657 121 666Z"
				   horiz-adv-x="694" unicode="K"/>
			<glyph d="M117 666H392Q344 654 330 591L227 111H343Q407 111 443 131T510 207L465 0H-16Q3 3 19 22T42 72L152 587Q155 607 155 614Q155 657 117 666Z"
				   horiz-adv-x="543" unicode="L"/>
			<glyph d="M123 666H379L473 301L710 666H971Q942 659 920 627T889 547L797 124Q791 93 791 70Q791 13 829 0H554Q580 7 599 40T629 124L700 444L396 -16L277 445L209 129Q203 104 203 77Q203 12 249 0H-15Q16 6 41 41T77 130L168 550Q173 572 173 594Q173 654 123 666Z"
				   horiz-adv-x="916" unicode="M"/>
			<glyph d="M95 666H312L505 299L565 590Q568 607 568 613Q568 633 558 647T527 666H758Q714 653 701 594L573 0H442Q419 99 391 150L256 405L186 71Q184 62 184 51Q184 29 196 15T225 0H-15Q10 4 26 21T50 68L151 537Q158 568 158 574Q158 592 137 625T95 666Z"
				   horiz-adv-x="692" unicode="N"/>
			<glyph d="M435 682Q555 682 624 609T694 416Q694 307 640 205Q587 104 495 44T297 -15Q179 -15 109 58T40 254Q40 365 93 464T237 623T435 682ZM415 565Q366 565 324 517T257 391T232 237Q232 177 252 139T318 102Q367 102 410 149T478 272T504 428Q504 488 483 526T415 565Z"
				   horiz-adv-x="691" unicode="O"/>
			<glyph d="M123 666H414Q518 666 578 615T638 483Q638 420 603 364T506 275T363 242Q306 242 261 255L223 76Q220 64 220 51Q220 29 230 15T256 0H-16Q4 3 22 22T46 72L157 587Q161 606 161 614Q161 657 123 666ZM329 565L282 356Q304 348 333 348Q388 348 424 386T461 479Q461 514 442 539T382 565Z"
				   horiz-adv-x="621" unicode="P"/>
			<glyph d="M435 682Q555 682 624 609T694 416Q694 307 639 204T491 42Q516 10 575 -11T697 -33Q614 -87 512 -87Q392 -87 312 -15H297Q179 -15 109 58T40 254Q40 365 92 464T237 623T435 682ZM415 565Q366 565 324 517T257 391T232 237Q232 177 252 139T318 102Q367 102 410 149T478 272T504 428Q504 488 483 526T415 565Z"
				   horiz-adv-x="691" unicode="Q"/>
			<glyph d="M122 666H415Q521 666 582 618T643 490Q643 414 590 353T460 280Q476 264 485 236L539 88Q553 50 573 27T612 0H381L314 218Q296 278 277 278H268L222 76Q218 57 218 50Q218 28 229 15T255 0H-16Q6 4 23 23T46 72L156 587Q160 607 160 614Q160 657 122 666ZM328 565L286 363H341Q398 363 432 398T466 482Q466 519 445 542T394 565Z"
				   horiz-adv-x="641" unicode="R"/>
			<glyph d="M352 682Q396 682 438 672T539 631L502 453Q472 507 428 536T343 565Q311 565 291 550T271 504Q271 478 296 452T388 382Q504 303 504 202Q504 107 428 45T229 -16Q169 -16 105 2T7 46L53 259Q77 187 128 146T242 105Q277 105 298 123T319 171Q319 195 300 216T207 287Q95 362 95 467Q95 559 167 620T352 682Z"
				   horiz-adv-x="531" unicode="S"/>
			<glyph d="M112 666H698L655 470Q652 521 625 539T536 558H468L365 76Q362 62 362 50Q362 29 372 15T397 0H125Q147 3 165 22T189 72L292 558H221Q154 558 120 537T66 470Z"
				   horiz-adv-x="621" unicode="T"/>
			<glyph d="M116 666H390Q338 653 328 603L248 237Q240 203 240 179Q240 140 260 122T328 104Q375 104 408 132T454 216L533 597Q535 606 535 620Q535 636 527 648T502 666H737Q713 660 697 642T678 600L603 237Q583 144 545 89T448 10T289 -15Q170 -15 117 36T64 171Q64 211 75 259L151 603Q153 610 153 622Q153 638 144 649T116 666Z"
				   horiz-adv-x="675" unicode="U"/>
			<glyph d="M97 666H358Q316 655 316 598Q316 589 318 576L353 258L546 564Q573 606 573 632Q573 643 567 652T545 666H802Q778 658 749 628T692 554L335 0H204L143 563Q138 607 126 633T97 666Z"
				   horiz-adv-x="695" unicode="V"/>
			<glyph d="M91 666H351Q309 656 309 596Q309 590 311 571L338 256L488 518L484 563Q480 607 469 633T445 666H691Q649 654 649 594Q649 587 650 576L676 257L846 568Q867 608 867 630Q867 640 864 646T856 657T840 666H1089Q1066 660 1041 634T990 564L667 0H535L508 329L318 0H186L135 563Q131 605 119 633T91 666Z"
				   horiz-adv-x="987" unicode="W"/>
			<glyph d="M92 666H351Q337 661 331 652T325 630Q325 616 334 594L383 473L488 594Q516 627 516 645Q516 660 497 666H739Q700 653 651 594L436 345L542 84Q556 48 572 26T603 0H346Q369 6 369 37Q369 55 357 84L310 201L210 84Q176 43 176 22Q176 7 190 0H-49Q-26 5 43 84L257 330L150 594Q139 622 123 641T92 666Z"
				   horiz-adv-x="647" unicode="X"/>
			<glyph d="M79 666H331Q321 662 316 652T311 626Q311 614 316 594L362 408L493 591Q517 624 517 644Q517 661 499 666H724Q687 655 643 594L399 256L359 76Q356 61 356 50Q356 29 365 16T391 0H120Q142 3 159 22T184 72L224 256L138 594Q131 622 115 641T79 666Z"
				   horiz-adv-x="617" unicode="Y"/>
			<glyph d="M131 666H660L258 111H399Q459 111 497 129T566 192L518 0H-27L86 158L373 555H222Q174 555 138 539T87 491Z"
				   horiz-adv-x="599" unicode="Z"/>
			<glyph d="M147 683H420L402 598H253L109 -94H259L241 -181H-33Z" horiz-adv-x="346" unicode="["/>
			<glyph d="M101 684H233L402 -15H268Z" horiz-adv-x="459" unicode="\"/>
			<glyph d="M120 683H393L214 -181H-60L-42 -94H107L251 598H102Z" horiz-adv-x="346" unicode="]"/>
			<glyph d="M366 680H476L576 156H451L386 531H382L168 156H45Z" horiz-adv-x="695" unicode="^"/>
			<glyph d="M-46 -78H530L516 -140H-59Z" horiz-adv-x="566" unicode="_"/>
			<glyph d="M171 666H365L372 501Z" horiz-adv-x="506" unicode="`"/>
			<glyph d="M534 486L464 161Q454 116 454 96Q454 47 512 41L286 -15L293 47Q263 17 223 1T143 -15Q87 -15 54 30T21 151Q21 239 63 315T173 433T321 475Q360 475 395 468T443 462Q487 462 534 486ZM311 386Q281 386 252 354T205 271T187 165Q187 99 227 99Q242 99 259 114T291 155T322 253T340 349Q340 385 311 386Z"
				   horiz-adv-x="547" unicode="a"/>
			<glyph d="M326 696L268 428Q292 453 328 469T396 485Q454 485 487 443T521 330Q521 239 479 156T371 32T219 -10Q191 -10 146 0T86 10Q50 10 14 -11L141 578Q143 589 143 597Q143 613 130 623T83 638ZM316 369Q278 369 248 321Q237 303 220 226T204 122Q204 104 213 97T245 90Q271 90 294 120T334 202T350 301Q350 369 316 369Z"
				   horiz-adv-x="542" unicode="b"/>
			<glyph d="M332 484Q382 484 412 459T442 394Q442 362 423 329T372 277Q341 257 307 257Q313 264 317 278T321 310Q321 341 309 360T279 379Q256 379 234 355T198 292T185 208Q185 152 210 121T281 90Q312 90 346 105T411 148Q385 73 322 28T187 -16Q109 -16 64 30T20 156Q20 248 62 323T176 441T332 484Z"
				   horiz-adv-x="438" unicode="c"/>
			<glyph d="M577 696L451 119Q447 99 447 86Q447 64 462 54T510 41L278 -15L293 44Q262 15 226 0T157 -14Q96 -14 58 29T21 149Q21 230 57 308T154 436T278 485Q309 485 328 478T363 455L391 574Q395 590 395 595Q395 629 329 638ZM287 379Q265 379 242 347T203 261T187 165Q187 96 224 96Q258 96 295 153Q306 170 319 231T332 318Q332 349 322 364T287 379Z"
				   horiz-adv-x="540" unicode="d"/>
			<glyph d="M334 484Q396 484 434 452T473 365Q473 313 434 268T331 199Q267 175 177 170Q180 150 192 130T226 100T273 91Q309 91 351 106T428 148Q405 74 342 29T203 -16Q119 -16 70 34T21 168Q21 251 64 325T179 442T334 484ZM297 390Q275 390 249 371T203 321T176 252Q215 254 254 268T314 303T335 350Q335 369 324 379T297 390Z"
				   horiz-adv-x="468" unicode="e"/>
			<glyph d="M354 692Q404 692 433 671T462 620Q462 592 442 572T391 548Q398 558 398 569Q398 582 389 591T365 601Q340 601 325 570T296 464H421L403 369H279L201 -7Q181 -99 134 -144T10 -189Q-70 -189 -109 -125Q-83 -129 -72 -129Q-27 -129 0 -101T40 -7L118 369H41L59 464H136Q159 577 215 634T354 692Z"
				   horiz-adv-x="385" unicode="f"/>
			<glyph d="M578 485L557 379H466Q474 373 480 351T486 312Q486 262 453 223T362 162T239 141Q227 141 216 142Q193 133 185 128T178 118Q178 110 196 104T264 91Q346 78 387 61T450 20T471 -40Q471 -82 438 -115T341 -169T196 -190Q87 -190 24 -159T-39 -78Q-39 -62 -21 -43T27 -11T94 10Q61 22 39 42T18 84Q18 131 125 170Q95 188 75 218T56 287Q56 347 89 391T180 460T312 484Q351 484 397 474T485 464Q544 464 578 485ZM281 396Q251 396 231 368T211 300Q211 269 225 249T265 229Q296 229 317 257T338 326Q338 357 323 376T281 396ZM178 -14Q145 -22 126 -35T107 -63Q107 -82 136 -93T216 -104Q252 -104 278 -93Q304 -83 304 -69Q304 -48 280 -36T178 -14Z"
				   horiz-adv-x="546" unicode="g"/>
			<glyph d="M323 696L264 433Q291 456 331 470T412 485Q462 485 487 462T513 395Q513 373 506 339L458 109Q455 95 455 69Q455 44 461 24T482 0H276L344 312Q347 324 347 334Q347 356 337 368T310 380Q289 380 266 360T238 315Q207 162 171 0H13L139 583Q141 593 141 597Q141 629 85 638Z"
				   horiz-adv-x="538" unicode="h"/>
			<glyph d="M278 486L197 109Q191 83 191 60Q191 31 199 16T219 0H13L91 355Q96 375 96 382Q96 398 80 411T43 427L35 428ZM227 692Q263 692 283 669T304 612Q304 572 276 544T208 517Q172 517 151 539T130 596Q130 636 158 664T227 692Z"
				   horiz-adv-x="286" unicode="i"/>
			<glyph d="M227 692Q263 692 283 669T304 612Q304 571 276 544T208 517Q172 517 151 539T130 596Q130 636 158 664T227 692ZM278 486L175 0Q157 -84 106 -132T-14 -180Q-65 -180 -108 -162T-167 -120Q-143 -126 -123 -126Q-66 -126 -32 -94T15 0T91 359Q95 376 95 381Q95 397 78 410T40 427L35 428Z"
				   horiz-adv-x="289" unicode="j"/>
			<glyph d="M323 696L228 270L341 389Q372 421 372 442Q372 446 371 449T366 456T354 464H619Q556 450 493 386L367 255L447 90Q464 56 487 40T544 25Q517 7 482 -2T411 -12Q330 -12 302 49L220 233L173 0H13L138 581Q140 589 140 594Q140 610 123 622T80 638Z"
				   horiz-adv-x="570" unicode="k"/>
			<glyph d="M323 696L196 109Q190 82 190 59Q190 31 198 16T218 0H13L137 574Q141 589 141 595Q140 631 85 638Z"
				   horiz-adv-x="286" unicode="l"/>
			<glyph d="M262 486L253 429Q281 453 323 469T407 485Q497 485 513 430Q537 453 585 469T673 485Q726 485 753 461T780 395Q780 371 773 339L726 109Q723 97 723 71Q723 43 730 24T750 0H543L611 312Q614 325 614 336Q613 380 578 380Q556 380 534 358T505 304L438 0H278L346 312Q349 324 349 335Q349 355 339 367T312 380Q299 380 283 370T256 343T239 304L173 0H15L96 370Q97 377 97 383Q97 401 82 413T45 427L37 428Z"
				   horiz-adv-x="811" unicode="m"/>
			<glyph d="M262 486L253 428Q328 485 407 485Q514 485 514 394Q514 366 508 339L460 109Q457 92 457 70Q457 39 464 21T484 0H278L346 312Q349 324 349 335Q349 355 339 367T312 380Q291 380 268 358T239 303L173 0H15L96 370Q97 378 97 382Q97 400 82 412T44 427L37 428Z"
				   horiz-adv-x="538" unicode="n"/>
			<glyph d="M305 482Q396 482 449 428T502 286Q502 209 462 137T358 26T216 -12Q156 -12 112 13T44 83T21 186Q21 264 58 333T161 442T305 482ZM292 378Q265 378 240 349T198 267T180 170Q180 133 193 112T228 91Q254 91 278 117T321 197T339 297Q339 335 326 356T292 378Z"
				   horiz-adv-x="523" unicode="o"/>
			<glyph d="M398 486Q456 486 490 440T524 316Q524 231 484 152T380 31T236 -11Q201 -11 178 6L135 -181H-24L90 349Q94 374 94 378Q94 401 80 411T32 427L255 485L250 424Q282 454 322 470T398 486ZM314 366Q298 366 277 348T242 308Q231 291 218 225T205 134Q205 90 242 90Q270 90 294 118T336 199T353 298Q353 366 314 366Z"
				   horiz-adv-x="544" unicode="p"/>
			<glyph d="M532 485L410 -78Q403 -108 403 -132Q403 -172 425 -181H228L277 43Q210 -15 149 -15Q91 -15 57 26T24 140Q24 230 65 313T174 438T326 480Q348 480 392 472T461 464Q496 464 532 485ZM299 380Q273 380 250 351T211 270T196 173Q196 137 204 121T230 105Q247 105 265 118Q284 131 299 155Q308 169 324 244T341 348Q341 365 333 372T299 380Z"
				   horiz-adv-x="545" unicode="q"/>
			<glyph d="M272 486L259 419Q283 450 316 467T382 484Q417 484 437 462T458 402Q458 354 416 320T313 284Q320 290 324 303T328 330Q328 344 323 355T305 367Q252 367 223 233L173 0H15L95 361Q98 372 98 380Q98 398 83 410T40 427L33 428Z"
				   horiz-adv-x="438" unicode="r"/>
			<glyph d="M269 485Q335 485 376 460T418 393Q418 340 335 304L337 316Q337 346 315 364T262 383Q237 383 220 373T204 347Q204 333 221 317T294 266Q380 210 380 137Q380 93 353 59T275 5T162 -15Q57 -15 -5 24L39 202Q48 150 80 118T157 87Q182 87 199 96T217 122Q217 136 204 148T137 196Q57 249 57 322Q57 371 85 408T163 465T269 485Z"
				   horiz-adv-x="420" unicode="s"/>
			<glyph d="M309 614L278 464H407L388 369H258L222 208Q210 156 210 130Q210 101 224 90T268 80Q307 80 361 107Q336 47 285 15T163 -16Q106 -16 72 10T39 88Q39 107 45 131L100 369H19Z"
				   horiz-adv-x="380" unicode="t"/>
			<glyph d="M278 486L207 159Q204 144 204 132Q204 91 239 91Q262 91 283 113T312 168L348 321Q358 361 358 385Q358 406 347 414T311 427L306 428L542 486L458 101Q455 91 455 82Q455 65 468 56T512 43L287 -15L299 43Q273 18 232 2T146 -14Q94 -14 66 7T38 77Q38 99 45 132L83 321Q91 361 91 381Q91 402 82 412T47 427L41 428Z"
				   horiz-adv-x="556" unicode="u"/>
			<glyph d="M231 485L264 199L360 348Q389 392 389 422Q389 437 381 447T362 461L353 464H570L244 -4H129L83 366Q79 394 65 409T21 428L9 429Z"
				   horiz-adv-x="524" unicode="v"/>
			<glyph d="M231 485L252 215L391 464H505L535 209L620 346Q648 392 648 421Q648 438 638 449T615 464H828L513 -4H397L376 235L231 -4H115L82 376Q77 424 21 428L9 429Z"
				   horiz-adv-x="785" unicode="w"/>
			<glyph d="M260 485Q265 476 290 415T322 344L374 395Q401 423 401 443Q401 452 393 458T381 465H589L365 248Q385 215 439 80Q450 56 469 45T532 33L310 -24L242 129L179 67Q152 39 152 22Q152 13 158 7T171 0H-32L199 225L134 370Q121 400 102 412T51 427L37 428Z"
				   horiz-adv-x="559" unicode="x"/>
			<glyph d="M226 484L293 153Q345 237 366 294T388 391Q388 418 375 438T336 464H546Q507 335 443 222T302 8T155 -139T32 -186Q-12 -186 -36 -165T-60 -109Q-60 -81 -49 -53Q-23 -75 15 -75Q54 -75 93 -56T166 0L83 376Q78 398 62 412T17 428L5 429Z"
				   horiz-adv-x="524" unicode="y"/>
			<glyph d="M74 472H473L213 88H291Q328 88 350 93T388 108T423 153L385 0H-22L238 384H128Q99 384 75 371T41 333Z"
				   horiz-adv-x="459" unicode="z"/>
			<glyph d="M526 700Q453 697 411 664T353 558L326 430Q308 346 259 302T136 255Q183 251 206 238T245 201T260 137Q260 119 253 80Q237 1 228 -41T221 -94Q221 -139 249 -161T341 -190Q224 -190 174 -180T99 -148T74 -87Q74 -67 78 -53L106 82Q117 134 117 164Q117 209 94 230T10 255Q68 258 97 275T145 327T178 427L206 563Q217 615 249 644T338 687T526 700Z"
				   horiz-adv-x="386" unicode="{"/>
			<glyph d="M205 780H332L119 -220H-7Z" horiz-adv-x="272" unicode="|"/>
			<glyph d="M66 700Q183 700 235 689T310 656T333 596Q333 578 328 559Q310 469 300 421T290 346Q290 300 313 279T397 255Q338 251 309 234T262 182T229 82L201 -53Q190 -105 156 -135T66 -177T-119 -190Q-44 -186 -2 -153T54 -49L81 80Q90 122 105 153T143 205T195 239T271 255Q147 260 147 373Q147 402 153 430L180 558Q186 583 186 603Q186 648 157 671T66 700Z"
				   horiz-adv-x="386" unicode="}"/>
			<glyph d="M269 418Q335 418 406 361Q455 322 470 312T500 303Q526 303 543 327T573 406H690Q643 179 483 179Q410 179 336 239Q293 274 272 286T235 298Q207 298 189 273T158 195H40Q64 300 125 359T269 418Z"
				   horiz-adv-x="695" unicode="~"/>
			<glyph d="" horiz-adv-x="213" unicode=" "/>
			<glyph d="M168 299Q184 276 193 243T202 171Q202 149 199 122L178 -48Q174 -81 174 -106Q174 -169 199 -179H-62Q-43 -174 -23 -140T13 -48L63 122Q78 173 106 220T168 299ZM200 506Q232 506 250 486T269 435Q269 399 244 374T183 350Q151 350 132 369T114 421Q114 458 139 482T200 506Z"
				   horiz-adv-x="304" unicode="¡"/>
			<glyph d="M328 671H436L417 574Q454 567 476 544T498 487Q498 455 479 423T430 371T364 350Q378 366 378 403Q378 434 366 453T336 472Q313 472 291 449T255 386T241 301Q241 246 266 214T338 183Q369 183 403 198T468 241Q449 185 408 144T315 88L293 -17H185L206 81Q146 93 111 137T77 250Q77 363 140 450T306 567Z"
				   horiz-adv-x="534" unicode="¢"/>
			<glyph d="M424 682Q525 682 573 644L504 507Q502 538 478 556T418 574Q389 574 369 557T335 507T304 394H424L402 290H282Q265 216 250 181T220 129Q254 128 280 124T325 121Q371 121 401 131T469 173L475 34Q456 11 422 -2T345 -15Q307 -15 236 0Q166 15 127 15Q90 15 50 5T-13 -19L-24 105Q19 106 41 123T82 179T117 290H60L82 394H140Q176 550 243 616T424 682Z"
				   horiz-adv-x="534" unicode="£"/>
			<glyph d="M175 540L249 466Q278 477 309 477Q343 477 371 466L444 540L516 469L446 398Q460 371 460 333Q460 295 446 268L516 199L444 127L371 199Q343 188 309 188Q275 188 247 199L175 127L103 199L173 268Q158 298 158 333Q158 368 173 398L103 469ZM309 403Q279 403 260 383T241 332Q241 301 259 280T309 260Q341 260 360 281T379 332Q379 363 359 383T309 403Z"
				   horiz-adv-x="583" unicode="¤"/>
			<glyph d="M49 666H329Q312 660 302 638T293 584Q293 573 297 549L319 416L383 527Q434 612 434 642Q434 660 420 666H637Q615 660 584 627T519 540L460 447H557L540 363H408L365 295H526L508 210H337L319 122Q312 92 312 66Q312 37 322 19T347 0H67Q83 3 98 16T125 55T147 122L165 210H-8L9 295H171L157 363H23L40 447H141L122 541Q111 594 92 626T49 666Z"
				   horiz-adv-x="561" unicode="¥"/>
			<glyph d="M169 675H296L221 325H94ZM63 175H190L115 -175H-11Z" horiz-adv-x="249" unicode="¦"/>
			<glyph d="M405 680Q476 680 532 659T609 602L491 501Q476 532 446 550T381 569Q353 569 330 554T307 515Q307 497 326 481T393 446Q477 410 510 385T559 336T576 280Q576 189 469 133Q510 100 510 35Q510 -21 475 -67T380 -138T245 -164Q164 -164 97 -136T-10 -60L111 41Q133 0 172 -24T254 -48Q288 -48 310 -32T333 9Q333 27 318 42T261 77Q187 109 160 125T111 161T79 202T69 244Q69 291 96 324T189 386Q163 403 149 429T135 486Q135 540 170 584T269 654T405 680ZM298 336Q273 330 254 311T235 274Q235 259 246 247T275 225T360 190Q381 194 398 211T415 250Q415 266 404 279T374 303T298 336Z"
				   horiz-adv-x="615" unicode="§"/>
			<glyph d="M424 680Q452 680 469 662T487 614Q487 581 464 558T408 536Q379 536 361 554T344 601Q344 634 367 657T424 680ZM214 680Q242 680 259 662T277 614Q277 581 254 558T198 536Q169 536 151 554T134 601Q134 634 157 657T214 680Z"
				   horiz-adv-x="506" unicode="¨"/>
			<glyph d="M383 677Q479 677 558 632T679 510T721 333Q721 233 679 155Q637 78 557 33T383 -11Q286 -11 205 34T83 157T42 333Q42 433 84 510T207 632T383 677ZM383 626Q305 626 240 590T137 487T100 334Q100 247 137 180T239 77T383 40Q463 40 528 78Q594 116 629 182T664 333Q664 418 629 484T528 588T383 626ZM397 559Q452 559 508 525V366Q493 417 465 445T403 474Q362 474 335 435T309 340Q309 278 336 238T407 199Q438 199 466 214T514 262V162Q496 138 460 122T391 106Q332 106 289 133T222 211T199 323Q199 389 225 444T296 529T397 559Z"
				   horiz-adv-x="732" unicode="©"/>
			<glyph d="M401 682L350 448Q343 419 343 402Q343 385 353 375T385 362L222 322L227 366Q203 343 174 332T119 322Q79 322 55 355T31 442Q31 503 60 557T139 642T247 674Q279 674 301 669T334 665Q366 665 401 682ZM240 610Q222 610 200 587T164 530T151 453Q151 404 180 404Q194 404 211 423T237 473T253 537T260 584Q260 610 240 610Z"
				   horiz-adv-x="382" unicode="ª"/>
			<glyph d="M399 434H533L363 252L449 71H330L237 252ZM174 434H307L145 252L240 71H120L18 252Z" horiz-adv-x="497"
				   unicode="«"/>
			<glyph d="M123 414H676L617 140H510L546 308H100Z" horiz-adv-x="705" unicode="¬"/>
			<glyph d="M68 314H323L300 203H45Z" horiz-adv-x="330" unicode="­"/>
			<glyph d="M382 677Q478 677 557 632T678 510T720 333Q720 233 678 155Q636 78 556 33T382 -11Q285 -11 204 34T82 157T41 333Q41 433 83 510T206 632T382 677ZM382 626Q301 626 234 587T133 483T98 334Q98 249 134 182T236 78T382 40Q460 40 524 76Q589 113 625 179T662 333Q662 420 625 486T524 589T382 626ZM226 557H396Q458 557 496 520T535 424Q535 378 512 343T452 303Q471 290 481 260L513 171Q520 150 531 135T555 119H431L387 246Q375 281 356 281H351V199Q351 164 358 143T378 119H232Q244 122 251 144T259 199V474Q259 500 254 516T243 542T226 557ZM351 486V350H383Q407 350 424 368T441 419Q441 448 425 467T383 486Z"
				   horiz-adv-x="727" unicode="®"/>
			<glyph d="M149 635H486L471 565H134Z" horiz-adv-x="506" unicode="¯"/>
			<glyph d="M204 681Q249 681 283 662T336 610T355 537Q355 474 313 433T204 393Q137 393 95 433T53 537Q53 577 71 610T124 662T204 681ZM204 608Q174 608 154 588T135 537Q135 506 154 485T204 465Q236 465 255 486T274 537Q274 568 254 588T204 608Z"
				   horiz-adv-x="356" unicode="°"/>
			<glyph d="M382 619H490L454 447H664L641 342H431L395 170H287L323 342H112L135 447H346ZM62 106H591L569 0H40Z"
				   horiz-adv-x="705" unicode="±"/>
			<glyph d="M275 689Q344 689 382 661T421 580Q421 541 380 489T243 366H311Q331 366 346 371T374 385T389 400L368 295H55L220 449Q268 493 290 523T312 576Q312 597 297 610T262 623Q238 623 223 609T209 576Q209 564 215 555T235 543L166 477Q139 487 124 509T110 562Q110 594 131 624T190 671T275 689Z"
				   horiz-adv-x="340" unicode="²"/>
			<glyph d="M293 691Q354 691 392 666T431 597Q431 557 400 526T322 488H324Q364 472 381 449T399 404Q399 371 377 345T311 303T221 287Q162 287 121 310T73 371L181 428Q182 400 199 378T239 356Q259 356 271 367T284 394Q284 420 252 441T173 465L203 525Q236 519 249 519Q277 519 296 537T316 584Q316 606 301 616T267 626Q252 626 239 616T226 593Q226 585 231 577L131 541Q119 562 119 578Q119 629 167 660T293 691Z"
				   horiz-adv-x="351" unicode="³"/>
			<glyph d="M327 666H521L254 501Z" horiz-adv-x="506" unicode="´"/>
			<glyph d="M114 468H273L207 159Q204 144 204 132Q204 90 240 90Q262 90 284 110T313 162L380 468H539L463 127Q460 111 460 101Q460 85 471 73T503 60L369 -21Q343 -12 327 8T308 52Q256 -15 213 -15Q189 -15 175 -5L136 -181H-60Q-41 -177 -25 -152T-1 -88Z"
				   horiz-adv-x="557" unicode="µ"/>
			<glyph d="M399 670H712Q699 645 685 602T662 511L525 -180H429L581 587H492L339 -180H243L304 126H286Q208 126 151 154T63 234T32 351Q32 435 81 511T213 628T399 670Z"
				   horiz-adv-x="742" unicode="¶"/>
			<glyph d="M139 326Q178 326 201 301T224 239Q224 195 193 165T119 136Q81 136 58 160T35 222Q35 266 65 296T139 326Z"
				   horiz-adv-x="261" unicode="·"/>
			<glyph d="M266 9H344L303 -36Q334 -40 352 -55T371 -96Q371 -117 353 -138T307 -172T244 -185Q191 -185 153 -159Q167 -162 183 -162Q222 -162 246 -146T271 -112Q271 -95 251 -84T197 -73Z"
				   horiz-adv-x="506" unicode="¸"/>
			<glyph d="M252 681H351L288 379Q283 356 283 342Q283 301 294 295H155L208 539L90 433L116 555Q198 627 252 681Z"
				   horiz-adv-x="269" unicode="¹"/>
			<glyph d="M244 678Q309 678 347 639T386 536Q386 479 356 427Q327 375 281 348T180 322Q116 322 78 360T40 464Q40 520 67 570T140 649T244 678ZM235 603Q214 603 196 579T166 518T154 453Q154 425 162 410T188 396Q208 396 226 416T256 475T268 544Q268 573 259 588T235 603Z"
				   horiz-adv-x="389" unicode="º"/>
			<glyph d="M277 434H397L499 252L343 71H210L371 252ZM68 434H187L279 252L118 71H-16L154 252Z" horiz-adv-x="497"
				   unicode="»"/>
			<glyph d="M585 388H738L688 146H736L721 79H673Q667 48 667 35Q667 21 669 13T676 1H546L564 79H372L379 110ZM560 681H657L272 0H172ZM259 681H358L295 379Q290 356 290 342Q290 301 301 295H162L215 539L97 433L123 555Q205 627 259 681ZM616 313L494 146H579Z"
				   horiz-adv-x="750" unicode="¼"/>
			<glyph d="M618 394Q689 394 726 365T764 285Q764 247 724 196T586 71H654Q681 71 703 81T733 106L724 63L711 0H398Q526 120 569 159T633 229T655 281Q655 303 640 315T603 327Q581 327 566 314T552 281Q552 269 558 259T578 248L509 182Q483 192 468 213T453 267Q453 299 475 329T534 376T618 394ZM560 681H657L272 0H172ZM259 681H358L295 379Q290 356 290 342Q290 301 301 295H162L215 539L97 433L123 555Q205 627 259 681Z"
				   horiz-adv-x="800" unicode="½"/>
			<glyph d="M701 388H854L804 146H852L837 79H789Q783 48 783 36Q783 21 786 12T792 1H662L680 79H488L495 110ZM309 691Q372 691 409 665T447 597Q447 556 415 525T338 488H340Q374 476 394 453T415 404Q415 369 390 342T325 301T237 287Q177 287 136 310T89 371L197 428Q198 401 214 378T255 356Q274 356 287 367T300 394Q300 420 268 440T189 465L219 525Q226 523 240 521T265 519Q293 519 312 537T332 584Q332 606 317 616T283 626Q269 626 255 616T242 593Q242 585 247 577L147 541Q135 562 135 578Q135 629 183 660T309 691ZM676 681H773L388 0H288ZM732 313L610 146H695Z"
				   horiz-adv-x="928" unicode="¾"/>
			<glyph d="M301 506Q333 506 351 486T370 435Q370 399 345 374T284 350Q252 350 233 369T215 421Q215 458 240 482T301 506ZM253 315Q296 315 322 294T349 239Q349 195 320 157T236 85Q171 45 147 22T123 -26Q123 -46 139 -57T183 -69Q225 -69 276 -39T362 37L324 -148Q287 -165 233 -176T130 -187Q39 -187 -9 -152T-58 -55Q-58 -19 -42 12T2 71T123 158Q166 186 186 211T207 262Q207 276 198 281T178 288Q207 315 253 315Z"
				   horiz-adv-x="461" unicode="¿"/>
			<glyph d="M412 666H568L629 103Q633 62 646 34T679 0H418Q435 4 445 23T455 75Q455 84 454 91L448 137H215Q183 78 175 60T168 32Q168 5 192 0H-50Q-8 14 55 113ZM418 462L283 243H437ZM336 860H530L537 695Z"
				   unicode="À"/>
			<glyph d="M412 666H568L629 103Q633 62 646 34T679 0H418Q435 4 445 23T455 75Q455 84 454 91L448 137H215Q183 78 175 60T168 32Q168 5 192 0H-50Q-8 14 55 113ZM418 462L283 243H437ZM518 860H712L445 695Z"
				   unicode="Á"/>
			<glyph d="M412 666H568L629 103Q633 62 646 34T679 0H418Q435 4 445 23T455 75Q455 84 454 91L448 137H215Q183 78 175 60T168 32Q168 5 192 0H-50Q-8 14 55 113ZM418 462L283 243H437ZM526 900L655 695L497 764L314 695Z"
				   unicode="Â"/>
			<glyph d="M412 666H568L629 103Q633 62 646 34T679 0H418Q435 4 445 23T455 75Q455 84 454 91L448 137H215Q183 78 175 60T168 32Q168 5 192 0H-50Q-8 14 55 113ZM418 462L283 243H437ZM652 871Q668 851 668 822Q668 780 634 746T553 712Q533 712 513 720T476 738T441 757T406 766Q384 766 369 751T346 699Q329 719 329 750Q329 792 360 823T438 855Q460 855 481 847T522 829T559 811T591 803Q618 803 631 820Q645 838 652 871Z"
				   unicode="Ã"/>
			<glyph d="M412 666H568L629 103Q633 62 646 34T679 0H418Q435 4 445 23T455 75Q455 84 454 91L448 137H215Q183 78 175 60T168 32Q168 5 192 0H-50Q-8 14 55 113ZM418 462L283 243H437ZM621 854Q650 854 667 835T684 788Q684 755 661 732T605 710Q576 710 558 728T541 775Q541 809 564 831T621 854ZM411 854Q440 854 457 835T474 788Q474 755 451 732T395 710Q366 710 348 728T331 775Q331 809 354 831T411 854Z"
				   unicode="Ä"/>
			<glyph d="M412 666H568L629 103Q633 62 646 34T679 0H418Q435 4 445 23T455 75Q455 84 454 91L448 137H215Q183 78 175 60T168 32Q168 5 192 0H-50Q-8 14 55 113ZM418 462L283 243H437ZM503 893Q546 893 576 865T606 792Q606 746 576 717T503 689Q458 689 429 717T400 792Q400 837 429 865T503 893ZM503 844Q480 844 466 829T452 792Q452 769 466 753T503 738Q524 738 538 753T552 792Q552 816 538 830T503 844Z"
				   unicode="Å"/>
			<glyph d="M386 666H915L876 472Q874 514 846 534T765 555H652L628 395H712Q750 395 776 405T807 431L769 248Q768 267 747 277T690 288H612L586 111H693Q758 111 794 131T857 207L812 0H336Q351 2 366 11T394 39T410 83L418 137H226Q192 86 183 65T174 33Q174 20 180 11T200 0H-50Q-36 5 -7 35T55 113L388 580Q411 614 411 638Q411 651 403 658T386 666ZM478 511L298 243H435Z"
				   horiz-adv-x="922" unicode="Æ"/>
			<glyph d="M460 679Q502 679 543 669T609 643L568 453Q552 506 520 535T445 565Q391 565 342 523T262 405T230 255Q230 182 262 142T355 102Q403 102 446 125T519 189L488 48Q443 6 359 -9L335 -36Q366 -40 384 -55T403 -95Q403 -116 386 -138T340 -172T276 -185Q222 -185 185 -159Q199 -162 215 -162Q254 -162 278 -146T302 -112Q302 -97 286 -86T229 -73L278 -15Q169 -9 104 64T40 249Q40 361 98 461T253 620T460 679Z"
				   horiz-adv-x="558" unicode="Ç"/>
			<glyph d="M132 666H605L566 472Q561 555 455 555H335L301 395H398Q436 395 461 405T493 431L455 248Q453 269 430 278T376 288H279L243 111H369Q434 111 466 127T529 194L488 0H-15Q42 13 58 83L167 587Q170 599 170 613Q170 637 158 650T132 666ZM263 860H457L464 695Z"
				   horiz-adv-x="572" unicode="È"/>
			<glyph d="M132 666H605L566 472Q561 555 455 555H335L301 395H398Q436 395 461 405T493 431L455 248Q453 269 430 278T376 288H279L243 111H369Q434 111 466 127T529 194L488 0H-15Q42 13 58 83L167 587Q170 599 170 613Q170 637 158 650T132 666ZM396 860H590L323 695Z"
				   horiz-adv-x="572" unicode="É"/>
			<glyph d="M132 666H605L566 472Q561 555 455 555H335L301 395H398Q436 395 461 405T493 431L455 248Q453 269 430 278T376 288H279L243 111H369Q434 111 466 127T529 194L488 0H-15Q42 13 58 83L167 587Q170 599 170 613Q170 637 158 650T132 666ZM433 900L562 695L404 764L221 695Z"
				   horiz-adv-x="572" unicode="Ê"/>
			<glyph d="M132 666H605L566 472Q561 555 455 555H335L301 395H398Q436 395 461 405T493 431L455 248Q453 269 430 278T376 288H279L243 111H369Q434 111 466 127T529 194L488 0H-15Q42 13 58 83L167 587Q170 599 170 613Q170 637 158 650T132 666ZM506 854Q534 854 551 836T569 788Q569 755 546 732T490 710Q461 710 443 728T426 775Q426 808 449 831T506 854ZM296 854Q324 854 341 836T359 788Q359 755 336 732T280 710Q251 710 233 728T216 775Q216 808 239 831T296 854Z"
				   horiz-adv-x="572" unicode="Ë"/>
			<glyph d="M125 666H400Q348 652 334 591L224 76Q221 64 221 51Q221 28 230 14T254 0H-15Q8 4 24 23T47 72L156 587Q160 606 160 613Q160 636 150 649T125 666ZM106 860H300L307 695Z"
				   horiz-adv-x="335" unicode="Ì"/>
			<glyph d="M125 666H400Q348 652 334 591L224 76Q221 64 221 51Q221 28 230 14T254 0H-15Q8 4 24 23T47 72L156 587Q160 606 160 613Q160 636 150 649T125 666ZM296 860H490L223 695Z"
				   horiz-adv-x="335" unicode="Í"/>
			<glyph d="M125 666H400Q348 652 334 591L224 76Q221 64 221 51Q221 28 230 14T254 0H-15Q8 4 24 23T47 72L156 587Q160 606 160 613Q160 636 150 649T125 666ZM306 900L435 695L277 764L94 695Z"
				   horiz-adv-x="335" unicode="Î"/>
			<glyph d="M125 666H400Q348 652 334 591L224 76Q221 64 221 51Q221 28 230 14T254 0H-15Q8 4 24 23T47 72L156 587Q160 606 160 613Q160 636 150 649T125 666ZM399 854Q427 854 444 836T462 788Q462 755 439 732T383 710Q354 710 336 728T319 775Q319 808 342 831T399 854ZM189 854Q217 854 234 836T252 788Q252 755 229 732T173 710Q144 710 126 728T109 775Q109 808 132 831T189 854Z"
				   horiz-adv-x="335" unicode="Ï"/>
			<glyph d="M118 666H403Q487 666 550 630T648 527T683 367Q683 265 633 178T497 46T302 0H-15Q6 3 22 27T46 90L86 285H19L36 373H104L149 584Q152 601 152 614Q152 656 118 666ZM320 560L280 373H395L378 285H262L225 106H300Q351 106 395 144T467 250T494 389Q494 470 461 515T370 560Z"
				   horiz-adv-x="683" unicode="Ð"/>
			<glyph d="M95 666H312L505 299L565 590Q568 607 568 613Q568 633 558 647T527 666H758Q714 653 701 594L573 0H442Q419 99 391 150L256 405L186 71Q184 62 184 51Q184 29 196 15T225 0H-15Q10 4 26 21T50 68L151 537Q158 568 158 574Q158 592 137 625T95 666ZM607 871Q623 851 623 822Q623 781 589 746T506 712Q488 712 468 720T430 739T394 758T361 766Q339 766 324 751T301 699Q284 719 284 750Q284 792 315 823T393 855Q415 855 436 847T477 829T514 811T546 803Q573 803 586 820Q600 838 607 871Z"
				   horiz-adv-x="692" unicode="Ñ"/>
			<glyph d="M435 682Q555 682 624 609T694 416Q694 307 640 205Q587 104 495 44T297 -15Q179 -15 109 58T40 254Q40 365 93 464T237 623T435 682ZM415 565Q366 565 324 517T257 391T232 237Q232 177 252 139T318 102Q367 102 410 149T478 272T504 428Q504 488 483 526T415 565ZM342 860H536L543 695Z"
				   horiz-adv-x="691" unicode="Ò"/>
			<glyph d="M435 682Q555 682 624 609T694 416Q694 307 640 205Q587 104 495 44T297 -15Q179 -15 109 58T40 254Q40 365 93 464T237 623T435 682ZM415 565Q366 565 324 517T257 391T232 237Q232 177 252 139T318 102Q367 102 410 149T478 272T504 428Q504 488 483 526T415 565ZM452 860H646L379 695Z"
				   horiz-adv-x="691" unicode="Ó"/>
			<glyph d="M435 682Q555 682 624 609T694 416Q694 307 640 205Q587 104 495 44T297 -15Q179 -15 109 58T40 254Q40 365 93 464T237 623T435 682ZM415 565Q366 565 324 517T257 391T232 237Q232 177 252 139T318 102Q367 102 410 149T478 272T504 428Q504 488 483 526T415 565ZM473 900L602 695L444 764L261 695Z"
				   horiz-adv-x="691" unicode="Ô"/>
			<glyph d="M435 682Q555 682 624 609T694 416Q694 307 640 205Q587 104 495 44T297 -15Q179 -15 109 58T40 254Q40 365 93 464T237 623T435 682ZM415 565Q366 565 324 517T257 391T232 237Q232 177 252 139T318 102Q367 102 410 149T478 272T504 428Q504 488 483 526T415 565ZM607 871Q623 851 623 822Q623 781 589 746T506 712Q488 712 468 720T430 739T394 758T361 766Q339 766 324 751T301 699Q284 719 284 750Q284 792 315 823T393 855Q415 855 436 847T477 829T514 811T546 803Q573 803 586 820Q600 838 607 871Z"
				   horiz-adv-x="691" unicode="Õ"/>
			<glyph d="M435 682Q555 682 624 609T694 416Q694 307 640 205Q587 104 495 44T297 -15Q179 -15 109 58T40 254Q40 365 93 464T237 623T435 682ZM415 565Q366 565 324 517T257 391T232 237Q232 177 252 139T318 102Q367 102 410 149T478 272T504 428Q504 488 483 526T415 565ZM566 854Q594 854 611 836T629 788Q629 755 606 732T550 710Q521 710 503 728T486 775Q486 808 509 831T566 854ZM356 854Q384 854 401 836T419 788Q419 755 396 732T340 710Q311 710 293 728T276 775Q276 808 299 831T356 854Z"
				   horiz-adv-x="691" unicode="Ö"/>
			<glyph d="M221 570L387 361L640 570L700 495L446 285L611 76L519 0L355 210L100 0L41 76L295 285L130 495Z"
				   horiz-adv-x="705" unicode="×"/>
			<glyph d="M638 703L714 679L634 588Q689 518 689 416Q689 307 635 205T490 44T292 -15Q205 -15 143 27L80 -46L1 -25L90 78Q35 149 35 254Q35 366 89 466T234 624T430 682Q519 682 582 638ZM501 436L242 139Q264 96 310 96Q356 96 397 138T468 256T501 410ZM413 571Q367 571 325 525T255 403T225 255L224 230L483 526Q461 571 413 571Z"
				   horiz-adv-x="686" unicode="Ø"/>
			<glyph d="M116 666H390Q338 653 328 603L248 237Q240 203 240 179Q240 140 260 122T328 104Q375 104 408 132T454 216L533 597Q535 606 535 620Q535 636 527 648T502 666H737Q713 660 697 642T678 600L603 237Q583 144 545 89T448 10T289 -15Q170 -15 117 36T64 171Q64 211 75 259L151 603Q153 610 153 622Q153 638 144 649T116 666ZM324 860H518L525 695Z"
				   horiz-adv-x="675" unicode="Ù"/>
			<glyph d="M116 666H390Q338 653 328 603L248 237Q240 203 240 179Q240 140 260 122T328 104Q375 104 408 132T454 216L533 597Q535 606 535 620Q535 636 527 648T502 666H737Q713 660 697 642T678 600L603 237Q583 144 545 89T448 10T289 -15Q170 -15 117 36T64 171Q64 211 75 259L151 603Q153 610 153 622Q153 638 144 649T116 666ZM454 860H648L381 695Z"
				   horiz-adv-x="675" unicode="Ú"/>
			<glyph d="M116 666H390Q338 653 328 603L248 237Q240 203 240 179Q240 140 260 122T328 104Q375 104 408 132T454 216L533 597Q535 606 535 620Q535 636 527 648T502 666H737Q713 660 697 642T678 600L603 237Q583 144 545 89T448 10T289 -15Q170 -15 117 36T64 171Q64 211 75 259L151 603Q153 610 153 622Q153 638 144 649T116 666ZM493 900L622 695L464 764L281 695Z"
				   horiz-adv-x="675" unicode="Û"/>
			<glyph d="M116 666H390Q338 653 328 603L248 237Q240 203 240 179Q240 140 260 122T328 104Q375 104 408 132T454 216L533 597Q535 606 535 620Q535 636 527 648T502 666H737Q713 660 697 642T678 600L603 237Q583 144 545 89T448 10T289 -15Q170 -15 117 36T64 171Q64 211 75 259L151 603Q153 610 153 622Q153 638 144 649T116 666ZM558 854Q586 854 603 836T621 788Q621 755 598 732T542 710Q513 710 495 728T478 775Q478 808 501 831T558 854ZM348 854Q376 854 393 836T411 788Q411 755 388 732T332 710Q303 710 285 728T268 775Q268 808 291 831T348 854Z"
				   horiz-adv-x="675" unicode="Ü"/>
			<glyph d="M79 666H331Q321 662 316 652T311 626Q311 614 316 594L362 408L493 591Q517 624 517 644Q517 661 499 666H724Q687 655 643 594L399 256L359 76Q356 61 356 50Q356 29 365 16T391 0H120Q142 3 159 22T184 72L224 256L138 594Q131 622 115 641T79 666ZM467 860H661L394 695Z"
				   horiz-adv-x="617" unicode="Ý"/>
			<glyph d="M125 666H400Q375 660 358 640T334 591L324 548H384Q453 548 503 525T580 459T607 364Q607 301 571 244T474 155T333 123Q286 123 237 136L224 76Q221 62 221 50Q221 27 231 14T254 0H-15Q7 4 23 22T47 72L156 587Q160 604 160 613Q160 634 150 648T125 666ZM303 447L258 237Q277 230 307 230Q345 230 374 247T419 295T435 361Q435 400 415 423T363 447Z"
				   horiz-adv-x="613" unicode="Þ"/>
			<glyph d="M450 701Q542 701 595 666T649 571Q649 494 562 435Q503 396 488 382T474 352Q474 337 489 321T552 269Q630 211 630 147Q630 99 600 62T517 4T406 -17Q341 -17 302 8T263 73Q263 106 284 134T337 174Q334 162 334 157Q334 125 357 106T415 88Q441 88 459 98T477 124Q477 141 462 157T403 205Q328 260 328 326Q328 401 405 457Q448 488 465 507T482 550Q482 575 463 590T416 605Q373 605 340 572T296 484L203 20Q183 -80 133 -131T1 -182Q-75 -182 -112 -115Q-99 -116 -86 -116Q-35 -116 -3 -84T42 20L134 472Q148 542 190 593T300 673T450 701Z"
				   horiz-adv-x="658" unicode="ß"/>
			<glyph d="M534 486L464 161Q454 116 454 96Q454 47 512 41L286 -15L293 47Q263 17 223 1T143 -15Q87 -15 54 30T21 151Q21 239 63 315T173 433T321 475Q360 475 395 468T443 462Q487 462 534 486ZM311 386Q281 386 252 354T205 271T187 165Q187 99 227 99Q242 99 259 114T291 155T322 253T340 349Q340 385 311 386ZM221 666H415L422 501Z"
				   horiz-adv-x="547" unicode="à"/>
			<glyph d="M534 486L464 161Q454 116 454 96Q454 47 512 41L286 -15L293 47Q263 17 223 1T143 -15Q87 -15 54 30T21 151Q21 239 63 315T173 433T321 475Q360 475 395 468T443 462Q487 462 534 486ZM311 386Q281 386 252 354T205 271T187 165Q187 99 227 99Q242 99 259 114T291 155T322 253T340 349Q340 385 311 386ZM343 666H537L270 501Z"
				   horiz-adv-x="547" unicode="á"/>
			<glyph d="M534 486L464 161Q454 116 454 96Q454 47 512 41L286 -15L293 47Q263 17 223 1T143 -15Q87 -15 54 30T21 151Q21 239 63 315T173 433T321 475Q360 475 395 468T443 462Q487 462 534 486ZM311 386Q281 386 252 354T205 271T187 165Q187 99 227 99Q242 99 259 114T291 155T322 253T340 349Q340 385 311 386ZM373 703L482 501L345 570L181 501Z"
				   horiz-adv-x="547" unicode="â"/>
			<glyph d="M534 486L464 161Q454 116 454 96Q454 47 512 41L286 -15L293 47Q263 17 223 1T143 -15Q87 -15 54 30T21 151Q21 239 63 315T173 433T321 475Q360 475 395 468T443 462Q487 462 534 486ZM311 386Q281 386 252 354T205 271T187 165Q187 99 227 99Q242 99 259 114T291 155T322 253T340 349Q340 385 311 386ZM495 697Q511 677 511 648Q511 607 477 572T394 538Q376 538 356 546T318 565T282 584T249 592Q227 592 212 577T189 525Q172 545 172 576Q172 618 203 649T281 681Q303 681 324 673T365 655T402 637T434 629Q461 629 474 646Q488 664 495 697Z"
				   horiz-adv-x="547" unicode="ã"/>
			<glyph d="M534 486L464 161Q454 116 454 96Q454 47 512 41L286 -15L293 47Q263 17 223 1T143 -15Q87 -15 54 30T21 151Q21 239 63 315T173 433T321 475Q360 475 395 468T443 462Q487 462 534 486ZM311 386Q281 386 252 354T205 271T187 165Q187 99 227 99Q242 99 259 114T291 155T322 253T340 349Q340 385 311 386ZM460 680Q488 680 505 662T523 614Q523 581 500 558T444 536Q415 536 397 554T380 601Q380 634 403 657T460 680ZM250 680Q278 680 295 662T313 614Q313 581 290 558T234 536Q205 536 187 554T170 601Q170 634 193 657T250 680Z"
				   horiz-adv-x="547" unicode="ä"/>
			<glyph d="M534 486L464 161Q454 116 454 96Q454 47 512 41L286 -15L293 47Q263 17 223 1T143 -15Q87 -15 54 30T21 151Q21 239 63 315T173 433T321 475Q360 475 395 468T443 462Q487 462 534 486ZM311 386Q281 386 252 354T205 271T187 165Q187 99 227 99Q242 99 259 114T291 155T322 253T340 349Q340 385 311 386ZM331 709Q374 709 404 681T434 608Q434 563 405 534T331 505Q287 505 257 533T228 608Q228 652 257 680T331 709ZM331 660Q309 660 294 645T280 608Q280 584 295 569T331 554Q352 554 366 568T380 608Q380 632 366 646T331 660Z"
				   horiz-adv-x="547" unicode="å"/>
			<glyph d="M281 486Q370 486 409 451Q419 442 423 438Q496 484 584 484Q646 484 684 452T723 365Q723 285 652 245T423 197Q423 187 424 179Q438 91 523 91Q559 91 601 106T678 148Q655 74 592 29T453 -16Q360 -16 311 44Q246 -15 128 -15Q70 -15 31 17T-8 101Q-8 174 65 215T289 266L300 319Q303 332 303 344Q303 369 289 382T254 395Q229 395 211 382T194 352Q194 336 207 329L46 293Q44 306 44 318Q44 364 75 401T164 462T281 486ZM547 390Q507 390 476 359T431 274Q495 277 526 285T571 308T585 350Q585 369 574 379T547 390ZM273 188Q198 184 167 169T137 125Q137 106 152 93T188 81Q217 81 238 98T265 144Z"
				   horiz-adv-x="708" unicode="æ"/>
			<glyph d="M332 484Q382 484 412 459T442 394Q442 362 423 329T372 277T307 257Q313 264 317 278T321 310Q321 341 309 360T279 379Q256 379 234 355T198 292T185 208Q185 152 210 121T281 90Q312 90 346 105T411 148Q388 82 335 39T216 -14L196 -36Q228 -40 246 -56T264 -96Q264 -117 246 -138T200 -172T137 -185Q83 -185 46 -159Q60 -162 76 -162Q115 -162 139 -146T164 -112Q164 -95 144 -84T90 -73L142 -11Q84 1 52 45T20 156Q20 248 62 323T176 441T332 484Z"
				   horiz-adv-x="438" unicode="ç"/>
			<glyph d="M334 484Q396 484 434 452T473 365Q473 313 434 268T331 199Q267 175 177 170Q180 150 192 130T226 100T273 91Q309 91 351 106T428 148Q405 74 342 29T203 -16Q119 -16 70 34T21 168Q21 251 64 325T179 442T334 484ZM297 390Q275 390 249 371T203 321T176 252Q215 254 254 268T314 303T335 350Q335 369 324 379T297 390ZM191 666H385L392 501Z"
				   horiz-adv-x="468" unicode="è"/>
			<glyph d="M334 484Q396 484 434 452T473 365Q473 313 434 268T331 199Q267 175 177 170Q180 150 192 130T226 100T273 91Q309 91 351 106T428 148Q405 74 342 29T203 -16Q119 -16 70 34T21 168Q21 251 64 325T179 442T334 484ZM297 390Q275 390 249 371T203 321T176 252Q215 254 254 268T314 303T335 350Q335 369 324 379T297 390ZM293 666H487L220 501Z"
				   horiz-adv-x="468" unicode="é"/>
			<glyph d="M334 484Q396 484 434 452T473 365Q473 313 434 268T331 199Q267 175 177 170Q180 150 192 130T226 100T273 91Q309 91 351 106T428 148Q405 74 342 29T203 -16Q119 -16 70 34T21 168Q21 251 64 325T179 442T334 484ZM297 390Q275 390 249 371T203 321T176 252Q215 254 254 268T314 303T335 350Q335 369 324 379T297 390ZM353 703L462 501L325 570L161 501Z"
				   horiz-adv-x="468" unicode="ê"/>
			<glyph d="M334 484Q396 484 434 452T473 365Q473 313 434 268T331 199Q267 175 177 170Q180 150 192 130T226 100T273 91Q309 91 351 106T428 148Q405 74 342 29T203 -16Q119 -16 70 34T21 168Q21 251 64 325T179 442T334 484ZM297 390Q275 390 249 371T203 321T176 252Q215 254 254 268T314 303T335 350Q335 369 324 379T297 390ZM436 680Q464 680 481 662T499 614Q499 581 476 558T420 536Q391 536 373 554T356 601Q356 634 379 657T436 680ZM226 680Q254 680 271 662T289 614Q289 581 266 558T210 536Q181 536 163 554T146 601Q146 634 169 657T226 680Z"
				   horiz-adv-x="468" unicode="ë"/>
			<glyph d="M278 486L197 109Q191 83 191 60Q191 32 199 17T219 0H13L93 364Q96 376 96 382Q96 399 80 411T43 427L35 428ZM102 666H296L303 501Z"
				   horiz-adv-x="286" unicode="ì"/>
			<glyph d="M278 486L197 109Q191 83 191 60Q191 32 199 17T219 0H13L93 364Q96 376 96 382Q96 399 80 411T43 427L35 428ZM182 666H376L109 501Z"
				   horiz-adv-x="286" unicode="í"/>
			<glyph d="M278 486L197 109Q191 83 191 60Q191 32 199 17T219 0H13L93 364Q96 376 96 382Q96 399 80 411T43 427L35 428ZM244 703L353 501L216 570L52 501Z"
				   horiz-adv-x="286" unicode="î"/>
			<glyph d="M278 486L197 109Q191 83 191 60Q191 32 199 17T219 0H13L93 364Q96 376 96 382Q96 399 80 411T43 427L35 428ZM335 680Q363 680 380 662T398 614Q398 581 375 558T319 536Q290 536 272 554T255 601Q255 634 278 657T335 680ZM125 680Q153 680 170 662T188 614Q188 581 165 558T109 536Q80 536 62 554T45 601Q45 634 68 657T125 680Z"
				   horiz-adv-x="286" unicode="ï"/>
			<glyph d="M527 703V641L433 608Q469 562 488 498T507 363Q507 258 468 169T363 34T211 -12Q151 -12 107 13T39 83T16 186Q16 261 51 329T147 439T271 482Q327 482 368 437Q335 509 284 556L138 506V565L231 597Q193 620 155 635L330 696Q360 680 391 653ZM287 378Q260 378 235 349T193 267T175 170Q175 134 187 112T223 91Q250 91 274 118T316 198T334 297Q334 335 321 356T287 378Z"
				   horiz-adv-x="521" unicode="ð"/>
			<glyph d="M262 486L253 428Q328 485 407 485Q514 485 514 394Q514 366 508 339L460 109Q457 92 457 70Q457 39 464 21T484 0H278L346 312Q349 324 349 335Q349 355 339 367T312 380Q291 380 268 358T239 303L173 0H15L96 370Q97 378 97 382Q97 400 82 412T44 427L37 428ZM491 697Q507 677 507 648Q507 607 473 572T390 538Q372 538 352 546T314 565T278 584T245 592Q223 592 208 577T185 525Q168 545 168 576Q168 618 199 649T277 681Q299 681 320 673T361 655T398 637T430 629Q457 629 470 646Q484 664 491 697Z"
				   horiz-adv-x="538" unicode="ñ"/>
			<glyph d="M305 482Q396 482 449 428T502 286Q502 209 462 137T358 26T216 -12Q156 -12 112 13T44 83T21 186Q21 264 58 333T161 442T305 482ZM292 378Q265 378 240 349T198 267T180 170Q180 133 193 112T228 91Q254 91 278 117T321 197T339 297Q339 335 326 356T292 378ZM199 666H393L400 501Z"
				   horiz-adv-x="523" unicode="ò"/>
			<glyph d="M305 482Q396 482 449 428T502 286Q502 209 462 137T358 26T216 -12Q156 -12 112 13T44 83T21 186Q21 264 58 333T161 442T305 482ZM292 378Q265 378 240 349T198 267T180 170Q180 133 193 112T228 91Q254 91 278 117T321 197T339 297Q339 335 326 356T292 378ZM339 666H533L266 501Z"
				   horiz-adv-x="523" unicode="ó"/>
			<glyph d="M305 482Q396 482 449 428T502 286Q502 209 462 137T358 26T216 -12Q156 -12 112 13T44 83T21 186Q21 264 58 333T161 442T305 482ZM292 378Q265 378 240 349T198 267T180 170Q180 133 193 112T228 91Q254 91 278 117T321 197T339 297Q339 335 326 356T292 378ZM345 703L454 501L317 570L153 501Z"
				   horiz-adv-x="523" unicode="ô"/>
			<glyph d="M305 482Q396 482 449 428T502 286Q502 209 462 137T358 26T216 -12Q156 -12 112 13T44 83T21 186Q21 264 58 333T161 442T305 482ZM292 378Q265 378 240 349T198 267T180 170Q180 133 193 112T228 91Q254 91 278 117T321 197T339 297Q339 335 326 356T292 378ZM493 697Q509 677 509 648Q509 607 475 572T392 538Q374 538 354 546T316 565T280 584T247 592Q225 592 210 577T187 525Q170 545 170 576Q170 618 201 649T279 681Q301 681 322 673T363 655T400 637T432 629Q459 629 472 646Q486 664 493 697Z"
				   horiz-adv-x="523" unicode="õ"/>
			<glyph d="M305 482Q396 482 449 428T502 286Q502 209 462 137T358 26T216 -12Q156 -12 112 13T44 83T21 186Q21 264 58 333T161 442T305 482ZM292 378Q265 378 240 349T198 267T180 170Q180 133 193 112T228 91Q254 91 278 117T321 197T339 297Q339 335 326 356T292 378ZM433 680Q461 680 478 662T496 614Q496 581 473 558T417 536Q388 536 370 554T353 601Q353 634 376 657T433 680ZM223 680Q251 680 268 662T286 614Q286 581 263 558T207 536Q178 536 160 554T143 601Q143 634 166 657T223 680Z"
				   horiz-adv-x="523" unicode="ö"/>
			<glyph d="M104 341H657L634 237H81ZM337 174Q366 174 383 155T400 108Q400 75 377 52T321 30Q292 30 274 48T257 95Q257 128 280 151T337 174ZM419 552Q448 552 465 533T482 486Q482 453 459 430T403 408Q374 408 356 426T339 473Q339 506 362 529T419 552Z"
				   horiz-adv-x="705" unicode="÷"/>
			<glyph d="M450 533L515 514L445 426Q497 371 497 286Q497 209 457 137T353 26T211 -12Q155 -12 115 8L73 -46L7 -30L66 45Q16 100 16 186Q16 264 53 333T156 442T300 482Q353 482 395 462ZM287 378Q250 378 219 326T179 207Q178 202 177 186L316 364Q306 378 287 378ZM332 283L192 105Q204 91 223 91Q261 91 291 141T331 263Q332 272 332 283Z"
				   horiz-adv-x="513" unicode="ø"/>
			<glyph d="M278 486L207 159Q204 144 204 132Q204 91 239 91Q262 91 283 113T312 168L348 321Q358 361 358 385Q358 406 347 414T311 427L306 428L542 486L458 101Q455 91 455 82Q455 65 468 56T512 43L287 -15L299 43Q273 18 232 2T146 -14Q94 -14 66 7T38 77Q38 99 45 132L83 321Q91 361 91 381Q91 402 82 412T47 427L41 428ZM215 666H409L416 501Z"
				   horiz-adv-x="556" unicode="ù"/>
			<glyph d="M278 486L207 159Q204 144 204 132Q204 91 239 91Q262 91 283 113T312 168L348 321Q358 361 358 385Q358 406 347 414T311 427L306 428L542 486L458 101Q455 91 455 82Q455 65 468 56T512 43L287 -15L299 43Q273 18 232 2T146 -14Q94 -14 66 7T38 77Q38 99 45 132L83 321Q91 361 91 381Q91 402 82 412T47 427L41 428ZM346 666H540L273 501Z"
				   horiz-adv-x="556" unicode="ú"/>
			<glyph d="M278 486L207 159Q204 144 204 132Q204 91 239 91Q262 91 283 113T312 168L348 321Q358 361 358 385Q358 406 347 414T311 427L306 428L542 486L458 101Q455 91 455 82Q455 65 468 56T512 43L287 -15L299 43Q273 18 232 2T146 -14Q94 -14 66 7T38 77Q38 99 45 132L83 321Q91 361 91 381Q91 402 82 412T47 427L41 428ZM377 703L486 501L349 570L185 501Z"
				   horiz-adv-x="556" unicode="û"/>
			<glyph d="M278 486L207 159Q204 144 204 132Q204 91 239 91Q262 91 283 113T312 168L348 321Q358 361 358 385Q358 406 347 414T311 427L306 428L542 486L458 101Q455 91 455 82Q455 65 468 56T512 43L287 -15L299 43Q273 18 232 2T146 -14Q94 -14 66 7T38 77Q38 99 45 132L83 321Q91 361 91 381Q91 402 82 412T47 427L41 428ZM459 680Q487 680 504 662T522 614Q522 581 499 558T443 536Q414 536 396 554T379 601Q379 634 402 657T459 680ZM249 680Q277 680 294 662T312 614Q312 581 289 558T233 536Q204 536 186 554T169 601Q169 634 192 657T249 680Z"
				   horiz-adv-x="556" unicode="ü"/>
			<glyph d="M226 484L293 153Q345 237 366 294T388 391Q388 418 375 438T336 464H546Q507 335 443 222T302 8T155 -139T32 -186Q-12 -186 -36 -165T-60 -109Q-60 -81 -49 -53Q-23 -75 15 -75Q54 -75 93 -56T166 0L83 376Q78 398 62 412T17 428L5 429ZM350 666H544L277 501Z"
				   horiz-adv-x="524" unicode="ý"/>
			<glyph d="M325 696L267 438Q294 459 329 472T398 486Q456 486 490 440T524 316Q524 231 484 152T380 31T236 -11Q201 -11 178 6L135 -181H-24L139 574Q143 590 143 595Q143 630 87 638ZM315 366Q299 366 278 348T243 308Q233 292 219 228T205 134Q205 90 243 90Q271 90 295 118T337 199T354 298Q354 366 315 366Z"
				   horiz-adv-x="544" unicode="þ"/>
			<glyph d="M226 484L293 153Q345 237 366 294T388 391Q388 418 375 438T336 464H546Q507 335 443 222T302 8T155 -139T32 -186Q-12 -186 -36 -165T-60 -109Q-60 -81 -49 -53Q-23 -75 15 -75Q54 -75 93 -56T166 0L83 376Q78 398 62 412T17 428L5 429ZM430 680Q458 680 475 662T493 614Q493 581 470 558T414 536Q385 536 367 554T350 601Q350 634 373 657T430 680ZM220 680Q248 680 265 662T283 614Q283 581 260 558T204 536Q175 536 157 554T140 601Q140 634 163 657T220 680Z"
				   horiz-adv-x="524" unicode="ÿ"/>
			<glyph d="M412 666H568L629 103Q633 62 646 34T679 0H418Q435 4 445 23T455 75Q455 84 454 91L448 137H215Q183 78 175 60T168 32Q168 5 192 0H-50Q-8 14 55 113ZM418 462L283 243H437ZM349 819H686L671 749H334Z"
				   unicode="Ā"/>
			<glyph d="M534 486L464 161Q454 116 454 96Q454 47 512 41L286 -15L293 47Q263 17 223 1T143 -15Q87 -15 54 30T21 151Q21 239 63 315T173 433T321 475Q360 475 395 468T443 462Q487 462 534 486ZM311 386Q281 386 252 354T205 271T187 165Q187 99 227 99Q242 99 259 114T291 155T322 253T340 349Q340 385 311 386ZM190 635H527L512 565H175Z"
				   horiz-adv-x="547" unicode="ā"/>
			<glyph d="M412 666H568L629 103Q633 62 646 34T679 0H418Q435 4 445 23T455 75Q455 84 454 91L448 137H215Q183 78 175 60T168 32Q168 5 192 0H-50Q-8 14 55 113ZM418 462L283 243H437ZM397 890Q410 854 440 834T511 815Q549 815 587 833Q626 852 659 890Q647 837 621 798T561 739T490 718Q446 718 418 749T391 835Q391 860 397 890Z"
				   unicode="Ă"/>
			<glyph d="M534 486L464 161Q454 116 454 96Q454 47 512 41L286 -15L293 47Q263 17 223 1T143 -15Q87 -15 54 30T21 151Q21 239 63 315T173 433T321 475Q360 475 395 468T443 462Q487 462 534 486ZM311 386Q281 386 252 354T205 271T187 165Q187 99 227 99Q242 99 259 114T291 155T322 253T340 349Q340 385 311 386ZM233 701Q245 667 275 646T347 626Q385 626 424 645T495 701Q484 650 458 611T397 550T326 529Q282 529 254 560T227 646Q227 672 233 701Z"
				   horiz-adv-x="547" unicode="ă"/>
			<glyph d="M411 666H567L628 103Q631 70 639 48T657 14T677 0Q625 -1 588 -23T552 -78Q552 -96 564 -106T598 -117Q625 -117 660 -99Q643 -136 607 -160T533 -185Q499 -185 476 -166T454 -116Q454 -83 475 -53T534 0H418Q428 3 436 11T449 36T454 75Q454 83 453 90L447 137H214Q184 82 175 63T167 32Q167 5 190 0H-50Q-34 3 -5 33T54 113ZM417 462L282 243H436Z"
				   unicode="Ą"/>
			<glyph d="M534 486L464 161Q454 116 454 96Q454 48 505 42L512 41L485 32Q414 9 375 -19T336 -78Q336 -96 348 -106T382 -117Q409 -117 444 -99Q426 -137 390 -161T317 -185Q282 -185 260 -166T238 -116Q238 -64 293 -16V47Q263 17 223 1T143 -15Q87 -15 54 30T21 151Q21 239 63 315T173 433T321 475Q361 475 395 468T443 462Q484 462 534 486ZM311 386Q281 386 252 354T205 271T187 165Q187 99 227 99Q242 99 259 114Q277 130 291 156T322 253T340 349Q340 386 311 386Z"
				   horiz-adv-x="547" unicode="ą"/>
			<glyph d="M460 679Q555 679 609 643L568 453Q551 511 517 538T445 565Q388 565 338 519T259 400T230 255Q230 187 260 144T355 102Q453 102 519 189L488 48Q455 16 401 0T290 -15Q180 -15 110 58T40 249Q40 360 97 460T251 620T460 679ZM396 860H590L323 695Z"
				   horiz-adv-x="558" unicode="Ć"/>
			<glyph d="M332 484Q382 484 412 459T442 394Q442 362 423 329T372 277Q341 257 307 257Q313 264 317 278T321 310Q321 341 309 360T279 379Q256 379 234 355T198 292T185 208Q185 152 210 121T281 90Q312 90 346 105T411 148Q385 73 322 28T187 -16Q109 -16 64 30T20 156Q20 248 62 323T176 441T332 484ZM288 666H482L215 501Z"
				   horiz-adv-x="438" unicode="ć"/>
			<glyph d="M460 679Q555 679 609 643L568 453Q551 511 517 538T445 565Q388 565 338 519T259 400T230 255Q230 187 260 144T355 102Q453 102 519 189L488 48Q455 16 401 0T290 -15Q180 -15 110 58T40 249Q40 360 97 460T251 620T460 679ZM476 900L605 695L447 764L264 695Z"
				   horiz-adv-x="558" unicode="Ĉ"/>
			<glyph d="M332 484Q382 484 412 459T442 394Q442 362 423 329T372 277Q341 257 307 257Q313 264 317 278T321 310Q321 341 309 360T279 379Q256 379 234 355T198 292T185 208Q185 152 210 121T281 90Q312 90 346 105T411 148Q385 73 322 28T187 -16Q109 -16 64 30T20 156Q20 248 62 323T176 441T332 484ZM320 703L429 501L292 570L128 501Z"
				   horiz-adv-x="438" unicode="ĉ"/>
			<glyph d="M460 679Q555 679 609 643L568 453Q551 511 517 538T445 565Q388 565 338 519T259 400T230 255Q230 187 260 144T355 102Q453 102 519 189L488 48Q455 16 401 0T290 -15Q180 -15 110 58T40 249Q40 360 97 460T251 620T460 679ZM482 872Q518 872 538 849T559 792Q559 751 531 724T463 697Q427 697 406 719T385 776Q385 816 413 844T482 872Z"
				   horiz-adv-x="558" unicode="Ċ"/>
			<glyph d="M332 484Q382 484 412 459T442 394Q442 362 423 329T372 277Q341 257 307 257Q313 264 317 278T321 310Q321 341 309 360T279 379Q256 379 234 355T198 292T185 208Q185 152 210 121T281 90Q312 90 346 105T411 148Q385 73 322 28T187 -16Q109 -16 64 30T20 156Q20 248 62 323T176 441T332 484ZM326 692Q362 692 382 669T403 612Q403 571 375 544T307 517Q271 517 250 539T229 596Q229 636 257 664T326 692Z"
				   horiz-adv-x="438" unicode="ċ"/>
			<glyph d="M460 679Q555 679 609 643L568 453Q551 511 517 538T445 565Q388 565 338 519T259 400T230 255Q230 187 260 144T355 102Q453 102 519 189L488 48Q455 16 401 0T290 -15Q180 -15 110 58T40 249Q40 360 97 460T251 620T460 679ZM292 901L450 832L633 901L421 696Z"
				   horiz-adv-x="558" unicode="Č"/>
			<glyph d="M332 484Q382 484 412 459T442 394Q442 362 423 329T372 277Q341 257 307 257Q313 264 317 278T321 310Q321 341 309 360T279 379Q256 379 234 355T198 292T185 208Q185 152 210 121T281 90Q312 90 346 105T411 148Q385 73 322 28T187 -16Q109 -16 64 30T20 156Q20 248 62 323T176 441T332 484ZM177 703L314 634L478 703L286 502Z"
				   horiz-adv-x="438" unicode="č"/>
			<glyph d="M118 666H403Q531 666 607 587T683 367Q683 267 636 182T502 49T302 0H-15Q30 11 46 90L149 584Q152 600 152 614Q152 655 118 666ZM320 560L225 106H300Q382 106 438 192T494 389Q494 468 462 514T370 560ZM280 901L438 832L621 901L409 696Z"
				   horiz-adv-x="683" unicode="Ď"/>
			<glyph d="M577 696L451 119Q447 99 447 86Q447 64 462 54T510 41L278 -15L293 44Q262 15 226 0T157 -14Q96 -14 58 29T21 149Q21 230 57 308T154 436T278 485Q309 485 328 478T363 455L391 574Q395 590 395 595Q395 629 329 638ZM287 379Q265 379 242 347T203 261T187 165Q187 96 224 96Q258 96 295 153Q306 170 319 231T332 318Q332 349 322 364T287 379ZM650 682H798L584 481Z"
				   horiz-adv-x="565" unicode="ď"/>
			<glyph d="M118 666H403Q487 666 550 630T648 527T683 367Q683 265 633 178T497 46T302 0H-15Q6 3 22 27T46 90L86 285H19L36 373H104L149 584Q152 601 152 614Q152 656 118 666ZM320 560L280 373H395L378 285H262L225 106H300Q351 106 395 144T467 250T494 389Q494 470 461 515T370 560Z"
				   horiz-adv-x="683" unicode="Đ"/>
			<glyph d="M577 696L555 597H605L590 527H540L451 119Q447 99 447 86Q447 72 452 63T468 50T510 41L278 -15L293 44Q262 15 226 0T157 -14Q96 -14 58 29T21 149Q21 230 57 308T154 436T278 485Q309 485 328 478T363 455L380 527H253L268 597H395Q392 629 329 638ZM287 379Q265 379 242 347T203 261T187 165Q187 96 224 96Q258 96 295 153Q306 170 319 231T332 318Q332 349 322 364T287 379Z"
				   horiz-adv-x="540" unicode="đ"/>
			<glyph d="M132 666H605L566 472Q561 555 455 555H335L301 395H398Q436 395 461 405T493 431L455 248Q453 269 430 278T376 288H279L243 111H369Q434 111 466 127T529 194L488 0H-15Q42 13 58 83L167 587Q170 599 170 613Q170 637 158 650T132 666ZM232 819H569L554 749H217Z"
				   horiz-adv-x="572" unicode="Ē"/>
			<glyph d="M334 484Q396 484 434 452T473 365Q473 313 434 268T331 199Q267 175 177 170Q180 150 192 130T226 100T273 91Q309 91 351 106T428 148Q405 74 342 29T203 -16Q119 -16 70 34T21 168Q21 251 64 325T179 442T334 484ZM297 390Q275 390 249 371T203 321T176 252Q215 254 254 268T314 303T335 350Q335 369 324 379T297 390ZM151 635H488L473 565H136Z"
				   horiz-adv-x="468" unicode="ē"/>
			<glyph d="M132 666H605L566 472Q561 555 455 555H335L301 395H398Q436 395 461 405T493 431L455 248Q453 269 430 278T376 288H279L243 111H369Q434 111 466 127T529 194L488 0H-15Q42 13 58 83L167 587Q170 599 170 613Q170 637 158 650T132 666ZM291 890Q303 856 333 835T405 815Q443 815 482 834T553 890Q542 839 516 800T455 739T384 718Q340 718 312 749T285 835Q285 861 291 890Z"
				   horiz-adv-x="572" unicode="Ĕ"/>
			<glyph d="M334 484Q396 484 434 452T473 365Q473 313 434 268T331 199Q267 175 177 170Q180 150 192 130T226 100T273 91Q309 91 351 106T428 148Q405 74 342 29T203 -16Q119 -16 70 34T21 168Q21 251 64 325T179 442T334 484ZM297 390Q275 390 249 371T203 321T176 252Q215 254 254 268T314 303T335 350Q335 369 324 379T297 390ZM214 701Q226 667 256 646T328 626Q366 626 405 645T476 701Q465 650 439 611T378 550T307 529Q263 529 235 560T208 646Q208 672 214 701Z"
				   horiz-adv-x="468" unicode="ĕ"/>
			<glyph d="M132 666H605L566 472Q561 555 455 555H335L301 395H398Q436 395 461 405T493 431L455 248Q453 269 430 278T376 288H279L243 111H369Q434 111 466 127T529 194L488 0H-15Q42 13 58 83L167 587Q170 599 170 613Q170 637 158 650T132 666ZM404 872Q440 872 460 849T481 792Q481 751 453 724T385 697Q349 697 328 719T307 776Q307 816 335 844T404 872Z"
				   horiz-adv-x="572" unicode="Ė"/>
			<glyph d="M334 484Q396 484 434 452T473 365Q473 313 434 268T331 199Q267 175 177 170Q180 150 192 130T226 100T273 91Q309 91 351 106T428 148Q405 74 342 29T203 -16Q119 -16 70 34T21 168Q21 251 64 325T179 442T334 484ZM297 390Q275 390 249 371T203 321T176 252Q215 254 254 268T314 303T335 350Q335 369 324 379T297 390ZM331 692Q367 692 387 669T408 612Q408 571 380 544T312 517Q276 517 255 539T234 596Q234 636 262 664T331 692Z"
				   horiz-adv-x="468" unicode="ė"/>
			<glyph d="M133 666H605L566 472Q563 514 536 534T455 555H335L301 395H398Q436 395 461 405T493 431L455 248Q454 267 433 277T376 288H279L243 111H369Q434 111 471 131T533 207L488 0Q442 -3 407 -26T372 -78Q372 -96 384 -106T418 -117Q445 -117 480 -99Q462 -137 426 -161T353 -185Q318 -185 296 -166T274 -116Q274 -84 294 -54T354 0H-14Q11 4 30 25T58 83L167 587Q170 601 170 613Q170 637 158 650T133 666Z"
				   horiz-adv-x="572" unicode="Ę"/>
			<glyph d="M334 484Q396 484 434 452T473 365Q473 313 434 268T330 199T177 170Q183 136 209 113T273 91Q309 91 351 106T428 148Q401 56 304 7Q258 -18 241 -37T224 -78Q224 -96 236 -106T270 -117Q297 -117 332 -99Q314 -137 278 -161T205 -185Q169 -185 147 -165T125 -114Q125 -63 183 -15Q108 -9 64 39T21 168Q21 251 64 325T179 442T334 484ZM297 390Q275 390 249 371T203 321T176 252Q214 253 253 267Q293 282 314 303T335 350Q335 369 324 379T297 390Z"
				   horiz-adv-x="468" unicode="ę"/>
			<glyph d="M132 666H605L566 472Q561 555 455 555H335L301 395H398Q436 395 461 405T493 431L455 248Q453 269 430 278T376 288H279L243 111H369Q434 111 466 127T529 194L488 0H-15Q42 13 58 83L167 587Q170 599 170 613Q170 637 158 650T132 666ZM257 901L415 832L598 901L386 696Z"
				   horiz-adv-x="572" unicode="Ě"/>
			<glyph d="M334 484Q396 484 434 452T473 365Q473 313 434 268T331 199Q267 175 177 170Q180 150 192 130T226 100T273 91Q309 91 351 106T428 148Q405 74 342 29T203 -16Q119 -16 70 34T21 168Q21 251 64 325T179 442T334 484ZM297 390Q275 390 249 371T203 321T176 252Q215 254 254 268T314 303T335 350Q335 369 324 379T297 390ZM192 703L329 634L493 703L301 502Z"
				   horiz-adv-x="468" unicode="ě"/>
			<glyph d="M492 681Q534 681 576 671T644 643L603 453Q588 511 554 538T462 565Q402 565 348 519T262 399T230 249Q230 177 261 134T348 92Q359 92 369 95L393 226Q395 240 395 247Q395 272 382 286T356 302H631Q603 294 589 276T570 232L529 33Q493 10 433 -3T313 -17Q183 -17 111 52T40 245Q40 356 102 459T268 621T492 681ZM515 900L644 695L486 764L303 695Z"
				   horiz-adv-x="626" unicode="Ĝ"/>
			<glyph d="M578 485L557 379H466Q474 373 480 351T486 312Q486 262 453 223T362 162T239 141Q227 141 216 142Q193 133 185 128T178 118Q178 110 196 104T264 91Q346 78 387 61T450 20T471 -40Q471 -82 438 -115T341 -169T196 -190Q87 -190 24 -159T-39 -78Q-39 -62 -21 -43T27 -11T94 10Q61 22 39 42T18 84Q18 131 125 170Q95 188 75 218T56 287Q56 347 89 391T180 460T312 484Q351 484 397 474T485 464Q544 464 578 485ZM281 396Q251 396 231 368T211 300Q211 269 225 249T265 229Q296 229 317 257T338 326Q338 357 323 376T281 396ZM178 -14Q145 -22 126 -35T107 -63Q107 -82 136 -93T216 -104Q252 -104 278 -93Q304 -83 304 -69Q304 -48 280 -36T178 -14ZM352 703L461 501L324 570L160 501Z"
				   horiz-adv-x="546" unicode="ĝ"/>
			<glyph d="M492 681Q534 681 576 671T644 643L603 453Q588 511 554 538T462 565Q402 565 348 519T262 399T230 249Q230 177 261 134T348 92Q359 92 369 95L393 226Q395 240 395 247Q395 272 382 286T356 302H631Q603 294 589 276T570 232L529 33Q493 10 433 -3T313 -17Q183 -17 111 52T40 245Q40 356 102 459T268 621T492 681ZM379 890Q391 856 421 835T493 815Q531 815 570 834T641 890Q630 839 604 800T543 739T472 718Q428 718 400 749T373 835Q373 861 379 890Z"
				   horiz-adv-x="626" unicode="Ğ"/>
			<glyph d="M578 485L557 379H466Q474 373 480 351T486 312Q486 262 453 223T362 162T239 141Q227 141 216 142Q193 133 185 128T178 118Q178 110 196 104T264 91Q346 78 387 61T450 20T471 -40Q471 -82 438 -115T341 -169T196 -190Q87 -190 24 -159T-39 -78Q-39 -62 -21 -43T27 -11T94 10Q61 22 39 42T18 84Q18 131 125 170Q95 188 75 218T56 287Q56 347 89 391T180 460T312 484Q351 484 397 474T485 464Q544 464 578 485ZM281 396Q251 396 231 368T211 300Q211 269 225 249T265 229Q296 229 317 257T338 326Q338 357 323 376T281 396ZM178 -14Q145 -22 126 -35T107 -63Q107 -82 136 -93T216 -104Q252 -104 278 -93Q304 -83 304 -69Q304 -48 280 -36T178 -14ZM217 701Q229 667 259 646T331 626Q369 626 408 645T479 701Q468 650 442 611T381 550T310 529Q266 529 238 560T211 646Q211 672 217 701Z"
				   horiz-adv-x="546" unicode="ğ"/>
			<glyph d="M492 681Q534 681 576 671T644 643L603 453Q588 511 554 538T462 565Q402 565 348 519T262 399T230 249Q230 177 261 134T348 92Q359 92 369 95L393 226Q395 240 395 247Q395 272 382 286T356 302H631Q603 294 589 276T570 232L529 33Q493 10 433 -3T313 -17Q183 -17 111 52T40 245Q40 356 102 459T268 621T492 681ZM502 872Q538 872 558 849T579 792Q579 751 551 724T483 697Q447 697 426 719T405 776Q405 816 433 844T502 872Z"
				   horiz-adv-x="626" unicode="Ġ"/>
			<glyph d="M578 485L557 379H466Q474 373 480 351T486 312Q486 262 453 223T362 162T239 141Q227 141 216 142Q193 133 185 128T178 118Q178 110 196 104T264 91Q346 78 387 61T450 20T471 -40Q471 -82 438 -115T341 -169T196 -190Q87 -190 24 -159T-39 -78Q-39 -62 -21 -43T27 -11T94 10Q61 22 39 42T18 84Q18 131 125 170Q95 188 75 218T56 287Q56 347 89 391T180 460T312 484Q351 484 397 474T485 464Q544 464 578 485ZM281 396Q251 396 231 368T211 300Q211 269 225 249T265 229Q296 229 317 257T338 326Q338 357 323 376T281 396ZM178 -14Q145 -22 126 -35T107 -63Q107 -82 136 -93T216 -104Q252 -104 278 -93Q304 -83 304 -69Q304 -48 280 -36T178 -14ZM328 692Q364 692 384 669T405 612Q405 571 377 544T309 517Q273 517 252 539T231 596Q231 636 259 664T328 692Z"
				   horiz-adv-x="546" unicode="ġ"/>
			<glyph d="M492 681Q534 681 576 671T644 643L603 453Q588 511 554 538T462 565Q402 565 348 519T262 399T230 249Q230 177 261 134T348 92Q359 92 369 95L393 226Q395 240 395 247Q395 272 382 286T356 302H631Q603 294 589 276T570 232L529 33Q493 10 433 -3T313 -17Q183 -17 111 52T40 245Q40 356 102 459T268 621T492 681ZM298 -34Q320 -34 335 -49T351 -89Q351 -127 320 -154T247 -183Q244 -183 235 -182Q252 -179 268 -162Q285 -145 291 -122Q271 -118 261 -106T251 -80Q251 -62 264 -48T298 -34Z"
				   horiz-adv-x="626" unicode="Ģ"/>
			<glyph d="M361 668L373 667Q355 663 338 645T317 607Q338 603 347 591T357 565Q357 547 344 533T310 519Q288 519 272 534T257 574Q257 612 288 640T361 668ZM578 485L557 379H466Q474 373 480 351T486 312Q486 262 453 223T362 162T239 141Q227 141 216 142Q193 133 185 128T178 118Q178 110 196 104T264 91Q346 78 387 61T450 20T471 -40Q471 -82 438 -115T341 -169T196 -190Q87 -190 24 -159T-39 -78Q-39 -62 -21 -43T27 -11T94 10Q61 22 39 42T18 84Q18 131 125 170Q95 188 75 218T56 287Q56 347 89 391T180 460T312 484Q351 484 397 474T485 464Q544 464 578 485ZM281 396Q251 396 231 368T211 300Q211 269 225 249T265 229Q296 229 317 257T338 326Q338 357 323 376T281 396ZM178 -14Q145 -22 126 -35T107 -63Q107 -82 136 -93T216 -104Q252 -104 278 -93Q304 -83 304 -69Q304 -48 280 -36T178 -14Z"
				   horiz-adv-x="546" unicode="ģ"/>
			<glyph d="M125 666H400Q348 652 334 591L291 395H511L553 587Q556 608 556 616Q556 630 552 639T541 655T521 666H796Q745 653 731 591L621 76Q617 57 617 50Q617 27 627 15T652 0H379Q400 3 418 22T443 72L488 288H268L224 76Q221 57 221 50Q221 27 231 14T256 0H-16Q6 4 23 24T46 72L156 587Q159 603 159 616Q159 656 125 666ZM503 900L632 695L474 764L291 695Z"
				   horiz-adv-x="731" unicode="Ĥ"/>
			<glyph d="M323 696L264 433Q291 456 331 470T412 485Q462 485 487 462T513 395Q513 373 506 339L458 109Q455 95 455 69Q455 44 461 24T482 0H276L344 312Q347 324 347 334Q347 356 337 368T310 380Q289 380 266 360T238 315Q207 162 171 0H13L139 583Q141 593 141 597Q141 629 85 638ZM390 900L519 695L361 764L178 695Z"
				   horiz-adv-x="538" unicode="ĥ"/>
			<glyph d="M125 666H400Q374 660 357 639T334 591L328 565H548L553 587Q556 604 556 616Q556 631 551 640T540 656T521 666H796Q771 660 754 639T731 591L621 76Q617 55 617 50Q617 29 627 15T652 0H379Q401 3 419 22T443 72L488 288H268L224 76Q221 61 221 50Q221 29 230 15T256 0H-16Q5 3 21 22T46 72L156 587Q159 603 159 616Q159 635 151 647T125 666ZM308 475L291 395H511L528 475Z"
				   horiz-adv-x="731" unicode="Ħ"/>
			<glyph d="M323 696L301 598H434L419 528H285L264 433Q291 456 331 470T412 485Q462 485 487 462T513 395Q513 373 506 339L459 114Q455 95 455 69Q455 44 461 24T482 0H276L344 312Q347 324 347 334Q347 356 337 368T310 380Q289 380 266 360T238 315Q207 162 171 0H13L127 528H82L97 598H141Q139 629 85 638Z"
				   horiz-adv-x="538" unicode="ħ"/>
			<glyph d="M125 666H400Q348 652 334 591L224 76Q221 64 221 51Q221 28 230 14T254 0H-15Q8 4 24 23T47 72L156 587Q160 606 160 613Q160 636 150 649T125 666ZM430 871Q446 851 446 822Q446 781 412 746T329 712Q311 712 291 720T253 739T217 758T184 766Q162 766 147 751T124 699Q107 719 107 750Q107 792 138 823T216 855Q238 855 259 847T300 829T337 811T369 803Q396 803 409 820Q423 838 430 871Z"
				   horiz-adv-x="335" unicode="Ĩ"/>
			<glyph d="M278 486L197 109Q191 83 191 60Q191 32 199 17T219 0H13L93 364Q96 376 96 382Q96 399 80 411T43 427L35 428ZM356 697Q372 677 372 648Q372 607 338 572T255 538Q237 538 217 546T179 565T143 584T110 592Q88 592 73 577T50 525Q33 545 33 576Q33 618 64 649T142 681Q164 681 185 673T226 655T263 637T295 629Q322 629 335 646Q349 664 356 697Z"
				   horiz-adv-x="286" unicode="ĩ"/>
			<glyph d="M125 666H400Q348 652 334 591L224 76Q221 64 221 51Q221 28 230 14T254 0H-15Q8 4 24 23T47 72L156 587Q160 606 160 613Q160 636 150 649T125 666ZM120 819H457L442 749H105Z"
				   horiz-adv-x="335" unicode="Ī"/>
			<glyph d="M82 635H359L344 565H67ZM278 486L197 109Q191 83 191 60Q191 33 199 17T219 0H13L94 369Q96 376 96 382Q96 399 80 411T43 427L35 428Z"
				   horiz-adv-x="286" unicode="ī"/>
			<glyph d="M125 666H400Q348 652 334 591L224 76Q221 64 221 51Q221 28 230 14T254 0H-15Q8 4 24 23T47 72L156 587Q160 606 160 613Q160 636 150 649T125 666ZM174 890Q186 856 216 835T288 815Q326 815 365 834T436 890Q425 839 399 800T338 739T267 718Q223 718 195 749T168 835Q168 861 174 890Z"
				   horiz-adv-x="335" unicode="Ĭ"/>
			<glyph d="M278 486L197 109Q191 83 191 60Q191 32 199 17T219 0H13L93 364Q96 376 96 382Q96 399 80 411T43 427L35 428ZM104 701Q116 667 146 646T218 626Q256 626 295 645T366 701Q355 650 329 611T268 550T197 529Q153 529 125 560T98 646Q98 672 104 701Z"
				   horiz-adv-x="286" unicode="ĭ"/>
			<glyph d="M126 666H399Q374 659 357 639T334 591L224 76Q221 62 221 51Q221 28 231 14T253 0Q195 0 158 -21T122 -78Q122 -96 134 -106T168 -117Q195 -117 230 -99Q212 -137 176 -161T103 -185Q68 -185 46 -166T24 -116Q24 -84 44 -54T104 0H-13Q10 5 25 23T47 72L156 587Q160 604 160 613Q160 638 149 650T126 666Z"
				   horiz-adv-x="335" unicode="Į"/>
			<glyph d="M278 486L197 109Q191 83 191 60Q191 31 200 16T220 0Q166 -6 130 -28T95 -78Q95 -96 107 -106T141 -117Q168 -117 203 -99Q186 -136 150 -160T76 -185Q42 -185 19 -166T-3 -116Q-3 -84 19 -54T83 0H13L94 368Q96 378 96 382Q96 398 80 411T43 427L35 428ZM227 692Q263 692 283 669T304 612Q304 571 276 544T208 517Q172 517 151 539T130 596Q130 636 158 664T227 692Z"
				   horiz-adv-x="286" unicode="į"/>
			<glyph d="M125 666H400Q348 652 334 591L224 76Q221 64 221 51Q221 28 230 14T254 0H-15Q8 4 24 23T47 72L156 587Q160 606 160 613Q160 636 150 649T125 666ZM287 872Q323 872 343 849T364 792Q364 751 336 724T268 697Q232 697 211 719T190 776Q190 816 218 844T287 872Z"
				   horiz-adv-x="335" unicode="İ"/>
			<glyph d="M278 486L197 109Q191 83 191 60Q191 32 199 17T219 0H13L93 364Q96 376 96 382Q96 399 80 411T43 427L35 428Z"
				   horiz-adv-x="286" unicode="ı"/>
			<glyph d="M125 666H400Q348 652 334 591L224 76Q221 64 221 51Q221 28 230 14T254 0H-15Q8 4 24 23T47 72L156 587Q160 606 160 613Q160 636 150 649T125 666ZM473 666H750Q719 657 703 634T680 571L583 116Q562 16 515 -35T386 -87Q339 -87 303 -69T251 -21Q269 -26 288 -26Q376 -25 411 138L499 553Q508 590 508 613Q508 659 473 666Z"
				   horiz-adv-x="684" unicode="Ĳ"/>
			<glyph d="M278 486L197 109Q191 83 191 60Q191 31 199 16T219 0H13L91 355Q96 375 96 382Q96 398 80 411T43 427L35 428ZM227 692Q263 692 283 669T304 612Q304 572 276 544T208 517Q172 517 151 539T130 596Q130 636 158 664T227 692ZM513 692Q549 692 569 669T590 612Q590 571 562 544T494 517Q458 517 437 539T416 596Q416 636 444 664T513 692ZM564 486L461 0Q443 -84 392 -132T272 -180Q221 -180 178 -162T119 -120Q143 -126 163 -126Q220 -126 254 -94T301 0T377 359Q381 376 381 381Q381 397 364 410T326 427L321 428Z"
				   horiz-adv-x="575" unicode="ĳ"/>
			<glyph d="M138 666H415Q384 657 368 634T345 571L248 116Q227 16 180 -35T51 -87Q4 -87 -32 -69T-84 -21Q-66 -26 -47 -26Q41 -25 76 138L164 553Q173 590 173 613Q173 659 138 666ZM322 900L451 695L293 764L110 695Z"
				   horiz-adv-x="349" unicode="Ĵ"/>
			<glyph d="M278 486L175 0Q157 -84 106 -132T-14 -180Q-65 -180 -108 -162T-167 -120Q-143 -126 -123 -126Q-65 -126 -31 -94T15 0T92 364Q95 376 95 381Q95 397 78 410T40 427L35 428ZM230 703L339 501L202 570L38 501Z"
				   horiz-adv-x="289" unicode="ĵ"/>
			<glyph d="M121 666H396Q348 654 334 591L285 365L485 571Q535 623 535 648Q535 662 519 666H763Q734 653 710 633T656 585T442 374L561 106Q582 59 611 32T662 0H428L277 331L224 76Q221 57 221 51Q221 29 232 15T257 0H-16Q4 3 22 22T46 72L156 587Q159 600 159 614Q159 657 121 666ZM316 -34Q338 -34 353 -49T369 -89Q369 -127 338 -154T265 -183Q262 -183 253 -182Q270 -179 286 -162Q303 -145 309 -122Q289 -118 279 -106T269 -80Q269 -62 282 -48T316 -34Z"
				   horiz-adv-x="694" unicode="Ķ"/>
			<glyph d="M323 696L228 270L341 389Q372 421 372 442Q372 446 371 449T366 456T354 464H619Q556 450 493 386L367 255L447 90Q464 56 487 40T544 25Q517 7 482 -2T411 -12Q330 -12 302 49L220 233L173 0H13L138 581Q140 589 140 594Q140 610 123 622T80 638ZM246 -34Q268 -34 283 -49T299 -89Q299 -127 268 -154T195 -183Q192 -183 183 -182Q200 -179 216 -162Q233 -145 239 -122Q219 -118 209 -106T199 -80Q199 -62 212 -48T246 -34Z"
				   horiz-adv-x="570" unicode="ķ"/>
			<glyph d="M278 487L228 270L341 389Q372 420 372 442Q372 446 371 449T366 456T354 464H619Q555 449 493 386L367 255L447 90Q464 56 487 40T544 25Q517 7 482 -2T411 -12Q330 -12 302 49L220 233L173 0H13L93 371Q95 380 95 385Q95 401 79 412T35 429Z"
				   horiz-adv-x="570" unicode="ĸ"/>
			<glyph d="M117 666H392Q344 654 330 591L227 111H343Q407 111 443 131T510 207L465 0H-16Q3 3 19 22T42 72L152 587Q155 607 155 614Q155 657 117 666ZM339 860H533L266 695Z"
				   horiz-adv-x="543" unicode="Ĺ"/>
			<glyph d="M323 696L196 109Q190 82 190 59Q190 31 198 16T218 0H13L137 574Q141 589 141 595Q140 631 85 638ZM245 860H439L172 695Z"
				   horiz-adv-x="286" unicode="ĺ"/>
			<glyph d="M117 666H392Q344 654 330 591L227 111H343Q407 111 443 131T510 207L465 0H-16Q3 3 19 22T42 72L152 587Q155 607 155 614Q155 657 117 666ZM233 -34Q255 -34 270 -49T286 -89Q286 -127 255 -154T182 -183Q179 -183 170 -182Q187 -179 203 -162Q220 -145 226 -122Q206 -118 196 -106T186 -80Q186 -62 199 -48T233 -34Z"
				   horiz-adv-x="543" unicode="Ļ"/>
			<glyph d="M323 696L196 109Q190 82 190 59Q190 31 198 16T218 0H13L137 574Q141 589 141 595Q140 631 85 638ZM90 -34Q112 -34 127 -49T143 -89Q143 -127 112 -154T39 -183Q36 -183 27 -182Q44 -179 60 -162Q77 -145 83 -122Q63 -118 53 -106T43 -80Q43 -62 56 -48T90 -34Z"
				   horiz-adv-x="286" unicode="ļ"/>
			<glyph d="M117 666H392Q344 654 330 591L227 111H343Q407 111 443 131T510 207L465 0H-16Q3 3 19 22T42 72L152 587Q155 607 155 614Q155 657 117 666ZM452 682H600L386 481Z"
				   horiz-adv-x="543" unicode="Ľ"/>
			<glyph d="M323 696L196 109Q190 82 190 59Q190 31 198 16T218 0H13L137 574Q141 589 141 595Q140 631 85 638ZM402 682H550L336 481Z"
				   horiz-adv-x="308" unicode="ľ"/>
			<glyph d="M117 666H392Q344 654 330 591L227 111H343Q407 111 443 131T510 207L465 0H-16Q3 3 19 22T42 72L152 587Q155 607 155 614Q155 657 117 666ZM504 430Q540 430 560 407T581 350Q581 309 553 282T485 255Q449 255 428 277T407 334Q407 374 435 402T504 430Z"
				   horiz-adv-x="619" unicode="Ŀ"/>
			<glyph d="M323 696L196 109Q190 82 190 59Q190 31 198 16T218 0H13L137 574Q141 589 141 595Q140 631 85 638ZM404 390Q440 390 460 367T481 310Q481 269 453 242T385 215Q349 215 328 237T307 294Q307 334 335 362T404 390Z"
				   horiz-adv-x="484" unicode="ŀ"/>
			<glyph d="M117 666H392Q368 660 352 640T330 591L295 432L388 491L367 389L274 330L227 111H343Q412 111 450 132T510 207L465 0H-16Q3 3 19 22T42 72L70 202L-1 157L20 259L92 305L152 587Q155 602 155 614Q155 656 117 666Z"
				   horiz-adv-x="539" unicode="Ł"/>
			<glyph d="M325 696L271 448L336 490L314 388L249 345L198 109Q192 83 192 59Q192 31 200 16T220 0H15L64 226L-3 183L19 285L86 329L139 574Q143 589 143 595Q143 630 87 638Z"
				   horiz-adv-x="290" unicode="ł"/>
			<glyph d="M95 666H312L505 299L565 590Q568 607 568 613Q568 633 558 647T527 666H758Q714 653 701 594L573 0H442Q419 99 391 150L256 405L186 71Q184 62 184 51Q184 29 196 15T225 0H-15Q10 4 26 21T50 68L151 537Q158 568 158 574Q158 592 137 625T95 666ZM481 860H675L408 695Z"
				   horiz-adv-x="692" unicode="Ń"/>
			<glyph d="M262 486L253 428Q328 485 407 485Q514 485 514 394Q514 366 508 339L460 109Q457 92 457 70Q457 39 464 21T484 0H278L346 312Q349 324 349 335Q349 355 339 367T312 380Q291 380 268 358T239 303L173 0H15L96 370Q97 378 97 382Q97 400 82 412T44 427L37 428ZM337 666H531L264 501Z"
				   horiz-adv-x="538" unicode="ń"/>
			<glyph d="M95 666H312L505 299L565 590Q568 607 568 613Q568 633 558 647T527 666H758Q714 653 701 594L573 0H442Q419 99 391 150L256 405L186 71Q184 62 184 51Q184 29 196 15T225 0H-15Q10 4 26 21T50 68L151 537Q158 568 158 574Q158 592 137 625T95 666ZM296 -34Q318 -34 333 -49T349 -89Q349 -127 318 -154T245 -183Q242 -183 233 -182Q250 -179 266 -162Q283 -145 289 -122Q269 -118 259 -106T249 -80Q249 -62 262 -48T296 -34Z"
				   horiz-adv-x="692" unicode="Ņ"/>
			<glyph d="M262 486L253 428Q328 485 407 485Q514 485 514 394Q514 366 508 339L460 109Q457 92 457 70Q457 39 464 21T484 0H278L346 312Q349 324 349 335Q349 355 339 367T312 380Q291 380 268 358T239 303L173 0H15L96 370Q97 378 97 382Q97 400 82 412T44 427L37 428ZM219 -34Q241 -34 256 -49T272 -89Q272 -127 241 -154T168 -183Q165 -183 156 -182Q173 -179 189 -162Q206 -145 212 -122Q192 -118 182 -106T172 -80Q172 -62 185 -48T219 -34Z"
				   horiz-adv-x="538" unicode="ņ"/>
			<glyph d="M95 666H312L505 299L565 590Q568 607 568 613Q568 633 558 647T527 666H758Q714 653 701 594L573 0H442Q419 99 391 150L256 405L186 71Q184 62 184 51Q184 29 196 15T225 0H-15Q10 4 26 21T50 68L151 537Q158 568 158 574Q158 592 137 625T95 666ZM315 901L473 832L656 901L444 696Z"
				   horiz-adv-x="692" unicode="Ň"/>
			<glyph d="M262 486L253 428Q328 485 407 485Q514 485 514 394Q514 366 508 339L460 109Q457 92 457 70Q457 39 464 21T484 0H278L346 312Q349 324 349 335Q349 355 339 367T312 380Q291 380 268 358T239 303L173 0H15L96 370Q97 378 97 382Q97 400 82 412T44 427L37 428ZM216 703L353 634L517 703L325 502Z"
				   horiz-adv-x="538" unicode="ň"/>
			<glyph d="M262 486L253 428Q328 485 407 485Q514 485 514 394Q514 366 508 339L460 109Q457 92 457 70Q457 39 464 21T484 0H278L346 312Q349 324 349 335Q349 355 339 367T312 380Q291 380 268 358T239 303L173 0H15L96 370Q97 378 97 382Q97 400 82 412T44 427L37 428ZM113 681Q135 681 150 665T166 626Q166 588 135 560T62 532Q59 532 50 533Q67 536 83 553Q100 570 106 593Q86 597 76 609T66 635Q66 653 79 667T113 681Z"
				   horiz-adv-x="538" unicode="ŉ"/>
			<glyph d="M95 666H312L505 299L565 590Q568 602 568 613Q568 655 527 666H757Q737 660 722 641T701 594L586 58Q573 -5 535 -52T439 -124T306 -150Q426 -82 426 25Q426 83 391 150L256 405L186 71Q184 63 184 51Q184 30 195 16T223 0H-13Q8 3 25 20T50 68L155 556Q158 565 158 574Q158 592 137 625T95 666Z"
				   horiz-adv-x="692" unicode="Ŋ"/>
			<glyph d="M262 486L253 428Q327 485 407 485Q514 485 514 394Q514 368 508 336L439 0Q422 -84 371 -132T250 -180Q199 -180 156 -162T97 -120Q121 -126 141 -126Q198 -126 231 -94T278 0L346 312Q349 324 349 335Q349 355 339 367T312 380Q290 380 268 358T239 303L173 0H15L96 370Q97 377 97 382Q97 401 82 412T45 427L37 428Z"
				   horiz-adv-x="539" unicode="ŋ"/>
			<glyph d="M435 682Q555 682 624 609T694 416Q694 307 640 205Q587 104 495 44T297 -15Q179 -15 109 58T40 254Q40 365 93 464T237 623T435 682ZM415 565Q366 565 324 517T257 391T232 237Q232 177 252 139T318 102Q367 102 410 149T478 272T504 428Q504 488 483 526T415 565ZM292 819H629L614 749H277Z"
				   horiz-adv-x="691" unicode="Ō"/>
			<glyph d="M305 482Q396 482 449 428T502 286Q502 209 462 137T358 26T216 -12Q156 -12 112 13T44 83T21 186Q21 264 58 333T161 442T305 482ZM292 378Q265 378 240 349T198 267T180 170Q180 133 193 112T228 91Q254 91 278 117T321 197T339 297Q339 335 326 356T292 378ZM178 635H515L500 565H163Z"
				   horiz-adv-x="523" unicode="ō"/>
			<glyph d="M435 682Q555 682 624 609T694 416Q694 307 640 205Q587 104 495 44T297 -15Q179 -15 109 58T40 254Q40 365 93 464T237 623T435 682ZM415 565Q366 565 324 517T257 391T232 237Q232 177 252 139T318 102Q367 102 410 149T478 272T504 428Q504 488 483 526T415 565ZM350 890Q362 856 392 835T464 815Q502 815 541 834T612 890Q601 839 575 800T514 739T443 718Q399 718 371 749T344 835Q344 861 350 890Z"
				   horiz-adv-x="691" unicode="Ŏ"/>
			<glyph d="M305 482Q396 482 449 428T502 286Q502 209 462 137T358 26T216 -12Q156 -12 112 13T44 83T21 186Q21 264 58 333T161 442T305 482ZM292 378Q265 378 240 349T198 267T180 170Q180 133 193 112T228 91Q254 91 278 117T321 197T339 297Q339 335 326 356T292 378ZM224 701Q236 667 266 646T338 626Q376 626 415 645T486 701Q475 650 449 611T388 550T317 529Q273 529 245 560T218 646Q218 672 224 701Z"
				   horiz-adv-x="523" unicode="ŏ"/>
			<glyph d="M435 682Q555 682 624 609T694 416Q694 307 640 205Q587 104 495 44T297 -15Q179 -15 109 58T40 254Q40 365 93 464T237 623T435 682ZM415 565Q366 565 324 517T257 391T232 237Q232 177 252 139T318 102Q367 102 410 149T478 272T504 428Q504 488 483 526T415 565ZM603 860H777L517 695ZM394 860H568L309 695Z"
				   horiz-adv-x="691" unicode="Ő"/>
			<glyph d="M305 482Q396 482 449 428T502 286Q502 209 462 137T358 26T216 -12Q156 -12 112 13T44 83T21 186Q21 264 58 333T161 442T305 482ZM292 378Q265 378 240 349T198 267T180 170Q180 133 193 112T228 91Q254 91 278 117T321 197T339 297Q339 335 326 356T292 378ZM440 666H614L354 501ZM231 666H405L146 501Z"
				   horiz-adv-x="523" unicode="ő"/>
			<glyph d="M430 682Q479 682 528 666H969L930 472Q925 555 819 555H699L665 395H762Q800 395 825 405T857 431L819 248Q818 267 797 277T740 288H643L607 111H733Q798 111 834 131T897 207L852 0H394Q344 -15 292 -15Q173 -15 104 58T35 254Q35 366 89 466T234 624T430 682ZM415 571Q368 571 325 523T254 392T226 231Q226 165 248 130T312 96Q361 96 405 145T477 276T504 434Q504 500 481 535T415 571Z"
				   horiz-adv-x="936" unicode="Œ"/>
			<glyph d="M633 484Q695 484 734 452T773 365Q773 336 758 303T708 242T617 194T477 170Q483 132 507 111T572 91Q606 91 647 105Q689 119 727 148Q703 73 640 28T502 -16Q417 -16 369 35Q300 -12 211 -12Q151 -12 107 13T39 83T16 186Q16 264 53 333T156 442T300 482Q395 482 448 422Q530 484 633 484ZM597 390Q575 390 548 371T501 320T475 252Q543 253 589 281T635 350Q635 369 624 379T597 390ZM287 378Q260 378 235 349T193 267T175 170Q175 134 187 112T223 91Q250 91 274 118T316 198T334 297Q334 335 321 356T287 378Z"
				   horiz-adv-x="758" unicode="œ"/>
			<glyph d="M122 666H415Q521 666 582 618T643 490Q643 414 590 353T460 280Q476 264 485 236L539 88Q553 50 573 27T612 0H381L314 218Q296 278 277 278H268L222 76Q218 57 218 50Q218 28 229 15T255 0H-16Q6 4 23 23T46 72L156 587Q160 607 160 614Q160 657 122 666ZM328 565L286 363H341Q398 363 432 398T466 482Q466 519 445 542T394 565ZM418 860H612L345 695Z"
				   horiz-adv-x="641" unicode="Ŕ"/>
			<glyph d="M272 486L259 419Q283 450 316 467T382 484Q417 484 437 462T458 402Q458 354 416 320T313 284Q320 290 324 303T328 330Q328 344 323 355T305 367Q252 367 223 233L173 0H15L95 361Q98 372 98 380Q98 398 83 410T40 427L33 428ZM268 666H462L195 501Z"
				   horiz-adv-x="438" unicode="ŕ"/>
			<glyph d="M122 666H415Q521 666 582 618T643 490Q643 414 590 353T460 280Q476 264 485 236L539 88Q553 50 573 27T612 0H381L314 218Q296 278 277 278H268L222 76Q218 57 218 50Q218 28 229 15T255 0H-16Q6 4 23 23T46 72L156 587Q160 607 160 614Q160 657 122 666ZM328 565L286 363H341Q398 363 432 398T466 482Q466 519 445 542T394 565ZM296 -34Q318 -34 333 -49T349 -89Q349 -127 318 -154T245 -183Q242 -183 233 -182Q250 -179 266 -162Q283 -145 289 -122Q269 -118 259 -106T249 -80Q249 -62 262 -48T296 -34Z"
				   horiz-adv-x="641" unicode="Ŗ"/>
			<glyph d="M272 486L259 419Q283 450 316 467T382 484Q417 484 437 462T458 402Q458 354 416 320T313 284Q320 290 324 303T328 330Q328 344 323 355T305 367Q252 367 223 233L173 0H15L95 361Q98 372 98 380Q98 398 83 410T40 427L33 428ZM135 -34Q157 -34 172 -49T188 -89Q188 -127 157 -154T84 -183Q81 -183 72 -182Q89 -179 105 -162Q122 -145 128 -122Q108 -118 98 -106T88 -80Q88 -62 101 -48T135 -34Z"
				   horiz-adv-x="438" unicode="ŗ"/>
			<glyph d="M122 666H415Q521 666 582 618T643 490Q643 414 590 353T460 280Q476 264 485 236L539 88Q553 50 573 27T612 0H381L314 218Q296 278 277 278H268L222 76Q218 57 218 50Q218 28 229 15T255 0H-16Q6 4 23 23T46 72L156 587Q160 607 160 614Q160 657 122 666ZM328 565L286 363H341Q398 363 432 398T466 482Q466 519 445 542T394 565ZM259 901L417 832L600 901L388 696Z"
				   horiz-adv-x="641" unicode="Ř"/>
			<glyph d="M272 486L259 419Q283 450 316 467T382 484Q417 484 437 462T458 402Q458 354 416 320T313 284Q320 290 324 303T328 330Q328 344 323 355T305 367Q252 367 223 233L173 0H15L95 361Q98 372 98 380Q98 398 83 410T40 427L33 428ZM164 703L301 634L465 703L273 502Z"
				   horiz-adv-x="438" unicode="ř"/>
			<glyph d="M352 682Q396 682 438 672T539 631L502 453Q472 507 428 536T343 565Q311 565 291 550T271 504Q271 478 296 452T388 382Q504 303 504 202Q504 107 428 45T229 -16Q169 -16 105 2T7 46L53 259Q77 187 128 146T242 105Q277 105 298 123T319 171Q319 195 300 216T207 287Q95 362 95 467Q95 559 167 620T352 682ZM343 860H537L270 695Z"
				   horiz-adv-x="531" unicode="Ś"/>
			<glyph d="M269 485Q335 485 376 460T418 393Q418 340 335 304L337 316Q337 346 315 364T262 383Q237 383 220 373T204 347Q204 333 221 317T294 266Q380 210 380 137Q380 93 353 59T275 5T162 -15Q57 -15 -5 24L39 202Q48 150 80 118T157 87Q182 87 199 96T217 122Q217 136 204 148T137 196Q57 249 57 322Q57 371 85 408T163 465T269 485ZM279 666H473L206 501Z"
				   horiz-adv-x="420" unicode="ś"/>
			<glyph d="M352 682Q396 682 438 672T539 631L502 453Q472 507 428 536T343 565Q311 565 291 550T271 504Q271 478 296 452T388 382Q504 303 504 202Q504 107 428 45T229 -16Q169 -16 105 2T7 46L53 259Q77 187 128 146T242 105Q277 105 298 123T319 171Q319 195 300 216T207 287Q95 362 95 467Q95 559 167 620T352 682ZM393 900L522 695L364 764L181 695Z"
				   horiz-adv-x="531" unicode="Ŝ"/>
			<glyph d="M269 485Q335 485 376 460T418 393Q418 340 335 304L337 316Q337 346 315 364T262 383Q237 383 220 373T204 347Q204 333 221 317T294 266Q380 210 380 137Q380 93 353 59T275 5T162 -15Q57 -15 -5 24L39 202Q48 150 80 118T157 87Q182 87 199 96T217 122Q217 136 204 148T137 196Q57 249 57 322Q57 371 85 408T163 465T269 485ZM311 703L420 501L283 570L119 501Z"
				   horiz-adv-x="420" unicode="ŝ"/>
			<glyph d="M352 682Q402 682 451 669T539 631L502 453Q471 506 428 535T343 565Q311 565 291 550T271 504Q271 481 289 459T345 412Q417 362 445 334T488 273T504 202Q504 114 438 54T261 -15L242 -36Q273 -40 291 -55T310 -96Q310 -117 292 -138T246 -172T183 -185Q129 -185 92 -159Q105 -162 122 -162Q161 -162 185 -146T210 -112Q210 -99 193 -86T136 -73L186 -13Q134 -8 82 9T7 46L53 259Q78 186 129 145T242 105Q276 105 297 123T319 171Q319 192 303 212T248 259Q176 307 149 335T108 396T95 467Q95 527 128 576T219 654T352 682Z"
				   horiz-adv-x="531" unicode="Ş"/>
			<glyph d="M269 485Q336 485 377 460T418 393Q418 340 335 304L337 316Q337 346 315 364T262 383Q237 383 220 373T204 347Q204 333 221 317T292 268Q380 210 380 137Q380 79 335 39T208 -11L186 -36Q217 -40 235 -55T254 -96Q254 -117 236 -139T190 -173T127 -185Q75 -185 36 -159Q50 -162 66 -162Q105 -162 129 -146T154 -112Q154 -99 138 -87T80 -73L129 -14Q48 -9 -5 24L39 202Q48 150 80 118T157 87Q182 87 199 96T217 122Q217 136 204 148T137 196Q57 249 57 322Q57 371 85 408T163 465T269 485Z"
				   horiz-adv-x="420" unicode="ş"/>
			<glyph d="M352 682Q396 682 438 672T539 631L502 453Q472 507 428 536T343 565Q311 565 291 550T271 504Q271 478 296 452T388 382Q504 303 504 202Q504 107 428 45T229 -16Q169 -16 105 2T7 46L53 259Q77 187 128 146T242 105Q277 105 298 123T319 171Q319 195 300 216T207 287Q95 362 95 467Q95 559 167 620T352 682ZM226 901L384 832L567 901L355 696Z"
				   horiz-adv-x="531" unicode="Š"/>
			<glyph d="M269 485Q335 485 376 460T418 393Q418 340 335 304L337 316Q337 346 315 364T262 383Q237 383 220 373T204 347Q204 333 221 317T294 266Q380 210 380 137Q380 93 353 59T275 5T162 -15Q57 -15 -5 24L39 202Q48 150 80 118T157 87Q182 87 199 96T217 122Q217 136 204 148T137 196Q57 249 57 322Q57 371 85 408T163 465T269 485ZM149 703L286 634L450 703L258 502Z"
				   horiz-adv-x="420" unicode="š"/>
			<glyph d="M112 666H698L655 470Q652 521 625 539T536 558H468L365 76Q362 62 362 50Q362 29 372 15T397 0H125Q147 3 165 22T189 72L292 558H221Q154 558 120 537T66 470ZM234 -34Q256 -34 271 -49T287 -89Q287 -127 256 -154T183 -183Q180 -183 171 -182Q188 -179 204 -162Q221 -145 227 -122Q207 -118 197 -106T187 -80Q187 -62 200 -48T234 -34Z"
				   horiz-adv-x="621" unicode="Ţ"/>
			<glyph d="M309 614L278 464H407L388 369H258L222 208Q210 156 210 130Q210 101 224 90T268 80Q307 80 361 107Q336 47 285 15T163 -16Q106 -16 72 10T39 88Q39 107 45 131L100 369H19ZM154 -34Q176 -34 191 -49T207 -89Q207 -127 176 -154T103 -183Q100 -183 91 -182Q108 -179 124 -162Q141 -145 147 -122Q127 -118 117 -106T107 -80Q107 -62 120 -48T154 -34Z"
				   horiz-adv-x="380" unicode="ţ"/>
			<glyph d="M112 666H698L655 470Q652 521 625 539T536 558H468L365 76Q362 62 362 50Q362 29 372 15T397 0H125Q147 3 165 22T189 72L292 558H221Q154 558 120 537T66 470ZM278 904L415 835L579 904L387 703Z"
				   horiz-adv-x="621" unicode="Ť"/>
			<glyph d="M309 614L278 464H407L388 369H258L222 208Q210 156 210 130Q210 101 224 90T268 80Q307 80 361 107Q336 47 285 15T163 -16Q106 -16 72 10T39 88Q39 107 45 131L100 369H19ZM392 682H540L326 481Z"
				   horiz-adv-x="380" unicode="ť"/>
			<glyph d="M112 666H698L655 470Q652 521 625 539T536 558H468L419 330H504L489 260H404L365 76Q362 62 362 50Q362 28 371 15T395 0H126Q147 3 164 22T189 72L229 260H152L167 330H244L292 558H221Q155 558 120 537T66 470Z"
				   horiz-adv-x="621" unicode="Ŧ"/>
			<glyph d="M309 614L278 464H407L388 369H258L236 271H351L336 201H220Q210 148 210 130Q210 101 224 90T268 80Q307 80 361 107Q336 47 285 15T163 -16Q106 -16 72 10T39 88Q39 107 45 131L61 201H-1L14 271H77L100 369H19Z"
				   horiz-adv-x="380" unicode="ŧ"/>
			<glyph d="M116 666H390Q338 653 328 603L248 237Q240 203 240 179Q240 140 260 122T328 104Q375 104 408 132T454 216L533 597Q535 606 535 620Q535 636 527 648T502 666H737Q713 660 697 642T678 600L603 237Q583 144 545 89T448 10T289 -15Q170 -15 117 36T64 171Q64 211 75 259L151 603Q153 610 153 622Q153 638 144 649T116 666ZM599 871Q615 851 615 822Q615 781 581 746T498 712Q480 712 460 720T422 739T386 758T353 766Q331 766 316 751T293 699Q276 719 276 750Q276 792 307 823T385 855Q407 855 428 847T469 829T506 811T538 803Q565 803 578 820Q592 838 599 871Z"
				   horiz-adv-x="675" unicode="Ũ"/>
			<glyph d="M278 486L207 159Q204 144 204 132Q204 91 239 91Q262 91 283 113T312 168L348 321Q358 361 358 385Q358 406 347 414T311 427L306 428L542 486L458 101Q455 91 455 82Q455 65 468 56T512 43L287 -15L299 43Q273 18 232 2T146 -14Q94 -14 66 7T38 77Q38 99 45 132L83 321Q91 361 91 381Q91 402 82 412T47 427L41 428ZM490 697Q506 677 506 648Q506 607 472 572T389 538Q371 538 351 546T313 565T277 584T244 592Q222 592 207 577T184 525Q167 545 167 576Q167 618 198 649T276 681Q298 681 319 673T360 655T397 637T429 629Q456 629 469 646Q483 664 490 697Z"
				   horiz-adv-x="556" unicode="ũ"/>
			<glyph d="M116 666H390Q338 653 328 603L248 237Q240 203 240 179Q240 140 260 122T328 104Q375 104 408 132T454 216L533 597Q535 606 535 620Q535 636 527 648T502 666H737Q713 660 697 642T678 600L603 237Q583 144 545 89T448 10T289 -15Q170 -15 117 36T64 171Q64 211 75 259L151 603Q153 610 153 622Q153 638 144 649T116 666ZM304 819H641L626 749H289Z"
				   horiz-adv-x="675" unicode="Ū"/>
			<glyph d="M278 486L207 159Q204 144 204 132Q204 91 239 91Q262 91 283 113T312 168L348 321Q358 361 358 385Q358 406 347 414T311 427L306 428L542 486L458 101Q455 91 455 82Q455 65 468 56T512 43L287 -15L299 43Q273 18 232 2T146 -14Q94 -14 66 7T38 77Q38 99 45 132L83 321Q91 361 91 381Q91 402 82 412T47 427L41 428ZM175 635H512L497 565H160Z"
				   horiz-adv-x="556" unicode="ū"/>
			<glyph d="M116 666H390Q338 653 328 603L248 237Q240 203 240 179Q240 140 260 122T328 104Q375 104 408 132T454 216L533 597Q535 606 535 620Q535 636 527 648T502 666H737Q713 660 697 642T678 600L603 237Q583 144 545 89T448 10T289 -15Q170 -15 117 36T64 171Q64 211 75 259L151 603Q153 610 153 622Q153 638 144 649T116 666ZM352 890Q364 856 394 835T466 815Q504 815 543 834T614 890Q603 839 577 800T516 739T445 718Q401 718 373 749T346 835Q346 861 352 890Z"
				   horiz-adv-x="675" unicode="Ŭ"/>
			<glyph d="M278 486L207 159Q204 144 204 132Q204 91 239 91Q262 91 283 113T312 168L348 321Q358 361 358 385Q358 406 347 414T311 427L306 428L542 486L458 101Q455 91 455 82Q455 65 468 56T512 43L287 -15L299 43Q273 18 232 2T146 -14Q94 -14 66 7T38 77Q38 99 45 132L83 321Q91 361 91 381Q91 402 82 412T47 427L41 428ZM237 701Q249 667 279 646T351 626Q389 626 428 645T499 701Q488 650 462 611T401 550T330 529Q286 529 258 560T231 646Q231 672 237 701Z"
				   horiz-adv-x="556" unicode="ŭ"/>
			<glyph d="M116 666H390Q338 653 328 603L248 237Q240 203 240 179Q240 140 260 122T328 104Q375 104 408 132T454 216L533 597Q535 606 535 620Q535 636 527 648T502 666H737Q713 660 697 642T678 600L603 237Q583 144 545 89T448 10T289 -15Q170 -15 117 36T64 171Q64 211 75 259L151 603Q153 610 153 622Q153 638 144 649T116 666ZM450 910Q493 910 523 882T553 809Q553 764 524 735T450 706Q406 706 376 734T347 809Q347 853 376 881T450 910ZM450 861Q428 861 413 846T399 809Q399 785 414 770T450 755Q471 755 485 769T499 809Q499 833 485 847T450 861Z"
				   horiz-adv-x="675" unicode="Ů"/>
			<glyph d="M278 486L207 159Q204 144 204 132Q204 91 239 91Q262 91 283 113T312 168L348 321Q358 361 358 385Q358 406 347 414T311 427L306 428L542 486L458 101Q455 91 455 82Q455 65 468 56T512 43L287 -15L299 43Q273 18 232 2T146 -14Q94 -14 66 7T38 77Q38 99 45 132L83 321Q91 361 91 381Q91 402 82 412T47 427L41 428ZM346 709Q389 709 419 681T449 608Q449 563 420 534T346 505Q302 505 272 533T243 608Q243 652 272 680T346 709ZM346 660Q324 660 309 645T295 608Q295 584 310 569T346 554Q367 554 381 568T395 608Q395 632 381 646T346 660Z"
				   horiz-adv-x="556" unicode="ů"/>
			<glyph d="M116 666H390Q338 653 328 603L248 237Q240 203 240 179Q240 140 260 122T328 104Q375 104 408 132T454 216L533 597Q535 606 535 620Q535 636 527 648T502 666H737Q713 660 697 642T678 600L603 237Q583 144 545 89T448 10T289 -15Q170 -15 117 36T64 171Q64 211 75 259L151 603Q153 610 153 622Q153 638 144 649T116 666ZM573 860H747L487 695ZM364 860H538L279 695Z"
				   horiz-adv-x="675" unicode="Ű"/>
			<glyph d="M278 486L207 159Q204 144 204 132Q204 91 239 91Q262 91 283 113T312 168L348 321Q358 361 358 385Q358 406 347 414T311 427L306 428L542 486L458 101Q455 91 455 82Q455 65 468 56T512 43L287 -15L299 43Q273 18 232 2T146 -14Q94 -14 66 7T38 77Q38 99 45 132L83 321Q91 361 91 381Q91 402 82 412T47 427L41 428ZM466 666H640L380 501ZM257 666H431L172 501Z"
				   horiz-adv-x="556" unicode="ű"/>
			<glyph d="M117 666H389Q366 661 349 644T328 603L248 237Q239 193 239 170Q239 137 258 120T328 104Q375 104 408 132T454 216L533 597Q535 606 535 620Q535 637 526 649T502 666H737Q715 660 699 642T678 600L598 223Q575 119 530 65T403 -5Q353 -15 334 -23T304 -45T293 -78Q293 -96 305 -106T339 -117Q366 -117 401 -99Q383 -137 347 -161T274 -185Q238 -185 216 -165T194 -114Q194 -59 253 -14Q152 -10 106 31T61 150Q61 190 71 236L151 603Q153 610 153 622Q153 656 117 666Z"
				   horiz-adv-x="675" unicode="Ų"/>
			<glyph d="M278 486L207 159Q204 144 204 132Q204 91 239 91Q262 91 283 113T312 168L348 321Q358 361 358 385Q358 397 354 405T341 418T311 427L306 428L542 486L459 106Q455 91 455 82Q455 65 468 56T512 43Q426 18 377 -13T328 -78Q328 -96 340 -106T374 -117Q401 -117 436 -99Q418 -137 382 -161T309 -185Q274 -185 251 -165T229 -114Q229 -87 245 -61T287 -15L299 43Q273 18 231 2T146 -14Q93 -14 65 7T38 77Q38 99 45 132L83 321Q91 361 91 381Q91 402 82 412T47 427L41 428Z"
				   horiz-adv-x="556" unicode="ų"/>
			<glyph d="M91 666H351Q309 656 309 596Q309 590 311 571L338 256L488 518L484 563Q480 607 469 633T445 666H691Q649 654 649 594Q649 587 650 576L676 257L846 568Q867 608 867 630Q867 640 864 646T856 657T840 666H1089Q1066 660 1041 634T990 564L667 0H535L508 329L318 0H186L135 563Q131 605 119 633T91 666ZM619 900L748 695L590 764L407 695Z"
				   horiz-adv-x="987" unicode="Ŵ"/>
			<glyph d="M231 485L252 215L391 464H505L535 209L620 346Q648 392 648 421Q648 438 638 449T615 464H828L513 -4H397L376 235L231 -4H115L82 376Q77 424 21 428L9 429ZM492 703L601 501L464 570L300 501Z"
				   horiz-adv-x="785" unicode="ŵ"/>
			<glyph d="M79 666H331Q321 662 316 652T311 626Q311 614 316 594L362 408L493 591Q517 624 517 644Q517 661 499 666H724Q687 655 643 594L399 256L359 76Q356 61 356 50Q356 29 365 16T391 0H120Q142 3 159 22T184 72L224 256L138 594Q131 622 115 641T79 666ZM457 900L586 695L428 764L245 695Z"
				   horiz-adv-x="617" unicode="Ŷ"/>
			<glyph d="M226 484L293 153Q345 237 366 294T388 391Q388 418 375 438T336 464H546Q507 335 443 222T302 8T155 -139T32 -186Q-12 -186 -36 -165T-60 -109Q-60 -81 -49 -53Q-23 -75 15 -75Q54 -75 93 -56T166 0L83 376Q78 398 62 412T17 428L5 429ZM358 703L467 501L330 570L166 501Z"
				   horiz-adv-x="524" unicode="ŷ"/>
			<glyph d="M79 666H331Q321 662 316 652T311 626Q311 614 316 594L362 408L493 591Q517 624 517 644Q517 661 499 666H724Q687 655 643 594L399 256L359 76Q356 61 356 50Q356 29 365 16T391 0H120Q142 3 159 22T184 72L224 256L138 594Q131 622 115 641T79 666ZM540 854Q568 854 585 836T603 788Q603 755 580 732T524 710Q495 710 477 728T460 775Q460 808 483 831T540 854ZM330 854Q358 854 375 836T393 788Q393 755 370 732T314 710Q285 710 267 728T250 775Q250 808 273 831T330 854Z"
				   horiz-adv-x="617" unicode="Ÿ"/>
			<glyph d="M131 666H660L258 111H399Q459 111 497 129T566 192L518 0H-27L86 158L373 555H222Q174 555 138 539T87 491ZM407 860H601L334 695Z"
				   horiz-adv-x="599" unicode="Ź"/>
			<glyph d="M74 472H473L213 88H291Q328 88 350 93T388 108T423 153L385 0H-22L238 384H128Q99 384 75 371T41 333ZM288 666H482L215 501Z"
				   horiz-adv-x="459" unicode="ź"/>
			<glyph d="M131 666H660L258 111H399Q459 111 497 129T566 192L518 0H-27L86 158L373 555H222Q174 555 138 539T87 491ZM417 872Q453 872 473 849T494 792Q494 751 466 724T398 697Q362 697 341 719T320 776Q320 816 348 844T417 872Z"
				   horiz-adv-x="599" unicode="Ż"/>
			<glyph d="M74 472H473L213 88H291Q328 88 350 93T388 108T423 153L385 0H-22L238 384H128Q99 384 75 371T41 333ZM298 692Q334 692 354 669T375 612Q375 571 347 544T279 517Q243 517 222 539T201 596Q201 636 229 664T298 692Z"
				   horiz-adv-x="459" unicode="ż"/>
			<glyph d="M131 666H660L258 111H399Q459 111 497 129T566 192L518 0H-27L86 158L373 555H222Q174 555 138 539T87 491ZM281 904L418 835L582 904L390 703Z"
				   horiz-adv-x="599" unicode="Ž"/>
			<glyph d="M74 472H473L213 88H291Q328 88 350 93T388 108T423 153L385 0H-22L238 384H128Q99 384 75 371T41 333ZM166 703L303 634L467 703L275 502Z"
				   horiz-adv-x="459" unicode="ž"/>
			<glyph d="M354 692Q404 692 433 671T462 620Q462 592 442 572T391 548Q398 558 398 569Q398 582 389 591T365 601Q342 601 327 574T296 464L201 -7Q164 -189 10 -189Q-70 -189 -109 -125Q-83 -129 -72 -129Q-27 -129 0 -101T40 -7L118 369H41L59 464H136Q159 577 215 634T354 692Z"
				   horiz-adv-x="328" unicode="ſ"/>
			<glyph d="M478 683Q546 683 594 660L542 540Q529 548 508 554T469 560Q437 560 418 532T389 439L384 409H488L468 309H365L325 115Q295 -27 228 -94T55 -162Q7 -162 -49 -139L-2 -13Q33 -40 65 -40Q89 -40 102 -29T126 8T147 86L193 309H98L118 409H212Q241 549 306 616T478 683Z"
				   horiz-adv-x="534" unicode="ƒ"/>
			<glyph d="M767 718Q795 718 814 697T834 645Q834 600 794 554Q755 508 688 479Q694 449 694 416Q694 307 640 205T494 44T297 -15Q178 -15 109 58T40 254Q40 366 93 466T238 624T435 682Q522 682 584 642T674 531Q692 540 708 553T732 579Q711 587 699 605T687 643Q687 675 710 696T767 718ZM415 565Q368 565 326 519T258 393T232 237Q232 171 254 136T318 102Q368 102 411 150T479 275T504 428Q504 495 481 530T415 565Z"
				   horiz-adv-x="715" unicode="Ơ"/>
			<glyph d="M557 570Q585 570 604 549T624 497Q624 454 587 409Q551 365 496 340Q502 314 502 286Q502 209 462 137T358 26T216 -12Q156 -12 112 13T44 83T21 186Q21 264 58 333T161 442T305 482Q366 482 410 458T477 390Q511 411 522 431Q501 439 489 457T477 495Q477 527 500 548T557 570ZM292 378Q265 378 240 349T198 267T180 170Q180 133 193 112T228 91Q254 91 278 118T321 198T339 297Q339 335 326 356T292 378Z"
				   horiz-adv-x="546" unicode="ơ"/>
			<glyph d="M812 718Q840 718 859 697T879 645Q879 600 843 558T753 488T649 458L603 237Q583 145 545 90T448 10T289 -15Q155 -15 109 42T64 171Q64 211 75 259L151 603Q153 610 153 622Q153 656 117 666H389Q366 661 349 644T328 603L248 237Q240 203 240 179Q240 140 260 122T328 104Q375 104 408 132T454 216L533 597Q535 606 535 620Q535 637 526 649T502 666H692L660 511Q698 519 732 539T777 579Q756 587 744 605T732 643Q732 675 755 696T812 718Z"
				   horiz-adv-x="760" unicode="Ư"/>
			<glyph d="M655 570Q684 570 703 548T722 497Q722 454 689 414T607 346T504 312L458 101Q455 91 455 82Q455 65 468 56T512 43L287 -15L299 43Q273 18 232 2T146 -14Q94 -14 66 7T38 77Q38 99 45 132L83 321Q91 361 91 381Q91 402 83 412T47 427L41 428L278 486L207 159Q204 144 204 132Q204 91 239 91Q262 91 283 113T312 168L348 321Q358 361 358 385Q358 397 353 405T341 418T311 427L306 428L542 486L516 367Q549 375 578 393T620 431Q600 439 587 457T575 495Q575 527 598 548T655 570Z"
				   horiz-adv-x="644" unicode="ư"/>
			<glyph d="M352 682Q396 682 438 672T539 631L502 453Q472 507 428 536T343 565Q311 565 291 550T271 504Q271 478 296 452T388 382Q504 303 504 202Q504 107 428 45T229 -16Q169 -16 105 2T7 46L53 259Q77 187 128 146T242 105Q277 105 298 123T319 171Q319 195 300 216T207 287Q95 362 95 467Q95 559 167 620T352 682ZM234 -34Q256 -34 271 -49T287 -89Q287 -127 256 -154T183 -183Q180 -183 171 -182Q188 -179 204 -162Q221 -145 227 -122Q207 -118 197 -106T187 -80Q187 -62 200 -48T234 -34Z"
				   horiz-adv-x="531" unicode="Ș"/>
			<glyph d="M269 485Q335 485 376 460T418 393Q418 340 335 304L337 316Q337 346 315 364T262 383Q237 383 220 373T204 347Q204 333 221 317T294 266Q380 210 380 137Q380 93 353 59T275 5T162 -15Q57 -15 -5 24L39 202Q48 150 80 118T157 87Q182 87 199 96T217 122Q217 136 204 148T137 196Q57 249 57 322Q57 371 85 408T163 465T269 485ZM155 -34Q177 -34 192 -49T208 -89Q208 -127 177 -154T104 -183Q101 -183 92 -182Q109 -179 125 -162Q142 -145 148 -122Q128 -118 118 -106T108 -80Q108 -62 121 -48T155 -34Z"
				   horiz-adv-x="420" unicode="ș"/>
			<glyph d="M112 666H698L655 470Q652 521 625 539T536 558H468L365 76Q362 62 362 50Q362 29 372 15T397 0H125Q147 3 165 22T189 72L292 558H221Q154 558 120 537T66 470ZM234 -34Q256 -34 271 -49T287 -89Q287 -127 256 -154T183 -183Q180 -183 171 -182Q188 -179 204 -162Q221 -145 227 -122Q207 -118 197 -106T187 -80Q187 -62 200 -48T234 -34Z"
				   horiz-adv-x="621" unicode="Ț"/>
			<glyph d="M309 614L278 464H407L388 369H258L222 208Q210 156 210 130Q210 101 224 90T268 80Q307 80 361 107Q336 47 285 15T163 -16Q106 -16 72 10T39 88Q39 107 45 131L100 369H19ZM177 -34Q199 -34 214 -49T230 -89Q230 -127 199 -154T126 -183Q123 -183 114 -182Q131 -179 147 -162Q164 -145 170 -122Q150 -118 140 -106T130 -80Q130 -62 143 -48T177 -34Z"
				   horiz-adv-x="380" unicode="ț"/>
			<glyph d="M330 703L439 501L302 570L138 501Z" horiz-adv-x="506" unicode="ˆ"/>
			<glyph d="M166 703L303 634L467 703L275 502Z" horiz-adv-x="506" unicode="ˇ"/>
			<glyph d="M199 701Q211 667 241 646T313 626Q351 626 390 645T461 701Q450 650 424 611T363 550T292 529Q248 529 220 560T193 646Q193 672 199 701Z"
				   horiz-adv-x="506" unicode="˘"/>
			<glyph d="M320 692Q356 692 376 669T397 612Q397 571 369 544T301 517Q265 517 244 539T223 596Q223 636 251 664T320 692Z"
				   horiz-adv-x="506" unicode="˙"/>
			<glyph d="M291 709Q334 709 364 681T394 608Q394 563 365 534T291 505Q247 505 217 533T188 608Q188 652 217 680T291 709ZM291 660Q269 660 254 645T240 608Q240 584 255 569T291 554Q312 554 326 568T340 608Q340 632 326 646T291 660Z"
				   horiz-adv-x="506" unicode="˚"/>
			<glyph d="M246 0H336Q303 -11 283 -33T264 -79Q264 -96 275 -106T310 -117Q337 -117 372 -99Q354 -137 318 -161T245 -185Q210 -185 188 -166T166 -116Q166 -84 188 -52T246 0Z"
				   horiz-adv-x="506" unicode="˛"/>
			<glyph d="M463 697Q479 677 479 648Q479 607 445 572T362 538Q344 538 324 546T286 565T250 584T217 592Q195 592 180 577T157 525Q140 545 140 576Q140 618 171 649T249 681Q271 681 292 673T333 655T370 637T402 629Q429 629 442 646Q456 664 463 697Z"
				   horiz-adv-x="506" unicode="˜"/>
			<glyph d="M388 666H562L302 501ZM179 666H353L94 501Z" horiz-adv-x="506" unicode="˝"/>
			<glyph d="M-81 666H113L120 501Z" horiz-adv-x="0" unicode="̀"/>
			<glyph d="M-41 666H153L-114 501Z" horiz-adv-x="0" unicode="́"/>
			<glyph d="M60 703L169 501L32 570L-132 501Z" horiz-adv-x="0" unicode="̂"/>
			<glyph d="M173 697Q189 677 189 648Q189 607 155 572T72 538Q54 538 34 546T-3 565T-39 584T-73 592Q-95 592 -110 577T-133 525Q-150 545 -150 576Q-150 618 -118 649T-41 681Q-19 681 2 673T43 655T80 637T112 629Q139 629 152 646Q166 664 173 697Z"
				   horiz-adv-x="0" unicode="̃"/>
			<glyph d="M-99 701Q-87 667 -57 646T15 626Q53 626 92 645T163 701Q152 650 126 611T65 550T-6 529Q-50 529 -77 560T-105 646Q-105 672 -99 701Z"
				   horiz-adv-x="0" unicode="̆"/>
			<glyph d="M27 720Q61 720 83 700T105 652Q105 605 57 577Q26 559 16 551T7 535Q7 526 19 521Q9 516 -6 516Q-20 516 -31 524T-43 548Q-43 567 -31 580T-7 601T16 619T26 641Q26 650 20 655T4 661Q-14 661 -34 647T-70 615L-52 704Q-13 720 27 720Z"
				   horiz-adv-x="0" unicode="̉"/>
			<glyph d="M41 718Q69 718 88 697T108 645Q108 612 87 578T28 517T-51 474L-72 523Q-48 531 -25 547T6 579Q-15 588 -27 605T-39 643Q-39 675 -15 696T41 718Z"
				   horiz-adv-x="0" unicode="̛"/>
			<glyph d="M29 -49Q65 -49 85 -71T106 -129Q106 -170 78 -197T10 -224Q-26 -224 -47 -201T-68 -145Q-68 -105 -40 -77T29 -49Z"
				   horiz-adv-x="0" unicode="̣"/>
			<glyph d="M180 470Q219 470 241 445T264 382Q264 337 233 308T159 279Q121 279 98 303T75 365Q75 410 105 440T180 470ZM98 175Q143 175 169 142T195 59Q195 3 160 -53T68 -144T-62 -178L-88 -176Q-23 -154 20 -101T63 5L48 8Q24 13 11 32T-2 77Q-2 118 27 146T98 175Z"
				   horiz-adv-x="261" unicode=";"/>
			<glyph d="M266 681H434L258 491Z" horiz-adv-x="466" unicode="΄"/>
			<glyph d="M479 664Q505 664 520 648T535 606Q535 578 515 557T465 536Q438 536 423 552T408 594Q408 624 428 644T479 664ZM229 664Q255 664 270 648T285 606Q285 578 265 557T215 536Q188 536 173 552T158 594Q158 624 178 644T229 664ZM313 752H481L320 571Z"
				   horiz-adv-x="542" unicode="΅"/>
			<glyph d="M412 666H568L629 103Q633 62 646 34T679 0H418Q435 4 445 23T455 75Q455 84 454 91L448 137H215Q183 78 175 60T168 32Q168 5 192 0H-50Q-8 14 55 113ZM418 462L283 243H437ZM164 667H332L156 477Z"
				   unicode="Ά"/>
			<glyph d="M139 326Q178 326 201 301T224 239Q224 195 193 165T119 136Q81 136 58 160T35 222Q35 266 65 296T139 326Z"
				   horiz-adv-x="261" unicode="·"/>
			<glyph d="M24 667H192L16 477ZM197 666H670L631 472Q626 555 520 555H400L366 395H463Q501 395 526 405T558 431L520 248Q518 269 495 278T441 288H344L308 111H434Q499 111 531 127T594 194L553 0H50Q107 13 123 83L232 587Q235 599 235 613Q235 637 223 650T197 666Z"
				   horiz-adv-x="637" unicode="Έ"/>
			<glyph d="M201 666H476Q424 652 410 591L367 395H587L629 587Q632 608 632 616Q632 630 628 639T617 655T597 666H872Q821 653 807 591L697 76Q693 57 693 50Q693 27 703 15T728 0H455Q476 3 494 22T519 72L564 288H344L300 76Q297 57 297 50Q297 27 307 14T332 0H60Q82 4 99 24T122 72L232 587Q235 603 235 616Q235 656 201 666ZM24 667H192L16 477Z"
				   horiz-adv-x="807" unicode="Ή"/>
			<glyph d="M24 667H192L16 477ZM200 666H475Q423 652 409 591L299 76Q296 64 296 51Q296 28 305 14T329 0H60Q83 4 99 23T122 72L231 587Q235 606 235 613Q235 636 225 649T200 666Z"
				   horiz-adv-x="410" unicode="Ί"/>
			<glyph d="M445 682Q565 682 634 609T704 416Q704 307 650 205Q597 104 505 44T307 -15Q189 -15 119 58T50 254Q50 365 103 464T247 623T445 682ZM425 565Q376 565 334 517T267 391T242 237Q242 177 262 139T328 102Q377 102 420 149T488 272T514 428Q514 488 493 526T425 565ZM24 667H192L16 477Z"
				   horiz-adv-x="701" unicode="Ό"/>
			<glyph d="M193 666H445Q435 662 430 652T425 626Q425 614 430 594L476 408L607 591Q631 624 631 644Q631 661 613 666H838Q801 655 757 594L513 256L473 76Q470 61 470 50Q470 29 479 16T505 0H234Q256 3 273 22T298 72L338 256L252 594Q245 622 229 641T193 666ZM24 667H192L16 477Z"
				   horiz-adv-x="731" unicode="Ύ"/>
			<glyph d="M509 681Q598 681 662 648T761 556T795 420Q795 337 754 255T639 114H660Q714 114 734 119T773 139T822 193L770 0H386Q402 8 439 41T504 108T553 177T586 245T605 317T613 394Q613 472 577 514T478 557Q417 557 368 513T293 391T268 235Q268 159 293 97T359 0H-4L25 193Q41 152 52 138T82 119T153 114H174Q146 153 130 207T115 313Q115 400 164 491T302 632T509 681ZM65 667H233L57 477Z"
				   horiz-adv-x="857" unicode="Ώ"/>
			<glyph d="M289 488L220 167Q215 146 215 128Q215 111 225 100T253 90Q276 90 297 101T333 129Q313 61 271 22T163 -16Q112 -16 80 16T49 99Q49 118 55 144L98 342Q104 369 104 379Q104 421 45 428ZM369 664Q395 664 410 648T425 606Q425 578 405 557T355 536Q328 536 313 552T298 594Q298 624 318 644T369 664ZM119 664Q145 664 160 648T175 606Q175 578 155 557T105 536Q78 536 63 552T48 594Q48 624 68 644T119 664ZM203 752H371L210 571Z"
				   horiz-adv-x="353" unicode="ΐ"/>
			<glyph d="M412 666H568L629 103Q633 62 646 34T679 0H418Q435 4 445 23T455 75Q455 84 454 91L448 137H215Q183 78 175 60T168 32Q168 5 192 0H-50Q-8 14 55 113ZM418 462L283 243H437Z"
				   unicode="Α"/>
			<glyph d="M112 666H412Q506 666 568 620T631 504Q631 444 591 396T492 339Q541 326 571 282T601 187Q601 101 524 50T317 0H-16Q30 15 45 81L150 585Q153 599 153 610Q153 655 112 666ZM266 295L226 102H313Q362 102 391 128T420 194Q420 238 394 266T326 295ZM323 565L288 395H363Q401 395 426 421T452 485Q452 520 433 542T381 565Z"
				   horiz-adv-x="630" unicode="Β"/>
			<glyph d="M120 666H594L555 472Q550 555 444 555H325L226 81Q222 60 222 54Q222 33 232 18T261 0H-25Q-11 2 4 12T31 39T48 83L157 587Q160 602 160 613Q160 655 120 666Z"
				   horiz-adv-x="517" unicode="Γ"/>
			<glyph d="M411 666H567L641 0H-16ZM417 460L200 113H451Z" unicode="Δ"/>
			<glyph d="M132 666H605L566 472Q561 555 455 555H335L301 395H398Q436 395 461 405T493 431L455 248Q453 269 430 278T376 288H279L243 111H369Q434 111 466 127T529 194L488 0H-15Q42 13 58 83L167 587Q170 599 170 613Q170 637 158 650T132 666Z"
				   horiz-adv-x="572" unicode="Ε"/>
			<glyph d="M131 666H660L258 111H399Q459 111 497 129T566 192L518 0H-27L86 158L373 555H222Q174 555 138 539T87 491Z"
				   horiz-adv-x="599" unicode="Ζ"/>
			<glyph d="M125 666H400Q348 652 334 591L291 395H511L553 587Q556 608 556 616Q556 630 552 639T541 655T521 666H796Q745 653 731 591L621 76Q617 57 617 50Q617 27 627 15T652 0H379Q400 3 418 22T443 72L488 288H268L224 76Q221 57 221 50Q221 27 231 14T256 0H-16Q6 4 23 24T46 72L156 587Q159 603 159 616Q159 656 125 666Z"
				   horiz-adv-x="731" unicode="Η"/>
			<glyph d="M311 422Q317 391 379 391H453Q482 391 504 399T535 422L497 247Q497 262 478 271T431 280H353Q329 280 312 274T286 262T273 247ZM466 682Q557 682 625 647T730 550T767 406Q767 295 708 195Q650 96 552 40T339 -15Q253 -15 184 20T78 119T40 264Q40 376 97 472T252 625T466 682ZM451 565Q393 565 342 520T261 399T232 247Q232 179 264 140T357 102Q416 102 465 144Q515 186 546 261T577 418Q577 487 542 526T451 565Z"
				   horiz-adv-x="764" unicode="Θ"/>
			<glyph d="M125 666H400Q348 652 334 591L224 76Q221 64 221 51Q221 28 230 14T254 0H-15Q8 4 24 23T47 72L156 587Q160 606 160 613Q160 636 150 649T125 666Z"
				   horiz-adv-x="335" unicode="Ι"/>
			<glyph d="M121 666H396Q348 654 334 591L285 365L485 571Q535 623 535 648Q535 662 519 666H763Q734 653 710 633T656 585T442 374L561 106Q582 59 611 32T662 0H428L277 331L224 76Q221 57 221 51Q221 29 232 15T257 0H-16Q4 3 22 22T46 72L156 587Q159 600 159 614Q159 657 121 666Z"
				   horiz-adv-x="694" unicode="Κ"/>
			<glyph d="M412 666H568L629 103Q632 72 640 48T659 13T679 0H417Q434 3 444 23T454 75Q454 82 453 90L418 461L199 103Q171 58 171 32Q171 5 195 0H-50Q-34 4 -6 33T55 113Z"
				   unicode="Λ"/>
			<glyph d="M123 666H379L473 301L710 666H971Q942 659 920 627T889 547L797 124Q791 93 791 70Q791 13 829 0H554Q580 7 599 40T629 124L700 444L396 -16L277 445L209 129Q203 104 203 77Q203 12 249 0H-15Q16 6 41 41T77 130L168 550Q173 572 173 594Q173 654 123 666Z"
				   horiz-adv-x="916" unicode="Μ"/>
			<glyph d="M95 666H312L505 299L565 590Q568 607 568 613Q568 633 558 647T527 666H758Q714 653 701 594L573 0H442Q419 99 391 150L256 405L186 71Q184 62 184 51Q184 29 196 15T225 0H-15Q10 4 26 21T50 68L151 537Q158 568 158 574Q158 592 137 625T95 666Z"
				   horiz-adv-x="692" unicode="Ν"/>
			<glyph d="M23 213Q37 156 64 135T146 114H365Q420 114 455 134T530 213L457 0H18ZM160 666H577L538 472Q536 512 509 533T433 555H254Q207 555 174 536T119 476ZM473 422L436 247Q430 280 369 280H208Q145 280 128 247L165 421Q171 391 233 391H390Q418 391 438 398T473 422Z"
				   horiz-adv-x="544" unicode="Ξ"/>
			<glyph d="M435 682Q555 682 624 609T694 416Q694 307 640 205Q587 104 495 44T297 -15Q179 -15 109 58T40 254Q40 365 93 464T237 623T435 682ZM415 565Q366 565 324 517T257 391T232 237Q232 177 252 139T318 102Q367 102 410 149T478 272T504 428Q504 488 483 526T415 565Z"
				   horiz-adv-x="691" unicode="Ο"/>
			<glyph d="M125 666H781Q729 651 715 586L610 95Q602 59 602 48Q602 29 612 16T636 0H365Q394 7 408 28T432 92L531 555H326L227 92Q222 68 222 50Q222 28 230 16T255 0H-14Q12 7 27 29T50 92L147 545Q159 598 159 615Q159 658 125 666Z"
				   horiz-adv-x="716" unicode="Π"/>
			<glyph d="M123 666H414Q518 666 578 615T638 483Q638 420 603 364T506 275T363 242Q306 242 261 255L223 76Q220 64 220 51Q220 29 230 15T256 0H-16Q4 3 22 22T46 72L157 587Q161 606 161 614Q161 657 123 666ZM329 565L282 356Q304 348 333 348Q388 348 424 386T461 479Q461 514 442 539T382 565Z"
				   horiz-adv-x="621" unicode="Ρ"/>
			<glyph d="M100 666H598L554 460Q550 498 537 517T502 546T447 555H327L414 350L205 124H366Q408 124 435 131T482 153T530 203L460 0H-43L248 317Z"
				   horiz-adv-x="565" unicode="Σ"/>
			<glyph d="M112 666H698L655 470Q652 521 625 539T536 558H468L365 76Q362 62 362 50Q362 29 372 15T397 0H125Q147 3 165 22T189 72L292 558H221Q154 558 120 537T66 470Z"
				   horiz-adv-x="621" unicode="Τ"/>
			<glyph d="M79 666H331Q321 662 316 652T311 626Q311 614 316 594L362 408L493 591Q517 624 517 644Q517 661 499 666H724Q687 655 643 594L399 256L359 76Q356 61 356 50Q356 29 365 16T391 0H120Q142 3 159 22T184 72L224 256L138 594Q131 622 115 641T79 666Z"
				   horiz-adv-x="617" unicode="Υ"/>
			<glyph d="M365 682H613Q600 679 587 669T564 642T548 594Q660 579 722 521T785 377Q785 297 742 233T619 128T438 76Q433 51 433 36Q433 14 442 0T464 -16H217Q266 -4 280 75Q173 90 109 149T45 296Q45 374 88 438T211 542T390 593Q395 619 395 629Q395 650 386 663T365 682ZM524 479L462 187Q503 193 538 218T593 282T613 366Q613 410 589 439T524 479ZM366 481Q301 468 260 420T219 305Q219 259 242 228T304 188Z"
				   horiz-adv-x="789" unicode="Φ"/>
			<glyph d="M92 666H351Q337 661 331 652T325 630Q325 616 334 594L383 473L488 594Q516 627 516 645Q516 660 497 666H739Q700 653 651 594L436 345L542 84Q556 48 572 26T603 0H346Q369 6 369 37Q369 55 357 84L310 201L210 84Q176 43 176 22Q176 7 190 0H-49Q-26 5 43 84L257 330L150 594Q139 622 123 641T92 666Z"
				   horiz-adv-x="647" unicode="Χ"/>
			<glyph d="M101 666H349Q328 660 311 633T286 567L264 467Q256 432 257 415Q257 370 281 345T351 316L405 570Q409 590 409 609Q409 632 401 647T380 666H628Q605 659 588 632T563 568L509 317Q627 326 660 472L681 567Q687 594 687 612Q687 632 680 647T660 666H910Q857 648 839 565L816 457Q764 215 484 197L463 96Q458 74 458 57Q458 33 467 17T491 0H238Q250 2 263 13T287 45T305 96L326 198Q215 211 157 264T100 408Q100 444 108 480L126 565Q131 586 131 608Q131 654 101 666Z"
				   horiz-adv-x="827" unicode="Ψ"/>
			<glyph d="M509 681Q598 681 662 648T761 556T795 420Q795 337 754 255T639 114H660Q714 114 734 119T773 139T822 193L770 0H386Q402 8 439 41T504 108T553 177T586 245T605 317T613 394Q613 472 577 514T478 557Q417 557 368 513T293 391T268 235Q268 159 293 97T359 0H-4L25 193Q41 152 52 138T82 119T153 114H174Q146 153 130 207T115 313Q115 400 164 491T302 632T509 681Z"
				   horiz-adv-x="857" unicode="Ω"/>
			<glyph d="M125 666H400Q348 652 334 591L224 76Q221 64 221 51Q221 28 230 14T254 0H-15Q8 4 24 23T47 72L156 587Q160 606 160 613Q160 636 150 649T125 666ZM399 854Q427 854 444 836T462 788Q462 755 439 732T383 710Q354 710 336 728T319 775Q319 808 342 831T399 854ZM189 854Q217 854 234 836T252 788Q252 755 229 732T173 710Q144 710 126 728T109 775Q109 808 132 831T189 854Z"
				   horiz-adv-x="335" unicode="Ϊ"/>
			<glyph d="M79 666H331Q321 662 316 652T311 626Q311 614 316 594L362 408L493 591Q517 624 517 644Q517 661 499 666H724Q687 655 643 594L399 256L359 76Q356 61 356 50Q356 29 365 16T391 0H120Q142 3 159 22T184 72L224 256L138 594Q131 622 115 641T79 666ZM540 854Q568 854 585 836T603 788Q603 755 580 732T524 710Q495 710 477 728T460 775Q460 808 483 831T540 854ZM330 854Q358 854 375 836T393 788Q393 755 370 732T314 710Q285 710 267 728T250 775Q250 808 273 831T330 854Z"
				   horiz-adv-x="617" unicode="Ϋ"/>
			<glyph d="M489 494L593 404Q541 381 489 268L467 220L463 158Q463 117 483 91T535 65L410 -21Q379 -9 356 19T329 81Q295 37 251 11T160 -14Q121 -14 89 6T39 62T21 149Q21 234 58 313T157 438T283 485Q329 485 358 454T395 369Q413 413 438 447T489 494ZM295 386Q271 386 246 353T204 266T187 166Q187 136 199 116T234 96Q259 96 285 127Q312 159 328 204Q335 265 335 310Q335 352 325 369T295 386ZM323 681H491L315 491Z"
				   horiz-adv-x="563" unicode="ά"/>
			<glyph d="M274 485Q347 485 389 460T432 395Q432 345 358 315Q357 349 335 370T275 391Q237 391 215 374T194 329Q194 307 212 292T268 278H320L301 192H250Q207 192 180 177T153 135Q153 114 173 101T229 88Q271 88 316 105T391 148Q367 74 307 29T167 -16Q90 -16 41 20T-7 113Q-7 161 29 196T128 244Q92 259 73 284T54 342Q54 403 116 444T274 485ZM256 681H424L248 491Z"
				   horiz-adv-x="428" unicode="έ"/>
			<glyph d="M189 494Q216 483 229 462T245 419Q319 485 407 485Q514 485 514 394Q514 366 508 339L421 -72Q415 -99 415 -122Q415 -165 445 -181H239L346 312Q349 324 349 335Q349 355 339 367T312 380Q290 380 268 358T239 303L173 0H15L88 334Q93 356 93 372Q93 397 78 411T37 428ZM305 681H473L297 491Z"
				   horiz-adv-x="547" unicode="ή"/>
			<glyph d="M289 488L220 167Q215 146 215 128Q215 111 225 100T253 90Q276 90 297 101T333 129Q313 61 271 22T163 -16Q112 -16 80 16T49 99Q49 118 55 144L98 342Q104 369 104 379Q104 421 45 428ZM188 681H356L180 491Z"
				   horiz-adv-x="353" unicode="ί"/>
			<glyph d="M187 494Q216 483 232 454T248 384Q248 360 242 330L212 190Q207 167 207 149Q207 121 220 106T257 91Q295 91 323 129T369 235T387 353Q387 397 374 422T342 448Q389 493 450 493Q495 493 522 457T550 358Q550 299 527 226T462 99T360 16T235 -12Q150 -12 99 29T49 143Q49 167 55 193L84 324Q91 354 91 370Q91 423 35 428ZM478 664Q504 664 519 648T534 606Q534 578 514 557T464 536Q437 536 422 552T407 594Q407 624 427 644T478 664ZM228 664Q254 664 269 648T284 606Q284 578 264 557T214 536Q187 536 172 552T157 594Q157 624 177 644T228 664ZM312 752H480L319 571Z"
				   horiz-adv-x="567" unicode="ΰ"/>
			<glyph d="M489 494L593 404Q541 381 489 268L467 220L463 158Q463 117 483 91T535 65L410 -21Q379 -9 356 19T329 81Q295 37 251 11T160 -14Q121 -14 89 6T39 62T21 149Q21 234 58 313T157 438T283 485Q329 485 358 454T395 369Q413 413 438 447T489 494ZM295 386Q271 386 246 353T204 266T187 166Q187 136 199 116T234 96Q259 96 285 127Q312 159 328 204Q335 265 335 310Q335 352 325 369T295 386Z"
				   horiz-adv-x="563" unicode="α"/>
			<glyph d="M405 692Q490 692 542 650T595 544Q595 497 563 452T454 356Q492 331 515 291T539 208Q539 145 506 94T414 15T286 -13Q259 -13 228 -5T182 17L177 -7Q139 -189 -14 -189Q-94 -189 -133 -125Q-109 -129 -96 -129Q-51 -129 -24 -101T16 -7L112 457Q136 571 212 631T405 692ZM384 596Q345 596 316 562T275 472L215 176Q212 163 212 151Q212 122 229 107T275 93Q318 93 346 123T375 201Q375 233 356 263T285 332L342 378Q395 419 418 456T441 532Q441 561 426 578T384 596Z"
				   horiz-adv-x="571" unicode="β"/>
			<glyph d="M440 490Q473 490 493 470T513 417Q513 378 467 313L344 138Q309 88 289 37T250 -115L238 -181H74Q94 -87 142 12Q130 170 108 275T69 407T19 437L217 488Q234 440 249 356T265 210L332 308Q352 338 363 364T375 405Q375 417 369 424T356 432Q352 432 347 431Q360 458 384 474T440 490Z"
				   horiz-adv-x="519" unicode="γ"/>
			<glyph d="M413 698Q487 698 533 666T580 585Q580 544 547 516Q514 489 452 484Q462 502 462 522Q462 555 440 575T384 596Q350 596 325 578T301 537Q301 509 320 483T391 421Q515 329 515 225Q515 118 438 53T234 -12Q171 -12 122 10T47 72T21 162Q21 323 213 399Q186 421 170 453T154 521Q154 572 187 613T279 676T413 698ZM275 342Q179 280 179 184Q179 140 198 115T251 91Q282 91 306 107T343 153T356 216Q356 251 340 276T296 325Z"
				   horiz-adv-x="548" unicode="δ"/>
			<glyph d="M274 485Q347 485 389 460T432 395Q432 345 358 315Q357 349 335 370T275 391Q237 391 215 374T194 329Q194 307 212 292T268 278H320L301 192H250Q207 192 180 177T153 135Q153 114 173 101T229 88Q271 88 316 105T391 148Q367 74 307 29T167 -16Q90 -16 41 20T-7 113Q-7 161 29 196T128 244Q92 259 73 284T54 342Q54 403 116 444T274 485Z"
				   horiz-adv-x="428" unicode="ε"/>
			<glyph d="M209 693Q253 693 339 686T479 680Q528 680 565 686L288 382Q229 317 204 272T180 190Q180 139 238 107Q317 63 343 31T369 -40Q369 -104 317 -147T187 -195Q215 -176 228 -154T242 -104Q242 -80 225 -61T143 -9Q80 23 50 63T21 158Q21 205 43 248T117 344Q154 382 326 568L241 571Q190 571 157 551T107 490Q81 525 81 573Q81 625 117 659T209 693Z"
				   horiz-adv-x="444" unicode="ζ"/>
			<glyph d="M189 494Q216 483 229 462T245 419Q319 485 407 485Q514 485 514 394Q514 366 508 339L421 -72Q415 -99 415 -122Q415 -165 445 -181H239L346 312Q349 324 349 335Q349 355 339 367T312 380Q290 380 268 358T239 303L173 0H15L88 334Q93 356 93 372Q93 397 78 411T37 428Z"
				   horiz-adv-x="547" unicode="η"/>
			<glyph d="M356 694Q451 694 505 626T559 444Q559 314 515 208T396 45T226 -12Q143 -12 95 26T47 131Q47 148 55 185Q58 199 60 209T63 233Q63 272 25 282L173 346Q194 335 206 312T218 262Q218 234 209 192Q205 174 202 160T199 129Q199 114 208 102T238 91Q291 91 335 163T396 353Q355 342 314 342Q233 342 181 387T130 502Q130 552 159 597T240 668T356 694ZM339 590Q313 590 294 567T275 515Q275 479 296 459T354 439Q382 439 402 445Q403 456 403 468Q403 528 386 559T339 590Z"
				   horiz-adv-x="561" unicode="θ"/>
			<glyph d="M289 488L220 167Q215 146 215 128Q215 111 225 100T253 90Q276 90 297 101T333 129Q313 61 271 22T163 -16Q112 -16 80 16T49 99Q49 118 55 144L98 342Q104 369 104 379Q104 421 45 428Z"
				   horiz-adv-x="353" unicode="ι"/>
			<glyph d="M279 490L223 232Q337 381 368 415T428 465T491 481Q535 481 561 453T587 380Q587 366 584 351Q579 358 563 364T530 371Q510 371 482 355T422 308T360 242L444 108Q472 63 497 44T559 25Q538 9 501 -1T431 -12Q392 -12 365 0T312 45T249 146L195 97L174 0H14L91 343Q98 372 98 384Q98 402 82 413T38 428Z"
				   horiz-adv-x="585" unicode="κ"/>
			<glyph d="M259 695Q296 695 321 672T363 602T400 435L454 94Q459 63 467 43T484 13T502 0H347L314 252L161 0H-40Q-23 5 -1 29T45 89L279 452L274 480Q263 535 233 563T150 591Q162 640 191 667T259 695Z"
				   horiz-adv-x="541" unicode="λ"/>
			<glyph d="M114 468H273L207 159Q204 144 204 132Q204 90 240 90Q262 90 284 110T313 162L380 468H539L463 127Q460 111 460 101Q460 85 471 73T503 60L369 -21Q343 -12 327 8T308 52Q256 -15 213 -15Q189 -15 175 -5L136 -181H-60Q-41 -177 -25 -152T-1 -88Z"
				   horiz-adv-x="557" unicode="μ"/>
			<glyph d="M448 490Q480 490 500 470T520 418Q520 374 469 306L337 117Q280 36 261 0H149L91 372Q86 403 67 416T19 429L235 485L272 199L343 308Q360 334 371 361T382 405Q382 416 376 424T362 432Q357 432 354 431Q366 458 391 474T448 490Z"
				   horiz-adv-x="526" unicode="ν"/>
			<glyph d="M366 698Q441 698 484 667T528 586Q528 543 491 514T399 484Q409 505 409 524Q409 557 388 576T339 596Q296 596 269 565T242 488Q242 437 272 408T360 379H419L399 282H332Q266 282 223 255T180 182Q180 156 195 137T246 102Q312 70 340 38T369 -39Q369 -82 345 -117T278 -172T186 -195Q213 -179 227 -155T242 -106Q242 -80 224 -60T165 -21Q21 44 21 162Q21 229 69 277T202 345Q153 366 127 401T102 483Q102 544 136 593T232 670T366 698Z"
				   horiz-adv-x="466" unicode="ξ"/>
			<glyph d="M305 482Q396 482 449 428T502 286Q502 209 462 137T358 26T216 -12Q156 -12 112 13T44 83T21 186Q21 264 58 333T161 442T305 482ZM292 378Q265 378 240 349T198 267T180 170Q180 133 193 112T228 91Q254 91 278 117T321 197T339 297Q339 335 326 356T292 378Z"
				   horiz-adv-x="523" unicode="ο"/>
			<glyph d="M686 480L663 373Q633 363 587 363Q567 363 539 364L496 163Q492 141 492 131Q492 90 533 90Q553 90 575 102T609 129Q590 59 547 21T442 -16Q390 -16 358 15T326 98Q326 107 327 119T381 369L299 373L261 195Q241 101 209 51T123 -21L9 71Q74 93 118 147T180 277L201 374H187Q142 374 106 347T53 275Q45 286 41 303T37 336Q37 402 82 438T208 475Q276 475 405 468T594 462Q648 462 686 480Z"
				   horiz-adv-x="648" unicode="π"/>
			<glyph d="M332 493Q420 493 474 438T529 292Q529 217 493 148T401 39T277 -1Q243 -1 215 15T174 57Q165 16 165 -1Q165 -21 180 -33T247 -58Q325 -78 357 -101T389 -159Q389 -197 348 -223T248 -250Q272 -233 272 -215Q272 -200 251 -189T168 -161Q86 -139 54 -102T22 -5Q22 19 30 63T64 241T157 433T332 493ZM314 389Q279 389 252 349T213 239T200 152Q200 100 253 100Q284 100 310 128T351 204T367 303Q367 389 314 389Z"
				   horiz-adv-x="549" unicode="ρ"/>
			<glyph d="M325 484Q381 484 411 460T442 394Q442 362 423 329T372 277Q341 257 307 257Q321 275 321 312Q321 342 309 360T279 379Q254 379 232 354T196 283T181 198Q181 166 194 143T237 104Q307 66 335 33T363 -39Q363 -103 311 -147T181 -195Q236 -158 236 -104Q236 -80 218 -61T147 -14Q81 20 50 63T20 165Q20 246 61 320T172 439T325 484Z"
				   horiz-adv-x="438" unicode="ς"/>
			<glyph d="M596 478L573 371Q562 368 533 366T483 364H465Q490 317 490 253Q490 185 453 123T353 24T216 -12Q155 -12 111 13T44 84T21 188Q21 266 59 331T166 434T319 472Q341 472 404 467T499 463Q561 463 596 478ZM303 371Q270 371 242 345T197 270T180 169Q180 133 192 112T227 91Q257 91 282 121T324 207T341 320Q341 351 337 369Q319 371 303 371Z"
				   horiz-adv-x="558" unicode="σ"/>
			<glyph d="M522 480L499 373Q469 363 419 363Q373 363 354 365L320 208Q315 187 311 166T307 130Q307 101 320 90T364 80Q387 80 407 88T447 107Q397 -16 259 -16Q203 -16 171 13T140 94Q140 114 147 142L197 371H184Q140 371 106 346T54 275Q38 301 38 337Q38 401 81 436T204 472Q264 471 325 466T435 462Q488 462 522 480Z"
				   horiz-adv-x="484" unicode="τ"/>
			<glyph d="M187 494Q216 483 232 454T248 384Q248 360 242 330L212 190Q207 167 207 149Q207 121 220 106T257 91Q295 91 323 129T369 235T387 353Q387 397 374 422T342 448Q389 493 450 493Q495 493 522 457T550 358Q550 299 527 226T462 99T360 16T235 -12Q150 -12 99 29T49 143Q49 167 55 193L84 324Q91 354 91 370Q91 423 35 428Z"
				   horiz-adv-x="567" unicode="υ"/>
			<glyph d="M234 485Q265 485 291 471T323 440Q284 427 252 393T202 309T185 203Q185 156 204 127T263 85L301 260Q326 374 386 429T546 485Q630 485 682 434T734 299Q734 208 692 138T574 28T395 -21L364 -188H205L242 -17Q142 -1 85 60T29 213Q29 293 56 354T130 450T234 485ZM530 381Q503 381 484 352T452 254L416 84Q462 94 498 123T554 199T575 304Q575 342 562 361T530 381Z"
				   horiz-adv-x="754" unicode="φ"/>
			<glyph d="M447 490Q479 490 499 470T519 419Q519 394 502 360T445 275T323 123L370 -57Q394 -149 442 -151L246 -199L192 13L116 -92Q104 -110 96 -124T88 -152Q88 -173 116 -181H-81L157 138L102 348Q90 393 72 410T18 429L231 485L288 242L341 313Q381 369 381 404Q381 417 375 424T362 432Q357 432 353 431Q367 460 391 475T447 490Z"
				   horiz-adv-x="525" unicode="χ"/>
			<glyph d="M350 666H550L430 92Q499 120 538 193T578 358Q578 437 544 448Q562 470 585 481T643 493Q687 493 713 457T740 358Q740 266 696 186T575 52T409 -16L376 -188H217L254 -16Q162 -2 108 48T55 167Q55 193 62 225L83 324Q90 354 90 370Q90 423 34 428L185 494Q213 483 229 454T246 384Q246 360 240 330L218 229Q213 205 213 188Q213 146 229 123T276 88L377 557Q384 594 384 609Q384 634 375 647T350 666Z"
				   horiz-adv-x="757" unicode="ψ"/>
			<glyph d="M632 489Q687 489 719 450T752 342Q752 289 731 222T670 101T579 17T474 -12Q387 -12 343 53Q312 20 277 4T195 -12Q147 -12 109 13T50 86T29 196Q29 245 42 301T84 400T152 464T237 486Q268 486 293 472T325 440Q294 429 267 405T221 346T192 264T183 184Q183 91 228 91Q251 91 268 115T294 183L319 300H468L443 180Q438 156 438 139Q439 91 477 91Q505 91 530 126T573 225T591 338Q591 372 574 403T535 444Q551 464 578 476T632 489Z"
				   horiz-adv-x="769" unicode="ω"/>
			<glyph d="M289 488L220 167Q215 146 215 128Q215 111 225 100T253 90Q276 90 297 101T333 129Q313 61 271 22T163 -16Q112 -16 80 16T49 99Q49 118 55 144L98 342Q104 369 104 379Q104 421 45 428ZM347 680Q375 680 392 662T410 614Q410 581 387 558T331 536Q302 536 284 554T267 601Q267 634 290 657T347 680ZM137 680Q165 680 182 662T200 614Q200 581 177 558T121 536Q92 536 74 554T57 601Q57 634 80 657T137 680Z"
				   horiz-adv-x="353" unicode="ϊ"/>
			<glyph d="M187 494Q216 483 232 454T248 384Q248 360 242 330L212 190Q207 167 207 149Q207 121 220 106T257 91Q295 91 323 129T369 235T387 353Q387 397 374 422T342 448Q389 493 450 493Q495 493 522 457T550 358Q550 299 527 226T462 99T360 16T235 -12Q150 -12 99 29T49 143Q49 167 55 193L84 324Q91 354 91 370Q91 423 35 428ZM456 680Q484 680 501 662T519 614Q519 581 496 558T440 536Q411 536 393 554T376 601Q376 634 399 657T456 680ZM246 680Q274 680 291 662T309 614Q309 581 286 558T230 536Q201 536 183 554T166 601Q166 634 189 657T246 680Z"
				   horiz-adv-x="567" unicode="ϋ"/>
			<glyph d="M305 482Q396 482 449 428T502 286Q502 209 462 137T358 26T216 -12Q156 -12 112 13T44 83T21 186Q21 264 58 333T161 442T305 482ZM292 378Q265 378 240 349T198 267T180 170Q180 133 193 112T228 91Q254 91 278 117T321 197T339 297Q339 335 326 356T292 378ZM308 681H476L300 491Z"
				   horiz-adv-x="523" unicode="ό"/>
			<glyph d="M187 494Q216 483 232 454T248 384Q248 360 242 330L212 190Q207 167 207 149Q207 121 220 106T257 91Q295 91 323 129T369 235T387 353Q387 397 374 422T342 448Q389 493 450 493Q495 493 522 457T550 358Q550 299 527 226T462 99T360 16T235 -12Q150 -12 99 29T49 143Q49 167 55 193L84 324Q91 354 91 370Q91 423 35 428ZM311 681H479L303 491Z"
				   horiz-adv-x="567" unicode="ύ"/>
			<glyph d="M632 489Q687 489 719 450T752 342Q752 289 731 222T670 101T579 17T474 -12Q387 -12 343 53Q312 20 277 4T195 -12Q147 -12 109 13T50 86T29 196Q29 245 42 301T84 400T152 464T237 486Q268 486 293 472T325 440Q294 429 267 405T221 346T192 264T183 184Q183 91 228 91Q251 91 268 115T294 183L319 300H468L443 180Q438 156 438 139Q439 91 477 91Q505 91 530 126T573 225T591 338Q591 372 574 403T535 444Q551 464 578 476T632 489ZM418 681H586L410 491Z"
				   horiz-adv-x="769" unicode="ώ"/>
			<glyph d="M132 666H605L566 472Q561 555 455 555H335L301 395H398Q436 395 461 405T493 431L455 248Q453 269 430 278T376 288H279L243 111H369Q434 111 466 127T529 194L488 0H-15Q42 13 58 83L167 587Q170 599 170 613Q170 637 158 650T132 666ZM263 860H457L464 695Z"
				   horiz-adv-x="572" unicode="Ѐ"/>
			<glyph d="M132 666H605L566 472Q561 555 455 555H335L301 395H398Q436 395 461 405T493 431L455 248Q453 269 430 278T376 288H279L243 111H369Q434 111 466 127T529 194L488 0H-15Q42 13 58 83L167 587Q170 599 170 613Q170 637 158 650T132 666ZM506 854Q534 854 551 836T569 788Q569 755 546 732T490 710Q461 710 443 728T426 775Q426 808 449 831T506 854ZM296 854Q324 854 341 836T359 788Q359 755 336 732T280 710Q251 710 233 728T216 775Q216 808 239 831T296 854Z"
				   horiz-adv-x="572" unicode="Ё"/>
			<glyph d="M112 666H707L664 470Q661 521 634 539T545 558H468L436 408Q504 431 569 431Q654 431 705 380T756 247Q756 164 714 98T599 -4T434 -40Q496 -11 535 63T574 218Q574 268 550 294T489 320Q446 320 415 309L365 76Q362 62 362 50Q362 28 371 15T395 0H126Q148 3 165 22T189 72L292 558H221Q154 558 120 537T66 470Z"
				   horiz-adv-x="770" unicode="Ђ"/>
			<glyph d="M120 666H594L555 472Q550 555 444 555H325L226 81Q222 60 222 54Q222 33 232 18T261 0H-25Q-11 2 4 12T31 39T48 83L157 587Q160 602 160 613Q160 655 120 666ZM386 860H580L313 695Z"
				   horiz-adv-x="517" unicode="Ѓ"/>
			<glyph d="M460 679Q502 679 543 669T609 643L568 453Q552 506 520 535T445 565Q387 565 336 517T254 391H404Q437 391 461 401T493 427L455 244Q454 262 434 273T384 284H229Q228 270 228 255Q228 182 261 142T355 102Q403 102 446 125T519 189L488 48Q455 17 402 1T290 -15Q218 -15 160 18T71 111T40 249Q40 361 98 461T253 620T460 679Z"
				   horiz-adv-x="558" unicode="Є"/>
			<glyph d="M352 682Q396 682 438 672T539 631L502 453Q472 507 428 536T343 565Q311 565 291 550T271 504Q271 478 296 452T388 382Q504 303 504 202Q504 107 428 45T229 -16Q169 -16 105 2T7 46L53 259Q77 187 128 146T242 105Q277 105 298 123T319 171Q319 195 300 216T207 287Q95 362 95 467Q95 559 167 620T352 682Z"
				   horiz-adv-x="531" unicode="Ѕ"/>
			<glyph d="M125 666H400Q348 652 334 591L224 76Q221 64 221 51Q221 28 230 14T254 0H-15Q8 4 24 23T47 72L156 587Q160 606 160 613Q160 636 150 649T125 666Z"
				   horiz-adv-x="335" unicode="І"/>
			<glyph d="M125 666H400Q348 652 334 591L224 76Q221 64 221 51Q221 28 230 14T254 0H-15Q8 4 24 23T47 72L156 587Q160 606 160 613Q160 636 150 649T125 666ZM399 854Q427 854 444 836T462 788Q462 755 439 732T383 710Q354 710 336 728T319 775Q319 808 342 831T399 854ZM189 854Q217 854 234 836T252 788Q252 755 229 732T173 710Q144 710 126 728T109 775Q109 808 132 831T189 854Z"
				   horiz-adv-x="335" unicode="Ї"/>
			<glyph d="M138 666H415Q384 657 368 634T345 571L248 116Q227 16 180 -35T51 -87Q4 -87 -32 -69T-84 -21Q-66 -26 -47 -26Q41 -25 76 138L164 553Q173 590 173 613Q173 659 138 666Z"
				   horiz-adv-x="349" unicode="Ј"/>
			<glyph d="M398 666H555L582 402H701Q807 402 866 358T926 240Q926 172 887 116T780 30T631 0H409Q417 1 426 10T440 35T445 75Q445 82 444 90L407 461L198 103Q170 54 170 32Q170 4 193 0H-50Q-33 3 -4 33T54 113ZM594 293L613 110H625Q678 110 713 142T749 226Q749 255 728 274T665 293Z"
				   horiz-adv-x="935" unicode="Љ"/>
			<glyph d="M125 666H397Q374 661 356 640T332 591L289 395H497L539 587Q542 604 542 616Q542 656 507 666H779Q756 661 738 640T715 591L674 402H732Q837 402 897 358T957 240Q957 172 918 116T812 30T662 0H366Q387 3 405 22T429 72L474 288H266L222 76Q219 61 219 50Q219 28 229 15T252 0H-14Q5 3 22 22T46 72L156 587Q159 603 159 616Q159 656 125 666ZM651 293L612 110H656Q709 110 744 142T780 226Q780 255 759 274T696 293Z"
				   horiz-adv-x="973" unicode="Њ"/>
			<glyph d="M112 666H708L665 470Q662 521 635 539T546 558H468L435 406Q514 432 576 432Q662 432 709 392T757 276Q757 247 749 211Q733 137 725 98T718 51Q718 10 750 0H479Q498 6 509 16T531 46T547 93L570 200Q578 235 578 249Q578 321 499 321Q457 321 414 306L365 76Q362 62 362 50Q362 28 372 15T395 0H126Q146 2 164 22T189 72L292 558H221Q155 558 120 537T66 470Z"
				   horiz-adv-x="813" unicode="Ћ"/>
			<glyph d="M121 666H396Q348 654 334 591L285 365L485 571Q535 623 535 648Q535 662 519 666H763Q734 653 710 633T656 585T442 374L561 106Q582 59 611 32T662 0H428L277 331L224 76Q221 57 221 51Q221 29 232 15T257 0H-16Q4 3 22 22T46 72L156 587Q159 600 159 614Q159 657 121 666ZM475 860H669L402 695Z"
				   horiz-adv-x="694" unicode="Ќ"/>
			<glyph d="M123 666H399Q377 660 364 646T341 608T321 544L263 274L549 554Q556 585 556 608Q556 633 548 646T522 666H796Q771 657 760 645T740 613T725 563L624 90Q617 60 617 49Q617 29 626 16T652 0H381Q403 5 415 17T436 54T456 122L514 392L229 113Q219 70 219 51Q219 29 226 17T255 0H-16Q8 4 25 26T48 81L147 544Q158 598 158 619Q158 638 151 648T123 666ZM303 860H497L504 695Z"
				   horiz-adv-x="731" unicode="Ѝ"/>
			<glyph d="M86 666H350Q319 659 319 621Q319 604 326 583L405 340L562 571Q586 606 586 631Q586 643 578 652T559 666H812Q779 661 702 551L418 146Q354 55 294 15T160 -25Q128 -25 100 -18T58 0L98 180Q120 113 183 113Q199 113 215 119T246 138T280 179L142 591Q131 624 118 642T86 666ZM596 891L652 854Q612 779 560 741T451 703Q396 703 363 727T330 790Q330 824 357 847T427 871Q424 853 424 838Q424 811 436 795T472 780Q498 780 526 803T596 891Z"
				   horiz-adv-x="715" unicode="Ў"/>
			<glyph d="M127 666H397Q369 659 354 637T330 574L231 114H437L535 574Q540 598 540 616Q540 638 532 650T507 666H776Q755 659 745 649T726 620T712 574L615 121Q603 66 603 51Q603 30 612 16T636 0H463Q433 0 399 -23T331 -93T280 -181H272Q266 -96 236 -48T157 0H-19Q32 14 47 80L152 571Q160 610 160 618Q160 636 151 648T127 666Z"
				   horiz-adv-x="716" unicode="Џ"/>
			<glyph d="M412 666H568L629 103Q633 62 646 34T679 0H418Q435 4 445 23T455 75Q455 84 454 91L448 137H215Q183 78 175 60T168 32Q168 5 192 0H-50Q-8 14 55 113ZM418 462L283 243H437Z"
				   unicode="А"/>
			<glyph d="M125 666H619L580 472Q578 514 550 534T469 555H325L294 411H354Q458 411 518 366T579 246Q579 176 540 119T434 31T286 0H-17Q12 6 27 29T53 104L149 554Q159 600 159 615Q159 636 152 647T125 666ZM270 302L231 110H280Q332 110 367 144T402 231Q402 262 381 282T318 302Z"
				   horiz-adv-x="595" unicode="Б"/>
			<glyph d="M112 666H412Q506 666 568 620T631 504Q631 444 591 396T492 339Q541 326 571 282T601 187Q601 101 524 50T317 0H-16Q30 15 45 81L150 585Q153 599 153 610Q153 655 112 666ZM266 295L226 102H313Q362 102 391 128T420 194Q420 238 394 266T326 295ZM323 565L288 395H363Q401 395 426 421T452 485Q452 520 433 542T381 565Z"
				   horiz-adv-x="630" unicode="В"/>
			<glyph d="M120 666H594L555 472Q550 555 444 555H325L226 81Q222 60 222 54Q222 33 232 18T261 0H-25Q-11 2 4 12T31 39T48 83L157 587Q160 602 160 613Q160 655 120 666Z"
				   horiz-adv-x="517" unicode="Г"/>
			<glyph d="M412 666H568L622 138Q624 127 630 120T653 114H684L621 -181H612Q610 -133 591 -88T543 -22T480 0H166Q130 0 91 -22T14 -91T-43 -181H-52L10 114H40Q53 114 61 118T78 136ZM418 460L206 113H448Z"
				   horiz-adv-x="727" unicode="Д"/>
			<glyph d="M132 666H605L566 472Q561 555 455 555H335L301 395H398Q436 395 461 405T493 431L455 248Q453 269 430 278T376 288H279L243 111H369Q434 111 466 127T529 194L488 0H-15Q42 13 58 83L167 587Q170 599 170 613Q170 637 158 650T132 666Z"
				   horiz-adv-x="572" unicode="Е"/>
			<glyph d="M110 666H365Q334 658 334 629Q334 594 368 537L468 370L505 545Q512 579 512 600Q512 653 480 666H738Q714 660 694 626T664 543L627 370L794 539Q832 577 849 603T867 645Q867 660 849 666H1116Q1088 659 1040 624T944 540L759 357L879 130Q907 78 934 43T980 0H759L612 298L574 121Q565 78 565 61Q565 36 574 19T596 0H339Q352 3 367 17T394 56T415 120L453 298L186 0H-57Q-11 16 98 130L331 378L232 542Q203 591 169 625T110 666Z"
				   horiz-adv-x="1027" unicode="Ж"/>
			<glyph d="M371 682Q458 682 515 638T572 526Q572 458 528 410T397 339Q451 326 485 289T519 202Q519 137 480 88T371 12T216 -15Q63 -15 2 38L43 228Q59 169 103 135T211 102Q270 102 304 129T339 198Q339 237 294 258T168 279L192 391H250Q319 391 356 417T393 494Q393 526 372 545T315 565Q260 565 202 528T108 435L152 643Q243 682 371 682Z"
				   horiz-adv-x="563" unicode="З"/>
			<glyph d="M123 666H399Q377 660 364 646T341 608T321 544L263 274L549 554Q556 585 556 608Q556 633 548 646T522 666H796Q771 657 760 645T740 613T725 563L624 90Q617 60 617 49Q617 29 626 16T652 0H381Q403 5 415 17T436 54T456 122L514 392L229 113Q219 70 219 51Q219 29 226 17T255 0H-16Q8 4 25 26T48 81L147 544Q158 598 158 619Q158 638 151 648T123 666Z"
				   horiz-adv-x="731" unicode="И"/>
			<glyph d="M123 666H399Q377 660 364 646T341 608T321 544L263 274L549 554Q556 585 556 608Q556 633 548 646T522 666H796Q771 657 760 645T740 613T725 563L624 90Q617 60 617 49Q617 29 626 16T652 0H381Q403 5 415 17T436 54T456 122L514 392L229 113Q219 70 219 51Q219 29 226 17T255 0H-16Q8 4 25 26T48 81L147 544Q158 598 158 619Q158 638 151 648T123 666ZM602 891L658 854Q618 779 566 741T457 703Q402 703 369 727T336 790Q336 824 363 847T433 871Q430 853 430 838Q430 811 442 795T478 780Q504 780 532 803T602 891Z"
				   horiz-adv-x="731" unicode="Й"/>
			<glyph d="M121 666H396Q348 654 334 591L285 365L485 571Q535 623 535 648Q535 662 519 666H763Q734 653 710 633T656 585T442 374L561 106Q582 59 611 32T662 0H428L277 331L224 76Q221 57 221 51Q221 29 232 15T257 0H-16Q4 3 22 22T46 72L156 587Q159 600 159 614Q159 657 121 666Z"
				   horiz-adv-x="694" unicode="К"/>
			<glyph d="M412 666H568L629 103Q632 72 640 48T659 13T679 0H417Q434 3 444 23T454 75Q454 82 453 90L418 461L199 103Q171 58 171 32Q171 5 195 0H-50Q-34 4 -6 33T55 113Z"
				   unicode="Л"/>
			<glyph d="M123 666H379L473 301L710 666H971Q942 659 920 627T889 547L797 124Q791 93 791 70Q791 13 829 0H554Q580 7 599 40T629 124L700 444L396 -16L277 445L209 129Q203 104 203 77Q203 12 249 0H-15Q16 6 41 41T77 130L168 550Q173 572 173 594Q173 654 123 666Z"
				   horiz-adv-x="916" unicode="М"/>
			<glyph d="M125 666H400Q348 652 334 591L291 395H511L553 587Q556 608 556 616Q556 630 552 639T541 655T521 666H796Q745 653 731 591L621 76Q617 57 617 50Q617 27 627 15T652 0H379Q400 3 418 22T443 72L488 288H268L224 76Q221 57 221 50Q221 27 231 14T256 0H-16Q6 4 23 24T46 72L156 587Q159 603 159 616Q159 656 125 666Z"
				   horiz-adv-x="731" unicode="Н"/>
			<glyph d="M435 682Q555 682 624 609T694 416Q694 307 640 205Q587 104 495 44T297 -15Q179 -15 109 58T40 254Q40 365 93 464T237 623T435 682ZM415 565Q366 565 324 517T257 391T232 237Q232 177 252 139T318 102Q367 102 410 149T478 272T504 428Q504 488 483 526T415 565Z"
				   horiz-adv-x="691" unicode="О"/>
			<glyph d="M125 666H781Q729 651 715 586L610 95Q602 59 602 48Q602 29 612 16T636 0H365Q394 7 408 28T432 92L531 555H326L227 92Q222 68 222 50Q222 28 230 16T255 0H-14Q12 7 27 29T50 92L147 545Q159 598 159 615Q159 658 125 666Z"
				   horiz-adv-x="716" unicode="П"/>
			<glyph d="M123 666H414Q518 666 578 615T638 483Q638 420 603 364T506 275T363 242Q306 242 261 255L223 76Q220 64 220 51Q220 29 230 15T256 0H-16Q4 3 22 22T46 72L157 587Q161 606 161 614Q161 657 123 666ZM329 565L282 356Q304 348 333 348Q388 348 424 386T461 479Q461 514 442 539T382 565Z"
				   horiz-adv-x="621" unicode="Р"/>
			<glyph d="M460 679Q555 679 609 643L568 453Q551 511 517 538T445 565Q388 565 338 519T259 400T230 255Q230 187 260 144T355 102Q453 102 519 189L488 48Q455 16 401 0T290 -15Q180 -15 110 58T40 249Q40 360 97 460T251 620T460 679Z"
				   horiz-adv-x="558" unicode="С"/>
			<glyph d="M112 666H698L655 470Q652 521 625 539T536 558H468L365 76Q362 62 362 50Q362 29 372 15T397 0H125Q147 3 165 22T189 72L292 558H221Q154 558 120 537T66 470Z"
				   horiz-adv-x="621" unicode="Т"/>
			<glyph d="M86 666H350Q319 659 319 621Q319 604 326 583L405 340L562 571Q586 606 586 631Q586 643 578 652T559 666H812Q779 661 702 551L418 146Q354 55 294 15T160 -25Q128 -25 100 -18T58 0L98 180Q120 113 183 113Q199 113 215 119T246 138T280 179L142 591Q131 624 118 642T86 666Z"
				   horiz-adv-x="715" unicode="У"/>
			<glyph d="M365 682H613Q600 679 587 669T564 642T548 594Q660 579 722 521T785 377Q785 297 742 233T619 128T438 76Q433 51 433 36Q433 14 442 0T464 -16H217Q266 -4 280 75Q173 90 109 149T45 296Q45 374 88 438T211 542T390 593Q395 619 395 629Q395 650 386 663T365 682ZM524 479L462 187Q503 193 538 218T593 282T613 366Q613 410 589 439T524 479ZM366 481Q301 468 260 420T219 305Q219 259 242 228T304 188Z"
				   horiz-adv-x="789" unicode="Ф"/>
			<glyph d="M92 666H351Q337 661 331 652T325 630Q325 616 334 594L383 473L488 594Q516 627 516 645Q516 660 497 666H739Q700 653 651 594L436 345L542 84Q556 48 572 26T603 0H346Q369 6 369 37Q369 55 357 84L310 201L210 84Q176 43 176 22Q176 7 190 0H-49Q-26 5 43 84L257 330L150 594Q139 622 123 641T92 666Z"
				   horiz-adv-x="647" unicode="Х"/>
			<glyph d="M127 666H397Q369 659 354 637T330 574L231 114H437L535 574Q540 598 540 616Q540 638 532 650T507 666H776Q755 659 745 649T726 620T712 574L624 163Q621 147 621 141Q621 114 650 114H678L615 -181H607Q605 -138 586 -91T538 -22T474 0H-19Q32 14 47 80L152 571Q160 611 160 618Q160 636 151 648T127 666Z"
				   horiz-adv-x="726" unicode="Ц"/>
			<glyph d="M103 666H374Q355 659 343 649T322 620T306 573L283 466Q275 435 275 417Q275 345 354 345Q396 345 439 360L479 546Q491 599 491 613Q491 657 456 666H730Q706 657 695 646T675 616T661 568L560 96Q552 58 552 46Q552 27 562 15T586 0H303Q332 4 354 35T388 120L417 260Q343 234 277 234Q191 234 143 273T96 390Q96 421 104 455Q115 507 127 564Q136 604 135 615Q135 655 103 666Z"
				   horiz-adv-x="666" unicode="Ч"/>
			<glyph d="M127 666H389Q360 659 345 637T322 574L223 114H384L482 574Q487 598 487 616Q487 638 479 650T454 666H715Q694 659 684 649T665 620T651 574L552 114H713L811 574Q816 598 816 616Q816 638 808 650T783 666H1044Q1023 659 1013 649T994 620T980 574L883 121Q871 70 871 51Q871 31 879 17T903 0H-19Q32 14 47 80L152 571Q160 610 160 618Q160 636 151 648T127 666Z"
				   horiz-adv-x="984" unicode="Ш"/>
			<glyph d="M127 666H389Q360 659 345 637T322 574L223 114H384L482 574Q487 598 487 616Q487 638 479 650T454 666H715Q694 658 684 648T665 620T651 575L552 114H713L811 574Q816 598 816 616Q816 638 808 650T783 666H1044Q1023 659 1013 649T994 620T980 574L892 163Q889 147 889 141Q889 114 918 114H946L883 -181H875Q873 -136 854 -91T806 -23T742 0H-19Q32 14 47 80L152 571Q160 611 160 618Q160 636 152 648T127 666Z"
				   horiz-adv-x="994" unicode="Щ"/>
			<glyph d="M112 666H547Q516 658 497 634T472 574L438 420H493Q597 420 657 375T718 251Q718 179 679 121T573 31T423 0H125Q154 6 169 29T195 104L292 558H221Q154 558 120 537T66 470ZM414 311L373 110H417Q470 110 505 146T541 237Q541 269 520 290T457 311Z"
				   horiz-adv-x="732" unicode="Ъ"/>
			<glyph d="M125 666H405Q374 658 356 635T330 574L296 420H351Q454 420 515 375T576 251Q576 179 537 121T431 31T281 0H-17Q12 6 27 29T53 104L149 554Q159 600 159 615Q159 636 152 647T125 666ZM272 311L231 110H275Q328 110 363 145T399 237Q399 269 378 290T315 311ZM702 666H977Q925 653 911 591L801 76Q798 62 798 51Q798 28 808 14T831 0H562Q583 3 600 22T624 72L733 587Q737 608 737 613Q737 635 727 649T702 666Z"
				   horiz-adv-x="911" unicode="Ы"/>
			<glyph d="M125 666H405Q374 658 356 635T330 574L296 420H356Q459 420 520 375T581 251Q581 179 542 121T436 31T286 0H-17Q12 6 27 29T53 104L149 554Q159 600 159 615Q159 636 152 647T125 666ZM272 311L231 110H280Q333 110 368 145T404 237Q404 269 383 290T320 311Z"
				   horiz-adv-x="595" unicode="Ь"/>
			<glyph d="M320 682Q394 682 451 648T539 554T570 415Q570 300 513 199T363 41T160 -15Q115 -15 70 -5T1 21L42 211Q58 158 93 130T178 102Q240 102 288 151T361 284H207Q176 284 152 274T118 248L156 431Q162 412 170 405T192 394T227 391H382Q383 402 383 415Q383 484 349 524T255 565Q210 565 166 541T91 475L127 643Q220 682 320 682Z"
				   horiz-adv-x="570" unicode="Э"/>
			<glyph d="M760 682Q879 682 947 611T1015 416Q1015 306 962 204T819 44T624 -15Q507 -15 439 58T371 254Q371 269 372 288H266L222 76Q219 61 219 50Q219 28 229 15T252 0H-14Q4 2 22 21T46 72L156 587Q159 603 159 616Q159 656 125 666H397Q374 661 356 640T332 591L289 395H394Q421 478 476 544T605 646T760 682ZM741 565Q697 565 656 521T589 396T563 237Q563 170 584 136T646 102Q693 102 734 148T800 272T825 428Q825 495 803 530T741 565Z"
				   horiz-adv-x="1012" unicode="Ю"/>
			<glyph d="M388 666H706Q678 658 661 633T636 568L535 96Q527 62 527 46Q527 29 536 16T561 0H284L287 1Q309 6 321 17T342 47T358 96L389 244H379Q358 244 342 231T304 186L178 0H-58Q-41 2 -13 25T42 85L131 208Q169 262 218 288Q164 310 134 350T104 445Q104 511 140 561T241 639T388 666ZM396 555Q345 555 312 523T279 440Q279 402 301 380T362 359H414L456 555Z"
				   horiz-adv-x="641" unicode="Я"/>
			<glyph d="M534 486L464 161Q454 116 454 96Q454 47 512 41L286 -15L293 47Q263 17 223 1T143 -15Q87 -15 54 30T21 151Q21 239 63 315T173 433T321 475Q360 475 395 468T443 462Q487 462 534 486ZM311 386Q281 386 252 354T205 271T187 165Q187 99 227 99Q242 99 259 114T291 155T322 253T340 349Q340 385 311 386Z"
				   horiz-adv-x="547" unicode="а"/>
			<glyph d="M597 724Q584 656 552 613T471 558Q448 551 424 550T377 548Q332 546 316 540T288 522T264 487T239 408Q276 437 318 452T398 468Q459 468 497 421T535 297Q535 215 497 142T394 29T249 -12Q148 -12 92 45T37 204Q37 278 64 369T145 531T265 636T418 680L475 686Q562 695 597 724ZM306 351Q263 351 216 309Q208 279 201 241T195 181Q195 135 210 113T253 91Q282 91 307 116T349 185T366 268Q366 308 349 329T306 351Z"
				   horiz-adv-x="559" unicode="б"/>
			<glyph d="M326 484Q380 484 419 468T478 425T498 363Q498 318 468 286T385 242Q429 230 453 204T477 140Q477 97 446 61Q415 26 358 6T229 -14Q163 -14 116 11T45 80T21 183Q21 266 60 335T170 444T326 484ZM176 181V167Q176 80 248 80Q283 80 303 95T323 134Q323 156 303 168T245 181ZM298 390Q267 390 238 357T194 269H249Q292 269 318 288T345 341Q345 362 333 376T298 390Z"
				   horiz-adv-x="505" unicode="в"/>
			<glyph d="M244 486Q320 486 365 449T410 354Q410 302 381 262T288 193L235 169Q195 151 184 141T173 117Q173 105 184 96T219 87Q259 87 303 114T384 190L351 24Q322 6 280 -4T192 -15Q108 -15 59 22T11 117Q11 171 43 209T155 282L202 303Q238 318 250 328T262 352Q262 378 219 378Q174 378 143 359T107 312Q82 325 69 344T56 382Q56 429 108 457T244 486Z"
				   horiz-adv-x="422" unicode="г"/>
			<glyph d="M370 694Q459 694 507 635T556 466Q556 335 511 220T392 46T222 -12Q166 -12 120 12T49 81T24 183Q24 261 58 329T154 437T291 477Q323 477 351 466T398 432L399 460Q399 518 369 552T293 587Q254 587 216 573T147 534Q167 602 230 648T370 694ZM304 373Q253 373 218 315T183 172Q183 133 197 112T236 91Q266 91 294 119T348 207T386 334Q344 373 304 373Z"
				   horiz-adv-x="548" unicode="д"/>
			<glyph d="M334 484Q396 484 434 452T473 365Q473 313 434 268T331 199Q267 175 177 170Q180 150 192 130T226 100T273 91Q309 91 351 106T428 148Q405 74 342 29T203 -16Q119 -16 70 34T21 168Q21 251 64 325T179 442T334 484ZM297 390Q275 390 249 371T203 321T176 252Q215 254 254 268T314 303T335 350Q335 369 324 379T297 390Z"
				   horiz-adv-x="468" unicode="е"/>
			<glyph d="M238 485Q309 485 349 439T389 313Q389 290 386 269L449 352L474 468H621L568 217L671 353Q722 420 777 452T895 485Q940 485 966 462T992 400Q992 358 955 326T868 289Q883 310 883 337Q883 380 846 380Q824 380 802 355T768 291T755 208Q755 90 832 90Q885 90 938 143Q915 64 868 24T760 -16Q689 -16 649 30T609 156Q609 179 612 200L546 113L522 0H374L427 248L327 116Q281 55 226 19T103 -16Q58 -16 32 7T6 69Q6 110 42 142T130 180Q115 160 115 132Q115 89 152 89Q173 89 194 112T229 177T243 261Q243 379 166 379Q113 379 60 326Q84 405 130 445T238 485Z"
				   horiz-adv-x="986" unicode="ж"/>
			<glyph d="M250 485Q331 485 379 452T427 363Q427 271 310 242Q353 230 376 203T400 139Q400 67 334 26T151 -15Q108 -15 64 -8T-7 12L23 155Q43 118 76 98T154 79Q194 79 218 95T242 141Q242 165 220 178T157 192H105L123 279H163Q226 279 255 298T284 346Q284 367 268 379T224 391Q187 391 156 372T109 319Q66 347 66 388Q66 433 114 459T250 485Z"
				   horiz-adv-x="436" unicode="з"/>
			<glyph d="M278 486L207 159Q204 144 204 132Q204 91 239 91Q262 91 283 113T312 168L348 321Q358 361 358 385Q358 406 347 414T311 427L306 428L542 486L458 101Q455 91 455 82Q455 65 468 56T512 43L287 -15L299 43Q273 18 232 2T146 -14Q94 -14 66 7T38 77Q38 99 45 132L83 321Q91 361 91 381Q91 402 82 412T47 427L41 428Z"
				   horiz-adv-x="556" unicode="и"/>
			<glyph d="M278 486L207 159Q204 144 204 132Q204 91 239 91Q262 91 283 113T312 168L348 321Q358 361 358 385Q358 406 347 414T311 427L306 428L542 486L458 101Q455 91 455 82Q455 65 468 56T512 43L287 -15L299 43Q273 18 232 2T146 -14Q94 -14 66 7T38 77Q38 99 45 132L83 321Q91 361 91 381Q91 402 82 412T47 427L41 428ZM469 719L525 682Q485 607 433 569T324 531Q269 531 236 555T203 618Q203 652 230 675T300 699Q297 681 297 666Q297 639 309 623T345 608Q371 608 399 631T469 719Z"
				   horiz-adv-x="556" unicode="й"/>
			<glyph d="M282 490L228 249Q252 256 267 271T297 307T344 382Q375 434 406 457T479 481Q523 481 550 454T577 380Q577 366 574 351Q566 358 551 364T520 371Q488 371 456 335Q401 272 359 241L444 108Q472 63 497 44T559 25Q538 9 501 -1T431 -12Q396 -12 371 -2T324 31T275 101T218 203L174 0H14L91 343Q98 372 98 384Q98 402 82 413T38 428Z"
				   horiz-adv-x="575" unicode="к"/>
			<glyph d="M285 481H400L456 98Q460 67 473 52T512 36L524 35L315 -21L275 281L167 116Q139 73 139 42Q139 26 150 14T176 0H-39Z"
				   horiz-adv-x="524" unicode="л"/>
			<glyph d="M72 468H267L328 243L480 468H648L570 92Q564 64 564 46Q564 8 589 0H407L476 322L253 -16L166 312L120 95Q115 75 115 54Q115 8 147 0H14L95 371Q100 394 100 414Q100 456 72 468Z"
				   horiz-adv-x="662" unicode="м"/>
			<glyph d="M278 488L234 283H350L389 468H547L474 125Q468 91 468 73Q468 10 494 0H289L331 195H215L173 0H15L90 343Q97 372 97 381Q97 401 81 413T37 428Z"
				   horiz-adv-x="560" unicode="н"/>
			<glyph d="M305 482Q396 482 449 428T502 286Q502 209 462 137T358 26T216 -12Q156 -12 112 13T44 83T21 186Q21 264 58 333T161 442T305 482ZM292 378Q265 378 240 349T198 267T180 170Q180 133 193 112T228 91Q254 91 278 117T321 197T339 297Q339 335 326 356T292 378Z"
				   horiz-adv-x="523" unicode="о"/>
			<glyph d="M262 486L253 428Q328 485 407 485Q514 485 514 394Q514 366 508 339L460 109Q457 92 457 70Q457 39 464 21T484 0H278L346 312Q349 324 349 335Q349 355 339 367T312 380Q291 380 268 358T239 303L173 0H15L96 370Q97 378 97 382Q97 400 82 412T44 427L37 428Z"
				   horiz-adv-x="538" unicode="п"/>
			<glyph d="M398 486Q456 486 490 440T524 316Q524 231 484 152T380 31T236 -11Q201 -11 178 6L135 -181H-24L90 349Q94 374 94 378Q94 401 80 411T32 427L255 485L250 424Q282 454 322 470T398 486ZM314 366Q298 366 277 348T242 308Q231 291 218 225T205 134Q205 90 242 90Q270 90 294 118T336 199T353 298Q353 366 314 366Z"
				   horiz-adv-x="544" unicode="р"/>
			<glyph d="M332 484Q382 484 412 459T442 394Q442 362 423 329T372 277Q341 257 307 257Q313 264 317 278T321 310Q321 341 309 360T279 379Q256 379 234 355T198 292T185 208Q185 152 210 121T281 90Q312 90 346 105T411 148Q385 73 322 28T187 -16Q109 -16 64 30T20 156Q20 248 62 323T176 441T332 484Z"
				   horiz-adv-x="438" unicode="с"/>
			<glyph d="M262 486L253 429Q281 453 323 469T407 485Q497 485 513 430Q537 453 585 469T673 485Q726 485 753 461T780 395Q780 371 773 339L726 109Q723 97 723 71Q723 43 730 24T750 0H543L611 312Q614 325 614 336Q613 380 578 380Q556 380 534 358T505 304L438 0H278L346 312Q349 324 349 335Q349 355 339 367T312 380Q299 380 283 370T256 343T239 304L173 0H15L96 370Q97 377 97 383Q97 401 82 413T45 427L37 428Z"
				   horiz-adv-x="811" unicode="т"/>
			<glyph d="M226 484L293 153Q345 237 366 294T388 391Q388 418 375 438T336 464H546Q507 335 443 222T302 8T155 -139T32 -186Q-12 -186 -36 -165T-60 -109Q-60 -81 -49 -53Q-23 -75 15 -75Q54 -75 93 -56T166 0L83 376Q78 398 62 412T17 428L5 429Z"
				   horiz-adv-x="524" unicode="у"/>
			<glyph d="M511 700L465 481Q554 458 603 403T653 273Q653 162 575 85T363 -12L329 -188H172L210 -13Q125 8 74 64T24 199Q24 271 61 331T166 430T315 481L320 503Q331 550 331 571Q331 594 317 608T269 631ZM441 368L383 92Q431 110 463 161T496 268Q496 304 480 329T441 368ZM293 377Q241 356 211 311T181 209Q181 135 234 103Z"
				   horiz-adv-x="675" unicode="ф"/>
			<glyph d="M260 485Q265 476 290 415T322 344L374 395Q401 423 401 443Q401 452 393 458T381 465H589L365 248Q385 215 439 80Q450 56 469 45T532 33L310 -24L242 129L179 67Q152 39 152 22Q152 13 158 7T171 0H-32L199 225L134 370Q121 400 102 412T51 427L37 428Z"
				   horiz-adv-x="559" unicode="х"/>
			<glyph d="M278 486L207 159Q204 144 204 132Q204 91 239 91Q262 91 283 113T312 168L348 321Q358 361 358 385Q358 397 353 405T340 418T311 427L306 428L542 486L463 127Q460 114 460 101Q460 85 472 73T504 60L478 -52Q446 -192 350 -192Q317 -192 297 -174T278 -131Q278 -115 286 -100T311 -76Q315 -89 325 -98T351 -107Q374 -107 388 -90T410 -46L416 -23Q371 -23 343 -1T307 52Q277 21 234 3T146 -14Q93 -14 65 7T38 77Q38 99 45 132L83 321Q91 361 91 381Q91 402 82 412T47 427L41 428Z"
				   horiz-adv-x="556" unicode="ц"/>
			<glyph d="M270 486L236 331Q229 301 229 284Q229 263 239 251T267 240Q292 240 316 270T350 342L378 468H535L462 118Q457 94 457 72Q457 39 465 20T483 0H278L320 191Q295 163 259 145T185 128Q131 128 97 161T63 248Q63 269 69 292Q76 327 79 345T83 382Q83 404 72 414T33 428Z"
				   horiz-adv-x="548" unicode="ч"/>
			<glyph d="M278 486L207 159Q204 145 204 135Q204 91 240 91Q263 91 284 112T313 167L379 468H539L472 159Q469 146 469 136Q469 116 478 103T506 91Q519 91 534 100T561 127T579 167L644 468H802L722 101Q719 91 719 82Q719 65 731 56T776 43L558 -15L569 44Q501 -14 411 -14Q325 -14 305 41Q280 18 233 2T145 -14Q92 -14 65 9T38 76Q38 100 45 132L84 325Q91 362 91 382Q91 403 81 413T41 428Z"
				   horiz-adv-x="813" unicode="ш"/>
			<glyph d="M278 486L207 159Q204 145 204 135Q204 91 240 91Q263 91 284 113T313 167L379 468H539L472 159Q469 146 469 136Q469 116 478 103T506 91Q519 91 534 100T561 126T579 167L644 468H802L728 128Q725 113 725 101Q725 85 737 73T769 60L743 -52Q711 -192 615 -192Q582 -192 562 -174T543 -131Q543 -115 552 -100T576 -76Q581 -89 591 -98T616 -107Q660 -107 675 -46L681 -23Q637 -23 610 -3T573 49Q500 -14 411 -14Q325 -14 305 41Q280 18 233 2T145 -14Q92 -14 65 9T38 76Q38 100 45 132L84 325Q91 362 91 382Q91 403 81 413T41 428Z"
				   horiz-adv-x="813" unicode="щ"/>
			<glyph d="M368 486L328 301Q360 307 391 307Q471 307 519 270T568 175Q568 92 501 40T328 -12Q244 -12 192 27T141 132Q141 158 149 195L190 384H176Q133 384 100 360T46 288Q39 296 34 314T30 348Q30 410 65 447T155 484Q190 484 223 480T281 476Q337 476 368 486ZM339 217Q322 217 309 213L298 162Q294 141 294 129Q294 105 305 91T338 77Q367 77 386 101T405 159Q405 185 386 201T339 217Z"
				   horiz-adv-x="588" unicode="ъ"/>
			<glyph d="M275 486L235 301Q267 307 298 307Q379 307 427 269T475 175Q475 92 407 40T235 -12Q149 -12 98 28T48 132Q48 156 56 196L83 332Q89 362 89 386Q89 419 54 425L39 428ZM246 217Q229 217 216 213L205 162Q201 141 201 129Q201 105 213 91T245 77Q274 77 293 101T312 159Q312 185 293 201T246 217ZM765 486L684 109Q678 82 678 60Q678 31 686 16T706 0H500L577 350Q581 372 581 379Q581 420 533 426L522 428Z"
				   horiz-adv-x="773" unicode="ы"/>
			<glyph d="M275 486L235 301Q266 307 299 307Q382 307 431 270T480 175Q480 92 412 40T237 -12Q151 -12 99 28T48 132Q48 156 56 196L83 332Q89 362 89 386Q89 419 55 425L39 428ZM248 217Q230 217 216 213L205 162Q201 141 201 129Q201 105 213 91T247 77Q278 77 297 101T317 159Q317 184 298 200T248 217Z"
				   horiz-adv-x="505" unicode="ь"/>
			<glyph d="M258 484Q334 484 382 433T430 302Q430 246 409 185T348 79T253 11T134 -12Q45 -12 0 12L32 161Q55 124 84 107T149 91Q187 91 220 119T268 192H107L125 275H279V284Q279 326 254 351T187 377Q155 377 117 362T45 316Q75 397 130 440T258 484Z"
				   horiz-adv-x="451" unicode="э"/>
			<glyph d="M276 488L232 283H322Q351 373 422 427T584 482Q674 482 725 428T777 286Q777 209 740 138T640 27T497 -12Q438 -12 395 12T329 82T306 186V195H213L171 0H15L90 343Q97 372 97 381Q97 401 81 413T37 428ZM570 378Q544 378 521 349T482 267T465 170Q465 134 476 112T510 91Q535 91 557 117T597 197T614 297Q614 336 602 357T570 378Z"
				   horiz-adv-x="798" unicode="ю"/>
			<glyph d="M306 468H538L469 139Q460 96 460 68Q460 42 467 22T487 0H283L320 169H314Q293 169 280 160T249 129L150 0H-65Q-50 1 -27 16T22 62L96 147Q131 186 169 202Q118 214 90 243T62 314Q62 385 128 426T306 468ZM316 381Q272 381 246 362T221 311Q221 286 240 270T293 254H337L364 381Z"
				   horiz-adv-x="552" unicode="я"/>
			<glyph d="M334 484Q396 484 434 452T473 365Q473 313 434 268T331 199Q267 175 177 170Q180 150 192 130T226 100T273 91Q309 91 351 106T428 148Q405 74 342 29T203 -16Q119 -16 70 34T21 168Q21 251 64 325T179 442T334 484ZM297 390Q275 390 249 371T203 321T176 252Q215 254 254 268T314 303T335 350Q335 369 324 379T297 390ZM159 666H353L360 501Z"
				   horiz-adv-x="468" unicode="ѐ"/>
			<glyph d="M334 484Q396 484 434 452T473 365Q473 313 434 268T331 199Q267 175 177 170Q180 150 192 130T226 100T273 91Q309 91 351 106T428 148Q405 74 342 29T203 -16Q119 -16 70 34T21 168Q21 251 64 325T179 442T334 484ZM297 390Q275 390 249 371T203 321T176 252Q215 254 254 268T314 303T335 350Q335 369 324 379T297 390ZM418 681Q446 681 463 663T481 615Q481 582 458 559T402 537Q373 537 355 555T338 602Q338 635 361 658T418 681ZM208 681Q236 681 253 663T271 615Q271 582 248 559T192 537Q163 537 145 555T128 602Q128 635 151 658T208 681Z"
				   horiz-adv-x="468" unicode="ё"/>
			<glyph d="M325 696L303 598H436L421 528H287L266 433Q292 456 333 470T414 485Q464 485 489 461T514 395Q514 365 509 341L439 0Q422 -84 371 -132T250 -180Q199 -180 156 -162T97 -120Q121 -126 141 -126Q198 -126 231 -94T278 0L346 312Q349 324 349 334Q349 356 339 368T312 380Q291 380 268 358T240 310L173 0H15L129 528H84L99 598H143Q141 629 87 638Z"
				   horiz-adv-x="539" unicode="ђ"/>
			<glyph d="M244 486Q320 486 365 449T410 354Q410 302 381 262T288 193L235 169Q195 151 184 141T173 117Q173 105 184 96T219 87Q259 87 303 114T384 190L351 24Q322 6 280 -4T192 -15Q108 -15 59 22T11 117Q11 171 43 209T155 282L202 303Q238 318 250 328T262 352Q262 378 219 378Q174 378 143 359T107 312Q82 325 69 344T56 382Q56 429 108 457T244 486ZM279 666H473L206 501Z"
				   horiz-adv-x="422" unicode="ѓ"/>
			<glyph d="M324 484Q376 484 404 465T433 410Q433 384 414 361T366 323T306 308Q314 325 314 342Q314 359 303 369T276 380Q247 380 221 350T182 275H336L317 192H174Q178 145 203 117T272 90Q303 90 337 105T402 148Q376 77 318 30T197 -16Q118 -16 69 34T21 166Q21 248 62 322T174 440T324 484Z"
				   horiz-adv-x="429" unicode="є"/>
			<glyph d="M269 485Q335 485 376 460T418 393Q418 340 335 304L337 316Q337 346 315 364T262 383Q237 383 220 373T204 347Q204 333 221 317T294 266Q380 210 380 137Q380 93 353 59T275 5T162 -15Q57 -15 -5 24L39 202Q48 150 80 118T157 87Q182 87 199 96T217 122Q217 136 204 148T137 196Q57 249 57 322Q57 371 85 408T163 465T269 485Z"
				   horiz-adv-x="420" unicode="ѕ"/>
			<glyph d="M278 486L197 109Q191 83 191 60Q191 31 199 16T219 0H13L91 355Q96 375 96 382Q96 398 80 411T43 427L35 428ZM227 692Q263 692 283 669T304 612Q304 572 276 544T208 517Q172 517 151 539T130 596Q130 636 158 664T227 692Z"
				   horiz-adv-x="286" unicode="і"/>
			<glyph d="M278 486L197 109Q191 83 191 60Q191 32 199 17T219 0H13L93 364Q96 376 96 382Q96 399 80 411T43 427L35 428ZM335 680Q363 680 380 662T398 614Q398 581 375 558T319 536Q290 536 272 554T255 601Q255 634 278 657T335 680ZM125 680Q153 680 170 662T188 614Q188 581 165 558T109 536Q80 536 62 554T45 601Q45 634 68 657T125 680Z"
				   horiz-adv-x="286" unicode="ї"/>
			<glyph d="M227 692Q263 692 283 669T304 612Q304 571 276 544T208 517Q172 517 151 539T130 596Q130 636 158 664T227 692ZM278 486L175 0Q157 -84 106 -132T-14 -180Q-65 -180 -108 -162T-167 -120Q-143 -126 -123 -126Q-66 -126 -32 -94T15 0T91 359Q95 376 95 381Q95 397 78 410T40 427L35 428Z"
				   horiz-adv-x="289" unicode="ј"/>
			<glyph d="M277 481H394L424 280Q486 297 540 297Q619 297 667 260T716 165Q716 116 686 75T602 11T486 -12Q404 -12 359 18T297 106Q292 125 288 147T270 280L171 116Q143 70 143 42Q143 25 154 14T179 0H-35ZM487 207Q462 207 436 197Q446 127 452 110T468 85T493 77Q519 77 536 98T554 146Q554 172 534 189T487 207Z"
				   horiz-adv-x="743" unicode="љ"/>
			<glyph d="M278 488L234 283H340L379 468H536L498 292Q526 297 557 297Q612 297 652 280T714 232T736 165Q736 88 669 38T500 -12Q415 -12 364 26T313 128Q313 154 321 195H215L173 0H15L90 343Q97 372 97 381Q97 401 81 413T37 428ZM505 207Q494 207 479 204L470 162Q466 145 466 129Q466 105 477 91T510 77Q538 77 556 98T574 146Q574 172 554 189T505 207Z"
				   horiz-adv-x="761" unicode="њ"/>
			<glyph d="M323 696L301 598H434L419 528H285L264 433Q291 456 331 470T412 485Q462 485 487 462T513 395Q513 373 506 339L459 114Q455 95 455 69Q455 44 461 24T482 0H276L344 312Q347 324 347 334Q347 356 337 368T310 380Q289 380 266 360T238 315Q207 162 171 0H13L127 528H82L97 598H141Q139 629 85 638Z"
				   horiz-adv-x="538" unicode="ћ"/>
			<glyph d="M282 490L228 249Q252 256 267 271T297 307T344 382Q375 434 406 457T479 481Q523 481 550 454T577 380Q577 366 574 351Q566 358 551 364T520 371Q488 371 456 335Q401 272 359 241L444 108Q472 63 497 44T559 25Q538 9 501 -1T431 -12Q396 -12 371 -2T324 31T275 101T218 203L174 0H14L91 343Q98 372 98 384Q98 402 82 413T38 428ZM363 666H557L290 501Z"
				   horiz-adv-x="575" unicode="ќ"/>
			<glyph d="M278 486L207 159Q204 144 204 132Q204 91 239 91Q262 91 283 113T312 168L348 321Q358 361 358 385Q358 406 347 414T311 427L306 428L542 486L458 101Q455 91 455 82Q455 65 468 56T512 43L287 -15L299 43Q273 18 232 2T146 -14Q94 -14 66 7T38 77Q38 99 45 132L83 321Q91 361 91 381Q91 402 82 412T47 427L41 428ZM172 666H366L373 501Z"
				   horiz-adv-x="556" unicode="ѝ"/>
			<glyph d="M226 484L293 153Q345 237 366 294T388 391Q388 418 375 438T336 464H546Q507 335 443 222T302 8T155 -139T32 -186Q-12 -186 -36 -165T-60 -109Q-60 -81 -49 -53Q-23 -75 15 -75Q54 -75 93 -56T166 0L83 376Q78 398 62 412T17 428L5 429ZM456 719L512 682Q472 607 420 569T311 531Q256 531 223 555T190 618Q190 652 217 675T287 699Q284 681 284 666Q284 639 296 623T332 608Q358 608 386 631T456 719Z"
				   horiz-adv-x="524" unicode="ў"/>
			<glyph d="M239 -11L265 -191H105ZM278 486L207 159Q204 144 204 132Q204 91 239 91Q262 91 283 113T312 168L348 321Q358 361 358 385Q358 397 353 406T340 419T311 427L306 428L542 486L458 101Q455 91 455 82Q455 65 468 56T512 43L287 -15L299 43Q273 18 232 2T146 -14Q94 -14 66 7T38 77Q38 99 45 132L83 321Q91 361 91 381Q91 402 82 412T47 427L41 428Z"
				   horiz-adv-x="556" unicode="џ"/>
			<glyph d="M616 820H627L571 555H325L226 81Q222 60 222 54Q222 32 232 17T259 0H-24Q3 4 22 26T48 83L157 587Q160 602 160 613Q160 655 120 666H404Q440 666 479 685T557 742T616 820Z"
				   horiz-adv-x="517" unicode="Ґ"/>
			<glyph d="M456 599H468L421 379H255L173 0H15L95 365Q101 394 101 409Q101 449 68 468H286Q338 468 381 503T456 599Z"
				   horiz-adv-x="409" unicode="ґ"/>
			<glyph d="M91 666H351Q309 656 309 596Q309 590 311 571L338 256L488 518L484 563Q480 607 469 633T445 666H691Q649 654 649 594Q649 587 650 576L676 257L846 568Q867 608 867 630Q867 640 864 646T856 657T840 666H1089Q1066 660 1041 634T990 564L667 0H535L508 329L318 0H186L135 563Q131 605 119 633T91 666ZM416 860H610L617 695Z"
				   horiz-adv-x="987" unicode="Ẁ"/>
			<glyph d="M231 485L252 215L391 464H505L535 209L620 346Q648 392 648 421Q648 438 638 449T615 464H828L513 -4H397L376 235L231 -4H115L82 376Q77 424 21 428L9 429ZM293 666H487L494 501Z"
				   horiz-adv-x="785" unicode="ẁ"/>
			<glyph d="M91 666H351Q309 656 309 596Q309 590 311 571L338 256L488 518L484 563Q480 607 469 633T445 666H691Q649 654 649 594Q649 587 650 576L676 257L846 568Q867 608 867 630Q867 640 864 646T856 657T840 666H1089Q1066 660 1041 634T990 564L667 0H535L508 329L318 0H186L135 563Q131 605 119 633T91 666ZM614 860H808L541 695Z"
				   horiz-adv-x="987" unicode="Ẃ"/>
			<glyph d="M231 485L252 215L391 464H505L535 209L620 346Q648 392 648 421Q648 438 638 449T615 464H828L513 -4H397L376 235L231 -4H115L82 376Q77 424 21 428L9 429ZM473 666H667L400 501Z"
				   horiz-adv-x="785" unicode="ẃ"/>
			<glyph d="M91 666H351Q309 656 309 596Q309 590 311 571L338 256L488 518L484 563Q480 607 469 633T445 666H691Q649 654 649 594Q649 587 650 576L676 257L846 568Q867 608 867 630Q867 640 864 646T856 657T840 666H1089Q1066 660 1041 634T990 564L667 0H535L508 329L318 0H186L135 563Q131 605 119 633T91 666ZM709 854Q738 854 755 835T772 788Q772 755 749 732T693 710Q664 710 646 728T629 775Q629 809 652 831T709 854ZM499 854Q528 854 545 835T562 788Q562 755 539 732T483 710Q454 710 436 728T419 775Q419 809 442 831T499 854Z"
				   horiz-adv-x="987" unicode="Ẅ"/>
			<glyph d="M231 485L252 215L391 464H505L535 209L620 346Q648 392 648 421Q648 438 638 449T615 464H828L513 -4H397L376 235L231 -4H115L82 376Q77 424 21 428L9 429ZM580 680Q608 680 625 662T643 614Q643 581 620 558T564 536Q535 536 517 554T500 601Q500 634 523 657T580 680ZM370 680Q398 680 415 662T433 614Q433 581 410 558T354 536Q325 536 307 554T290 601Q290 634 313 657T370 680Z"
				   horiz-adv-x="785" unicode="ẅ"/>
			<glyph d="M483 682Q561 682 639 660T779 597L613 381Q665 350 692 303T720 203Q720 145 689 95T603 16T479 -13Q371 -13 307 51L335 176Q356 146 389 128T456 111Q499 111 524 134T549 195Q549 243 509 271T391 312L559 537Q512 557 472 557Q409 557 365 512T303 378L249 115Q243 86 243 67Q243 47 247 34T258 11T271 1H-2Q11 2 25 15T52 53T73 117L127 376Q147 471 198 540T322 646T483 682Z"
				   horiz-adv-x="784" unicode="ẞ"/>
			<glyph d="M412 666H568L629 103Q633 62 646 34T679 0H418Q435 4 445 23T455 75Q455 84 454 91L448 137H215Q183 78 175 60T168 32Q168 5 192 0H-50Q-8 14 55 113ZM418 462L283 243H437ZM300 -49Q336 -49 356 -71T377 -129Q377 -170 349 -197T281 -224Q245 -224 224 -201T203 -145Q203 -105 231 -77T300 -49Z"
				   unicode="Ạ"/>
			<glyph d="M534 486L464 161Q454 116 454 96Q454 47 512 41L286 -15L293 47Q263 17 223 1T143 -15Q87 -15 54 30T21 151Q21 239 63 315T173 433T321 475Q360 475 395 468T443 462Q487 462 534 486ZM311 386Q281 386 252 354T205 271T187 165Q187 99 227 99Q242 99 259 114T291 155T322 253T340 349Q340 385 311 386ZM217 -49Q253 -49 273 -71T294 -129Q294 -170 266 -197T198 -224Q162 -224 141 -201T120 -145Q120 -105 148 -77T217 -49Z"
				   horiz-adv-x="547" unicode="ạ"/>
			<glyph d="M412 666H568L629 103Q633 62 646 34T679 0H418Q435 4 445 23T455 75Q455 84 454 91L448 137H215Q183 78 175 60T168 32Q168 5 192 0H-50Q-8 14 55 113ZM418 462L283 243H437ZM534 907Q568 907 590 887T612 839Q612 792 564 764Q533 746 523 738T514 722Q514 713 526 708Q516 703 501 703Q487 703 475 711T464 735Q464 754 475 767T500 788T523 806T533 828Q533 837 527 842T511 848Q493 848 472 834T437 802L455 891Q494 907 534 907Z"
				   unicode="Ả"/>
			<glyph d="M534 486L464 161Q454 116 454 96Q454 47 512 41L286 -15L293 47Q263 17 223 1T143 -15Q87 -15 54 30T21 151Q21 239 63 315T173 433T321 475Q360 475 395 468T443 462Q487 462 534 486ZM311 386Q281 386 252 354T205 271T187 165Q187 99 227 99Q242 99 259 114T291 155T322 253T340 349Q340 385 311 386ZM373 720Q407 720 429 700T451 652Q451 605 403 577Q372 559 362 551T353 535Q353 526 365 521Q355 516 340 516Q326 516 314 524T303 548Q303 567 314 580T339 601T362 619T372 641Q372 650 366 655T350 661Q332 661 311 647T276 615L294 704Q333 720 373 720Z"
				   horiz-adv-x="547" unicode="ả"/>
			<glyph d="M412 666H568L629 103Q633 62 646 34T679 0H418Q435 4 445 23T455 75Q455 84 454 91L448 137H215Q183 78 175 60T168 32Q168 5 192 0H-50Q-8 14 55 113ZM418 462L283 243H437ZM648 930H788L589 787ZM524 863L647 695L502 747L332 695Z"
				   unicode="Ấ"/>
			<glyph d="M534 486L464 161Q454 116 454 96Q454 47 512 41L286 -15L293 47Q263 17 223 1T143 -15Q87 -15 54 30T21 151Q21 239 63 315T173 433T321 475Q360 475 395 468T443 462Q487 462 534 486ZM311 386Q281 386 252 354T205 271T187 165Q187 99 227 99Q242 99 259 114T291 155T322 253T340 349Q340 385 311 386ZM491 752H631L432 609ZM367 685L490 517L345 569L175 517Z"
				   horiz-adv-x="547" unicode="ấ"/>
			<glyph d="M412 666H568L629 103Q633 62 646 34T679 0H418Q435 4 445 23T455 75Q455 84 454 91L448 137H215Q183 78 175 60T168 32Q168 5 192 0H-50Q-8 14 55 113ZM418 462L283 243H437ZM291 930H417L429 787ZM524 863L647 695L502 747L332 695Z"
				   unicode="Ầ"/>
			<glyph d="M534 486L464 161Q454 116 454 96Q454 47 512 41L286 -15L293 47Q263 17 223 1T143 -15Q87 -15 54 30T21 151Q21 239 63 315T173 433T321 475Q360 475 395 468T443 462Q487 462 534 486ZM311 386Q281 386 252 354T205 271T187 165Q187 99 227 99Q242 99 259 114T291 155T322 253T340 349Q340 385 311 386ZM134 752H260L272 609ZM367 685L490 517L345 569L175 517Z"
				   horiz-adv-x="547" unicode="ầ"/>
			<glyph d="M412 666H568L629 103Q633 62 646 34T679 0H418Q435 4 445 23T455 75Q455 84 454 91L448 137H215Q183 78 175 60T168 32Q168 5 192 0H-50Q-8 14 55 113ZM418 462L283 243H437ZM524 863L647 695L502 747L332 695ZM667 945Q695 945 713 930T732 890Q732 851 690 828Q667 816 658 809T650 796Q650 788 660 784Q650 780 639 780Q627 780 617 786T608 806Q608 820 616 830T637 848T658 864T666 881Q666 897 647 898Q633 898 616 887T586 860L601 932Q631 945 667 945Z"
				   unicode="Ẩ"/>
			<glyph d="M534 486L464 161Q454 116 454 96Q454 47 512 41L286 -15L293 47Q263 17 223 1T143 -15Q87 -15 54 30T21 151Q21 239 63 315T173 433T321 475Q360 475 395 468T443 462Q487 462 534 486ZM311 386Q281 386 252 354T205 271T187 165Q187 99 227 99Q242 99 259 114T291 155T322 253T340 349Q340 385 311 386ZM367 685L490 517L345 569L175 517ZM510 767Q538 767 556 752T575 712Q575 673 533 650Q510 638 501 631T493 618Q493 610 503 606Q493 602 482 602Q470 602 460 608T451 628Q451 642 459 652T480 670T501 686T509 703Q509 719 490 720Q476 720 459 709T429 682L444 754Q474 767 510 767Z"
				   horiz-adv-x="547" unicode="ẩ"/>
			<glyph d="M412 666H568L629 103Q633 62 646 34T679 0H418Q435 4 445 23T455 75Q455 84 454 91L448 137H215Q183 78 175 60T168 32Q168 5 192 0H-50Q-8 14 55 113ZM418 462L283 243H437ZM668 1000Q681 980 681 956Q681 919 656 893T593 867Q572 867 555 874T523 892T493 910T463 918Q444 918 429 902T408 858Q392 879 392 903Q392 938 418 963T484 989Q504 989 522 981T555 963T585 946T614 939Q634 939 648 957Q663 976 668 1000ZM524 863L647 695L502 747L332 695Z"
				   unicode="Ẫ"/>
			<glyph d="M534 486L464 161Q454 116 454 96Q454 47 512 41L286 -15L293 47Q263 17 223 1T143 -15Q87 -15 54 30T21 151Q21 239 63 315T173 433T321 475Q360 475 395 468T443 462Q487 462 534 486ZM311 386Q281 386 252 354T205 271T187 165Q187 99 227 99Q242 99 259 114T291 155T322 253T340 349Q340 385 311 386ZM511 822Q524 802 524 778Q524 741 499 715T436 689Q415 689 398 696T366 714T336 732T306 740Q287 740 272 724T251 680Q235 701 235 725Q235 760 261 785T327 811Q347 811 365 803T398 785T428 768T457 761Q477 761 491 779Q506 798 511 822ZM367 685L490 517L345 569L175 517Z"
				   horiz-adv-x="547" unicode="ẫ"/>
			<glyph d="M412 666H568L629 103Q633 62 646 34T679 0H418Q435 4 445 23T455 75Q455 84 454 91L448 137H215Q183 78 175 60T168 32Q168 5 192 0H-50Q-8 14 55 113ZM418 462L283 243H437ZM527 900L656 695L498 764L315 695ZM300 -49Q336 -49 356 -71T377 -129Q377 -170 349 -197T281 -224Q245 -224 224 -201T203 -145Q203 -105 231 -77T300 -49Z"
				   unicode="Ậ"/>
			<glyph d="M534 486L464 161Q454 116 454 96Q454 47 512 41L286 -15L293 47Q263 17 223 1T143 -15Q87 -15 54 30T21 151Q21 239 63 315T173 433T321 475Q360 475 395 468T443 462Q487 462 534 486ZM311 386Q281 386 252 354T205 271T187 165Q187 99 227 99Q242 99 259 114T291 155T322 253T340 349Q340 385 311 386ZM217 -49Q253 -49 273 -71T294 -129Q294 -170 266 -197T198 -224Q162 -224 141 -201T120 -145Q120 -105 148 -77T217 -49ZM373 703L482 501L345 570L181 501Z"
				   horiz-adv-x="547" unicode="ậ"/>
			<glyph d="M412 666H568L629 103Q633 62 646 34T679 0H418Q435 4 445 23T455 75Q455 84 454 91L448 137H215Q183 78 175 60T168 32Q168 5 192 0H-50Q-8 14 55 113ZM418 462L283 243H437ZM394 854Q430 795 509 795Q583 795 651 854Q636 791 592 752T496 713Q450 713 420 743T391 822Q391 834 394 854ZM534 960H674L475 817Z"
				   unicode="Ắ"/>
			<glyph d="M534 486L464 161Q454 116 454 96Q454 47 512 41L286 -15L293 47Q263 17 223 1T143 -15Q87 -15 54 30T21 151Q21 239 63 315T173 433T321 475Q360 475 395 468T443 462Q487 462 534 486ZM311 386Q281 386 252 354T205 271T187 165Q187 99 227 99Q242 99 259 114T291 155T322 253T340 349Q340 385 311 386ZM233 671Q269 612 348 612Q422 612 490 671Q475 608 431 569T335 530Q289 530 259 560T230 639Q230 651 233 671ZM373 777H513L314 634Z"
				   horiz-adv-x="547" unicode="ắ"/>
			<glyph d="M412 666H568L629 103Q633 62 646 34T679 0H418Q435 4 445 23T455 75Q455 84 454 91L448 137H215Q183 78 175 60T168 32Q168 5 192 0H-50Q-8 14 55 113ZM418 462L283 243H437ZM394 854Q429 795 509 795Q583 795 651 854Q636 791 592 752T496 713Q450 713 420 743T391 822Q391 834 394 854ZM415 960H541L553 817Z"
				   unicode="Ằ"/>
			<glyph d="M534 486L464 161Q454 116 454 96Q454 47 512 41L286 -15L293 47Q263 17 223 1T143 -15Q87 -15 54 30T21 151Q21 239 63 315T173 433T321 475Q360 475 395 468T443 462Q487 462 534 486ZM311 386Q281 386 252 354T205 271T187 165Q187 99 227 99Q242 99 259 114T291 155T322 253T340 349Q340 385 311 386ZM233 671Q268 612 348 612Q422 612 490 671Q475 608 431 569T335 530Q289 530 259 560T230 639Q230 651 233 671ZM254 777H380L392 634Z"
				   horiz-adv-x="547" unicode="ằ"/>
			<glyph d="M412 666H568L629 103Q633 62 646 34T679 0H418Q435 4 445 23T455 75Q455 84 454 91L448 137H215Q183 78 175 60T168 32Q168 5 192 0H-50Q-8 14 55 113ZM418 462L283 243H437ZM394 854Q430 795 509 795Q583 795 651 854Q636 791 592 752T496 713Q450 713 420 743T391 821Q391 837 394 854ZM551 1000Q584 1000 605 983T627 939Q627 896 581 871Q552 855 544 849T536 835Q536 827 548 822Q538 817 524 817Q506 817 494 825T482 845Q482 861 493 873T516 893T539 909T550 929Q550 947 529 947Q514 947 495 936T457 906L474 986Q511 1000 551 1000Z"
				   unicode="Ẳ"/>
			<glyph d="M534 486L464 161Q454 116 454 96Q454 47 512 41L286 -15L293 47Q263 17 223 1T143 -15Q87 -15 54 30T21 151Q21 239 63 315T173 433T321 475Q360 475 395 468T443 462Q487 462 534 486ZM311 386Q281 386 252 354T205 271T187 165Q187 99 227 99Q242 99 259 114T291 155T322 253T340 349Q340 385 311 386ZM233 659Q269 600 348 600Q422 600 490 659Q475 596 431 557T335 518Q289 518 259 548T230 626Q230 642 233 659ZM390 805Q423 805 444 788T466 744Q466 701 420 676Q391 660 383 654T375 640Q375 632 387 627Q377 622 363 622Q345 622 333 630T321 650Q321 666 332 678T355 698T378 714T389 734Q389 752 368 752Q353 752 334 741T296 711L313 791Q350 805 390 805Z"
				   horiz-adv-x="547" unicode="ẳ"/>
			<glyph d="M412 666H568L629 103Q633 62 646 34T679 0H418Q435 4 445 23T455 75Q455 84 454 91L448 137H215Q183 78 175 60T168 32Q168 5 192 0H-50Q-8 14 55 113ZM418 462L283 243H437ZM394 854Q430 795 509 795Q583 795 651 854Q636 791 592 752T496 713Q450 713 420 743T391 822Q391 834 394 854ZM667 1000Q680 981 680 956Q680 918 654 892T592 867Q571 867 554 875T521 892T492 910T462 918Q443 918 428 901T407 858Q391 880 391 903Q391 938 417 963T483 989Q503 989 521 981T554 964T584 947T613 939Q631 939 645 955Q660 972 667 1000Z"
				   unicode="Ẵ"/>
			<glyph d="M534 486L464 161Q454 116 454 96Q454 47 512 41L286 -15L293 47Q263 17 223 1T143 -15Q87 -15 54 30T21 151Q21 239 63 315T173 433T321 475Q360 475 395 468T443 462Q487 462 534 486ZM311 386Q281 386 252 354T205 271T187 165Q187 99 227 99Q242 99 259 114T291 155T322 253T340 349Q340 385 311 386ZM233 671Q269 612 348 612Q422 612 490 671Q475 608 431 569T335 530Q289 530 259 560T230 639Q230 651 233 671ZM506 817Q519 798 519 773Q519 735 493 709T431 684Q410 684 393 692T360 709T331 727T301 735Q282 735 267 718T246 675Q230 697 230 720Q230 755 256 780T322 806Q342 806 360 798T393 781T423 764T452 756Q470 756 484 772Q499 789 506 817Z"
				   horiz-adv-x="547" unicode="ẵ"/>
			<glyph d="M412 666H568L629 103Q633 62 646 34T679 0H418Q435 4 445 23T455 75Q455 84 454 91L448 137H215Q183 78 175 60T168 32Q168 5 192 0H-50Q-8 14 55 113ZM418 462L283 243H437ZM400 890Q413 854 443 834T514 815Q552 815 590 833Q629 852 662 890Q650 837 624 798T564 739T493 718Q449 718 421 749T394 835Q394 860 400 890ZM300 -49Q336 -49 356 -71T377 -129Q377 -170 349 -197T281 -224Q245 -224 224 -201T203 -145Q203 -105 231 -77T300 -49Z"
				   unicode="Ặ"/>
			<glyph d="M534 486L464 161Q454 116 454 96Q454 47 512 41L286 -15L293 47Q263 17 223 1T143 -15Q87 -15 54 30T21 151Q21 239 63 315T173 433T321 475Q360 475 395 468T443 462Q487 462 534 486ZM311 386Q281 386 252 354T205 271T187 165Q187 99 227 99Q242 99 259 114T291 155T322 253T340 349Q340 385 311 386ZM217 -49Q253 -49 273 -71T294 -129Q294 -170 266 -197T198 -224Q162 -224 141 -201T120 -145Q120 -105 148 -77T217 -49ZM233 701Q245 667 275 646T347 626Q385 626 424 645T495 701Q484 650 458 611T397 550T326 529Q282 529 254 560T227 646Q227 672 233 701Z"
				   horiz-adv-x="547" unicode="ặ"/>
			<glyph d="M132 666H605L566 472Q561 555 455 555H335L301 395H398Q436 395 461 405T493 431L455 248Q453 269 430 278T376 288H279L243 111H369Q434 111 466 127T529 194L488 0H-15Q42 13 58 83L167 587Q170 599 170 613Q170 637 158 650T132 666ZM245 -49Q281 -49 301 -71T322 -129Q322 -170 294 -197T226 -224Q190 -224 169 -201T148 -145Q148 -105 176 -77T245 -49Z"
				   horiz-adv-x="572" unicode="Ẹ"/>
			<glyph d="M334 484Q396 484 434 452T473 365Q473 313 434 268T331 199Q267 175 177 170Q180 150 192 130T226 100T273 91Q309 91 351 106T428 148Q405 74 342 29T203 -16Q119 -16 70 34T21 168Q21 251 64 325T179 442T334 484ZM297 390Q275 390 249 371T203 321T176 252Q215 254 254 268T314 303T335 350Q335 369 324 379T297 390ZM178 -49Q214 -49 234 -71T255 -129Q255 -170 227 -197T159 -224Q123 -224 102 -201T81 -145Q81 -105 109 -77T178 -49Z"
				   horiz-adv-x="468" unicode="ẹ"/>
			<glyph d="M132 666H605L566 472Q561 555 455 555H335L301 395H398Q436 395 461 405T493 431L455 248Q453 269 430 278T376 288H279L243 111H369Q434 111 466 127T529 194L488 0H-15Q42 13 58 83L167 587Q170 599 170 613Q170 637 158 650T132 666ZM414 907Q448 907 470 887T492 839Q492 792 444 764Q413 746 403 738T394 722Q394 713 406 708Q396 703 381 703Q367 703 355 711T344 735Q344 754 355 767T380 788T403 806T413 828Q413 837 407 842T391 848Q373 848 352 834T317 802L335 891Q374 907 414 907Z"
				   horiz-adv-x="572" unicode="Ẻ"/>
			<glyph d="M334 484Q396 484 434 452T473 365Q473 313 434 268T331 199Q267 175 177 170Q180 150 192 130T226 100T273 91Q309 91 351 106T428 148Q405 74 342 29T203 -16Q119 -16 70 34T21 168Q21 251 64 325T179 442T334 484ZM297 390Q275 390 249 371T203 321T176 252Q215 254 254 268T314 303T335 350Q335 369 324 379T297 390ZM354 720Q388 720 410 700T432 652Q432 605 384 577Q353 559 343 551T334 535Q334 526 346 521Q336 516 321 516Q307 516 295 524T284 548Q284 567 295 580T320 601T343 619T353 641Q353 650 347 655T331 661Q313 661 292 647T257 615L275 704Q314 720 354 720Z"
				   horiz-adv-x="468" unicode="ẻ"/>
			<glyph d="M132 666H605L566 472Q561 555 455 555H335L301 395H398Q436 395 461 405T493 431L455 248Q453 269 430 278T376 288H279L243 111H369Q434 111 466 127T529 194L488 0H-15Q42 13 58 83L167 587Q170 599 170 613Q170 637 158 650T132 666ZM549 871Q565 851 565 822Q565 780 531 746T450 712Q430 712 410 720T373 738T338 757T303 766Q281 766 266 751T243 699Q226 719 226 750Q226 792 257 823T335 855Q357 855 378 847T419 829T456 811T488 803Q515 803 528 820Q542 838 549 871Z"
				   horiz-adv-x="572" unicode="Ẽ"/>
			<glyph d="M334 484Q396 484 434 452T473 365Q473 313 434 268T331 199Q267 175 177 170Q180 150 192 130T226 100T273 91Q309 91 351 106T428 148Q405 74 342 29T203 -16Q119 -16 70 34T21 168Q21 251 64 325T179 442T334 484ZM297 390Q275 390 249 371T203 321T176 252Q215 254 254 268T314 303T335 350Q335 369 324 379T297 390ZM488 697Q504 677 504 648Q504 607 470 572T387 538Q369 538 349 546T311 565T275 584T242 592Q220 592 205 577T182 525Q165 545 165 576Q165 618 196 649T274 681Q296 681 317 673T358 655T395 637T427 629Q454 629 467 646Q481 664 488 697Z"
				   horiz-adv-x="468" unicode="ẽ"/>
			<glyph d="M132 666H605L566 472Q561 555 455 555H335L301 395H398Q436 395 461 405T493 431L455 248Q453 269 430 278T376 288H279L243 111H369Q434 111 466 127T529 194L488 0H-15Q42 13 58 83L167 587Q170 599 170 613Q170 637 158 650T132 666ZM540 930H680L481 787ZM416 863L539 695L394 747L224 695Z"
				   horiz-adv-x="572" unicode="Ế"/>
			<glyph d="M334 484Q396 484 434 452T473 365Q473 313 434 268T331 199Q267 175 177 170Q180 150 192 130T226 100T273 91Q309 91 351 106T428 148Q405 74 342 29T203 -16Q119 -16 70 34T21 168Q21 251 64 325T179 442T334 484ZM297 390Q275 390 249 371T203 321T176 252Q215 254 254 268T314 303T335 350Q335 369 324 379T297 390ZM474 752H614L415 609ZM350 685L473 517L328 569L158 517Z"
				   horiz-adv-x="468" unicode="ế"/>
			<glyph d="M132 666H605L566 472Q561 555 455 555H335L301 395H398Q436 395 461 405T493 431L455 248Q453 269 430 278T376 288H279L243 111H369Q434 111 466 127T529 194L488 0H-15Q42 13 58 83L167 587Q170 599 170 613Q170 637 158 650T132 666ZM183 930H309L321 787ZM416 863L539 695L394 747L224 695Z"
				   horiz-adv-x="572" unicode="Ề"/>
			<glyph d="M334 484Q396 484 434 452T473 365Q473 313 434 268T331 199Q267 175 177 170Q180 150 192 130T226 100T273 91Q309 91 351 106T428 148Q405 74 342 29T203 -16Q119 -16 70 34T21 168Q21 251 64 325T179 442T334 484ZM297 390Q275 390 249 371T203 321T176 252Q215 254 254 268T314 303T335 350Q335 369 324 379T297 390ZM117 752H243L255 609ZM350 685L473 517L328 569L158 517Z"
				   horiz-adv-x="468" unicode="ề"/>
			<glyph d="M132 666H605L566 472Q561 555 455 555H335L301 395H398Q436 395 461 405T493 431L455 248Q453 269 430 278T376 288H279L243 111H369Q434 111 466 127T529 194L488 0H-15Q42 13 58 83L167 587Q170 599 170 613Q170 637 158 650T132 666ZM416 863L539 695L394 747L224 695ZM559 945Q587 945 605 930T624 890Q624 851 582 828Q559 816 550 809T542 796Q542 788 552 784Q542 780 531 780Q519 780 509 786T500 806Q500 820 508 830T529 848T550 864T558 881Q558 897 539 898Q525 898 508 887T478 860L493 932Q523 945 559 945Z"
				   horiz-adv-x="572" unicode="Ể"/>
			<glyph d="M334 484Q396 484 434 452T473 365Q473 313 434 268T331 199Q267 175 177 170Q180 150 192 130T226 100T273 91Q309 91 351 106T428 148Q405 74 342 29T203 -16Q119 -16 70 34T21 168Q21 251 64 325T179 442T334 484ZM297 390Q275 390 249 371T203 321T176 252Q215 254 254 268T314 303T335 350Q335 369 324 379T297 390ZM350 685L473 517L328 569L158 517ZM493 767Q521 767 539 752T558 712Q558 673 516 650Q493 638 484 631T476 618Q476 610 486 606Q476 602 465 602Q453 602 443 608T434 628Q434 642 442 652T463 670T484 686T492 703Q492 719 473 720Q459 720 442 709T412 682L427 754Q457 767 493 767Z"
				   horiz-adv-x="468" unicode="ể"/>
			<glyph d="M132 666H605L566 472Q561 555 455 555H335L301 395H398Q436 395 461 405T493 431L455 248Q453 269 430 278T376 288H279L243 111H369Q434 111 466 127T529 194L488 0H-15Q42 13 58 83L167 587Q170 599 170 613Q170 637 158 650T132 666ZM560 1000Q573 980 573 956Q573 919 548 893T485 867Q464 867 447 874T415 892T385 910T355 918Q336 918 321 902T300 858Q284 879 284 903Q284 938 310 963T376 989Q396 989 414 981T447 963T477 946T506 939Q526 939 540 957Q555 976 560 1000ZM416 863L539 695L394 747L224 695Z"
				   horiz-adv-x="572" unicode="Ễ"/>
			<glyph d="M334 484Q396 484 434 452T473 365Q473 313 434 268T331 199Q267 175 177 170Q180 150 192 130T226 100T273 91Q309 91 351 106T428 148Q405 74 342 29T203 -16Q119 -16 70 34T21 168Q21 251 64 325T179 442T334 484ZM297 390Q275 390 249 371T203 321T176 252Q215 254 254 268T314 303T335 350Q335 369 324 379T297 390ZM494 823Q507 803 507 779Q507 742 482 716T419 690Q398 690 381 697T349 715T319 733T289 741Q270 741 255 725T234 681Q218 702 218 726Q218 761 244 786T310 812Q330 812 348 804T381 786T411 769T440 762Q460 762 474 780Q489 799 494 823ZM350 686L473 518L328 570L158 518Z"
				   horiz-adv-x="468" unicode="ễ"/>
			<glyph d="M132 666H605L566 472Q561 555 455 555H335L301 395H398Q436 395 461 405T493 431L455 248Q453 269 430 278T376 288H279L243 111H369Q434 111 466 127T529 194L488 0H-15Q42 13 58 83L167 587Q170 599 170 613Q170 637 158 650T132 666ZM421 900L550 695L392 764L209 695ZM245 -49Q281 -49 301 -71T322 -129Q322 -170 294 -197T226 -224Q190 -224 169 -201T148 -145Q148 -105 176 -77T245 -49Z"
				   horiz-adv-x="572" unicode="Ệ"/>
			<glyph d="M334 484Q396 484 434 452T473 365Q473 313 434 268T331 199Q267 175 177 170Q180 150 192 130T226 100T273 91Q309 91 351 106T428 148Q405 74 342 29T203 -16Q119 -16 70 34T21 168Q21 251 64 325T179 442T334 484ZM297 390Q275 390 249 371T203 321T176 252Q215 254 254 268T314 303T335 350Q335 369 324 379T297 390ZM353 703L462 501L325 570L161 501ZM178 -49Q214 -49 234 -71T255 -129Q255 -170 227 -197T159 -224Q123 -224 102 -201T81 -145Q81 -105 109 -77T178 -49Z"
				   horiz-adv-x="468" unicode="ệ"/>
			<glyph d="M125 666H400Q348 652 334 591L224 76Q221 64 221 51Q221 28 230 14T254 0H-15Q8 4 24 23T47 72L156 587Q160 606 160 613Q160 636 150 649T125 666ZM309 907Q343 907 365 887T387 839Q387 792 339 764Q308 746 298 738T289 722Q289 713 301 708Q291 703 276 703Q262 703 250 711T239 735Q239 754 250 767T275 788T298 806T308 828Q308 837 302 842T286 848Q268 848 247 834T212 802L230 891Q269 907 309 907Z"
				   horiz-adv-x="335" unicode="Ỉ"/>
			<glyph d="M278 486L197 109Q191 83 191 60Q191 32 199 17T219 0H13L93 364Q96 376 96 382Q96 399 80 411T43 427L35 428ZM239 720Q273 720 295 700T317 652Q317 605 269 577Q238 559 228 551T219 535Q219 526 231 521Q221 516 206 516Q192 516 180 524T169 548Q169 567 180 580T205 601T228 619T238 641Q238 650 232 655T216 661Q198 661 177 647T142 615L160 704Q199 720 239 720Z"
				   horiz-adv-x="286" unicode="ỉ"/>
			<glyph d="M125 666H400Q348 652 334 591L224 76Q221 64 221 51Q221 28 230 14T254 0H-15Q8 4 24 23T47 72L156 587Q160 606 160 613Q160 636 150 649T125 666ZM106 -49Q142 -49 162 -71T183 -129Q183 -170 155 -197T87 -224Q51 -224 30 -201T9 -145Q9 -105 37 -77T106 -49Z"
				   horiz-adv-x="335" unicode="Ị"/>
			<glyph d="M278 486L197 109Q191 83 191 60Q191 31 199 16T219 0H13L91 355Q96 375 96 382Q96 398 80 411T43 427L35 428ZM227 692Q263 692 283 669T304 612Q304 572 276 544T208 517Q172 517 151 539T130 596Q130 636 158 664T227 692ZM84 -49Q120 -49 140 -71T161 -129Q161 -170 133 -197T65 -224Q29 -224 8 -201T-13 -145Q-13 -105 15 -77T84 -49Z"
				   horiz-adv-x="286" unicode="ị"/>
			<glyph d="M435 682Q555 682 624 609T694 416Q694 307 640 205Q587 104 495 44T297 -15Q179 -15 109 58T40 254Q40 365 93 464T237 623T435 682ZM415 565Q366 565 324 517T257 391T232 237Q232 177 252 139T318 102Q367 102 410 149T478 272T504 428Q504 488 483 526T415 565ZM274 -49Q310 -49 330 -71T351 -129Q351 -170 323 -197T255 -224Q219 -224 198 -201T177 -145Q177 -105 205 -77T274 -49Z"
				   horiz-adv-x="691" unicode="Ọ"/>
			<glyph d="M305 482Q396 482 449 428T502 286Q502 209 462 137T358 26T216 -12Q156 -12 112 13T44 83T21 186Q21 264 58 333T161 442T305 482ZM292 378Q265 378 240 349T198 267T180 170Q180 133 193 112T228 91Q254 91 278 117T321 197T339 297Q339 335 326 356T292 378ZM190 -49Q226 -49 246 -71T267 -129Q267 -170 239 -197T171 -224Q135 -224 114 -201T93 -145Q93 -105 121 -77T190 -49Z"
				   horiz-adv-x="523" unicode="ọ"/>
			<glyph d="M435 682Q555 682 624 609T694 416Q694 307 640 205Q587 104 495 44T297 -15Q179 -15 109 58T40 254Q40 365 93 464T237 623T435 682ZM415 565Q366 565 324 517T257 391T232 237Q232 177 252 139T318 102Q367 102 410 149T478 272T504 428Q504 488 483 526T415 565ZM503 917Q537 917 559 897T581 849Q581 802 533 774Q502 756 492 748T483 732Q483 723 495 718Q485 713 470 713Q456 713 444 721T433 745Q433 764 444 777T469 798T492 816T502 838Q502 847 496 852T480 858Q462 858 441 844T406 812L424 901Q463 917 503 917Z"
				   horiz-adv-x="691" unicode="Ỏ"/>
			<glyph d="M305 482Q396 482 449 428T502 286Q502 209 462 137T358 26T216 -12Q156 -12 112 13T44 83T21 186Q21 264 58 333T161 442T305 482ZM292 378Q265 378 240 349T198 267T180 170Q180 133 193 112T228 91Q254 91 278 117T321 197T339 297Q339 335 326 356T292 378ZM361 720Q395 720 417 700T439 652Q439 605 391 577Q360 559 350 551T341 535Q341 526 353 521Q343 516 328 516Q314 516 302 524T291 548Q291 567 302 580T327 601T350 619T360 641Q360 650 354 655T338 661Q320 661 299 647T264 615L282 704Q321 720 361 720Z"
				   horiz-adv-x="523" unicode="ỏ"/>
			<glyph d="M435 682Q555 682 624 609T694 416Q694 307 640 205Q587 104 495 44T297 -15Q179 -15 109 58T40 254Q40 365 93 464T237 623T435 682ZM415 565Q366 565 324 517T257 391T232 237Q232 177 252 139T318 102Q367 102 410 149T478 272T504 428Q504 488 483 526T415 565ZM604 936H744L545 793ZM480 869L603 701L458 753L288 701Z"
				   horiz-adv-x="691" unicode="Ố"/>
			<glyph d="M305 482Q396 482 449 428T502 286Q502 209 462 137T358 26T216 -12Q156 -12 112 13T44 83T21 186Q21 264 58 333T161 442T305 482ZM292 378Q265 378 240 349T198 267T180 170Q180 133 193 112T228 91Q254 91 278 117T321 197T339 297Q339 335 326 356T292 378ZM479 752H619L420 609ZM355 685L478 517L333 569L163 517Z"
				   horiz-adv-x="523" unicode="ố"/>
			<glyph d="M435 682Q555 682 624 609T694 416Q694 307 640 205Q587 104 495 44T297 -15Q179 -15 109 58T40 254Q40 365 93 464T237 623T435 682ZM415 565Q366 565 324 517T257 391T232 237Q232 177 252 139T318 102Q367 102 410 149T478 272T504 428Q504 488 483 526T415 565ZM247 936H373L385 793ZM480 869L603 701L458 753L288 701Z"
				   horiz-adv-x="691" unicode="Ồ"/>
			<glyph d="M305 482Q396 482 449 428T502 286Q502 209 462 137T358 26T216 -12Q156 -12 112 13T44 83T21 186Q21 264 58 333T161 442T305 482ZM292 378Q265 378 240 349T198 267T180 170Q180 133 193 112T228 91Q254 91 278 117T321 197T339 297Q339 335 326 356T292 378ZM122 752H248L260 609ZM355 685L478 517L333 569L163 517Z"
				   horiz-adv-x="523" unicode="ồ"/>
			<glyph d="M435 682Q555 682 624 609T694 416Q694 307 640 205Q587 104 495 44T297 -15Q179 -15 109 58T40 254Q40 365 93 464T237 623T435 682ZM415 565Q366 565 324 517T257 391T232 237Q232 177 252 139T318 102Q367 102 410 149T478 272T504 428Q504 488 483 526T415 565ZM480 869L603 701L458 753L288 701ZM623 951Q651 951 669 936T688 896Q688 857 646 834Q623 822 614 815T606 802Q606 794 616 790Q606 786 595 786Q583 786 573 792T564 812Q564 826 572 836T593 854T614 870T622 887Q622 903 603 904Q589 904 572 893T542 866L557 938Q587 951 623 951Z"
				   horiz-adv-x="691" unicode="Ổ"/>
			<glyph d="M305 482Q396 482 449 428T502 286Q502 209 462 137T358 26T216 -12Q156 -12 112 13T44 83T21 186Q21 264 58 333T161 442T305 482ZM292 378Q265 378 240 349T198 267T180 170Q180 133 193 112T228 91Q254 91 278 117T321 197T339 297Q339 335 326 356T292 378ZM355 685L478 517L333 569L163 517ZM498 767Q526 767 544 752T563 712Q563 673 521 650Q498 638 489 631T481 618Q481 610 491 606Q481 602 470 602Q458 602 448 608T439 628Q439 642 447 652T468 670T489 686T497 703Q497 719 478 720Q464 720 447 709T417 682L432 754Q462 767 498 767Z"
				   horiz-adv-x="523" unicode="ổ"/>
			<glyph d="M435 682Q555 682 624 609T694 416Q694 307 640 205Q587 104 495 44T297 -15Q179 -15 109 58T40 254Q40 365 93 464T237 623T435 682ZM415 565Q366 565 324 517T257 391T232 237Q232 177 252 139T318 102Q367 102 410 149T478 272T504 428Q504 488 483 526T415 565ZM624 1006Q637 986 637 962Q637 925 612 899T549 873Q528 873 511 880T479 898T449 916T419 924Q400 924 385 908T364 864Q348 885 348 909Q348 944 374 969T440 995Q460 995 478 987T511 969T541 952T570 945Q590 945 604 963Q619 982 624 1006ZM480 869L603 701L458 753L288 701Z"
				   horiz-adv-x="691" unicode="Ỗ"/>
			<glyph d="M305 482Q396 482 449 428T502 286Q502 209 462 137T358 26T216 -12Q156 -12 112 13T44 83T21 186Q21 264 58 333T161 442T305 482ZM292 378Q265 378 240 349T198 267T180 170Q180 133 193 112T228 91Q254 91 278 117T321 197T339 297Q339 335 326 356T292 378ZM499 822Q512 802 512 778Q512 741 487 715T424 689Q403 689 386 696T354 714T324 732T294 740Q275 740 260 724T239 680Q223 701 223 725Q223 760 249 785T315 811Q335 811 353 803T386 785T416 768T445 761Q465 761 479 779Q494 798 499 822ZM355 685L478 517L333 569L163 517Z"
				   horiz-adv-x="523" unicode="ỗ"/>
			<glyph d="M435 682Q555 682 624 609T694 416Q694 307 640 205Q587 104 495 44T297 -15Q179 -15 109 58T40 254Q40 365 93 464T237 623T435 682ZM415 565Q366 565 324 517T257 391T232 237Q232 177 252 139T318 102Q367 102 410 149T478 272T504 428Q504 488 483 526T415 565ZM473 900L602 695L444 764L261 695ZM274 -49Q310 -49 330 -71T351 -129Q351 -170 323 -197T255 -224Q219 -224 198 -201T177 -145Q177 -105 205 -77T274 -49Z"
				   horiz-adv-x="691" unicode="Ộ"/>
			</font>
</defs>
</svg>
