<?xml version="1.0" encoding="UTF-8"?>
<svg height="100%" width="100%" xmlns="http://www.w3.org/2000/svg">
	<defs>
		<font horiz-adv-x="520" id="web">
			<font-face alphabetic="0" ascent="1006" descent="-258" font-family="" panose-1="2 2 6 0 0 0 0 0 0 0"/>
			<missing-glyph
					d="M0 718H512V0H0ZM50 667V50H462V667ZM259 609Q312 609 347 573T383 478Q383 442 370 417T319 357Q286 327 278 311Q271 294 271 234H225L223 253Q223 294 228 313T253 358T286 395Q332 436 332 474Q332 507 309 533T256 559Q187 559 174 464L124 472Q131 540 165 574T259 609ZM222 184H278V117H222Z"
					horiz-adv-x="512"/>
			<glyph d="" horiz-adv-x="213" unicode=" "/>
			<glyph d="M53 666H234Q218 658 208 624T197 539L187 303Q186 273 179 247T165 205T151 177T144 165Q143 167 136 177T122 206T108 248T101 303L91 539Q88 592 78 625T53 666ZM144 113Q174 113 192 95T210 50Q210 23 192 5T144 -13Q114 -13 96 5T78 50Q78 76 95 94T144 113Z"
				   horiz-adv-x="287" unicode="!"/>
			<glyph d="M293 666H386V527Q386 484 373 439T340 361H337Q318 393 305 438T293 527ZM101 666H194V527Q194 485 181 440T148 361H145Q126 393 113 438T101 527Z"
				   horiz-adv-x="488" unicode="&quot;"/>
			<glyph d="M213 666H269L224 470H363L407 666H465L420 470H509V422H409L370 253H473V206H357L309 0H255L302 206H163L113 0H60L107 206H17V253H118L158 422H59V470H169ZM214 422L175 253H314L352 422Z"
				   horiz-adv-x="534" unicode="#"/>
			<glyph d="M213 740H304V660Q384 653 437 617V468Q418 523 369 556T263 590Q215 590 185 567T156 506Q156 476 180 450T256 400Q358 351 387 331T435 289T463 241T473 185Q473 111 429 65T304 8V-100H213V6Q164 11 121 24T51 55V231Q72 162 129 119T258 77Q310 77 343 101T376 162Q376 190 362 210T327 247T277 278T219 306T162 336T111 373T76 421T63 484Q63 551 103 597T213 656Z"
				   horiz-adv-x="528" unicode="$"/>
			<glyph d="M180 681Q223 681 256 659T308 598T326 514Q326 442 285 394Q245 346 180 346Q116 346 75 393T35 514Q35 560 53 599T105 659T180 681ZM541 666H607L170 0H102ZM525 322Q568 322 601 300T652 239T671 155Q671 82 630 34Q590 -13 525 -13Q460 -13 420 35T381 155Q381 201 399 239T450 299T525 322ZM179 626Q147 626 130 597T114 515Q114 460 131 430T181 401Q213 401 230 430T248 513Q248 566 229 596T179 626ZM525 269Q493 269 476 239T459 156Q459 102 477 73T527 44Q559 44 576 73T593 156Q593 209 575 239T525 269Z"
				   horiz-adv-x="709" unicode="%"/>
			<glyph d="M280 681Q357 681 409 642T461 538Q461 501 446 470T402 411T313 347Q401 250 483 183Q520 229 543 283T567 377Q567 414 537 434H718Q700 424 683 398T655 338Q638 285 610 233T547 139Q640 72 689 72Q708 72 722 81T752 109Q735 50 708 17T640 -15Q589 -15 472 69Q370 -16 254 -16Q149 -16 92 28T35 154Q35 207 68 252T178 345Q136 397 116 438T97 516Q97 589 148 635T280 681ZM275 612Q239 612 215 589T192 530Q192 509 207 479T265 395Q323 433 345 463T368 525Q368 561 341 586T275 612ZM226 293Q145 237 145 178Q145 128 182 94T274 61Q340 61 407 116Q317 190 226 293Z"
				   horiz-adv-x="762" unicode="&amp;"/>
			<glyph d="M81 666H174V527Q174 485 161 440T128 361H125Q106 393 93 438T81 527Z" horiz-adv-x="254"
				   unicode="'"/>
			<glyph d="M309 703Q233 649 189 526T146 256Q146 106 190 -18T310 -201Q232 -176 170 -109T74 52T39 252Q39 354 72 448T168 609Q231 677 309 703Z"
				   horiz-adv-x="320" unicode="("/>
			<glyph d="M11 703Q88 677 150 609T246 447T281 250Q281 147 246 52T150 -108T10 -201Q86 -145 130 -22T175 248Q175 397 130 520Q86 644 11 703Z"
				   horiz-adv-x="320" unicode=")"/>
			<glyph d="M208 706Q202 673 202 638Q202 603 216 542Q290 609 317 669L382 574Q305 560 235 515Q314 463 379 453L315 360Q293 404 270 432T216 489Q200 425 200 390Q200 356 206 325L101 359Q158 420 186 499Q94 491 35 458V573Q70 553 104 544T186 531Q151 617 103 671Z"
				   horiz-adv-x="405" unicode="*"/>
			<glyph d="M302 563H374V318H610V248H374V0H302V248H64V318H302Z" horiz-adv-x="674" unicode="+"/>
			<glyph d="M123 126Q163 126 188 92T213 7Q213 -42 190 -85T127 -154Q87 -180 33 -183Q77 -164 107 -121T137 -35Q137 -16 131 -1Q121 -6 111 -6Q84 -6 67 11T51 55Q51 86 71 106T123 126Z"
				   horiz-adv-x="241" unicode=","/>
			<glyph d="M46 293H291V216H46Z" horiz-adv-x="336" unicode="-"/>
			<glyph d="M121 128Q154 128 174 108T194 58Q194 27 173 7T121 -13Q89 -13 69 7T49 58Q49 89 69 108T121 128Z"
				   horiz-adv-x="241" unicode="."/>
			<glyph d="M327 678H412L123 -14H36Z" horiz-adv-x="441" unicode="/"/>
			<glyph d="M266 681Q333 681 384 640T464 524T492 348Q492 183 429 84Q367 -15 262 -15Q194 -15 142 25T63 139T36 314Q36 423 64 507T145 636T266 681ZM254 605Q200 605 169 542T139 368Q139 271 155 201T201 95T271 60Q325 60 355 121T386 297Q386 441 351 523T254 605Z"
				   horiz-adv-x="528" unicode="0"/>
			<glyph d="M258 666H329V125Q329 27 383 0H177Q205 14 217 46T230 125V537Q160 465 145 448L94 499Q175 574 258 666Z"
				   horiz-adv-x="528" unicode="1"/>
			<glyph d="M263 681Q320 681 367 657T441 591T467 492Q467 450 447 405T391 308T250 140L199 83H382Q422 83 454 95T502 133L480 0H21L175 172Q282 292 319 357T357 478Q357 537 323 573T236 609Q191 609 162 584T134 526Q134 503 147 485T186 462L110 385Q81 395 59 425T38 496Q38 548 65 590T144 657T263 681Z"
				   horiz-adv-x="528" unicode="2"/>
			<glyph d="M63 666H485L270 388Q369 370 420 320T472 195Q472 101 406 43T233 -15Q153 -15 96 15T18 101L108 168Q123 114 157 86T242 58Q299 58 333 92T367 183Q367 224 342 255T272 304T138 326L330 583H161Q120 583 87 569T41 533Z"
				   horiz-adv-x="528" unicode="3"/>
			<glyph d="M274 666H397V258H490V179H397V104Q397 21 429 0H269Q298 23 298 105V179H10V216ZM298 567L117 258H298Z"
				   horiz-adv-x="528" unicode="4"/>
			<glyph d="M458 685L440 583H174L157 415Q264 415 332 389T438 313T475 197Q475 136 445 87T360 12T235 -15Q183 -15 139 -1T65 40T21 101L111 168Q125 116 159 87T240 58Q302 58 336 91T370 181Q370 230 345 262T271 314T131 333H72L107 666H347Q424 666 458 685Z"
				   horiz-adv-x="528" unicode="5"/>
			<glyph d="M312 675L470 657Q352 622 269 546T144 362L149 359Q174 397 212 419T296 441Q354 441 398 413T467 335T492 226Q492 158 464 102T384 15T265 -16Q159 -16 100 52T41 238Q41 326 75 413T172 570T312 675ZM263 366Q212 366 178 324T145 225Q145 154 184 105T284 57Q333 57 366 98T399 197Q399 269 361 317T263 366Z"
				   horiz-adv-x="528" unicode="6"/>
			<glyph d="M57 666H519L350 313Q300 207 282 148T265 39Q265 20 268 0H115Q180 157 388 586H157Q115 586 83 570T35 523Z"
				   horiz-adv-x="528" unicode="7"/>
			<glyph d="M270 681Q355 681 411 635T467 518Q467 463 436 420Q406 377 353 360Q420 337 456 291T493 182Q493 125 462 79T377 9T258 -16Q193 -16 142 6T62 68T34 164Q34 225 72 272T176 340Q123 360 91 402T59 499Q59 550 87 592T164 657T270 681ZM253 612Q209 612 182 584T155 511Q155 458 188 422T274 387Q316 387 343 415T371 492Q371 545 338 578T253 612ZM250 305Q199 305 168 273T137 190Q137 133 175 95T274 57Q329 57 360 87T391 170Q391 228 351 266T250 305Z"
				   horiz-adv-x="528" unicode="8"/>
			<glyph d="M265 681Q370 681 429 613T489 426Q489 336 453 248T356 93T219 -9L61 9Q178 43 261 118T387 302L382 305Q357 267 319 245T236 223Q177 223 132 251T63 329T39 439Q39 507 67 563T146 650T265 681ZM246 608Q198 608 165 566T133 467Q133 421 150 382T198 320T269 298Q320 298 353 339T386 439Q386 511 346 559T246 608Z"
				   horiz-adv-x="528" unicode="9"/>
			<glyph d="M121 436Q154 436 173 416T193 366Q193 336 173 316T121 296Q88 296 68 315T48 366Q48 396 68 416T121 436ZM121 128Q154 128 173 108T193 58Q193 28 173 7Q153 -13 121 -13Q88 -13 68 7T48 58Q48 88 68 108T121 128Z"
				   horiz-adv-x="241" unicode=":"/>
			<glyph d="M126 436Q159 436 179 416T199 366Q199 336 179 316T126 296Q93 296 73 315T54 366Q54 397 73 416T126 436ZM126 126Q166 126 190 93T215 7Q215 -42 192 -84T129 -153Q89 -180 35 -183Q79 -165 109 -122T139 -35Q139 -14 133 -1Q123 -6 113 -6Q86 -6 70 11T54 55Q54 86 74 106T126 126Z"
				   horiz-adv-x="241" unicode=";"/>
			<glyph d="M577 576V495L185 284V278L577 73V-9L96 254V312Z" horiz-adv-x="674" unicode="&lt;"/>
			<glyph d="M64 426H610V355H64ZM64 216H610V145H64Z" horiz-adv-x="674" unicode="="/>
			<glyph d="M96 576L577 312V254L96 -9V73L489 283V289L96 495Z" horiz-adv-x="674" unicode="&gt;"/>
			<glyph d="M245 682Q329 682 377 643T425 535Q425 492 401 452T327 370Q271 321 250 291T229 233Q229 200 258 185Q246 171 222 171Q188 171 163 194T139 253Q139 290 160 325T225 397Q271 437 291 466T311 525Q311 562 287 584T224 607Q179 607 138 577T77 497V639Q109 658 153 670T245 682ZM208 111Q238 111 255 93T273 49Q273 22 255 4T208 -13Q180 -13 161 4T143 49Q143 76 161 93T208 111Z"
				   horiz-adv-x="449" unicode="?"/>
			<glyph d="M504 637Q607 637 689 596T817 479T863 307Q863 224 828 151T739 39T621 -1Q568 -1 545 21T519 95Q494 46 458 22T373 -1Q317 -1 284 42T252 163Q252 239 283 312T365 424T477 464Q507 464 528 457T565 446T596 442Q623 442 655 458L600 131Q598 121 598 105Q598 79 609 62T645 45Q687 45 726 79T788 173T811 307Q811 392 772 458T661 561T497 598Q388 598 298 547T158 407T109 208Q109 103 156 21T292 -104T497 -148Q592 -148 671 -114T809 -19L849 -42Q786 -112 695 -150T497 -189Q360 -189 261 -141T110 -5T58 201Q58 325 114 424T274 580T504 637ZM470 413Q440 413 411 376T365 280T347 164Q347 111 363 84T406 57Q430 57 453 77T493 133T524 236T538 339Q538 413 470 413Z"
				   horiz-adv-x="921" unicode="@"/>
			<glyph d="M312 666H398L614 119Q633 69 657 37T703 0H480Q496 2 505 13T514 43Q514 59 498 100L468 179H205Q169 82 166 69T163 48Q163 28 173 15T200 0H14Q34 4 57 36T100 121ZM335 523L230 246H442Z"
				   horiz-adv-x="718" unicode="A"/>
			<glyph d="M40 666H330Q386 666 427 645T491 588T514 506Q514 450 480 405T394 350Q462 341 504 292T546 177Q546 128 521 86T453 22T352 0H46Q68 5 80 33T93 107V562Q93 606 79 633T40 666ZM203 309V71H310Q366 71 398 99T430 183Q430 241 395 275T301 309ZM203 596V379H296Q343 379 370 410T398 494Q398 538 368 567T291 596Z"
				   horiz-adv-x="584" unicode="B"/>
			<glyph d="M400 682Q448 682 497 670T576 641V465Q553 534 503 569T386 605Q319 605 267 569T187 472T160 338Q160 263 189 199T270 101T391 66Q443 66 497 93T590 169V79Q552 35 495 10T374 -15Q275 -15 200 27T83 147T42 319Q42 419 88 504T215 636T400 682Z"
				   horiz-adv-x="640" unicode="C"/>
			<glyph d="M41 666H322Q422 666 498 625T615 510T656 340Q656 240 615 162T496 42T315 0H46Q60 3 71 15T89 51T96 113V563Q96 605 81 632T41 666ZM207 596V71H322Q385 71 433 101T509 193T538 333Q538 459 476 527T296 596Z"
				   horiz-adv-x="698" unicode="D"/>
			<glyph d="M37 666H454V517Q443 550 429 565T394 588T339 596H202V374H317Q349 374 369 382T396 406V270Q390 287 370 295T319 303H202V71H347Q409 71 440 89T497 160L470 0H44Q66 5 78 33T91 107V563Q91 605 77 632T37 666Z"
				   horiz-adv-x="521" unicode="E"/>
			<glyph d="M39 666H459V518Q448 549 433 563T396 587T339 596H206V374H323Q356 374 375 384T401 412V264Q396 283 375 293T323 303H206V100Q206 67 212 46T229 14T253 0H46Q60 3 71 15T88 48T95 103V564Q95 605 80 632T39 666Z"
				   horiz-adv-x="486" unicode="F"/>
			<glyph d="M400 681Q512 681 591 640V491Q563 547 508 576T385 605Q318 605 266 571T187 475T159 337Q159 258 189 195T275 97T400 63Q438 63 487 80V210Q487 246 473 270T434 301H644Q620 295 607 271T595 212V27Q551 7 494 -4T375 -16Q276 -16 201 25T84 144T41 318Q41 421 86 505T213 635T400 681Z"
				   horiz-adv-x="693" unicode="G"/>
			<glyph d="M39 666H246Q223 660 211 633T199 564V374H518V564Q518 605 505 633T469 666H676Q653 660 641 633T629 564V102Q629 59 641 31T675 0H470Q484 3 494 14T511 46T518 102V303H199V102Q199 69 205 47T222 13T245 0H41Q54 3 64 14T81 46T88 102V564Q88 605 75 632T39 666Z"
				   horiz-adv-x="717" unicode="H"/>
			<glyph d="M41 666H247Q225 660 212 633T200 567V96Q200 65 206 45T223 13T246 0H42Q54 2 65 13T83 44T90 96V567Q90 606 78 632T41 666Z"
				   horiz-adv-x="290" unicode="I"/>
			<glyph d="M57 666H265Q242 659 230 632T218 566V141Q218 32 179 -18T66 -69Q5 -69 -37 -26Q-19 -32 0 -32Q53 -32 80 14T108 152V567Q108 607 95 634T57 666Z"
				   horiz-adv-x="307" unicode="J"/>
			<glyph d="M39 666H245Q223 660 211 633T199 564V360L385 561Q435 616 435 643Q435 660 414 666H632Q603 660 563 631T483 558L304 368L515 110Q547 71 570 49T611 16T650 0H461L199 326V101Q199 55 212 29T244 0H40Q63 5 75 31T88 101V564Q88 605 75 632T39 666Z"
				   horiz-adv-x="666" unicode="K"/>
			<glyph d="M41 666H243Q221 661 208 632T196 563V71H336Q388 71 413 77T456 98T495 153L472 0H46Q65 3 76 33T88 112V563Q88 605 76 632T41 666Z"
				   unicode="L"/>
			<glyph d="M41 666H233L430 206L626 666H800Q777 660 764 634T752 566V103Q752 69 759 47T777 14T800 0H602Q623 5 634 32T646 103V527L412 -14L176 525V109Q176 73 184 50T204 15T231 0H41Q56 3 68 15T89 50T97 109V569Q97 609 83 634T41 666Z"
				   horiz-adv-x="843" unicode="M"/>
			<glyph d="M13 666H181L530 218V566Q530 607 516 633T478 666H661Q637 660 625 633T613 566V0H541Q531 29 507 69T449 151L179 487V100Q179 67 187 46T207 13T233 0H46Q69 5 82 30T95 100V557Q95 589 76 617T13 666Z"
				   horiz-adv-x="698" unicode="N"/>
			<glyph d="M379 682Q470 682 542 639T655 517T695 342Q695 243 651 160Q608 78 531 31T359 -15Q268 -15 195 28T82 149T41 325Q41 424 84 506T206 635T379 682ZM357 604Q299 604 252 573T179 484T153 355Q153 270 181 203T261 100T380 64Q437 64 484 96Q532 128 558 185T584 317Q584 399 555 465T475 567T357 604Z"
				   horiz-adv-x="736" unicode="O"/>
			<glyph d="M35 666H309Q372 666 420 640T495 569T522 468Q522 408 492 359T410 284T287 257Q258 257 230 261T193 269V101Q193 68 200 47T218 14T243 0H41Q55 3 65 14T81 46T88 101V562Q88 604 74 632T35 666ZM193 596V340Q228 329 279 329Q340 329 374 366T409 463Q409 523 372 559T275 596Z"
				   horiz-adv-x="552" unicode="P"/>
			<glyph d="M357 604Q299 604 252 573T179 484T153 355Q153 270 181 203T261 100T380 64Q437 64 484 96Q532 128 558 185T584 317Q584 399 555 465T475 567T357 604ZM379 682Q470 682 542 639T655 517T695 342Q695 249 657 171T552 45Q586 12 645 -9Q705 -30 764 -33Q715 -69 636 -69Q576 -69 520 -52T422 -9Q399 -15 359 -15Q268 -15 195 28T82 149T41 325Q41 424 84 506T206 635T379 682Z"
				   horiz-adv-x="736" unicode="Q"/>
			<glyph d="M41 666H297Q362 666 413 642T492 574T521 477Q521 431 500 391T440 326T350 296Q375 286 401 240L502 66Q534 11 590 0H416L293 220Q275 253 258 267T219 281H202V101Q202 68 208 46T225 14T248 0H48Q69 4 82 30T95 101V561Q95 603 81 631T41 666ZM201 596V346H276Q339 346 374 380T409 473Q409 525 373 560T276 596Z"
				   horiz-adv-x="596" unicode="R"/>
			<glyph d="M275 680Q320 680 362 667T431 635V496Q416 526 390 551T333 591T264 606Q214 606 183 580T152 516Q152 491 164 471T201 434T286 388Q366 350 400 322T453 258T472 177Q472 88 407 36T235 -15Q182 -15 132 -1T49 36V203Q79 130 126 95T243 61Q295 61 330 86T366 153Q366 190 339 220T258 279Q182 316 150 335T98 376T64 426T52 490Q52 576 113 628T275 680Z"
				   unicode="S"/>
			<glyph d="M40 666H591L603 510Q588 549 574 564T539 588T484 596H370V102Q370 68 377 46T394 14T418 0H212Q225 2 236 13T253 46T260 102V596H134Q107 596 88 588T56 565T27 510Z"
				   horiz-adv-x="630" unicode="T"/>
			<glyph d="M37 666H241Q219 660 207 633T196 567V228Q196 140 232 100T351 61Q427 61 463 100T499 227V563Q499 605 486 632T446 666H641Q617 660 604 632T591 563V231Q591 105 528 45T341 -15Q210 -15 147 43T85 224V565Q85 606 73 632T37 666Z"
				   horiz-adv-x="673" unicode="U"/>
			<glyph d="M11 666H233Q200 657 200 624Q200 607 216 568L372 172L523 573Q535 606 535 620Q535 637 526 649T496 666H690Q667 660 644 629T603 551L388 0H316L99 554Q81 600 58 629T11 666Z"
				   horiz-adv-x="711" unicode="V"/>
			<glyph d="M10 666H233Q217 660 211 647T205 616Q205 595 217 558L342 182L468 535Q450 593 438 615T414 650T390 666H593Q576 661 568 647T560 614Q560 594 572 558L697 182L825 562Q834 587 834 613Q834 655 797 666H991Q965 660 943 629T905 551L722 0H642L503 420L357 0H280L96 555Q81 601 58 630T10 666Z"
				   horiz-adv-x="1001" unicode="W"/>
			<glyph d="M10 666H242Q228 661 222 652T216 632Q216 611 246 563L341 416L438 557Q476 611 476 634Q476 657 453 666H649Q627 660 598 632T541 565L387 345L533 120Q565 69 597 36T650 0H416Q428 2 435 11T442 35Q442 60 408 112L319 247L227 116Q187 60 187 34Q187 5 213 0H11Q31 5 64 37T132 120L272 318L117 557Q87 602 59 631T10 666Z"
				   horiz-adv-x="667" unicode="X"/>
			<glyph d="M8 666H230Q204 658 204 631Q204 610 230 564L340 368L443 550Q476 607 476 631Q476 644 470 653T450 666H631Q611 660 586 632T536 559L376 281V102Q376 69 382 47T398 14T421 0H217Q231 3 241 14T257 47T264 102V278L105 561Q81 604 55 632T8 666Z"
				   horiz-adv-x="642" unicode="Y"/>
			<glyph d="M45 666H533L193 71H397Q438 71 465 82T513 119T554 200L536 0H26L368 596H180Q140 596 113 584T71 552T45 489Z"
				   horiz-adv-x="583" unicode="Z"/>
			<glyph d="M42 679H243V622H124V-107H243V-165H42Z" horiz-adv-x="281" unicode="["/>
			<glyph d="M32 678H116L408 -14H323Z" horiz-adv-x="441" unicode="\"/>
			<glyph d="M38 679H238V-165H38V-107H156V622H38Z" horiz-adv-x="281" unicode="]"/>
			<glyph d="M301 726H374L586 203H503L337 629H332L171 203H89Z" horiz-adv-x="674" unicode="^"/>
			<glyph d="M4 -86H538V-132H4Z" horiz-adv-x="543" unicode="_"/>
			<glyph d="M99 666H239L295 511Z" horiz-adv-x="466" unicode="`"/>
			<glyph d="M241 485Q321 485 362 447T404 340V138Q404 97 423 71T480 45Q483 45 493 47Q469 30 444 13T396 -21Q372 -18 348 2T319 47Q302 19 263 2T177 -15Q116 -15 79 17T42 101Q42 160 111 206T305 281V327Q305 425 227 425Q189 425 166 408T143 366Q143 352 149 341T165 327L63 287Q51 315 51 342Q51 402 105 443T241 485ZM305 226Q138 189 138 115Q138 85 159 67T210 49Q249 49 277 74T305 137Z"
				   horiz-adv-x="477" unicode="a"/>
			<glyph d="M170 699V413Q192 445 230 465T309 485Q360 485 399 457T461 377T483 256Q483 183 454 120T374 21T260 -14Q224 -14 202 -9T166 0T142 9T120 14Q92 14 70 -14V538Q70 589 57 614T15 639H5ZM273 407Q232 407 200 371T169 287V133Q169 95 191 74T258 54Q311 54 344 104T377 232Q377 309 348 358T273 407Z"
				   horiz-adv-x="519" unicode="b"/>
			<glyph d="M260 485Q324 485 365 445T409 340L309 298Q315 316 315 333Q315 371 294 392T241 414Q192 414 161 368T130 252Q130 171 169 116T274 61Q311 61 348 82T418 145Q403 73 354 29T239 -15Q177 -15 130 13T59 94T35 215Q35 292 65 354T147 450T260 485Z"
				   horiz-adv-x="441" unicode="c"/>
			<glyph d="M454 699V135Q454 85 465 62T503 39H515L362 -21L361 53Q341 25 301 5T220 -15Q136 -15 85 47T35 218Q35 293 63 354T143 449T255 484Q289 484 314 474T355 447V543Q355 590 342 614T299 638H290ZM263 415Q227 415 199 393T155 331T140 244Q140 160 169 110T250 61Q292 61 324 92T356 162V311Q356 360 331 387T263 415Z"
				   unicode="d"/>
			<glyph d="M246 485Q330 485 378 417T429 231H133L135 220Q144 149 185 106T285 63Q326 63 366 84T436 142Q418 63 369 24T247 -15Q184 -15 136 16T61 102T35 226Q35 298 62 357T137 451T246 485ZM241 423Q197 423 166 383T133 287H329Q329 346 305 384T241 423Z"
				   horiz-adv-x="464" unicode="e"/>
			<glyph d="M252 694Q268 694 306 688V594Q275 624 242 624Q217 624 204 603T192 531V468H306V403H192V105Q192 71 198 49T213 15T234 0H48Q69 4 81 31T93 105V403H14V468H93V495Q93 587 136 640T252 694Z"
				   horiz-adv-x="324" unicode="f"/>
			<glyph d="M240 485Q276 485 316 473T393 462Q441 462 472 482V405Q467 403 444 401T395 400Q410 381 417 356T425 308Q425 262 401 225T335 167T237 147Q220 147 202 150Q149 125 149 100Q149 88 167 79T219 70L334 67Q398 65 435 38T472 -35Q472 -79 439 -116T346 -174T205 -195Q124 -195 74 -170T25 -104Q25 -72 52 -42T115 3Q53 20 53 66Q53 90 78 118T140 165Q98 182 71 220T44 308Q44 357 68 398T138 462T240 485ZM228 425Q190 425 167 397T145 327Q145 277 172 242T242 207Q278 207 300 235T323 307Q323 357 296 391T228 425ZM173 -10Q116 -40 116 -75Q116 -100 145 -115T233 -130Q301 -130 342 -112T383 -62Q383 -38 360 -27T289 -14Z"
				   horiz-adv-x="497" unicode="g"/>
			<glyph d="M173 699V409Q199 440 241 462T323 485Q386 485 422 445T459 326V96Q459 65 465 44T481 13T502 0H323Q333 2 341 13T354 43T359 94V300Q359 356 340 382T282 408Q238 408 205 374T173 292V94Q173 54 184 29T214 0H29Q42 2 51 13T67 44T74 97V528Q74 582 61 606T16 631H6Z"
				   horiz-adv-x="530" unicode="h"/>
			<glyph d="M170 489V96Q170 64 176 43T193 12T214 0H26Q48 4 59 29T71 96V339Q71 381 59 402T19 423H7ZM113 681Q143 681 161 663T179 617Q179 588 160 570T113 552Q84 552 65 570T46 617Q46 645 64 663T113 681Z"
				   horiz-adv-x="240" unicode="i"/>
			<glyph d="M109 681Q139 681 157 663T176 617Q176 588 157 570T109 552Q79 552 61 570T43 617Q43 644 60 662T109 681ZM172 489V-14Q172 -189 37 -189Q12 -189 -14 -178T-61 -148Q-42 -154 -28 -154Q27 -154 49 -121T72 -15V344Q72 385 60 404T21 423H8Z"
				   horiz-adv-x="240" unicode="j"/>
			<glyph d="M171 695V262L294 386Q327 419 327 441Q327 461 299 468H513Q481 457 449 434T386 381L270 268L410 96Q476 15 522 14Q529 14 535 15Q501 -11 430 -11Q392 -11 361 8T295 73L215 179L171 235V96Q171 65 177 44T193 13T213 0H28Q48 4 59 29T71 96V533Q71 584 58 608T15 633H6Z"
				   horiz-adv-x="535" unicode="k"/>
			<glyph d="M170 695V96Q170 65 176 44T191 13T212 0H26Q39 3 49 14T65 44T71 96V533Q71 584 58 609T15 633H6Z"
				   horiz-adv-x="240" unicode="l"/>
			<glyph d="M167 489L168 406Q192 440 235 462T322 485Q362 485 390 463T428 406Q454 441 498 463T590 485Q653 485 687 441T721 320V96Q721 54 732 29T763 0H583Q601 4 611 28T622 96V295Q622 408 552 408Q507 408 476 375T446 295V96Q446 52 457 28T485 0H308Q325 2 335 28T346 96V295Q346 349 328 378T277 408Q234 408 202 374T170 295V96Q170 65 176 44T191 13T211 0H27Q48 5 59 29T71 94V333Q71 381 60 402T20 423H8Z"
				   horiz-adv-x="794" unicode="m"/>
			<glyph d="M167 489L168 406Q192 439 236 462T322 485Q386 485 421 444T457 327V96Q457 54 468 29T499 0H318Q337 5 347 29T357 93V301Q357 356 336 382T281 408Q239 408 204 374T170 293V93Q170 62 176 42T191 12T211 0H26Q47 4 59 28T71 94V333Q71 379 60 401T20 423H8Z"
				   horiz-adv-x="530" unicode="n"/>
			<glyph d="M276 485Q345 485 397 454T477 367T506 244Q506 174 475 113Q445 53 391 19T266 -15Q197 -15 145 16T66 102T38 226Q38 296 68 356T152 451T276 485ZM261 416Q207 416 174 369T141 249Q141 196 158 151T207 80T281 54Q336 54 368 102T401 223Q401 276 383 320T334 390T261 416Z"
				   horiz-adv-x="544" unicode="o"/>
			<glyph d="M163 489L164 408Q189 446 225 465T303 485Q354 485 395 456T459 375T483 251Q483 176 455 115T376 20T262 -13Q197 -13 167 23V-86Q167 -126 178 -150T211 -181H30Q40 -179 49 -168T63 -137T69 -86V333Q69 379 58 401T19 423H9ZM267 408Q227 408 197 374T167 289V141Q167 100 188 77T255 54Q309 54 342 102T376 228Q376 312 346 360T267 408Z"
				   horiz-adv-x="519" unicode="p"/>
			<glyph d="M448 486V-86Q448 -125 458 -150T490 -181H311Q322 -178 330 -167T344 -137T349 -86V59Q326 24 289 5T212 -14Q161 -14 121 14T58 94T36 216Q36 289 65 351T145 449T260 485Q294 485 314 480T349 471T373 461T397 457Q414 457 425 464T448 486ZM261 417Q207 417 174 366T141 239Q141 163 170 113T246 63Q287 63 318 99T350 184V338Q350 376 327 396T261 417Z"
				   horiz-adv-x="517" unicode="q"/>
			<glyph d="M163 489L164 374Q182 420 220 452T299 485Q326 485 347 473V340Q336 361 315 375T270 389Q242 389 218 367T180 306T167 217V96Q167 65 173 44T189 13T210 0H26Q46 4 57 29T69 96V344Q69 387 58 406T21 426H10Z"
				   horiz-adv-x="368" unicode="r"/>
			<glyph d="M214 485Q250 485 281 477T333 458V336Q311 377 278 398T207 419Q172 419 153 403T134 363Q134 338 152 320T237 271Q306 240 334 206T362 128Q362 63 315 24T185 -15Q143 -15 101 -4T39 24V156Q61 103 99 77T188 51Q225 51 247 66T269 108Q269 130 253 146T203 180L151 207Q96 234 70 266T44 342Q44 407 89 446T214 485Z"
				   horiz-adv-x="390" unicode="s"/>
			<glyph d="M173 601V468H303V403H173V140Q173 98 189 80T230 62Q253 62 278 76T319 114Q309 52 274 18T187 -16Q135 -16 104 18T74 109V403H1Z"
				   horiz-adv-x="331" unicode="t"/>
			<glyph d="M7 468H165V169Q165 114 185 88T240 62Q284 62 318 98T352 181V376Q352 403 346 423T331 454T307 468H451V132Q451 86 462 66T500 46H514L355 -18L354 67Q329 31 286 8T199 -15Q134 -15 100 26T66 149V368Q66 409 52 435T7 468Z"
				   unicode="u"/>
			<glyph d="M0 468H204Q189 463 183 458T174 445T171 427Q171 412 181 387L278 148L361 375Q372 403 372 420Q372 434 367 443T354 458T332 468H515Q475 456 445 382L291 0H231L68 389Q59 409 49 424T27 450T0 468Z"
				   horiz-adv-x="515" unicode="v"/>
			<glyph d="M0 468H199Q187 464 181 459T173 446T170 429Q170 413 180 387L269 144L354 370L347 392Q322 455 288 468H471Q459 464 453 458T443 445T440 425Q440 410 449 387L537 144L617 375Q627 402 627 420Q627 459 591 468H769Q725 455 698 382L558 0H492L387 281L282 0H216L69 389Q56 420 38 441T0 468Z"
				   horiz-adv-x="769" unicode="w"/>
			<glyph d="M5 468H200Q182 462 182 442Q182 423 205 389L258 309L312 387Q337 424 337 445Q337 453 333 459T319 468H485Q440 455 393 385L300 245L414 75Q435 43 455 23T488 0H297Q313 4 313 23Q313 43 288 81L237 160L186 87Q157 46 157 24Q157 4 174 0H7Q24 4 49 26T103 91L194 223L89 382Q42 452 5 468Z"
				   horiz-adv-x="495" unicode="x"/>
			<glyph d="M0 468H205Q188 462 181 451T174 425Q174 410 186 379L279 139L366 367Q380 403 380 422Q380 438 372 450T345 468H519Q498 459 482 437T452 382L318 49Q279 -50 233 -112T140 -193L27 -106Q44 -113 69 -113Q159 -113 221 12L72 386Q59 418 41 439T0 468Z"
				   horiz-adv-x="519" unicode="y"/>
			<glyph d="M41 468H410L174 63H328Q362 63 386 83T418 141V0H27L266 409H136Q106 409 86 396T54 364T41 325Z"
				   horiz-adv-x="452" unicode="z"/>
			<glyph d="M366 699Q297 692 268 663T239 574V441Q239 260 106 255Q239 250 239 68V-66Q239 -126 268 -154T366 -190Q267 -189 224 -175T162 -134T142 -56V92Q142 150 131 183T98 233T21 255Q76 260 98 276T131 326T142 416V565Q142 615 161 643T226 685T366 699Z"
				   horiz-adv-x="382" unicode="{"/>
			<glyph d="M76 780H158V-220H76Z" horiz-adv-x="234" unicode="|"/>
			<glyph d="M5 699Q107 697 148 684T209 643T229 565V416Q229 358 239 325T272 276T349 255Q294 250 272 233T239 183T229 92V-56Q229 -106 209 -134T147 -175T5 -190Q74 -183 102 -154T131 -66V68Q131 155 162 203T264 255Q131 260 131 441V574Q131 635 102 663T5 699Z"
				   horiz-adv-x="382" unicode="}"/>
			<glyph d="M214 390Q277 390 357 341Q406 312 431 302T476 292Q504 292 516 316T529 384H604V375Q604 297 571 254T477 212Q413 212 329 262Q278 292 253 302T208 312Q153 312 151 221H76Q76 300 113 345T214 390Z"
				   horiz-adv-x="679" unicode="~"/>
			<glyph d="" horiz-adv-x="213" unicode=" "/>
			<glyph d="M144 324L151 312Q165 291 175 255T187 186L197 -50Q199 -102 209 -136T234 -177H53Q62 -175 70 -160T83 -119T91 -50L101 186Q102 221 113 256T137 312ZM144 502Q174 502 191 484T209 440Q209 414 191 396Q174 378 144 378Q114 378 96 396T79 440Q79 466 96 484T144 502Z"
				   horiz-adv-x="287" unicode="¡"/>
			<glyph d="M251 674H321V578Q376 570 411 532T449 436L350 394Q355 409 355 429Q355 466 333 488T279 510Q230 510 200 464T171 348Q171 266 210 211T312 157Q350 157 387 180T458 250Q446 184 409 141T321 86V-10H251V83Q170 93 123 154T76 311Q76 414 124 486T251 575Z"
				   horiz-adv-x="528" unicode="¢"/>
			<glyph d="M331 682Q411 682 457 649L419 556Q412 582 387 598T330 614Q296 614 276 592T248 527T240 372H355V304H240Q239 206 223 155T178 84Q204 88 222 88Q245 87 280 80T338 73Q381 73 409 85T461 126L492 28Q457 -15 372 -15Q340 -15 312 -10T259 1T210 12T159 17Q128 17 98 8T49 -13L18 70Q78 73 103 123T130 304H61V372H131Q132 489 154 555T219 651T331 682Z"
				   horiz-adv-x="528" unicode="£"/>
			<glyph d="M141 514L207 449Q235 466 274 466Q314 466 344 448L407 512L454 466L391 402Q409 371 409 333Q409 295 391 263L456 198L409 152L343 217Q315 199 274 199Q236 199 206 217L141 152L94 199L159 263Q140 293 140 333Q140 372 158 403L94 468ZM274 414Q240 414 219 391T198 333Q198 297 219 273T274 250Q309 250 330 273T352 333Q352 368 331 391T274 414Z"
				   horiz-adv-x="550" unicode="¤"/>
			<glyph d="M3 666H204Q192 661 187 650T183 628Q183 602 199 564L281 368Q329 484 353 543T377 628Q377 641 372 651T356 666H520Q500 660 477 630T437 559L385 436H495V380H361L323 291H495V234H317V107Q317 72 323 49T341 14T364 0H160Q174 3 185 15T203 50T210 107V234H28V291H203L165 380H28V436H142L88 561Q69 603 46 631T3 666Z"
				   horiz-adv-x="532" unicode="¥"/>
			<glyph d="M73 675H154V325H73ZM73 175H154V-175H73Z" horiz-adv-x="228" unicode="¦"/>
			<glyph d="M314 678Q369 678 414 661T483 616L424 540Q403 570 368 588T296 606Q254 606 225 586T196 534Q196 505 220 482T297 439Q409 395 436 378T481 343T507 303T515 258Q515 171 423 125Q460 101 477 72T495 7Q495 -44 467 -83T390 -143T280 -165Q216 -165 161 -142T69 -76L132 0Q163 -44 206 -67T296 -90Q337 -90 363 -69T390 -13Q390 10 376 27T341 58T290 83T232 106T174 131T124 162T88 202T75 255Q75 298 102 333T177 390Q134 414 113 442T93 508Q93 559 121 597T199 657T314 678ZM250 360Q173 332 173 280Q173 252 204 228T314 175L352 159Q383 170 401 190T419 240Q419 268 388 292T286 345Z"
				   horiz-adv-x="584" unicode="§"/>
			<glyph d="M328 669Q353 669 368 654T383 616Q383 593 367 577T328 562Q303 562 287 577T272 616Q272 639 287 654T328 669ZM143 669Q168 669 183 654T198 616Q198 593 183 577Q168 562 143 562Q118 562 102 577T87 616Q87 639 102 654T143 669Z"
				   horiz-adv-x="466" unicode="¨"/>
			<glyph d="M372 677Q466 677 545 633T667 512T710 333Q710 230 666 152Q622 75 544 32T372 -11Q274 -11 194 35T73 158T32 333Q32 432 74 509T195 631T372 677ZM372 638Q290 638 222 600T115 492T77 334Q77 243 115 173T222 66T372 28Q453 28 520 66T625 172T664 333Q664 424 626 493T521 600T372 638ZM386 561Q447 561 498 526V394Q463 504 387 504Q322 504 282 457T243 339Q243 292 261 252T313 190T391 168Q458 168 506 234V164Q489 140 452 122T378 104Q314 104 266 132T192 212T166 325Q166 390 193 444T271 530T386 561Z"
				   horiz-adv-x="744" unicode="©"/>
			<glyph d="M172 682Q229 682 259 655T290 577V433Q290 365 346 365Q350 365 359 368L284 318Q265 321 249 334T228 364Q213 343 185 332T126 322Q82 322 55 345T28 406Q28 446 74 480T217 536V568Q217 637 162 637Q135 637 118 625T102 596Q102 575 121 568L43 538Q34 557 34 579Q34 622 73 652T172 682ZM217 495Q98 468 98 416Q98 395 112 382T149 370Q176 370 196 388T217 432Z"
				   horiz-adv-x="362" unicode="ª"/>
			<glyph d="M316 435H395L278 252L396 69H316L198 252ZM142 435H221L103 252L221 69H142L24 252Z" horiz-adv-x="419"
				   unicode="«"/>
			<glyph d="M64 408H610V140H539V338H64Z" horiz-adv-x="674" unicode="¬"/>
			<glyph d="M50 293H301V214H50Z" horiz-adv-x="350" unicode="­"/>
			<glyph d="M372 677Q466 677 545 633T667 512T710 333Q710 230 666 152Q622 75 544 32T372 -11Q274 -11 194 35T73 158T32 333Q32 432 74 509T195 631T372 677ZM372 638Q290 638 222 600T115 492T77 334Q77 243 115 173T222 66T372 28Q453 28 520 66Q588 104 626 173T664 333Q664 424 626 493T521 600T372 638ZM230 557H382Q440 557 475 522T511 432Q511 384 484 349T414 311Q438 302 460 253L498 172Q515 136 542 119H448L393 241Q379 272 366 283T338 295H322V191Q322 166 327 148T346 119H233Q246 131 251 148T257 191V484Q257 509 250 527T230 557ZM322 505V346H374Q406 346 426 369T447 426Q447 459 426 482T373 505Z"
				   horiz-adv-x="741" unicode="®"/>
			<glyph d="M74 632H391V581H74Z" horiz-adv-x="466" unicode="¯"/>
			<glyph d="M199 682Q259 682 297 644T335 549Q335 490 296 452T199 415Q140 415 101 453T63 549Q63 607 101 644T199 682ZM199 630Q164 630 142 607T121 549Q121 513 143 489T199 466Q234 466 256 489T278 549Q278 584 256 607T199 630Z"
				   horiz-adv-x="385" unicode="°"/>
			<glyph d="M302 608H374V411H604V341H374V141H302V341H70V411H302ZM70 70H604V0H70Z" horiz-adv-x="674"
				   unicode="±"/>
			<glyph d="M178 682Q236 682 274 651T312 570Q312 546 300 520T266 466T193 388L157 352H268Q289 352 307 361T332 383L314 292H23L119 396Q185 466 205 500T225 561Q225 591 207 610T161 630Q137 630 122 617T107 587Q107 573 116 563T137 551L86 496Q62 503 47 523T33 569Q33 599 51 625T102 666T178 682Z"
				   horiz-adv-x="358" unicode="²"/>
			<glyph d="M179 680Q239 680 275 652T311 582Q311 547 286 518T222 480Q267 469 294 443T321 383Q321 335 279 306T175 277Q123 277 84 296T32 349L109 400Q114 366 133 348T180 330Q204 330 220 342T236 378Q236 411 202 432T110 455L122 503Q146 499 156 499Q188 499 208 518T229 567Q229 592 210 610T165 628Q140 628 126 617T112 592Q112 577 125 568L53 536Q37 554 37 582Q37 608 55 630T105 666T179 680Z"
				   horiz-adv-x="358" unicode="³"/>
			<glyph d="M252 666H388L195 511Z" horiz-adv-x="466" unicode="´"/>
			<glyph d="M73 468H172V175Q172 120 193 91T257 62Q298 62 327 97T356 181V468H455V132Q455 90 470 68T512 46H519L423 -18Q399 -8 384 14T362 64Q314 -15 250 -15Q228 -15 206 -2T172 31V-181H30Q50 -176 61 -152T73 -88Z"
				   horiz-adv-x="528" unicode="µ"/>
			<glyph d="M335 668H543Q537 640 533 593T529 510V-180H465V611H377V-180H312V155Q235 156 174 189T79 281T46 410Q46 483 81 542T182 635T335 668Z"
				   horiz-adv-x="638" unicode="¶"/>
			<glyph d="M120 309Q153 309 173 289T193 239Q193 209 173 189T120 169Q88 169 68 188T48 239Q48 270 68 289T120 309Z"
				   horiz-adv-x="240" unicode="·"/>
			<glyph d="M226 9H281L252 -37Q287 -41 309 -60T332 -107Q332 -138 304 -159T232 -181Q187 -181 151 -159Q167 -162 183 -162Q217 -162 238 -146T259 -110Q259 -91 239 -77T183 -63Z"
				   horiz-adv-x="466" unicode="¸"/>
			<glyph d="M137 677H192V388Q192 357 198 337T215 306T236 292H67Q78 295 88 306T104 338T111 388V557L35 469V551Q82 605 137 677Z"
				   horiz-adv-x="276" unicode="¹"/>
			<glyph d="M198 682Q271 682 316 632T361 509Q361 428 313 375T190 322Q118 322 73 370T29 495Q29 546 50 589T110 657T198 682ZM187 630Q151 630 127 596T104 512Q104 457 132 415T202 374Q239 374 262 409T285 494Q285 529 272 561T236 611T187 630Z"
				   horiz-adv-x="389" unicode="º"/>
			<glyph d="M197 435H275L394 252L276 69H197L314 252ZM23 435H102L220 252L102 69H23L141 252Z" horiz-adv-x="419"
				   unicode="»"/>
			<glyph d="M573 384H669V140H715V85H669V60Q669 33 676 17T694 0H561Q574 3 581 19T588 60V85H419V107ZM544 681H610L224 0H156ZM164 677H219V388Q219 357 225 337T242 306T263 292H94Q105 296 115 306T131 336T138 388V557L62 469V551Q109 605 164 677ZM588 313L492 140H588Z"
				   horiz-adv-x="802" unicode="¼"/>
			<glyph d="M608 389Q666 389 704 358T742 277Q742 255 732 233T707 189T669 144T587 59H698Q719 59 736 67T762 89L744 0H453L549 103Q609 167 632 203T655 269Q655 299 637 318T591 337Q567 337 552 324T537 294Q537 280 546 270T567 259L516 203Q494 211 478 230T463 277Q463 307 481 333T532 374T608 389ZM528 681H594L208 0H140ZM164 677H219V388Q219 357 225 337T242 306T263 292H94Q104 295 114 306T131 336T138 388V557L62 469V551Q109 605 164 677Z"
				   horiz-adv-x="806" unicode="½"/>
			<glyph d="M623 384H719V140H765V85H719V60Q719 34 725 19T744 0H611Q624 4 631 19T638 60V85H469V107ZM189 680Q249 680 285 652T321 582Q321 545 295 517T232 480Q277 469 304 443T331 383Q331 335 289 306T185 277Q132 277 93 296T42 349L119 400Q124 366 143 348T190 330Q214 330 230 342T246 378Q246 411 212 432T120 455L132 503Q157 499 166 499Q198 499 218 519T239 567Q239 592 220 610T175 628Q150 628 136 617T122 592Q122 576 135 568L63 536Q47 556 47 582Q47 608 65 631T116 667T189 680ZM594 681H660L274 0H206ZM638 313L542 140H638Z"
				   horiz-adv-x="873" unicode="¾"/>
			<glyph d="M239 510Q268 510 286 493T304 448Q304 422 286 404Q269 386 239 386Q208 386 191 404T174 448Q174 475 191 492T239 510ZM225 326Q259 326 283 302T308 244Q308 207 287 172T222 100Q176 61 156 32T136 -27Q136 -64 160 -87T223 -110Q269 -110 309 -80T370 0V-142Q339 -161 294 -173T202 -185Q119 -185 70 -146T22 -38Q22 5 45 44T120 128Q176 176 197 205T218 264Q218 298 189 312Q202 326 225 326Z"
				   horiz-adv-x="449" unicode="¿"/>
			<glyph d="M312 666H398L614 119Q633 69 657 37T703 0H480Q496 2 505 13T514 43Q514 59 498 100L468 179H205Q169 82 166 69T163 48Q163 28 173 15T200 0H14Q34 4 57 36T100 121ZM335 523L230 246H442ZM193 853H329L388 700Z"
				   horiz-adv-x="718" unicode="À"/>
			<glyph d="M312 666H398L614 119Q633 69 657 37T703 0H480Q496 2 505 13T514 43Q514 59 498 100L468 179H205Q169 82 166 69T163 48Q163 28 173 15T200 0H14Q34 4 57 36T100 121ZM335 523L230 246H442ZM379 853H515L322 700Z"
				   horiz-adv-x="718" unicode="Á"/>
			<glyph d="M312 666H398L614 119Q633 69 657 37T703 0H480Q496 2 505 13T514 43Q514 59 498 100L468 179H205Q169 82 166 69T163 48Q163 28 173 15T200 0H14Q34 4 57 36T100 121ZM335 523L230 246H442ZM353 868L500 699Q472 713 428 731Q377 751 353 763Q327 750 280 731Q237 713 210 699Q246 744 281 783T353 868Z"
				   horiz-adv-x="718" unicode="Â"/>
			<glyph d="M312 666H398L614 119Q633 69 657 37T703 0H480Q496 2 505 13T514 43Q514 59 498 100L468 179H205Q169 82 166 69T163 48Q163 28 173 15T200 0H14Q34 4 57 36T100 121ZM335 523L230 246H442ZM485 852Q501 834 501 806Q501 771 477 744T419 717Q400 717 381 725T343 746T306 766T276 774Q254 774 240 754T225 705Q208 725 208 753Q208 788 231 813T290 838Q308 838 328 829T368 810T405 791T436 783Q459 783 471 801Q484 820 485 852Z"
				   horiz-adv-x="718" unicode="Ã"/>
			<glyph d="M312 666H398L614 119Q633 69 657 37T703 0H480Q496 2 505 13T514 43Q514 59 498 100L468 179H205Q169 82 166 69T163 48Q163 28 173 15T200 0H14Q34 4 57 36T100 121ZM335 523L230 246H442ZM448 831Q473 831 488 816T503 778Q503 755 487 739T448 724Q423 724 407 739T392 778Q392 801 407 816T448 831ZM263 831Q288 831 303 816T318 778Q318 755 303 739Q288 724 263 724Q238 724 222 739T207 778Q207 801 222 816T263 831Z"
				   horiz-adv-x="718" unicode="Ä"/>
			<glyph d="M312 666H398L614 119Q633 69 657 37T703 0H480Q496 2 505 13T514 43Q514 59 498 100L468 179H205Q169 82 166 69T163 48Q163 28 173 15T200 0H14Q34 4 57 36T100 121ZM335 523L230 246H442ZM355 881Q396 881 423 854T450 787Q450 747 423 720Q397 693 355 693Q314 693 287 719T261 787Q261 828 288 854T355 881ZM355 842Q331 842 316 826T301 787Q301 764 316 747T355 731Q379 731 393 747T408 787Q408 812 393 827T355 842Z"
				   horiz-adv-x="718" unicode="Å"/>
			<glyph d="M436 666H890V517Q879 550 865 565T830 588T775 596H638V374H753Q785 374 805 382T832 406V269Q828 285 807 294T755 303H638V71H783Q845 71 876 89T933 160L906 0H475Q489 2 501 18T520 65T528 145V303H338L232 132Q193 69 193 35Q193 21 199 11T216 0H3Q26 5 58 37T128 127L406 560Q424 589 434 609T446 649Q446 657 442 661T436 666ZM528 609L381 373H528Z"
				   horiz-adv-x="957" unicode="Æ"/>
			<glyph d="M400 682Q448 682 497 670T576 641V465Q552 534 503 569T386 605Q319 605 267 569T187 472T160 338Q160 263 189 199T270 101T391 66Q443 66 497 93T590 169V79Q553 37 500 13T388 -14L374 -37Q410 -42 432 -61T454 -107Q454 -138 426 -159T354 -181Q309 -181 273 -159Q289 -162 305 -162Q338 -162 359 -147T381 -110Q381 -92 362 -78T305 -63L334 -13Q246 -5 180 39T78 157T42 319Q42 419 88 504T215 636T400 682Z"
				   horiz-adv-x="640" unicode="Ç"/>
			<glyph d="M37 666H454V517Q443 550 429 565T394 588T339 596H202V374H317Q349 374 369 382T396 406V270Q390 287 370 295T319 303H202V71H347Q409 71 440 89T497 160L470 0H44Q66 5 78 33T91 107V563Q91 605 77 632T37 666ZM156 853H292L351 700Z"
				   horiz-adv-x="524" unicode="È"/>
			<glyph d="M37 666H454V517Q443 550 429 565T394 588T339 596H202V374H317Q349 374 369 382T396 406V270Q390 287 370 295T319 303H202V71H347Q409 71 440 89T497 160L470 0H44Q66 5 78 33T91 107V563Q91 605 77 632T37 666ZM278 853H414L221 700Z"
				   horiz-adv-x="524" unicode="É"/>
			<glyph d="M37 666H454V517Q443 550 429 565T394 588T339 596H202V374H317Q349 374 369 382T396 406V270Q390 287 370 295T319 303H202V71H347Q409 71 440 89T497 160L470 0H44Q66 5 78 33T91 107V563Q91 605 77 632T37 666ZM271 868L418 699Q390 713 346 731Q295 751 271 763Q245 750 198 731Q155 713 128 699Q164 744 199 783T271 868Z"
				   horiz-adv-x="524" unicode="Ê"/>
			<glyph d="M37 666H454V517Q443 550 429 565T394 588T339 596H202V374H317Q349 374 369 382T396 406V270Q390 287 370 295T319 303H202V71H347Q409 71 440 89T497 160L470 0H44Q66 5 78 33T91 107V563Q91 605 77 632T37 666ZM366 831Q391 831 406 816T421 778Q421 755 405 739T366 724Q341 724 325 739T310 778Q310 801 325 816T366 831ZM181 831Q206 831 221 816T236 778Q236 755 221 739Q206 724 181 724Q156 724 140 739T125 778Q125 801 140 816T181 831Z"
				   horiz-adv-x="524" unicode="Ë"/>
			<glyph d="M41 666H247Q225 660 212 633T200 567V96Q200 65 206 45T223 13T246 0H42Q54 2 65 13T83 44T90 96V567Q90 606 78 632T41 666ZM24 853H160L219 700Z"
				   horiz-adv-x="300" unicode="Ì"/>
			<glyph d="M41 666H247Q225 660 212 633T200 567V96Q200 65 206 45T223 13T246 0H42Q54 2 65 13T83 44T90 96V567Q90 606 78 632T41 666ZM142 853H278L85 700Z"
				   horiz-adv-x="300" unicode="Í"/>
			<glyph d="M41 666H247Q225 660 212 633T200 567V96Q200 65 206 45T223 13T246 0H42Q54 2 65 13T83 44T90 96V567Q90 606 78 632T41 666ZM150 868L297 699Q269 713 225 731Q174 751 150 763Q124 750 77 731Q34 713 7 699Q43 744 78 783T150 868Z"
				   horiz-adv-x="300" unicode="Î"/>
			<glyph d="M41 666H247Q225 660 212 633T200 567V96Q200 65 206 45T223 13T246 0H42Q54 2 65 13T83 44T90 96V567Q90 606 78 632T41 666ZM245 831Q270 831 285 816T300 778Q300 755 284 739T245 724Q220 724 204 739T189 778Q189 801 204 816T245 831ZM60 831Q85 831 100 816T115 778Q115 755 100 739Q85 724 60 724Q35 724 19 739T4 778Q4 801 19 816T60 831Z"
				   horiz-adv-x="300" unicode="Ï"/>
			<glyph d="M41 666H322Q422 666 498 625T615 510T656 340Q656 240 615 162T496 42T315 0H46Q60 3 71 15T89 51T96 113V302H19V361H96V563Q96 605 81 632T41 666ZM207 596V361H331V302H207V71H322Q385 71 433 101T509 193T538 333Q538 459 476 527T296 596Z"
				   horiz-adv-x="698" unicode="Ð"/>
			<glyph d="M13 666H181L530 218V566Q530 607 516 633T478 666H661Q637 660 625 633T613 566V0H541Q531 29 507 69T449 151L179 487V100Q179 67 187 46T207 13T233 0H46Q69 5 82 30T95 100V557Q95 589 76 617T13 666ZM494 852Q510 834 510 806Q510 771 486 744T428 717Q409 717 390 725T352 746T315 766T285 774Q263 774 249 754T234 705Q217 725 217 753Q217 788 240 813T299 838Q317 838 337 829T377 810T414 791T445 783Q468 783 480 801Q493 820 494 852Z"
				   horiz-adv-x="698" unicode="Ñ"/>
			<glyph d="M379 682Q470 682 542 639T655 517T695 342Q695 243 651 160Q608 78 531 31T359 -15Q268 -15 195 28T82 149T41 325Q41 424 84 506T206 635T379 682ZM357 604Q299 604 252 573T179 484T153 355Q153 270 181 203T261 100T380 64Q437 64 484 96Q532 128 558 185T584 317Q584 399 555 465T475 567T357 604ZM236 853H372L431 700Z"
				   horiz-adv-x="736" unicode="Ò"/>
			<glyph d="M379 682Q470 682 542 639T655 517T695 342Q695 243 651 160Q608 78 531 31T359 -15Q268 -15 195 28T82 149T41 325Q41 424 84 506T206 635T379 682ZM357 604Q299 604 252 573T179 484T153 355Q153 270 181 203T261 100T380 64Q437 64 484 96Q532 128 558 185T584 317Q584 399 555 465T475 567T357 604ZM354 853H490L297 700Z"
				   horiz-adv-x="736" unicode="Ó"/>
			<glyph d="M379 682Q470 682 542 639T655 517T695 342Q695 243 651 160Q608 78 531 31T359 -15Q268 -15 195 28T82 149T41 325Q41 424 84 506T206 635T379 682ZM357 604Q299 604 252 573T179 484T153 355Q153 270 181 203T261 100T380 64Q437 64 484 96Q532 128 558 185T584 317Q584 399 555 465T475 567T357 604ZM377 868L524 699Q496 713 452 731Q401 751 377 763Q351 750 304 731Q261 713 234 699Q270 744 305 783T377 868Z"
				   horiz-adv-x="736" unicode="Ô"/>
			<glyph d="M379 682Q470 682 542 639T655 517T695 342Q695 243 651 160Q608 78 531 31T359 -15Q268 -15 195 28T82 149T41 325Q41 424 84 506T206 635T379 682ZM357 604Q299 604 252 573T179 484T153 355Q153 270 181 203T261 100T380 64Q437 64 484 96Q532 128 558 185T584 317Q584 399 555 465T475 567T357 604ZM509 852Q525 834 525 806Q525 771 501 744T443 717Q424 717 405 725T367 746T330 766T300 774Q278 774 264 754T249 705Q232 725 232 753Q232 788 255 813T314 838Q332 838 352 829T392 810T429 791T460 783Q483 783 495 801Q508 820 509 852Z"
				   horiz-adv-x="736" unicode="Õ"/>
			<glyph d="M379 682Q470 682 542 639T655 517T695 342Q695 243 651 160Q608 78 531 31T359 -15Q268 -15 195 28T82 149T41 325Q41 424 84 506T206 635T379 682ZM357 604Q299 604 252 573T179 484T153 355Q153 270 181 203T261 100T380 64Q437 64 484 96Q532 128 558 185T584 317Q584 399 555 465T475 567T357 604ZM474 831Q499 831 514 816T529 778Q529 755 513 739T474 724Q449 724 433 739T418 778Q418 801 433 816T474 831ZM289 831Q314 831 329 816T344 778Q344 755 329 739Q314 724 289 724Q264 724 248 739T233 778Q233 801 248 816T289 831Z"
				   horiz-adv-x="736" unicode="Ö"/>
			<glyph d="M109 560L338 330L565 559L615 509L387 280L615 52L565 2L338 231L110 2L60 53L288 281L60 510Z"
				   horiz-adv-x="674" unicode="×"/>
			<glyph d="M581 707L644 681L591 602Q641 555 668 488T695 342Q695 243 651 160T531 31T359 -15Q274 -15 203 23L158 -44L94 -19L149 62Q98 109 69 176T41 325Q41 424 84 506T206 635T379 682Q466 682 537 641ZM357 604Q299 604 252 573T179 484T153 355Q153 231 209 153L483 561Q428 604 357 604ZM530 511L257 104Q311 64 380 64Q437 64 484 96T558 185T584 317Q584 433 530 511Z"
				   horiz-adv-x="736" unicode="Ø"/>
			<glyph d="M37 666H241Q219 660 207 633T196 567V228Q196 140 232 100T351 61Q427 61 463 100T499 227V563Q499 605 486 632T446 666H641Q617 660 604 632T591 563V231Q591 105 528 45T341 -15Q210 -15 147 43T85 224V565Q85 606 73 632T37 666ZM187 853H323L382 700Z"
				   horiz-adv-x="673" unicode="Ù"/>
			<glyph d="M37 666H241Q219 660 207 633T196 567V228Q196 140 232 100T351 61Q427 61 463 100T499 227V563Q499 605 486 632T446 666H641Q617 660 604 632T591 563V231Q591 105 528 45T341 -15Q210 -15 147 43T85 224V565Q85 606 73 632T37 666ZM370 853H506L313 700Z"
				   horiz-adv-x="673" unicode="Ú"/>
			<glyph d="M37 666H241Q219 660 207 633T196 567V228Q196 140 232 100T351 61Q427 61 463 100T499 227V563Q499 605 486 632T446 666H641Q617 660 604 632T591 563V231Q591 105 528 45T341 -15Q210 -15 147 43T85 224V565Q85 606 73 632T37 666ZM343 868L490 699Q462 713 418 731Q367 751 343 763Q317 750 270 731Q227 713 200 699Q236 744 271 783T343 868Z"
				   horiz-adv-x="673" unicode="Û"/>
			<glyph d="M37 666H241Q219 660 207 633T196 567V228Q196 140 232 100T351 61Q427 61 463 100T499 227V563Q499 605 486 632T446 666H641Q617 660 604 632T591 563V231Q591 105 528 45T341 -15Q210 -15 147 43T85 224V565Q85 606 73 632T37 666ZM443 831Q468 831 483 816T498 778Q498 755 482 739T443 724Q418 724 402 739T387 778Q387 801 402 816T443 831ZM258 831Q283 831 298 816T313 778Q313 755 298 739Q283 724 258 724Q233 724 217 739T202 778Q202 801 217 816T258 831Z"
				   horiz-adv-x="673" unicode="Ü"/>
			<glyph d="M8 666H230Q204 658 204 631Q204 610 230 564L340 368L443 550Q476 607 476 631Q476 644 470 653T450 666H631Q611 660 586 632T536 559L376 281V102Q376 69 382 47T398 14T421 0H217Q231 3 241 14T257 47T264 102V278L105 561Q81 604 55 632T8 666ZM382 853H518L325 700Z"
				   horiz-adv-x="642" unicode="Ý"/>
			<glyph d="M42 666H246Q224 661 212 635T200 570V557Q237 561 318 561Q380 561 431 534T511 458T539 350Q539 289 509 238T427 158T307 129Q236 129 200 142V96Q200 65 206 45T223 13T246 0H42Q54 2 65 13T83 44T90 96V570Q90 608 78 634T42 666ZM296 493Q227 493 200 488V210Q227 198 293 198Q352 198 388 240T425 345Q425 410 389 451T296 493Z"
				   horiz-adv-x="581" unicode="Þ"/>
			<glyph d="M331 690Q411 690 462 653T513 558Q513 485 428 437Q373 405 358 392T343 364Q343 348 361 331T415 299Q479 267 508 243T553 192T569 131Q569 65 519 26T388 -13Q346 -13 306 -2T243 28L274 110Q293 83 326 67T392 52Q428 52 449 70T470 116Q470 148 443 174T356 230Q297 260 269 287T242 347Q242 376 262 400T324 446Q366 470 386 492T406 543Q406 582 379 605T308 629Q251 629 214 588T178 485V105Q178 71 184 49T200 14T221 0H39Q58 5 68 32T79 105V456Q79 561 148 625T331 690Z"
				   horiz-adv-x="614" unicode="ß"/>
			<glyph d="M241 485Q321 485 362 447T404 340V138Q404 97 423 71T480 45Q483 45 493 47Q469 30 444 13T396 -21Q372 -18 348 2T319 47Q302 19 263 2T177 -15Q116 -15 79 17T42 101Q42 160 111 206T305 281V327Q305 425 227 425Q189 425 166 408T143 366Q143 352 149 341T165 327L63 287Q51 315 51 342Q51 402 105 443T241 485ZM305 226Q138 189 138 115Q138 85 159 67T210 49Q249 49 277 74T305 137ZM131 666H271L327 511Z"
				   horiz-adv-x="477" unicode="à"/>
			<glyph d="M241 485Q321 485 362 447T404 340V138Q404 97 423 71T480 45Q483 45 493 47Q469 30 444 13T396 -21Q372 -18 348 2T319 47Q302 19 263 2T177 -15Q116 -15 79 17T42 101Q42 160 111 206T305 281V327Q305 425 227 425Q189 425 166 408T143 366Q143 352 149 341T165 327L63 287Q51 315 51 342Q51 402 105 443T241 485ZM305 226Q138 189 138 115Q138 85 159 67T210 49Q249 49 277 74T305 137ZM248 666H384L191 511Z"
				   horiz-adv-x="477" unicode="á"/>
			<glyph d="M241 485Q321 485 362 447T404 340V138Q404 97 423 71T480 45Q483 45 493 47Q469 30 444 13T396 -21Q372 -18 348 2T319 47Q302 19 263 2T177 -15Q116 -15 79 17T42 101Q42 160 111 206T305 281V327Q305 425 227 425Q189 425 166 408T143 366Q143 352 149 341T165 327L63 287Q51 315 51 342Q51 402 105 443T241 485ZM305 226Q138 189 138 115Q138 85 159 67T210 49Q249 49 277 74T305 137ZM241 691L378 512L241 588Q208 569 174 549T108 512Q142 557 175 601T241 691Z"
				   horiz-adv-x="477" unicode="â"/>
			<glyph d="M241 485Q321 485 362 447T404 340V138Q404 97 423 71T480 45Q483 45 493 47Q469 30 444 13T396 -21Q372 -18 348 2T319 47Q302 19 263 2T177 -15Q116 -15 79 17T42 101Q42 160 111 206T305 281V327Q305 425 227 425Q189 425 166 408T143 366Q143 352 149 341T165 327L63 287Q51 315 51 342Q51 402 105 443T241 485ZM305 226Q138 189 138 115Q138 85 159 67T210 49Q249 49 277 74T305 137ZM376 682Q391 665 391 642Q391 604 367 575T307 547Q290 547 271 555T235 575T199 595T167 604Q145 604 131 584T116 535Q100 553 100 577Q100 614 122 641T181 668Q199 668 219 659T259 640T296 621T327 613Q349 613 362 631T376 682Z"
				   horiz-adv-x="477" unicode="ã"/>
			<glyph d="M241 485Q321 485 362 447T404 340V138Q404 97 423 71T480 45Q483 45 493 47Q469 30 444 13T396 -21Q372 -18 348 2T319 47Q302 19 263 2T177 -15Q116 -15 79 17T42 101Q42 160 111 206T305 281V327Q305 425 227 425Q189 425 166 408T143 366Q143 352 149 341T165 327L63 287Q51 315 51 342Q51 402 105 443T241 485ZM305 226Q138 189 138 115Q138 85 159 67T210 49Q249 49 277 74T305 137ZM336 669Q361 669 376 654T391 616Q391 593 375 577T336 562Q311 562 295 577T280 616Q280 639 295 654T336 669ZM151 669Q176 669 191 654T206 616Q206 593 191 577Q176 562 151 562Q126 562 110 577T95 616Q95 639 110 654T151 669Z"
				   horiz-adv-x="477" unicode="ä"/>
			<glyph d="M241 485Q321 485 362 447T404 340V138Q404 97 423 71T480 45Q483 45 493 47Q469 30 444 13T396 -21Q372 -18 348 2T319 47Q302 19 263 2T177 -15Q116 -15 79 17T42 101Q42 160 111 206T305 281V327Q305 425 227 425Q189 425 166 408T143 366Q143 352 149 341T165 327L63 287Q51 315 51 342Q51 402 105 443T241 485ZM305 226Q138 189 138 115Q138 85 159 67T210 49Q249 49 277 74T305 137ZM246 704Q287 704 314 677T341 610Q341 570 314 543Q288 516 246 516Q205 516 178 542T152 610Q152 651 179 677T246 704ZM246 665Q222 665 207 649T192 610Q192 587 207 570T246 554Q270 554 284 570T299 610Q299 635 284 650T246 665Z"
				   horiz-adv-x="477" unicode="å"/>
			<glyph d="M242 485Q341 485 378 421Q431 485 513 485Q596 485 645 417T697 231H400L402 220Q416 147 456 105T552 63Q592 63 633 83T703 142Q684 63 635 24T514 -15Q407 -15 349 71Q328 31 282 8T183 -15Q119 -15 80 17T42 101Q42 160 111 207T305 281V327Q305 425 227 425Q189 425 166 408T143 366Q143 352 149 341T166 327L63 287Q51 315 51 342Q51 401 105 443T242 485ZM508 423Q464 423 434 383T401 287H596Q596 347 572 385T508 423ZM305 226Q138 189 138 115Q138 85 159 67T210 49Q249 49 277 74T305 137Z"
				   horiz-adv-x="731" unicode="æ"/>
			<glyph d="M260 485Q324 485 365 445T409 340L309 298Q315 316 315 333Q315 371 294 392T241 414Q192 414 161 368T130 252Q130 171 169 116T274 61Q311 61 348 82T418 145Q405 80 362 37T260 -13L246 -37Q282 -42 304 -61T326 -107Q326 -138 298 -159T226 -181Q181 -181 145 -159Q160 -162 177 -162Q210 -162 231 -147T253 -110Q253 -92 234 -78T177 -63L207 -13Q127 -2 81 59T35 215Q35 292 65 354T147 451T260 485Z"
				   horiz-adv-x="441" unicode="ç"/>
			<glyph d="M246 485Q330 485 378 417T429 231H133L135 220Q144 149 185 106T285 63Q326 63 366 84T436 142Q418 63 369 24T247 -15Q184 -15 136 16T61 102T35 226Q35 298 62 357T137 451T246 485ZM241 423Q197 423 166 383T133 287H329Q329 346 305 384T241 423ZM121 666H261L317 511Z"
				   horiz-adv-x="464" unicode="è"/>
			<glyph d="M246 485Q330 485 378 417T429 231H133L135 220Q144 149 185 106T285 63Q326 63 366 84T436 142Q418 63 369 24T247 -15Q184 -15 136 16T61 102T35 226Q35 298 62 357T137 451T246 485ZM241 423Q197 423 166 383T133 287H329Q329 346 305 384T241 423ZM252 666H388L195 511Z"
				   horiz-adv-x="464" unicode="é"/>
			<glyph d="M246 485Q330 485 378 417T429 231H133L135 220Q144 149 185 106T285 63Q326 63 366 84T436 142Q418 63 369 24T247 -15Q184 -15 136 16T61 102T35 226Q35 298 62 357T137 451T246 485ZM241 423Q197 423 166 383T133 287H329Q329 346 305 384T241 423ZM245 691L382 512L245 588Q212 569 178 549T112 512Q146 557 179 601T245 691Z"
				   horiz-adv-x="464" unicode="ê"/>
			<glyph d="M246 485Q330 485 378 417T429 231H133L135 220Q144 149 185 106T285 63Q326 63 366 84T436 142Q418 63 369 24T247 -15Q184 -15 136 16T61 102T35 226Q35 298 62 357T137 451T246 485ZM241 423Q197 423 166 383T133 287H329Q329 346 305 384T241 423ZM340 669Q365 669 380 654T395 616Q395 593 379 577T340 562Q315 562 299 577T284 616Q284 639 299 654T340 669ZM155 669Q180 669 195 654T210 616Q210 593 195 577Q180 562 155 562Q130 562 114 577T99 616Q99 639 114 654T155 669Z"
				   horiz-adv-x="464" unicode="ë"/>
			<glyph d="M173 488V97Q173 65 179 44T196 13T218 0H25Q37 2 48 13T65 45T71 97V337Q71 381 58 402T18 423H6ZM2 666H142L198 511Z"
				   horiz-adv-x="243" unicode="ì"/>
			<glyph d="M173 488V97Q173 65 179 44T196 13T218 0H25Q37 2 48 13T65 45T71 97V337Q71 381 58 402T18 423H6ZM102 666H238L45 511Z"
				   horiz-adv-x="243" unicode="í"/>
			<glyph d="M173 488V97Q173 65 179 44T196 13T218 0H25Q37 2 48 13T65 45T71 97V337Q71 381 58 402T18 423H6ZM122 691L259 512L122 588Q89 569 55 549T-11 512Q23 557 56 601T122 691Z"
				   horiz-adv-x="243" unicode="î"/>
			<glyph d="M173 488V97Q173 65 179 44T196 13T218 0H25Q37 2 48 13T65 45T71 97V337Q71 381 58 402T18 423H6ZM216 669Q241 669 256 654T272 616Q272 593 256 577T216 562Q191 562 176 577T161 616Q161 639 176 654T216 669ZM31 669Q56 669 71 654T87 616Q87 593 72 577Q57 562 31 562Q6 562 -9 578T-25 616Q-25 639 -9 654T31 669Z"
				   horiz-adv-x="243" unicode="ï"/>
			<glyph d="M240 695Q272 680 315 637L410 684L436 647L348 604Q469 458 469 261Q469 134 411 59T253 -16Q191 -16 141 18T64 113T37 244Q37 312 61 367T127 454T216 485Q264 485 305 457T374 370Q360 421 329 473T258 565L162 519L137 555L219 595Q176 627 140 639ZM227 415Q185 415 159 380T134 286Q134 185 171 121T267 57Q313 57 340 91T368 196Q368 257 349 307T297 386T227 415Z"
				   horiz-adv-x="504" unicode="ð"/>
			<glyph d="M167 489L168 406Q192 439 236 462T322 485Q386 485 421 444T457 327V96Q457 54 468 29T499 0H318Q337 5 347 29T357 93V301Q357 356 336 382T281 408Q239 408 204 374T170 293V93Q170 62 176 42T191 12T211 0H26Q47 4 59 28T71 94V333Q71 379 60 401T20 423H8ZM404 682Q419 665 419 642Q419 604 395 575T335 547Q318 547 299 555T263 575T227 595T195 604Q173 604 159 584T144 535Q128 553 128 577Q128 614 150 641T209 668Q227 668 247 659T287 640T324 621T355 613Q377 613 390 631T404 682Z"
				   horiz-adv-x="530" unicode="ñ"/>
			<glyph d="M276 485Q345 485 397 454T477 367T506 244Q506 174 475 113Q445 53 391 19T266 -15Q197 -15 145 16T66 102T38 226Q38 296 68 356T152 451T276 485ZM261 416Q207 416 174 369T141 249Q141 196 158 151T207 80T281 54Q336 54 368 102T401 223Q401 276 383 320T334 390T261 416ZM147 666H287L343 511Z"
				   horiz-adv-x="544" unicode="ò"/>
			<glyph d="M276 485Q345 485 397 454T477 367T506 244Q506 174 475 113Q445 53 391 19T266 -15Q197 -15 145 16T66 102T38 226Q38 296 68 356T152 451T276 485ZM261 416Q207 416 174 369T141 249Q141 196 158 151T207 80T281 54Q336 54 368 102T401 223Q401 276 383 320T334 390T261 416ZM277 666H413L220 511Z"
				   horiz-adv-x="544" unicode="ó"/>
			<glyph d="M276 485Q345 485 397 454T477 367T506 244Q506 174 475 113Q445 53 391 19T266 -15Q197 -15 145 16T66 102T38 226Q38 296 68 356T152 451T276 485ZM261 416Q207 416 174 369T141 249Q141 196 158 151T207 80T281 54Q336 54 368 102T401 223Q401 276 383 320T334 390T261 416ZM274 691L411 512L274 588Q241 569 207 549T141 512Q175 557 208 601T274 691Z"
				   horiz-adv-x="544" unicode="ô"/>
			<glyph d="M276 485Q345 485 397 454T477 367T506 244Q506 174 475 113Q445 53 391 19T266 -15Q197 -15 145 16T66 102T38 226Q38 296 68 356T152 451T276 485ZM261 416Q207 416 174 369T141 249Q141 196 158 151T207 80T281 54Q336 54 368 102T401 223Q401 276 383 320T334 390T261 416ZM407 682Q422 665 422 642Q422 604 398 575T338 547Q321 547 302 555T266 575T230 595T198 604Q176 604 162 584T147 535Q131 553 131 577Q131 614 153 641T212 668Q230 668 250 659T290 640T327 621T358 613Q380 613 393 631T407 682Z"
				   horiz-adv-x="544" unicode="õ"/>
			<glyph d="M276 485Q345 485 397 454T477 367T506 244Q506 174 475 113Q445 53 391 19T266 -15Q197 -15 145 16T66 102T38 226Q38 296 68 356T152 451T276 485ZM261 416Q207 416 174 369T141 249Q141 196 158 151T207 80T281 54Q336 54 368 102T401 223Q401 276 383 320T334 390T261 416ZM368 669Q393 669 408 654T423 616Q423 593 407 577T368 562Q343 562 327 577T312 616Q312 639 327 654T368 669ZM183 669Q208 669 223 654T238 616Q238 593 223 577Q208 562 183 562Q158 562 142 577T127 616Q127 639 142 654T183 669Z"
				   horiz-adv-x="544" unicode="ö"/>
			<glyph d="M337 533Q360 533 377 517T394 476Q394 453 378 437T337 421Q313 421 297 436T281 476Q281 500 297 516T337 533ZM63 319H609V250H63ZM336 148Q360 148 376 132T393 92Q393 69 377 52Q361 36 336 36Q312 36 296 51T280 92Q280 117 296 132T336 148Z"
				   horiz-adv-x="674" unicode="÷"/>
			<glyph d="M413 513L467 493L428 431Q465 398 485 349T506 244Q506 174 475 113T390 18T266 -15Q210 -15 163 6L127 -51L71 -33L115 38Q78 71 58 120T38 226Q38 296 68 356T152 451T276 485Q334 485 381 462ZM261 416Q207 416 174 369T141 249Q141 181 170 125L336 389Q303 416 261 416ZM373 342L208 79Q239 54 281 54Q335 54 368 102T401 223Q401 290 373 342Z"
				   horiz-adv-x="544" unicode="ø"/>
			<glyph d="M7 468H165V169Q165 114 185 88T240 62Q284 62 318 98T352 181V376Q352 403 346 423T331 454T307 468H451V132Q451 86 462 66T500 46H514L355 -18L354 67Q329 31 286 8T199 -15Q134 -15 100 26T66 149V368Q66 409 52 435T7 468ZM136 666H276L332 511Z"
				   unicode="ù"/>
			<glyph d="M7 468H165V169Q165 114 185 88T240 62Q284 62 318 98T352 181V376Q352 403 346 423T331 454T307 468H451V132Q451 86 462 66T500 46H514L355 -18L354 67Q329 31 286 8T199 -15Q134 -15 100 26T66 149V368Q66 409 52 435T7 468ZM271 666H407L214 511Z"
				   unicode="ú"/>
			<glyph d="M7 468H165V169Q165 114 185 88T240 62Q284 62 318 98T352 181V376Q352 403 346 423T331 454T307 468H451V132Q451 86 462 66T500 46H514L355 -18L354 67Q329 31 286 8T199 -15Q134 -15 100 26T66 149V368Q66 409 52 435T7 468ZM264 691L401 512L264 588Q231 569 197 549T131 512Q165 557 198 601T264 691Z"
				   unicode="û"/>
			<glyph d="M7 468H165V169Q165 114 185 88T240 62Q284 62 318 98T352 181V376Q352 403 346 423T331 454T307 468H451V132Q451 86 462 66T500 46H514L355 -18L354 67Q329 31 286 8T199 -15Q134 -15 100 26T66 149V368Q66 409 52 435T7 468ZM358 669Q383 669 398 654T413 616Q413 593 397 577T358 562Q333 562 317 577T302 616Q302 639 317 654T358 669ZM173 669Q198 669 213 654T228 616Q228 593 213 577Q198 562 173 562Q148 562 132 577T117 616Q117 639 132 654T173 669Z"
				   unicode="ü"/>
			<glyph d="M0 468H205Q188 462 181 451T174 425Q174 410 186 379L279 139L366 367Q380 403 380 422Q380 438 372 450T345 468H519Q498 459 482 437T452 382L318 49Q279 -50 233 -112T140 -193L27 -106Q44 -113 69 -113Q159 -113 221 12L72 386Q59 418 41 439T0 468ZM280 666H416L223 511Z"
				   horiz-adv-x="519" unicode="ý"/>
			<glyph d="M168 695V413Q194 448 230 466T304 485Q355 485 396 456T460 375T484 251Q484 176 456 115T377 20T263 -13Q201 -13 168 18V-86Q168 -126 179 -150T212 -181H31Q41 -179 50 -168T64 -137T70 -86V533Q70 584 58 608T15 633H6ZM268 408Q227 408 197 373T168 289V141Q168 100 189 77T256 54Q310 54 343 102T377 228Q377 312 347 360T268 408Z"
				   horiz-adv-x="519" unicode="þ"/>
			<glyph d="M0 468H205Q188 462 181 451T174 425Q174 410 186 379L279 139L366 367Q380 403 380 422Q380 438 372 450T345 468H519Q498 459 482 437T452 382L318 49Q279 -50 233 -112T140 -193L27 -106Q44 -113 69 -113Q159 -113 221 12L72 386Q59 418 41 439T0 468ZM359 669Q384 669 399 654T415 616Q415 593 399 577T359 562Q334 562 319 577T304 616Q304 639 319 654T359 669ZM174 669Q199 669 214 654T230 616Q230 593 215 577Q200 562 174 562Q149 562 133 578T118 616Q118 639 134 654T174 669Z"
				   horiz-adv-x="519" unicode="ÿ"/>
			<glyph d="M312 666H398L614 119Q633 69 657 37T703 0H480Q496 2 505 13T514 43Q514 59 498 100L468 179H205Q169 82 166 69T163 48Q163 28 173 15T200 0H14Q34 4 57 36T100 121ZM335 523L230 246H442ZM193 806H511V754H193Z"
				   horiz-adv-x="718" unicode="Ā"/>
			<glyph d="M241 485Q321 485 362 447T404 340V138Q404 97 423 71T480 45Q483 45 493 47Q469 30 444 13T396 -21Q372 -18 348 2T319 47Q302 19 263 2T177 -15Q116 -15 79 17T42 101Q42 160 111 206T305 281V327Q305 425 227 425Q189 425 166 408T143 366Q143 352 149 341T165 327L63 287Q51 315 51 342Q51 402 105 443T241 485ZM305 226Q138 189 138 115Q138 85 159 67T210 49Q249 49 277 74T305 137ZM90 632H407V581H90Z"
				   horiz-adv-x="477" unicode="ā"/>
			<glyph d="M312 666H398L614 119Q633 69 657 37T703 0H480Q496 2 505 13T514 43Q514 59 498 100L468 179H205Q169 82 166 69T163 48Q163 28 173 15T200 0H14Q34 4 57 36T100 121ZM335 523L230 246H442ZM237 864Q253 829 284 810T352 791Q387 791 417 809Q448 827 467 864Q467 820 452 787T411 736T352 717Q321 717 294 734T252 786T237 864Z"
				   horiz-adv-x="718" unicode="Ă"/>
			<glyph d="M241 485Q321 485 362 447T404 340V138Q404 97 423 71T480 45Q483 45 493 47Q469 30 444 13T396 -21Q372 -18 348 2T319 47Q302 19 263 2T177 -15Q116 -15 79 17T42 101Q42 160 111 206T305 281V327Q305 425 227 425Q189 425 166 408T143 366Q143 352 149 341T165 327L63 287Q51 315 51 342Q51 402 105 443T241 485ZM305 226Q138 189 138 115Q138 85 159 67T210 49Q249 49 277 74T305 137ZM134 692Q149 658 179 638T248 619Q287 619 317 639Q348 659 363 692Q363 648 348 615T306 563T248 545Q216 545 190 563T149 615T134 692Z"
				   horiz-adv-x="477" unicode="ă"/>
			<glyph d="M312 666H398L614 119Q629 80 645 55T676 16T703 0Q649 -1 618 -22T588 -76Q588 -100 603 -114T645 -129Q674 -129 707 -109Q695 -141 667 -161T607 -181Q570 -181 545 -158T520 -100Q520 -73 536 -47T584 0H481Q496 2 505 13T514 43Q514 61 498 100L468 179H205Q169 82 166 69T163 48Q163 28 173 15T198 0H15Q25 1 39 15T69 54T100 121ZM335 523L230 246H442Z"
				   horiz-adv-x="718" unicode="Ą"/>
			<glyph d="M241 485Q321 485 362 447T404 340V138Q404 97 423 71T480 45Q485 45 493 47L417 -6Q393 -22 381 -39T369 -76Q369 -100 385 -114T426 -129Q454 -129 488 -109Q476 -141 448 -161T388 -181Q352 -181 326 -158T301 -100Q301 -71 317 -46T357 -5Q327 16 319 47Q302 19 262 2T177 -15Q116 -15 79 17T42 101Q42 160 111 207T305 281V327Q305 425 227 425Q189 425 166 408T143 366Q143 352 149 341T165 327L63 287Q51 315 51 342Q51 402 105 443T241 485ZM305 226Q138 189 138 115Q138 85 159 67T210 49Q249 49 277 74T305 137Z"
				   horiz-adv-x="477" unicode="ą"/>
			<glyph d="M400 682Q448 682 497 670T576 641V465Q553 534 503 569T386 605Q319 605 267 569T187 472T160 338Q160 263 189 199T270 101T391 66Q443 66 497 93T590 169V79Q552 35 495 10T374 -15Q275 -15 200 27T83 147T42 319Q42 419 88 504T215 636T400 682ZM346 853H482L289 700Z"
				   horiz-adv-x="640" unicode="Ć"/>
			<glyph d="M260 485Q324 485 365 445T409 340L309 298Q315 316 315 333Q315 371 294 392T241 414Q192 414 161 368T130 252Q130 171 169 116T274 61Q311 61 348 82T418 145Q403 73 354 29T239 -15Q177 -15 130 13T59 94T35 215Q35 292 65 354T147 450T260 485ZM238 666H374L181 511Z"
				   horiz-adv-x="441" unicode="ć"/>
			<glyph d="M400 682Q448 682 497 670T576 641V465Q553 534 503 569T386 605Q319 605 267 569T187 472T160 338Q160 263 189 199T270 101T391 66Q443 66 497 93T590 169V79Q552 35 495 10T374 -15Q275 -15 200 27T83 147T42 319Q42 419 88 504T215 636T400 682ZM364 868L511 699Q483 713 439 731Q388 751 364 763Q338 750 291 731Q248 713 221 699Q257 744 292 783T364 868Z"
				   horiz-adv-x="640" unicode="Ĉ"/>
			<glyph d="M260 485Q324 485 365 445T409 340L309 298Q315 316 315 333Q315 371 294 392T241 414Q192 414 161 368T130 252Q130 171 169 116T274 61Q311 61 348 82T418 145Q403 73 354 29T239 -15Q177 -15 130 13T59 94T35 215Q35 292 65 354T147 450T260 485ZM247 691L384 512L247 588Q214 569 180 549T114 512Q148 557 181 601T247 691Z"
				   horiz-adv-x="441" unicode="ĉ"/>
			<glyph d="M400 682Q448 682 497 670T576 641V465Q553 534 503 569T386 605Q319 605 267 569T187 472T160 338Q160 263 189 199T270 101T391 66Q443 66 497 93T590 169V79Q552 35 495 10T374 -15Q275 -15 200 27T83 147T42 319Q42 419 88 504T215 636T400 682ZM365 842Q395 842 413 824T431 778Q431 750 413 731Q395 713 365 713Q336 713 317 731T298 778Q298 806 317 824T365 842Z"
				   horiz-adv-x="640" unicode="Ċ"/>
			<glyph d="M260 485Q324 485 365 445T409 340L309 298Q315 316 315 333Q315 371 294 392T241 414Q192 414 161 368T130 252Q130 171 169 116T274 61Q311 61 348 82T418 145Q403 73 354 29T239 -15Q177 -15 130 13T59 94T35 215Q35 292 65 354T147 450T260 485ZM240 672Q266 672 282 656T298 617Q298 594 282 577Q267 561 240 561Q213 561 197 577T182 617Q182 640 197 656T240 672Z"
				   horiz-adv-x="441" unicode="ċ"/>
			<glyph d="M400 682Q448 682 497 670T576 641V465Q553 534 503 569T386 605Q319 605 267 569T187 472T160 338Q160 263 189 199T270 101T391 66Q443 66 497 93T590 169V79Q552 35 495 10T374 -15Q275 -15 200 27T83 147T42 319Q42 419 88 504T215 636T400 682ZM226 868Q250 855 301 835Q349 816 373 804Q399 817 446 836Q492 855 516 868Q480 822 444 782T373 699Z"
				   horiz-adv-x="640" unicode="Č"/>
			<glyph d="M260 485Q324 485 365 445T409 340L309 298Q315 316 315 333Q315 371 294 392T241 414Q192 414 161 368T130 252Q130 171 169 116T274 61Q311 61 348 82T418 145Q403 73 354 29T239 -15Q177 -15 130 13T59 94T35 215Q35 292 65 354T147 450T260 485ZM109 694L246 620L379 694L246 518Z"
				   horiz-adv-x="441" unicode="č"/>
			<glyph d="M41 666H322Q422 666 498 625T615 510T656 340Q656 240 615 162T496 42T315 0H46Q60 3 71 15T89 51T96 113V563Q96 605 81 632T41 666ZM207 596V71H322Q385 71 433 101T509 193T538 333Q538 459 476 527T296 596ZM201 868Q225 855 276 835Q324 816 348 804Q374 817 421 836Q467 855 491 868Q455 822 419 782T348 699Z"
				   horiz-adv-x="698" unicode="Ď"/>
			<glyph d="M454 699V135Q454 85 465 62T503 39H515L362 -21L361 53Q341 25 301 5T220 -15Q136 -15 85 47T35 218Q35 293 63 354T143 449T255 484Q289 484 314 474T355 447V543Q355 590 342 614T299 638H290ZM263 415Q227 415 199 393T155 331T140 244Q140 160 169 110T250 61Q292 61 324 92T356 162V311Q356 360 331 387T263 415ZM541 682H654L516 501Z"
				   unicode="ď"/>
			<glyph d="M41 666H322Q422 666 498 625T615 510T656 340Q656 240 615 162T496 42T315 0H46Q60 3 71 15T89 51T96 113V302H19V361H96V563Q96 605 81 632T41 666ZM207 596V361H331V302H207V71H322Q385 71 433 101T509 193T538 333Q538 459 476 527T296 596Z"
				   horiz-adv-x="698" unicode="Đ"/>
			<glyph d="M472 699V585H517V545H472V135Q472 86 484 62T523 39H534L378 -22L377 55Q354 25 313 5T229 -15Q142 -15 89 46T37 217Q37 292 67 353T150 449T266 484Q301 484 328 474T370 447V545H189V585H367Q358 638 314 638H304ZM274 415Q215 415 180 365T145 243Q145 161 175 111T260 62Q303 62 337 93T371 165V309Q371 358 346 386T274 415Z"
				   unicode="đ"/>
			<glyph d="M37 666H454V517Q443 550 429 565T394 588T339 596H202V374H317Q349 374 369 382T396 406V270Q390 287 370 295T319 303H202V71H347Q409 71 440 89T497 160L470 0H44Q66 5 78 33T91 107V563Q91 605 77 632T37 666ZM96 806H414V754H96Z"
				   horiz-adv-x="524" unicode="Ē"/>
			<glyph d="M246 485Q330 485 378 417T429 231H133L135 220Q144 149 185 106T285 63Q326 63 366 84T436 142Q418 63 369 24T247 -15Q184 -15 136 16T61 102T35 226Q35 298 62 357T137 451T246 485ZM241 423Q197 423 166 383T133 287H329Q329 346 305 384T241 423ZM89 632H406V581H89Z"
				   horiz-adv-x="464" unicode="ē"/>
			<glyph d="M37 666H454V517Q443 550 429 565T394 588T339 596H202V374H317Q349 374 369 382T396 406V270Q390 287 370 295T319 303H202V71H347Q409 71 440 89T497 160L470 0H44Q66 5 78 33T91 107V563Q91 605 77 632T37 666ZM151 864Q167 829 198 810T266 791Q301 791 331 809Q362 827 381 864Q381 820 366 787T325 736T266 717Q235 717 208 734T166 786T151 864Z"
				   horiz-adv-x="524" unicode="Ĕ"/>
			<glyph d="M246 485Q330 485 378 417T429 231H133L135 220Q144 149 185 106T285 63Q326 63 366 84T436 142Q418 63 369 24T247 -15Q184 -15 136 16T61 102T35 226Q35 298 62 357T137 451T246 485ZM241 423Q197 423 166 383T133 287H329Q329 346 305 384T241 423ZM136 692Q151 658 181 638T250 619Q289 619 319 639Q350 659 365 692Q365 648 350 615T308 563T250 545Q218 545 192 563T151 615T136 692Z"
				   horiz-adv-x="464" unicode="ĕ"/>
			<glyph d="M37 666H454V517Q443 550 429 565T394 588T339 596H202V374H317Q349 374 369 382T396 406V270Q390 287 370 295T319 303H202V71H347Q409 71 440 89T497 160L470 0H44Q66 5 78 33T91 107V563Q91 605 77 632T37 666ZM275 842Q304 842 322 824T341 778Q341 750 323 731Q305 713 275 713Q246 713 227 731T208 778Q208 805 226 823T275 842Z"
				   horiz-adv-x="524" unicode="Ė"/>
			<glyph d="M246 485Q330 485 378 417T429 231H133L135 220Q144 149 185 106T285 63Q326 63 366 84T436 142Q418 63 369 24T247 -15Q184 -15 136 16T61 102T35 226Q35 298 62 357T137 451T246 485ZM241 423Q197 423 166 383T133 287H329Q329 346 305 384T241 423ZM246 672Q272 672 288 656T304 617Q304 594 288 577Q273 561 246 561Q219 561 203 577T188 617Q188 640 203 656T246 672Z"
				   horiz-adv-x="464" unicode="ė"/>
			<glyph d="M38 666H454V517Q443 550 429 565T394 588T339 596H202V374H317Q377 374 396 405V270Q390 287 370 295T319 303H202V71H347Q409 71 440 89T497 160L470 0Q432 -2 405 -24T378 -76Q378 -100 393 -114T435 -129Q464 -129 497 -109Q485 -141 457 -161T397 -181Q360 -181 335 -158T310 -100Q310 -73 326 -47T374 0H45Q58 3 68 15T84 50T91 107V563Q91 648 38 666Z"
				   horiz-adv-x="521" unicode="Ę"/>
			<glyph d="M246 485Q330 485 378 417T429 231H133L135 220Q144 149 185 106T285 63Q326 63 366 84T436 142Q428 107 416 83T389 43T345 7Q315 -14 304 -25T287 -49T282 -76Q282 -99 297 -114T339 -129Q368 -129 401 -109Q389 -141 361 -161T301 -181Q264 -181 239 -158T214 -100Q214 -53 258 -14Q252 -15 247 -15Q185 -15 136 16T61 102T35 226Q35 298 62 357T137 451T246 485ZM241 423Q197 423 167 383T133 287H329Q329 346 305 384T241 423Z"
				   horiz-adv-x="464" unicode="ę"/>
			<glyph d="M37 666H454V517Q443 550 429 565T394 588T339 596H202V374H317Q349 374 369 382T396 406V270Q390 287 370 295T319 303H202V71H347Q409 71 440 89T497 160L470 0H44Q66 5 78 33T91 107V563Q91 605 77 632T37 666ZM128 868Q152 855 203 835Q251 816 275 804Q301 817 348 836Q394 855 418 868Q382 822 346 782T275 699Z"
				   horiz-adv-x="524" unicode="Ě"/>
			<glyph d="M246 485Q330 485 378 417T429 231H133L135 220Q144 149 185 106T285 63Q326 63 366 84T436 142Q418 63 369 24T247 -15Q184 -15 136 16T61 102T35 226Q35 298 62 357T137 451T246 485ZM241 423Q197 423 166 383T133 287H329Q329 346 305 384T241 423ZM109 694L246 620L379 694L246 518Z"
				   horiz-adv-x="464" unicode="ě"/>
			<glyph d="M400 681Q512 681 591 640V491Q563 547 508 576T385 605Q318 605 266 571T187 475T159 337Q159 258 189 195T275 97T400 63Q438 63 487 80V210Q487 246 473 270T434 301H644Q620 295 607 271T595 212V27Q551 7 494 -4T375 -16Q276 -16 201 25T84 144T41 318Q41 421 86 505T213 635T400 681ZM382 868L529 699Q501 713 457 731Q406 751 382 763Q356 750 309 731Q266 713 239 699Q275 744 310 783T382 868Z"
				   horiz-adv-x="693" unicode="Ĝ"/>
			<glyph d="M240 485Q276 485 316 473T393 462Q441 462 472 482V405Q467 403 444 401T395 400Q410 381 417 356T425 308Q425 262 401 225T335 167T237 147Q220 147 202 150Q149 125 149 100Q149 88 167 79T219 70L334 67Q398 65 435 38T472 -35Q472 -79 439 -116T346 -174T205 -195Q124 -195 74 -170T25 -104Q25 -72 52 -42T115 3Q53 20 53 66Q53 90 78 118T140 165Q98 182 71 220T44 308Q44 357 68 398T138 462T240 485ZM228 425Q190 425 167 397T145 327Q145 277 172 242T242 207Q278 207 300 235T323 307Q323 357 296 391T228 425ZM173 -10Q116 -40 116 -75Q116 -100 145 -115T233 -130Q301 -130 342 -112T383 -62Q383 -38 360 -27T289 -14ZM246 691L383 512L246 588Q213 569 179 549T113 512Q147 557 180 601T246 691Z"
				   horiz-adv-x="497" unicode="ĝ"/>
			<glyph d="M400 681Q512 681 591 640V491Q563 547 508 576T385 605Q318 605 266 571T187 475T159 337Q159 258 189 195T275 97T400 63Q438 63 487 80V210Q487 246 473 270T434 301H644Q620 295 607 271T595 212V27Q551 7 494 -4T375 -16Q276 -16 201 25T84 144T41 318Q41 421 86 505T213 635T400 681ZM264 864Q280 829 311 810T379 791Q414 791 444 809Q475 827 494 864Q494 820 479 787T438 736T379 717Q348 717 321 734T279 786T264 864Z"
				   horiz-adv-x="693" unicode="Ğ"/>
			<glyph d="M240 485Q276 485 316 473T393 462Q441 462 472 482V405Q467 403 444 401T395 400Q410 381 417 356T425 308Q425 262 401 225T335 167T237 147Q220 147 202 150Q149 125 149 100Q149 88 167 79T219 70L334 67Q398 65 435 38T472 -35Q472 -79 439 -116T346 -174T205 -195Q124 -195 74 -170T25 -104Q25 -72 52 -42T115 3Q53 20 53 66Q53 90 78 118T140 165Q98 182 71 220T44 308Q44 357 68 398T138 462T240 485ZM228 425Q190 425 167 397T145 327Q145 277 172 242T242 207Q278 207 300 235T323 307Q323 357 296 391T228 425ZM173 -10Q116 -40 116 -75Q116 -100 145 -115T233 -130Q301 -130 342 -112T383 -62Q383 -38 360 -27T289 -14ZM134 692Q149 658 179 638T248 619Q287 619 317 639Q348 659 363 692Q363 648 348 615T306 563T248 545Q216 545 190 563T149 615T134 692Z"
				   horiz-adv-x="497" unicode="ğ"/>
			<glyph d="M400 681Q512 681 591 640V491Q563 547 508 576T385 605Q318 605 266 571T187 475T159 337Q159 258 189 195T275 97T400 63Q438 63 487 80V210Q487 246 473 270T434 301H644Q620 295 607 271T595 212V27Q551 7 494 -4T375 -16Q276 -16 201 25T84 144T41 318Q41 421 86 505T213 635T400 681ZM383 842Q412 842 430 824T449 778Q449 750 431 731Q413 713 383 713Q354 713 335 731T316 778Q316 805 334 823T383 842Z"
				   horiz-adv-x="693" unicode="Ġ"/>
			<glyph d="M240 485Q276 485 316 473T393 462Q441 462 472 482V405Q467 403 444 401T395 400Q410 381 417 356T425 308Q425 262 401 225T335 167T237 147Q220 147 202 150Q149 125 149 100Q149 88 167 79T219 70L334 67Q398 65 435 38T472 -35Q472 -79 439 -116T346 -174T205 -195Q124 -195 74 -170T25 -104Q25 -72 52 -42T115 3Q53 20 53 66Q53 90 78 118T140 165Q98 182 71 220T44 308Q44 357 68 398T138 462T240 485ZM228 425Q190 425 167 397T145 327Q145 277 172 242T242 207Q278 207 300 235T323 307Q323 357 296 391T228 425ZM173 -10Q116 -40 116 -75Q116 -100 145 -115T233 -130Q301 -130 342 -112T383 -62Q383 -38 360 -27T289 -14ZM239 672Q265 672 281 656T297 617Q297 594 281 577Q266 561 239 561Q212 561 196 577T181 617Q181 640 196 656T239 672Z"
				   horiz-adv-x="497" unicode="ġ"/>
			<glyph d="M400 681Q512 681 591 640V491Q563 547 508 576T385 605Q318 605 266 571T187 475T159 337Q159 258 189 195T275 97T400 63Q438 63 487 80V210Q487 246 473 270T434 301H644Q620 295 607 271T595 212V27Q551 7 494 -4T375 -16Q276 -16 201 25T84 144T41 318Q41 421 86 505T213 635T400 681ZM352 -34Q374 -34 389 -51T405 -98Q405 -133 378 -161T311 -194Q333 -183 346 -162T360 -119V-115Q350 -117 346 -117Q328 -117 318 -105T308 -78Q308 -61 320 -47T352 -34Z"
				   horiz-adv-x="693" unicode="Ģ"/>
			<glyph d="M286 685Q265 676 251 653T237 610V606L251 608Q270 608 279 596T289 569Q289 552 277 538T245 525Q223 525 207 542T192 589Q192 624 219 652T286 685ZM240 485Q276 485 316 473T393 462Q441 462 472 482V405Q467 403 444 401T395 400Q410 381 417 356T425 308Q425 262 401 225T335 167T237 147Q220 147 202 150Q149 125 149 100Q149 88 167 79T219 70L334 67Q398 65 435 38T472 -35Q472 -79 439 -116T346 -174T205 -195Q124 -195 74 -170T25 -104Q25 -72 52 -42T115 3Q53 20 53 66Q53 90 78 118T140 165Q98 182 71 220T44 308Q44 357 68 398T138 462T240 485ZM228 425Q190 425 167 397T145 327Q145 277 172 242T242 207Q278 207 300 235T323 307Q323 357 296 391T228 425ZM173 -10Q116 -40 116 -75Q116 -100 145 -115T233 -130Q301 -130 342 -112T383 -62Q383 -38 360 -27T289 -14Z"
				   horiz-adv-x="497" unicode="ģ"/>
			<glyph d="M39 666H246Q223 660 211 633T199 564V374H518V564Q518 605 505 633T469 666H676Q653 660 641 633T629 564V102Q629 59 641 31T675 0H470Q484 3 494 14T511 46T518 102V303H199V102Q199 69 205 47T222 13T245 0H41Q54 3 64 14T81 46T88 102V564Q88 605 75 632T39 666ZM361 868L508 699Q480 713 436 731Q385 751 361 763Q335 750 288 731Q245 713 218 699Q254 744 289 783T361 868Z"
				   horiz-adv-x="717" unicode="Ĥ"/>
			<glyph d="M173 699V409Q199 440 241 462T323 485Q386 485 422 445T459 326V96Q459 65 465 44T481 13T502 0H323Q333 2 341 13T354 43T359 94V300Q359 356 340 382T282 408Q238 408 205 374T173 292V94Q173 54 184 29T214 0H29Q42 2 51 13T67 44T74 97V528Q74 582 61 606T16 631H6ZM273 868L420 699Q392 713 348 731Q297 751 273 763Q247 750 200 731Q157 713 130 699Q166 744 201 783T273 868Z"
				   horiz-adv-x="530" unicode="ĥ"/>
			<glyph d="M38 666H249Q226 660 213 630T201 553H535Q533 604 520 632T489 666H696Q675 657 662 621T649 532V102Q649 71 656 49T674 15T696 0H486Q499 5 511 22T529 68T535 133V303H201V133Q201 96 207 69T221 28T237 7T249 0H39Q43 1 50 6T65 25T80 66T87 134V563Q87 602 74 629T38 666ZM201 482V374H535V482Z"
				   horiz-adv-x="736" unicode="Ħ"/>
			<glyph d="M173 699V589H334V538H173V409Q199 440 241 462T323 485Q386 485 422 445T459 326V96Q459 65 465 44T481 13T502 0H323Q334 3 341 14T354 44T359 94V300Q359 356 340 382T282 408Q238 408 205 374T173 292V94Q173 54 184 29T214 0H29Q42 2 51 13T67 44T74 97V538H17V589H67Q61 610 49 620T16 631H6Z"
				   horiz-adv-x="530" unicode="ħ"/>
			<glyph d="M41 666H247Q225 660 212 633T200 567V96Q200 65 206 45T223 13T246 0H42Q54 2 65 13T83 44T90 96V567Q90 606 78 632T41 666ZM282 852Q298 834 298 806Q298 771 274 744T216 717Q197 717 178 725T140 746T103 766T73 774Q51 774 37 754T22 705Q5 725 5 753Q5 788 28 813T87 838Q105 838 125 829T165 810T202 791T233 783Q256 783 268 801Q281 820 282 852Z"
				   horiz-adv-x="300" unicode="Ĩ"/>
			<glyph d="M173 488V97Q173 65 179 44T196 13T218 0H25Q37 2 48 13T65 45T71 97V337Q71 381 58 402T18 423H6ZM253 682Q268 665 268 642Q268 604 244 575T184 547Q167 547 148 555T112 575T76 595T44 604Q22 604 8 584T-7 535Q-23 553 -23 577Q-23 614 0 641T58 668Q76 668 96 659T136 640T173 621T204 613Q226 613 239 631T253 682Z"
				   horiz-adv-x="243" unicode="ĩ"/>
			<glyph d="M41 666H247Q225 660 212 633T200 567V96Q200 65 206 45T223 13T246 0H42Q54 2 65 13T83 44T90 96V567Q90 606 78 632T41 666ZM-14 806H304V754H-14Z"
				   horiz-adv-x="290" unicode="Ī"/>
			<glyph d="M173 488V97Q173 65 179 44T196 13T218 0H25Q37 2 48 13T65 45T71 97V337Q71 381 58 402T18 423H6ZM-41 632H276V581H-41Z"
				   horiz-adv-x="243" unicode="ī"/>
			<glyph d="M41 666H247Q225 660 212 633T200 567V96Q200 65 206 45T223 13T246 0H42Q54 2 65 13T83 44T90 96V567Q90 606 78 632T41 666ZM33 864Q49 829 80 810T148 791Q183 791 213 809Q244 827 263 864Q263 820 248 787T207 736T148 717Q117 717 90 734T48 786T33 864Z"
				   horiz-adv-x="290" unicode="Ĭ"/>
			<glyph d="M173 488V97Q173 65 179 44T196 13T218 0H25Q37 2 48 13T65 45T71 97V337Q71 381 58 402T18 423H6ZM8 692Q23 658 53 638T122 619Q161 619 191 639Q222 659 237 692Q237 648 222 615T180 563T122 545Q90 545 64 563T23 615T8 692Z"
				   horiz-adv-x="243" unicode="ĭ"/>
			<glyph d="M45 666H253Q232 661 219 634T207 566V97Q207 66 213 45T230 13T252 0Q217 -1 191 -11T151 -39T137 -77Q137 -101 152 -115T193 -129Q224 -129 255 -109Q244 -141 216 -161T156 -181Q118 -181 93 -158T69 -100Q69 -73 85 -46T131 0H47Q60 2 70 13T87 45T94 97V566Q94 649 45 666Z"
				   horiz-adv-x="300" unicode="Į"/>
			<glyph d="M173 488V97Q173 55 185 29T220 0Q167 -2 135 -23T104 -78Q104 -101 119 -115T160 -129Q191 -129 222 -110Q212 -140 183 -161T123 -182Q86 -182 61 -159T36 -101Q36 -70 54 -43T99 0H27Q47 3 59 29T71 97V337Q71 381 58 402T18 423H6ZM114 679Q143 679 160 661T178 617Q178 590 160 572Q143 554 114 554Q84 554 66 572T49 617Q49 643 66 661T114 679Z"
				   horiz-adv-x="243" unicode="į"/>
			<glyph d="M41 666H247Q225 660 212 633T200 567V96Q200 65 206 45T223 13T246 0H42Q54 2 65 13T83 44T90 96V567Q90 606 78 632T41 666ZM151 842Q180 842 198 824T217 778Q217 750 199 731Q181 713 151 713Q122 713 103 731T84 778Q84 805 102 823T151 842Z"
				   horiz-adv-x="300" unicode="İ"/>
			<glyph d="M173 488V97Q173 65 179 44T196 13T218 0H25Q37 2 48 13T65 45T71 97V337Q71 381 58 402T18 423H6Z"
				   horiz-adv-x="243" unicode="ı"/>
			<glyph d="M41 666H247Q225 660 212 633T200 567V96Q200 65 206 45T223 13T246 0H42Q54 2 65 13T83 44T90 96V567Q90 606 78 632T41 666ZM347 666H555Q532 659 520 632T508 566V141Q508 32 469 -18T356 -69Q295 -69 253 -26Q271 -32 290 -32Q343 -32 370 14T398 152V567Q398 607 385 634T347 666Z"
				   horiz-adv-x="597" unicode="Ĳ"/>
			<glyph d="M170 489V96Q170 64 176 43T193 12T214 0H26Q48 4 59 29T71 96V339Q71 381 59 402T19 423H7ZM113 681Q143 681 161 663T179 617Q179 588 160 570T113 552Q84 552 65 570T46 617Q46 645 64 663T113 681ZM360 681Q390 681 408 663T427 617Q427 588 408 570T360 552Q330 552 312 570T294 617Q294 644 311 662T360 681ZM423 489V-14Q423 -189 288 -189Q263 -189 236 -178T190 -148Q209 -154 223 -154Q278 -154 300 -121T323 -15V344Q323 385 311 404T272 423H259Z"
				   horiz-adv-x="491" unicode="ĳ"/>
			<glyph d="M57 666H265Q242 659 230 632T218 566V141Q218 32 179 -18T66 -69Q5 -69 -37 -26Q-19 -32 0 -32Q53 -32 80 14T108 152V567Q108 607 95 634T57 666ZM163 868L310 699Q282 713 238 731Q187 751 163 763Q137 750 90 731Q47 713 20 699Q56 744 91 783T163 868Z"
				   horiz-adv-x="307" unicode="Ĵ"/>
			<glyph d="M172 489V-14Q172 -189 37 -189Q12 -189 -14 -178T-61 -148Q-42 -154 -28 -154Q27 -154 49 -121T72 -15V344Q72 385 60 404T21 423H8ZM124 700L258 529L124 601L-12 529Z"
				   horiz-adv-x="240" unicode="ĵ"/>
			<glyph d="M39 666H245Q223 660 211 633T199 564V360L385 561Q435 616 435 643Q435 660 414 666H632Q603 660 563 631T483 558L304 368L515 110Q547 71 570 49T611 16T650 0H461L199 326V101Q199 55 212 29T244 0H40Q63 5 75 31T88 101V564Q88 605 75 632T39 666ZM330 -34Q352 -34 367 -51T383 -98Q383 -133 356 -161T289 -194Q311 -183 324 -162T338 -119V-115Q328 -117 324 -117Q306 -117 296 -105T286 -78Q286 -61 298 -47T330 -34Z"
				   horiz-adv-x="666" unicode="Ķ"/>
			<glyph d="M171 695V262L294 386Q327 419 327 441Q327 461 299 468H513Q481 457 449 434T386 381L270 268L410 96Q476 15 522 14Q529 14 535 15Q501 -11 430 -11Q392 -11 361 8T295 73L215 179L171 235V96Q171 65 177 44T193 13T213 0H28Q48 4 59 29T71 96V533Q71 584 58 608T15 633H6ZM273 -34Q295 -34 310 -51T326 -98Q326 -133 299 -161T232 -194Q254 -183 267 -162T281 -119V-115Q271 -117 267 -117Q249 -117 239 -105T229 -78Q229 -61 241 -47T273 -34Z"
				   horiz-adv-x="556" unicode="ķ"/>
			<glyph d="M170 489V258L296 385Q330 418 330 441Q330 449 323 456T302 468H515Q484 458 454 436T387 379L273 268L418 97Q488 14 531 14Q540 14 545 16Q530 4 504 -3T448 -11Q404 -11 373 6T300 74L274 106Q201 200 170 234V118Q170 80 176 55T193 16T215 0H26Q39 3 49 17T65 55T71 117V337Q71 381 59 402T20 423H8Z"
				   horiz-adv-x="545" unicode="ĸ"/>
			<glyph d="M41 666H243Q221 661 208 632T196 563V71H336Q388 71 413 77T456 98T495 153L472 0H46Q65 3 76 33T88 112V563Q88 605 76 632T41 666ZM248 853H384L191 700Z"
				   unicode="Ĺ"/>
			<glyph d="M170 695V96Q170 65 176 44T191 13T212 0H26Q39 3 49 14T65 44T71 96V533Q71 584 58 609T15 633H6ZM118 853H254L61 700Z"
				   horiz-adv-x="240" unicode="ĺ"/>
			<glyph d="M41 666H243Q221 661 208 632T196 563V71H336Q388 71 413 77T456 98T495 153L472 0H46Q65 3 76 33T88 112V563Q88 605 76 632T41 666ZM269 -34Q291 -34 306 -51T322 -98Q322 -133 295 -161T228 -194Q250 -183 263 -162T277 -119V-115Q267 -117 263 -117Q245 -117 235 -105T225 -78Q225 -61 237 -47T269 -34Z"
				   unicode="Ļ"/>
			<glyph d="M170 695V96Q170 65 176 44T191 13T212 0H26Q39 3 49 14T65 44T71 96V533Q71 584 58 609T15 633H6ZM123 -34Q145 -34 160 -51T176 -98Q176 -133 149 -161T82 -194Q104 -183 117 -162T131 -119V-115Q121 -117 117 -117Q99 -117 89 -105T79 -78Q79 -61 91 -47T123 -34Z"
				   horiz-adv-x="240" unicode="ļ"/>
			<glyph d="M41 666H243Q221 661 208 632T196 563V71H336Q388 71 413 77T456 98T495 153L472 0H46Q65 3 76 33T88 112V563Q88 605 76 632T41 666ZM323 682H436L298 501Z"
				   unicode="Ľ"/>
			<glyph d="M170 695V96Q170 65 176 44T191 13T212 0H26Q39 3 49 14T65 44T71 96V533Q71 584 58 609T15 633H6ZM244 682H357L219 501Z"
				   horiz-adv-x="240" unicode="ľ"/>
			<glyph d="M41 666H243Q221 661 208 632T196 563V71H336Q388 71 413 77T456 98T495 153L472 0H46Q65 3 76 33T88 112V563Q88 605 76 632T41 666ZM422 406Q455 406 475 386T495 336Q495 305 474 285T422 265Q390 265 370 285T350 336Q350 367 370 386T422 406Z"
				   horiz-adv-x="576" unicode="Ŀ"/>
			<glyph d="M170 695V96Q170 65 176 44T191 13T212 0H26Q39 3 49 14T65 44T71 96V533Q71 584 58 609T15 633H6ZM328 407Q361 407 381 387T401 337Q401 306 380 286T328 266Q296 266 276 286T256 337Q256 368 276 387T328 407Z"
				   horiz-adv-x="428" unicode="ŀ"/>
			<glyph d="M42 666H242Q221 661 208 633T196 563V398L303 479V407L196 326V71H336Q388 71 413 77T456 98T495 153L472 0H46Q65 4 76 34T88 112V244L19 191V262L88 316V563Q88 606 76 632T42 666Z"
				   unicode="Ł"/>
			<glyph d="M170 695V406L233 454V382L170 334V96Q170 66 175 45T190 13T211 0H26Q39 3 48 13T64 44T71 96V259L8 211V283L71 331V533Q71 584 58 608T15 633H6Z"
				   horiz-adv-x="240" unicode="ł"/>
			<glyph d="M13 666H181L530 218V566Q530 607 516 633T478 666H661Q637 660 625 633T613 566V0H541Q531 29 507 69T449 151L179 487V100Q179 67 187 46T207 13T233 0H46Q69 5 82 30T95 100V557Q95 589 76 617T13 666ZM371 853H507L314 700Z"
				   horiz-adv-x="698" unicode="Ń"/>
			<glyph d="M167 489L168 406Q192 439 236 462T322 485Q386 485 421 444T457 327V96Q457 54 468 29T499 0H318Q337 5 347 29T357 93V301Q357 356 336 382T281 408Q239 408 204 374T170 293V93Q170 62 176 42T191 12T211 0H26Q47 4 59 28T71 94V333Q71 379 60 401T20 423H8ZM295 666H431L238 511Z"
				   horiz-adv-x="530" unicode="ń"/>
			<glyph d="M13 666H181L530 218V566Q530 607 516 633T478 666H661Q637 660 625 633T613 566V0H541Q531 29 507 69T449 151L179 487V100Q179 67 187 46T207 13T233 0H46Q69 5 82 30T95 100V557Q95 589 76 617T13 666ZM359 -34Q381 -34 396 -51T412 -98Q412 -133 385 -161T318 -194Q340 -183 353 -162T367 -119V-115Q357 -117 353 -117Q335 -117 325 -105T315 -78Q315 -61 327 -47T359 -34Z"
				   horiz-adv-x="698" unicode="Ņ"/>
			<glyph d="M167 489L168 406Q192 439 236 462T322 485Q386 485 421 444T457 327V96Q457 54 468 29T499 0H318Q337 5 347 29T357 93V301Q357 356 336 382T281 408Q239 408 204 374T170 293V93Q170 62 176 42T191 12T211 0H26Q47 4 59 28T71 94V333Q71 379 60 401T20 423H8ZM269 -34Q291 -34 306 -51T322 -98Q322 -133 295 -161T228 -194Q250 -183 263 -162T277 -119V-115Q267 -117 263 -117Q245 -117 235 -105T225 -78Q225 -61 237 -47T269 -34Z"
				   horiz-adv-x="530" unicode="ņ"/>
			<glyph d="M13 666H181L530 218V566Q530 607 516 633T478 666H661Q637 660 625 633T613 566V0H541Q531 29 507 69T449 151L179 487V100Q179 67 187 46T207 13T233 0H46Q69 5 82 30T95 100V557Q95 589 76 617T13 666ZM211 868Q235 855 286 835Q334 816 358 804Q384 817 431 836Q477 855 501 868Q465 822 429 782T358 699Z"
				   horiz-adv-x="698" unicode="Ň"/>
			<glyph d="M167 489L168 406Q192 439 236 462T322 485Q386 485 421 444T457 327V96Q457 54 468 29T499 0H318Q337 5 347 29T357 93V301Q357 356 336 382T281 408Q239 408 204 374T170 293V93Q170 62 176 42T191 12T211 0H26Q47 4 59 28T71 94V333Q71 379 60 401T20 423H8ZM138 694L275 620L408 694L275 518Z"
				   horiz-adv-x="530" unicode="ň"/>
			<glyph d="M55 687Q78 687 93 669T108 623Q108 589 81 560T14 527Q34 536 48 558T63 602V606L49 604Q30 604 20 616T11 643Q11 662 23 674T55 687ZM167 489L168 406Q192 439 236 462T322 485Q386 485 421 444T457 327V96Q457 54 468 29T499 0H318Q337 5 347 29T357 93V301Q357 356 336 382T281 408Q239 408 204 374T170 293V93Q170 62 176 42T191 12T211 0H26Q47 4 59 28T71 94V333Q71 379 60 401T20 423H8Z"
				   horiz-adv-x="530" unicode="ŉ"/>
			<glyph d="M15 666H187L554 216V564Q554 596 547 616T530 648T501 666H687Q665 660 651 633T638 564V61Q638 -36 581 -94T434 -153Q479 -130 503 -94T528 -17Q528 22 499 79T427 190L184 488V101Q184 69 191 47T211 14T238 0H51Q64 2 74 13T92 46T99 101V554Q99 582 87 603T56 641T15 666Z"
				   horiz-adv-x="698" unicode="Ŋ"/>
			<glyph d="M174 488V405Q201 438 246 461T336 485Q403 485 439 443T475 325V-14Q475 -189 335 -189Q278 -189 234 -149Q250 -154 269 -154Q326 -154 349 -121T373 -15V300Q373 408 293 408Q248 408 212 373T176 292V94Q176 63 181 44T197 13T218 0H30Q52 5 63 29T75 95V330Q75 377 63 400T22 423H10Z"
				   horiz-adv-x="530" unicode="ŋ"/>
			<glyph d="M379 682Q470 682 542 639T655 517T695 342Q695 243 651 160Q608 78 531 31T359 -15Q268 -15 195 28T82 149T41 325Q41 424 84 506T206 635T379 682ZM357 604Q299 604 252 573T179 484T153 355Q153 270 181 203T261 100T380 64Q437 64 484 96Q532 128 558 185T584 317Q584 399 555 465T475 567T357 604ZM215 806H533V754H215Z"
				   horiz-adv-x="736" unicode="Ō"/>
			<glyph d="M276 485Q345 485 397 454T477 367T506 244Q506 174 475 113Q445 53 391 19T266 -15Q197 -15 145 16T66 102T38 226Q38 296 68 356T152 451T276 485ZM261 416Q207 416 174 369T141 249Q141 196 158 151T207 80T281 54Q336 54 368 102T401 223Q401 276 383 320T334 390T261 416ZM120 632H437V581H120Z"
				   horiz-adv-x="544" unicode="ō"/>
			<glyph d="M379 682Q470 682 542 639T655 517T695 342Q695 243 651 160Q608 78 531 31T359 -15Q268 -15 195 28T82 149T41 325Q41 424 84 506T206 635T379 682ZM357 604Q299 604 252 573T179 484T153 355Q153 270 181 203T261 100T380 64Q437 64 484 96Q532 128 558 185T584 317Q584 399 555 465T475 567T357 604ZM257 864Q273 829 304 810T372 791Q407 791 437 809Q468 827 487 864Q487 820 472 787T431 736T372 717Q341 717 314 734T272 786T257 864Z"
				   horiz-adv-x="736" unicode="Ŏ"/>
			<glyph d="M276 485Q345 485 397 454T477 367T506 244Q506 174 475 113Q445 53 391 19T266 -15Q197 -15 145 16T66 102T38 226Q38 296 68 356T152 451T276 485ZM261 416Q207 416 174 369T141 249Q141 196 158 151T207 80T281 54Q336 54 368 102T401 223Q401 276 383 320T334 390T261 416ZM163 692Q178 658 208 638T277 619Q316 619 346 639Q377 659 392 692Q392 648 377 615T335 563T277 545Q245 545 219 563T178 615T163 692Z"
				   horiz-adv-x="544" unicode="ŏ"/>
			<glyph d="M379 682Q470 682 542 639T655 517T695 342Q695 243 651 160Q608 78 531 31T359 -15Q268 -15 195 28T82 149T41 325Q41 424 84 506T206 635T379 682ZM357 604Q299 604 252 573T179 484T153 355Q153 270 181 203T261 100T380 64Q437 64 484 96Q532 128 558 185T584 317Q584 399 555 465T475 567T357 604ZM495 864H624L438 709ZM317 864H446L260 709Z"
				   horiz-adv-x="736" unicode="Ő"/>
			<glyph d="M276 485Q345 485 397 454T477 367T506 244Q506 174 475 113Q445 53 391 19T266 -15Q197 -15 145 16T66 102T38 226Q38 296 68 356T152 451T276 485ZM261 416Q207 416 174 369T141 249Q141 196 158 151T207 80T281 54Q336 54 368 102T401 223Q401 276 383 320T334 390T261 416ZM374 666H503L317 511ZM196 666H325L139 511Z"
				   horiz-adv-x="544" unicode="ő"/>
			<glyph d="M379 682Q429 682 481 666H857V502Q848 547 819 571T747 596H605V374H726Q788 374 801 420V256Q797 278 778 290T727 303H605V71H754Q812 71 845 95T901 178L873 0H461Q412 -15 359 -15Q268 -15 196 28T82 149T41 325Q41 424 84 506T206 635T379 682ZM357 604Q299 604 252 572T179 484T154 355Q154 270 182 203T262 100T380 64Q444 64 494 102V553Q438 604 357 604Z"
				   horiz-adv-x="925" unicode="Œ"/>
			<glyph d="M276 485Q392 485 455 403Q516 485 613 485Q695 485 744 418T796 231H500L502 220Q511 149 551 106T652 63Q692 63 733 83T803 142Q785 63 736 24T614 -15Q558 -15 516 8T448 70Q381 -15 266 -15Q197 -15 145 16T66 102T38 226Q38 296 68 356T152 451T276 485ZM608 423Q564 423 534 383T500 287H696Q696 346 672 384T608 423ZM261 416Q207 416 174 369T141 249Q141 196 158 151T207 80T281 54Q335 54 368 102T401 223Q401 276 383 320T334 390T261 416Z"
				   horiz-adv-x="831" unicode="œ"/>
			<glyph d="M41 666H297Q362 666 413 642T492 574T521 477Q521 431 500 391T440 326T350 296Q375 286 401 240L502 66Q534 11 590 0H416L293 220Q275 253 258 267T219 281H202V101Q202 68 208 46T225 14T248 0H48Q69 4 82 30T95 101V561Q95 603 81 631T41 666ZM201 596V346H276Q339 346 374 380T409 473Q409 525 373 560T276 596ZM314 853H450L257 700Z"
				   horiz-adv-x="596" unicode="Ŕ"/>
			<glyph d="M163 489L164 374Q182 420 220 452T299 485Q326 485 347 473V340Q336 361 315 375T270 389Q242 389 218 367T180 306T167 217V96Q167 65 173 44T189 13T210 0H26Q46 4 57 29T69 96V344Q69 387 58 406T21 426H10ZM181 666H317L124 511Z"
				   horiz-adv-x="368" unicode="ŕ"/>
			<glyph d="M41 666H297Q362 666 413 642T492 574T521 477Q521 431 500 391T440 326T350 296Q375 286 401 240L502 66Q534 11 590 0H416L293 220Q275 253 258 267T219 281H202V101Q202 68 208 46T225 14T248 0H48Q69 4 82 30T95 101V561Q95 603 81 631T41 666ZM201 596V346H276Q339 346 374 380T409 473Q409 525 373 560T276 596ZM312 -34Q334 -34 349 -51T365 -98Q365 -133 338 -161T271 -194Q293 -183 306 -162T320 -119V-115Q310 -117 306 -117Q288 -117 278 -105T268 -78Q268 -61 280 -47T312 -34Z"
				   horiz-adv-x="596" unicode="Ŗ"/>
			<glyph d="M163 489L164 374Q182 420 220 452T299 485Q326 485 347 473V340Q336 361 315 375T270 389Q242 389 218 367T180 306T167 217V96Q167 65 173 44T189 13T210 0H26Q46 4 57 29T69 96V344Q69 387 58 406T21 426H10ZM175 -34Q197 -34 212 -51T228 -98Q228 -133 201 -161T134 -194Q156 -183 169 -162T183 -119V-115Q173 -117 169 -117Q151 -117 141 -105T131 -78Q131 -61 143 -47T175 -34Z"
				   horiz-adv-x="368" unicode="ŗ"/>
			<glyph d="M41 666H297Q362 666 413 642T492 574T521 477Q521 431 500 391T440 326T350 296Q375 286 401 240L502 66Q534 11 590 0H416L293 220Q275 253 258 267T219 281H202V101Q202 68 208 46T225 14T248 0H48Q69 4 82 30T95 101V561Q95 603 81 631T41 666ZM201 596V346H276Q339 346 374 380T409 473Q409 525 373 560T276 596ZM147 868Q171 855 222 835Q270 816 294 804Q320 817 367 836Q413 855 437 868Q401 822 365 782T294 699Z"
				   horiz-adv-x="596" unicode="Ř"/>
			<glyph d="M163 489L164 374Q182 420 220 452T299 485Q326 485 347 473V340Q336 361 315 375T270 389Q242 389 218 367T180 306T167 217V96Q167 65 173 44T189 13T210 0H26Q46 4 57 29T69 96V344Q69 387 58 406T21 426H10ZM61 694L198 620L331 694L198 518Z"
				   horiz-adv-x="368" unicode="ř"/>
			<glyph d="M275 680Q320 680 362 667T431 635V496Q416 526 390 551T333 591T264 606Q214 606 183 580T152 516Q152 491 164 471T201 434T286 388Q366 350 400 322T453 258T472 177Q472 88 407 36T235 -15Q182 -15 132 -1T49 36V203Q79 130 126 95T243 61Q295 61 330 86T366 153Q366 190 339 220T258 279Q182 316 150 335T98 376T64 426T52 490Q52 576 113 628T275 680ZM257 853H393L200 700Z"
				   unicode="Ś"/>
			<glyph d="M214 485Q250 485 281 477T333 458V336Q311 377 278 398T207 419Q172 419 153 403T134 363Q134 338 152 320T237 271Q306 240 334 206T362 128Q362 63 315 24T185 -15Q143 -15 101 -4T39 24V156Q61 103 99 77T188 51Q225 51 247 66T269 108Q269 130 253 146T203 180L151 207Q96 234 70 266T44 342Q44 407 89 446T214 485ZM188 666H324L131 511Z"
				   horiz-adv-x="390" unicode="ś"/>
			<glyph d="M275 680Q320 680 362 667T431 635V496Q416 526 390 551T333 591T264 606Q214 606 183 580T152 516Q152 491 164 471T201 434T286 388Q366 350 400 322T453 258T472 177Q472 88 407 36T235 -15Q182 -15 132 -1T49 36V203Q79 130 126 95T243 61Q295 61 330 86T366 153Q366 190 339 220T258 279Q182 316 150 335T98 376T64 426T52 490Q52 576 113 628T275 680ZM265 868L412 699Q384 713 340 731Q289 751 265 763Q239 750 192 731Q149 713 122 699Q158 744 193 783T265 868Z"
				   unicode="Ŝ"/>
			<glyph d="M214 485Q250 485 281 477T333 458V336Q311 377 278 398T207 419Q172 419 153 403T134 363Q134 338 152 320T237 271Q306 240 334 206T362 128Q362 63 315 24T185 -15Q143 -15 101 -4T39 24V156Q61 103 99 77T188 51Q225 51 247 66T269 108Q269 130 253 146T203 180L151 207Q96 234 70 266T44 342Q44 407 89 446T214 485ZM194 691L331 512L194 588Q161 569 127 549T61 512Q95 557 128 601T194 691Z"
				   horiz-adv-x="390" unicode="ŝ"/>
			<glyph d="M275 680Q320 680 362 667T431 635V496Q417 526 391 551T333 591T264 606Q214 606 183 580T152 516Q152 491 164 471T201 434T286 388Q366 351 400 322T453 258T472 177Q472 101 423 51T286 -11L270 -37Q306 -42 328 -61T350 -107Q350 -138 322 -159T250 -181Q205 -181 169 -159Q185 -162 201 -162Q234 -162 255 -147T277 -110Q277 -92 258 -78T201 -63L229 -15Q178 -14 130 0T49 36V203Q79 131 126 96T243 61Q295 61 330 86T366 153Q366 190 339 221T259 278Q182 316 150 335T98 376T64 426T52 490Q52 576 113 628T275 680Z"
				   unicode="Ş"/>
			<glyph d="M214 485Q250 485 281 477T333 458V336Q311 377 278 398T207 419Q172 419 153 403T134 363Q134 338 152 319T237 271Q306 240 334 206T362 128Q362 69 324 32T221 -13L206 -37Q242 -42 264 -61T286 -107Q286 -138 258 -159T186 -181Q141 -181 105 -159Q121 -162 137 -162Q170 -162 191 -147T213 -110Q213 -92 194 -78T137 -63L166 -14Q127 -12 92 -1T39 24V156Q61 103 99 77T188 51Q225 51 247 66T269 108Q269 130 253 146T203 180L151 207Q96 234 70 266T44 342Q44 407 89 446T214 485Z"
				   horiz-adv-x="390" unicode="ş"/>
			<glyph d="M275 680Q320 680 362 667T431 635V496Q416 526 390 551T333 591T264 606Q214 606 183 580T152 516Q152 491 164 471T201 434T286 388Q366 350 400 322T453 258T472 177Q472 88 407 36T235 -15Q182 -15 132 -1T49 36V203Q79 130 126 95T243 61Q295 61 330 86T366 153Q366 190 339 220T258 279Q182 316 150 335T98 376T64 426T52 490Q52 576 113 628T275 680ZM106 868Q130 855 181 835Q229 816 253 804Q279 817 326 836Q372 855 396 868Q360 822 324 782T253 699Z"
				   unicode="Š"/>
			<glyph d="M214 485Q250 485 281 477T333 458V336Q311 377 278 398T207 419Q172 419 153 403T134 363Q134 338 152 320T237 271Q306 240 334 206T362 128Q362 63 315 24T185 -15Q143 -15 101 -4T39 24V156Q61 103 99 77T188 51Q225 51 247 66T269 108Q269 130 253 146T203 180L151 207Q96 234 70 266T44 342Q44 407 89 446T214 485ZM62 694L199 620L332 694L199 518Z"
				   horiz-adv-x="390" unicode="š"/>
			<glyph d="M40 666H591L603 510Q588 549 574 564T539 588T484 596H370V102Q370 68 377 46T394 14T418 0H212Q225 2 236 13T253 46T260 102V596H134Q107 596 88 588T56 565T27 510ZM310 -34Q332 -34 347 -51T363 -98Q363 -133 336 -161T269 -194Q291 -183 304 -162T318 -119V-115Q308 -117 304 -117Q286 -117 276 -105T266 -78Q266 -61 278 -47T310 -34Z"
				   horiz-adv-x="630" unicode="Ţ"/>
			<glyph d="M173 601V468H303V403H173V140Q173 98 189 80T230 62Q253 62 278 76T319 114Q309 52 274 18T187 -16Q135 -16 104 18T74 109V403H1ZM185 -34Q207 -34 222 -51T238 -98Q238 -133 211 -161T144 -194Q166 -183 179 -162T193 -119V-115Q183 -117 179 -117Q161 -117 151 -105T141 -78Q141 -61 153 -47T185 -34Z"
				   horiz-adv-x="348" unicode="ţ"/>
			<glyph d="M40 666H591L603 510Q588 549 574 564T539 588T484 596H370V102Q370 68 377 46T394 14T418 0H212Q225 2 236 13T253 46T260 102V596H134Q107 596 88 588T56 565T27 510ZM171 868Q195 855 246 835Q294 816 318 804Q344 817 391 836Q437 855 461 868Q425 822 389 782T318 699Z"
				   horiz-adv-x="630" unicode="Ť"/>
			<glyph d="M173 601V468H303V403H173V140Q173 98 189 80T230 62Q253 62 278 76T319 114Q309 52 274 18T187 -16Q135 -16 104 18T74 109V403H1ZM268 682H381L243 501Z"
				   horiz-adv-x="348" unicode="ť"/>
			<glyph d="M40 666H591L603 510Q588 549 574 564T539 588T484 596H372V355H474V303H372V133Q372 72 384 37T420 0H211Q235 4 246 39T258 133V303H156V355H258V596H134Q105 596 86 588T55 565T27 510Z"
				   horiz-adv-x="630" unicode="Ŧ"/>
			<glyph d="M180 587V467H316V402H180V282H289V231H180V142Q180 104 195 83T239 62Q263 62 289 76T331 114Q321 52 285 18T195 -16Q141 -16 110 18T79 111V231H24V282H79V402H19Z"
				   horiz-adv-x="348" unicode="ŧ"/>
			<glyph d="M37 666H241Q219 660 207 633T196 567V228Q196 140 232 100T351 61Q427 61 463 100T499 227V563Q499 605 486 632T446 666H641Q617 660 604 632T591 563V231Q591 105 528 45T341 -15Q210 -15 147 43T85 224V565Q85 606 73 632T37 666ZM492 852Q508 834 508 806Q508 771 484 744T426 717Q407 717 388 725T350 746T313 766T283 774Q261 774 247 754T232 705Q215 725 215 753Q215 788 238 813T297 838Q315 838 335 829T375 810T412 791T443 783Q466 783 478 801Q491 820 492 852Z"
				   horiz-adv-x="673" unicode="Ũ"/>
			<glyph d="M7 468H165V169Q165 114 185 88T240 62Q284 62 318 98T352 181V376Q352 403 346 423T331 454T307 468H451V132Q451 86 462 66T500 46H514L355 -18L354 67Q329 31 286 8T199 -15Q134 -15 100 26T66 149V368Q66 409 52 435T7 468ZM401 682Q416 665 416 642Q416 604 392 575T332 547Q315 547 296 555T260 575T224 595T192 604Q170 604 156 584T141 535Q125 553 125 577Q125 614 147 641T206 668Q224 668 244 659T284 640T321 621T352 613Q374 613 387 631T401 682Z"
				   unicode="ũ"/>
			<glyph d="M37 666H241Q219 660 207 633T196 567V228Q196 140 232 100T351 61Q427 61 463 100T499 227V563Q499 605 486 632T446 666H641Q617 660 604 632T591 563V231Q591 105 528 45T341 -15Q210 -15 147 43T85 224V565Q85 606 73 632T37 666ZM196 806H514V754H196Z"
				   horiz-adv-x="673" unicode="Ū"/>
			<glyph d="M7 468H165V169Q165 114 185 88T240 62Q284 62 318 98T352 181V376Q352 403 346 423T331 454T307 468H451V132Q451 86 462 66T500 46H514L355 -18L354 67Q329 31 286 8T199 -15Q134 -15 100 26T66 149V368Q66 409 52 435T7 468ZM101 632H418V581H101Z"
				   unicode="ū"/>
			<glyph d="M37 666H241Q219 660 207 633T196 567V228Q196 140 232 100T351 61Q427 61 463 100T499 227V563Q499 605 486 632T446 666H641Q617 660 604 632T591 563V231Q591 105 528 45T341 -15Q210 -15 147 43T85 224V565Q85 606 73 632T37 666ZM234 864Q250 829 281 810T349 791Q384 791 414 809Q445 827 464 864Q464 820 449 787T408 736T349 717Q318 717 291 734T249 786T234 864Z"
				   horiz-adv-x="673" unicode="Ŭ"/>
			<glyph d="M7 468H165V169Q165 114 185 88T240 62Q284 62 318 98T352 181V376Q352 403 346 423T331 454T307 468H451V132Q451 86 462 66T500 46H514L355 -18L354 67Q329 31 286 8T199 -15Q134 -15 100 26T66 149V368Q66 409 52 435T7 468ZM143 692Q158 658 188 638T257 619Q296 619 326 639Q357 659 372 692Q372 648 357 615T315 563T257 545Q225 545 199 563T158 615T143 692Z"
				   unicode="ŭ"/>
			<glyph d="M37 666H241Q219 660 207 633T196 567V228Q196 140 232 100T351 61Q427 61 463 100T499 227V563Q499 605 486 632T446 666H641Q617 660 604 632T591 563V231Q591 105 528 45T341 -15Q210 -15 147 43T85 224V565Q85 606 73 632T37 666ZM348 881Q389 881 416 854T443 787Q443 747 416 720Q390 693 348 693Q307 693 280 719T254 787Q254 828 281 854T348 881ZM348 842Q324 842 309 826T294 787Q294 764 309 747T348 731Q372 731 386 747T401 787Q401 812 386 827T348 842Z"
				   horiz-adv-x="673" unicode="Ů"/>
			<glyph d="M7 468H165V169Q165 114 185 88T240 62Q284 62 318 98T352 181V376Q352 403 346 423T331 454T307 468H451V132Q451 86 462 66T500 46H514L355 -18L354 67Q329 31 286 8T199 -15Q134 -15 100 26T66 149V368Q66 409 52 435T7 468ZM270 704Q311 704 338 677T365 610Q365 570 338 543Q312 516 270 516Q229 516 202 542T176 610Q176 651 203 677T270 704ZM270 665Q246 665 231 649T216 610Q216 587 231 570T270 554Q294 554 308 570T323 610Q323 635 308 650T270 665Z"
				   unicode="ů"/>
			<glyph d="M37 666H241Q219 660 207 633T196 567V228Q196 140 232 100T351 61Q427 61 463 100T499 227V563Q499 605 486 632T446 666H641Q617 660 604 632T591 563V231Q591 105 528 45T341 -15Q210 -15 147 43T85 224V565Q85 606 73 632T37 666ZM488 853H614L424 700ZM308 853H434L245 700Z"
				   horiz-adv-x="673" unicode="Ű"/>
			<glyph d="M7 468H165V169Q165 114 185 88T240 62Q284 62 318 98T352 181V376Q352 403 346 423T331 454T307 468H451V132Q451 86 462 66T500 46H514L355 -18L354 67Q329 31 286 8T199 -15Q134 -15 100 26T66 149V368Q66 409 52 435T7 468ZM350 666H479L293 511ZM172 666H301L115 511Z"
				   unicode="ű"/>
			<glyph d="M39 666H248Q202 653 202 540V237Q202 143 239 102T359 61Q437 61 473 105T509 235V537Q509 591 495 625T455 666H655Q603 652 603 537V240Q603 136 562 76T435 -5L419 -9Q391 -16 373 -32T356 -77Q356 -100 371 -114T413 -129Q444 -129 475 -109Q463 -141 435 -161T375 -181Q338 -181 313 -158T288 -100Q288 -53 332 -14Q210 -14 149 46T88 232V538Q88 650 39 666Z"
				   horiz-adv-x="673" unicode="Ų"/>
			<glyph d="M7 468H165V169Q165 114 185 88T240 62Q284 62 318 98T352 181V376Q352 403 346 423T331 454T307 468H451V132Q451 87 462 66T497 46Q506 46 515 47Q450 15 417 -15T384 -81Q384 -102 396 -115T434 -129Q465 -129 496 -110Q484 -141 456 -161T396 -182Q357 -182 333 -159T310 -101Q310 -72 323 -48T363 -2L354 67Q328 31 285 8T199 -15Q134 -15 100 26T66 149V368Q66 409 52 435T7 468Z"
				   unicode="ų"/>
			<glyph d="M10 666H233Q217 660 211 647T205 616Q205 595 217 558L342 182L468 535Q450 593 438 615T414 650T390 666H593Q576 661 568 647T560 614Q560 594 572 558L697 182L825 562Q834 587 834 613Q834 655 797 666H991Q965 660 943 629T905 551L722 0H642L503 420L357 0H280L96 555Q81 601 58 630T10 666ZM505 868L652 699Q624 713 580 731Q529 751 505 763Q479 750 432 731Q389 713 362 699Q398 744 433 783T505 868Z"
				   horiz-adv-x="1001" unicode="Ŵ"/>
			<glyph d="M0 468H199Q187 464 181 459T173 446T170 429Q170 413 180 387L269 144L354 370L347 392Q322 455 288 468H471Q459 464 453 458T443 445T440 425Q440 410 449 387L537 144L617 375Q627 402 627 420Q627 459 591 468H769Q725 455 698 382L558 0H492L387 281L282 0H216L69 389Q56 420 38 441T0 468ZM389 691L526 512L389 588Q356 569 322 549T256 512Q290 557 323 601T389 691Z"
				   horiz-adv-x="769" unicode="ŵ"/>
			<glyph d="M8 666H230Q204 658 204 631Q204 610 230 564L340 368L443 550Q476 607 476 631Q476 644 470 653T450 666H631Q611 660 586 632T536 559L376 281V102Q376 69 382 47T398 14T421 0H217Q231 3 241 14T257 47T264 102V278L105 561Q81 604 55 632T8 666ZM332 868L479 699Q451 713 407 731Q356 751 332 763Q306 750 259 731Q216 713 189 699Q225 744 260 783T332 868Z"
				   horiz-adv-x="642" unicode="Ŷ"/>
			<glyph d="M0 468H205Q188 462 181 451T174 425Q174 410 186 379L279 139L366 367Q380 403 380 422Q380 438 372 450T345 468H519Q498 459 482 437T452 382L318 49Q279 -50 233 -112T140 -193L27 -106Q44 -113 69 -113Q159 -113 221 12L72 386Q59 418 41 439T0 468ZM269 691L406 512L269 588Q236 569 202 549T136 512Q170 557 203 601T269 691Z"
				   horiz-adv-x="519" unicode="ŷ"/>
			<glyph d="M8 666H230Q204 658 204 631Q204 610 230 564L340 368L443 550Q476 607 476 631Q476 644 470 653T450 666H631Q611 660 586 632T536 559L376 281V102Q376 69 382 47T398 14T421 0H217Q231 3 241 14T257 47T264 102V278L105 561Q81 604 55 632T8 666ZM428 831Q453 831 468 816T483 778Q483 755 467 739T428 724Q403 724 387 739T372 778Q372 801 387 816T428 831ZM243 831Q268 831 283 816T298 778Q298 755 283 739Q268 724 243 724Q218 724 202 739T187 778Q187 801 202 816T243 831Z"
				   horiz-adv-x="642" unicode="Ÿ"/>
			<glyph d="M45 666H533L193 71H397Q438 71 465 82T513 119T554 200L536 0H26L368 596H180Q140 596 113 584T71 552T45 489ZM317 853H453L260 700Z"
				   horiz-adv-x="583" unicode="Ź"/>
			<glyph d="M41 468H410L174 63H328Q362 63 386 83T418 141V0H27L266 409H136Q106 409 86 396T54 364T41 325ZM230 666H366L173 511Z"
				   horiz-adv-x="452" unicode="ź"/>
			<glyph d="M45 666H533L193 71H397Q438 71 465 82T513 119T554 200L536 0H26L368 596H180Q140 596 113 584T71 552T45 489ZM297 842Q326 842 344 824T363 778Q363 750 345 731Q327 713 297 713Q268 713 249 731T230 778Q230 805 248 823T297 842Z"
				   horiz-adv-x="583" unicode="Ż"/>
			<glyph d="M41 468H410L174 63H328Q362 63 386 83T418 141V0H27L266 409H136Q106 409 86 396T54 364T41 325ZM236 672Q262 672 278 656T294 617Q294 594 278 577Q263 561 236 561Q209 561 193 577T178 617Q178 640 193 656T236 672Z"
				   horiz-adv-x="452" unicode="ż"/>
			<glyph d="M45 666H533L193 71H397Q438 71 465 82T513 119T554 200L536 0H26L368 596H180Q140 596 113 584T71 552T45 489ZM141 868Q165 855 216 835Q264 816 288 804Q314 817 361 836Q407 855 431 868Q395 822 359 782T288 699Z"
				   horiz-adv-x="583" unicode="Ž"/>
			<glyph d="M41 468H410L174 63H328Q362 63 386 83T418 141V0H27L266 409H136Q106 409 86 396T54 364T41 325ZM95 694L232 620L365 694L232 518Z"
				   horiz-adv-x="452" unicode="ž"/>
			<glyph d="M261 694Q282 694 317 688V583Q306 604 287 613T251 623Q225 623 212 602T199 530V105Q199 71 205 49T220 15T242 0H52Q73 4 85 31T97 105V402H16V467H97V492Q97 586 141 640T261 694Z"
				   horiz-adv-x="281" unicode="ſ"/>
			<glyph d="M396 682Q448 682 489 663L459 580Q447 591 426 598T387 605Q354 605 335 570T308 447L303 401H389L384 336H298L275 114Q260 -25 210 -87T69 -149Q45 -149 26 -143T-13 -130L14 -43Q20 -51 41 -62T81 -73Q118 -73 137 -34T165 83L191 336H112L117 401H197Q213 549 261 615T396 682Z"
				   horiz-adv-x="528" unicode="ƒ"/>
			<glyph d="M727 709Q754 709 772 688T791 638Q791 588 758 545Q726 502 671 480Q695 415 695 342Q695 243 651 160T531 31T359 -15Q268 -15 195 28T82 149T41 325Q41 424 84 506T206 635T379 682Q469 682 540 640T651 523Q699 543 714 585Q690 590 675 606T660 647Q660 675 678 692T727 709ZM357 604Q299 604 252 573T179 484T153 355Q153 270 181 203T261 100T380 64Q437 64 484 96Q532 128 558 185T584 317Q584 399 555 465T475 567T357 604Z"
				   horiz-adv-x="766" unicode="Ơ"/>
			<glyph d="M535 561Q562 561 580 540T599 490Q599 446 571 404Q544 363 490 336Q506 289 506 244Q506 174 475 113T390 19T266 -15Q197 -15 145 16T66 102T38 226Q38 296 68 356T152 451T276 485Q341 485 390 458T470 380Q510 402 522 437Q500 444 484 459T468 499Q468 526 486 543T535 561ZM261 416Q207 416 174 369T141 249Q141 196 158 151T207 80T281 54Q335 54 368 102T401 223Q401 276 383 320T334 390T261 416Z"
				   horiz-adv-x="574" unicode="ơ"/>
			<glyph d="M714 709Q741 709 760 689T779 638Q779 596 754 557T685 492T591 463V231Q591 105 528 45T341 -15Q210 -15 147 43T85 224V565Q85 648 38 666H239Q218 659 207 633T196 567V228Q196 140 232 100T351 61Q427 61 463 100T499 227V563Q499 604 482 632T437 666H591V511Q629 514 660 535T702 585Q678 591 663 608T648 646Q648 673 665 691T714 709Z"
				   horiz-adv-x="754" unicode="Ư"/>
			<glyph d="M554 561Q582 561 600 541T619 490Q619 455 600 418T540 354T451 317V132Q451 86 462 66T502 46H514L355 -18L354 67Q328 30 285 7T199 -15Q134 -15 100 26T66 149V368Q66 410 52 436T7 468H165V169Q165 114 185 88T240 62Q284 62 318 98T352 181V376Q352 403 346 423T331 454T307 468H451V366Q485 374 509 393T542 437Q519 443 503 459T488 498Q488 525 505 543T554 561Z"
				   horiz-adv-x="594" unicode="ư"/>
			<glyph d="M275 680Q320 680 362 667T431 635V496Q416 526 390 551T333 591T264 606Q214 606 183 580T152 516Q152 491 164 471T201 434T286 388Q366 350 400 322T453 258T472 177Q472 88 407 36T235 -15Q182 -15 132 -1T49 36V203Q79 130 126 95T243 61Q295 61 330 86T366 153Q366 190 339 220T258 279Q182 316 150 335T98 376T64 426T52 490Q52 576 113 628T275 680ZM254 -34Q276 -34 291 -51T307 -98Q307 -133 280 -161T213 -194Q235 -183 248 -162T262 -119V-115Q252 -117 248 -117Q230 -117 220 -105T210 -78Q210 -61 222 -47T254 -34Z"
				   unicode="Ș"/>
			<glyph d="M214 485Q250 485 281 477T333 458V336Q311 377 278 398T207 419Q172 419 153 403T134 363Q134 338 152 320T237 271Q306 240 334 206T362 128Q362 63 315 24T185 -15Q143 -15 101 -4T39 24V156Q61 103 99 77T188 51Q225 51 247 66T269 108Q269 130 253 146T203 180L151 207Q96 234 70 266T44 342Q44 407 89 446T214 485ZM197 -34Q219 -34 234 -51T250 -98Q250 -133 223 -161T156 -194Q178 -183 191 -162T205 -119V-115Q195 -117 191 -117Q173 -117 163 -105T153 -78Q153 -61 165 -47T197 -34Z"
				   horiz-adv-x="390" unicode="ș"/>
			<glyph d="M40 666H591L603 510Q588 549 574 564T539 588T484 596H370V102Q370 68 377 46T394 14T418 0H212Q225 2 236 13T253 46T260 102V596H134Q107 596 88 588T56 565T27 510ZM319 -34Q341 -34 356 -51T372 -98Q372 -133 345 -161T278 -194Q300 -183 313 -162T327 -119V-115Q317 -117 313 -117Q295 -117 285 -105T275 -78Q275 -61 287 -47T319 -34Z"
				   horiz-adv-x="630" unicode="Ț"/>
			<glyph d="M173 601V468H303V403H173V140Q173 98 189 80T230 62Q253 62 278 76T319 114Q309 52 274 18T187 -16Q135 -16 104 18T74 109V403H1ZM175 -34Q197 -34 212 -51T228 -98Q228 -133 201 -161T134 -194Q156 -183 169 -162T183 -119V-115Q173 -117 169 -117Q151 -117 141 -105T131 -78Q131 -61 143 -47T175 -34Z"
				   horiz-adv-x="348" unicode="ț"/>
			<glyph d="M233 691L370 512L233 588Q200 569 166 549T100 512Q134 557 167 601T233 691Z" horiz-adv-x="466"
				   unicode="ˆ"/>
			<glyph d="M90 694L227 620L360 694L227 518Z" horiz-adv-x="466" unicode="ˇ"/>
			<glyph d="M119 692Q134 658 164 638T233 619Q272 619 302 639Q333 659 348 692Q348 648 333 615T291 563T233 545Q201 545 175 563T134 615T119 692Z"
				   horiz-adv-x="466" unicode="˘"/>
			<glyph d="M233 672Q259 672 275 656T291 617Q291 594 275 577Q260 561 233 561Q206 561 190 577T175 617Q175 640 190 656T233 672Z"
				   horiz-adv-x="466" unicode="˙"/>
			<glyph d="M228 704Q269 704 296 677T323 610Q323 570 296 543Q270 516 228 516Q187 516 160 542T134 610Q134 651 161 677T228 704ZM228 665Q204 665 189 649T174 610Q174 587 189 570T228 554Q252 554 266 570T281 610Q281 635 266 650T228 665Z"
				   horiz-adv-x="466" unicode="˚"/>
			<glyph d="M188 0H254Q225 -12 208 -32T192 -76Q192 -99 207 -114T249 -129Q277 -129 311 -109Q299 -141 271 -161T210 -181Q175 -181 149 -158T124 -100Q124 -73 140 -47T188 0Z"
				   horiz-adv-x="466" unicode="˛"/>
			<glyph d="M368 682Q383 665 383 642Q383 604 359 575T299 547Q282 547 263 555T227 575T191 595T159 604Q137 604 123 584T108 535Q92 553 92 577Q92 614 114 641T173 668Q191 668 211 659T251 640T288 621T319 613Q341 613 354 631T368 682Z"
				   horiz-adv-x="466" unicode="˜"/>
			<glyph d="M293 666H422L236 511ZM115 666H244L58 511Z" horiz-adv-x="466" unicode="˝"/>
			<glyph d="M-97 666H43L99 511Z" horiz-adv-x="0" unicode="̀"/>
			<glyph d="M-38 666H98L-95 511Z" horiz-adv-x="0" unicode="́"/>
			<glyph d="M1 691L138 512L1 588Q-32 569 -66 549T-132 512Q-98 557 -65 601T1 691Z" horiz-adv-x="0"
				   unicode="̂"/>
			<glyph d="M131 682Q146 665 146 642Q146 604 122 575T62 547Q45 547 26 555T-9 575T-45 595T-78 604Q-100 604 -114 584T-129 535Q-145 553 -145 577Q-145 614 -122 641T-64 668Q-46 668 -25 659T14 640T51 621T82 613Q104 613 117 631T131 682Z"
				   horiz-adv-x="0" unicode="̃"/>
			<glyph d="M-113 692Q-98 658 -67 638T1 619Q40 619 70 639Q101 659 116 692Q116 648 101 615T59 563T1 545Q-31 545 -57 563T-98 615T-113 692Z"
				   horiz-adv-x="0" unicode="̆"/>
			<glyph d="M0 710Q41 710 65 691T90 643Q90 605 50 578L31 565Q11 552 11 542Q11 530 27 526Q20 521 8 521Q-10 521 -23 531T-37 558Q-37 571 -28 581T-10 600T8 617T17 638Q17 650 9 657T-11 665Q-28 665 -47 652T-77 620V695Q-42 710 0 710Z"
				   horiz-adv-x="0" unicode="̉"/>
			<glyph d="M0 709Q26 709 45 688T64 638Q64 590 32 547T-55 478L-79 522Q-54 532 -37 548T-13 585Q-37 591 -52 607T-67 647Q-67 675 -48 692T0 709Z"
				   horiz-adv-x="0" unicode="̛"/>
			<glyph d="M1 -69Q27 -69 43 -85T59 -124Q59 -147 43 -164Q28 -180 1 -180Q-26 -180 -41 -163T-57 -124Q-57 -101 -41 -85T1 -69Z"
				   horiz-adv-x="0" unicode="̣"/>
			<glyph d="M126 436Q159 436 179 416T199 366Q199 336 179 316T126 296Q93 296 73 315T54 366Q54 397 73 416T126 436ZM126 126Q166 126 190 93T215 7Q215 -42 192 -84T129 -153Q89 -180 35 -183Q79 -165 109 -122T139 -35Q139 -14 133 -1Q123 -6 113 -6Q86 -6 70 11T54 55Q54 86 74 106T126 126Z"
				   horiz-adv-x="241" unicode=";"/>
			<glyph d="M200 676H317L203 501Z" horiz-adv-x="466" unicode="΄"/>
			<glyph d="M345 665Q370 665 384 650T398 614Q398 592 383 577Q369 562 345 562Q321 562 306 577T292 614Q292 636 306 650T345 665ZM121 665Q145 665 159 650T173 614Q173 592 159 577T121 562Q96 562 81 577T67 614Q67 636 81 650T121 665ZM206 742H322L214 577Z"
				   horiz-adv-x="466" unicode="΅"/>
			<glyph d="M312 666H398L614 119Q633 69 657 37T703 0H480Q496 2 505 13T514 43Q514 59 498 100L468 179H205Q169 82 166 69T163 48Q163 28 173 15T200 0H14Q34 4 57 36T100 121ZM335 523L230 246H442ZM102 667H219L105 492Z"
				   horiz-adv-x="718" unicode="Ά"/>
			<glyph d="M120 309Q153 309 173 289T193 239Q193 209 173 189T120 169Q88 169 68 188T48 239Q48 270 68 289T120 309Z"
				   horiz-adv-x="240" unicode="·"/>
			<glyph d="M69 666H486V517Q475 550 461 565T426 588T371 596H234V374H349Q381 374 401 382T428 406V270Q422 287 402 295T351 303H234V71H379Q441 71 472 89T529 160L502 0H76Q98 5 110 33T123 107V563Q123 605 109 632T69 666ZM-57 667H60L-54 492Z"
				   horiz-adv-x="553" unicode="Έ"/>
			<glyph d="M71 666H278Q255 660 243 633T231 564V374H550V564Q550 605 537 633T501 666H708Q685 660 673 633T661 564V102Q661 59 673 31T707 0H502Q516 3 526 14T543 46T550 102V303H231V102Q231 69 237 47T254 13T277 0H73Q86 3 96 14T113 46T120 102V564Q120 605 107 632T71 666ZM-57 667H60L-54 492Z"
				   horiz-adv-x="749" unicode="Ή"/>
			<glyph d="M73 666H279Q257 660 244 633T232 567V96Q232 65 238 45T255 13T278 0H74Q86 2 97 13T115 44T122 96V567Q122 606 110 632T73 666ZM-57 667H60L-54 492Z"
				   horiz-adv-x="322" unicode="Ί"/>
			<glyph d="M379 682Q470 682 542 639T655 517T695 342Q695 243 651 160Q608 78 531 31T359 -15Q268 -15 195 28T82 149T41 325Q41 424 84 506T206 635T379 682ZM357 604Q299 604 252 573T179 484T153 355Q153 270 181 203T261 100T380 64Q437 64 484 96Q532 128 558 185T584 317Q584 399 555 465T475 567T357 604ZM-15 667H102L-12 492Z"
				   horiz-adv-x="736" unicode="Ό"/>
			<glyph d="M60 666H282Q256 658 256 631Q256 610 282 564L392 368L495 550Q528 607 528 631Q528 644 522 653T502 666H683Q663 660 638 632T588 559L428 281V102Q428 69 434 47T450 14T473 0H269Q283 3 293 14T309 47T316 102V278L157 561Q133 604 107 632T60 666ZM-57 667H60L-54 492Z"
				   horiz-adv-x="694" unicode="Ύ"/>
			<glyph d="M416 681Q510 681 582 639T694 522T734 353Q734 269 700 193T604 71H639Q684 71 708 77T749 97T788 153L773 0H428Q471 8 519 58T595 174T622 310Q622 396 594 463T514 567T393 604Q301 604 245 534T189 348Q189 286 204 228T247 122T313 40T385 0H39L24 153Q45 114 62 99T106 78T203 71Q145 118 112 188T79 337Q79 433 122 512T241 636T416 681ZM19 667H136L22 492Z"
				   horiz-adv-x="813" unicode="Ώ"/>
			<glyph d="M181 488V140Q181 99 195 80T231 62Q253 62 273 77T307 114Q297 50 265 17T186 -16Q138 -16 110 18T82 109V337Q82 381 70 402T29 423H17ZM247 665Q272 665 286 650T300 614Q300 592 285 577Q271 562 247 562Q223 562 208 577T194 614Q194 636 208 650T247 665ZM23 665Q47 665 61 650T75 614Q75 592 61 577T23 562Q-2 562 -16 577T-31 614Q-31 636 -16 650T23 665ZM108 742H224L116 577Z"
				   horiz-adv-x="317" unicode="ΐ"/>
			<glyph d="M312 666H398L614 119Q633 69 657 37T703 0H480Q496 2 505 13T514 43Q514 59 498 100L468 179H205Q169 82 166 69T163 48Q163 28 173 15T200 0H14Q34 4 57 36T100 121ZM335 523L230 246H442Z"
				   horiz-adv-x="718" unicode="Α"/>
			<glyph d="M40 666H330Q386 666 427 645T491 588T514 506Q514 450 480 405T394 350Q462 341 504 292T546 177Q546 128 521 86T453 22T352 0H46Q68 5 80 33T93 107V562Q93 606 79 633T40 666ZM203 309V71H310Q366 71 398 99T430 183Q430 241 395 275T301 309ZM203 596V379H296Q343 379 370 410T398 494Q398 538 368 567T291 596Z"
				   horiz-adv-x="584" unicode="Β"/>
			<glyph d="M32 666H452V518Q440 550 425 564T388 587T332 596H199V100Q199 67 205 45T223 13T246 0H39Q62 5 75 31T88 103V564Q88 606 73 633T32 666Z"
				   horiz-adv-x="479" unicode="Γ"/>
			<glyph d="M336 527L156 75H520ZM312 666H399L678 0H42Z" horiz-adv-x="723" unicode="Δ"/>
			<glyph d="M37 666H454V517Q443 550 429 565T394 588T339 596H202V374H317Q349 374 369 382T396 406V270Q390 287 370 295T319 303H202V71H347Q409 71 440 89T497 160L470 0H44Q66 5 78 33T91 107V563Q91 605 77 632T37 666Z"
				   horiz-adv-x="521" unicode="Ε"/>
			<glyph d="M45 666H533L193 71H397Q438 71 465 82T513 119T554 200L536 0H26L368 596H180Q140 596 113 584T71 552T45 489Z"
				   horiz-adv-x="583" unicode="Ζ"/>
			<glyph d="M39 666H246Q223 660 211 633T199 564V374H518V564Q518 605 505 633T469 666H676Q653 660 641 633T629 564V102Q629 59 641 31T675 0H470Q484 3 494 14T511 46T518 102V303H199V102Q199 69 205 47T222 13T245 0H41Q54 3 64 14T81 46T88 102V564Q88 605 75 632T39 666Z"
				   horiz-adv-x="717" unicode="Η"/>
			<glyph d="M379 682Q470 682 542 639T655 517T695 342Q695 243 651 160Q608 78 531 31T359 -15Q268 -15 195 28T82 149T41 325Q41 424 84 506T206 635T379 682ZM357 604Q299 604 252 573T179 484T153 355Q153 270 181 203T261 100T380 64Q437 64 484 96Q532 128 558 185T584 317Q584 399 555 465T475 567T357 604ZM251 405Q257 390 278 382T330 374H408Q439 374 460 382T487 405V270Q479 289 459 296T410 303H328Q298 303 278 295T251 270Z"
				   horiz-adv-x="736" unicode="Θ"/>
			<glyph d="M41 666H247Q225 660 212 633T200 567V96Q200 65 206 45T223 13T246 0H42Q54 2 65 13T83 44T90 96V567Q90 606 78 632T41 666Z"
				   horiz-adv-x="290" unicode="Ι"/>
			<glyph d="M39 666H245Q223 660 211 633T199 564V360L385 561Q435 616 435 643Q435 660 414 666H632Q603 660 563 631T483 558L304 368L515 110Q547 71 570 49T611 16T650 0H461L199 326V101Q199 55 212 29T244 0H40Q63 5 75 31T88 101V564Q88 605 75 632T39 666Z"
				   horiz-adv-x="666" unicode="Κ"/>
			<glyph d="M312 666H398L614 119Q634 68 658 36T703 0H480Q496 2 505 13T514 43Q514 59 498 100L335 523L177 103Q163 67 163 48Q163 28 172 15T200 0H14Q34 4 57 36T100 121Z"
				   horiz-adv-x="718" unicode="Λ"/>
			<glyph d="M41 666H233L430 206L626 666H800Q777 660 764 634T752 566V103Q752 69 759 47T777 14T800 0H602Q623 5 634 32T646 103V527L412 -14L176 525V109Q176 73 184 50T204 15T231 0H41Q56 3 68 15T89 50T97 109V569Q97 609 83 634T41 666Z"
				   horiz-adv-x="843" unicode="Μ"/>
			<glyph d="M13 666H181L530 218V566Q530 607 516 633T478 666H661Q637 660 625 633T613 566V0H541Q531 29 507 69T449 151L179 487V100Q179 67 187 46T207 13T233 0H46Q69 5 82 30T95 100V557Q95 589 76 617T13 666Z"
				   horiz-adv-x="698" unicode="Ν"/>
			<glyph d="M24 160Q50 107 81 89T174 71H360Q423 71 454 90T510 160L483 0H51ZM62 666H472V517Q461 550 447 565T412 588T357 596H177Q144 596 122 588T87 565T62 517ZM414 405V270Q401 303 337 303H197Q165 303 144 293T120 270V404Q125 390 146 382T199 374H335Q396 374 414 405Z"
				   horiz-adv-x="534" unicode="Ξ"/>
			<glyph d="M379 682Q470 682 542 639T655 517T695 342Q695 243 651 160Q608 78 531 31T359 -15Q268 -15 195 28T82 149T41 325Q41 424 84 506T206 635T379 682ZM357 604Q299 604 252 573T179 484T153 355Q153 270 181 203T261 100T380 64Q437 64 484 96Q532 128 558 185T584 317Q584 399 555 465T475 567T357 604Z"
				   horiz-adv-x="736" unicode="Ο"/>
			<glyph d="M40 666H655Q634 661 621 633T609 564V102Q609 69 615 47T631 14T654 0H451Q464 2 474 14T491 48T498 102V596H199V102Q199 69 205 47T221 14T244 0H42Q54 2 64 13T81 46T88 102V564Q88 596 82 616T66 648T40 666Z"
				   horiz-adv-x="697" unicode="Π"/>
			<glyph d="M35 666H309Q372 666 420 640T495 569T522 468Q522 408 492 359T410 284T287 257Q258 257 230 261T193 269V101Q193 68 200 47T218 14T243 0H41Q55 3 65 14T81 46T88 101V562Q88 604 74 632T35 666ZM193 596V340Q228 329 279 329Q340 329 374 366T409 463Q409 523 372 559T275 596Z"
				   horiz-adv-x="552" unicode="Ρ"/>
			<glyph d="M21 666H500V489Q490 531 474 552T433 584T365 596H194L362 343L161 75H374Q416 75 444 86T491 122T531 200L513 0H10L248 320Z"
				   horiz-adv-x="555" unicode="Σ"/>
			<glyph d="M40 666H591L603 510Q588 549 574 564T539 588T484 596H370V102Q370 68 377 46T394 14T418 0H212Q225 2 236 13T253 46T260 102V596H134Q107 596 88 588T56 565T27 510Z"
				   horiz-adv-x="630" unicode="Τ"/>
			<glyph d="M8 666H230Q204 658 204 631Q204 610 230 564L340 368L443 550Q476 607 476 631Q476 644 470 653T450 666H631Q611 660 586 632T536 559L376 281V102Q376 69 382 47T398 14T421 0H217Q231 3 241 14T257 47T264 102V278L105 561Q81 604 55 632T8 666Z"
				   horiz-adv-x="642" unicode="Υ"/>
			<glyph d="M261 682H463Q442 678 430 654T416 589V577Q541 566 617 501T693 342Q693 278 658 224T559 136T416 93V80Q416 40 428 14T463 -16H263Q287 -9 298 16T310 80V92Q186 104 109 168T33 327Q33 423 109 491T310 576V586Q310 615 303 635T285 667T261 682ZM416 503V164Q491 174 537 218T583 325Q583 393 537 441T416 503ZM310 506Q235 495 189 452T144 348Q144 279 189 230T310 167Z"
				   horiz-adv-x="726" unicode="Φ"/>
			<glyph d="M10 666H242Q228 661 222 652T216 632Q216 611 246 563L341 416L438 557Q476 611 476 634Q476 657 453 666H649Q627 660 598 632T541 565L387 345L533 120Q565 69 597 36T650 0H416Q428 2 435 11T442 35Q442 60 408 112L319 247L227 116Q187 60 187 34Q187 5 213 0H11Q31 5 64 37T132 120L272 318L117 557Q87 602 59 631T10 666Z"
				   horiz-adv-x="667" unicode="Χ"/>
			<glyph d="M7 666H203Q182 660 170 633T159 567V470Q159 387 195 346T309 300V570Q309 600 302 619T284 650T260 666H461Q438 658 426 632T415 568V300Q494 305 529 346T565 470V567Q565 608 553 633T521 666H717Q671 649 671 565V476Q671 240 415 227V96Q415 54 427 29T460 0H264Q276 2 286 13T303 45T309 96V227Q182 232 117 290T53 466V565Q53 606 41 632T7 666Z"
				   horiz-adv-x="723" unicode="Ψ"/>
			<glyph d="M416 681Q510 681 582 639T694 522T734 353Q734 269 700 193T604 71H639Q684 71 708 77T749 97T788 153L773 0H428Q471 8 519 58T595 174T622 310Q622 396 594 463T514 567T393 604Q301 604 245 534T189 348Q189 286 204 228T247 122T313 40T385 0H39L24 153Q45 114 62 99T106 78T203 71Q145 118 112 188T79 337Q79 433 122 512T241 636T416 681Z"
				   horiz-adv-x="813" unicode="Ω"/>
			<glyph d="M41 666H247Q225 660 212 633T200 567V96Q200 65 206 45T223 13T246 0H42Q54 2 65 13T83 44T90 96V567Q90 606 78 632T41 666ZM245 831Q270 831 285 816T300 778Q300 755 284 739T245 724Q220 724 204 739T189 778Q189 801 204 816T245 831ZM60 831Q85 831 100 816T115 778Q115 755 100 739Q85 724 60 724Q35 724 19 739T4 778Q4 801 19 816T60 831Z"
				   horiz-adv-x="300" unicode="Ϊ"/>
			<glyph d="M8 666H230Q204 658 204 631Q204 610 230 564L340 368L443 550Q476 607 476 631Q476 644 470 653T450 666H631Q611 660 586 632T536 559L376 281V102Q376 69 382 47T398 14T421 0H217Q231 3 241 14T257 47T264 102V278L105 561Q81 604 55 632T8 666ZM428 831Q453 831 468 816T483 778Q483 755 467 739T428 724Q403 724 387 739T372 778Q372 801 387 816T428 831ZM243 831Q268 831 283 816T298 778Q298 755 283 739Q268 724 243 724Q218 724 202 739T187 778Q187 801 202 816T243 831Z"
				   horiz-adv-x="642" unicode="Ϋ"/>
			<glyph d="M446 486L533 423Q504 415 480 378T441 282L427 229L430 203Q438 134 466 90T535 46L443 -18Q417 -9 394 20T360 83Q334 34 298 10T210 -14Q162 -14 121 13T58 89T35 206Q35 286 63 350T139 449T240 485Q292 485 326 445T372 338Q385 396 404 434T446 486ZM243 417Q200 417 170 363T140 230Q140 146 166 100T238 54Q272 54 301 95T342 204Q332 286 319 329T289 394T243 417ZM249 676H366L252 501Z"
				   horiz-adv-x="543" unicode="ά"/>
			<glyph d="M244 485Q310 485 363 463V341Q344 377 308 398T231 419Q192 419 166 399T141 347Q141 308 172 286T261 265H300V206H248Q194 206 164 187T135 134Q135 100 161 80T233 61Q285 61 325 79T400 142Q383 68 334 26T213 -15Q132 -15 83 21T35 119Q35 165 65 197T151 241Q108 250 79 279T51 347Q51 409 105 447T244 485ZM195 676H312L198 501Z"
				   horiz-adv-x="420" unicode="έ"/>
			<glyph d="M106 487Q132 478 148 455T168 403Q193 438 237 461T324 485Q389 485 424 444T459 327V-88Q459 -127 471 -152T502 -181H359V301Q359 356 338 382T283 408Q240 408 206 373T172 293V0H73V326Q73 376 59 399T13 423ZM238 676H355L241 501Z"
				   horiz-adv-x="527" unicode="ή"/>
			<glyph d="M181 488V140Q181 99 195 80T231 62Q253 62 273 77T307 114Q297 50 265 17T186 -16Q138 -16 110 18T82 109V337Q82 381 70 402T29 423H17ZM108 676H225L111 501Z"
				   horiz-adv-x="317" unicode="ί"/>
			<glyph d="M99 487Q131 477 148 443T165 358V183Q165 54 265 54Q319 54 348 111T378 268Q378 348 358 397T301 448Q309 463 330 474T376 486Q405 486 427 462T461 393T473 282Q473 185 446 119T370 19T251 -15Q159 -15 112 32T66 170V326Q66 376 52 399T6 423ZM368 665Q393 665 407 650T421 614Q421 592 406 577Q392 562 368 562Q344 562 329 577T315 614Q315 636 329 650T368 665ZM144 665Q168 665 182 650T196 614Q196 592 182 577T144 562Q119 562 104 577T90 614Q90 636 104 650T144 665ZM229 742H345L237 577Z"
				   horiz-adv-x="518" unicode="ΰ"/>
			<glyph d="M446 486L533 423Q504 415 480 378T441 282L427 229L430 203Q438 134 466 90T535 46L443 -18Q417 -9 394 20T360 83Q334 34 298 10T210 -14Q162 -14 121 13T58 89T35 206Q35 286 63 350T139 449T240 485Q292 485 326 445T372 338Q385 396 404 434T446 486ZM243 417Q200 417 170 363T140 230Q140 146 166 100T238 54Q272 54 301 95T342 204Q332 286 319 329T289 394T243 417Z"
				   horiz-adv-x="543" unicode="α"/>
			<glyph d="M305 690Q381 690 430 647T480 544Q480 447 371 363Q429 335 462 291T495 188Q495 133 468 86T395 13T295 -13Q259 -13 225 -2T172 29V-181H30Q49 -177 61 -152T73 -88V456Q73 568 133 629T305 690ZM286 629Q234 629 203 586T172 471V146Q172 107 203 80T282 54Q330 54 360 87T390 175Q390 207 376 233T338 281T257 334L307 379Q345 413 363 449T381 529Q381 570 354 599T286 629Z"
				   horiz-adv-x="531" unicode="β"/>
			<glyph d="M403 486Q435 486 455 466T475 415Q475 369 439 302L358 145Q329 90 315 32T302 -104V-181H193V-173Q193 -94 216 0Q183 124 133 248T56 416T0 468H147Q183 400 217 309T272 137Q285 167 309 214L350 295Q381 355 381 403Q381 422 370 435T346 449Q342 449 336 448Q344 464 363 475T403 486Z"
				   horiz-adv-x="525" unicode="γ"/>
			<glyph d="M298 698Q344 698 383 680T445 631T470 553L370 511Q376 530 376 549Q376 584 350 605T283 627Q240 627 212 606T184 553Q184 526 201 502T252 454L318 407Q398 350 428 302T459 198Q459 138 432 89T356 12T243 -16Q183 -16 136 11T64 87T38 192Q38 237 58 277T114 347T192 391Q146 422 120 461T94 543Q94 588 119 624T190 679T298 698ZM240 360Q196 342 167 301T139 211Q139 144 171 100T254 57Q301 57 328 94T356 187Q356 235 331 273T261 345Z"
				   horiz-adv-x="499" unicode="δ"/>
			<glyph d="M244 485Q310 485 363 463V341Q344 377 308 398T231 419Q192 419 166 399T141 347Q141 308 172 286T261 265H300V206H248Q194 206 164 187T135 134Q135 100 161 80T233 61Q285 61 325 79T400 142Q383 68 334 26T213 -15Q132 -15 83 21T35 119Q35 165 65 197T151 241Q108 250 79 279T51 347Q51 409 105 447T244 485Z"
				   horiz-adv-x="420" unicode="ε"/>
			<glyph d="M53 683H447L183 342Q133 279 133 218Q133 170 157 139T237 88Q313 59 345 39T393 -5T409 -61Q409 -101 372 -136T289 -180Q306 -164 316 -143T327 -103Q327 -79 317 -63T287 -35T192 5Q38 63 38 194Q38 233 55 273T119 377L295 609H148Q119 609 99 598T67 571T53 536Z"
				   horiz-adv-x="437" unicode="ζ"/>
			<glyph d="M106 487Q132 478 148 455T168 403Q193 438 237 461T324 485Q389 485 424 444T459 327V-88Q459 -127 471 -152T502 -181H359V301Q359 356 338 382T283 408Q240 408 206 373T172 293V0H73V326Q73 376 59 399T13 423Z"
				   horiz-adv-x="527" unicode="η"/>
			<glyph d="M276 694Q343 694 395 651T477 528T506 352Q506 244 477 160T394 30T266 -15Q199 -15 148 27T67 148T38 327Q38 435 66 519T149 648T276 694ZM141 308Q150 187 186 120T281 54Q334 54 367 126T403 308ZM261 625Q208 625 174 554T139 373H401Q393 491 356 558T261 625Z"
				   horiz-adv-x="546" unicode="θ"/>
			<glyph d="M181 488V140Q181 99 195 80T231 62Q253 62 273 77T307 114Q297 50 265 17T186 -16Q138 -16 110 18T82 109V337Q82 381 70 402T29 423H17Z"
				   horiz-adv-x="317" unicode="ι"/>
			<glyph d="M172 488V203Q197 238 218 270T261 339Q300 402 323 427T369 463T418 475Q455 475 479 453T512 390Q505 396 489 401T458 406Q429 406 391 377T278 249L413 96Q445 59 476 36T529 14Q536 14 542 15Q527 3 500 -4T444 -11Q409 -11 384 0T325 44T262 116L218 169L172 109V0H73V337Q73 381 61 402T20 423H8Z"
				   horiz-adv-x="542" unicode="κ"/>
			<glyph d="M164 698Q198 678 231 624T311 452L449 97Q483 9 522 0H390L274 314L138 0H-1Q20 10 38 36T75 105L226 438L213 472Q185 547 142 587T52 627Z"
				   unicode="λ"/>
			<glyph d="M73 468H172V175Q172 120 193 91T257 62Q298 62 327 97T356 181V468H455V132Q455 90 470 68T512 46H519L423 -18Q399 -8 384 14T362 64Q314 -15 250 -15Q228 -15 206 -2T172 31V-181H30Q50 -176 61 -152T73 -88Z"
				   horiz-adv-x="528" unicode="μ"/>
			<glyph d="M405 486Q437 486 457 466T477 415Q477 392 469 365T428 277L346 118Q316 60 295 0H228L68 389Q55 419 37 440T-1 468H148L277 147L356 303Q383 358 383 403Q383 422 373 435T348 449Q343 449 338 448Q346 464 364 475T405 486Z"
				   horiz-adv-x="537" unicode="ν"/>
			<glyph d="M254 698Q331 698 380 658T431 553L331 511Q337 531 337 548Q337 584 311 605T243 627Q198 627 168 594T138 512Q138 447 180 408T295 370H365V305H292Q217 305 175 277T134 204Q134 162 156 136T238 88Q316 58 348 38T395 -5T410 -61Q410 -101 373 -136T290 -180Q307 -164 317 -143T328 -103Q328 -80 318 -64T287 -35T192 5Q36 64 36 189Q36 249 75 289T183 343Q124 359 86 405T48 512Q48 594 104 646T254 698Z"
				   horiz-adv-x="436" unicode="ξ"/>
			<glyph d="M276 485Q345 485 397 454T477 367T506 244Q506 174 475 113Q445 53 391 19T266 -15Q197 -15 145 16T66 102T38 226Q38 296 68 356T152 451T276 485ZM261 416Q207 416 174 369T141 249Q141 196 158 151T207 80T281 54Q336 54 368 102T401 223Q401 276 383 320T334 390T261 416Z"
				   horiz-adv-x="544" unicode="ο"/>
			<glyph d="M613 476V402Q576 392 517 392Q490 392 472 393V140Q472 98 486 80T522 62Q543 62 563 76T598 114Q588 50 556 17T477 -16Q429 -16 401 18T373 109V395L237 400V260Q237 144 213 78T138 -18L51 47Q78 52 105 84T149 167T166 277V403Q153 404 142 404Q92 404 62 383T16 318Q10 341 10 360Q10 410 45 441T133 473Q186 473 331 467T526 461Q579 461 613 476Z"
				   horiz-adv-x="633" unicode="π"/>
			<glyph d="M277 485Q338 485 384 457T456 375T482 247Q482 177 455 117T378 22T265 -13Q195 -13 166 23V-181H23Q42 -178 54 -152T66 -88V239Q66 327 92 378T165 457T277 485ZM269 416Q222 416 194 372T166 249V142Q166 99 188 76T254 54Q309 54 343 103T377 229Q377 315 346 365T269 416Z"
				   horiz-adv-x="518" unicode="ρ"/>
			<glyph d="M260 485Q324 485 365 445T409 340L309 298Q315 316 315 333Q315 371 294 392T241 414Q192 414 161 368T130 250Q130 185 155 147T234 88Q323 51 351 32T392 -8T406 -61Q406 -101 370 -136T286 -180Q303 -164 313 -143T324 -103Q324 -80 315 -64T284 -35T188 5Q113 33 74 87T35 215Q35 292 65 354T147 450T260 485Z"
				   horiz-adv-x="434" unicode="ς"/>
			<glyph d="M549 476V402Q513 392 455 392Q435 392 415 393Q484 314 484 224Q484 160 455 104T374 16T256 -15Q190 -15 141 14T65 94T38 208Q38 282 68 342T152 436T278 470Q320 470 367 465T463 461Q517 461 549 476ZM279 401Q216 401 178 354T141 230Q141 152 175 103T266 54Q316 54 347 100T379 216Q379 269 369 311Q360 354 340 397Q299 401 279 401Z"
				   horiz-adv-x="567" unicode="σ"/>
			<glyph d="M422 476V402Q384 392 328 392Q300 392 253 395V140Q253 99 269 80T310 62Q333 62 358 76T399 114Q388 50 353 17T267 -16Q215 -16 184 18T154 109V400Q139 401 125 401Q86 401 57 378T16 318Q10 341 10 360Q10 410 43 440T129 470Q178 470 232 465T337 461Q391 461 422 476Z"
				   horiz-adv-x="442" unicode="τ"/>
			<glyph d="M99 487Q131 477 148 443T165 358V183Q165 54 265 54Q319 54 348 111T378 268Q378 348 358 397T301 448Q309 463 330 474T376 486Q405 486 427 462T461 393T473 282Q473 185 446 119T370 19T251 -15Q159 -15 112 32T66 170V326Q66 376 52 399T6 423Z"
				   horiz-adv-x="518" unicode="υ"/>
			<glyph d="M165 486Q187 486 207 475T236 448Q191 448 162 396T134 271Q134 86 282 57V270Q282 374 330 429T467 485Q515 485 552 461T610 392T631 286Q631 198 599 133T511 32T378 -12V-86Q378 -165 421 -181H282V-12Q161 2 100 75T39 275Q39 336 56 384T103 459T165 486ZM456 416Q418 416 398 377T378 264V56Q454 70 495 126T536 272Q536 340 514 378T456 416Z"
				   horiz-adv-x="671" unicode="φ"/>
			<glyph d="M385 486Q416 486 436 466T457 418Q457 393 441 359T397 280L308 135L418 -84Q463 -174 499 -181H358L243 64L109 -181H-21Q0 -176 24 -150T68 -90L200 143L91 371Q49 459 10 468H142L266 205L328 312Q344 339 353 366T363 411Q363 428 353 438T328 449Q323 449 318 448Q326 464 345 475T385 486Z"
				   horiz-adv-x="507" unicode="χ"/>
			<glyph d="M236 666H376V56Q446 67 485 123T524 271Q524 343 502 395T447 448Q457 464 474 474T511 484Q560 484 589 430T619 285Q619 156 556 78T376 -12V-86Q376 -165 419 -181H280V-14Q173 -7 114 50T56 206V326Q56 376 42 399T-4 423L89 487Q120 477 136 444T152 358V219Q152 150 186 106T280 56V571Q280 651 236 666Z"
				   horiz-adv-x="663" unicode="ψ"/>
			<glyph d="M166 486Q187 486 207 475T236 448Q191 447 162 396T134 268Q134 166 157 110T225 54Q297 54 297 161V282H393V168Q393 112 412 83T468 54Q512 54 534 109T557 268Q557 351 532 399T465 448Q472 463 493 474T535 486Q592 486 622 432T652 282Q652 183 628 117T562 18T461 -15Q423 -15 390 8T343 68Q325 31 292 8T222 -15Q132 -15 85 57T39 266Q39 329 56 379T102 458T166 486Z"
				   horiz-adv-x="692" unicode="ω"/>
			<glyph d="M181 488V140Q181 99 195 80T231 62Q253 62 273 77T307 114Q297 50 265 17T186 -16Q138 -16 110 18T82 109V337Q82 381 70 402T29 423H17ZM227 669Q252 669 267 654T282 616Q282 593 266 577T227 562Q202 562 186 577T171 616Q171 639 186 654T227 669ZM42 669Q67 669 82 654T97 616Q97 593 82 577Q67 562 42 562Q17 562 1 577T-14 616Q-14 639 1 654T42 669Z"
				   horiz-adv-x="317" unicode="ϊ"/>
			<glyph d="M99 487Q131 477 148 443T165 358V183Q165 54 265 54Q319 54 348 111T378 268Q378 348 358 397T301 448Q309 463 330 474T376 486Q405 486 427 462T461 393T473 282Q473 185 446 119T370 19T251 -15Q159 -15 112 32T66 170V326Q66 376 52 399T6 423ZM353 669Q378 669 393 654T408 616Q408 593 392 577T353 562Q328 562 312 577T297 616Q297 639 312 654T353 669ZM168 669Q193 669 208 654T223 616Q223 593 208 577Q193 562 168 562Q143 562 127 577T112 616Q112 639 127 654T168 669Z"
				   horiz-adv-x="518" unicode="ϋ"/>
			<glyph d="M276 485Q345 485 397 454T477 367T506 244Q506 174 475 113Q445 53 391 19T266 -15Q197 -15 145 16T66 102T38 226Q38 296 68 356T152 451T276 485ZM261 416Q207 416 174 369T141 249Q141 196 158 151T207 80T281 54Q336 54 368 102T401 223Q401 276 383 320T334 390T261 416ZM249 676H366L252 501Z"
				   horiz-adv-x="544" unicode="ό"/>
			<glyph d="M99 487Q131 477 148 443T165 358V183Q165 54 265 54Q319 54 348 111T378 268Q378 348 358 397T301 448Q309 463 330 474T376 486Q405 486 427 462T461 393T473 282Q473 185 446 119T370 19T251 -15Q159 -15 112 32T66 170V326Q66 376 52 399T6 423ZM231 676H348L234 501Z"
				   horiz-adv-x="518" unicode="ύ"/>
			<glyph d="M166 486Q187 486 207 475T236 448Q191 447 162 396T134 268Q134 166 157 110T225 54Q297 54 297 161V282H393V168Q393 112 412 83T468 54Q512 54 534 109T557 268Q557 351 532 399T465 448Q472 463 493 474T535 486Q592 486 622 432T652 282Q652 183 628 117T562 18T461 -15Q423 -15 390 8T343 68Q325 31 292 8T222 -15Q132 -15 85 57T39 266Q39 329 56 379T102 458T166 486ZM328 676H445L331 501Z"
				   horiz-adv-x="692" unicode="ώ"/>
			<glyph d="M37 666H454V517Q443 550 429 565T394 588T339 596H202V374H317Q349 374 369 382T396 406V270Q390 287 370 295T319 303H202V71H347Q409 71 440 89T497 160L470 0H44Q66 5 78 33T91 107V563Q91 605 77 632T37 666ZM156 853H292L351 700Z"
				   horiz-adv-x="521" unicode="Ѐ"/>
			<glyph d="M37 666H454V517Q443 550 429 565T394 588T339 596H202V374H317Q349 374 369 382T396 406V270Q390 287 370 295T319 303H202V71H347Q409 71 440 89T497 160L470 0H44Q66 5 78 33T91 107V563Q91 605 77 632T37 666ZM366 831Q391 831 406 816T421 778Q421 755 405 739T366 724Q341 724 325 739T310 778Q310 801 325 816T366 831ZM181 831Q206 831 221 816T236 778Q236 755 221 739Q206 724 181 724Q156 724 140 739T125 778Q125 801 140 816T181 831Z"
				   horiz-adv-x="524" unicode="Ё"/>
			<glyph d="M40 666H606L618 510Q604 549 590 564T554 588T499 596H370V386Q441 421 522 421Q628 421 690 362T753 202Q753 134 725 81T649 -1T541 -30Q638 40 638 188Q638 235 620 270T570 325T500 344Q432 344 370 311V102Q370 69 376 48T392 14T416 0H214Q228 3 237 14T253 46T260 102V596H134Q107 596 88 588T56 565T27 510Z"
				   horiz-adv-x="791" unicode="Ђ"/>
			<glyph d="M32 666H452V518Q440 550 425 564T388 587T332 596H199V100Q199 67 205 45T223 13T246 0H39Q62 5 75 31T88 103V564Q88 606 73 633T32 666ZM275 853H411L218 700Z"
				   horiz-adv-x="479" unicode="Ѓ"/>
			<glyph d="M400 682Q448 682 497 670T576 641V465Q553 534 503 569T386 605Q325 605 276 575T197 492T159 374H367Q396 374 416 381T446 405V270Q433 303 369 303H159Q167 235 198 180T278 96T391 66Q443 66 497 93T590 169V79Q552 35 494 10T374 -15Q275 -15 200 27T83 147T42 319Q42 419 88 504T215 636T400 682Z"
				   horiz-adv-x="640" unicode="Є"/>
			<glyph d="M275 680Q320 680 362 667T431 635V496Q416 526 390 551T333 591T264 606Q214 606 183 580T152 516Q152 491 164 471T201 434T286 388Q366 350 400 322T453 258T472 177Q472 88 407 36T235 -15Q182 -15 132 -1T49 36V203Q79 130 126 95T243 61Q295 61 330 86T366 153Q366 190 339 220T258 279Q182 316 150 335T98 376T64 426T52 490Q52 576 113 628T275 680Z"
				   unicode="Ѕ"/>
			<glyph d="M41 666H247Q225 660 212 633T200 567V96Q200 65 206 45T223 13T246 0H42Q54 2 65 13T83 44T90 96V567Q90 606 78 632T41 666Z"
				   horiz-adv-x="290" unicode="І"/>
			<glyph d="M41 666H247Q225 660 212 633T200 567V96Q200 65 206 45T223 13T246 0H42Q54 2 65 13T83 44T90 96V567Q90 606 78 632T41 666ZM245 831Q270 831 285 816T300 778Q300 755 284 739T245 724Q220 724 204 739T189 778Q189 801 204 816T245 831ZM60 831Q85 831 100 816T115 778Q115 755 100 739Q85 724 60 724Q35 724 19 739T4 778Q4 801 19 816T60 831Z"
				   horiz-adv-x="300" unicode="Ї"/>
			<glyph d="M57 666H265Q242 659 230 632T218 566V141Q218 32 179 -18T66 -69Q5 -69 -37 -26Q-19 -32 0 -32Q53 -32 80 14T108 152V567Q108 607 95 634T57 666Z"
				   horiz-adv-x="307" unicode="Ј"/>
			<glyph d="M311 666H397L500 393H660Q772 393 831 346T890 212Q890 153 861 104T780 27T659 0H475Q490 2 499 13T508 43Q508 54 502 72T336 525L176 103Q162 67 162 48Q162 28 172 15T197 0H14Q25 2 39 15T68 54T99 121ZM527 322L603 119Q613 90 625 70H645Q704 70 740 106T777 202Q777 260 742 291T641 322Z"
				   horiz-adv-x="928" unicode="Љ"/>
			<glyph d="M40 666H239Q218 661 205 633T193 564V374H503V564Q503 607 490 634T455 666H654Q633 661 620 633T608 564V393H699Q811 393 871 346T932 212Q932 152 903 103T821 27T701 0H456Q470 3 480 14T496 48T503 102V303H193V102Q193 69 199 47T215 14T238 0H42Q55 3 65 14T81 46T88 102V564Q88 596 82 616T66 648T40 666ZM608 322V70H687Q746 70 782 106T819 202Q819 259 783 290T680 322Z"
				   horiz-adv-x="970" unicode="Њ"/>
			<glyph d="M40 666H606L618 510Q604 547 590 563T554 588T499 596H370V386Q443 421 517 421Q628 421 679 366T731 200V101Q731 68 737 46T755 13T777 0H575Q588 3 598 14T614 46T620 99V196Q620 268 588 306T494 344Q432 344 370 311V102Q370 68 376 46T394 13T417 0H213Q227 3 237 14T253 47T260 102V596H134Q108 596 88 588T55 565T27 510Z"
				   horiz-adv-x="804" unicode="Ћ"/>
			<glyph d="M39 666H245Q223 660 211 633T199 564V360L385 561Q435 616 435 643Q435 660 414 666H632Q603 660 563 631T483 558L304 368L515 110Q547 71 570 49T611 16T650 0H461L199 326V101Q199 55 212 29T244 0H40Q63 5 75 31T88 101V564Q88 605 75 632T39 666ZM334 853H470L277 700Z"
				   horiz-adv-x="666" unicode="Ќ"/>
			<glyph d="M39 666H245Q222 660 210 633T198 564V188L519 594Q519 622 506 641T470 666H676Q653 660 641 633T629 564V102Q629 59 641 32T675 0H471Q485 3 495 14T512 46T519 102V478L198 72Q198 50 204 34T222 10T244 0H41Q54 3 64 14T81 46T88 102V564Q88 605 75 632T39 666ZM211 853H347L406 700Z"
				   horiz-adv-x="717" unicode="Ѝ"/>
			<glyph d="M17 666H238Q225 662 219 657T210 643T206 624Q206 600 223 568L370 284L520 573Q532 597 532 620Q532 655 494 666H686Q674 662 650 632T600 551L386 146Q338 56 290 20T179 -15Q121 -15 86 0L87 114Q121 61 177 61Q244 61 301 163L306 172L106 554Q57 649 17 666ZM285 848Q291 807 312 785T368 764Q396 764 416 784T443 848L518 828Q508 776 467 746T363 717Q301 717 260 746T209 828Z"
				   horiz-adv-x="695" unicode="Ў"/>
			<glyph d="M43 666H245Q222 659 210 632T199 564V71H498V564Q498 606 486 633T453 666H654Q609 652 609 564V102Q609 59 622 32T656 0H485Q438 0 405 -36T353 -161H344Q324 -74 289 -37T204 0H43Q56 3 66 15T82 49T88 102V564Q88 607 76 633T43 666Z"
				   horiz-adv-x="697" unicode="Џ"/>
			<glyph d="M312 666H398L614 119Q633 69 657 37T703 0H480Q496 2 505 13T514 43Q514 59 498 100L468 179H205Q169 82 166 69T163 48Q163 28 173 15T200 0H14Q34 4 57 36T100 121ZM335 523L230 246H442Z"
				   horiz-adv-x="718" unicode="А"/>
			<glyph d="M36 666H501V518Q490 549 475 563T438 587T381 596H193V400H308Q419 400 480 350T541 213Q541 152 512 103T430 27T310 0H30Q46 3 58 14T79 48T88 104V565Q88 605 74 632T36 666ZM193 329V70H296Q356 70 392 106T428 203Q428 262 391 295T289 329Z"
				   horiz-adv-x="579" unicode="Б"/>
			<glyph d="M40 666H330Q386 666 427 645T491 588T514 506Q514 450 480 405T394 350Q462 341 504 292T546 177Q546 128 521 86T453 22T352 0H46Q68 5 80 33T93 107V562Q93 606 79 633T40 666ZM203 309V71H310Q366 71 398 99T430 183Q430 241 395 275T301 309ZM203 596V379H296Q343 379 370 410T398 494Q398 538 368 567T291 596Z"
				   horiz-adv-x="584" unicode="В"/>
			<glyph d="M32 666H452V518Q440 550 425 564T388 587T332 596H199V100Q199 67 205 45T223 13T246 0H39Q62 5 75 31T88 103V564Q88 606 73 633T32 666Z"
				   horiz-adv-x="479" unicode="Г"/>
			<glyph d="M312 666H398L622 98Q627 84 635 79T657 75H687V-161H678Q657 -84 612 -42T508 0H209Q170 0 136 -19T76 -76T39 -161H30V75H56Q71 75 78 79T91 97ZM335 523L166 75H508Z"
				   horiz-adv-x="718" unicode="Д"/>
			<glyph d="M37 666H454V517Q443 550 429 565T394 588T339 596H202V374H317Q349 374 369 382T396 406V270Q390 287 370 295T319 303H202V71H347Q409 71 440 89T497 160L470 0H44Q66 5 78 33T91 107V563Q91 605 77 632T37 666Z"
				   horiz-adv-x="521" unicode="Е"/>
			<glyph d="M31 666H236Q217 659 217 642Q217 615 264 561L438 358V564Q438 596 432 616T417 647T392 666H584Q564 660 553 632T542 564V358L716 561Q763 616 763 643Q763 661 743 666H949Q926 661 888 632T810 558L641 365L838 109Q874 63 905 35T968 0H788L542 326V101Q542 68 547 46T562 13T583 0H393Q406 3 415 14T431 46T438 101V325L190 0H12Q34 6 52 18T91 51T137 103T339 359L168 558Q127 605 90 633T31 666Z"
				   horiz-adv-x="980" unicode="Ж"/>
			<glyph d="M264 682Q320 682 367 661T441 602T468 516Q468 452 430 406T328 343Q398 329 439 286T480 184Q480 126 451 81T368 10T244 -15Q120 -15 42 36V203Q70 132 122 95T244 58Q303 58 338 90T374 173Q374 234 313 268T148 303V374H216Q284 374 324 407T364 496Q364 544 332 574T249 605Q208 605 174 591T114 549T65 467V642Q155 682 264 682Z"
				   horiz-adv-x="522" unicode="З"/>
			<glyph d="M39 666H245Q222 660 210 633T198 564V188L519 594Q519 622 506 641T470 666H676Q653 660 641 633T629 564V102Q629 59 641 32T675 0H471Q485 3 495 14T512 46T519 102V478L198 72Q198 50 204 34T222 10T244 0H41Q54 3 64 14T81 46T88 102V564Q88 605 75 632T39 666Z"
				   horiz-adv-x="717" unicode="И"/>
			<glyph d="M39 666H245Q222 660 210 633T198 564V188L519 594Q519 622 506 641T470 666H676Q653 660 641 633T629 564V102Q629 59 641 32T675 0H471Q485 3 495 14T512 46T519 102V478L198 72Q198 50 204 34T222 10T244 0H41Q54 3 64 14T81 46T88 102V564Q88 605 75 632T39 666ZM279 848Q285 807 306 785T362 764Q390 764 410 784T437 848L512 828Q502 776 461 746T357 717Q295 717 254 746T203 828Z"
				   horiz-adv-x="717" unicode="Й"/>
			<glyph d="M39 666H245Q223 660 211 633T199 564V360L385 561Q435 616 435 643Q435 660 414 666H632Q603 660 563 631T483 558L304 368L515 110Q547 71 570 49T611 16T650 0H461L199 326V101Q199 55 212 29T244 0H40Q63 5 75 31T88 101V564Q88 605 75 632T39 666Z"
				   horiz-adv-x="666" unicode="К"/>
			<glyph d="M312 666H398L614 119Q634 68 658 36T703 0H480Q496 2 505 13T514 43Q514 59 498 100L335 523L177 103Q163 67 163 48Q163 28 172 15T200 0H14Q34 4 57 36T100 121Z"
				   horiz-adv-x="718" unicode="Л"/>
			<glyph d="M41 666H233L430 206L626 666H800Q777 660 764 634T752 566V103Q752 69 759 47T777 14T800 0H602Q623 5 634 32T646 103V527L412 -14L176 525V109Q176 73 184 50T204 15T231 0H41Q56 3 68 15T89 50T97 109V569Q97 609 83 634T41 666Z"
				   horiz-adv-x="843" unicode="М"/>
			<glyph d="M39 666H246Q223 660 211 633T199 564V374H518V564Q518 605 505 633T469 666H676Q653 660 641 633T629 564V102Q629 59 641 31T675 0H470Q484 3 494 14T511 46T518 102V303H199V102Q199 69 205 47T222 13T245 0H41Q54 3 64 14T81 46T88 102V564Q88 605 75 632T39 666Z"
				   horiz-adv-x="717" unicode="Н"/>
			<glyph d="M379 682Q470 682 542 639T655 517T695 342Q695 243 651 160Q608 78 531 31T359 -15Q268 -15 195 28T82 149T41 325Q41 424 84 506T206 635T379 682ZM357 604Q299 604 252 573T179 484T153 355Q153 270 181 203T261 100T380 64Q437 64 484 96Q532 128 558 185T584 317Q584 399 555 465T475 567T357 604Z"
				   horiz-adv-x="736" unicode="О"/>
			<glyph d="M40 666H655Q634 661 621 633T609 564V102Q609 69 615 47T631 14T654 0H451Q464 2 474 14T491 48T498 102V596H199V102Q199 69 205 47T221 14T244 0H42Q54 2 64 13T81 46T88 102V564Q88 596 82 616T66 648T40 666Z"
				   horiz-adv-x="697" unicode="П"/>
			<glyph d="M35 666H309Q372 666 420 640T495 569T522 468Q522 408 492 359T410 284T287 257Q258 257 230 261T193 269V101Q193 68 200 47T218 14T243 0H41Q55 3 65 14T81 46T88 101V562Q88 604 74 632T35 666ZM193 596V340Q228 329 279 329Q340 329 374 366T409 463Q409 523 372 559T275 596Z"
				   horiz-adv-x="552" unicode="Р"/>
			<glyph d="M400 682Q448 682 497 670T576 641V465Q553 534 503 569T386 605Q319 605 267 569T187 472T160 338Q160 263 189 199T270 101T391 66Q443 66 497 93T590 169V79Q552 35 495 10T374 -15Q275 -15 200 27T83 147T42 319Q42 419 88 504T215 636T400 682Z"
				   horiz-adv-x="640" unicode="С"/>
			<glyph d="M40 666H591L603 510Q588 549 574 564T539 588T484 596H370V102Q370 68 377 46T394 14T418 0H212Q225 2 236 13T253 46T260 102V596H134Q107 596 88 588T56 565T27 510Z"
				   horiz-adv-x="630" unicode="Т"/>
			<glyph d="M17 666H238Q225 662 219 657T210 643T206 624Q206 600 223 568L370 284L520 573Q532 597 532 620Q532 655 494 666H686Q674 662 650 632T600 551L386 146Q338 56 290 20T179 -15Q121 -15 86 0L87 114Q121 61 177 61Q244 61 301 163L306 172L106 554Q57 649 17 666Z"
				   horiz-adv-x="695" unicode="У"/>
			<glyph d="M261 682H463Q442 678 430 654T416 589V577Q541 566 617 501T693 342Q693 278 658 224T559 136T416 93V80Q416 40 428 14T463 -16H263Q287 -9 298 16T310 80V92Q186 104 109 168T33 327Q33 423 109 491T310 576V586Q310 615 303 635T285 667T261 682ZM416 503V164Q491 174 537 218T583 325Q583 393 537 441T416 503ZM310 506Q235 495 189 452T144 348Q144 279 189 230T310 167Z"
				   horiz-adv-x="726" unicode="Ф"/>
			<glyph d="M10 666H242Q228 661 222 652T216 632Q216 611 246 563L341 416L438 557Q476 611 476 634Q476 657 453 666H649Q627 660 598 632T541 565L387 345L533 120Q565 69 597 36T650 0H416Q428 2 435 11T442 35Q442 60 408 112L319 247L227 116Q187 60 187 34Q187 5 213 0H11Q31 5 64 37T132 120L272 318L117 557Q87 602 59 631T10 666Z"
				   horiz-adv-x="667" unicode="Х"/>
			<glyph d="M43 666H245Q222 659 210 632T199 564V71H498V564Q498 606 486 633T453 666H654Q609 652 609 564V108Q609 87 617 79T647 71H677V-161H668Q647 -85 603 -42T498 0H43Q55 3 65 15T82 49T88 102V564Q88 606 75 634T43 666Z"
				   horiz-adv-x="707" unicode="Ц"/>
			<glyph d="M26 666H226Q182 651 182 567V470Q182 322 308 322Q370 322 432 355V567Q432 649 384 666H588Q567 660 554 633T542 567V96Q542 65 548 44T565 13T587 0H385Q398 3 408 13T425 44T432 96V280Q359 245 285 245Q174 245 122 299T71 466V565Q71 605 59 632T26 666Z"
				   horiz-adv-x="630" unicode="Ч"/>
			<glyph d="M43 666H245Q222 659 210 632T199 564V71H428V564Q428 606 416 633T383 666H584Q539 652 539 564V71H768V564Q768 606 756 633T723 666H924Q879 652 879 564V102Q879 59 892 32T926 0H43Q55 2 65 15T82 49T88 102V564Q88 607 76 634T43 666Z"
				   horiz-adv-x="967" unicode="Ш"/>
			<glyph d="M43 666H245Q222 659 210 632T199 564V71H428V564Q428 606 416 633T383 666H584Q539 652 539 564V71H768V564Q768 606 756 633T723 666H924Q879 652 879 564V108Q879 87 887 79T917 71H947V-161H938Q917 -85 873 -42T768 0H44Q56 4 66 16T82 49T88 102V564Q88 606 75 634T43 666Z"
				   horiz-adv-x="977" unicode="Щ"/>
			<glyph d="M40 666H414Q392 661 378 634T365 565V410H456Q566 410 627 358T689 213Q689 152 660 103T578 27T458 0H208Q223 3 234 14T252 48T260 104V596H134Q106 596 87 588T56 565T27 510ZM365 339V70H444Q503 70 539 106T576 203Q576 267 539 303T437 339Z"
				   horiz-adv-x="727" unicode="Ъ"/>
			<glyph d="M41 666H243Q219 661 206 633T193 565V410H284Q395 410 456 357T517 213Q517 152 488 103T406 27T286 0H35Q50 3 61 14T80 48T88 104V565Q88 607 75 634T41 666ZM580 666H786Q764 660 751 633T739 567V96Q739 65 745 44T762 13T785 0H581Q593 2 604 13T622 44T629 96V567Q629 606 616 632T580 666ZM193 339V70H272Q332 70 368 106T404 203Q404 266 367 302T265 339Z"
				   horiz-adv-x="827" unicode="Ы"/>
			<glyph d="M41 666H243Q219 661 206 633T193 565V410H289Q399 410 460 358T522 213Q522 152 493 103T412 27T291 0H35Q50 3 61 14T80 48T88 104V565Q88 609 75 635T41 666ZM193 339V70H277Q337 70 373 106T409 203Q409 267 372 303T270 339Z"
				   horiz-adv-x="560" unicode="Ь"/>
			<glyph d="M267 682Q366 682 441 639T557 520T598 349Q598 254 552 167T430 33T258 -15Q187 -15 131 0T42 39V191Q70 130 124 98T251 66Q312 66 362 96T443 182T479 303H268Q237 303 216 294T191 270V405Q209 374 270 374H478Q472 439 442 492T364 575T257 605Q185 605 132 568T56 465V641Q85 657 147 669T267 682Z"
				   horiz-adv-x="640" unicode="Э"/>
			<glyph d="M656 682Q745 682 815 638T925 517T965 342Q965 243 922 160T804 31T637 -15Q551 -15 481 25T371 138T326 303H199V102Q199 69 205 47T221 14T244 0H42Q54 2 64 13T81 46T88 102V564Q88 596 82 616T66 648T40 666H245Q224 660 211 633T199 564V374H329Q339 461 384 532T501 643T656 682ZM635 604Q579 604 533 573T463 484T438 355Q438 270 466 203T544 100T657 64Q713 64 758 96T828 185T854 317Q854 399 826 465T748 567T635 604Z"
				   horiz-adv-x="1006" unicode="Ю"/>
			<glyph d="M308 666H561Q536 660 522 631T508 561V101Q508 67 514 46T531 14T554 0H354Q368 3 378 14T394 47T401 101V281H376Q346 281 318 261T271 202L167 0H2Q22 5 44 22T81 66L163 217Q180 247 203 269T245 296Q171 307 122 355T74 469Q74 559 136 612T308 666ZM319 596Q259 596 222 561T186 471Q186 415 224 380T324 346H402V596Z"
				   horiz-adv-x="596" unicode="Я"/>
			<glyph d="M241 485Q321 485 362 447T404 340V138Q404 97 423 71T480 45Q483 45 493 47Q469 30 444 13T396 -21Q372 -18 348 2T319 47Q302 19 263 2T177 -15Q116 -15 79 17T42 101Q42 160 111 206T305 281V327Q305 425 227 425Q189 425 166 408T143 366Q143 352 149 341T165 327L63 287Q51 315 51 342Q51 402 105 443T241 485ZM305 226Q138 189 138 115Q138 85 159 67T210 49Q249 49 277 74T305 137Z"
				   horiz-adv-x="477" unicode="а"/>
			<glyph d="M461 704Q458 667 439 637T392 595T283 577Q234 573 214 565T182 540T160 494T145 402Q183 427 216 437T282 448Q336 448 379 422T447 349T471 238Q471 166 444 107T366 17T253 -15Q147 -15 93 58T40 285Q40 368 54 435T103 552T182 628T290 660L344 666Q438 677 461 704ZM252 380Q194 380 142 335V283Q142 161 168 107T253 54Q289 54 314 78T354 143T368 234Q368 297 336 338T252 380Z"
				   horiz-adv-x="509" unicode="б"/>
			<glyph d="M27 468H267Q341 468 382 437T424 356Q424 318 396 290T322 251Q383 242 416 211T449 131Q449 72 398 36T261 0H31Q50 3 60 23T71 75V395Q71 457 27 468ZM170 213V59H245Q293 59 318 79T344 135Q344 171 314 192T228 213ZM170 410V269H234Q274 269 296 290T319 347Q319 378 295 394T229 410Z"
				   horiz-adv-x="479" unicode="в"/>
			<glyph d="M28 468H375V348Q363 372 350 381T317 397T268 403H170V90Q170 62 175 42T190 12T209 0H29Q39 2 49 13T65 43T71 92V376Q71 414 59 437T28 468Z"
				   horiz-adv-x="393" unicode="г"/>
			<glyph d="M240 485H300L465 84Q471 71 476 68T491 66H519V-136H510Q500 -97 476 -64T421 -16T352 0H192Q154 0 122 -16T67 -65T34 -136H25V66H50Q62 66 68 69T80 86ZM255 336L151 66H360Z"
				   horiz-adv-x="545" unicode="д"/>
			<glyph d="M246 485Q330 485 378 417T429 231H133L135 220Q144 149 185 106T285 63Q326 63 366 84T436 142Q418 63 369 24T247 -15Q184 -15 136 16T61 102T35 226Q35 298 62 357T137 451T246 485ZM241 423Q197 423 166 383T133 287H329Q329 346 305 384T241 423Z"
				   horiz-adv-x="464" unicode="е"/>
			<glyph d="M21 468H224Q199 458 199 441Q199 429 207 415T232 381L322 269Q342 243 353 243V350Q353 387 347 411T331 450T310 468H490Q479 465 469 451T453 412T447 351V243Q458 243 478 269L568 381Q584 401 592 415T601 441Q601 458 575 468H779Q709 444 655 377L554 251L678 87Q702 55 732 34T786 14Q794 14 800 16Q786 4 760 -3T707 -11Q664 -11 639 1T572 64Q554 84 502 161Q491 177 480 192T462 217T447 227V118Q447 66 459 36T490 0H310Q331 6 342 37T353 117V227Q345 226 339 219T297 160Q242 78 216 50T174 10T138 -6T93 -11Q65 -11 39 -3T0 16Q5 14 14 14Q37 14 67 34T122 87L245 251L145 377Q90 446 21 468Z"
				   horiz-adv-x="800" unicode="ж"/>
			<glyph d="M196 485Q279 485 324 451T369 357Q369 330 355 305T318 263T269 241Q327 230 356 200T385 126Q385 60 331 22T188 -15Q146 -15 104 -7T42 11V122Q62 89 99 70T183 51Q233 51 259 73T285 133Q285 167 254 186T172 206H120V265H159Q217 265 248 286T279 347Q279 380 254 399T189 419Q147 419 111 397T57 341V463Q82 473 123 479T196 485Z"
				   horiz-adv-x="420" unicode="з"/>
			<glyph d="M28 468H208Q169 455 169 375V170L368 395Q368 452 330 468H508Q489 463 478 438T467 372V96Q467 55 477 29T506 0H332Q348 5 358 30T368 93V296L169 73Q169 43 180 23T207 0H30Q49 6 60 30T71 94V374Q71 454 28 468Z"
				   horiz-adv-x="540" unicode="и"/>
			<glyph d="M28 468H208Q169 455 169 375V170L368 395Q368 452 330 468H508Q489 463 478 438T467 372V96Q467 55 477 29T506 0H332Q348 5 358 30T368 93V296L169 73Q169 43 180 23T207 0H30Q49 6 60 30T71 94V374Q71 454 28 468ZM192 676Q198 635 219 613T275 592Q303 592 323 612T350 676L425 656Q415 604 374 574T270 545Q208 545 167 574T116 656Z"
				   horiz-adv-x="540" unicode="й"/>
			<glyph d="M170 489V244Q180 244 191 257L299 384Q315 402 322 415T330 441Q330 449 323 456T302 468H515Q480 456 447 432T388 379L283 256L412 97Q445 57 476 35T531 14Q540 14 545 16Q530 4 504 -3T448 -11Q404 -11 373 6T300 74L250 138Q195 210 187 218T170 227V118Q170 80 176 55T193 16T215 0H26Q39 3 48 16T64 54T71 117V337Q71 381 59 402T20 423H8Z"
				   horiz-adv-x="545" unicode="к"/>
			<glyph d="M230 485H290L457 79Q471 46 489 25T526 0H321Q354 6 354 41Q354 54 344 81L245 336L152 94Q141 66 141 48Q141 29 151 16T180 0H0Q18 5 36 27T70 86Z"
				   horiz-adv-x="525" unicode="л"/>
			<glyph d="M33 469H187L326 168L467 469H621Q614 467 604 453T589 421T583 378V93Q583 68 589 48T604 15T621 0H457Q464 2 472 15T485 47T491 93V365L312 -12L137 364V97Q137 71 142 50T157 16T174 0H33Q41 3 50 16T65 49T71 97V380Q71 403 65 421T51 452T33 469Z"
				   horiz-adv-x="656" unicode="м"/>
			<glyph d="M28 468H209Q170 454 170 375V271H367V375Q367 452 329 468H508Q489 463 478 438T467 372V96Q467 55 477 29T506 0H331Q348 6 357 31T367 93V206H170V93Q170 53 180 29T208 0H30Q48 5 59 29T71 94V374Q71 454 28 468Z"
				   horiz-adv-x="540" unicode="н"/>
			<glyph d="M276 485Q345 485 397 454T477 367T506 244Q506 174 475 113Q445 53 391 19T266 -15Q197 -15 145 16T66 102T38 226Q38 296 68 356T152 451T276 485ZM261 416Q207 416 174 369T141 249Q141 196 158 151T207 80T281 54Q336 54 368 102T401 223Q401 276 383 320T334 390T261 416Z"
				   horiz-adv-x="544" unicode="о"/>
			<glyph d="M28 468H498Q479 463 468 438T457 372V96Q457 56 467 30T496 0H321Q337 5 347 30T357 93V403H170V93Q170 53 180 29T208 0H30Q49 6 60 30T71 94V374Q71 454 28 468Z"
				   horiz-adv-x="530" unicode="п"/>
			<glyph d="M163 489L164 408Q189 446 225 465T303 485Q354 485 395 456T459 375T483 251Q483 176 455 115T376 20T262 -13Q197 -13 167 23V-86Q167 -126 178 -150T211 -181H30Q40 -179 49 -168T63 -137T69 -86V333Q69 379 58 401T19 423H9ZM267 408Q227 408 197 374T167 289V141Q167 100 188 77T255 54Q309 54 342 102T376 228Q376 312 346 360T267 408Z"
				   horiz-adv-x="519" unicode="р"/>
			<glyph d="M260 485Q324 485 365 445T409 340L309 298Q315 316 315 333Q315 371 294 392T241 414Q192 414 161 368T130 252Q130 171 169 116T274 61Q311 61 348 82T418 145Q403 73 354 29T239 -15Q177 -15 130 13T59 94T35 215Q35 292 65 354T147 450T260 485Z"
				   horiz-adv-x="441" unicode="с"/>
			<glyph d="M18 468H427V348Q415 372 402 381T369 397T320 403H272V90Q272 50 283 26T310 0H131Q141 2 150 12T166 42T173 92V403H125Q84 403 58 390T18 348Z"
				   horiz-adv-x="445" unicode="т"/>
			<glyph d="M0 468H205Q188 462 181 451T174 425Q174 410 186 379L279 139L366 367Q380 403 380 422Q380 438 372 450T345 468H519Q498 459 482 437T452 382L318 49Q279 -50 233 -112T140 -193L27 -106Q44 -113 69 -113Q159 -113 221 12L72 386Q59 418 41 439T0 468Z"
				   horiz-adv-x="519" unicode="у"/>
			<glyph d="M369 695V483Q440 476 494 443T577 359T606 244Q606 181 577 126T495 35T369 -11V-85Q369 -126 380 -151T410 -181H230Q251 -176 263 -150T275 -85V-13Q203 -6 149 26T67 111T38 226Q38 290 67 345T149 436T275 482V533Q275 585 262 609T219 633H210ZM275 417Q214 407 175 359T136 247Q136 175 173 125T275 58ZM369 411V54Q429 64 467 112T506 225Q506 294 470 344T369 411Z"
				   horiz-adv-x="644" unicode="ф"/>
			<glyph d="M5 468H200Q182 462 182 442Q182 423 205 389L258 309L312 387Q337 424 337 445Q337 453 333 459T319 468H485Q440 455 393 385L300 245L414 75Q435 43 455 23T488 0H297Q313 4 313 23Q313 43 288 81L237 160L186 87Q157 46 157 24Q157 4 174 0H7Q24 4 49 26T103 91L194 223L89 382Q42 452 5 468Z"
				   horiz-adv-x="495" unicode="х"/>
			<glyph d="M30 468H208Q190 464 180 440T170 375V66H357V375Q357 413 346 438T321 468H496Q478 464 467 438T457 372V102Q457 82 464 74T486 66H518V-136H509Q490 -71 448 -35T351 0H28Q71 14 71 94V374Q71 413 59 438T30 468Z"
				   horiz-adv-x="540" unicode="ц"/>
			<glyph d="M25 468H203Q184 463 173 438T162 372V323Q162 271 179 247T237 223Q281 223 312 254T344 327V375Q344 452 306 468H484Q465 463 454 438T443 372V90Q443 51 453 28T480 0H303Q313 3 322 14T338 45T344 92V173L345 218Q319 185 279 165T198 146Q131 146 97 187T63 310V375Q63 452 25 468Z"
				   horiz-adv-x="516" unicode="ч"/>
			<glyph d="M30 468H208Q190 463 180 439T170 375V66H322V375Q322 403 317 422T303 453T286 468H461Q443 464 432 438T422 372V66H574V375Q574 413 564 437T538 468H713Q696 464 685 439T674 372V96Q674 55 685 30T715 0H28Q71 14 71 94V374Q71 413 59 438T30 468Z"
				   horiz-adv-x="747" unicode="ш"/>
			<glyph d="M30 468H208Q190 463 180 439T170 375V66H322V375Q322 403 317 422T303 453T286 468H461Q443 464 432 438T422 372V66H574V375Q574 412 564 437T538 468H713Q695 464 684 439T674 372V102Q674 81 681 73T703 66H735V-136H726Q715 -96 691 -63T635 -15T568 0H28Q71 14 71 94V374Q71 413 59 438T30 468Z"
				   horiz-adv-x="760" unicode="щ"/>
			<glyph d="M18 468H314Q294 462 283 438T272 377V288H335Q434 288 484 254T534 156Q534 86 479 43T331 0H132Q150 6 161 30T173 93V403H125Q84 403 58 390T18 348ZM272 228V59H319Q372 59 400 83T429 146Q429 228 313 228Z"
				   horiz-adv-x="564" unicode="ъ"/>
			<glyph d="M28 468H212Q194 463 182 439T170 377V288H233Q332 288 382 254T432 156Q432 86 377 43T229 0H30Q39 2 49 13T65 44T71 93V377Q71 416 59 439T28 468ZM480 468H661Q622 455 622 375V93Q622 53 632 28T660 0H482Q500 5 511 30T523 94V374Q523 453 480 468ZM170 228V59H217Q271 59 299 83T327 146Q327 228 211 228Z"
				   horiz-adv-x="695" unicode="ы"/>
			<glyph d="M28 468H212Q194 463 182 439T170 377V288H243Q342 288 392 254T442 156Q442 86 387 43T239 0H30Q39 2 49 13T65 44T71 93V377Q71 416 59 439T28 468ZM170 228V59H227Q280 59 308 83T337 146Q337 228 221 228Z"
				   horiz-adv-x="472" unicode="ь"/>
			<glyph d="M221 485Q280 485 326 455T398 372T423 255Q423 132 357 58T184 -15Q154 -15 113 -7T50 12V122Q69 90 107 70T188 51Q242 51 281 95T328 206H125V265H327Q320 329 282 369T188 409Q143 409 103 386T35 325Q51 399 102 442T221 485Z"
				   horiz-adv-x="462" unicode="э"/>
			<glyph d="M507 485Q574 485 624 454T702 368T730 244Q730 173 701 113T620 19T498 -15Q435 -15 386 13T310 92T278 206H170V93Q170 53 180 28T208 0H30Q49 6 60 30T71 94V374Q71 454 28 468H209Q170 455 170 375V271H280Q289 333 320 382T398 458T507 485ZM493 416Q441 416 410 369T380 249Q380 196 396 150T443 79T512 54Q562 54 593 101T625 223Q625 276 608 321T562 391T493 416Z"
				   horiz-adv-x="768" unicode="ю"/>
			<glyph d="M259 468H473Q455 463 444 438T433 374V94Q433 53 444 28T471 0H292Q302 2 312 13T327 43T333 91V192H319Q288 192 268 181T230 142L132 0H-17Q-1 3 16 14T49 46L121 145Q161 200 204 209Q133 216 94 247T55 326Q55 392 108 430T259 468ZM271 409Q211 409 183 387T156 330Q156 291 186 269T273 248H334V409Z"
				   horiz-adv-x="506" unicode="я"/>
			<glyph d="M246 485Q330 485 378 417T429 231H133L135 220Q144 149 185 106T285 63Q326 63 366 84T436 142Q418 63 369 24T247 -15Q184 -15 136 16T61 102T35 226Q35 298 62 357T137 451T246 485ZM241 423Q197 423 166 383T133 287H329Q329 346 305 384T241 423ZM121 666H261L317 511Z"
				   horiz-adv-x="464" unicode="ѐ"/>
			<glyph d="M246 485Q330 485 378 417T429 231H133L135 220Q144 149 185 106T285 63Q326 63 366 84T436 142Q418 63 369 24T247 -15Q184 -15 136 16T61 102T35 226Q35 298 62 357T137 451T246 485ZM241 423Q197 423 166 383T133 287H329Q329 346 305 384T241 423ZM340 669Q365 669 380 654T395 616Q395 593 379 577T340 562Q315 562 299 577T284 616Q284 639 299 654T340 669ZM155 669Q180 669 195 654T210 616Q210 593 195 577Q180 562 155 562Q130 562 114 577T99 616Q99 639 114 654T155 669Z"
				   horiz-adv-x="464" unicode="ё"/>
			<glyph d="M173 699V589H334V538H173V409Q199 440 241 462T323 485Q386 485 422 445T459 326V-14Q459 -189 324 -189Q299 -189 273 -178T226 -148Q244 -154 259 -154Q314 -154 336 -120T359 -15V300Q359 356 340 382T282 408Q239 408 206 374T173 292V94Q173 54 184 28T213 0H30Q42 2 52 13T68 45T74 97V538H17V589H67Q61 610 49 620T16 631H6Z"
				   horiz-adv-x="527" unicode="ђ"/>
			<glyph d="M28 468H375V348Q363 372 350 381T317 397T268 403H170V90Q170 62 175 42T190 12T209 0H29Q39 2 49 13T65 43T71 92V376Q71 414 59 437T28 468ZM223 666H359L166 511Z"
				   horiz-adv-x="403" unicode="ѓ"/>
			<glyph d="M276 485Q347 485 396 458V336Q370 382 337 400T263 419Q212 419 174 375T130 265H333V206H131Q138 142 176 101T277 61Q363 61 428 145Q413 73 362 29T242 -15Q180 -15 133 13T60 94T35 215Q35 292 67 353T154 450T276 485Z"
				   horiz-adv-x="451" unicode="є"/>
			<glyph d="M214 485Q250 485 281 477T333 458V336Q311 377 278 398T207 419Q172 419 153 403T134 363Q134 338 152 320T237 271Q306 240 334 206T362 128Q362 63 315 24T185 -15Q143 -15 101 -4T39 24V156Q61 103 99 77T188 51Q225 51 247 66T269 108Q269 130 253 146T203 180L151 207Q96 234 70 266T44 342Q44 407 89 446T214 485Z"
				   horiz-adv-x="390" unicode="ѕ"/>
			<glyph d="M170 489V96Q170 64 176 43T193 12T214 0H26Q48 4 59 29T71 96V339Q71 381 59 402T19 423H7ZM113 681Q143 681 161 663T179 617Q179 588 160 570T113 552Q84 552 65 570T46 617Q46 645 64 663T113 681Z"
				   horiz-adv-x="240" unicode="і"/>
			<glyph d="M177 488V97Q177 65 183 44T200 13T222 0H29Q41 2 52 13T69 45T75 97V337Q75 381 62 402T22 423H10ZM221 669Q246 669 261 654T276 616Q276 593 260 577T221 562Q196 562 180 577T165 616Q165 639 180 654T221 669ZM36 669Q61 669 76 654T91 616Q91 593 76 577Q61 562 36 562Q11 562 -4 577T-20 616Q-20 639 -4 654T36 669Z"
				   horiz-adv-x="240" unicode="ї"/>
			<glyph d="M109 681Q139 681 157 663T176 617Q176 588 157 570T109 552Q79 552 61 570T43 617Q43 644 60 662T109 681ZM172 489V-14Q172 -189 37 -189Q12 -189 -14 -178T-61 -148Q-42 -154 -28 -154Q27 -154 49 -121T72 -15V344Q72 385 60 404T21 423H8Z"
				   horiz-adv-x="240" unicode="ј"/>
			<glyph d="M230 485H288L375 271H488Q687 271 687 147Q687 80 632 40T484 0H322Q354 6 354 41Q354 54 344 81L245 336L152 94Q141 66 141 48Q141 27 152 15T178 0H0Q16 3 35 26T70 86ZM400 211L462 59H472Q525 59 553 80T582 137Q582 211 466 211Z"
				   horiz-adv-x="717" unicode="љ"/>
			<glyph d="M28 468H209Q170 455 170 375V271H357V375Q357 454 319 468H498Q479 463 468 435T457 363V271H520Q719 271 719 147Q719 80 665 40T516 0H321Q336 4 346 29T357 93V206H170V93Q170 53 180 28T208 0H30Q48 5 59 30T71 94V374Q71 454 28 468ZM457 211V59H504Q558 59 586 80T614 137Q614 211 498 211Z"
				   horiz-adv-x="749" unicode="њ"/>
			<glyph d="M173 699V589H334V538H173V409Q199 440 241 462T323 485Q386 485 422 445T459 326V96Q459 65 465 44T481 13T502 0H323Q334 3 341 14T354 44T359 94V300Q359 356 340 382T282 408Q238 408 205 374T173 292V94Q173 54 184 29T214 0H29Q42 2 51 13T67 44T74 97V538H17V589H67Q61 610 49 620T16 631H6Z"
				   horiz-adv-x="530" unicode="ћ"/>
			<glyph d="M170 489V244Q180 244 191 257L299 384Q315 402 322 415T330 441Q330 449 323 456T302 468H515Q480 456 447 432T388 379L283 256L412 97Q445 57 476 35T531 14Q540 14 545 16Q530 4 504 -3T448 -11Q404 -11 373 6T300 74L250 138Q195 210 187 218T170 227V118Q170 80 176 55T193 16T215 0H26Q39 3 48 16T64 54T71 117V337Q71 381 59 402T20 423H8ZM271 666H407L214 511Z"
				   horiz-adv-x="545" unicode="ќ"/>
			<glyph d="M28 468H208Q169 455 169 375V170L368 395Q368 452 330 468H508Q489 463 478 438T467 372V96Q467 55 477 29T506 0H332Q348 5 358 30T368 93V296L169 73Q169 43 180 23T207 0H30Q49 6 60 30T71 94V374Q71 454 28 468ZM122 666H262L318 511Z"
				   horiz-adv-x="540" unicode="ѝ"/>
			<glyph d="M0 468H205Q188 462 181 451T174 425Q174 410 186 379L279 139L366 367Q380 403 380 422Q380 438 372 450T345 468H519Q498 459 482 437T452 382L318 49Q279 -50 233 -112T140 -193L27 -106Q44 -113 69 -113Q159 -113 221 12L72 386Q59 418 41 439T0 468ZM192 676Q198 635 219 613T275 592Q303 592 323 612T350 676L425 656Q415 604 374 574T270 545Q208 545 167 574T116 656Z"
				   horiz-adv-x="519" unicode="ў"/>
			<glyph d="M30 468H208Q190 463 180 439T170 375V66H357V375Q357 414 346 438T321 468H496Q478 464 467 438T457 372V96Q457 55 468 30T498 0H375Q340 0 312 -34T269 -136H260Q227 0 152 0H28Q71 14 71 94V374Q71 413 59 438T30 468Z"
				   horiz-adv-x="530" unicode="џ"/>
			<glyph d="M443 800H452V596H199V100Q199 68 205 47T221 14T244 0H41Q55 3 65 15T82 50T88 103V564Q88 604 75 630T33 666H293Q330 666 360 683T412 731T443 800Z"
				   horiz-adv-x="479" unicode="Ґ"/>
			<glyph d="M366 589H375V403H170V90Q170 51 180 27T207 0H29Q40 3 49 14T65 44T71 92V376Q71 449 28 468H223Q264 468 291 482T336 521T366 589Z"
				   horiz-adv-x="393" unicode="ґ"/>
			<glyph d="M10 666H233Q217 660 211 647T205 616Q205 595 217 558L342 182L468 535Q450 593 438 615T414 650T390 666H593Q576 661 568 647T560 614Q560 594 572 558L697 182L825 562Q834 587 834 613Q834 655 797 666H991Q965 660 943 629T905 551L722 0H642L503 420L357 0H280L96 555Q81 601 58 630T10 666ZM363 853H499L558 700Z"
				   horiz-adv-x="1001" unicode="Ẁ"/>
			<glyph d="M0 468H199Q187 464 181 459T173 446T170 429Q170 413 180 387L269 144L354 370L347 392Q322 455 288 468H471Q459 464 453 458T443 445T440 425Q440 410 449 387L537 144L617 375Q627 402 627 420Q627 459 591 468H769Q725 455 698 382L558 0H492L387 281L282 0H216L69 389Q56 420 38 441T0 468ZM238 666H378L434 511Z"
				   horiz-adv-x="769" unicode="ẁ"/>
			<glyph d="M10 666H233Q217 660 211 647T205 616Q205 595 217 558L342 182L468 535Q450 593 438 615T414 650T390 666H593Q576 661 568 647T560 614Q560 594 572 558L697 182L825 562Q834 587 834 613Q834 655 797 666H991Q965 660 943 629T905 551L722 0H642L503 420L357 0H280L96 555Q81 601 58 630T10 666ZM511 853H647L454 700Z"
				   horiz-adv-x="1001" unicode="Ẃ"/>
			<glyph d="M0 468H199Q187 464 181 459T173 446T170 429Q170 413 180 387L269 144L354 370L347 392Q322 455 288 468H471Q459 464 453 458T443 445T440 425Q440 410 449 387L537 144L617 375Q627 402 627 420Q627 459 591 468H769Q725 455 698 382L558 0H492L387 281L282 0H216L69 389Q56 420 38 441T0 468ZM399 666H535L342 511Z"
				   horiz-adv-x="769" unicode="ẃ"/>
			<glyph d="M10 666H233Q217 660 211 647T205 616Q205 595 217 558L342 182L468 535Q450 593 438 615T414 650T390 666H593Q576 661 568 647T560 614Q560 594 572 558L697 182L825 562Q834 587 834 613Q834 655 797 666H991Q965 660 943 629T905 551L722 0H642L503 420L357 0H280L96 555Q81 601 58 630T10 666ZM606 831Q631 831 646 816T662 778Q662 755 646 739T606 724Q582 724 566 739T551 778Q551 800 566 815T606 831ZM421 831Q446 831 461 816T477 778Q477 755 461 739T421 724Q396 724 380 740T365 778Q365 800 381 815T421 831Z"
				   horiz-adv-x="1001" unicode="Ẅ"/>
			<glyph d="M0 468H199Q187 464 181 459T173 446T170 429Q170 413 180 387L269 144L354 370L347 392Q322 455 288 468H471Q459 464 453 458T443 445T440 425Q440 410 449 387L537 144L617 375Q627 402 627 420Q627 459 591 468H769Q725 455 698 382L558 0H492L387 281L282 0H216L69 389Q56 420 38 441T0 468ZM488 669Q513 669 528 654T543 616Q543 593 527 577T488 562Q463 562 447 577T432 616Q432 639 447 654T488 669ZM303 669Q328 669 343 654T358 616Q358 593 343 577Q328 562 303 562Q278 562 262 577T247 616Q247 639 262 654T303 669Z"
				   horiz-adv-x="769" unicode="ẅ"/>
			<glyph d="M396 681Q467 681 527 661T632 612L481 382Q563 361 610 310T657 188Q657 135 629 88T553 13T443 -14Q396 -14 354 -1T287 34V141Q316 103 353 82T426 62Q479 62 511 95T544 182Q544 306 348 333L498 566Q437 603 374 603Q295 603 253 546T212 386V98Q212 67 218 46T235 14T256 0H50Q63 3 74 14T92 46T99 99V381Q99 471 136 539T241 644T396 681Z"
				   horiz-adv-x="722" unicode="ẞ"/>
			<glyph d="M312 666H398L614 119Q633 69 657 37T703 0H480Q496 2 505 13T514 43Q514 59 498 100L468 179H205Q169 82 166 69T163 48Q163 28 173 15T200 0H14Q34 4 57 36T100 121ZM335 523L230 246H442ZM344 -69Q370 -69 386 -85T402 -124Q402 -147 386 -164Q371 -180 344 -180Q317 -180 301 -163T286 -124Q286 -101 301 -85T344 -69Z"
				   horiz-adv-x="718" unicode="Ạ"/>
			<glyph d="M241 485Q321 485 362 447T404 340V138Q404 97 423 71T480 45Q483 45 493 47Q469 30 444 13T396 -21Q372 -18 348 2T319 47Q302 19 263 2T177 -15Q116 -15 79 17T42 101Q42 160 111 206T305 281V327Q305 425 227 425Q189 425 166 408T143 366Q143 352 149 341T165 327L63 287Q51 315 51 342Q51 402 105 443T241 485ZM305 226Q138 189 138 115Q138 85 159 67T210 49Q249 49 277 74T305 137ZM238 -69Q264 -69 280 -85T296 -124Q296 -147 280 -164Q265 -180 238 -180Q211 -180 195 -163T180 -124Q180 -101 195 -85T238 -69Z"
				   horiz-adv-x="477" unicode="ạ"/>
			<glyph d="M312 666H398L614 119Q633 69 657 37T703 0H480Q496 2 505 13T514 43Q514 59 498 100L468 179H205Q169 82 166 69T163 48Q163 28 173 15T200 0H14Q34 4 57 36T100 121ZM335 523L230 246H442ZM357 897Q398 897 422 878T447 830Q447 792 407 765L388 752Q368 739 368 729Q368 717 384 713Q377 708 365 708Q347 708 333 718T320 745Q320 758 328 768T347 787T365 804T374 825Q374 837 366 844T346 852Q329 852 310 839T280 807V882Q315 897 357 897Z"
				   horiz-adv-x="718" unicode="Ả"/>
			<glyph d="M241 485Q321 485 362 447T404 340V138Q404 97 423 71T480 45Q483 45 493 47Q469 30 444 13T396 -21Q372 -18 348 2T319 47Q302 19 263 2T177 -15Q116 -15 79 17T42 101Q42 160 111 206T305 281V327Q305 425 227 425Q189 425 166 408T143 366Q143 352 149 341T165 327L63 287Q51 315 51 342Q51 402 105 443T241 485ZM305 226Q138 189 138 115Q138 85 159 67T210 49Q249 49 277 74T305 137ZM236 710Q277 710 301 691T326 643Q326 605 286 578L267 565Q247 552 247 542Q247 530 263 526Q256 521 244 521Q226 521 212 531T199 558Q199 571 207 581T226 600T244 617T253 638Q253 650 245 657T225 665Q208 665 189 652T159 620V695Q194 710 236 710Z"
				   horiz-adv-x="477" unicode="ả"/>
			<glyph d="M312 666H398L614 119Q633 69 657 37T703 0H480Q496 2 505 13T514 43Q514 59 498 100L468 179H205Q169 82 166 69T163 48Q163 28 173 15T200 0H14Q34 4 57 36T100 121ZM335 523L230 246H442ZM484 920H595L435 787ZM353 851L500 699L353 757L210 699Z"
				   horiz-adv-x="718" unicode="Ấ"/>
			<glyph d="M241 485Q321 485 362 447T404 340V138Q404 97 423 71T480 45Q483 45 493 47Q469 30 444 13T396 -21Q372 -18 348 2T319 47Q302 19 263 2T177 -15Q116 -15 79 17T42 101Q42 160 111 206T305 281V327Q305 425 227 425Q189 425 166 408T143 366Q143 352 149 341T165 327L63 287Q51 315 51 342Q51 402 105 443T241 485ZM305 226Q138 189 138 115Q138 85 159 67T210 49Q249 49 277 74T305 137ZM372 752H483L323 619ZM241 683L388 531L241 589L98 531Z"
				   horiz-adv-x="477" unicode="ấ"/>
			<glyph d="M312 666H398L614 119Q633 69 657 37T703 0H480Q496 2 505 13T514 43Q514 59 498 100L468 179H205Q169 82 166 69T163 48Q163 28 173 15T200 0H14Q34 4 57 36T100 121ZM335 523L230 246H442ZM113 920H224L273 787ZM353 851L500 699L353 757L210 699Z"
				   horiz-adv-x="718" unicode="Ầ"/>
			<glyph d="M241 485Q321 485 362 447T404 340V138Q404 97 423 71T480 45Q483 45 493 47Q469 30 444 13T396 -21Q372 -18 348 2T319 47Q302 19 263 2T177 -15Q116 -15 79 17T42 101Q42 160 111 206T305 281V327Q305 425 227 425Q189 425 166 408T143 366Q143 352 149 341T165 327L63 287Q51 315 51 342Q51 402 105 443T241 485ZM305 226Q138 189 138 115Q138 85 159 67T210 49Q249 49 277 74T305 137ZM1 752H112L161 619ZM241 683L388 531L241 589L98 531Z"
				   horiz-adv-x="477" unicode="ầ"/>
			<glyph d="M312 666H398L614 119Q633 69 657 37T703 0H480Q496 2 505 13T514 43Q514 59 498 100L468 179H205Q169 82 166 69T163 48Q163 28 173 15T200 0H14Q34 4 57 36T100 121ZM335 523L230 246H442ZM481 940Q513 940 531 926T550 887Q550 868 540 855T519 835T498 819T489 805Q489 795 502 791Q496 785 486 785Q471 785 460 793T449 818Q449 829 456 837T472 852T488 866T495 883Q495 902 472 902Q445 902 422 867V928Q450 940 481 940ZM353 851L500 699L353 757L210 699Z"
				   horiz-adv-x="718" unicode="Ẩ"/>
			<glyph d="M241 485Q321 485 362 447T404 340V138Q404 97 423 71T480 45Q483 45 493 47Q469 30 444 13T396 -21Q372 -18 348 2T319 47Q302 19 263 2T177 -15Q116 -15 79 17T42 101Q42 160 111 206T305 281V327Q305 425 227 425Q189 425 166 408T143 366Q143 352 149 341T165 327L63 287Q51 315 51 342Q51 402 105 443T241 485ZM305 226Q138 189 138 115Q138 85 159 67T210 49Q249 49 277 74T305 137ZM369 772Q401 772 419 758T438 719Q438 700 428 687T407 667T386 651T377 637Q377 627 390 623Q384 617 374 617Q359 617 348 625T337 650Q337 661 344 669T360 684T376 698T383 715Q383 734 360 734Q333 734 310 699V760Q338 772 369 772ZM241 683L388 531L241 589L98 531Z"
				   horiz-adv-x="477" unicode="ẩ"/>
			<glyph d="M312 666H398L614 119Q633 69 657 37T703 0H480Q496 2 505 13T514 43Q514 59 498 100L468 179H205Q169 82 166 69T163 48Q163 28 173 15T200 0H14Q34 4 57 36T100 121ZM335 523L230 246H442ZM353 851L500 699L353 757L210 699ZM478 990Q485 983 488 971T492 949Q492 917 470 892T415 868Q399 868 382 876T348 894T315 912T286 920Q266 920 254 903T240 858Q233 866 229 878T226 901Q226 934 246 957T298 980Q315 980 334 972T370 954T404 936T433 928Q453 928 465 944Q477 961 478 990Z"
				   horiz-adv-x="718" unicode="Ẫ"/>
			<glyph d="M241 485Q321 485 362 447T404 340V138Q404 97 423 71T480 45Q483 45 493 47Q469 30 444 13T396 -21Q372 -18 348 2T319 47Q302 19 263 2T177 -15Q116 -15 79 17T42 101Q42 160 111 206T305 281V327Q305 425 227 425Q189 425 166 408T143 366Q143 352 149 341T165 327L63 287Q51 315 51 342Q51 402 105 443T241 485ZM305 226Q138 189 138 115Q138 85 159 67T210 49Q249 49 277 74T305 137ZM241 683L388 531L241 589L98 531ZM366 822Q373 815 376 803T380 781Q380 749 358 724T303 700Q287 700 270 708T236 726T203 744T174 752Q154 752 142 735T128 690Q121 698 117 710T114 733Q114 766 134 789T186 812Q203 812 222 804T258 786T292 768T321 760Q341 760 353 776Q365 793 366 822Z"
				   horiz-adv-x="477" unicode="ẫ"/>
			<glyph d="M312 666H398L614 119Q633 69 657 37T703 0H480Q496 2 505 13T514 43Q514 59 498 100L468 179H205Q169 82 166 69T163 48Q163 28 173 15T200 0H14Q34 4 57 36T100 121ZM335 523L230 246H442ZM344 -69Q370 -69 386 -85T402 -124Q402 -147 386 -164Q371 -180 344 -180Q317 -180 301 -163T286 -124Q286 -101 301 -85T344 -69ZM353 868L500 699Q472 713 428 731Q377 751 353 763Q327 750 280 731Q237 713 210 699Q246 744 281 783T353 868Z"
				   horiz-adv-x="718" unicode="Ậ"/>
			<glyph d="M241 485Q321 485 362 447T404 340V138Q404 97 423 71T480 45Q483 45 493 47Q469 30 444 13T396 -21Q372 -18 348 2T319 47Q302 19 263 2T177 -15Q116 -15 79 17T42 101Q42 160 111 206T305 281V327Q305 425 227 425Q189 425 166 408T143 366Q143 352 149 341T165 327L63 287Q51 315 51 342Q51 402 105 443T241 485ZM305 226Q138 189 138 115Q138 85 159 67T210 49Q249 49 277 74T305 137ZM238 -69Q264 -69 280 -85T296 -124Q296 -147 280 -164Q265 -180 238 -180Q211 -180 195 -163T180 -124Q180 -101 195 -85T238 -69ZM241 691L378 512L241 588Q208 569 174 549T108 512Q142 557 175 601T241 691Z"
				   horiz-adv-x="477" unicode="ậ"/>
			<glyph d="M312 666H398L614 119Q633 69 657 37T703 0H480Q496 2 505 13T514 43Q514 59 498 100L468 179H205Q169 82 166 69T163 48Q163 28 173 15T200 0H14Q34 4 57 36T100 121ZM335 523L230 246H442ZM233 849Q251 818 283 801T353 784Q388 784 420 800T473 849Q471 791 436 754T353 717Q304 717 269 754T233 849ZM362 950H473L313 817Z"
				   horiz-adv-x="718" unicode="Ắ"/>
			<glyph d="M241 485Q321 485 362 447T404 340V138Q404 97 423 71T480 45Q483 45 493 47Q469 30 444 13T396 -21Q372 -18 348 2T319 47Q302 19 263 2T177 -15Q116 -15 79 17T42 101Q42 160 111 206T305 281V327Q305 425 227 425Q189 425 166 408T143 366Q143 352 149 341T165 327L63 287Q51 315 51 342Q51 402 105 443T241 485ZM305 226Q138 189 138 115Q138 85 159 67T210 49Q249 49 277 74T305 137ZM122 678Q140 647 172 630T242 613Q277 613 309 629T362 678Q360 620 325 583T242 546Q193 546 158 583T122 678ZM251 779H362L202 646Z"
				   horiz-adv-x="477" unicode="ắ"/>
			<glyph d="M312 666H398L614 119Q633 69 657 37T703 0H480Q496 2 505 13T514 43Q514 59 498 100L468 179H205Q169 82 166 69T163 48Q163 28 173 15T200 0H14Q34 4 57 36T100 121ZM335 523L230 246H442ZM233 849Q251 818 283 801T353 784Q388 784 420 800T473 849Q471 791 436 754T353 717Q304 717 269 754T233 849ZM233 950H344L393 817Z"
				   horiz-adv-x="718" unicode="Ằ"/>
			<glyph d="M241 485Q321 485 362 447T404 340V138Q404 97 423 71T480 45Q483 45 493 47Q469 30 444 13T396 -21Q372 -18 348 2T319 47Q302 19 263 2T177 -15Q116 -15 79 17T42 101Q42 160 111 206T305 281V327Q305 425 227 425Q189 425 166 408T143 366Q143 352 149 341T165 327L63 287Q51 315 51 342Q51 402 105 443T241 485ZM305 226Q138 189 138 115Q138 85 159 67T210 49Q249 49 277 74T305 137ZM122 678Q140 647 172 630T242 613Q277 613 309 629T362 678Q360 620 325 583T242 546Q193 546 158 583T122 678ZM122 779H233L282 646Z"
				   horiz-adv-x="477" unicode="ằ"/>
			<glyph d="M312 666H398L614 119Q633 69 657 37T703 0H480Q496 2 505 13T514 43Q514 59 498 100L468 179H205Q169 82 166 69T163 48Q163 28 173 15T200 0H14Q34 4 57 36T100 121ZM335 523L230 246H442ZM233 849Q250 818 282 801T353 784Q389 784 420 800Q452 816 473 849Q470 790 436 753T353 717Q304 717 269 753T233 849ZM354 1000Q395 1000 419 982T444 935Q444 896 405 873Q382 859 373 852T365 838Q365 826 381 822Q373 817 362 817Q344 817 330 827T317 854Q317 867 326 877T344 894T362 910T371 930Q371 941 364 948T343 955Q325 955 307 942T277 910V985Q312 1000 354 1000Z"
				   horiz-adv-x="718" unicode="Ẳ"/>
			<glyph d="M241 485Q321 485 362 447T404 340V138Q404 97 423 71T480 45Q483 45 493 47Q469 30 444 13T396 -21Q372 -18 348 2T319 47Q302 19 263 2T177 -15Q116 -15 79 17T42 101Q42 160 111 206T305 281V327Q305 425 227 425Q189 425 166 408T143 366Q143 352 149 341T165 327L63 287Q51 315 51 342Q51 402 105 443T241 485ZM305 226Q138 189 138 115Q138 85 159 67T210 49Q249 49 277 74T305 137ZM122 678Q139 647 171 630T242 613Q278 613 309 629Q341 645 362 678Q359 619 325 582T242 546Q193 546 158 582T122 678ZM243 829Q284 829 308 811T333 764Q333 725 294 702Q271 688 262 681T254 667Q254 655 270 651Q262 646 251 646Q233 646 219 656T206 683Q206 696 215 706T233 723T251 739T260 759Q260 770 253 777T232 784Q214 784 196 771T166 739V814Q201 829 243 829Z"
				   horiz-adv-x="477" unicode="ẳ"/>
			<glyph d="M312 666H398L614 119Q633 69 657 37T703 0H480Q496 2 505 13T514 43Q514 59 498 100L468 179H205Q169 82 166 69T163 48Q163 28 173 15T200 0H14Q34 4 57 36T100 121ZM335 523L230 246H442ZM474 990Q481 983 484 971T488 949Q488 917 466 892T411 868Q395 868 378 876T344 894T311 912T282 920Q261 920 249 902T236 858Q229 866 225 878T222 901Q222 935 242 957T294 980Q311 980 330 971T367 953T400 936T429 928Q449 928 461 944Q473 961 474 990ZM233 849Q250 818 282 801T353 784Q388 784 420 800T473 849Q470 789 435 753T353 717Q304 717 269 754T233 849Z"
				   horiz-adv-x="718" unicode="Ẵ"/>
			<glyph d="M241 485Q321 485 362 447T404 340V138Q404 97 423 71T480 45Q483 45 493 47Q469 30 444 13T396 -21Q372 -18 348 2T319 47Q302 19 263 2T177 -15Q116 -15 79 17T42 101Q42 160 111 206T305 281V327Q305 425 227 425Q189 425 166 408T143 366Q143 352 149 341T165 327L63 287Q51 315 51 342Q51 402 105 443T241 485ZM305 226Q138 189 138 115Q138 85 159 67T210 49Q249 49 277 74T305 137ZM363 819Q370 812 373 800T377 778Q377 746 355 721T300 697Q284 697 267 705T233 723T200 741T171 749Q150 749 138 731T125 687Q118 695 114 707T111 730Q111 764 131 786T183 809Q200 809 219 800T256 782T289 765T318 757Q338 757 350 773Q362 790 363 819ZM122 678Q139 647 171 630T242 613Q277 613 309 629T362 678Q359 618 324 582T242 546Q193 546 158 583T122 678Z"
				   horiz-adv-x="477" unicode="ẵ"/>
			<glyph d="M312 666H398L614 119Q633 69 657 37T703 0H480Q496 2 505 13T514 43Q514 59 498 100L468 179H205Q169 82 166 69T163 48Q163 28 173 15T200 0H14Q34 4 57 36T100 121ZM335 523L230 246H442ZM237 864Q253 829 284 810T352 791Q387 791 417 809Q448 827 467 864Q467 820 452 787T411 736T352 717Q321 717 294 734T252 786T237 864ZM344 -69Q370 -69 386 -85T402 -124Q402 -147 386 -164Q371 -180 344 -180Q317 -180 301 -163T286 -124Q286 -101 301 -85T344 -69Z"
				   horiz-adv-x="718" unicode="Ặ"/>
			<glyph d="M241 485Q321 485 362 447T404 340V138Q404 97 423 71T480 45Q483 45 493 47Q469 30 444 13T396 -21Q372 -18 348 2T319 47Q302 19 263 2T177 -15Q116 -15 79 17T42 101Q42 160 111 206T305 281V327Q305 425 227 425Q189 425 166 408T143 366Q143 352 149 341T165 327L63 287Q51 315 51 342Q51 402 105 443T241 485ZM305 226Q138 189 138 115Q138 85 159 67T210 49Q249 49 277 74T305 137ZM134 692Q149 658 179 638T248 619Q287 619 317 639Q348 659 363 692Q363 648 348 615T306 563T248 545Q216 545 190 563T149 615T134 692ZM238 -69Q264 -69 280 -85T296 -124Q296 -147 280 -164Q265 -180 238 -180Q211 -180 195 -163T180 -124Q180 -101 195 -85T238 -69Z"
				   horiz-adv-x="477" unicode="ặ"/>
			<glyph d="M37 666H454V517Q443 550 429 565T394 588T339 596H202V374H317Q349 374 369 382T396 406V270Q390 287 370 295T319 303H202V71H347Q409 71 440 89T497 160L470 0H44Q66 5 78 33T91 107V563Q91 605 77 632T37 666ZM279 -69Q305 -69 321 -85T337 -124Q337 -147 321 -164Q306 -180 279 -180Q252 -180 236 -163T221 -124Q221 -101 236 -85T279 -69Z"
				   horiz-adv-x="521" unicode="Ẹ"/>
			<glyph d="M246 485Q330 485 378 417T429 231H133L135 220Q144 149 185 106T285 63Q326 63 366 84T436 142Q418 63 369 24T247 -15Q184 -15 136 16T61 102T35 226Q35 298 62 357T137 451T246 485ZM241 423Q197 423 166 383T133 287H329Q329 346 305 384T241 423ZM234 -69Q260 -69 276 -85T292 -124Q292 -147 276 -164Q261 -180 234 -180Q207 -180 191 -163T176 -124Q176 -101 191 -85T234 -69Z"
				   horiz-adv-x="464" unicode="ẹ"/>
			<glyph d="M37 666H454V517Q443 550 429 565T394 588T339 596H202V374H317Q349 374 369 382T396 406V270Q390 287 370 295T319 303H202V71H347Q409 71 440 89T497 160L470 0H44Q66 5 78 33T91 107V563Q91 605 77 632T37 666ZM259 897Q300 897 324 878T349 830Q349 792 309 765L290 752Q270 739 270 729Q270 717 286 713Q279 708 267 708Q249 708 235 718T222 745Q222 758 230 768T249 787T267 804T276 825Q276 837 268 844T248 852Q231 852 212 839T182 807V882Q217 897 259 897Z"
				   horiz-adv-x="521" unicode="Ẻ"/>
			<glyph d="M246 485Q330 485 378 417T429 231H133L135 220Q144 149 185 106T285 63Q326 63 366 84T436 142Q418 63 369 24T247 -15Q184 -15 136 16T61 102T35 226Q35 298 62 357T137 451T246 485ZM241 423Q197 423 166 383T133 287H329Q329 346 305 384T241 423ZM240 710Q281 710 305 691T330 643Q330 605 290 578L271 565Q251 552 251 542Q251 530 267 526Q260 521 248 521Q230 521 216 531T203 558Q203 571 211 581T230 600T248 617T257 638Q257 650 249 657T229 665Q212 665 193 652T163 620V695Q198 710 240 710Z"
				   horiz-adv-x="464" unicode="ẻ"/>
			<glyph d="M37 666H454V517Q443 550 429 565T394 588T339 596H202V374H317Q349 374 369 382T396 406V270Q390 287 370 295T319 303H202V71H347Q409 71 440 89T497 160L470 0H44Q66 5 78 33T91 107V563Q91 605 77 632T37 666ZM391 852Q407 834 407 806Q407 771 383 744T325 717Q306 717 287 725T249 746T212 766T182 774Q160 774 146 754T131 705Q114 725 114 753Q114 788 137 813T196 838Q214 838 234 829T274 810T311 791T342 783Q365 783 377 801Q390 820 391 852Z"
				   horiz-adv-x="521" unicode="Ẽ"/>
			<glyph d="M246 485Q330 485 378 417T429 231H133L135 220Q144 149 185 106T285 63Q326 63 366 84T436 142Q418 63 369 24T247 -15Q184 -15 136 16T61 102T35 226Q35 298 62 357T137 451T246 485ZM241 423Q197 423 166 383T133 287H329Q329 346 305 384T241 423ZM375 682Q390 665 390 642Q390 604 366 575T306 547Q289 547 270 555T234 575T198 595T166 604Q144 604 130 584T115 535Q99 553 99 577Q99 614 121 641T180 668Q198 668 218 659T258 640T295 621T326 613Q348 613 361 631T375 682Z"
				   horiz-adv-x="464" unicode="ẽ"/>
			<glyph d="M37 666H454V517Q443 550 429 565T394 588T339 596H202V374H317Q349 374 369 382T396 406V270Q390 287 370 295T319 303H202V71H347Q409 71 440 89T497 160L470 0H44Q66 5 78 33T91 107V563Q91 605 77 632T37 666ZM391 920H502L342 787ZM260 851L407 699L260 757L117 699Z"
				   horiz-adv-x="521" unicode="Ế"/>
			<glyph d="M246 485Q330 485 378 417T429 231H133L135 220Q144 149 185 106T285 63Q326 63 366 84T436 142Q418 63 369 24T247 -15Q184 -15 136 16T61 102T35 226Q35 298 62 357T137 451T246 485ZM241 423Q197 423 166 383T133 287H329Q329 346 305 384T241 423ZM376 752H487L327 619ZM245 683L392 531L245 589L102 531Z"
				   horiz-adv-x="464" unicode="ế"/>
			<glyph d="M37 666H454V517Q443 550 429 565T394 588T339 596H202V374H317Q349 374 369 382T396 406V270Q390 287 370 295T319 303H202V71H347Q409 71 440 89T497 160L470 0H44Q66 5 78 33T91 107V563Q91 605 77 632T37 666ZM20 920H131L180 787ZM260 851L407 699L260 757L117 699Z"
				   horiz-adv-x="521" unicode="Ề"/>
			<glyph d="M246 485Q330 485 378 417T429 231H133L135 220Q144 149 185 106T285 63Q326 63 366 84T436 142Q418 63 369 24T247 -15Q184 -15 136 16T61 102T35 226Q35 298 62 357T137 451T246 485ZM241 423Q197 423 166 383T133 287H329Q329 346 305 384T241 423ZM5 752H116L165 619ZM245 683L392 531L245 589L102 531Z"
				   horiz-adv-x="464" unicode="ề"/>
			<glyph d="M37 666H454V517Q443 550 429 565T394 588T339 596H202V374H317Q349 374 369 382T396 406V270Q390 287 370 295T319 303H202V71H347Q409 71 440 89T497 160L470 0H44Q66 5 78 33T91 107V563Q91 605 77 632T37 666ZM388 940Q420 940 438 926T457 887Q457 868 447 855T426 835T405 819T396 805Q396 795 409 791Q403 785 393 785Q378 785 367 793T356 818Q356 829 363 837T379 852T395 866T402 883Q402 902 379 902Q352 902 329 867V928Q357 940 388 940ZM260 851L407 699L260 757L117 699Z"
				   horiz-adv-x="521" unicode="Ể"/>
			<glyph d="M246 485Q330 485 378 417T429 231H133L135 220Q144 149 185 106T285 63Q326 63 366 84T436 142Q418 63 369 24T247 -15Q184 -15 136 16T61 102T35 226Q35 298 62 357T137 451T246 485ZM241 423Q197 423 166 383T133 287H329Q329 346 305 384T241 423ZM373 772Q405 772 423 758T442 719Q442 700 432 687T411 667T390 651T381 637Q381 627 394 623Q388 617 378 617Q363 617 352 625T341 650Q341 661 348 669T364 684T380 698T387 715Q387 734 364 734Q337 734 314 699V760Q342 772 373 772ZM245 683L392 531L245 589L102 531Z"
				   horiz-adv-x="464" unicode="ể"/>
			<glyph d="M37 666H454V517Q443 550 429 565T394 588T339 596H202V374H317Q349 374 369 382T396 406V270Q390 287 370 295T319 303H202V71H347Q409 71 440 89T497 160L470 0H44Q66 5 78 33T91 107V563Q91 605 77 632T37 666ZM260 851L407 699L260 757L117 699ZM385 990Q392 983 395 971T399 949Q399 917 377 892T322 868Q306 868 289 876T255 894T222 912T193 920Q173 920 161 903T147 858Q140 866 136 878T133 901Q133 934 153 957T205 980Q222 980 241 972T277 954T311 936T340 928Q360 928 372 944Q384 961 385 990Z"
				   horiz-adv-x="521" unicode="Ễ"/>
			<glyph d="M246 485Q330 485 378 417T429 231H133L135 220Q144 149 185 106T285 63Q326 63 366 84T436 142Q418 63 369 24T247 -15Q184 -15 136 16T61 102T35 226Q35 298 62 357T137 451T246 485ZM241 423Q197 423 166 383T133 287H329Q329 346 305 384T241 423ZM245 683L392 531L245 589L102 531ZM370 822Q377 815 380 803T384 781Q384 749 362 724T307 700Q291 700 274 708T240 726T207 744T178 752Q158 752 146 735T132 690Q125 698 121 710T118 733Q118 766 138 789T190 812Q207 812 226 804T262 786T296 768T325 760Q345 760 357 776Q369 793 370 822Z"
				   horiz-adv-x="464" unicode="ễ"/>
			<glyph d="M37 666H454V517Q443 550 429 565T394 588T339 596H202V374H317Q349 374 369 382T396 406V270Q390 287 370 295T319 303H202V71H347Q409 71 440 89T497 160L470 0H44Q66 5 78 33T91 107V563Q91 605 77 632T37 666ZM260 868L407 699Q379 713 335 731Q284 751 260 763Q234 750 187 731Q144 713 117 699Q153 744 188 783T260 868ZM279 -69Q305 -69 321 -85T337 -124Q337 -147 321 -164Q306 -180 279 -180Q252 -180 236 -163T221 -124Q221 -101 236 -85T279 -69Z"
				   horiz-adv-x="521" unicode="Ệ"/>
			<glyph d="M246 485Q330 485 378 417T429 231H133L135 220Q144 149 185 106T285 63Q326 63 366 84T436 142Q418 63 369 24T247 -15Q184 -15 136 16T61 102T35 226Q35 298 62 357T137 451T246 485ZM241 423Q197 423 166 383T133 287H329Q329 346 305 384T241 423ZM245 691L382 512L245 588Q212 569 178 549T112 512Q146 557 179 601T245 691ZM234 -69Q260 -69 276 -85T292 -124Q292 -147 276 -164Q261 -180 234 -180Q207 -180 191 -163T176 -124Q176 -101 191 -85T234 -69Z"
				   horiz-adv-x="464" unicode="ệ"/>
			<glyph d="M41 666H247Q225 660 212 633T200 567V96Q200 65 206 45T223 13T246 0H42Q54 2 65 13T83 44T90 96V567Q90 606 78 632T41 666ZM146 897Q187 897 211 878T236 830Q236 792 196 765L177 752Q157 739 157 729Q157 717 173 713Q166 708 154 708Q136 708 122 718T109 745Q109 758 117 768T136 787T154 804T163 825Q163 837 155 844T135 852Q118 852 99 839T69 807V882Q104 897 146 897Z"
				   horiz-adv-x="290" unicode="Ỉ"/>
			<glyph d="M177 488V97Q177 65 183 44T200 13T222 0H29Q41 2 52 13T69 45T75 97V337Q75 381 62 402T22 423H10ZM123 710Q164 710 188 691T213 643Q213 605 173 578L154 565Q134 552 134 542Q134 530 150 526Q143 521 131 521Q113 521 99 531T86 558Q86 571 94 581T113 600T131 617T140 638Q140 650 132 657T112 665Q95 665 76 652T46 620V695Q81 710 123 710Z"
				   horiz-adv-x="240" unicode="ỉ"/>
			<glyph d="M41 666H247Q225 660 212 633T200 567V96Q200 65 206 45T223 13T246 0H42Q54 2 65 13T83 44T90 96V567Q90 606 78 632T41 666ZM146 -69Q172 -69 188 -85T204 -124Q204 -147 188 -164Q173 -180 146 -180Q119 -180 103 -163T88 -124Q88 -101 103 -85T146 -69Z"
				   horiz-adv-x="290" unicode="Ị"/>
			<glyph d="M170 489V96Q170 64 176 43T193 12T214 0H26Q48 4 59 29T71 96V339Q71 381 59 402T19 423H7ZM113 681Q143 681 161 663T179 617Q179 588 160 570T113 552Q84 552 65 570T46 617Q46 645 64 663T113 681ZM121 -69Q147 -69 163 -85T179 -124Q179 -147 163 -164Q148 -180 121 -180Q94 -180 78 -163T63 -124Q63 -101 78 -85T121 -69Z"
				   horiz-adv-x="240" unicode="ị"/>
			<glyph d="M379 682Q470 682 542 639T655 517T695 342Q695 243 651 160Q608 78 531 31T359 -15Q268 -15 195 28T82 149T41 325Q41 424 84 506T206 635T379 682ZM357 604Q299 604 252 573T179 484T153 355Q153 270 181 203T261 100T380 64Q437 64 484 96Q532 128 558 185T584 317Q584 399 555 465T475 567T357 604ZM368 -69Q394 -69 410 -85T426 -124Q426 -147 410 -164Q395 -180 368 -180Q341 -180 325 -163T310 -124Q310 -101 325 -85T368 -69Z"
				   horiz-adv-x="736" unicode="Ọ"/>
			<glyph d="M276 485Q345 485 397 454T477 367T506 244Q506 174 475 113Q445 53 391 19T266 -15Q197 -15 145 16T66 102T38 226Q38 296 68 356T152 451T276 485ZM261 416Q207 416 174 369T141 249Q141 196 158 151T207 80T281 54Q336 54 368 102T401 223Q401 276 383 320T334 390T261 416ZM272 -69Q298 -69 314 -85T330 -124Q330 -147 314 -164Q299 -180 272 -180Q245 -180 229 -163T214 -124Q214 -101 229 -85T272 -69Z"
				   horiz-adv-x="544" unicode="ọ"/>
			<glyph d="M379 682Q470 682 542 639T655 517T695 342Q695 243 651 160Q608 78 531 31T359 -15Q268 -15 195 28T82 149T41 325Q41 424 84 506T206 635T379 682ZM357 604Q299 604 252 573T179 484T153 355Q153 270 181 203T261 100T380 64Q437 64 484 96Q532 128 558 185T584 317Q584 399 555 465T475 567T357 604ZM369 907Q410 907 434 888T459 840Q459 802 419 775L400 762Q380 749 380 739Q380 727 396 723Q389 718 377 718Q359 718 345 728T332 755Q332 768 340 778T359 797T377 814T386 835Q386 847 378 854T358 862Q341 862 322 849T292 817V892Q327 907 369 907Z"
				   horiz-adv-x="736" unicode="Ỏ"/>
			<glyph d="M276 485Q345 485 397 454T477 367T506 244Q506 174 475 113Q445 53 391 19T266 -15Q197 -15 145 16T66 102T38 226Q38 296 68 356T152 451T276 485ZM261 416Q207 416 174 369T141 249Q141 196 158 151T207 80T281 54Q336 54 368 102T401 223Q401 276 383 320T334 390T261 416ZM273 710Q314 710 338 691T363 643Q363 605 323 578L304 565Q284 552 284 542Q284 530 300 526Q293 521 281 521Q263 521 249 531T236 558Q236 571 244 581T263 600T281 617T290 638Q290 650 282 657T262 665Q245 665 226 652T196 620V695Q231 710 273 710Z"
				   horiz-adv-x="544" unicode="ỏ"/>
			<glyph d="M379 682Q470 682 542 639T655 517T695 342Q695 243 651 160Q608 78 531 31T359 -15Q268 -15 195 28T82 149T41 325Q41 424 84 506T206 635T379 682ZM357 604Q299 604 252 573T179 484T153 355Q153 270 181 203T261 100T380 64Q437 64 484 96Q532 128 558 185T584 317Q584 399 555 465T475 567T357 604ZM499 926H610L450 793ZM368 857L515 705L368 763L225 705Z"
				   horiz-adv-x="736" unicode="Ố"/>
			<glyph d="M276 485Q345 485 397 454T477 367T506 244Q506 174 475 113Q445 53 391 19T266 -15Q197 -15 145 16T66 102T38 226Q38 296 68 356T152 451T276 485ZM261 416Q207 416 174 369T141 249Q141 196 158 151T207 80T281 54Q336 54 368 102T401 223Q401 276 383 320T334 390T261 416ZM403 752H514L354 619ZM272 683L419 531L272 589L129 531Z"
				   horiz-adv-x="544" unicode="ố"/>
			<glyph d="M379 682Q470 682 542 639T655 517T695 342Q695 243 651 160Q608 78 531 31T359 -15Q268 -15 195 28T82 149T41 325Q41 424 84 506T206 635T379 682ZM357 604Q299 604 252 573T179 484T153 355Q153 270 181 203T261 100T380 64Q437 64 484 96Q532 128 558 185T584 317Q584 399 555 465T475 567T357 604ZM128 926H239L288 793ZM368 857L515 705L368 763L225 705Z"
				   horiz-adv-x="736" unicode="Ồ"/>
			<glyph d="M276 485Q345 485 397 454T477 367T506 244Q506 174 475 113Q445 53 391 19T266 -15Q197 -15 145 16T66 102T38 226Q38 296 68 356T152 451T276 485ZM261 416Q207 416 174 369T141 249Q141 196 158 151T207 80T281 54Q336 54 368 102T401 223Q401 276 383 320T334 390T261 416ZM32 752H143L192 619ZM272 683L419 531L272 589L129 531Z"
				   horiz-adv-x="544" unicode="ồ"/>
			<glyph d="M379 682Q470 682 542 639T655 517T695 342Q695 243 651 160Q608 78 531 31T359 -15Q268 -15 195 28T82 149T41 325Q41 424 84 506T206 635T379 682ZM357 604Q299 604 252 573T179 484T153 355Q153 270 181 203T261 100T380 64Q437 64 484 96Q532 128 558 185T584 317Q584 399 555 465T475 567T357 604ZM496 946Q528 946 546 932T565 893Q565 874 555 861T534 841T513 825T504 811Q504 801 517 797Q511 791 501 791Q486 791 475 799T464 824Q464 835 471 843T487 858T503 872T510 889Q510 908 487 908Q460 908 437 873V934Q465 946 496 946ZM368 857L515 705L368 763L225 705Z"
				   horiz-adv-x="736" unicode="Ổ"/>
			<glyph d="M276 485Q345 485 397 454T477 367T506 244Q506 174 475 113Q445 53 391 19T266 -15Q197 -15 145 16T66 102T38 226Q38 296 68 356T152 451T276 485ZM261 416Q207 416 174 369T141 249Q141 196 158 151T207 80T281 54Q336 54 368 102T401 223Q401 276 383 320T334 390T261 416ZM400 772Q432 772 450 758T469 719Q469 700 459 687T438 667T417 651T408 637Q408 627 421 623Q415 617 405 617Q390 617 379 625T368 650Q368 661 375 669T391 684T407 698T414 715Q414 734 391 734Q364 734 341 699V760Q369 772 400 772ZM272 683L419 531L272 589L129 531Z"
				   horiz-adv-x="544" unicode="ổ"/>
			<glyph d="M379 682Q470 682 542 639T655 517T695 342Q695 243 651 160Q608 78 531 31T359 -15Q268 -15 195 28T82 149T41 325Q41 424 84 506T206 635T379 682ZM357 604Q299 604 252 573T179 484T153 355Q153 270 181 203T261 100T380 64Q437 64 484 96Q532 128 558 185T584 317Q584 399 555 465T475 567T357 604ZM368 857L515 705L368 763L225 705ZM493 996Q500 989 503 977T507 955Q507 923 485 898T430 874Q414 874 397 882T363 900T330 918T301 926Q281 926 269 909T255 864Q248 872 244 884T241 907Q241 940 261 963T313 986Q330 986 349 978T385 960T419 942T448 934Q468 934 480 950Q492 967 493 996Z"
				   horiz-adv-x="736" unicode="Ỗ"/>
			<glyph d="M276 485Q345 485 397 454T477 367T506 244Q506 174 475 113Q445 53 391 19T266 -15Q197 -15 145 16T66 102T38 226Q38 296 68 356T152 451T276 485ZM261 416Q207 416 174 369T141 249Q141 196 158 151T207 80T281 54Q336 54 368 102T401 223Q401 276 383 320T334 390T261 416ZM272 683L419 531L272 589L129 531ZM397 822Q404 815 407 803T411 781Q411 749 389 724T334 700Q318 700 301 708T267 726T234 744T205 752Q185 752 173 735T159 690Q152 698 148 710T145 733Q145 766 165 789T217 812Q234 812 253 804T289 786T323 768T352 760Q372 760 384 776Q396 793 397 822Z"
				   horiz-adv-x="544" unicode="ỗ"/>
			<glyph d="M379 682Q470 682 542 639T655 517T695 342Q695 243 651 160Q608 78 531 31T359 -15Q268 -15 195 28T82 149T41 325Q41 424 84 506T206 635T379 682ZM357 604Q299 604 252 573T179 484T153 355Q153 270 181 203T261 100T380 64Q437 64 484 96Q532 128 558 185T584 317Q584 399 555 465T475 567T357 604ZM368 -69Q394 -69 410 -85T426 -124Q426 -147 410 -164Q395 -180 368 -180Q341 -180 325 -163T310 -124Q310 -101 325 -85T368 -69ZM377 868L524 699Q496 713 452 731Q401 751 377 763Q351 750 304 731Q261 713 234 699Q270 744 305 783T377 868Z"
				   horiz-adv-x="736" unicode="Ộ"/>
			<glyph d="M276 485Q345 485 397 454T477 367T506 244Q506 174 475 113Q445 53 391 19T266 -15Q197 -15 145 16T66 102T38 226Q38 296 68 356T152 451T276 485ZM261 416Q207 416 174 369T141 249Q141 196 158 151T207 80T281 54Q336 54 368 102T401 223Q401 276 383 320T334 390T261 416ZM272 -69Q298 -69 314 -85T330 -124Q330 -147 314 -164Q299 -180 272 -180Q245 -180 229 -163T214 -124Q214 -101 229 -85T272 -69ZM270 691L407 512L270 588Q237 569 203 549T137 512Q171 557 204 601T270 691Z"
				   horiz-adv-x="544" unicode="ộ"/>
			<glyph d="M727 709Q754 709 772 688T791 638Q791 588 758 545Q726 502 671 480Q695 415 695 342Q695 243 651 160T531 31T359 -15Q268 -15 195 28T82 149T41 325Q41 424 84 506T206 635T379 682Q469 682 540 640T651 523Q699 543 714 585Q690 590 675 606T660 647Q660 675 678 692T727 709ZM357 604Q299 604 252 573T179 484T153 355Q153 270 181 203T261 100T380 64Q437 64 484 96Q532 128 558 185T584 317Q584 399 555 465T475 567T357 604ZM354 853H490L297 700Z"
				   horiz-adv-x="766" unicode="Ớ"/>
			<glyph d="M535 561Q562 561 580 540T599 490Q599 446 571 404Q544 363 490 336Q506 289 506 244Q506 174 475 113T390 19T266 -15Q197 -15 145 16T66 102T38 226Q38 296 68 356T152 451T276 485Q341 485 390 458T470 380Q510 402 522 437Q500 444 484 459T468 499Q468 526 486 543T535 561ZM261 416Q207 416 174 369T141 249Q141 196 158 151T207 80T281 54Q335 54 368 102T401 223Q401 276 383 320T334 390T261 416ZM277 666H413L220 511Z"
				   horiz-adv-x="574" unicode="ớ"/>
			<glyph d="M727 709Q754 709 772 688T791 638Q791 588 758 545Q726 502 671 480Q695 415 695 342Q695 243 651 160T531 31T359 -15Q268 -15 195 28T82 149T41 325Q41 424 84 506T206 635T379 682Q469 682 540 640T651 523Q699 543 714 585Q690 590 675 606T660 647Q660 675 678 692T727 709ZM357 604Q299 604 252 573T179 484T153 355Q153 270 181 203T261 100T380 64Q437 64 484 96Q532 128 558 185T584 317Q584 399 555 465T475 567T357 604ZM236 853H372L431 700Z"
				   horiz-adv-x="766" unicode="Ờ"/>
			<glyph d="M535 561Q562 561 580 540T599 490Q599 446 571 404Q544 363 490 336Q506 289 506 244Q506 174 475 113T390 19T266 -15Q197 -15 145 16T66 102T38 226Q38 296 68 356T152 451T276 485Q341 485 390 458T470 380Q510 402 522 437Q500 444 484 459T468 499Q468 526 486 543T535 561ZM261 416Q207 416 174 369T141 249Q141 196 158 151T207 80T281 54Q335 54 368 102T401 223Q401 276 383 320T334 390T261 416ZM147 666H287L343 511Z"
				   horiz-adv-x="574" unicode="ờ"/>
			<glyph d="M727 709Q754 709 772 688T791 638Q791 588 758 545Q726 502 671 480Q695 415 695 342Q695 243 651 160T531 31T359 -15Q268 -15 195 28T82 149T41 325Q41 424 84 506T206 635T379 682Q469 682 540 640T651 523Q699 543 714 585Q690 590 675 606T660 647Q660 675 678 692T727 709ZM357 604Q299 604 252 573T179 484T153 355Q153 270 181 203T261 100T380 64Q437 64 484 96Q532 128 558 185T584 317Q584 399 555 465T475 567T357 604ZM369 907Q410 907 434 888T459 840Q459 802 419 775L400 762Q380 749 380 739Q380 727 396 723Q389 718 377 718Q359 718 345 728T332 755Q332 768 340 778T359 797T377 814T386 835Q386 847 378 854T358 862Q341 862 322 849T292 817V892Q327 907 369 907Z"
				   horiz-adv-x="766" unicode="Ở"/>
			<glyph d="M535 561Q562 561 580 540T599 490Q599 446 571 404Q544 363 490 336Q506 289 506 244Q506 174 475 113T390 19T266 -15Q197 -15 145 16T66 102T38 226Q38 296 68 356T152 451T276 485Q341 485 390 458T470 380Q510 402 522 437Q500 444 484 459T468 499Q468 526 486 543T535 561ZM261 416Q207 416 174 369T141 249Q141 196 158 151T207 80T281 54Q335 54 368 102T401 223Q401 276 383 320T334 390T261 416ZM273 710Q314 710 338 691T363 643Q363 605 323 578L304 565Q284 552 284 542Q284 530 300 526Q293 521 281 521Q263 521 249 531T236 558Q236 571 244 581T263 600T281 617T290 638Q290 650 282 657T262 665Q245 665 226 652T196 620V695Q231 710 273 710Z"
				   horiz-adv-x="574" unicode="ở"/>
			<glyph d="M727 709Q754 709 772 688T791 638Q791 588 758 545Q726 502 671 480Q695 415 695 342Q695 243 651 160T531 31T359 -15Q268 -15 195 28T82 149T41 325Q41 424 84 506T206 635T379 682Q469 682 540 640T651 523Q699 543 714 585Q690 590 675 606T660 647Q660 675 678 692T727 709ZM357 604Q299 604 252 573T179 484T153 355Q153 270 181 203T261 100T380 64Q437 64 484 96Q532 128 558 185T584 317Q584 399 555 465T475 567T357 604ZM509 852Q525 834 525 806Q525 771 501 744T443 717Q424 717 405 725T367 746T330 766T300 774Q278 774 264 754T249 705Q232 725 232 753Q232 788 255 813T314 838Q332 838 352 829T392 810T429 791T460 783Q483 783 495 801Q508 820 509 852Z"
				   horiz-adv-x="766" unicode="Ỡ"/>
			<glyph d="M535 561Q562 561 580 540T599 490Q599 446 571 404Q544 363 490 336Q506 289 506 244Q506 174 475 113T390 19T266 -15Q197 -15 145 16T66 102T38 226Q38 296 68 356T152 451T276 485Q341 485 390 458T470 380Q510 402 522 437Q500 444 484 459T468 499Q468 526 486 543T535 561ZM261 416Q207 416 174 369T141 249Q141 196 158 151T207 80T281 54Q335 54 368 102T401 223Q401 276 383 320T334 390T261 416ZM407 682Q422 665 422 642Q422 604 398 575T338 547Q321 547 302 555T266 575T230 595T198 604Q176 604 162 584T147 535Q131 553 131 577Q131 614 153 641T212 668Q230 668 250 659T290 640T327 621T358 613Q380 613 393 631T407 682Z"
				   horiz-adv-x="574" unicode="ỡ"/>
			</font>
</defs>
</svg>
