<?xml version="1.0" encoding="UTF-8"?>
<svg height="100%" width="100%" xmlns="http://www.w3.org/2000/svg">
	<defs>
		<font horiz-adv-x="511" id="web">
			<font-face alphabetic="0" ascent="1006" descent="-258" font-family="" panose-1="2 2 6 3 5 0 0 9 0 4"/>
			<missing-glyph
					d="M0 718H512V0H0ZM50 667V50H462V667ZM259 609Q312 609 347 573T383 478Q383 442 370 417T319 357Q286 327 278 311Q271 294 271 234H225L223 253Q223 294 228 313T253 358T286 395Q332 436 332 474Q332 507 309 533T256 559Q187 559 174 464L124 472Q131 540 165 574T259 609ZM222 184H278V117H222Z"
					horiz-adv-x="512"/>
			<glyph d="" horiz-adv-x="213" unicode=" "/>
			<glyph d="M150 666H336Q318 660 300 625T270 539L211 304Q204 273 192 248T168 206T148 177T138 165Q119 203 119 250Q119 276 124 304L163 539Q169 572 169 607Q169 657 150 666ZM118 111Q145 111 160 94T175 53Q175 25 156 7T110 -11Q83 -11 68 5T53 46Q53 73 71 92T118 111Z"
				   horiz-adv-x="295" unicode="!"/>
			<glyph d="M378 666H473L444 526Q435 482 413 437T362 359H359Q352 375 346 400T341 452Q341 490 349 526ZM184 666H279L250 526Q241 482 219 437T168 359H165Q157 377 152 401T147 452Q147 489 155 526Z"
				   horiz-adv-x="493" unicode="&quot;"/>
			<glyph d="M234 666H290L242 471H412L459 666H518L470 471H561V423H458L417 253H522V206H404L352 0H298L347 206H178L125 0H71L121 206H29V253H133L175 423H74V471H186ZM231 423L190 253H360L401 423Z"
				   horiz-adv-x="573" unicode="#"/>
			<glyph d="M310 741H398L380 654Q453 643 491 618L460 477Q454 526 416 555T326 584Q276 584 243 558T211 493Q211 466 229 441T285 392L328 363Q375 332 397 308T432 257T444 200Q444 119 390 68T248 10L229 -80H141L160 11Q78 19 28 57L65 221Q68 180 89 148T144 100T220 83Q271 83 305 108T339 176Q339 204 321 228T267 278Q211 315 187 333T146 372T120 415T111 469Q111 542 159 592T291 654Z"
				   horiz-adv-x="524" unicode="$"/>
			<glyph d="M266 682Q322 682 355 644T388 544Q388 492 365 444T302 368T213 340Q157 340 123 377T90 478Q90 529 113 576T176 653T266 682ZM639 666H711L148 0H74ZM569 328Q625 328 658 290T692 190Q692 138 669 90T606 14T516 -14Q460 -14 427 23T394 124Q394 175 416 223T479 299T569 328ZM254 624Q229 624 209 603T177 548T165 480Q165 442 180 420T223 398Q249 398 269 419T301 475T313 543Q313 580 297 602T254 624ZM558 270Q533 270 513 249T481 194T469 126Q469 88 484 66T527 45Q552 45 572 66T605 122T617 189Q617 226 601 248T558 270Z"
				   horiz-adv-x="726" unicode="%"/>
			<glyph d="M359 683Q426 683 471 645T516 545Q516 506 496 472T440 409T331 341Q395 247 465 173Q494 202 526 246T574 323T590 380Q590 408 568 418H750Q714 404 668 321Q604 209 519 127Q594 67 637 67Q655 67 673 77T712 105Q657 -10 580 -10Q521 -10 436 63Q328 -12 214 -12Q131 -12 83 27T35 135Q35 198 73 248T204 349Q186 384 172 420T158 493Q158 546 183 589T256 657T359 683ZM348 616Q308 616 279 586T250 512Q250 492 259 466T296 393Q350 423 374 443Q399 464 412 486T426 534Q426 570 403 593T348 616ZM238 294Q182 261 159 230T136 162Q136 116 166 90T245 64Q311 64 380 112Q299 196 238 294Z"
				   horiz-adv-x="735" unicode="&amp;"/>
			<glyph d="M158 666H253L224 526Q215 482 192 436T141 359H138Q122 398 121 452Q121 489 129 526Z"
				   horiz-adv-x="244" unicode="'"/>
			<glyph d="M428 703Q345 654 277 554T171 327T133 80Q133 -16 160 -90T237 -204Q175 -184 129 -133T58 -10T34 140Q34 262 88 381T232 585Q323 670 428 703Z"
				   horiz-adv-x="344" unicode="("/>
			<glyph d="M114 703Q176 682 222 631T293 510T318 360Q318 239 264 119T121 -85Q31 -171 -77 -204Q7 -155 74 -57T179 171T218 419Q218 515 191 589T114 703Z"
				   horiz-adv-x="344" unicode=")"/>
			<glyph d="M236 705L344 672Q291 615 259 533Q352 543 413 576V460Q370 480 334 488T258 500Q293 411 344 363L238 325Q245 358 244 392T228 489Q162 431 129 361L62 452Q129 462 209 515Q137 560 61 572L126 667Q158 603 228 542Q242 606 242 637Q242 669 236 705Z"
				   horiz-adv-x="397" unicode="*"/>
			<glyph d="M370 564H442L390 319H627L611 247H375L322 0H250L302 247H65L80 319H318Z" horiz-adv-x="671"
				   unicode="+"/>
			<glyph d="M83 127Q118 127 140 101T162 33Q162 -13 135 -60T63 -139T-40 -176Q-53 -178 -67 -178Q-11 -157 30 -109T74 -11Q74 -2 73 4Q65 1 56 1Q35 1 21 17T7 56Q7 86 29 106T83 127Z"
				   horiz-adv-x="244" unicode=","/>
			<glyph d="M59 293H308L292 215H42Z" horiz-adv-x="346" unicode="-"/>
			<glyph d="M91 127Q121 127 138 108T156 61Q156 30 134 8T81 -13Q52 -13 34 5T16 53Q16 85 37 106T91 127Z"
				   horiz-adv-x="244" unicode="."/>
			<glyph d="M418 678H504L61 -14H-27Z" horiz-adv-x="439" unicode="/"/>
			<glyph d="M353 681Q435 681 481 616T527 446Q527 371 499 279T426 119Q381 51 327 17T213 -16Q161 -16 122 12T61 95T40 220Q40 299 65 386T134 540T233 644T353 681ZM332 607Q286 607 244 552T172 396T142 209Q142 142 166 100T233 59Q270 59 302 92T361 184T405 322T423 456Q423 525 398 566T332 607Z"
				   horiz-adv-x="524" unicode="0"/>
			<glyph d="M347 666H420L305 125Q297 89 297 67Q297 42 305 24T330 0H180L293 537Q213 468 193 448L150 499Q191 531 249 580T347 666Z"
				   horiz-adv-x="524" unicode="1"/>
			<glyph d="M327 682Q412 682 465 637T519 520Q519 471 493 419T411 307T235 140L168 81H348Q385 81 410 89T451 111T473 136L439 0H-23L165 172Q302 296 358 373T415 507Q415 554 384 582T303 610Q254 610 221 584T188 520Q188 502 198 487T232 465L148 391Q122 406 108 433T95 492Q95 544 124 587T208 656T327 682Z"
				   horiz-adv-x="524" unicode="2"/>
			<glyph d="M170 666H580L317 388Q387 368 426 322T465 213Q465 146 430 94T334 13T199 -15Q125 -15 74 15T9 101L103 168Q108 111 136 81T212 51Q274 51 319 93T364 195Q364 254 316 288T172 329L406 586H251Q213 586 180 573T126 533Z"
				   horiz-adv-x="524" unicode="3"/>
			<glyph d="M389 666H505L413 229H478L461 150H397Q384 87 382 75T381 53Q381 33 386 18T400 0H267L300 150H-7L3 198ZM388 563L112 229H317Z"
				   horiz-adv-x="524" unicode="4"/>
			<glyph d="M553 685L515 586H271L219 417Q339 414 403 359T467 222Q467 153 432 98T336 14T198 -15Q124 -15 73 16T9 101L103 168Q107 114 135 82T209 51Q275 51 320 94T366 206Q366 244 345 273T283 321T164 340H117L213 666H444Q519 666 553 685Z"
				   horiz-adv-x="524" unicode="5"/>
			<glyph d="M407 683L561 662Q441 634 336 556T167 370L172 367Q200 399 239 417T322 435Q396 435 442 386T488 258Q488 187 453 123T357 22T222 -15Q136 -15 85 38T35 186Q35 284 86 388T223 570T407 683ZM277 361Q238 361 205 338T153 274T134 183Q134 125 164 91T245 57Q281 57 315 81T368 146T387 236Q387 293 356 327T277 361Z"
				   horiz-adv-x="524" unicode="6"/>
			<glyph d="M147 666H600L351 314Q218 125 186 0H42Q128 132 243 297T450 586H238Q195 586 160 571T100 524Z"
				   horiz-adv-x="524" unicode="7"/>
			<glyph d="M350 681Q430 681 477 640T525 534Q525 470 483 420Q442 371 378 355Q428 335 455 296T483 207Q483 148 447 95T352 13T218 -16Q130 -16 74 27T19 144Q19 217 68 272T199 345Q159 363 136 398T113 476Q113 532 145 579T232 654T350 681ZM333 613Q281 613 246 576T212 486Q212 442 238 414T307 387Q359 387 394 425T430 517Q430 560 403 586T333 613ZM262 305Q203 305 162 264T122 162Q122 114 153 83T236 53Q296 53 335 92T375 194Q375 244 343 274T262 305Z"
				   horiz-adv-x="524" unicode="8"/>
			<glyph d="M340 682Q426 682 476 629T527 482Q527 384 475 280T339 99T156 -12L2 9Q121 36 224 111T394 297L390 301Q359 266 319 249T239 232Q167 232 120 280T73 409Q73 480 108 544T205 645T340 682ZM318 610Q281 610 247 586T194 520T174 430Q174 373 204 339T284 305Q323 305 356 328Q390 352 409 393T428 484Q428 542 398 576T318 610Z"
				   horiz-adv-x="524" unicode="9"/>
			<glyph d="M160 448Q189 448 207 429T225 382Q225 350 203 329T150 308Q119 308 102 327T85 374Q85 407 106 427T160 448ZM90 127Q121 127 138 108T155 61Q155 30 133 8T80 -13Q51 -13 33 5T15 53Q15 86 36 106T90 127Z"
				   horiz-adv-x="244" unicode=":"/>
			<glyph d="M166 448Q195 448 213 429T231 382Q231 350 209 329T156 308Q127 308 109 326T91 374Q91 407 112 427T166 448ZM83 127Q118 127 140 101T162 33Q162 -17 132 -67T51 -147T-67 -178Q-11 -157 30 -109T74 -11Q74 0 72 4Q64 1 57 1Q37 1 22 16T7 55Q7 86 29 106T83 127Z"
				   horiz-adv-x="244" unicode=";"/>
			<glyph d="M648 577L630 494L194 282L193 277L541 71L524 -9L98 254L111 312Z" horiz-adv-x="671" unicode="&lt;"/>
			<glyph d="M102 425H649L633 354H87ZM58 216H604L589 145H42Z" horiz-adv-x="671" unicode="="/>
			<glyph d="M167 577L592 312L579 254L43 -9L60 74L497 284L498 290L149 496Z" horiz-adv-x="671" unicode="&gt;"/>
			<glyph d="M329 682Q412 682 460 649T508 561Q508 515 482 473T389 382L328 338Q275 301 252 274T229 225Q229 203 250 188Q234 175 210 175Q182 175 161 194T141 242Q141 275 165 310T252 392Q323 446 344 466T378 506T390 544Q390 574 364 591T300 609Q249 609 201 585T119 519L145 644Q179 661 230 671T329 682ZM164 111Q191 111 206 94T221 53Q221 25 202 7T156 -11Q129 -11 113 5T98 46Q98 72 116 91T164 111Z"
				   horiz-adv-x="488" unicode="?"/>
			<glyph d="M546 636Q645 636 720 597T836 487T877 327Q877 240 842 161T748 35T618 -11Q568 -11 545 10T522 85Q495 41 450 14T360 -12Q305 -12 274 26T244 132Q244 214 284 297T387 427T519 475Q541 475 571 468T612 461Q638 461 679 485L605 139Q596 104 596 80Q596 36 638 36Q687 36 730 76T799 183T825 324Q825 403 790 465T691 562T541 597Q429 597 329 539T175 385T120 173Q120 76 165 2T292 -111T478 -151Q575 -151 663 -116T812 -19L852 -42Q790 -110 687 -151T475 -192Q353 -192 260 -148T118 -24T69 166Q69 293 130 400T304 572T546 636ZM510 418Q469 418 430 379T365 274T339 145Q339 103 354 79T397 56Q419 56 444 74Q469 93 490 124T526 202T550 295T559 360Q559 418 510 418Z"
				   horiz-adv-x="933" unicode="@"/>
			<glyph d="M423 673H506L569 103Q574 59 586 31T615 0H426Q442 4 450 21T459 68Q459 80 448 175H197L155 106Q124 54 124 29Q124 5 144 0H-31Q-17 3 9 33T63 107ZM412 521L240 243H440Z"
				   horiz-adv-x="685" unicode="A"/>
			<glyph d="M131 666H385Q466 666 518 625T571 519Q571 455 528 404T419 343Q477 330 508 289T539 192Q539 137 508 93T420 24T285 0H-1Q18 4 33 25T57 81L162 585Q165 599 165 612Q165 632 156 646T131 666ZM218 313L166 65H277Q343 65 382 100T421 194Q421 249 388 281T303 313ZM278 602L232 378H327Q381 378 418 415T455 508Q455 553 430 577T362 602Z"
				   horiz-adv-x="589" unicode="B"/>
			<glyph d="M448 680Q493 680 531 669T591 642L559 494Q535 609 436 609Q371 609 310 557T212 419T175 245Q175 159 215 110T324 61Q373 61 418 83T500 151L479 54Q447 21 394 2T282 -16Q216 -16 163 15T82 106T53 241Q53 354 110 459T256 622T448 680Z"
				   horiz-adv-x="552" unicode="C"/>
			<glyph d="M135 666H380Q501 666 572 589T644 382Q644 278 594 188T462 49T274 0H1Q19 3 35 28T58 90L162 584Q166 606 166 615Q166 656 135 666ZM277 599L166 68H274Q341 68 397 110T489 231T524 395Q524 491 481 545T363 599Z"
				   horiz-adv-x="654" unicode="D"/>
			<glyph d="M147 666H577L547 523Q545 562 524 579T450 596H290L244 376H378Q411 376 434 384T464 408L436 272Q431 292 415 300T364 308H230L181 70H343Q403 70 432 86T489 151L457 0H1Q25 5 43 26T69 83L170 552Q181 606 181 614Q181 634 171 648T147 666Z"
				   horiz-adv-x="546" unicode="E"/>
			<glyph d="M146 666H575L546 522Q543 562 522 579T449 596H290L245 376H389Q420 376 442 384T473 407L445 271Q443 308 375 308H230L183 81Q179 60 179 52Q179 31 188 17T211 0H0Q23 4 42 26T68 83L177 587Q180 601 180 615Q180 652 146 666Z"
				   horiz-adv-x="542" unicode="F"/>
			<glyph d="M475 681Q516 681 559 670T628 641L596 494Q577 609 455 609Q383 609 316 556T212 419T174 240Q174 153 213 102T324 52Q339 52 362 57T403 71L434 226Q437 238 437 250Q437 291 403 302H604Q583 296 568 278T548 232L506 34Q468 11 410 -3T299 -17Q185 -17 119 51T53 240Q53 353 112 458T268 622T475 681Z"
				   horiz-adv-x="617" unicode="G"/>
			<glyph d="M139 666H343Q320 660 303 640T281 591L235 376H524L569 587Q573 608 573 617Q573 636 565 649T542 666H746Q722 659 706 639T684 591L574 76Q570 59 570 49Q570 29 579 16T602 0H400Q421 4 436 22T459 72L509 308H221L172 76Q169 61 169 50Q169 35 173 25T185 8T201 0H-1Q18 3 34 22T58 72L168 587Q171 604 171 616Q171 635 162 648T139 666Z"
				   horiz-adv-x="696" unicode="H"/>
			<glyph d="M142 666H344Q320 660 304 640T282 591L173 76Q169 55 169 48Q169 25 178 13T198 0H-1Q20 4 35 22T58 72L168 587Q172 608 172 616Q172 637 163 650T142 666Z"
				   horiz-adv-x="295" unicode="I"/>
			<glyph d="M141 666H353Q331 660 313 637T289 578L195 132Q174 29 130 -20T14 -69Q-18 -69 -46 -58T-90 -26Q-75 -32 -55 -32Q-6 -32 30 16T85 152L176 577Q180 595 180 612Q180 629 175 639T164 656T141 666Z"
				   horiz-adv-x="302" unicode="J"/>
			<glyph d="M135 666H340Q294 652 281 591L233 367L464 579Q513 625 513 650Q513 662 498 666H693Q648 653 579 591L337 374L488 100Q535 16 582 0H420L229 348L172 76Q169 61 169 50Q169 35 174 24T186 8T201 0H-1Q20 4 35 23T58 72L168 587Q171 602 171 615Q171 655 135 666Z"
				   horiz-adv-x="634" unicode="K"/>
			<glyph d="M132 666H337Q314 659 299 639T278 591L166 71H313Q377 71 411 93T466 167L430 0H-2Q16 3 31 21T54 72L164 587Q166 597 166 615Q166 635 157 648T132 666Z"
				   horiz-adv-x="509" unicode="L"/>
			<glyph d="M138 666H314L420 199L714 666H891Q866 659 848 633T823 569L723 100Q718 73 718 59Q718 36 727 20T751 0H547Q567 4 585 30T613 98L704 516L367 -13L247 516L158 103Q153 81 153 65Q153 38 164 21T195 0H0Q24 5 44 30T74 101L174 569Q179 590 179 605Q179 630 168 645T138 666Z"
				   horiz-adv-x="847" unicode="M"/>
			<glyph d="M115 666H262L503 201L585 590Q588 602 588 613Q588 633 578 647T551 666H726Q705 660 691 641T671 594L541 -8H474Q458 47 422 118L234 480L147 71Q145 63 145 50Q145 35 150 24T165 8T182 0H0Q23 4 38 22T60 68L167 559Q169 570 169 581Q169 602 153 631T115 666Z"
				   horiz-adv-x="674" unicode="N"/>
			<glyph d="M435 682Q541 682 603 613T665 428Q665 315 611 210Q558 105 470 45T281 -15Q175 -15 113 53T52 239Q52 354 104 458T245 622T435 682ZM420 613Q356 613 299 558T207 411T172 227Q172 147 204 101T295 55Q360 55 417 108T510 253T546 438Q546 519 512 566T420 613Z"
				   horiz-adv-x="673" unicode="O"/>
			<glyph d="M136 666H378Q471 666 524 619T578 496Q578 435 545 382T452 299T316 269Q291 269 258 273T215 282L170 76Q167 61 167 50Q167 35 172 24T184 8T199 0H-1Q19 4 35 22T58 72L169 587Q172 601 172 614Q172 634 162 647T136 666ZM284 602L228 347Q270 337 305 337Q354 337 390 357T447 413T467 494Q467 542 438 572T361 602Z"
				   horiz-adv-x="567" unicode="P"/>
			<glyph d="M435 682Q541 682 603 613T665 428Q665 313 609 206T464 41Q494 10 549 -10Q605 -31 657 -33Q603 -69 529 -69Q428 -69 348 -8Q317 -15 281 -15Q175 -15 113 53T52 239Q52 354 104 458T245 622T435 682ZM420 613Q356 613 299 558T207 411T172 227Q172 147 204 101T295 55Q360 55 417 108T510 253T546 438Q546 519 512 566T420 613Z"
				   horiz-adv-x="673" unicode="Q"/>
			<glyph d="M135 666H389Q479 666 531 621T584 503Q584 449 558 403T486 329T387 297Q401 286 415 251L488 78Q500 46 520 25T557 0H397L305 241Q296 265 282 280T252 295H218L170 76Q166 58 166 50Q166 35 171 24T183 8T198 0H-2Q18 3 34 21T57 72L167 587Q171 608 171 615Q171 656 135 666ZM283 601L231 353H322Q390 353 430 393T471 496Q471 544 444 572T375 601Z"
				   horiz-adv-x="590" unicode="R"/>
			<glyph d="M337 682Q380 682 426 669T504 636L475 497Q459 550 419 579T326 609Q276 609 247 581T218 508Q218 480 236 453T293 398Q353 355 377 334T419 292T447 245T457 189Q457 95 391 39T213 -16Q161 -16 105 0T15 40L51 205Q66 136 110 97T223 59Q278 59 310 87T343 163Q343 186 332 205T304 242T226 304Q157 354 132 394T108 481Q108 568 171 625T337 682Z"
				   horiz-adv-x="504" unicode="S"/>
			<glyph d="M116 666H650L616 514Q613 565 591 582T519 599H423L311 76Q308 61 308 49Q308 30 317 16T337 0H139Q158 3 174 22T198 72L310 599H212Q161 599 132 580T81 516Z"
				   horiz-adv-x="581" unicode="T"/>
			<glyph d="M132 666H336Q310 659 295 643T276 603L199 249Q188 202 188 161Q188 105 215 82T298 60Q364 60 409 100T470 216L548 597Q551 610 551 620Q551 655 520 666H699Q654 653 643 600L563 223Q545 138 509 85T418 9T274 -15Q176 -15 127 25T78 156Q78 207 91 266L163 603Q166 613 166 622Q166 638 157 649T132 666Z"
				   horiz-adv-x="648" unicode="U"/>
			<glyph d="M111 666H299Q267 655 265 606Q264 590 266 569L311 171L553 560Q583 608 583 635Q583 646 577 654T560 666H744Q709 653 648 559L288 -9H217L154 564Q148 611 137 635T111 666Z"
				   horiz-adv-x="664" unicode="V"/>
			<glyph d="M106 666H294Q263 656 260 604Q260 589 261 568L301 175L496 511L491 564Q487 608 476 633T451 666H631Q615 661 606 644T597 604Q597 589 598 570L637 175L859 562Q886 610 886 636Q886 660 865 666H1044Q1025 660 1000 633T952 564L619 -9H549L509 391L277 -9H207L149 564Q145 604 134 631T106 666Z"
				   horiz-adv-x="954" unicode="W"/>
			<glyph d="M107 666H296Q273 657 273 631Q273 614 281 594L350 425L498 594Q527 628 527 647Q527 662 511 666H688Q649 649 600 594L383 345L488 84Q502 48 518 25T547 0H359Q368 2 373 12T379 37Q379 55 368 84L302 251L155 84Q119 43 119 19Q119 4 132 0H-41Q-28 4 -1 28T52 84L269 332L162 594Q139 650 107 666Z"
				   horiz-adv-x="609" unicode="X"/>
			<glyph d="M97 666H280Q269 660 265 650T261 628Q261 615 267 594L335 364L504 591Q533 630 533 647Q533 661 518 666H683Q643 652 598 592L356 274L314 76Q310 56 310 49Q310 29 319 16T341 0H141Q162 3 178 22T201 72L244 274L153 593Q145 620 132 639T97 666Z"
				   horiz-adv-x="588" unicode="Y"/>
			<glyph d="M140 666H614L168 70H371Q425 70 458 88T521 154L484 0H-15Q-6 13 65 108T431 596H225Q181 596 149 577T108 529Z"
				   horiz-adv-x="567" unicode="Z"/>
			<glyph d="M173 680H410L398 624H243L90 -107H244L232 -165H-4Z" horiz-adv-x="341" unicode="["/>
			<glyph d="M104 678H189L353 -14H267Z" horiz-adv-x="436" unicode="\"/>
			<glyph d="M119 680H356L178 -165H-58L-46 -107H108L261 624H107Z" horiz-adv-x="341" unicode="]"/>
			<glyph d="M365 727H438L539 203H456L380 628H375L124 203H42Z" horiz-adv-x="671" unicode="^"/>
			<glyph d="M-62 -86H596L585 -132H-72Z" horiz-adv-x="668" unicode="_"/>
			<glyph d="M256 666H390L406 511Z" horiz-adv-x="466" unicode="`"/>
			<glyph d="M491 486L415 142Q405 99 405 75Q405 53 416 41T452 27L290 -15L307 81Q277 39 230 12T139 -15Q86 -15 56 24T27 131Q27 218 68 298T178 427T321 476Q346 476 377 470T419 464Q450 464 491 486ZM314 417Q270 417 229 378T160 274T133 146Q133 105 148 82T191 60Q212 60 236 76Q261 93 282 120T317 189T345 287T359 370Q359 393 349 405T314 417Z"
				   unicode="a"/>
			<glyph d="M278 696L210 389Q241 433 285 459T375 485Q428 485 459 446T490 337Q490 249 450 164T343 34T196 -12Q165 -12 138 -5T100 4T78 8Q52 8 22 -12L152 591L154 610Q154 628 143 639T106 653ZM325 410Q298 410 270 391T217 337T180 258T159 167T151 97Q151 74 166 63T213 52Q255 52 292 87Q330 123 355 188T381 317Q381 361 367 385T325 410Z"
				   horiz-adv-x="518" unicode="b"/>
			<glyph d="M330 485Q373 485 398 467T423 417Q423 383 397 348Q372 313 335 301Q343 314 343 341Q343 377 327 396T284 415Q246 415 210 381T154 291T133 179Q133 120 160 88T236 56Q272 56 310 76T381 133Q362 69 304 26T178 -16Q108 -16 67 28T27 147Q27 234 68 313T179 439T330 485Z"
				   horiz-adv-x="420" unicode="c"/>
			<glyph d="M544 696L419 119Q413 90 413 73Q413 51 425 40T464 26L297 -15L317 80Q245 -14 146 -14Q91 -14 59 26T28 138Q28 222 68 305T171 436T306 485Q364 485 387 443L420 593Q421 599 421 608Q420 646 369 653ZM302 418Q262 418 224 380T161 277T136 153Q136 107 151 82T193 57Q220 57 247 75T297 124T332 191T353 274T363 343Q363 418 302 418Z"
				   horiz-adv-x="516" unicode="d"/>
			<glyph d="M332 485Q381 485 412 459T443 390Q443 335 400 288T282 212T130 179V172Q130 120 157 88T230 57Q269 57 314 78T391 133Q379 90 347 56T271 3T183 -16Q111 -16 68 29T26 152Q26 233 69 311T184 437T332 485ZM305 422Q273 422 236 396T170 328T131 235Q189 238 244 259T327 310T355 375Q355 396 341 409T305 422Z"
				   horiz-adv-x="445" unicode="e"/>
			<glyph d="M336 694Q373 694 395 677T418 636Q418 615 404 598T362 576Q369 586 369 600Q369 613 360 623T334 633Q304 633 286 598T248 468H372L359 411H237L151 -4Q133 -92 87 -140T-27 -189Q-55 -189 -80 -178T-121 -144Q-100 -149 -82 -149Q-31 -149 0 -114T47 -4L133 411H48L60 468H145Q173 590 218 642T336 694Z"
				   horiz-adv-x="338" unicode="f"/>
			<glyph d="M526 487L509 411H412Q425 399 433 376T441 329Q441 254 377 204T221 154Q206 154 192 156Q131 129 131 111Q131 101 151 92T220 74Q305 57 344 40T402 1T422 -53Q422 -92 392 -123T301 -174T172 -193Q74 -193 16 -165T-41 -88Q-41 -54 0 -23T105 22Q67 33 47 50T28 88Q28 110 54 133T128 175Q97 191 77 220T58 290Q58 345 88 390T170 459T283 484Q314 484 363 472Q381 467 431 467Q491 467 526 487ZM263 425Q218 425 188 390T159 300Q159 258 180 235T238 213Q283 213 313 248T343 335Q343 376 321 400T263 425ZM169 4Q116 -10 85 -30T55 -74Q55 -102 90 -118T188 -135Q244 -135 280 -118T316 -75Q316 -47 285 -29T169 4Z"
				   horiz-adv-x="502" unicode="g"/>
			<glyph d="M274 696L208 401Q237 437 286 461T380 485Q424 485 448 462T473 395Q473 369 466 339L419 109Q413 82 413 58Q413 32 420 17T434 0H292L354 280Q367 339 367 358Q366 416 318 416Q292 416 263 397T212 347T183 283L122 0H20L149 591Q151 601 151 612Q151 628 139 639T105 653Z"
				   unicode="h"/>
			<glyph d="M229 486L148 109Q141 79 141 53Q141 28 147 14T161 0H20L104 381Q106 395 106 400Q106 417 94 430T66 443H59ZM201 687Q228 687 244 670T260 627Q260 597 240 577T191 558Q164 558 147 575T131 618Q131 647 151 667T201 687Z"
				   horiz-adv-x="247" unicode="i"/>
			<glyph d="M201 687Q228 687 244 670T260 627Q260 597 240 577T191 558Q164 558 147 575T131 618Q131 647 151 667T201 687ZM231 486L126 0Q108 -85 61 -135T-50 -185Q-86 -185 -117 -172T-161 -141Q-139 -147 -119 -147Q-63 -147 -28 -111T23 0L105 381Q107 389 107 397Q107 414 94 427T65 443H60Z"
				   horiz-adv-x="247" unicode="j"/>
			<glyph d="M274 696L180 268L318 393Q364 434 364 451Q364 462 348 468H541Q485 454 415 390L274 262L380 82Q398 51 422 32T475 13Q457 1 432 -5T384 -11Q354 -11 329 5T281 61L175 248L123 0H20L149 592Q151 607 151 611Q151 646 103 653Z"
				   horiz-adv-x="508" unicode="k"/>
			<glyph d="M274 696L147 109Q140 80 140 52Q140 25 147 13T160 0H20L149 591Q151 598 151 611Q151 628 140 639T106 653Z"
				   horiz-adv-x="247" unicode="l"/>
			<glyph d="M220 486L202 399Q233 437 280 461T373 485Q456 485 467 398Q492 432 543 458T642 485Q688 485 712 462T737 395Q737 370 726 321L682 109Q677 85 677 59Q677 33 683 18T698 0H557L617 276Q630 334 630 359Q630 385 620 400T584 416Q544 416 504 375T451 277L391 0H288L354 301Q362 336 362 358Q362 416 316 416Q291 416 262 396T212 345T183 277L123 0H21L104 380Q106 390 106 399Q106 417 94 429T59 443Z"
				   horiz-adv-x="778" unicode="m"/>
			<glyph d="M221 486L203 399Q237 438 285 461T377 485Q474 485 474 395Q474 374 463 321L420 109Q414 83 414 59Q414 33 420 17T435 0H293L359 300Q368 337 368 358Q367 416 319 416Q293 416 263 396T212 345T183 277L123 0H21L104 380Q106 390 106 399Q106 416 94 428T59 443Z"
				   unicode="n"/>
			<glyph d="M297 484Q349 484 387 460T445 394T466 297Q466 219 429 145Q392 72 329 29T194 -14Q142 -14 104 9T46 76T27 173Q27 250 64 323T163 440T297 484ZM287 418Q248 418 213 383T155 281T131 161Q131 111 151 81T205 52Q243 52 277 86Q312 120 336 185T360 308Q360 359 340 388T287 418Z"
				   horiz-adv-x="493" unicode="o"/>
			<glyph d="M219 486L201 390Q234 436 281 461T375 486Q429 486 460 443T492 329Q492 267 468 201T403 86T311 12T212 -13Q155 -13 131 22L85 -186H-17L98 349Q105 381 105 396Q105 417 94 427T57 443ZM322 409Q301 409 277 395T232 358T195 303T166 211T153 118Q153 51 215 51Q256 51 293 86Q330 122 356 188T382 316Q382 360 366 384T322 409Z"
				   horiz-adv-x="518" unicode="p"/>
			<glyph d="M497 484L374 -83Q367 -110 367 -138Q367 -158 372 -170T386 -186H248L308 82Q231 -15 143 -15Q89 -15 58 24T27 133Q27 220 67 305T173 436T322 483Q356 483 391 473T440 464Q467 464 497 484ZM305 419Q262 419 224 382T162 281T138 155Q138 109 152 85T194 61Q215 61 238 74T282 111T318 166T350 269T367 374Q367 397 352 408T305 419Z"
				   horiz-adv-x="514" unicode="q"/>
			<glyph d="M225 486L202 374Q233 423 276 454T359 485Q388 485 404 470T421 426Q421 392 393 366T326 334Q336 352 336 371Q336 386 329 397T307 409Q282 409 254 382T202 307T166 198L123 0H21L105 380L107 398Q107 435 57 443Z"
				   horiz-adv-x="398" unicode="r"/>
			<glyph d="M261 486Q318 486 354 464T390 407Q390 366 327 328Q330 345 330 350Q330 383 307 402T249 422Q216 422 189 403T163 354Q163 333 183 312T255 257Q346 198 346 127Q346 62 292 23T154 -16Q111 -16 69 -5T5 20L41 161Q46 110 75 79T153 48Q193 48 219 65T245 111Q245 131 227 150T158 205Q114 234 92 265T70 333Q70 379 95 414T165 467T261 486Z"
				   horiz-adv-x="404" unicode="s"/>
			<glyph d="M252 583L228 468H354L342 411H216L166 183Q162 163 157 142T153 104Q153 75 167 62T210 49Q231 49 255 57T299 76Q278 33 238 9T147 -15Q97 -15 70 8T44 75Q44 96 51 131L114 411H48Z"
				   horiz-adv-x="325" unicode="t"/>
			<glyph d="M227 486L154 153Q149 133 149 109Q149 55 196 55Q237 55 279 97T334 195L369 355Q376 388 376 402Q376 422 365 430T332 443L500 486L443 233Q410 88 410 67Q410 35 447 29L454 28L296 -15L314 73Q286 36 236 11T140 -14Q43 -14 43 76Q43 99 50 132L96 354Q101 381 101 398Q101 418 92 429T59 443Z"
				   horiz-adv-x="518" unicode="u"/>
			<glyph d="M176 485L218 132L372 372Q394 406 394 430Q394 440 388 450T362 468H523L195 -13H133L87 368Q83 405 70 422T32 443L23 444Z"
				   horiz-adv-x="482" unicode="v"/>
			<glyph d="M183 485L213 149L397 473H458L500 142L635 370Q658 411 658 431Q658 459 627 468H782L475 -13H414L376 307L188 -13H127L91 373Q88 409 75 424T37 443L28 444Z"
				   horiz-adv-x="745" unicode="w"/>
			<glyph d="M194 486L230 399Q257 333 267 311L337 388Q372 426 372 448Q372 463 353 469H503L295 248Q301 238 336 156L367 81Q376 60 386 48T409 31T451 24L295 -18L216 168L124 67Q97 38 97 20Q97 13 102 8T114 1L118 0H-29L188 231L124 381Q109 416 93 429T48 443H38Z"
				   horiz-adv-x="479" unicode="x"/>
			<glyph d="M177 485L252 102Q301 173 347 267T394 412Q394 436 384 450T357 468H509Q495 420 452 330T351 147T233 -22T113 -144T12 -191Q-24 -191 -42 -173T-60 -129Q-60 -117 -53 -97Q-33 -115 1 -115Q35 -115 79 -85T171 0L92 379Q85 412 69 426T21 444Z"
				   horiz-adv-x="497" unicode="y"/>
			<glyph d="M86 472H434L137 59H268Q300 59 320 63T354 78T388 122L358 0H-17L281 414H136Q80 414 45 367Z"
				   horiz-adv-x="428" unicode="z"/>
			<glyph d="M486 700Q412 692 374 663T325 574L297 440Q278 353 236 305T124 255Q228 249 228 146Q228 107 219 69L191 -65Q186 -87 186 -105Q186 -141 211 -161T299 -189Q211 -188 170 -179T109 -150T89 -97Q89 -84 94 -57L126 93Q136 138 136 168Q136 197 126 214T97 241T34 255Q92 260 119 276T164 326T194 417L225 566Q235 615 261 643T333 684T486 700Z"
				   horiz-adv-x="388" unicode="{"/>
			<glyph d="M205 728H287L90 -198H9Z" horiz-adv-x="256" unicode="|"/>
			<glyph d="M101 700Q191 698 231 688T291 659T311 606Q311 590 306 566L274 417Q265 378 265 342Q265 301 286 280T367 255Q309 250 282 233T237 184T207 93L175 -57Q164 -106 138 -134T64 -175T-86 -189Q-10 -181 27 -152T76 -65L103 69Q121 157 164 204T280 255Q226 257 199 284T172 364Q172 395 182 440L210 574Q215 597 215 615Q215 655 186 674T101 700Z"
				   horiz-adv-x="388" unicode="}"/>
			<glyph d="M239 390Q299 390 371 341Q409 315 434 303T480 292Q533 292 553 384H627Q609 299 567 256T464 213Q431 213 398 225T327 263Q283 292 260 302T216 313Q162 313 140 222H65Q83 301 129 345T239 390Z"
				   horiz-adv-x="671" unicode="~"/>
			<glyph d="" horiz-adv-x="213" unicode=" "/>
			<glyph d="M173 318Q183 297 187 276T192 235Q192 204 188 181L148 -54Q142 -88 142 -122Q142 -147 147 -162T160 -181H-24Q-16 -180 -4 -164T19 -121T41 -54L100 181Q118 252 173 318ZM200 500Q225 500 241 484T258 442Q258 416 239 397Q221 378 192 378Q165 378 150 394T135 435Q135 463 153 481T200 500Z"
				   horiz-adv-x="295" unicode="¡"/>
			<glyph d="M331 674H402L382 577Q419 573 443 555T468 510Q468 474 442 439T380 394Q388 409 388 434Q388 467 371 488T324 509Q287 509 253 477T197 389T175 273Q175 215 205 182T285 150Q322 150 358 171T425 227Q408 171 368 133T278 84L258 -15H187L207 80Q144 87 106 131T69 242Q69 319 101 390T189 510T311 572Z"
				   horiz-adv-x="524" unicode="¢"/>
			<glyph d="M413 682Q492 682 533 648L476 556Q474 584 452 599T400 614Q364 614 340 591T298 524T257 372H375L361 305H243Q222 208 194 155T132 84Q161 88 178 88Q202 87 236 80T295 73Q341 73 371 86T429 126L442 28Q396 -15 310 -15Q278 -15 251 -10T200 1T152 12T101 17Q70 17 37 6T-18 -17L-31 70Q33 73 69 124T136 305H64L79 372H151Q180 499 213 561T294 652T413 682Z"
				   horiz-adv-x="524" unicode="£"/>
			<glyph d="M150 514L216 449Q243 466 283 466Q323 466 353 448L416 512L463 466L400 402Q418 373 418 333Q418 293 400 263L465 198L418 152L352 217Q323 199 283 199Q245 199 215 217L150 152L103 199L168 263Q149 293 149 333Q149 372 167 403L103 468ZM283 414Q249 414 228 391T207 333Q207 297 228 273T283 250Q318 250 339 273T361 333Q361 368 339 391T283 414Z"
				   horiz-adv-x="550" unicode="¤"/>
			<glyph d="M29 666H222Q206 661 197 643T189 601Q189 585 195 563L247 367Q329 490 370 551T411 641Q411 661 392 666H557Q536 659 507 630T450 558L368 436H480L469 380H332L270 291H450L439 234H260L234 109Q228 80 228 61Q228 36 236 19T260 0H61Q75 3 88 15T113 50T133 109L159 234H-31L-19 291H165L140 380H-1L10 436H127L93 560Q81 604 63 632T29 666Z"
				   horiz-adv-x="524" unicode="¥"/>
			<glyph d="M175 675H257L182 325H100ZM69 175H151L76 -175H-5Z" horiz-adv-x="234" unicode="¦"/>
			<glyph d="M399 677Q457 677 505 659T573 609L496 534Q480 567 446 586T373 605Q329 605 294 580T260 520Q260 495 282 473T355 427Q442 385 471 364T515 318T531 266Q531 175 408 119Q431 102 444 76T458 18Q458 -32 427 -73T341 -138T221 -162Q150 -162 91 -136T4 -67L84 7Q103 -37 145 -62T236 -88Q283 -88 315 -63T348 -3Q348 19 332 39T278 79Q173 133 145 152T99 197T81 252Q81 298 113 332T213 394Q187 411 170 437T154 496Q154 545 187 587T277 653T399 677ZM281 361Q238 349 211 325T184 274Q184 251 209 229T284 184L341 156Q379 167 404 192T430 246Q430 269 405 291T328 338Z"
				   horiz-adv-x="600" unicode="§"/>
			<glyph d="M431 669Q454 669 467 655T481 619Q481 595 464 579T423 563Q401 563 387 577T374 613Q374 637 390 653T431 669ZM248 669Q270 669 283 655T297 619Q297 596 281 579Q265 563 240 563Q217 563 203 577T190 613Q190 637 207 653T248 669Z"
				   horiz-adv-x="474" unicode="¨"/>
			<glyph d="M397 677Q491 677 570 633T692 513T736 333Q736 230 692 152Q648 75 569 32T397 -11Q300 -11 220 34T98 156T56 333Q56 434 99 511T222 633T397 677ZM397 638Q313 638 243 598T137 489T101 334Q101 247 138 177T244 68T397 29Q478 29 545 66Q613 104 651 173T689 333Q689 424 651 493T546 600T397 638ZM411 561Q471 561 525 526V394Q506 453 476 478T411 504Q357 504 324 459T291 338Q291 264 326 216T415 168Q484 168 533 234V165Q515 140 477 122T402 105Q344 105 301 133T235 211T212 325Q212 390 237 445T308 530T411 561Z"
				   horiz-adv-x="752" unicode="©"/>
			<glyph d="M395 688L341 446Q334 416 334 399Q334 383 342 375T368 365L253 335L264 402Q242 371 209 353T145 335Q107 335 86 362T66 438Q66 499 96 556T174 647T274 681Q286 681 310 677T344 673Q367 673 395 688ZM269 639Q238 639 208 611T160 539T141 450Q141 420 152 404T182 388Q197 388 214 399Q231 411 247 432T274 484T292 553T301 606Q301 639 269 639Z"
				   horiz-adv-x="381" unicode="ª"/>
			<glyph d="M384 431H478L298 251L397 73H315L212 252ZM194 431H286L112 251L214 73H132L24 252Z" horiz-adv-x="460"
				   unicode="«"/>
			<glyph d="M103 408H650L592 139H520L562 337H88Z" horiz-adv-x="679" unicode="¬"/>
			<glyph d="M67 293H317L301 214H51Z" horiz-adv-x="350" unicode="­"/>
			<glyph d="M394 677Q488 677 567 633T689 513T733 333Q733 230 689 152Q646 75 567 32T394 -11Q297 -11 217 34T95 156T53 333Q53 434 96 511T219 633T394 677ZM394 638Q311 638 241 598T134 489T98 334Q98 247 135 177T241 68T394 29Q476 29 545 68T650 175T687 333Q687 422 650 491T545 599T394 638ZM251 557H404Q464 557 499 522T535 431Q535 382 507 347T436 311Q459 301 481 254L521 172Q537 138 565 119H471L414 242Q400 272 387 283T359 295H343V192Q343 167 348 148T368 119H254Q267 130 272 148T278 192V485Q278 510 271 528T251 557ZM343 506V346H396Q428 346 448 369T469 427Q469 462 448 484T395 506Z"
				   horiz-adv-x="749" unicode="®"/>
			<glyph d="M203 633H517L507 581H193Z" horiz-adv-x="466" unicode="¯"/>
			<glyph d="M217 682Q277 682 315 644T354 549Q354 491 316 453T217 415Q156 415 118 453T80 549Q80 607 118 644T217 682ZM217 630Q183 630 160 607T138 548Q138 513 160 489T217 465Q252 465 274 488T296 548Q296 584 273 607T217 630Z"
				   horiz-adv-x="337" unicode="°"/>
			<glyph d="M376 608H449L408 412H638L623 341H392L350 141H277L319 341H88L103 412H335ZM31 71H566L551 0H16Z"
				   horiz-adv-x="679" unicode="±"/>
			<glyph d="M255 681Q314 681 347 654T381 584Q381 557 364 527T315 463T207 364L179 339H269Q294 339 316 347T348 368L329 288H46L158 390Q250 474 277 512T305 579Q305 603 288 619T244 635Q216 635 198 620T181 584Q181 560 207 554L151 506Q130 517 121 535T112 571Q112 617 154 649T255 681Z"
				   horiz-adv-x="316" unicode="²"/>
			<glyph d="M262 682Q315 682 349 657T384 593Q384 553 354 522T280 482H281Q315 469 333 446T352 394Q352 344 306 312T195 281Q143 281 108 303T67 362L145 403Q144 398 144 393Q144 366 162 352T215 338Q240 338 257 352T274 388Q274 420 242 441T156 466L177 509Q195 504 217 504Q255 504 281 526T308 584Q308 606 291 619T248 633Q227 633 211 624T196 602Q196 592 207 581L133 552Q124 570 124 587Q124 630 162 656T262 682Z"
				   horiz-adv-x="321" unicode="³"/>
			<glyph d="M376 666H514L300 511Z" horiz-adv-x="466" unicode="´"/>
			<glyph d="M120 468H222L158 176Q148 135 148 109Q148 55 195 55Q223 55 252 75T303 128T333 195L391 468H495L423 145Q417 118 417 96Q417 46 456 46H460L357 -18Q314 0 312 71Q277 25 249 5T194 -15Q172 -15 154 -2T129 31L84 -181H-57Q-39 -178 -23 -153T2 -88Z"
				   horiz-adv-x="516" unicode="µ"/>
			<glyph d="M395 668H637Q606 592 590 510L449 -180H383L546 610H456L293 -180H227L295 152H284Q213 152 159 179T77 256T49 368Q49 450 96 521T221 630T395 668Z"
				   horiz-adv-x="687" unicode="¶"/>
			<glyph d="M131 307Q160 307 177 289T195 241Q195 210 173 188T120 167Q90 167 72 185T55 232Q55 263 76 285T131 307Z"
				   horiz-adv-x="244" unicode="·"/>
			<glyph d="M217 8H272L234 -37Q262 -42 279 -60T296 -103Q296 -138 265 -159T187 -180Q138 -180 107 -159Q123 -162 139 -162Q174 -161 199 -144T224 -105Q224 -90 209 -78T159 -64Z"
				   horiz-adv-x="466" unicode="¸"/>
			<glyph d="M256 677H312L248 373Q243 352 243 337Q243 317 248 304T261 288H152L213 569L101 469L119 551Q219 640 256 677Z"
				   horiz-adv-x="280" unicode="¹"/>
			<glyph d="M273 684Q328 684 359 649T391 557Q391 501 364 448Q337 396 292 365T194 334Q140 334 108 369T77 462Q77 519 103 571T176 653T273 684ZM266 636Q238 636 211 608T168 535T151 453Q151 420 164 400T202 381Q230 381 256 409T300 482T317 564Q317 596 303 616T266 636Z"
				   horiz-adv-x="394" unicode="º"/>
			<glyph d="M259 431H341L449 252L280 73H187L362 254ZM77 431H158L262 252L89 73H-4L175 254Z" horiz-adv-x="460"
				   unicode="»"/>
			<glyph d="M612 388H692L639 133H686L675 85H628L625 67Q620 39 620 27Q620 3 627 0H536L556 85H377L386 120ZM613 677H680L197 0H128ZM273 677H329L265 373Q260 350 260 337Q260 316 265 303T278 288H169L230 569L118 469L136 551Q197 605 273 677ZM604 307L456 133H566Z"
				   horiz-adv-x="784" unicode="¼"/>
			<glyph d="M613 393Q672 393 705 366T739 295Q739 268 722 238T670 172T535 51H627Q647 51 663 55T692 67T707 79L688 0H405Q568 149 591 173T630 217T653 252T660 283Q660 307 643 322T598 338Q571 338 555 325T540 294Q540 285 546 276T565 265L509 218Q470 239 470 285Q470 311 489 336T540 377T613 393ZM606 677H673L190 0H121ZM256 677H312L248 373Q243 352 243 337Q243 317 248 303T261 288H152L213 569L101 469L119 551Q219 640 256 677Z"
				   horiz-adv-x="816" unicode="½"/>
			<glyph d="M701 388H781L728 133H775L764 85H717L714 66Q709 39 709 27Q709 4 716 0H625L645 85H466L475 120ZM262 682Q315 682 349 657T384 593Q384 553 354 522T280 482H281Q315 469 333 446T352 394Q352 344 306 312T195 281Q143 281 108 303T67 362L145 403Q144 397 144 393Q144 366 162 352T215 338Q240 338 257 352T274 388Q274 420 242 440T156 466L177 509Q198 504 217 504Q254 504 281 526T308 584Q308 606 291 619T248 633Q227 633 211 624T196 602Q196 592 207 581L133 552Q124 570 124 587Q124 630 162 656T262 682ZM681 677H748L265 0H196ZM693 307L545 133H655Z"
				   horiz-adv-x="873" unicode="¾"/>
			<glyph d="M292 315Q322 315 341 295T361 248Q361 213 336 178T250 97Q179 44 157 23T123 -17T112 -54Q112 -84 137 -101T202 -119Q252 -119 300 -95T383 -29L357 -154Q323 -171 272 -181T173 -192Q89 -192 41 -159T-6 -71Q-6 -23 22 19T113 108L174 152Q227 189 250 215T273 265Q273 288 252 302Q268 315 292 315ZM345 498Q372 498 387 481T403 441Q403 415 384 395Q366 376 337 376Q310 376 295 393T280 434Q280 462 299 480T345 498Z"
				   horiz-adv-x="488" unicode="¿"/>
			<glyph d="M423 673H506L569 103Q574 59 586 31T615 0H426Q442 4 450 21T459 68Q459 80 448 175H197L155 106Q124 54 124 29Q124 5 144 0H-31Q-17 3 9 33T63 107ZM412 521L240 243H440ZM350 853H484L501 698Z"
				   horiz-adv-x="685" unicode="À"/>
			<glyph d="M423 673H506L569 103Q574 59 586 31T615 0H426Q442 4 450 21T459 68Q459 80 448 175H197L155 106Q124 54 124 29Q124 5 144 0H-31Q-17 3 9 33T63 107ZM412 521L240 243H440ZM514 853H653L438 698Z"
				   horiz-adv-x="685" unicode="Á"/>
			<glyph d="M423 673H506L569 103Q574 59 586 31T615 0H426Q442 4 450 21T459 68Q459 80 448 175H197L155 106Q124 54 124 29Q124 5 144 0H-31Q-17 3 9 33T63 107ZM412 521L240 243H440ZM500 880L609 699L479 776L321 699Z"
				   horiz-adv-x="685" unicode="Â"/>
			<glyph d="M423 673H506L569 103Q574 59 586 31T615 0H426Q442 4 450 21T459 68Q459 80 448 175H197L155 106Q124 54 124 29Q124 5 144 0H-31Q-17 3 9 33T63 107ZM412 521L240 243H440ZM604 862Q616 844 616 821Q616 785 590 757T529 729Q511 729 493 735T458 751T423 766T392 773Q347 773 340 707Q328 726 328 746Q328 787 352 813T413 839Q432 839 451 832T488 817T522 802T552 796Q576 796 588 813Q601 831 604 862Z"
				   horiz-adv-x="685" unicode="Ã"/>
			<glyph d="M423 673H506L569 103Q574 59 586 31T615 0H426Q442 4 450 21T459 68Q459 80 448 175H197L155 106Q124 54 124 29Q124 5 144 0H-31Q-17 3 9 33T63 107ZM412 521L240 243H440ZM576 847Q599 847 612 832T626 795Q626 770 610 753Q594 737 569 737Q546 737 531 751T517 789Q517 814 534 830T576 847ZM390 847Q413 847 426 832T440 795Q440 770 423 753T382 737Q359 737 345 751T331 789Q331 813 347 830T390 847Z"
				   horiz-adv-x="685" unicode="Ä"/>
			<glyph d="M423 673H506L569 103Q574 59 586 31T615 0H426Q442 4 450 21T459 68Q459 80 448 175H197L155 106Q124 54 124 29Q124 5 144 0H-31Q-17 3 9 33T63 107ZM412 521L240 243H440ZM484 894Q526 894 552 867T578 800Q578 758 551 732T484 706Q443 706 416 732T390 800Q390 842 417 868T484 894ZM484 855Q460 855 445 839T430 800Q430 777 445 760T484 744Q508 744 522 760T536 800Q536 825 522 840T484 855Z"
				   horiz-adv-x="685" unicode="Å"/>
			<glyph d="M441 666H905L874 513Q872 556 849 576T779 596H615L580 376H716Q748 376 771 385T804 412L774 268Q773 286 754 297T702 308H569L531 70H671Q731 70 763 90T821 166L786 0H352Q366 1 381 12T408 43T426 94L440 175H218L170 112Q128 56 128 27Q128 13 135 7T148 0H-46Q-25 5 6 35T72 112L420 576Q435 595 445 615T456 646Q456 661 441 666ZM504 564L266 243H451Z"
				   horiz-adv-x="887" unicode="Æ"/>
			<glyph d="M448 680Q493 680 531 669T591 642L559 494Q537 609 436 609Q371 609 310 557T212 419T175 245Q175 159 215 110T324 61Q372 61 417 83T500 151L479 54Q425 0 310 -12L289 -37Q324 -43 339 -59T354 -95Q354 -129 319 -155T238 -181Q192 -181 162 -159Q177 -162 194 -162Q231 -162 255 -145T279 -104Q279 -89 264 -76T215 -63L255 -13Q163 -4 108 65T53 241Q53 354 110 459T256 622T448 680Z"
				   horiz-adv-x="552" unicode="Ç"/>
			<glyph d="M147 666H577L547 523Q545 562 524 579T450 596H290L244 376H378Q411 376 434 384T464 408L436 272Q431 292 415 300T364 308H230L181 70H343Q403 70 432 86T489 151L457 0H1Q25 5 43 26T69 83L170 552Q181 606 181 614Q181 634 171 648T147 666ZM285 853H419L435 698Z"
				   horiz-adv-x="546" unicode="È"/>
			<glyph d="M147 666H577L547 523Q545 562 524 579T450 596H290L244 376H378Q411 376 434 384T464 408L436 272Q431 292 415 300T364 308H230L181 70H343Q403 70 432 86T489 151L457 0H1Q25 5 43 26T69 83L170 552Q181 606 181 614Q181 634 171 648T147 666ZM408 853H546L332 698Z"
				   horiz-adv-x="546" unicode="É"/>
			<glyph d="M420 880L529 699L399 776L241 699ZM147 666H577L547 523Q545 562 524 579T450 596H290L244 376H378Q411 376 434 384T464 408L436 272Q431 292 415 300T364 308H230L181 70H343Q403 70 432 86T489 151L457 0H1Q25 5 43 26T69 83L170 552Q181 606 181 614Q181 634 171 648T147 666Z"
				   horiz-adv-x="546" unicode="Ê"/>
			<glyph d="M147 666H577L547 523Q545 562 524 579T450 596H290L244 376H378Q411 376 434 384T464 408L436 272Q431 292 415 300T364 308H230L181 70H343Q403 70 432 86T489 151L457 0H1Q25 5 43 26T69 83L170 552Q181 606 181 614Q181 634 171 648T147 666ZM484 849Q507 849 520 834T534 797Q534 772 518 755Q502 739 477 739Q454 739 439 753T425 791Q425 816 442 832T484 849ZM298 849Q321 849 334 834T348 797Q348 772 331 755T290 739Q267 739 253 753T239 791Q239 815 255 832T298 849Z"
				   horiz-adv-x="546" unicode="Ë"/>
			<glyph d="M142 666H344Q320 660 304 640T282 591L173 76Q169 55 169 48Q169 25 178 13T198 0H-1Q20 4 35 22T58 72L168 587Q172 608 172 616Q172 637 163 650T142 666ZM120 853H254L271 698Z"
				   horiz-adv-x="295" unicode="Ì"/>
			<glyph d="M142 666H344Q320 660 304 640T282 591L173 76Q169 55 169 48Q169 25 178 13T198 0H-1Q20 4 35 22T58 72L168 587Q172 608 172 616Q172 637 163 650T142 666ZM293 853H431L217 698Z"
				   horiz-adv-x="295" unicode="Í"/>
			<glyph d="M142 666H344Q320 660 304 640T282 591L173 76Q169 55 169 48Q169 25 178 13T198 0H-1Q20 4 35 22T58 72L168 587Q172 608 172 616Q172 637 163 650T142 666ZM287 880L396 699L266 776L108 699Z"
				   horiz-adv-x="295" unicode="Î"/>
			<glyph d="M142 666H344Q320 660 304 640T282 591L173 76Q169 55 169 48Q169 25 178 13T198 0H-1Q20 4 35 22T58 72L168 587Q172 608 172 616Q172 637 163 650T142 666ZM364 849Q387 849 400 834T414 797Q414 772 398 755Q382 739 357 739Q334 739 319 753T305 791Q305 816 322 832T364 849ZM178 849Q201 849 214 834T228 797Q228 772 211 755T170 739Q147 739 133 753T119 791Q119 815 135 832T178 849Z"
				   horiz-adv-x="295" unicode="Ï"/>
			<glyph d="M135 666H381Q502 666 573 589T644 382Q644 279 595 189T462 49T273 0H1Q20 5 35 29T58 90L103 302H25L37 361H115L162 584Q166 606 166 615Q166 656 135 666ZM277 599L227 361H352L340 302H215L166 68H274Q342 68 398 111T489 233T524 395Q524 491 481 545T363 599Z"
				   horiz-adv-x="654" unicode="Ð"/>
			<glyph d="M115 666H262L503 201L585 590Q588 602 588 613Q588 633 578 647T551 666H726Q705 660 691 641T671 594L541 -8H474Q458 47 422 118L234 480L147 71Q145 63 145 50Q145 35 150 24T165 8T182 0H0Q23 4 38 22T60 68L167 559Q169 570 169 581Q169 602 153 631T115 666ZM583 862Q595 844 595 821Q595 785 569 757T508 729Q490 729 472 735T437 751T402 766T371 773Q326 773 319 707Q307 726 307 746Q307 787 331 813T392 839Q411 839 430 832T467 817T501 802T531 796Q555 796 567 813Q580 831 583 862Z"
				   horiz-adv-x="674" unicode="Ñ"/>
			<glyph d="M435 682Q541 682 603 613T665 428Q665 315 611 210Q558 105 470 45T281 -15Q175 -15 113 53T52 239Q52 354 104 458T245 622T435 682ZM420 613Q356 613 299 558T207 411T172 227Q172 147 204 101T295 55Q360 55 417 108T510 253T546 438Q546 519 512 566T420 613ZM363 853H497L514 698Z"
				   horiz-adv-x="673" unicode="Ò"/>
			<glyph d="M435 682Q541 682 603 613T665 428Q665 315 611 210Q558 105 470 45T281 -15Q175 -15 113 53T52 239Q52 354 104 458T245 622T435 682ZM420 613Q356 613 299 558T207 411T172 227Q172 147 204 101T295 55Q360 55 417 108T510 253T546 438Q546 519 512 566T420 613ZM465 853H604L389 698Z"
				   horiz-adv-x="673" unicode="Ó"/>
			<glyph d="M435 682Q541 682 603 613T665 428Q665 315 611 210Q558 105 470 45T281 -15Q175 -15 113 53T52 239Q52 354 104 458T245 622T435 682ZM420 613Q356 613 299 558T207 411T172 227Q172 147 204 101T295 55Q360 55 417 108T510 253T546 438Q546 519 512 566T420 613ZM474 880L583 699L453 776L295 699Z"
				   horiz-adv-x="673" unicode="Ô"/>
			<glyph d="M435 682Q541 682 603 613T665 428Q665 315 611 210Q558 105 470 45T281 -15Q175 -15 113 53T52 239Q52 354 104 458T245 622T435 682ZM420 613Q356 613 299 558T207 411T172 227Q172 147 204 101T295 55Q360 55 417 108T510 253T546 438Q546 519 512 566T420 613ZM582 862Q594 844 594 821Q594 785 568 757T507 729Q489 729 471 735T436 751T401 766T370 773Q325 773 318 707Q306 726 306 746Q306 787 330 813T391 839Q410 839 429 832T466 817T500 802T530 796Q554 796 566 813Q579 831 582 862Z"
				   horiz-adv-x="673" unicode="Õ"/>
			<glyph d="M435 682Q541 682 603 613T665 428Q665 315 611 210Q558 105 470 45T281 -15Q175 -15 113 53T52 239Q52 354 104 458T245 622T435 682ZM420 613Q356 613 299 558T207 411T172 227Q172 147 204 101T295 55Q360 55 417 108T510 253T546 438Q546 519 512 566T420 613ZM547 849Q570 849 583 834T597 797Q597 772 581 755Q565 739 540 739Q517 739 502 753T488 791Q488 816 505 832T547 849ZM361 849Q384 849 397 834T411 797Q411 772 394 755T353 739Q330 739 316 753T302 791Q302 815 318 832T361 849Z"
				   horiz-adv-x="673" unicode="Ö"/>
			<glyph d="M179 560L359 331L635 560L675 508L399 280L577 53L517 2L339 231L61 1L22 53L299 281L120 511Z"
				   horiz-adv-x="679" unicode="×"/>
			<glyph d="M642 691L693 673L617 590Q662 524 662 428Q662 315 608 210T467 45T278 -15Q185 -15 128 39L64 -30L10 -14L93 77Q49 141 49 239Q49 355 102 459T243 622T431 682Q524 682 582 627ZM417 613Q353 613 296 560T204 417T168 239Q168 200 177 172L517 554Q484 613 417 613ZM533 494L193 112Q225 55 292 55Q354 55 410 104T503 241T542 426Q542 464 533 494Z"
				   horiz-adv-x="670" unicode="Ø"/>
			<glyph d="M132 666H336Q310 659 295 643T276 603L199 249Q188 202 188 161Q188 105 215 82T298 60Q364 60 409 100T470 216L548 597Q551 610 551 620Q551 655 520 666H699Q654 653 643 600L563 223Q545 138 509 85T418 9T274 -15Q176 -15 127 25T78 156Q78 207 91 266L163 603Q166 613 166 622Q166 638 157 649T132 666ZM331 853H465L481 698Z"
				   horiz-adv-x="648" unicode="Ù"/>
			<glyph d="M132 666H336Q310 659 295 643T276 603L199 249Q188 202 188 161Q188 105 215 82T298 60Q364 60 409 100T470 216L548 597Q551 610 551 620Q551 655 520 666H699Q654 653 643 600L563 223Q545 138 509 85T418 9T274 -15Q176 -15 127 25T78 156Q78 207 91 266L163 603Q166 613 166 622Q166 638 157 649T132 666ZM463 853H601L387 698Z"
				   horiz-adv-x="648" unicode="Ú"/>
			<glyph d="M132 666H336Q310 659 295 643T276 603L199 249Q188 202 188 161Q188 105 215 82T298 60Q364 60 409 100T470 216L548 597Q551 610 551 620Q551 655 520 666H699Q654 653 643 600L563 223Q545 138 509 85T418 9T274 -15Q176 -15 127 25T78 156Q78 207 91 266L163 603Q166 613 166 622Q166 638 157 649T132 666ZM466 880L575 699L445 776L287 699Z"
				   horiz-adv-x="648" unicode="Û"/>
			<glyph d="M132 666H336Q310 659 295 643T276 603L199 249Q188 202 188 161Q188 105 215 82T298 60Q364 60 409 100T470 216L548 597Q551 610 551 620Q551 655 520 666H699Q654 653 643 600L563 223Q545 138 509 85T418 9T274 -15Q176 -15 127 25T78 156Q78 207 91 266L163 603Q166 613 166 622Q166 638 157 649T132 666ZM535 849Q558 849 571 834T585 797Q585 772 569 755Q553 739 528 739Q505 739 490 753T476 791Q476 816 493 832T535 849ZM349 849Q372 849 385 834T399 797Q399 772 382 755T341 739Q318 739 304 753T290 791Q290 815 306 832T349 849Z"
				   horiz-adv-x="648" unicode="Ü"/>
			<glyph d="M97 666H280Q269 660 265 650T261 628Q261 615 267 594L335 364L504 591Q533 630 533 647Q533 661 518 666H683Q643 652 598 592L356 274L314 76Q310 56 310 49Q310 29 319 16T341 0H141Q162 3 178 22T201 72L244 274L153 593Q145 620 132 639T97 666ZM453 853H592L377 698Z"
				   horiz-adv-x="588" unicode="Ý"/>
			<glyph d="M141 666H344Q320 659 304 640T282 591L271 541H350Q443 541 497 495T551 371Q551 310 517 257T424 174T288 144Q272 144 242 147T189 156L172 76Q169 61 169 48Q169 24 178 12T198 0H-1Q19 4 35 22T58 72L168 587Q171 602 171 616Q171 640 161 652T141 666ZM258 477L203 221Q215 217 237 214T278 212Q327 212 363 232T420 289T440 369Q440 419 410 448T334 477Z"
				   horiz-adv-x="567" unicode="Þ"/>
			<glyph d="M418 696Q494 696 540 662T587 575Q587 491 487 435Q426 400 406 384T387 350Q387 332 403 315T475 263Q519 234 541 203T563 138Q563 95 536 59T459 4T353 -16Q291 -16 254 4T218 58Q218 80 231 98T270 130Q269 123 269 117Q270 85 296 68T361 51Q405 51 436 70T467 120Q467 145 446 167T381 217Q338 243 316 270T295 329Q295 367 317 396T388 452Q437 479 459 503T481 559Q481 591 455 612T393 634Q341 634 302 592T248 478L151 10Q131 -85 84 -135T-32 -186Q-94 -186 -122 -139Q-104 -142 -89 -142Q-36 -142 -3 -107T47 10L144 472Q167 580 241 638T418 696Z"
				   horiz-adv-x="616" unicode="ß"/>
			<glyph d="M491 486L415 142Q405 99 405 75Q405 53 416 41T452 27L290 -15L307 81Q277 39 230 12T139 -15Q86 -15 56 24T27 131Q27 218 68 298T178 427T321 476Q346 476 377 470T419 464Q450 464 491 486ZM314 417Q270 417 229 378T160 274T133 146Q133 105 148 82T191 60Q212 60 236 76Q261 93 282 120T317 189T345 287T359 370Q359 393 349 405T314 417ZM241 666H375L391 511Z"
				   unicode="à"/>
			<glyph d="M491 486L415 142Q405 99 405 75Q405 53 416 41T452 27L290 -15L307 81Q277 39 230 12T139 -15Q86 -15 56 24T27 131Q27 218 68 298T178 427T321 476Q346 476 377 470T419 464Q450 464 491 486ZM314 417Q270 417 229 378T160 274T133 146Q133 105 148 82T191 60Q212 60 236 76Q261 93 282 120T317 189T345 287T359 370Q359 393 349 405T314 417ZM350 666H488L274 511Z"
				   unicode="á"/>
			<glyph d="M491 486L415 142Q405 99 405 75Q405 53 416 41T452 27L290 -15L307 81Q277 39 230 12T139 -15Q86 -15 56 24T27 131Q27 218 68 298T178 427T321 476Q346 476 377 470T419 464Q450 464 491 486ZM314 417Q270 417 229 378T160 274T133 146Q133 105 148 82T191 60Q212 60 236 76Q261 93 282 120T317 189T345 287T359 370Q359 393 349 405T314 417ZM360 692L459 512L339 589L191 512Z"
				   unicode="â"/>
			<glyph d="M491 486L415 142Q405 99 405 75Q405 53 416 41T452 27L290 -15L307 81Q277 39 230 12T139 -15Q86 -15 56 24T27 131Q27 218 68 298T178 427T321 476Q346 476 377 470T419 464Q450 464 491 486ZM314 417Q270 417 229 378T160 274T133 146Q133 105 148 82T191 60Q212 60 236 76Q261 93 282 120T317 189T345 287T359 370Q359 393 349 405T314 417ZM464 691Q476 673 476 650Q476 614 450 586T389 558Q370 558 352 565T318 580T284 596T252 603Q207 603 200 537Q188 553 188 576Q188 615 212 641T273 668Q290 668 309 661T347 646T382 631T412 625Q436 625 448 642Q461 660 464 691Z"
				   unicode="ã"/>
			<glyph d="M491 486L415 142Q405 99 405 75Q405 53 416 41T452 27L290 -15L307 81Q277 39 230 12T139 -15Q86 -15 56 24T27 131Q27 218 68 298T178 427T321 476Q346 476 377 470T419 464Q450 464 491 486ZM314 417Q270 417 229 378T160 274T133 146Q133 105 148 82T191 60Q212 60 236 76Q261 93 282 120T317 189T345 287T359 370Q359 393 349 405T314 417ZM428 669Q451 669 464 655T478 619Q478 595 461 579T420 563Q398 563 384 577T371 613Q371 637 387 653T428 669ZM245 669Q267 669 280 655T294 619Q294 596 278 579Q262 563 237 563Q214 563 200 577T187 613Q187 637 204 653T245 669Z"
				   unicode="ä"/>
			<glyph d="M491 486L415 142Q405 99 405 75Q405 53 416 41T452 27L290 -15L307 81Q277 39 230 12T139 -15Q86 -15 56 24T27 131Q27 218 68 298T178 427T321 476Q346 476 377 470T419 464Q450 464 491 486ZM314 417Q270 417 229 378T160 274T133 146Q133 105 148 82T191 60Q212 60 236 76Q261 93 282 120T317 189T345 287T359 370Q359 393 349 405T314 417ZM326 704Q367 704 393 677T420 610Q420 569 393 542T326 516Q285 516 258 542T232 610Q232 651 259 677T326 704ZM326 665Q302 665 287 649T272 610Q272 587 287 570T326 554Q350 554 364 570T378 610Q378 635 363 650T326 665Z"
				   unicode="å"/>
			<glyph d="M276 486Q330 486 364 463T405 400Q444 438 492 461T591 485Q643 485 674 456T705 379Q705 330 673 297T577 243T391 210Q387 188 387 175Q387 122 415 89T489 57Q531 57 574 78T650 133Q638 90 606 56T530 3T442 -16Q396 -16 361 4T308 65Q250 -15 124 -15Q70 -15 35 13T1 87Q1 157 71 198T303 256L314 306Q322 347 322 359Q322 391 304 408T252 426Q212 426 183 406T155 358Q155 348 159 339T171 328L58 298Q54 312 54 326Q54 372 83 407T164 464T276 486ZM565 422Q515 422 467 376T399 264Q491 274 532 286Q573 299 593 319T614 371Q614 395 601 408T565 422ZM292 202Q184 190 141 167T98 104Q98 80 115 64T163 49Q202 49 236 73T278 136Z"
				   horiz-adv-x="700" unicode="æ"/>
			<glyph d="M323 484Q371 484 396 464T422 412Q422 377 395 343T334 301Q342 318 342 341Q342 374 327 394T287 415Q248 415 211 382T153 295T132 185Q132 123 159 89T237 55Q271 55 312 76T385 132Q367 72 313 31T197 -15L179 -37Q213 -42 228 -58T243 -95Q243 -129 209 -155T127 -181Q81 -181 52 -159Q67 -162 84 -162Q123 -162 146 -145T169 -105Q169 -90 153 -77T104 -63L145 -13Q88 -4 56 39T25 154Q25 238 66 315T177 438T323 484Z"
				   horiz-adv-x="420" unicode="ç"/>
			<glyph d="M332 485Q381 485 412 459T443 390Q443 335 400 288T282 212T130 179V172Q130 120 157 88T230 57Q269 57 314 78T391 133Q379 90 347 56T271 3T183 -16Q111 -16 68 29T26 152Q26 233 69 311T184 437T332 485ZM305 422Q273 422 236 396T170 328T131 235Q189 238 244 259T327 310T355 375Q355 396 341 409T305 422ZM212 666H346L362 511Z"
				   horiz-adv-x="445" unicode="è"/>
			<glyph d="M332 485Q381 485 412 459T443 390Q443 335 400 288T282 212T130 179V172Q130 120 157 88T230 57Q269 57 314 78T391 133Q379 90 347 56T271 3T183 -16Q111 -16 68 29T26 152Q26 233 69 311T184 437T332 485ZM305 422Q273 422 236 396T170 328T131 235Q189 238 244 259T327 310T355 375Q355 396 341 409T305 422ZM321 666H459L245 511Z"
				   horiz-adv-x="445" unicode="é"/>
			<glyph d="M332 485Q381 485 412 459T443 390Q443 335 400 288T282 212T130 179V172Q130 120 157 88T230 57Q269 57 314 78T391 133Q379 90 347 56T271 3T183 -16Q111 -16 68 29T26 152Q26 233 69 311T184 437T332 485ZM305 422Q273 422 236 396T170 328T131 235Q189 238 244 259T327 310T355 375Q355 396 341 409T305 422ZM337 692L436 512L316 589L168 512Z"
				   horiz-adv-x="445" unicode="ê"/>
			<glyph d="M332 485Q381 485 412 459T443 390Q443 335 400 288T282 212T130 179V172Q130 120 157 88T230 57Q269 57 314 78T391 133Q379 90 347 56T271 3T183 -16Q111 -16 68 29T26 152Q26 233 69 311T184 437T332 485ZM305 422Q273 422 236 396T170 328T131 235Q189 238 244 259T327 310T355 375Q355 396 341 409T305 422ZM403 669Q426 669 439 655T453 619Q453 595 436 579T395 563Q373 563 359 577T346 613Q346 637 362 653T403 669ZM220 669Q242 669 255 655T269 619Q269 596 253 579Q237 563 212 563Q189 563 175 577T162 613Q162 637 179 653T220 669Z"
				   horiz-adv-x="445" unicode="ë"/>
			<glyph d="M229 486L148 109Q141 79 141 52Q141 29 147 15T160 0H20L104 381Q106 393 106 400Q106 417 91 430T59 443ZM98 666H232L248 511Z"
				   horiz-adv-x="247" unicode="ì"/>
			<glyph d="M229 486L148 109Q141 79 141 52Q141 29 147 15T160 0H20L104 381Q106 393 106 400Q106 417 91 430T59 443ZM187 666H325L111 511Z"
				   horiz-adv-x="247" unicode="í"/>
			<glyph d="M229 486L148 109Q141 79 141 52Q141 29 147 15T160 0H20L104 381Q106 393 106 400Q106 417 91 430T59 443ZM213 692L312 512L192 589L44 512Z"
				   horiz-adv-x="247" unicode="î"/>
			<glyph d="M229 486L148 109Q141 79 141 52Q141 27 147 14T160 0H20L104 381Q106 395 106 400Q106 417 91 430T59 443ZM288 669Q311 669 324 655T337 619Q337 594 320 578T280 563Q257 563 243 577T230 613Q230 636 246 652T288 669ZM114 669Q137 669 150 655T163 619Q163 594 146 578T106 563Q83 563 70 577T57 613Q57 637 73 653T114 669Z"
				   horiz-adv-x="247" unicode="ï"/>
			<glyph d="M321 693Q357 667 383 638L517 692V646L412 604Q483 508 483 369Q483 265 444 174T340 35T197 -13Q121 -13 77 36T33 168Q33 250 71 324T170 441T294 484Q325 484 351 467T393 419Q367 504 313 566L180 513V558L277 597Q243 625 201 640ZM299 417Q261 417 224 380T162 277T136 155Q136 109 155 81T208 53Q248 53 284 91T345 194T370 314Q370 361 350 389T299 417Z"
				   horiz-adv-x="516" unicode="ð"/>
			<glyph d="M221 486L203 399Q237 438 285 461T377 485Q474 485 474 395Q474 374 463 321L420 109Q414 83 414 59Q414 33 420 17T435 0H293L359 300Q368 337 368 358Q367 416 319 416Q293 416 263 396T212 345T183 277L123 0H21L104 380Q106 390 106 399Q106 416 94 428T59 443ZM463 691Q475 673 475 650Q475 614 449 586T388 558Q369 558 351 565T317 580T283 596T251 603Q206 603 199 537Q187 553 187 576Q187 615 211 641T272 668Q289 668 308 661T346 646T381 631T411 625Q435 625 447 642Q460 660 463 691Z"
				   unicode="ñ"/>
			<glyph d="M297 484Q349 484 387 460T445 394T466 297Q466 219 429 145Q392 72 329 29T194 -14Q142 -14 104 9T46 76T27 173Q27 250 64 323T163 440T297 484ZM287 418Q248 418 213 383T155 281T131 161Q131 111 151 81T205 52Q243 52 277 86Q312 120 336 185T360 308Q360 359 340 388T287 418ZM226 666H360L376 511Z"
				   horiz-adv-x="493" unicode="ò"/>
			<glyph d="M297 484Q349 484 387 460T445 394T466 297Q466 219 429 145Q392 72 329 29T194 -14Q142 -14 104 9T46 76T27 173Q27 250 64 323T163 440T297 484ZM287 418Q248 418 213 383T155 281T131 161Q131 111 151 81T205 52Q243 52 277 86Q312 120 336 185T360 308Q360 359 340 388T287 418ZM345 666H483L269 511Z"
				   horiz-adv-x="493" unicode="ó"/>
			<glyph d="M297 484Q349 484 387 460T445 394T466 297Q466 219 429 145Q392 72 329 29T194 -14Q142 -14 104 9T46 76T27 173Q27 250 64 323T163 440T297 484ZM287 418Q248 418 213 383T155 281T131 161Q131 111 151 81T205 52Q243 52 277 86Q312 120 336 185T360 308Q360 359 340 388T287 418ZM343 692L442 512L322 589L174 512Z"
				   horiz-adv-x="493" unicode="ô"/>
			<glyph d="M297 484Q349 484 387 460T445 394T466 297Q466 219 429 145Q392 72 329 29T194 -14Q142 -14 104 9T46 76T27 173Q27 250 64 323T163 440T297 484ZM287 418Q248 418 213 383T155 281T131 161Q131 111 151 81T205 52Q243 52 277 86Q312 120 336 185T360 308Q360 359 340 388T287 418ZM458 691Q470 673 470 650Q470 614 444 586T383 558Q364 558 346 565T312 580T278 596T246 603Q201 603 194 537Q182 553 182 576Q182 615 206 641T267 668Q284 668 303 661T341 646T376 631T406 625Q430 625 442 642Q455 660 458 691Z"
				   horiz-adv-x="493" unicode="õ"/>
			<glyph d="M297 484Q349 484 387 460T445 394T466 297Q466 219 429 145Q392 72 329 29T194 -14Q142 -14 104 9T46 76T27 173Q27 250 64 323T163 440T297 484ZM287 418Q248 418 213 383T155 281T131 161Q131 111 151 81T205 52Q243 52 277 86Q312 120 336 185T360 308Q360 359 340 388T287 418ZM412 669Q435 669 448 655T462 619Q462 595 445 579T404 563Q382 563 368 577T355 613Q355 637 371 653T412 669ZM229 669Q251 669 264 655T278 619Q278 596 262 579Q246 563 221 563Q198 563 184 577T171 613Q171 637 188 653T229 669Z"
				   horiz-adv-x="493" unicode="ö"/>
			<glyph d="M81 319H628L613 249H66ZM312 150Q338 150 351 134T365 95Q365 69 347 51T304 34Q278 34 263 50T249 89Q249 115 267 132T312 150ZM393 536Q418 536 432 520T447 481Q447 455 429 437T385 420Q358 420 344 435T330 474Q330 500 347 518T393 536Z"
				   horiz-adv-x="676" unicode="÷"/>
			<glyph d="M451 513L496 498L430 423Q467 375 467 303Q467 222 427 146T324 29T189 -13Q130 -13 91 19L46 -30L0 -17L59 50Q25 99 25 168Q25 250 63 324T165 441T301 484Q360 484 398 453ZM291 417Q252 417 215 381T154 283T129 167Q129 147 131 139L345 388Q327 417 291 417ZM358 333L144 84Q162 53 200 53Q240 53 276 89T336 187T361 303Q361 320 358 333Z"
				   horiz-adv-x="488" unicode="ø"/>
			<glyph d="M227 486L154 153Q149 133 149 109Q149 55 196 55Q237 55 279 97T334 195L369 355Q376 388 376 402Q376 422 365 430T332 443L500 486L443 233Q410 88 410 67Q410 35 447 29L454 28L296 -15L314 73Q286 36 236 11T140 -14Q43 -14 43 76Q43 99 50 132L96 354Q101 381 101 398Q101 418 92 429T59 443ZM214 666H348L364 511Z"
				   horiz-adv-x="518" unicode="ù"/>
			<glyph d="M227 486L154 153Q149 133 149 109Q149 55 196 55Q237 55 279 97T334 195L369 355Q376 388 376 402Q376 422 365 430T332 443L500 486L443 233Q410 88 410 67Q410 35 447 29L454 28L296 -15L314 73Q286 36 236 11T140 -14Q43 -14 43 76Q43 99 50 132L96 354Q101 381 101 398Q101 418 92 429T59 443ZM348 666H486L272 511Z"
				   horiz-adv-x="518" unicode="ú"/>
			<glyph d="M227 486L154 153Q149 133 149 109Q149 55 196 55Q237 55 279 97T334 195L369 355Q376 388 376 402Q376 422 365 430T332 443L500 486L443 233Q410 88 410 67Q410 35 447 29L454 28L296 -15L314 73Q286 36 236 11T140 -14Q43 -14 43 76Q43 99 50 132L96 354Q101 381 101 398Q101 418 92 429T59 443ZM349 692L448 512L328 589L180 512Z"
				   horiz-adv-x="518" unicode="û"/>
			<glyph d="M227 486L154 153Q149 133 149 109Q149 55 196 55Q237 55 279 97T334 195L369 355Q376 388 376 402Q376 422 365 430T332 443L500 486L443 233Q410 88 410 67Q410 35 447 29L454 28L296 -15L314 73Q286 36 236 11T140 -14Q43 -14 43 76Q43 99 50 132L96 354Q101 381 101 398Q101 418 92 429T59 443ZM429 669Q452 669 465 655T479 619Q479 595 462 579T421 563Q399 563 385 577T372 613Q372 637 388 653T429 669ZM246 669Q268 669 281 655T295 619Q295 596 279 579Q263 563 238 563Q215 563 201 577T188 613Q188 637 205 653T246 669Z"
				   horiz-adv-x="518" unicode="ü"/>
			<glyph d="M177 485L252 102Q301 173 347 267T394 412Q394 436 384 450T357 468H509Q495 420 452 330T351 147T233 -22T113 -144T12 -191Q-24 -191 -42 -173T-60 -129Q-60 -117 -53 -97Q-33 -115 1 -115Q35 -115 79 -85T171 0L92 379Q85 412 69 426T21 444ZM350 666H488L274 511Z"
				   horiz-adv-x="497" unicode="ý"/>
			<glyph d="M272 696L205 396Q238 438 282 462T370 486Q425 486 456 443T487 329Q487 244 445 160T340 32T200 -13Q147 -13 126 22L81 -186H-21L146 591Q148 598 148 611Q148 628 137 638T103 653ZM318 409Q297 409 273 395T228 357T191 302T162 209T148 118Q148 86 163 68T205 51Q249 51 289 88T353 191T378 316Q378 360 362 384T318 409Z"
				   horiz-adv-x="514" unicode="þ"/>
			<glyph d="M177 485L252 102Q301 173 347 267T394 412Q394 436 384 450T357 468H509Q495 420 452 330T351 147T233 -22T113 -144T12 -191Q-24 -191 -42 -173T-60 -129Q-60 -117 -53 -97Q-33 -115 1 -115Q35 -115 79 -85T171 0L92 379Q85 412 69 426T21 444ZM403 669Q426 669 439 655T453 619Q453 595 436 579T395 563Q373 563 359 577T346 613Q346 637 362 653T403 669ZM220 669Q242 669 255 655T269 619Q269 596 253 579Q237 563 212 563Q189 563 175 577T162 613Q162 637 179 653T220 669Z"
				   horiz-adv-x="497" unicode="ÿ"/>
			<glyph d="M423 673H506L569 103Q574 59 586 31T615 0H426Q442 4 450 21T459 68Q459 80 448 175H197L155 106Q124 54 124 29Q124 5 144 0H-31Q-17 3 9 33T63 107ZM412 521L240 243H440ZM331 815H645L635 763H321Z"
				   horiz-adv-x="685" unicode="Ā"/>
			<glyph d="M491 486L415 142Q405 99 405 75Q405 53 416 41T452 27L290 -15L307 81Q277 39 230 12T139 -15Q86 -15 56 24T27 131Q27 218 68 298T178 427T321 476Q346 476 377 470T419 464Q450 464 491 486ZM314 417Q270 417 229 378T160 274T133 146Q133 105 148 82T191 60Q212 60 236 76Q261 93 282 120T317 189T345 287T359 370Q359 393 349 405T314 417ZM182 633H496L486 581H172Z"
				   unicode="ā"/>
			<glyph d="M423 673H506L569 103Q574 59 586 31T615 0H426Q442 4 450 21T459 68Q459 80 448 175H197L155 106Q124 54 124 29Q124 5 144 0H-31Q-17 3 9 33T63 107ZM412 521L240 243H440ZM391 877Q399 843 425 823T489 803Q524 803 558 821Q593 840 619 877Q605 811 564 770T474 730Q434 730 410 758T386 832Q386 850 391 877Z"
				   horiz-adv-x="685" unicode="Ă"/>
			<glyph d="M491 486L415 142Q405 99 405 75Q405 53 416 41T452 27L290 -15L307 81Q277 39 230 12T139 -15Q86 -15 56 24T27 131Q27 218 68 298T178 427T321 476Q346 476 377 470T419 464Q450 464 491 486ZM314 417Q270 417 229 378T160 274T133 146Q133 105 148 82T191 60Q212 60 236 76Q261 93 282 120T317 189T345 287T359 370Q359 393 349 405T314 417ZM242 692Q250 659 276 639T340 619Q375 619 409 637Q444 655 470 692Q456 626 414 585T325 545Q285 545 261 573T237 648Q237 667 242 692Z"
				   unicode="ă"/>
			<glyph d="M423 673H506L569 103Q574 58 586 31T614 0Q581 -5 555 -19T513 -53T497 -91Q497 -129 541 -130Q568 -130 604 -113Q588 -145 558 -163T497 -182Q466 -182 446 -165T426 -122Q426 -87 449 -54T508 0H427Q440 3 449 20T459 68Q459 88 448 175H197L155 106Q124 55 124 29Q124 15 130 8T143 0H-30Q-18 2 7 31T63 107ZM412 521L240 243H440Z"
				   horiz-adv-x="685" unicode="Ą"/>
			<glyph d="M491 486L415 142Q405 99 405 75Q405 36 445 28L452 26Q378 5 338 -26T298 -91Q298 -130 343 -130Q370 -130 406 -113Q390 -144 360 -163T298 -182Q266 -182 246 -165T227 -119Q227 -63 294 -10L307 81Q277 39 231 12T139 -15Q85 -15 56 23T27 129Q27 221 68 300T182 427T336 475Q355 474 378 469T422 464Q455 464 491 486ZM313 417Q268 417 227 378T160 273T133 146Q133 104 148 81T190 59Q220 59 254 92Q289 125 314 179Q328 214 343 278T359 369Q359 417 313 417Z"
				   unicode="ą"/>
			<glyph d="M448 680Q493 680 531 669T591 642L559 494Q535 609 436 609Q371 609 310 557T212 419T175 245Q175 159 215 110T324 61Q373 61 418 83T500 151L479 54Q447 21 394 2T282 -16Q216 -16 163 15T82 106T53 241Q53 354 110 459T256 622T448 680ZM429 853H567L353 698Z"
				   horiz-adv-x="552" unicode="Ć"/>
			<glyph d="M330 485Q373 485 398 467T423 417Q423 383 397 348Q372 313 335 301Q343 314 343 341Q343 377 327 396T284 415Q246 415 210 381T154 291T133 179Q133 120 160 88T236 56Q272 56 310 76T381 133Q362 69 304 26T178 -16Q108 -16 67 28T27 147Q27 234 68 313T179 439T330 485ZM322 666H460L246 511Z"
				   horiz-adv-x="420" unicode="ć"/>
			<glyph d="M448 680Q493 680 531 669T591 642L559 494Q535 609 436 609Q371 609 310 557T212 419T175 245Q175 159 215 110T324 61Q373 61 418 83T500 151L479 54Q447 21 394 2T282 -16Q216 -16 163 15T82 106T53 241Q53 354 110 459T256 622T448 680ZM463 880L572 699L442 776L284 699Z"
				   horiz-adv-x="552" unicode="Ĉ"/>
			<glyph d="M330 485Q373 485 398 467T423 417Q423 383 397 348Q372 313 335 301Q343 314 343 341Q343 377 327 396T284 415Q246 415 210 381T154 291T133 179Q133 120 160 88T236 56Q272 56 310 76T381 133Q362 69 304 26T178 -16Q108 -16 67 28T27 147Q27 234 68 313T179 439T330 485ZM330 692L429 512L309 589L161 512Z"
				   horiz-adv-x="420" unicode="ĉ"/>
			<glyph d="M448 680Q493 680 531 669T591 642L559 494Q535 609 436 609Q371 609 310 557T212 419T175 245Q175 159 215 110T324 61Q373 61 418 83T500 151L479 54Q447 21 394 2T282 -16Q216 -16 163 15T82 106T53 241Q53 354 110 459T256 622T448 680ZM460 856Q486 856 501 840T517 798Q517 770 498 751Q480 732 451 732Q424 732 408 748T393 790Q393 818 412 837T460 856Z"
				   horiz-adv-x="552" unicode="Ċ"/>
			<glyph d="M330 485Q373 485 398 467T423 417Q423 383 397 348Q372 313 335 301Q343 314 343 341Q343 377 327 396T284 415Q246 415 210 381T154 291T133 179Q133 120 160 88T236 56Q272 56 310 76T381 133Q362 69 304 26T178 -16Q108 -16 67 28T27 147Q27 234 68 313T179 439T330 485ZM322 676Q348 676 363 660T379 618Q379 590 360 571Q342 552 313 552Q286 552 270 568T255 610Q255 638 274 657T322 676Z"
				   horiz-adv-x="420" unicode="ċ"/>
			<glyph d="M448 680Q493 680 531 669T591 642L559 494Q535 609 436 609Q371 609 310 557T212 419T175 245Q175 159 215 110T324 61Q373 61 418 83T500 151L479 54Q447 21 394 2T282 -16Q216 -16 163 15T82 106T53 241Q53 354 110 459T256 622T448 680ZM313 886L443 808L601 886L422 704Z"
				   horiz-adv-x="552" unicode="Č"/>
			<glyph d="M330 485Q373 485 398 467T423 417Q423 383 397 348Q372 313 335 301Q343 314 343 341Q343 377 327 396T284 415Q246 415 210 381T154 291T133 179Q133 120 160 88T236 56Q272 56 310 76T381 133Q362 69 304 26T178 -16Q108 -16 67 28T27 147Q27 234 68 313T179 439T330 485ZM189 697L309 619L457 697L288 517Z"
				   horiz-adv-x="420" unicode="č"/>
			<glyph d="M135 666H380Q501 666 572 589T644 382Q644 278 594 188T462 49T274 0H1Q19 3 35 28T58 90L162 584Q166 606 166 615Q166 656 135 666ZM277 599L166 68H274Q341 68 397 110T489 231T524 395Q524 491 481 545T363 599ZM275 886L405 808L563 886L384 704Z"
				   horiz-adv-x="654" unicode="Ď"/>
			<glyph d="M544 696L419 119Q413 90 413 73Q413 51 425 40T464 26L297 -15L317 80Q245 -14 146 -14Q91 -14 59 26T28 138Q28 222 68 305T171 436T306 485Q364 485 387 443L420 593Q421 599 421 608Q420 646 369 653ZM302 418Q262 418 224 380T161 277T136 153Q136 107 151 82T193 57Q220 57 247 75T297 124T332 191T353 274T363 343Q363 418 302 418ZM610 682H713L554 501Z"
				   horiz-adv-x="516" unicode="ď"/>
			<glyph d="M135 666H381Q502 666 573 589T644 382Q644 279 595 189T462 49T273 0H1Q20 5 35 29T58 90L103 302H25L37 361H115L162 584Q166 606 166 615Q166 656 135 666ZM277 599L227 361H352L340 302H215L166 68H274Q342 68 398 111T489 233T524 395Q524 491 481 545T363 599Z"
				   horiz-adv-x="654" unicode="Đ"/>
			<glyph d="M544 696L522 593H579L569 546H511L419 119Q413 93 413 79Q413 49 426 37T463 26L296 -15L317 80Q282 35 239 10T150 -14Q93 -14 60 27T27 138Q27 223 67 305T170 435T300 484Q331 484 352 475T386 443L409 546H237L247 593H418L421 608Q420 627 404 640T368 653ZM302 418Q261 418 222 378T159 274T135 153Q135 107 150 82T193 57Q229 57 265 90T320 167T351 260T363 343Q363 418 302 418Z"
				   horiz-adv-x="516" unicode="đ"/>
			<glyph d="M147 666H577L547 523Q545 562 524 579T450 596H290L244 376H378Q411 376 434 384T464 408L436 272Q431 292 415 300T364 308H230L181 70H343Q403 70 432 86T489 151L457 0H1Q25 5 43 26T69 83L170 552Q181 606 181 614Q181 634 171 648T147 666ZM238 815H552L542 763H228Z"
				   horiz-adv-x="546" unicode="Ē"/>
			<glyph d="M332 485Q381 485 412 459T443 390Q443 335 400 288T282 212T130 179V172Q130 120 157 88T230 57Q269 57 314 78T391 133Q379 90 347 56T271 3T183 -16Q111 -16 68 29T26 152Q26 233 69 311T184 437T332 485ZM305 422Q273 422 236 396T170 328T131 235Q189 238 244 259T327 310T355 375Q355 396 341 409T305 422ZM162 633H476L466 581H152Z"
				   horiz-adv-x="445" unicode="ē"/>
			<glyph d="M147 666H577L547 523Q545 562 524 579T450 596H290L244 376H378Q411 376 434 384T464 408L436 272Q431 292 415 300T364 308H230L181 70H343Q403 70 432 86T489 151L457 0H1Q25 5 43 26T69 83L170 552Q181 606 181 614Q181 634 171 648T147 666ZM304 877Q312 843 338 823T402 803Q437 803 471 821Q506 840 532 877Q518 811 477 770T387 730Q347 730 323 758T299 832Q299 850 304 877Z"
				   horiz-adv-x="546" unicode="Ĕ"/>
			<glyph d="M332 485Q381 485 412 459T443 390Q443 335 400 288T282 212T130 179V172Q130 120 157 88T230 57Q269 57 314 78T391 133Q379 90 347 56T271 3T183 -16Q111 -16 68 29T26 152Q26 233 69 311T184 437T332 485ZM305 422Q273 422 236 396T170 328T131 235Q189 238 244 259T327 310T355 375Q355 396 341 409T305 422ZM223 692Q231 659 257 639T321 619Q356 619 390 637Q425 655 451 692Q437 626 395 585T306 545Q266 545 242 573T218 648Q218 667 223 692Z"
				   horiz-adv-x="445" unicode="ĕ"/>
			<glyph d="M147 666H577L547 523Q545 562 524 579T450 596H290L244 376H378Q411 376 434 384T464 408L436 272Q431 292 415 300T364 308H230L181 70H343Q403 70 432 86T489 151L457 0H1Q25 5 43 26T69 83L170 552Q181 606 181 614Q181 634 171 648T147 666ZM401 856Q427 856 442 840T458 798Q458 770 439 751Q421 732 392 732Q365 732 349 748T334 790Q334 818 353 837T401 856Z"
				   horiz-adv-x="546" unicode="Ė"/>
			<glyph d="M332 485Q381 485 412 459T443 390Q443 335 400 288T282 212T130 179V172Q130 120 157 88T230 57Q269 57 314 78T391 133Q379 90 347 56T271 3T183 -16Q111 -16 68 29T26 152Q26 233 69 311T184 437T332 485ZM305 422Q273 422 236 396T170 328T131 235Q189 238 244 259T327 310T355 375Q355 396 341 409T305 422ZM322 676Q348 676 363 660T379 618Q379 590 360 571Q342 552 313 552Q286 552 270 568T255 610Q255 638 274 657T322 676Z"
				   horiz-adv-x="445" unicode="ė"/>
			<glyph d="M147 666H577L547 523Q546 562 525 579T450 596H290L244 376H378Q411 376 433 384T464 408L436 272Q435 308 364 308H230L181 70H343Q403 70 435 88T491 157L457 0Q411 -4 374 -32T338 -91Q338 -130 382 -130Q412 -130 445 -114Q429 -145 399 -163T338 -182Q306 -182 286 -165T267 -120Q267 -87 290 -55T353 0H1Q25 5 43 26T69 83L177 587Q181 603 181 614Q181 634 171 648T147 666Z"
				   horiz-adv-x="546" unicode="Ę"/>
			<glyph d="M332 483Q383 483 414 457T445 386Q445 336 402 289T287 212T130 179Q130 126 158 91T230 56Q267 56 312 77T391 132Q379 89 352 61T290 12L255 -7Q191 -43 191 -91Q191 -130 235 -130Q264 -130 298 -113Q282 -145 252 -163T191 -182Q161 -182 140 -163T119 -118Q119 -66 180 -15Q108 -15 67 29T27 154Q27 235 70 312T185 436T332 483ZM305 422Q273 422 236 396T170 327T131 234Q179 235 235 255Q291 276 322 307T353 373Q353 394 341 408T305 422Z"
				   horiz-adv-x="445" unicode="ę"/>
			<glyph d="M147 666H577L547 523Q545 562 524 579T450 596H290L244 376H378Q411 376 434 384T464 408L436 272Q431 292 415 300T364 308H230L181 70H343Q403 70 432 86T489 151L457 0H1Q25 5 43 26T69 83L170 552Q181 606 181 614Q181 634 171 648T147 666ZM270 886L400 808L558 886L379 704Z"
				   horiz-adv-x="546" unicode="Ě"/>
			<glyph d="M332 485Q381 485 412 459T443 390Q443 335 400 288T282 212T130 179V172Q130 120 157 88T230 57Q269 57 314 78T391 133Q379 90 347 56T271 3T183 -16Q111 -16 68 29T26 152Q26 233 69 311T184 437T332 485ZM305 422Q273 422 236 396T170 328T131 235Q189 238 244 259T327 310T355 375Q355 396 341 409T305 422ZM202 697L322 619L470 697L301 517Z"
				   horiz-adv-x="445" unicode="ě"/>
			<glyph d="M475 681Q516 681 559 670T628 641L596 494Q577 609 455 609Q383 609 316 556T212 419T174 240Q174 153 213 102T324 52Q339 52 362 57T403 71L434 226Q437 238 437 250Q437 291 403 302H604Q583 296 568 278T548 232L506 34Q468 11 410 -3T299 -17Q185 -17 119 51T53 240Q53 353 112 458T268 622T475 681ZM500 880L609 699L479 776L321 699Z"
				   horiz-adv-x="617" unicode="Ĝ"/>
			<glyph d="M526 487L509 411H412Q425 399 433 376T441 329Q441 254 377 204T221 154Q206 154 192 156Q131 129 131 111Q131 101 151 92T220 74Q305 57 344 40T402 1T422 -53Q422 -92 392 -123T301 -174T172 -193Q74 -193 16 -165T-41 -88Q-41 -54 0 -23T105 22Q67 33 47 50T28 88Q28 110 54 133T128 175Q97 191 77 220T58 290Q58 345 88 390T170 459T283 484Q314 484 363 472Q381 467 431 467Q491 467 526 487ZM263 425Q218 425 188 390T159 300Q159 258 180 235T238 213Q283 213 313 248T343 335Q343 376 321 400T263 425ZM169 4Q116 -10 85 -30T55 -74Q55 -102 90 -118T188 -135Q244 -135 280 -118T316 -75Q316 -47 285 -29T169 4ZM328 692L427 512L307 589L159 512Z"
				   horiz-adv-x="499" unicode="ĝ"/>
			<glyph d="M475 681Q516 681 559 670T628 641L596 494Q577 609 455 609Q383 609 316 556T212 419T174 240Q174 153 213 102T324 52Q339 52 362 57T403 71L434 226Q437 238 437 250Q437 291 403 302H604Q583 296 568 278T548 232L506 34Q468 11 410 -3T299 -17Q185 -17 119 51T53 240Q53 353 112 458T268 622T475 681ZM374 877Q382 843 408 823T472 803Q507 803 541 821Q576 840 602 877Q588 811 547 770T457 730Q417 730 393 758T369 832Q369 850 374 877Z"
				   horiz-adv-x="617" unicode="Ğ"/>
			<glyph d="M526 487L509 411H412Q425 399 433 376T441 329Q441 254 377 204T221 154Q206 154 192 156Q131 129 131 111Q131 101 151 92T220 74Q305 57 344 40T402 1T422 -53Q422 -92 392 -123T301 -174T172 -193Q74 -193 16 -165T-41 -88Q-41 -54 0 -23T105 22Q67 33 47 50T28 88Q28 110 54 133T128 175Q97 191 77 220T58 290Q58 345 88 390T170 459T283 484Q314 484 363 472Q381 467 431 467Q491 467 526 487ZM263 425Q218 425 188 390T159 300Q159 258 180 235T238 213Q283 213 313 248T343 335Q343 376 321 400T263 425ZM169 4Q116 -10 85 -30T55 -74Q55 -102 90 -118T188 -135Q244 -135 280 -118T316 -75Q316 -47 285 -29T169 4ZM220 692Q228 659 254 639T318 619Q353 619 387 637Q422 655 448 692Q434 626 392 585T303 545Q263 545 239 573T215 648Q215 667 220 692Z"
				   horiz-adv-x="499" unicode="ğ"/>
			<glyph d="M475 681Q516 681 559 670T628 641L596 494Q577 609 455 609Q383 609 316 556T212 419T174 240Q174 153 213 102T324 52Q339 52 362 57T403 71L434 226Q437 238 437 250Q437 291 403 302H604Q583 296 568 278T548 232L506 34Q468 11 410 -3T299 -17Q185 -17 119 51T53 240Q53 353 112 458T268 622T475 681ZM478 856Q504 856 519 840T535 798Q535 770 516 751Q498 732 469 732Q442 732 426 748T411 790Q411 818 430 837T478 856Z"
				   horiz-adv-x="617" unicode="Ġ"/>
			<glyph d="M526 487L509 411H412Q425 399 433 376T441 329Q441 254 377 204T221 154Q206 154 192 156Q131 129 131 111Q131 101 151 92T220 74Q305 57 344 40T402 1T422 -53Q422 -92 392 -123T301 -174T172 -193Q74 -193 16 -165T-41 -88Q-41 -54 0 -23T105 22Q67 33 47 50T28 88Q28 110 54 133T128 175Q97 191 77 220T58 290Q58 345 88 390T170 459T283 484Q314 484 363 472Q381 467 431 467Q491 467 526 487ZM263 425Q218 425 188 390T159 300Q159 258 180 235T238 213Q283 213 313 248T343 335Q343 376 321 400T263 425ZM169 4Q116 -10 85 -30T55 -74Q55 -102 90 -118T188 -135Q244 -135 280 -118T316 -75Q316 -47 285 -29T169 4ZM309 676Q335 676 350 660T366 618Q366 590 347 571Q329 552 300 552Q273 552 257 568T242 610Q242 638 261 657T309 676Z"
				   horiz-adv-x="499" unicode="ġ"/>
			<glyph d="M475 681Q516 681 559 670T628 641L596 494Q577 609 455 609Q383 609 316 556T212 419T174 240Q174 153 213 102T324 52Q339 52 362 57T403 71L434 226Q437 238 437 250Q437 291 403 302H604Q583 296 568 278T548 232L506 34Q468 11 410 -3T299 -17Q185 -17 119 51T53 240Q53 353 112 458T268 622T475 681ZM274 -38Q295 -38 309 -53T324 -90Q324 -128 294 -154T222 -183H210Q235 -177 253 -157T275 -116Q257 -116 245 -105T233 -79Q233 -62 245 -50T274 -38Z"
				   horiz-adv-x="617" unicode="Ģ"/>
			<glyph d="M357 671L366 670Q342 665 323 645T302 603Q322 603 333 592T344 566Q344 551 332 538T302 525Q282 525 267 540T252 578Q252 616 282 643T357 671ZM526 487L509 411H412Q425 399 433 376T441 329Q441 254 377 204T221 154Q206 154 192 156Q131 129 131 111Q131 101 151 92T220 74Q305 57 344 40T402 1T422 -53Q422 -92 392 -123T301 -174T172 -193Q74 -193 16 -165T-41 -88Q-41 -54 0 -23T105 22Q67 33 47 50T28 88Q28 110 54 133T128 175Q97 191 77 220T58 290Q58 345 88 390T170 459T283 484Q314 484 363 472Q381 467 431 467Q491 467 526 487ZM263 425Q218 425 188 390T159 300Q159 258 180 235T238 213Q283 213 313 248T343 335Q343 376 321 400T263 425ZM169 4Q116 -10 85 -30T55 -74Q55 -102 90 -118T188 -135Q244 -135 280 -118T316 -75Q316 -47 285 -29T169 4Z"
				   horiz-adv-x="499" unicode="ģ"/>
			<glyph d="M139 666H343Q320 660 303 640T281 591L235 376H524L569 587Q573 608 573 617Q573 636 565 649T542 666H746Q722 659 706 639T684 591L574 76Q570 59 570 49Q570 29 579 16T602 0H400Q421 4 436 22T459 72L509 308H221L172 76Q169 61 169 50Q169 35 173 25T185 8T201 0H-1Q18 3 34 22T58 72L168 587Q171 604 171 616Q171 635 162 648T139 666ZM479 880L588 699L458 776L300 699Z"
				   horiz-adv-x="696" unicode="Ĥ"/>
			<glyph d="M274 696L208 401Q237 437 286 461T380 485Q424 485 448 462T473 395Q473 369 466 339L419 109Q413 82 413 58Q413 32 420 17T434 0H292L354 280Q367 339 367 358Q366 416 318 416Q292 416 263 397T212 347T183 283L122 0H20L149 591Q151 601 151 612Q151 628 139 639T105 653ZM376 880L485 699L355 776L197 699Z"
				   unicode="ĥ"/>
			<glyph d="M141 666H342Q292 647 281 591L270 538H559L569 587Q573 611 573 617Q573 655 543 666H744Q694 647 684 591L574 76Q570 59 570 49Q570 30 578 15T599 0H401Q418 2 435 21T459 72L509 307H220L171 76Q168 61 168 49Q168 30 177 15T197 0H0Q9 1 21 10T42 34T57 72L165 575Q170 602 170 616Q170 654 141 666ZM256 478L235 376H524L545 478Z"
				   horiz-adv-x="696" unicode="Ħ"/>
			<glyph d="M273 696L251 596H420L410 544H239L207 397Q236 434 285 459T379 485Q425 485 449 461T473 395Q473 375 468 348L418 109Q413 86 413 58Q413 32 419 17T433 0H292L359 304Q367 343 367 357Q367 383 355 398T321 413Q271 413 231 368T175 247L122 0H20L138 544H96L106 596H147Q150 606 150 616Q150 650 105 653Z"
				   unicode="ħ"/>
			<glyph d="M142 666H344Q320 660 304 640T282 591L173 76Q169 55 169 48Q169 25 178 13T198 0H-1Q20 4 35 22T58 72L168 587Q172 608 172 616Q172 637 163 650T142 666ZM391 862Q403 844 403 821Q403 785 377 757T316 729Q298 729 280 735T245 751T210 766T179 773Q134 773 127 707Q115 726 115 746Q115 787 139 813T200 839Q219 839 238 832T275 817T309 802T339 796Q363 796 375 813Q388 831 391 862Z"
				   horiz-adv-x="295" unicode="Ĩ"/>
			<glyph d="M229 486L148 109Q141 79 141 52Q141 29 147 15T160 0H20L104 381Q106 393 106 400Q106 417 91 430T59 443ZM326 691Q338 673 338 650Q338 614 312 586T251 558Q232 558 214 565T180 580T146 596T114 603Q69 603 62 537Q50 553 50 576Q50 615 74 641T135 668Q152 668 171 661T209 646T244 631T274 625Q298 625 310 642Q323 660 326 691Z"
				   horiz-adv-x="247" unicode="ĩ"/>
			<glyph d="M142 666H344Q320 660 304 640T282 591L173 76Q169 55 169 48Q169 25 178 13T198 0H-1Q20 4 35 22T58 72L168 587Q172 608 172 616Q172 637 163 650T142 666ZM112 815H426L416 763H102Z"
				   horiz-adv-x="295" unicode="Ī"/>
			<glyph d="M71 633H335L325 581H61ZM229 486L148 109Q141 79 141 52Q141 27 147 14T160 0H20L104 381Q106 395 106 400Q106 417 91 430T59 443Z"
				   horiz-adv-x="247" unicode="ī"/>
			<glyph d="M142 666H344Q320 660 304 640T282 591L173 76Q169 55 169 48Q169 25 178 13T198 0H-1Q20 4 35 22T58 72L168 587Q172 608 172 616Q172 637 163 650T142 666ZM172 877Q180 844 206 824T270 804Q305 804 339 822Q374 840 400 877Q386 811 344 770T255 730Q215 730 191 758T167 833Q167 852 172 877Z"
				   horiz-adv-x="295" unicode="Ĭ"/>
			<glyph d="M229 486L148 109Q141 79 141 52Q141 29 147 15T160 0H20L104 381Q106 393 106 400Q106 417 91 430T59 443ZM99 692Q107 659 133 639T197 619Q232 619 266 637Q301 655 327 692Q313 626 271 585T182 545Q142 545 118 573T94 648Q94 667 99 692Z"
				   horiz-adv-x="247" unicode="ĭ"/>
			<glyph d="M142 666H342Q293 647 282 591L172 76Q169 61 169 48Q169 25 177 13T197 0Q146 -2 109 -29T73 -91Q73 -130 117 -130Q148 -130 180 -114Q163 -146 133 -164T73 -182Q42 -182 22 -165T2 -120Q2 -87 24 -55T84 0H2Q21 4 36 23T58 72L165 575Q172 605 172 619Q172 656 142 666Z"
				   horiz-adv-x="295" unicode="Į"/>
			<glyph d="M229 486L148 109Q141 79 141 52Q141 24 148 12T162 0Q114 -6 80 -32T46 -91Q47 -130 90 -130Q117 -130 153 -113Q137 -145 107 -163T46 -182Q14 -182 -5 -165T-25 -119Q-25 -89 -3 -57T56 0H22L105 381Q107 394 107 400Q107 417 92 429T59 443ZM199 678Q228 678 243 661T258 618Q258 589 238 569T190 550Q162 550 146 567T130 610Q130 638 149 658T199 678Z"
				   horiz-adv-x="247" unicode="į"/>
			<glyph d="M142 666H344Q320 660 304 640T282 591L173 76Q169 55 169 48Q169 25 178 13T198 0H-1Q20 4 35 22T58 72L168 587Q172 608 172 616Q172 637 163 650T142 666ZM269 856Q295 856 310 840T326 798Q326 770 307 751Q289 732 260 732Q233 732 217 748T202 790Q202 818 221 837T269 856Z"
				   horiz-adv-x="298" unicode="İ"/>
			<glyph d="M229 486L148 109Q141 79 141 52Q141 29 147 15T160 0H20L104 381Q106 393 106 400Q106 417 91 430T59 443Z"
				   horiz-adv-x="247" unicode="ı"/>
			<glyph d="M142 666H344Q320 660 304 640T282 591L173 76Q169 55 169 48Q169 25 178 13T198 0H-1Q20 4 35 22T58 72L168 587Q172 608 172 616Q172 637 163 650T142 666ZM436 666H648Q626 660 608 637T584 578L490 132Q469 29 425 -20T309 -69Q277 -69 248 -58T205 -26Q220 -32 240 -32Q289 -32 325 16T380 152L471 577Q475 595 475 612Q475 629 470 639T459 656T436 666Z"
				   horiz-adv-x="597" unicode="Ĳ"/>
			<glyph d="M229 486L148 109Q141 79 141 53Q141 28 147 14T161 0H20L104 381Q106 395 106 400Q106 417 94 430T66 443H59ZM201 687Q228 687 244 670T260 627Q260 597 240 577T191 558Q164 558 147 575T131 618Q131 647 151 667T201 687ZM448 687Q475 687 491 670T507 627Q507 597 487 577T438 558Q411 558 394 575T378 618Q378 647 398 667T448 687ZM478 486L373 0Q355 -85 308 -135T197 -185Q161 -185 129 -172T86 -141Q108 -147 128 -147Q184 -147 219 -111T270 0L352 381Q354 389 354 397Q354 414 341 427T312 443H307Z"
				   horiz-adv-x="497" unicode="ĳ"/>
			<glyph d="M141 666H353Q331 660 313 637T289 578L195 132Q174 29 130 -20T14 -69Q-18 -69 -46 -58T-90 -26Q-75 -32 -55 -32Q-6 -32 30 16T85 152L176 577Q180 595 180 612Q180 629 175 639T164 656T141 666ZM293 880L402 699L272 776L114 699Z"
				   horiz-adv-x="302" unicode="Ĵ"/>
			<glyph d="M230 486L126 0Q108 -85 60 -135T-50 -185Q-82 -185 -114 -172T-161 -141Q-139 -147 -118 -147Q-59 -147 -26 -109T29 31L105 381Q107 393 107 397Q107 414 92 428T60 443ZM210 692L309 512L189 589L41 512Z"
				   horiz-adv-x="248" unicode="ĵ"/>
			<glyph d="M135 666H340Q294 652 281 591L233 367L464 579Q513 625 513 650Q513 662 498 666H693Q648 653 579 591L337 374L488 100Q535 16 582 0H420L229 348L172 76Q169 61 169 50Q169 35 174 24T186 8T201 0H-1Q20 4 35 23T58 72L168 587Q171 602 171 615Q171 655 135 666ZM280 -38Q301 -38 315 -53T330 -90Q330 -128 300 -154T228 -183H216Q241 -177 259 -157T281 -116Q263 -116 251 -105T239 -79Q239 -62 251 -50T280 -38Z"
				   horiz-adv-x="634" unicode="Ķ"/>
			<glyph d="M274 696L180 268L318 393Q364 434 364 451Q364 462 348 468H541Q485 454 415 390L274 262L380 82Q398 51 422 32T475 13Q457 1 432 -5T384 -11Q354 -11 329 5T281 61L175 248L123 0H20L149 592Q151 607 151 611Q151 646 103 653ZM214 -38Q235 -38 249 -53T264 -90Q264 -128 234 -154T162 -183H150Q175 -177 193 -157T215 -116Q197 -116 185 -105T173 -79Q173 -62 185 -50T214 -38Z"
				   horiz-adv-x="508" unicode="ķ"/>
			<glyph d="M229 485L180 267L318 393Q364 433 364 451Q364 462 349 468H540Q516 462 481 440T415 390L274 261L379 82Q397 50 422 31T475 12Q457 1 431 -5T382 -12Q321 -12 279 60L175 247L123 0H20L102 377Q106 392 106 400Q105 434 58 442Z"
				   horiz-adv-x="508" unicode="ĸ"/>
			<glyph d="M132 666H337Q314 659 299 639T278 591L166 71H313Q377 71 411 93T466 167L430 0H-2Q16 3 31 21T54 72L164 587Q166 597 166 615Q166 635 157 648T132 666ZM326 853H465L250 698Z"
				   horiz-adv-x="509" unicode="Ĺ"/>
			<glyph d="M274 696L147 109Q140 80 140 52Q140 25 147 13T160 0H20L149 591Q151 598 151 611Q151 628 140 639T106 653ZM247 853H385L171 698Z"
				   horiz-adv-x="247" unicode="ĺ"/>
			<glyph d="M132 666H337Q314 659 299 639T278 591L166 71H313Q377 71 411 93T466 167L430 0H-2Q16 3 31 21T54 72L164 587Q166 597 166 615Q166 635 157 648T132 666ZM227 -38Q248 -38 262 -53T277 -90Q277 -128 247 -154T175 -183H163Q188 -177 206 -157T228 -116Q210 -116 198 -105T186 -79Q186 -62 198 -50T227 -38Z"
				   horiz-adv-x="509" unicode="Ļ"/>
			<glyph d="M274 696L147 109Q140 80 140 52Q140 25 147 13T160 0H20L149 591Q151 598 151 611Q151 628 140 639T106 653ZM63 -38Q84 -38 98 -53T113 -90Q113 -128 83 -154T11 -183H-1Q24 -177 42 -157T64 -116Q46 -116 34 -105T22 -79Q22 -62 34 -50T63 -38Z"
				   horiz-adv-x="247" unicode="ļ"/>
			<glyph d="M132 666H337Q314 659 299 639T278 591L166 71H313Q377 71 411 93T466 167L430 0H-2Q16 3 31 21T54 72L164 587Q166 597 166 615Q166 635 157 648T132 666ZM397 682H500L341 501Z"
				   horiz-adv-x="509" unicode="Ľ"/>
			<glyph d="M274 696L147 109Q140 80 140 52Q140 25 147 13T160 0H20L149 591Q151 598 151 611Q151 628 140 639T106 653ZM342 682H445L286 501Z"
				   horiz-adv-x="258" unicode="ľ"/>
			<glyph d="M132 666H337Q314 659 299 639T278 591L166 71H313Q377 71 411 93T466 167L430 0H-2Q16 3 31 21T54 72L164 587Q166 597 166 615Q166 635 157 648T132 666ZM452 402Q478 402 493 386T509 344Q509 316 490 297Q472 278 443 278Q416 278 400 294T385 336Q385 364 404 383T452 402Z"
				   horiz-adv-x="577" unicode="Ŀ"/>
			<glyph d="M274 696L147 109Q140 80 140 52Q140 25 147 13T160 0H20L149 591Q151 598 151 611Q151 628 140 639T106 653ZM339 369Q365 369 380 353T396 311Q396 283 377 264Q359 245 330 245Q303 245 287 261T272 303Q272 331 291 350T339 369Z"
				   horiz-adv-x="402" unicode="ŀ"/>
			<glyph d="M132 666H337Q314 660 299 639T278 591L238 404L348 478L333 404L222 330L166 71H313Q377 71 411 93T466 167L430 0H-2Q17 3 32 22T54 72L91 247L6 190L22 264L107 320L164 587Q166 597 166 615Q166 636 157 648T132 666Z"
				   horiz-adv-x="507" unicode="Ł"/>
			<glyph d="M275 696L217 428L291 478L275 405L201 355L148 109Q141 80 141 52Q141 26 147 13T161 0H21L82 278L7 229L23 302L97 350L150 591Q152 598 152 611Q152 628 142 638T107 653Z"
				   horiz-adv-x="249" unicode="ł"/>
			<glyph d="M115 666H262L503 201L585 590Q588 602 588 613Q588 633 578 647T551 666H726Q705 660 691 641T671 594L541 -8H474Q458 47 422 118L234 480L147 71Q145 63 145 50Q145 35 150 24T165 8T182 0H0Q23 4 38 22T60 68L167 559Q169 570 169 581Q169 602 153 631T115 666ZM481 853H619L405 698Z"
				   horiz-adv-x="674" unicode="Ń"/>
			<glyph d="M221 486L203 399Q237 438 285 461T377 485Q474 485 474 395Q474 374 463 321L420 109Q414 83 414 59Q414 33 420 17T435 0H293L359 300Q368 337 368 358Q367 416 319 416Q293 416 263 396T212 345T183 277L123 0H21L104 380Q106 390 106 399Q106 416 94 428T59 443ZM344 666H482L268 511Z"
				   unicode="ń"/>
			<glyph d="M115 666H262L503 201L585 590Q588 602 588 613Q588 633 578 647T551 666H726Q705 660 691 641T671 594L541 -8H474Q458 47 422 118L234 480L147 71Q145 63 145 50Q145 35 150 24T165 8T182 0H0Q23 4 38 22T60 68L167 559Q169 570 169 581Q169 602 153 631T115 666ZM288 -38Q309 -38 323 -53T338 -90Q338 -128 308 -154T236 -183H224Q249 -177 267 -157T289 -116Q271 -116 259 -105T247 -79Q247 -62 259 -50T288 -38Z"
				   horiz-adv-x="674" unicode="Ņ"/>
			<glyph d="M221 486L203 399Q237 438 285 461T377 485Q474 485 474 395Q474 374 463 321L420 109Q414 83 414 59Q414 33 420 17T435 0H293L359 300Q368 337 368 358Q367 416 319 416Q293 416 263 396T212 345T183 277L123 0H21L104 380Q106 390 106 399Q106 416 94 428T59 443ZM195 -38Q216 -38 230 -53T245 -90Q245 -128 215 -154T143 -183H131Q156 -177 174 -157T196 -116Q178 -116 166 -105T154 -79Q154 -62 166 -50T195 -38Z"
				   unicode="ņ"/>
			<glyph d="M115 666H262L503 201L585 590Q588 602 588 613Q588 633 578 647T551 666H726Q705 660 691 641T671 594L541 -8H474Q458 47 422 118L234 480L147 71Q145 63 145 50Q145 35 150 24T165 8T182 0H0Q23 4 38 22T60 68L167 559Q169 570 169 581Q169 602 153 631T115 666ZM324 886L454 808L612 886L433 704Z"
				   horiz-adv-x="674" unicode="Ň"/>
			<glyph d="M221 486L203 399Q237 438 285 461T377 485Q474 485 474 395Q474 374 463 321L420 109Q414 83 414 59Q414 33 420 17T435 0H293L359 300Q368 337 368 358Q367 416 319 416Q293 416 263 396T212 345T183 277L123 0H21L104 380Q106 390 106 399Q106 416 94 428T59 443ZM218 697L338 619L486 697L317 517Z"
				   unicode="ň"/>
			<glyph d="M236 486L216 395Q255 438 301 461T392 485Q489 485 489 395Q489 367 483 339L435 109Q429 82 429 58Q429 33 435 17T450 0H309L378 318Q383 337 383 358Q383 383 371 398T337 413Q287 413 246 364T189 233L138 0H37L119 379Q121 385 121 399Q121 417 108 430T74 443ZM115 680Q136 680 150 665T165 627Q165 589 134 562T61 534L51 535Q74 539 93 559T116 602Q96 602 85 612T74 639Q74 655 86 667T115 680Z"
				   horiz-adv-x="526" unicode="ŉ"/>
			<glyph d="M114 666H261L503 201L585 590Q588 602 588 613Q588 632 578 646T552 666H723Q681 648 671 594L557 63Q534 -39 472 -95T322 -152Q381 -120 413 -75T446 23Q446 70 421 119L233 479L147 71Q145 63 145 50Q145 29 155 15T179 0H3Q21 3 37 20T60 68L165 555Q169 571 169 581Q169 603 151 631T114 666Z"
				   horiz-adv-x="674" unicode="Ŋ"/>
			<glyph d="M221 486L203 399Q237 438 285 461T377 485Q474 485 474 395Q474 369 467 339L395 0Q377 -85 330 -135T219 -185Q183 -185 151 -172T108 -141Q130 -147 150 -147Q206 -147 240 -111T292 0L363 318Q368 341 368 358Q368 416 319 416Q293 416 263 396T212 345T183 277L123 0H21L104 380Q106 390 106 399Q106 416 95 428T59 443Z"
				   unicode="ŋ"/>
			<glyph d="M435 682Q541 682 603 613T665 428Q665 315 611 210Q558 105 470 45T281 -15Q175 -15 113 53T52 239Q52 354 104 458T245 622T435 682ZM420 613Q356 613 299 558T207 411T172 227Q172 147 204 101T295 55Q360 55 417 108T510 253T546 438Q546 519 512 566T420 613ZM295 815H609L599 763H285Z"
				   horiz-adv-x="673" unicode="Ō"/>
			<glyph d="M297 484Q349 484 387 460T445 394T466 297Q466 219 429 145Q392 72 329 29T194 -14Q142 -14 104 9T46 76T27 173Q27 250 64 323T163 440T297 484ZM287 418Q248 418 213 383T155 281T131 161Q131 111 151 81T205 52Q243 52 277 86Q312 120 336 185T360 308Q360 359 340 388T287 418ZM180 633H494L484 581H170Z"
				   horiz-adv-x="493" unicode="ō"/>
			<glyph d="M435 682Q541 682 603 613T665 428Q665 315 611 210Q558 105 470 45T281 -15Q175 -15 113 53T52 239Q52 354 104 458T245 622T435 682ZM420 613Q356 613 299 558T207 411T172 227Q172 147 204 101T295 55Q360 55 417 108T510 253T546 438Q546 519 512 566T420 613ZM355 877Q363 843 389 823T453 803Q488 803 522 821Q557 840 583 877Q569 811 528 770T438 730Q398 730 374 758T350 832Q350 850 355 877Z"
				   horiz-adv-x="673" unicode="Ŏ"/>
			<glyph d="M297 484Q349 484 387 460T445 394T466 297Q466 219 429 145Q392 72 329 29T194 -14Q142 -14 104 9T46 76T27 173Q27 250 64 323T163 440T297 484ZM287 418Q248 418 213 383T155 281T131 161Q131 111 151 81T205 52Q243 52 277 86Q312 120 336 185T360 308Q360 359 340 388T287 418ZM228 692Q236 659 262 639T326 619Q361 619 395 637Q430 655 456 692Q442 626 400 585T311 545Q271 545 247 573T223 648Q223 667 228 692Z"
				   horiz-adv-x="493" unicode="ŏ"/>
			<glyph d="M435 682Q541 682 603 613T665 428Q665 315 611 210Q558 105 470 45T281 -15Q175 -15 113 53T52 239Q52 354 104 458T245 622T435 682ZM420 613Q356 613 299 558T207 411T172 227Q172 147 204 101T295 55Q360 55 417 108T510 253T546 438Q546 519 512 566T420 613ZM598 853H731L498 698ZM421 853H555L322 698Z"
				   horiz-adv-x="673" unicode="Ő"/>
			<glyph d="M436 666H565L354 511ZM261 666H390L179 511ZM297 484Q349 484 387 460T445 394T466 297Q466 219 429 145Q392 72 329 29T194 -14Q142 -14 104 9T46 76T27 173Q27 250 64 323T163 440T297 484ZM287 418Q248 418 213 383T155 281T131 161Q131 111 151 81T205 52Q243 52 277 86Q312 120 336 185T360 308Q360 358 340 388T287 418Z"
				   horiz-adv-x="493" unicode="ő"/>
			<glyph d="M432 682Q479 682 522 666H919L888 513Q885 557 862 576T792 596H633L587 376H720Q754 376 777 386T807 412L778 268Q777 287 758 297T706 308H573L523 70H685Q745 70 777 90T835 166L799 0H378Q330 -15 279 -15Q171 -15 110 54T50 239Q50 355 103 459T244 622T432 682ZM418 613Q353 613 295 557T203 410T169 227Q169 146 202 100T293 55Q362 55 421 130L508 535Q505 569 478 591T418 613Z"
				   horiz-adv-x="888" unicode="Œ"/>
			<glyph d="M642 485Q692 485 723 457T755 386Q755 341 707 290T589 210T440 179Q440 138 452 111T487 71T540 57Q579 57 624 78T701 133Q684 70 623 27T493 -16Q448 -16 413 4T362 67Q329 27 285 6T192 -14Q140 -14 102 9T44 76T25 173Q25 250 62 323T161 440T295 484Q349 484 384 456T435 381Q476 428 531 456T642 485ZM615 422Q583 422 546 396T481 327T442 235Q535 239 600 279Q665 320 665 375Q665 396 652 409T615 422ZM285 418Q246 418 211 383T152 282T128 161Q128 111 148 81T202 52Q241 52 276 87T334 188T358 308Q358 358 338 388T285 418Z"
				   horiz-adv-x="752" unicode="œ"/>
			<glyph d="M135 666H389Q479 666 531 621T584 503Q584 449 558 403T486 329T387 297Q401 286 415 251L488 78Q500 46 520 25T557 0H397L305 241Q296 265 282 280T252 295H218L170 76Q166 58 166 50Q166 35 171 24T183 8T198 0H-2Q18 3 34 21T57 72L167 587Q171 608 171 615Q171 656 135 666ZM283 601L231 353H322Q390 353 430 393T471 496Q471 544 444 572T375 601ZM415 853H553L339 698Z"
				   horiz-adv-x="590" unicode="Ŕ"/>
			<glyph d="M225 486L202 374Q233 423 276 454T359 485Q388 485 404 470T421 426Q421 392 393 366T326 334Q336 352 336 371Q336 386 329 397T307 409Q282 409 254 382T202 307T166 198L123 0H21L105 380L107 398Q107 435 57 443ZM287 666H425L211 511Z"
				   horiz-adv-x="398" unicode="ŕ"/>
			<glyph d="M135 666H389Q479 666 531 621T584 503Q584 449 558 403T486 329T387 297Q401 286 415 251L488 78Q500 46 520 25T557 0H397L305 241Q296 265 282 280T252 295H218L170 76Q166 58 166 50Q166 35 171 24T183 8T198 0H-2Q18 3 34 21T57 72L167 587Q171 608 171 615Q171 656 135 666ZM283 601L231 353H322Q390 353 430 393T471 496Q471 544 444 572T375 601ZM271 -38Q292 -38 306 -53T321 -90Q321 -128 291 -154T219 -183H207Q232 -177 250 -157T272 -116Q254 -116 242 -105T230 -79Q230 -62 242 -50T271 -38Z"
				   horiz-adv-x="590" unicode="Ŗ"/>
			<glyph d="M225 486L202 374Q233 423 276 454T359 485Q388 485 404 470T421 426Q421 392 393 366T326 334Q336 352 336 371Q336 386 329 397T307 409Q282 409 254 382T202 307T166 198L123 0H21L105 380L107 398Q107 435 57 443ZM99 -38Q120 -38 134 -53T149 -90Q149 -128 119 -154T47 -183H35Q60 -177 78 -157T100 -116Q82 -116 70 -105T58 -79Q58 -62 70 -50T99 -38Z"
				   horiz-adv-x="398" unicode="ŗ"/>
			<glyph d="M135 666H389Q479 666 531 621T584 503Q584 449 558 403T486 329T387 297Q401 286 415 251L488 78Q500 46 520 25T557 0H397L305 241Q296 265 282 280T252 295H218L170 76Q166 58 166 50Q166 35 171 24T183 8T198 0H-2Q18 3 34 21T57 72L167 587Q171 608 171 615Q171 656 135 666ZM283 601L231 353H322Q390 353 430 393T471 496Q471 544 444 572T375 601ZM262 886L392 808L550 886L371 704Z"
				   horiz-adv-x="590" unicode="Ř"/>
			<glyph d="M225 486L202 374Q233 423 276 454T359 485Q388 485 404 470T421 426Q421 392 393 366T326 334Q336 352 336 371Q336 386 329 397T307 409Q282 409 254 382T202 307T166 198L123 0H21L105 380L107 398Q107 435 57 443ZM163 697L283 619L431 697L262 517Z"
				   horiz-adv-x="398" unicode="ř"/>
			<glyph d="M337 682Q380 682 426 669T504 636L475 497Q459 550 419 579T326 609Q276 609 247 581T218 508Q218 480 236 453T293 398Q353 355 377 334T419 292T447 245T457 189Q457 95 391 39T213 -16Q161 -16 105 0T15 40L51 205Q66 136 110 97T223 59Q278 59 310 87T343 163Q343 186 332 205T304 242T226 304Q157 354 132 394T108 481Q108 568 171 625T337 682ZM363 853H501L287 698Z"
				   horiz-adv-x="504" unicode="Ś"/>
			<glyph d="M261 486Q318 486 354 464T390 407Q390 366 327 328Q330 345 330 350Q330 383 307 402T249 422Q216 422 189 403T163 354Q163 333 183 312T255 257Q346 198 346 127Q346 62 292 23T154 -16Q111 -16 69 -5T5 20L41 161Q46 110 75 79T153 48Q193 48 219 65T245 111Q245 131 227 150T158 205Q114 234 92 265T70 333Q70 379 95 414T165 467T261 486ZM297 666H435L221 511Z"
				   horiz-adv-x="404" unicode="ś"/>
			<glyph d="M337 682Q380 682 426 669T504 636L475 497Q459 550 419 579T326 609Q276 609 247 581T218 508Q218 480 236 453T293 398Q353 355 377 334T419 292T447 245T457 189Q457 95 391 39T213 -16Q161 -16 105 0T15 40L51 205Q66 136 110 97T223 59Q278 59 310 87T343 163Q343 186 332 205T304 242T226 304Q157 354 132 394T108 481Q108 568 171 625T337 682ZM374 880L483 699L353 776L195 699Z"
				   horiz-adv-x="504" unicode="Ŝ"/>
			<glyph d="M261 486Q318 486 354 464T390 407Q390 366 327 328Q330 345 330 350Q330 383 307 402T249 422Q216 422 189 403T163 354Q163 333 183 312T255 257Q346 198 346 127Q346 62 292 23T154 -16Q111 -16 69 -5T5 20L41 161Q46 110 75 79T153 48Q193 48 219 65T245 111Q245 131 227 150T158 205Q114 234 92 265T70 333Q70 379 95 414T165 467T261 486ZM296 692L395 512L275 589L127 512Z"
				   horiz-adv-x="404" unicode="ŝ"/>
			<glyph d="M337 682Q380 682 426 669T504 636L475 497Q459 550 419 579T326 609Q276 609 247 581T218 508Q218 480 236 453T293 398Q353 355 377 334T419 292T447 245T457 189Q457 101 398 45T237 -15L218 -37Q255 -44 269 -60T284 -96Q284 -130 249 -156T167 -182Q123 -182 91 -159Q106 -162 123 -162Q159 -162 183 -146T208 -104Q208 -88 192 -77T144 -64L184 -14Q137 -10 91 4T15 40L51 205Q66 135 110 97T223 59Q278 59 310 87T343 163Q343 186 332 205T304 242T226 304Q157 354 132 394T108 481Q108 568 171 625T337 682Z"
				   horiz-adv-x="504" unicode="Ş"/>
			<glyph d="M260 486Q316 486 353 464T390 407Q390 388 377 369T327 327Q328 332 329 338T330 349Q330 382 307 401T249 421Q214 421 188 402T162 354Q162 332 182 311T254 257Q299 227 322 195T346 127Q346 67 301 29T179 -15L160 -37Q195 -42 210 -59T226 -96Q226 -117 210 -137T166 -170T109 -182Q65 -182 33 -159Q48 -162 65 -162Q101 -162 125 -146T150 -104Q150 -88 134 -77T86 -64L124 -15Q50 -10 5 20L41 161Q45 109 74 78T153 48Q193 48 219 65T245 111Q245 131 227 150T158 205Q114 234 92 265T70 333Q70 379 95 413T164 467T260 486Z"
				   horiz-adv-x="404" unicode="ş"/>
			<glyph d="M337 682Q380 682 426 669T504 636L475 497Q459 550 419 579T326 609Q276 609 247 581T218 508Q218 480 236 453T293 398Q353 355 377 334T419 292T447 245T457 189Q457 95 391 39T213 -16Q161 -16 105 0T15 40L51 205Q66 136 110 97T223 59Q278 59 310 87T343 163Q343 186 332 205T304 242T226 304Q157 354 132 394T108 481Q108 568 171 625T337 682ZM234 894L364 816L522 894L343 712Z"
				   horiz-adv-x="504" unicode="Š"/>
			<glyph d="M261 486Q318 486 354 464T390 407Q390 366 327 328Q330 345 330 350Q330 383 307 402T249 422Q216 422 189 403T163 354Q163 333 183 312T255 257Q346 198 346 127Q346 62 292 23T154 -16Q111 -16 69 -5T5 20L41 161Q46 110 75 79T153 48Q193 48 219 65T245 111Q245 131 227 150T158 205Q114 234 92 265T70 333Q70 379 95 414T165 467T261 486ZM153 697L273 619L421 697L252 517Z"
				   horiz-adv-x="404" unicode="š"/>
			<glyph d="M116 666H650L616 514Q613 565 591 582T519 599H423L311 76Q308 61 308 49Q308 30 317 16T337 0H139Q158 3 174 22T198 72L310 599H212Q161 599 132 580T81 516ZM218 -38Q239 -38 253 -53T268 -90Q268 -128 238 -154T166 -183H154Q179 -177 197 -157T219 -116Q201 -116 189 -105T177 -79Q177 -62 189 -50T218 -38Z"
				   horiz-adv-x="570" unicode="Ţ"/>
			<glyph d="M252 583L228 468H354L342 411H216L166 183Q162 163 157 142T153 104Q153 75 167 62T210 49Q231 49 255 57T299 76Q278 33 238 9T147 -15Q97 -15 70 8T44 75Q44 96 51 131L114 411H48ZM123 -38Q144 -38 158 -53T173 -90Q173 -128 143 -154T71 -183H59Q84 -177 102 -157T124 -116Q106 -116 94 -105T82 -79Q82 -62 94 -50T123 -38Z"
				   horiz-adv-x="325" unicode="ţ"/>
			<glyph d="M116 666H650L616 514Q613 565 591 582T519 599H423L311 76Q308 61 308 49Q308 30 317 16T337 0H139Q158 3 174 22T198 72L310 599H212Q161 599 132 580T81 516ZM276 888L396 810L544 888L375 708Z"
				   horiz-adv-x="570" unicode="Ť"/>
			<glyph d="M252 583L228 468H354L342 411H216L166 183Q162 163 157 142T153 104Q153 75 167 62T210 49Q231 49 255 57T299 76Q278 33 238 9T147 -15Q97 -15 70 8T44 75Q44 96 51 131L114 411H48ZM342 682H445L286 501Z"
				   horiz-adv-x="325" unicode="ť"/>
			<glyph d="M116 666H650L616 514Q612 564 592 581T522 599H423L373 369H476L465 315H362L311 76Q308 61 308 49Q308 30 317 16T337 0H139Q157 3 174 21T198 72L249 315H146L157 369H261L310 599H211Q160 599 131 580T81 516Z"
				   horiz-adv-x="581" unicode="Ŧ"/>
			<glyph d="M254 592L227 468H353L341 405H214L187 279H306L295 228H175L168 195Q153 130 153 103Q153 74 167 61T210 48Q247 48 299 75Q278 32 237 8T147 -15Q97 -15 70 8T43 75Q43 89 51 131L72 228H15L26 279H84L113 405H47Z"
				   horiz-adv-x="325" unicode="ŧ"/>
			<glyph d="M132 666H336Q310 659 295 643T276 603L199 249Q188 202 188 161Q188 105 215 82T298 60Q364 60 409 100T470 216L548 597Q551 610 551 620Q551 655 520 666H699Q654 653 643 600L563 223Q545 138 509 85T418 9T274 -15Q176 -15 127 25T78 156Q78 207 91 266L163 603Q166 613 166 622Q166 638 157 649T132 666ZM568 862Q580 844 580 821Q580 785 554 757T493 729Q475 729 457 735T422 751T387 766T356 773Q311 773 304 707Q292 726 292 746Q292 787 316 813T377 839Q396 839 415 832T452 817T486 802T516 796Q540 796 552 813Q565 831 568 862Z"
				   horiz-adv-x="648" unicode="Ũ"/>
			<glyph d="M227 486L154 153Q149 133 149 109Q149 55 196 55Q237 55 279 97T334 195L369 355Q376 388 376 402Q376 422 365 430T332 443L500 486L443 233Q410 88 410 67Q410 35 447 29L454 28L296 -15L314 73Q286 36 236 11T140 -14Q43 -14 43 76Q43 99 50 132L96 354Q101 381 101 398Q101 418 92 429T59 443ZM458 691Q470 673 470 650Q470 614 444 586T383 558Q364 558 346 565T312 580T278 596T246 603Q201 603 194 537Q182 553 182 576Q182 615 206 641T267 668Q284 668 303 661T341 646T376 631T406 625Q430 625 442 642Q455 660 458 691Z"
				   horiz-adv-x="518" unicode="ũ"/>
			<glyph d="M132 666H336Q310 659 295 643T276 603L199 249Q188 202 188 161Q188 105 215 82T298 60Q364 60 409 100T470 216L548 597Q551 610 551 620Q551 655 520 666H699Q654 653 643 600L563 223Q545 138 509 85T418 9T274 -15Q176 -15 127 25T78 156Q78 207 91 266L163 603Q166 613 166 622Q166 638 157 649T132 666ZM301 815H615L605 763H291Z"
				   horiz-adv-x="648" unicode="Ū"/>
			<glyph d="M227 486L154 153Q149 133 149 109Q149 55 196 55Q237 55 279 97T334 195L369 355Q376 388 376 402Q376 422 365 430T332 443L500 486L443 233Q410 88 410 67Q410 35 447 29L454 28L296 -15L314 73Q286 36 236 11T140 -14Q43 -14 43 76Q43 99 50 132L96 354Q101 381 101 398Q101 418 92 429T59 443ZM178 633H492L482 581H168Z"
				   horiz-adv-x="518" unicode="ū"/>
			<glyph d="M132 666H336Q310 659 295 643T276 603L199 249Q188 202 188 161Q188 105 215 82T298 60Q364 60 409 100T470 216L548 597Q551 610 551 620Q551 655 520 666H699Q654 653 643 600L563 223Q545 138 509 85T418 9T274 -15Q176 -15 127 25T78 156Q78 207 91 266L163 603Q166 613 166 622Q166 638 157 649T132 666ZM353 877Q361 843 387 823T451 803Q486 803 520 821Q555 840 581 877Q567 811 526 770T436 730Q396 730 372 758T348 832Q348 850 353 877Z"
				   horiz-adv-x="648" unicode="Ŭ"/>
			<glyph d="M227 486L154 153Q149 133 149 109Q149 55 196 55Q237 55 279 97T334 195L369 355Q376 388 376 402Q376 422 365 430T332 443L500 486L443 233Q410 88 410 67Q410 35 447 29L454 28L296 -15L314 73Q286 36 236 11T140 -14Q43 -14 43 76Q43 99 50 132L96 354Q101 381 101 398Q101 418 92 429T59 443ZM235 692Q243 659 269 639T333 619Q368 619 402 637Q437 655 463 692Q449 626 407 585T318 545Q278 545 254 573T230 648Q230 667 235 692Z"
				   horiz-adv-x="518" unicode="ŭ"/>
			<glyph d="M132 666H336Q310 659 295 643T276 603L199 249Q188 202 188 161Q188 105 215 82T298 60Q364 60 409 100T470 216L548 597Q551 610 551 620Q551 655 520 666H699Q654 653 643 600L563 223Q545 138 509 85T418 9T274 -15Q176 -15 127 25T78 156Q78 207 91 266L163 603Q166 613 166 622Q166 638 157 649T132 666ZM437 895Q479 895 505 868T531 801Q531 759 504 733T437 707Q396 707 369 733T343 801Q343 843 370 869T437 895ZM437 856Q413 856 398 840T383 801Q383 778 398 761T437 745Q461 745 475 761T489 801Q489 826 475 841T437 856Z"
				   horiz-adv-x="648" unicode="Ů"/>
			<glyph d="M227 486L154 153Q149 133 149 109Q149 55 196 55Q237 55 279 97T334 195L369 355Q376 388 376 402Q376 422 365 430T332 443L500 486L443 233Q410 88 410 67Q410 35 447 29L454 28L296 -15L314 73Q286 36 236 11T140 -14Q43 -14 43 76Q43 99 50 132L96 354Q101 381 101 398Q101 418 92 429T59 443ZM330 704Q371 704 397 677T424 610Q424 569 397 542T330 516Q289 516 262 542T236 610Q236 651 263 677T330 704ZM330 665Q306 665 291 649T276 610Q276 587 291 570T330 554Q354 554 368 570T382 610Q382 635 367 650T330 665Z"
				   horiz-adv-x="518" unicode="ů"/>
			<glyph d="M132 666H336Q310 659 295 643T276 603L199 249Q188 202 188 161Q188 105 215 82T298 60Q364 60 409 99T470 216L548 597Q551 610 551 620Q551 656 520 666H699Q654 653 643 600L563 223Q545 138 510 85T418 9T274 -15Q176 -15 127 25T78 156Q78 207 91 266L163 603Q166 615 166 622Q166 638 157 649T132 666ZM386 853H515L304 698ZM561 853H690L479 698Z"
				   horiz-adv-x="648" unicode="Ű"/>
			<glyph d="M448 666H577L366 511ZM274 666H403L192 511ZM227 486L154 153Q149 133 149 109Q149 55 196 55Q237 55 279 97T334 195L369 355Q376 388 376 402Q376 422 365 430T332 443L500 486L443 233Q410 88 410 67Q410 35 447 29L454 28L296 -15L314 73Q287 36 237 11T140 -14Q43 -14 43 76Q43 99 50 132L96 354Q101 381 101 398Q101 418 92 429T59 443Z"
				   horiz-adv-x="518" unicode="ű"/>
			<glyph d="M133 666H333Q285 650 276 603L198 245Q188 201 188 162Q188 111 214 85T298 60Q364 60 409 100T469 216L548 597Q551 609 551 620Q551 636 543 648T522 666H697Q651 649 642 600L562 223Q541 124 496 69T376 -3Q263 -34 263 -91Q263 -129 308 -130Q335 -130 371 -113Q355 -145 324 -163T263 -182Q233 -182 212 -164T192 -118Q192 -63 256 -14Q74 -14 74 152Q74 199 85 246L163 603Q165 610 165 622Q165 655 133 666Z"
				   horiz-adv-x="648" unicode="Ų"/>
			<glyph d="M225 486L152 153Q150 146 147 109Q147 85 157 71T191 57Q242 57 283 108T343 240L357 304Q363 332 368 356T374 401Q374 419 363 431T331 443L498 486L412 91Q408 75 408 67Q408 52 418 40T452 28Q412 18 372 -1T310 -44T287 -91Q287 -129 332 -130Q359 -130 395 -113Q379 -144 349 -163T287 -182Q255 -182 235 -164T216 -118Q216 -87 237 -56T296 -3L312 75Q283 36 235 11T143 -14Q41 -14 41 76Q41 99 48 132L86 320Q99 383 99 398Q99 417 89 430T57 443Z"
				   horiz-adv-x="518" unicode="ų"/>
			<glyph d="M106 666H294Q263 656 260 604Q260 589 261 568L301 175L496 511L491 564Q487 608 476 633T451 666H631Q615 661 606 644T597 604Q597 589 598 570L637 175L859 562Q886 610 886 636Q886 660 865 666H1044Q1025 660 1000 633T952 564L619 -9H549L509 391L277 -9H207L149 564Q145 604 134 631T106 666ZM590 880L699 699L569 776L411 699Z"
				   horiz-adv-x="954" unicode="Ŵ"/>
			<glyph d="M183 485L213 149L397 473H458L500 142L635 370Q658 411 658 431Q658 459 627 468H782L475 -13H414L376 307L188 -13H127L91 373Q88 409 75 424T37 443L28 444ZM466 692L565 512L445 589L297 512Z"
				   horiz-adv-x="744" unicode="ŵ"/>
			<glyph d="M97 666H280Q269 660 265 650T261 628Q261 615 267 594L335 364L504 591Q533 630 533 647Q533 661 518 666H683Q643 652 598 592L356 274L314 76Q310 56 310 49Q310 29 319 16T341 0H141Q162 3 178 22T201 72L244 274L153 593Q145 620 132 639T97 666ZM438 880L547 699L417 776L259 699Z"
				   horiz-adv-x="588" unicode="Ŷ"/>
			<glyph d="M177 485L252 102Q301 173 347 267T394 412Q394 436 384 450T357 468H509Q495 420 452 330T351 147T233 -22T113 -144T12 -191Q-24 -191 -42 -173T-60 -129Q-60 -117 -53 -97Q-33 -115 1 -115Q35 -115 79 -85T171 0L92 379Q85 412 69 426T21 444ZM335 692L434 512L314 589L166 512Z"
				   horiz-adv-x="497" unicode="ŷ"/>
			<glyph d="M97 666H280Q269 660 265 650T261 628Q261 615 267 594L335 364L504 591Q533 630 533 647Q533 661 518 666H683Q643 652 598 592L356 274L314 76Q310 56 310 49Q310 29 319 16T341 0H141Q162 3 178 22T201 72L244 274L153 593Q145 620 132 639T97 666ZM508 847Q531 847 544 832T558 795Q558 770 542 753Q526 737 501 737Q478 737 463 751T449 789Q449 814 466 830T508 847ZM322 847Q345 847 358 832T372 795Q372 770 355 753T314 737Q291 737 277 751T263 789Q263 813 279 830T322 847Z"
				   horiz-adv-x="588" unicode="Ÿ"/>
			<glyph d="M140 666H614L168 70H371Q425 70 458 88T521 154L484 0H-15Q-6 13 65 108T431 596H225Q181 596 149 577T108 529ZM414 853H552L338 698Z"
				   horiz-adv-x="567" unicode="Ź"/>
			<glyph d="M86 472H434L137 59H268Q300 59 320 63T354 78T388 122L358 0H-17L281 414H136Q80 414 45 367ZM302 666H440L226 511Z"
				   horiz-adv-x="428" unicode="ź"/>
			<glyph d="M140 666H614L168 70H371Q425 70 458 88T521 154L484 0H-15Q-6 13 65 108T431 596H225Q181 596 149 577T108 529ZM398 856Q424 856 439 840T455 798Q455 770 436 751Q418 732 389 732Q362 732 346 748T331 790Q331 818 350 837T398 856Z"
				   horiz-adv-x="567" unicode="Ż"/>
			<glyph d="M86 472H434L137 59H268Q300 59 320 63T354 78T388 122L358 0H-17L281 414H136Q80 414 45 367ZM286 676Q312 676 327 660T343 618Q343 590 324 571Q306 552 277 552Q250 552 234 568T219 610Q219 638 238 657T286 676Z"
				   horiz-adv-x="428" unicode="ż"/>
			<glyph d="M140 666H614L168 70H371Q425 70 458 88T521 154L484 0H-15Q-6 13 65 108T431 596H225Q181 596 149 577T108 529ZM275 896L395 818L543 896L374 716Z"
				   horiz-adv-x="567" unicode="Ž"/>
			<glyph d="M86 472H434L137 59H268Q300 59 320 63T354 78T388 122L358 0H-17L281 414H136Q80 414 45 367ZM164 697L284 619L432 697L263 517Z"
				   horiz-adv-x="428" unicode="ž"/>
			<glyph d="M339 693Q380 693 399 678T419 640Q419 619 404 600T361 576Q368 585 368 600Q368 615 358 624T334 633Q306 633 288 605T257 508L156 21Q127 -91 83 -139T-28 -188Q-57 -188 -82 -176T-121 -144Q-100 -149 -81 -149Q-28 -149 4 -108T51 20L132 405H47L59 468H145Q169 578 219 635T339 693Z"
				   horiz-adv-x="287" unicode="ſ"/>
			<glyph d="M459 682Q514 682 554 663L516 580Q505 591 484 598T445 606Q414 606 394 577T356 480L335 401H420L408 336H321L266 114Q230 -30 178 -89T39 -149Q11 -149 -8 -143T-47 -130L-12 -43Q-6 -52 15 -62T53 -73Q86 -73 108 -38T150 83L212 336H133L146 401H226Q260 548 316 615T459 682Z"
				   horiz-adv-x="524" unicode="ƒ"/>
			<glyph d="M753 709Q780 709 796 690T813 645Q813 596 770 548Q728 501 661 479Q665 458 665 428Q665 315 611 210T470 45T281 -15Q175 -15 113 53T52 239Q52 354 104 458T245 622T435 682Q516 682 572 641T652 524Q704 546 724 585Q708 591 696 605T684 641Q684 670 704 689T753 709ZM420 613Q356 613 299 558T207 411T172 227Q172 147 204 101T295 55Q360 55 417 108T510 253T546 438Q546 519 512 566T420 613Z"
				   horiz-adv-x="703" unicode="Ơ"/>
			<glyph d="M542 561Q569 561 585 542T602 497Q602 447 560 401Q518 356 463 335Q466 317 466 297Q466 219 429 145T329 29T194 -14Q142 -14 104 9T46 76T27 173Q27 250 64 323T163 440T297 484Q354 484 393 456T451 381Q492 399 513 437Q497 443 485 457T473 493Q473 522 493 541T542 561ZM287 418Q248 418 213 383T155 281T131 161Q131 111 151 81T205 52Q243 52 277 86Q312 120 336 185T360 308Q360 358 340 388T287 418Z"
				   horiz-adv-x="523" unicode="ơ"/>
			<glyph d="M775 709Q802 709 818 690T835 645Q835 603 803 562T721 493T614 463L563 223Q545 137 509 85T418 9T274 -15Q176 -15 127 25T78 156Q78 207 91 266L163 603Q166 617 166 622Q166 638 156 650T132 666H335Q313 660 297 643T276 603L199 249Q188 202 188 161Q188 105 215 82T298 60Q364 60 409 100T470 216L548 597Q551 610 551 620Q551 637 542 649T520 666H657L624 510Q665 516 697 536T746 585Q729 591 717 605T706 641Q706 670 726 689T775 709Z"
				   horiz-adv-x="725" unicode="Ư"/>
			<glyph d="M605 561Q632 561 648 542T665 497Q665 437 604 383T462 317Q437 206 423 143T410 67Q410 35 447 29L454 28L296 -15L314 73Q286 36 236 11T140 -14Q43 -14 43 76Q43 99 50 132Q81 283 96 355Q101 380 101 398Q101 418 92 429T59 443L227 486L154 153Q149 132 149 109Q149 55 196 55Q237 55 279 97T334 195L369 355Q376 388 376 402Q376 422 365 430T332 443L500 486L473 366Q507 374 534 392T576 437Q560 443 548 457T536 493Q536 522 556 541T605 561Z"
				   horiz-adv-x="586" unicode="ư"/>
			<glyph d="M337 682Q380 682 426 669T504 636L475 497Q459 550 419 579T326 609Q276 609 247 581T218 508Q218 480 236 453T293 398Q353 355 377 334T419 292T447 245T457 189Q457 95 391 39T213 -16Q161 -16 105 0T15 40L51 205Q66 136 110 97T223 59Q278 59 310 87T343 163Q343 186 332 205T304 242T226 304Q157 354 132 394T108 481Q108 568 171 625T337 682ZM203 -38Q224 -38 238 -53T253 -90Q253 -128 223 -154T151 -183H139Q164 -177 182 -157T204 -116Q186 -116 174 -105T162 -79Q162 -62 174 -50T203 -38Z"
				   horiz-adv-x="504" unicode="Ș"/>
			<glyph d="M261 486Q318 486 354 464T390 407Q390 366 327 328Q330 345 330 350Q330 383 307 402T249 422Q216 422 189 403T163 354Q163 333 183 312T255 257Q346 198 346 127Q346 62 292 23T154 -16Q111 -16 69 -5T5 20L41 161Q46 110 75 79T153 48Q193 48 219 65T245 111Q245 131 227 150T158 205Q114 234 92 265T70 333Q70 379 95 414T165 467T261 486ZM143 -38Q164 -38 178 -53T193 -90Q193 -128 163 -154T91 -183H79Q104 -177 122 -157T144 -116Q126 -116 114 -105T102 -79Q102 -62 114 -50T143 -38Z"
				   horiz-adv-x="404" unicode="ș"/>
			<glyph d="M116 666H650L616 514Q613 565 591 582T519 599H423L311 76Q308 61 308 49Q308 30 317 16T337 0H139Q158 3 174 22T198 72L310 599H212Q161 599 132 580T81 516ZM214 -38Q235 -38 249 -53T264 -90Q264 -128 234 -154T162 -183H150Q175 -177 193 -157T215 -116Q197 -116 185 -105T173 -79Q173 -62 185 -50T214 -38Z"
				   horiz-adv-x="570" unicode="Ț"/>
			<glyph d="M252 583L228 468H354L342 411H216L166 183Q162 163 157 142T153 104Q153 75 167 62T210 49Q231 49 255 57T299 76Q278 33 238 9T147 -15Q97 -15 70 8T44 75Q44 96 51 131L114 411H48ZM139 -38Q160 -38 174 -53T189 -90Q189 -128 159 -154T87 -183H75Q100 -177 118 -157T140 -116Q122 -116 110 -105T98 -79Q98 -62 110 -50T139 -38Z"
				   horiz-adv-x="325" unicode="ț"/>
			<glyph d="M375 692L474 512L354 589L206 512Z" horiz-adv-x="466" unicode="ˆ"/>
			<glyph d="M220 697L340 619L488 697L319 517Z" horiz-adv-x="466" unicode="ˇ"/>
			<glyph d="M259 692Q267 659 293 639T357 619Q392 619 426 637Q461 655 487 692Q473 626 431 585T342 545Q302 545 278 573T254 648Q254 667 259 692Z"
				   horiz-adv-x="466" unicode="˘"/>
			<glyph d="M370 676Q396 676 411 660T427 618Q427 590 408 571Q390 552 361 552Q334 552 318 568T303 610Q303 638 322 657T370 676Z"
				   horiz-adv-x="466" unicode="˙"/>
			<glyph d="M347 704Q388 704 414 677T441 610Q441 569 414 542T347 516Q306 516 279 542T253 610Q253 651 280 677T347 704ZM347 665Q323 665 308 649T293 610Q293 587 308 570T347 554Q371 554 385 570T399 610Q399 635 384 650T347 665Z"
				   horiz-adv-x="466" unicode="˚"/>
			<glyph d="M241 6L308 5Q268 -11 243 -38T219 -91Q219 -129 263 -130Q290 -130 326 -113Q309 -146 279 -164T219 -182Q189 -182 169 -166T148 -125Q148 -88 172 -53T241 6Z"
				   horiz-adv-x="466" unicode="˛"/>
			<glyph d="M488 691Q500 673 500 650Q500 614 474 586T413 558Q394 558 376 565T342 580T308 596T276 603Q231 603 224 537Q212 553 212 576Q212 615 236 641T297 668Q314 668 333 661T371 646T406 631T436 625Q460 625 472 642Q485 660 488 691Z"
				   horiz-adv-x="466" unicode="˜"/>
			<glyph d="M386 666H519L286 511ZM209 666H343L110 511Z" horiz-adv-x="466" unicode="˝"/>
			<glyph d="M-65 666H69L85 511Z" horiz-adv-x="0" unicode="̀"/>
			<glyph d="M-21 666H117L-97 511Z" horiz-adv-x="0" unicode="́"/>
			<glyph d="M45 692L144 512L24 589L-124 512Z" horiz-adv-x="0" unicode="̂"/>
			<glyph d="M145 691Q157 673 157 650Q157 614 131 586T70 558Q51 558 33 565T-1 580T-35 596T-67 603Q-112 603 -119 537Q-131 553 -131 576Q-131 615 -106 641T-46 668Q-29 668 -9 661T28 646T63 631T93 625Q117 625 129 642Q142 660 145 691Z"
				   horiz-adv-x="0" unicode="̃"/>
			<glyph d="M-101 692Q-93 659 -66 639T-3 619Q32 619 66 637Q101 655 127 692Q113 626 71 585T-18 545Q-58 545 -82 573T-106 648Q-106 667 -101 692Z"
				   horiz-adv-x="0" unicode="̆"/>
			<glyph d="M14 710Q48 710 70 693T92 649Q92 604 43 577Q13 561 3 554T-6 539Q-6 529 7 526Q-1 521 -12 521Q-29 521 -41 528T-54 551Q-54 578 -16 601Q20 623 20 644Q20 653 13 659T-4 665Q-21 665 -39 652T-73 620L-58 695Q-21 710 14 710Z"
				   horiz-adv-x="0" unicode="̉"/>
			<glyph d="M34 709Q61 709 77 690T94 645Q94 596 51 548T-58 479L-76 521Q-19 541 5 585Q-12 591 -23 606T-35 641Q-35 670 -15 689T34 709Z"
				   horiz-adv-x="0" unicode="̛"/>
			<glyph d="M15 -65Q41 -65 56 -81T72 -123Q72 -151 53 -170Q35 -189 6 -189Q-21 -189 -36 -173T-52 -131Q-52 -103 -32 -84T15 -65Z"
				   horiz-adv-x="0" unicode="̣"/>
			<glyph d="M166 448Q195 448 213 429T231 382Q231 350 209 329T156 308Q127 308 109 326T91 374Q91 407 112 427T166 448ZM83 127Q118 127 140 101T162 33Q162 -17 132 -67T51 -147T-67 -178Q-11 -157 30 -109T74 -11Q74 0 72 4Q64 1 57 1Q37 1 22 16T7 55Q7 86 29 106T83 127Z"
				   horiz-adv-x="244" unicode=";"/>
			<glyph d="M287 676H408L254 501Z" horiz-adv-x="466" unicode="΄"/>
			<glyph d="M299 742H414L268 576ZM418 665Q440 665 452 651T465 617Q465 594 450 578Q436 562 412 562Q390 562 376 576T363 611Q363 634 378 649T418 665ZM194 665Q216 665 228 651T240 617Q240 594 225 578T186 562Q164 562 151 576T138 611Q138 635 154 650T194 665Z"
				   horiz-adv-x="466" unicode="΅"/>
			<glyph d="M423 673H506L569 103Q574 59 586 31T615 0H426Q442 4 450 21T459 68Q459 80 448 175H197L155 106Q124 54 124 29Q124 5 144 0H-31Q-17 3 9 33T63 107ZM412 521L240 243H440ZM211 667H332L178 492Z"
				   horiz-adv-x="685" unicode="Ά"/>
			<glyph d="M131 307Q160 307 177 289T195 241Q195 210 173 188T120 167Q90 167 72 185T55 232Q55 263 76 285T131 307Z"
				   horiz-adv-x="244" unicode="·"/>
			<glyph d="M174 666H604L574 523Q572 562 551 579T477 596H317L271 376H405Q438 376 461 384T491 408L463 272Q458 292 442 300T391 308H257L208 70H370Q430 70 459 86T516 151L484 0H28Q52 5 70 26T96 83L197 552Q208 606 208 614Q208 634 198 648T174 666ZM46 667H167L13 492Z"
				   horiz-adv-x="573" unicode="Έ"/>
			<glyph d="M172 666H376Q353 660 336 640T314 591L268 376H557L602 587Q606 608 606 617Q606 636 598 649T575 666H779Q755 659 739 639T717 591L607 76Q603 59 603 49Q603 29 612 16T635 0H433Q454 4 469 22T492 72L542 308H254L205 76Q202 61 202 50Q202 35 206 25T218 8T234 0H32Q51 3 67 22T91 72L201 587Q204 604 204 616Q204 635 195 648T172 666ZM40 667H161L7 492Z"
				   horiz-adv-x="729" unicode="Ή"/>
			<glyph d="M169 666H371Q347 660 331 640T309 591L200 76Q196 55 196 48Q196 25 205 13T225 0H26Q47 4 62 22T85 72L195 587Q199 608 199 616Q199 637 190 650T169 666ZM40 667H161L7 492Z"
				   horiz-adv-x="322" unicode="Ί"/>
			<glyph d="M435 682Q541 682 603 613T665 428Q665 315 611 210Q558 105 470 45T281 -15Q175 -15 113 53T52 239Q52 354 104 458T245 622T435 682ZM420 613Q356 613 299 558T207 411T172 227Q172 147 204 101T295 55Q360 55 417 108T510 253T546 438Q546 519 512 566T420 613ZM59 667H180L26 492Z"
				   horiz-adv-x="673" unicode="Ό"/>
			<glyph d="M161 666H344Q333 660 329 650T325 628Q325 615 331 594L399 364L568 591Q597 630 597 647Q597 661 582 666H747Q707 652 662 592L420 274L378 76Q374 56 374 49Q374 29 383 16T405 0H205Q226 3 242 22T265 72L308 274L217 593Q209 620 196 639T161 666ZM40 667H161L7 492Z"
				   horiz-adv-x="652" unicode="Ύ"/>
			<glyph d="M494 682Q568 682 624 648T711 553T741 417Q741 355 719 290T656 168T553 71H583Q626 71 650 77T694 97T743 153L695 0H368Q414 22 461 68T546 175T603 303T622 425Q622 511 582 562T470 613Q403 613 344 560T250 412T214 228Q214 156 241 96T322 0H5L19 153Q30 115 44 99T84 77T174 71Q139 107 119 160T99 269Q99 368 153 469T297 626T494 682ZM100 667H221L67 492Z"
				   horiz-adv-x="793" unicode="Ώ"/>
			<glyph d="M236 486L162 140Q158 118 158 104Q159 58 195 57Q213 57 231 69T277 114Q261 53 225 18T141 -16Q100 -16 75 12T50 84Q50 107 56 130L105 353Q113 391 113 400Q113 418 101 430T70 443H66ZM210 742H325L179 576ZM329 665Q351 665 363 651T376 617Q376 594 361 578Q347 562 323 562Q301 562 287 576T274 611Q274 634 289 649T329 665ZM105 665Q127 665 139 651T151 617Q151 594 136 578T97 562Q75 562 62 576T49 611Q49 635 65 650T105 665Z"
				   horiz-adv-x="307" unicode="ΐ"/>
			<glyph d="M423 673H506L569 103Q574 59 586 31T615 0H426Q442 4 450 21T459 68Q459 80 448 175H197L155 106Q124 54 124 29Q124 5 144 0H-31Q-17 3 9 33T63 107ZM412 521L240 243H440Z"
				   horiz-adv-x="685" unicode="Α"/>
			<glyph d="M131 666H385Q466 666 518 625T571 519Q571 455 528 404T419 343Q477 330 508 289T539 192Q539 137 508 93T420 24T285 0H-1Q18 4 33 25T57 81L162 585Q165 599 165 612Q165 632 156 646T131 666ZM218 313L166 65H277Q343 65 382 100T421 194Q421 249 388 281T303 313ZM278 602L232 378H327Q381 378 418 415T455 508Q455 553 430 577T362 602Z"
				   horiz-adv-x="589" unicode="Β"/>
			<glyph d="M137 666H538L509 522Q506 562 485 579T412 596H281L174 81Q170 60 170 52Q170 31 179 17T202 0H-9Q13 4 32 25T59 83L168 587Q171 602 171 615Q171 652 137 666Z"
				   horiz-adv-x="469" unicode="Γ"/>
			<glyph d="M411 521L133 75H458ZM422 673H505L580 0H-6Z" horiz-adv-x="685" unicode="Δ"/>
			<glyph d="M147 666H577L547 523Q545 562 524 579T450 596H290L244 376H378Q411 376 434 384T464 408L436 272Q431 292 415 300T364 308H230L181 70H343Q403 70 432 86T489 151L457 0H1Q25 5 43 26T69 83L170 552Q181 606 181 614Q181 634 171 648T147 666Z"
				   horiz-adv-x="546" unicode="Ε"/>
			<glyph d="M140 666H614L168 70H371Q425 70 458 88T521 154L484 0H-15Q-6 13 65 108T431 596H225Q181 596 149 577T108 529Z"
				   horiz-adv-x="567" unicode="Ζ"/>
			<glyph d="M139 666H343Q320 660 303 640T281 591L235 376H524L569 587Q573 608 573 617Q573 636 565 649T542 666H746Q722 659 706 639T684 591L574 76Q570 59 570 49Q570 29 579 16T602 0H400Q421 4 436 22T459 72L509 308H221L172 76Q169 61 169 50Q169 35 173 25T185 8T201 0H-1Q18 3 34 22T58 72L168 587Q171 604 171 616Q171 635 162 648T139 666Z"
				   horiz-adv-x="696" unicode="Η"/>
			<glyph d="M450 682Q565 682 631 614T697 428Q697 312 641 206Q586 100 495 42T298 -15Q185 -15 118 54T52 239Q52 356 106 460T252 623T450 682ZM436 613Q365 613 305 559T208 413T172 227Q172 148 209 101T311 55Q383 55 444 107T541 250T578 438Q578 521 540 567T436 613ZM277 405Q286 373 348 373H424Q484 373 503 405L475 270Q475 277 467 285T444 299T405 305H328Q300 305 279 296T249 270Z"
				   horiz-adv-x="705" unicode="Θ"/>
			<glyph d="M142 666H344Q320 660 304 640T282 591L173 76Q169 55 169 48Q169 25 178 13T198 0H-1Q20 4 35 22T58 72L168 587Q172 608 172 616Q172 637 163 650T142 666Z"
				   horiz-adv-x="295" unicode="Ι"/>
			<glyph d="M135 666H340Q294 652 281 591L233 367L464 579Q513 625 513 650Q513 662 498 666H693Q648 653 579 591L337 374L488 100Q535 16 582 0H420L229 348L172 76Q169 61 169 50Q169 35 174 24T186 8T201 0H-1Q20 4 35 23T58 72L168 587Q171 602 171 615Q171 655 135 666Z"
				   horiz-adv-x="634" unicode="Κ"/>
			<glyph d="M423 673H506L569 103Q574 59 587 31T615 0H426Q441 3 449 20T459 68Q459 76 457 97L412 521L155 106Q124 54 124 29Q124 5 144 0H-31Q-17 3 9 33T63 107Z"
				   horiz-adv-x="685" unicode="Λ"/>
			<glyph d="M138 666H314L420 199L714 666H891Q866 659 848 633T823 569L723 100Q718 73 718 59Q718 36 727 20T751 0H547Q567 4 585 30T613 98L704 516L367 -13L247 516L158 103Q153 81 153 65Q153 38 164 21T195 0H0Q24 5 44 30T74 101L174 569Q179 590 179 605Q179 630 168 645T138 666Z"
				   horiz-adv-x="847" unicode="Μ"/>
			<glyph d="M115 666H262L503 201L585 590Q588 602 588 613Q588 633 578 647T551 666H726Q705 660 691 641T671 594L541 -8H474Q458 47 422 118L234 480L147 71Q145 63 145 50Q145 35 150 24T165 8T182 0H0Q23 4 38 22T60 68L167 559Q169 570 169 581Q169 602 153 631T115 666Z"
				   horiz-adv-x="674" unicode="Ν"/>
			<glyph d="M9 160Q21 108 46 89T132 71H314Q371 71 405 88T476 160L425 0H9ZM144 666H542L512 523Q510 554 500 568T470 589T419 596H238Q193 596 163 580T113 523ZM148 405Q157 373 219 373H352Q412 373 431 405L404 270Q404 278 395 286T372 299T333 305H199Q172 305 151 296T120 270Z"
				   horiz-adv-x="514" unicode="Ξ"/>
			<glyph d="M435 682Q541 682 603 613T665 428Q665 315 611 210Q558 105 470 45T281 -15Q175 -15 113 53T52 239Q52 354 104 458T245 622T435 682ZM420 613Q356 613 299 558T207 411T172 227Q172 147 204 101T295 55Q360 55 417 108T510 253T546 438Q546 519 512 566T420 613Z"
				   horiz-adv-x="673" unicode="Ο"/>
			<glyph d="M139 666H726Q702 659 686 639T664 591L554 76Q550 59 550 49Q550 29 560 15T582 0H380Q400 3 416 22T439 72L551 599H282L172 76Q169 61 169 50Q169 35 174 24T186 7T201 0H-1Q19 3 35 22T58 72L168 587Q171 604 171 616Q171 635 162 648T139 666Z"
				   horiz-adv-x="676" unicode="Π"/>
			<glyph d="M136 666H378Q471 666 524 619T578 496Q578 435 545 382T452 299T316 269Q291 269 258 273T215 282L170 76Q167 61 167 50Q167 35 172 24T184 8T199 0H-1Q19 4 35 22T58 72L169 587Q172 601 172 614Q172 634 162 647T136 666ZM284 602L228 347Q270 337 305 337Q354 337 390 357T447 413T467 494Q467 542 438 572T361 602Z"
				   horiz-adv-x="567" unicode="Ρ"/>
			<glyph d="M110 666H566L536 523Q534 554 524 568T495 589T445 596H256L365 338L122 75H331Q374 75 398 81T440 104T479 156L446 0H-41L254 321Z"
				   horiz-adv-x="535" unicode="Σ"/>
			<glyph d="M116 666H650L616 514Q613 565 591 582T519 599H423L311 76Q308 61 308 49Q308 30 317 16T337 0H139Q158 3 174 22T198 72L310 599H212Q161 599 132 580T81 516Z"
				   horiz-adv-x="581" unicode="Τ"/>
			<glyph d="M97 666H280Q269 660 265 650T261 628Q261 615 267 594L335 364L504 591Q533 630 533 647Q533 661 518 666H683Q643 652 598 592L356 274L314 76Q310 56 310 49Q310 29 319 16T341 0H141Q162 3 178 22T201 72L244 274L153 593Q145 620 132 639T97 666Z"
				   horiz-adv-x="588" unicode="Υ"/>
			<glyph d="M350 682H545Q524 678 506 652T478 577Q575 565 635 507T696 369Q696 298 656 238T541 139T375 93Q367 54 367 38Q367 15 375 0T398 -16H205Q218 -12 229 -1T250 28T272 92Q172 107 112 163T53 300Q53 371 92 430T206 528T375 576Q381 605 381 623Q381 646 373 662T350 682ZM462 503L390 164Q444 171 489 199T561 269T587 362Q587 415 554 452T462 503ZM360 506Q306 498 261 470T190 401T165 308Q165 253 197 216T288 167Z"
				   horiz-adv-x="706" unicode="Φ"/>
			<glyph d="M107 666H296Q273 657 273 631Q273 614 281 594L350 425L498 594Q527 628 527 647Q527 662 511 666H688Q649 649 600 594L383 345L488 84Q502 48 518 25T547 0H359Q368 2 373 12T379 37Q379 55 368 84L302 251L155 84Q119 43 119 19Q119 4 132 0H-41Q-28 4 -1 28T52 84L269 332L162 594Q139 650 107 666Z"
				   horiz-adv-x="609" unicode="Χ"/>
			<glyph d="M102 666H289Q268 660 251 633T226 567Q202 455 199 439T197 408Q197 357 224 331T310 300L367 570Q371 589 371 609Q371 631 363 646T341 666H534Q510 658 493 632T469 568L412 297Q484 302 527 344T589 470Q603 533 609 563T616 611Q616 632 608 647T589 666H779Q731 648 713 565L693 472Q666 348 594 288T396 224L369 96Q364 70 364 55Q364 32 372 17T393 0H205Q216 2 228 14T250 45T267 96L294 227Q197 233 145 277T94 401Q94 430 102 466L123 565Q129 593 129 611Q129 655 102 666Z"
				   horiz-adv-x="693" unicode="Ψ"/>
			<glyph d="M494 682Q568 682 624 648T711 553T741 417Q741 355 719 290T656 168T553 71H583Q626 71 650 77T694 97T743 153L695 0H368Q414 22 461 68T546 175T603 303T622 425Q622 511 582 562T470 613Q403 613 344 560T250 412T214 228Q214 156 241 96T322 0H5L19 153Q30 115 44 99T84 77T174 71Q139 107 119 160T99 269Q99 368 153 469T297 626T494 682Z"
				   horiz-adv-x="793" unicode="Ω"/>
			<glyph d="M142 666H344Q320 660 304 640T282 591L173 76Q169 55 169 48Q169 25 178 13T198 0H-1Q20 4 35 22T58 72L168 587Q172 608 172 616Q172 637 163 650T142 666ZM364 848Q387 848 400 833T414 796Q414 771 398 754Q382 738 357 738Q334 738 319 752T305 790Q305 815 322 831T364 848ZM178 848Q201 848 214 833T228 796Q228 771 211 754T170 738Q147 738 133 752T119 790Q119 814 135 831T178 848Z"
				   horiz-adv-x="295" unicode="Ϊ"/>
			<glyph d="M97 666H280Q269 660 265 650T261 628Q261 615 267 594L335 364L504 591Q533 630 533 647Q533 661 518 666H683Q643 652 598 592L356 274L314 76Q310 56 310 49Q310 29 319 16T341 0H141Q162 3 178 22T201 72L244 274L153 593Q145 620 132 639T97 666ZM508 847Q531 847 544 832T558 795Q558 770 542 753Q526 737 501 737Q478 737 463 751T449 789Q449 814 466 830T508 847ZM322 847Q345 847 358 832T372 795Q372 770 355 753T314 737Q291 737 277 751T263 789Q263 813 279 830T322 847Z"
				   horiz-adv-x="588" unicode="Ϋ"/>
			<glyph d="M482 486L556 423Q532 416 502 374T443 267L419 214Q413 162 413 143Q413 46 477 46L381 -18Q358 -6 342 21T323 84Q282 28 244 6T159 -15Q97 -15 62 25T27 138Q27 219 64 301T159 434T280 485Q330 485 358 446T386 338Q408 393 431 432T482 486ZM279 417Q244 417 209 375T153 267T132 141Q132 103 147 78T194 54Q229 54 265 95Q302 136 328 204Q334 263 334 299Q334 360 320 388T279 417ZM327 676H448L294 501Z"
				   horiz-adv-x="523" unicode="ά"/>
			<glyph d="M282 485Q338 485 371 462T404 408Q404 387 389 368T350 335Q342 422 262 422Q222 422 192 396T163 332Q163 300 188 282T261 265H298L285 206H236Q180 206 146 184T112 123Q112 93 135 75T195 57Q292 57 364 133Q343 67 289 26T161 -15Q95 -15 52 19T9 108Q9 160 48 196T151 244Q119 251 96 277T73 338Q73 381 101 414T177 466T282 485ZM273 676H394L240 501Z"
				   horiz-adv-x="400" unicode="έ"/>
			<glyph d="M157 487Q176 479 187 458T199 411Q199 406 198 394Q231 435 279 460T376 485Q473 485 473 395Q473 379 462 321L382 -72Q376 -100 376 -122Q376 -147 382 -163T397 -181H253L358 300Q367 339 367 358Q366 416 318 416Q292 416 262 396T211 345T182 277L122 0H20L91 325Q97 353 97 373Q97 401 86 412T54 423ZM316 676H437L283 501Z"
				   unicode="ή"/>
			<glyph d="M236 486L162 140Q158 118 158 104Q159 58 195 57Q213 57 231 69T277 114Q261 53 225 18T141 -16Q100 -16 75 12T50 84Q50 107 56 130L105 353Q113 391 113 400Q113 418 101 430T70 443H66ZM196 676H317L163 501Z"
				   horiz-adv-x="307" unicode="ί"/>
			<glyph d="M152 487Q172 479 185 454T198 393Q198 373 192 344L156 179Q150 152 150 129Q150 91 170 71T225 52Q259 52 287 74T336 140T372 249T386 352Q386 395 374 420T342 448Q352 465 371 475T413 486Q448 486 469 451T491 358Q491 325 482 272Q456 133 382 59T202 -14Q132 -14 90 24T49 129Q49 154 55 180L86 326Q92 356 92 374Q92 403 80 413T49 423ZM316 742H431L285 576ZM435 665Q457 665 469 651T482 617Q482 594 467 578Q453 562 429 562Q407 562 393 576T380 611Q380 634 395 649T435 665ZM211 665Q233 665 245 651T257 617Q257 594 242 578T203 562Q181 562 168 576T155 611Q155 635 171 650T211 665Z"
				   horiz-adv-x="508" unicode="ΰ"/>
			<glyph d="M482 486L556 423Q532 416 502 374T443 267L419 214Q413 162 413 143Q413 46 477 46L381 -18Q358 -6 342 21T323 84Q282 28 244 6T159 -15Q97 -15 62 25T27 138Q27 219 64 301T159 434T280 485Q330 485 358 446T386 338Q408 393 431 432T482 486ZM279 417Q244 417 209 375T153 267T132 141Q132 103 147 78T194 54Q229 54 265 95Q302 136 328 204Q334 263 334 299Q334 360 320 388T279 417Z"
				   horiz-adv-x="523" unicode="α"/>
			<glyph d="M381 690Q449 690 491 653T533 559Q533 506 496 453T389 353Q431 326 454 288T477 207Q477 145 447 94T365 15T249 -13Q211 -13 179 0T133 34L125 -4Q107 -92 61 -140T-53 -189Q-81 -189 -106 -178T-147 -144Q-125 -149 -108 -149Q-58 -149 -26 -115T21 -4L117 459Q141 572 208 631T381 690ZM360 629Q311 629 274 586T223 472L158 156Q153 136 153 122Q153 91 176 72T241 54Q295 54 332 96T369 202Q369 237 347 268T269 334L327 379Q431 458 431 551Q431 585 413 607T360 629Z"
				   horiz-adv-x="521" unicode="β"/>
			<glyph d="M415 486Q441 486 458 468T476 424Q476 401 461 371T416 303L387 264L302 143Q265 90 243 36T203 -104L187 -181H77Q92 -113 139 0Q135 98 120 199T84 387Q76 418 64 430T23 444L167 483Q190 403 204 311T219 136Q241 173 271 214Q342 313 361 351T381 412Q381 428 373 438T353 449Q348 449 343 448Q352 464 373 475T415 486Z"
				   horiz-adv-x="477" unicode="γ"/>
			<glyph d="M378 698Q415 698 447 685T496 650T513 605Q513 573 488 546T425 509Q433 526 433 549Q433 584 410 606T351 628Q304 628 274 601T245 536Q245 491 289 449L339 402Q391 354 413 311T436 222Q436 157 404 102T318 16T197 -14Q120 -14 73 30T27 149Q27 230 81 299T219 397Q188 426 170 460T153 529Q153 579 181 617T262 677T378 698ZM259 360Q200 335 163 277T126 153Q126 104 148 78T206 52Q242 52 271 75T318 137T335 216Q335 289 275 345Z"
				   horiz-adv-x="479" unicode="δ"/>
			<glyph d="M282 485Q338 485 371 462T404 408Q404 387 389 368T350 335Q342 422 262 422Q222 422 192 396T163 332Q163 300 188 282T261 265H298L285 206H236Q180 206 146 184T112 123Q112 93 135 75T195 57Q292 57 364 133Q343 67 289 26T161 -15Q95 -15 52 19T9 108Q9 160 48 196T151 244Q119 251 96 277T73 338Q73 381 101 414T177 466T282 485Z"
				   horiz-adv-x="400" unicode="ε"/>
			<glyph d="M230 689Q270 689 338 685T450 681Q502 681 532 686L212 342Q162 288 143 248T125 174Q125 145 142 123T200 83Q278 47 307 18T336 -48Q336 -81 317 -109T264 -156T194 -180Q223 -155 235 -132T248 -83Q248 -62 233 -45T186 -15Q114 17 84 41T38 94T23 160Q23 193 34 222T67 282T148 377L364 611L254 614Q204 614 173 595T121 536Q113 556 113 579Q113 630 144 659T230 689Z"
				   horiz-adv-x="417" unicode="ζ"/>
			<glyph d="M157 487Q176 479 187 458T199 411Q199 406 198 394Q231 435 279 460T376 485Q473 485 473 395Q473 379 462 321L382 -72Q376 -100 376 -122Q376 -147 382 -163T397 -181H253L358 300Q367 339 367 358Q366 416 318 416Q292 416 262 396T211 345T182 277L122 0H20L91 325Q97 353 97 373Q97 401 86 412T54 423Z"
				   unicode="η"/>
			<glyph d="M324 694Q409 694 456 628T503 444Q503 320 463 214T356 47T206 -14Q134 -14 93 24T52 125Q52 141 55 156Q63 195 65 208T67 234Q67 261 56 272T24 283L127 347Q147 338 158 317T169 268Q169 240 160 198Q149 145 149 126Q149 91 166 71T216 52Q255 52 291 90T355 200T396 363Q357 354 316 354Q230 354 178 397T127 511Q127 561 152 603T223 670T324 694ZM316 628Q279 628 252 596T226 521Q226 416 345 416Q375 416 402 422L403 445V468Q403 545 380 586T316 628Z"
				   horiz-adv-x="514" unicode="θ"/>
			<glyph d="M236 486L162 140Q158 118 158 104Q159 58 195 57Q213 57 231 69T277 114Q261 53 225 18T141 -16Q100 -16 75 12T50 84Q50 107 56 130L105 353Q113 391 113 400Q113 418 101 430T70 443H66Z"
				   horiz-adv-x="307" unicode="ι"/>
			<glyph d="M229 488L168 213L208 260L274 340Q336 420 372 447T447 475Q482 475 503 451T524 390Q520 396 506 401T478 406Q466 406 454 401T424 385T390 360T354 327T273 240L372 83Q417 13 469 13Q452 2 428 -4T383 -11Q339 -11 311 14T237 118L206 170L146 109L123 0H21L94 335Q100 363 100 379Q100 424 63 423H52Z"
				   horiz-adv-x="502" unicode="κ"/>
			<glyph d="M220 694Q253 694 277 669T317 596T350 452L407 97Q421 9 455 0H336L294 313L98 0H-41Q-19 10 3 36T53 105L271 442L265 476Q252 551 225 587T155 624Q143 624 131 621Q142 655 166 674T220 694Z"
				   horiz-adv-x="490" unicode="λ"/>
			<glyph d="M120 468H222L158 176Q148 135 148 109Q148 55 195 55Q223 55 252 75T303 128T333 195L391 468H495L423 145Q417 118 417 96Q417 46 456 46H460L357 -18Q314 0 312 71Q277 25 249 5T194 -15Q172 -15 154 -2T129 31L84 -181H-57Q-39 -178 -23 -153T2 -88Z"
				   horiz-adv-x="516" unicode="μ"/>
			<glyph d="M411 486Q438 486 455 468T473 426Q473 403 460 376T421 314L394 277L282 118Q240 59 213 0H148L89 367Q82 412 67 427T23 444L174 485L222 147L330 304Q353 336 365 365T378 415Q378 430 369 439T349 449Q345 449 339 448Q350 464 370 475T411 486Z"
				   horiz-adv-x="474" unicode="ν"/>
			<glyph d="M345 698Q405 698 444 670T483 604Q483 573 458 546T395 509Q403 525 403 548Q403 582 381 605T321 628Q285 628 256 606T211 548T195 469Q195 422 225 396T315 370H382L368 305H298Q251 305 211 289T148 244T125 176Q125 144 143 122T200 83Q277 48 306 18T336 -49Q336 -96 295 -134T193 -180Q248 -135 248 -84Q248 -67 240 -55T216 -32T144 5Q23 61 23 162Q23 227 68 274T203 343Q157 356 130 393T103 479Q103 540 135 590T223 669T345 698Z"
				   horiz-adv-x="417" unicode="ξ"/>
			<glyph d="M297 484Q349 484 387 460T445 394T466 297Q466 219 429 145Q392 72 329 29T194 -14Q142 -14 104 9T46 76T27 173Q27 250 64 323T163 440T297 484ZM287 418Q248 418 213 383T155 281T131 161Q131 111 151 81T205 52Q243 52 277 86Q312 120 336 185T360 308Q360 359 340 388T287 418Z"
				   horiz-adv-x="493" unicode="ο"/>
			<glyph d="M645 476L630 402Q592 392 536 392Q518 392 494 393L440 140Q435 121 435 104Q435 82 445 72T471 62Q490 62 513 76T554 114Q535 53 497 18T413 -16Q375 -16 352 7T330 72Q330 92 334 109L395 395L267 400L237 260Q210 132 177 71T94 -18L15 47Q44 56 75 88T131 169T169 277L196 403Q184 404 173 404Q125 404 90 381T35 318Q31 333 31 347Q31 401 73 437T179 473Q230 473 367 467T553 461Q585 461 610 466T645 476Z"
				   horiz-adv-x="606" unicode="π"/>
			<glyph d="M307 484Q380 484 426 433T472 297Q472 223 435 151T342 39T221 0Q188 0 160 15T119 57Q111 13 111 -2Q111 -30 128 -46T191 -75Q264 -96 291 -116T318 -170Q318 -201 293 -223T226 -250Q247 -232 247 -210Q247 -193 228 -181T144 -150Q76 -129 47 -93T18 2Q18 38 31 101L61 242Q114 484 307 484ZM293 418Q248 418 213 374T161 250T143 144Q143 105 164 84T221 64Q259 64 291 96T344 189T366 310Q366 360 347 389T293 418Z"
				   horiz-adv-x="498" unicode="ρ"/>
			<glyph d="M326 485Q369 485 394 467T419 417Q419 383 393 348Q368 313 331 301Q339 314 339 341Q339 377 323 396T280 415Q243 415 209 384T153 297T130 187Q130 115 196 83Q276 44 302 16T329 -49Q329 -96 289 -133T186 -180Q241 -136 241 -88Q241 -63 224 -45T145 2Q90 28 58 72T27 170Q27 248 69 323T179 441T326 485Z"
				   horiz-adv-x="410" unicode="ς"/>
			<glyph d="M570 476L555 402Q519 392 466 392Q451 392 424 394Q460 336 460 267Q460 198 421 130T324 24T199 -14Q117 -14 72 36T27 177Q27 201 33 233Q54 342 128 406T307 470Q331 470 386 465T471 461Q500 461 529 466T570 476ZM298 402Q249 402 212 370T153 276T131 166Q131 111 150 81T208 52Q246 52 280 89T338 193T362 324Q362 362 353 398Q316 402 298 402Z"
				   horiz-adv-x="531" unicode="σ"/>
			<glyph d="M461 476L446 402Q413 392 361 392Q316 392 283 395L237 183Q232 163 228 142T224 104Q224 75 237 62T281 49Q303 49 327 57T370 76Q350 34 309 9T218 -15Q169 -15 142 8T115 75Q115 96 122 131L183 402Q173 403 160 403Q122 403 88 380T35 318Q31 329 31 347Q31 402 74 437T180 473Q211 473 275 467T373 461Q394 461 418 465T461 476Z"
				   horiz-adv-x="422" unicode="τ"/>
			<glyph d="M152 487Q172 479 185 454T198 393Q198 373 192 344L156 179Q150 152 150 129Q150 91 170 71T225 52Q259 52 287 74T336 140T372 249T386 352Q386 395 374 420T342 448Q352 465 371 475T413 486Q448 486 469 451T491 358Q491 325 482 272Q456 133 382 59T202 -14Q132 -14 90 24T49 129Q49 154 55 180L86 326Q92 356 92 374Q92 403 80 413T49 423Z"
				   horiz-adv-x="508" unicode="υ"/>
			<glyph d="M210 486Q233 486 249 475T269 448Q232 445 198 408T145 313T126 202Q126 146 153 109T230 57L275 270Q299 382 350 433T483 485Q549 485 588 439T628 320Q628 229 589 156T478 39T314 -15L281 -186H178L215 -12Q127 7 79 63T31 202Q31 282 56 346T124 448T210 486ZM471 416Q437 416 412 380T371 264L327 54Q380 62 427 100T502 197T529 329Q529 374 512 395T471 416Z"
				   horiz-adv-x="651" unicode="φ"/>
			<glyph d="M410 486Q437 486 453 468T470 425Q470 405 456 379T412 314L266 127L323 -84Q343 -157 409 -157L258 -199L194 63L78 -94Q49 -135 49 -152Q49 -173 75 -181H-76L172 144L115 346Q103 391 78 417T23 444L173 485L243 202L323 307Q376 379 376 416Q376 430 368 439T347 449Q343 449 337 448Q348 464 368 475T410 486Z"
				   horiz-adv-x="471" unicode="χ"/>
			<glyph d="M336 666H476L349 54Q407 65 450 105T518 210T542 352Q542 395 530 420T498 448Q509 465 528 475T569 486Q604 486 625 451T646 358Q646 261 607 179T498 48T336 -11L300 -186H197L234 -10Q147 0 100 43T54 159Q54 183 60 210L84 326Q90 356 90 374Q90 400 79 411T47 423L149 487Q169 479 181 453T194 393Q194 371 188 344L161 214Q154 183 154 159Q154 117 179 90T248 54L358 569Q363 590 363 613Q363 634 356 648T336 666Z"
				   horiz-adv-x="663" unicode="ψ"/>
			<glyph d="M223 486Q243 486 260 475T281 448Q241 448 203 404T145 290T126 152Q126 102 141 77T182 52Q214 52 238 79T273 161L298 282H389L365 168Q360 143 360 124Q360 89 375 70T418 52Q455 52 482 91T529 208T549 338Q549 390 532 419T484 448Q494 463 514 474T553 486Q595 486 621 449T647 347Q647 292 629 220T581 95T506 14T409 -14Q373 -14 342 9T302 68Q279 30 245 8T170 -14Q104 -14 67 32T31 162Q31 206 44 271T84 384T147 459T223 486Z"
				   horiz-adv-x="670" unicode="ω"/>
			<glyph d="M236 486L162 140Q158 118 158 104Q159 58 195 57Q213 57 231 69T277 114Q261 53 225 18T141 -16Q100 -16 75 12T50 84Q50 107 56 130L105 353Q113 391 113 400Q113 418 101 430T70 443H66ZM308 669Q331 669 344 655T358 619Q358 595 341 579T300 563Q278 563 264 577T251 613Q251 637 267 653T308 669ZM125 669Q147 669 160 655T174 619Q174 596 158 579Q142 563 117 563Q94 563 80 577T67 613Q67 637 84 653T125 669Z"
				   horiz-adv-x="307" unicode="ϊ"/>
			<glyph d="M152 487Q172 479 185 454T198 393Q198 373 192 344L156 179Q150 152 150 129Q150 91 170 71T225 52Q259 52 287 74T336 140T372 249T386 352Q386 395 374 420T342 448Q352 465 371 475T413 486Q448 486 469 451T491 358Q491 325 482 272Q456 133 382 59T202 -14Q132 -14 90 24T49 129Q49 154 55 180L86 326Q92 356 92 374Q92 403 80 413T49 423ZM425 669Q448 669 461 655T475 619Q475 595 458 579T417 563Q395 563 381 577T368 613Q368 637 384 653T425 669ZM242 669Q264 669 277 655T291 619Q291 596 275 579Q259 563 234 563Q211 563 197 577T184 613Q184 637 201 653T242 669Z"
				   horiz-adv-x="508" unicode="ϋ"/>
			<glyph d="M297 484Q349 484 387 460T445 394T466 297Q466 219 429 145Q392 72 329 29T194 -14Q142 -14 104 9T46 76T27 173Q27 250 64 323T163 440T297 484ZM287 418Q248 418 213 383T155 281T131 161Q131 111 151 81T205 52Q243 52 277 86Q312 120 336 185T360 308Q360 359 340 388T287 418ZM327 676H448L294 501Z"
				   horiz-adv-x="493" unicode="ό"/>
			<glyph d="M152 487Q172 479 185 454T198 393Q198 373 192 344L156 179Q150 152 150 129Q150 91 170 71T225 52Q259 52 287 74T336 140T372 249T386 352Q386 395 374 420T342 448Q352 465 371 475T413 486Q448 486 469 451T491 358Q491 325 482 272Q456 133 382 59T202 -14Q132 -14 90 24T49 129Q49 154 55 180L86 326Q92 356 92 374Q92 403 80 413T49 423ZM309 676H430L276 501Z"
				   horiz-adv-x="508" unicode="ύ"/>
			<glyph d="M223 486Q243 486 260 475T281 448Q241 448 203 404T145 290T126 152Q126 102 141 77T182 52Q214 52 238 79T273 161L298 282H389L365 168Q360 143 360 124Q360 89 375 70T418 52Q455 52 482 91T529 208T549 338Q549 390 532 419T484 448Q494 463 514 474T553 486Q595 486 621 449T647 347Q647 292 629 220T581 95T506 14T409 -14Q373 -14 342 9T302 68Q279 30 245 8T170 -14Q104 -14 67 32T31 162Q31 206 44 271T84 384T147 459T223 486ZM396 676H517L363 501Z"
				   horiz-adv-x="670" unicode="ώ"/>
			<glyph d="M147 666H577L547 523Q545 562 524 579T450 596H290L244 376H378Q411 376 434 384T464 408L436 272Q431 292 415 300T364 308H230L181 70H343Q403 70 432 86T489 151L457 0H1Q25 5 43 26T69 83L170 552Q181 606 181 614Q181 634 171 648T147 666ZM285 853H419L435 698Z"
				   horiz-adv-x="546" unicode="Ѐ"/>
			<glyph d="M147 666H577L547 523Q545 562 524 579T450 596H290L244 376H378Q411 376 434 384T464 408L436 272Q431 292 415 300T364 308H230L181 70H343Q403 70 432 86T489 151L457 0H1Q25 5 43 26T69 83L170 552Q181 606 181 614Q181 634 171 648T147 666ZM485 849Q508 849 521 834T535 797Q535 772 519 755Q503 739 478 739Q455 739 440 753T426 791Q426 816 443 832T485 849ZM299 849Q322 849 335 834T349 797Q349 772 332 755T291 739Q268 739 254 753T240 791Q240 815 256 832T299 849Z"
				   horiz-adv-x="546" unicode="Ё"/>
			<glyph d="M116 666H665L631 514Q627 565 606 582T533 599H423L376 382Q445 421 529 421Q613 421 663 371T714 242Q714 165 680 102T586 5T447 -30Q515 2 555 72T595 231Q595 283 566 313T488 344Q425 344 361 310L311 76Q308 61 308 49Q308 30 316 16T335 0H141Q159 3 175 22T198 72L310 599H211Q159 599 131 580T81 516Z"
				   horiz-adv-x="749" unicode="Ђ"/>
			<glyph d="M137 666H538L509 522Q506 562 485 579T412 596H281L174 81Q170 60 170 52Q170 31 179 17T202 0H-9Q13 4 32 25T59 83L168 587Q171 602 171 615Q171 652 137 666ZM385 853H524L309 698Z"
				   horiz-adv-x="469" unicode="Ѓ"/>
			<glyph d="M448 680Q493 680 531 669T591 642L559 494Q535 609 436 609Q363 609 296 544T193 374H387Q454 374 473 406L445 270Q441 289 426 297T373 306H178Q173 278 173 245Q173 160 214 110T324 61Q372 61 417 83T500 151L479 54Q447 21 394 2T282 -16Q216 -16 163 15T82 106T53 241Q53 354 110 459T256 622T448 680Z"
				   horiz-adv-x="552" unicode="Є"/>
			<glyph d="M337 682Q380 682 426 669T504 636L475 497Q459 550 419 579T326 609Q276 609 247 581T218 508Q218 480 236 453T293 398Q353 355 377 334T419 292T447 245T457 189Q457 95 391 39T213 -16Q161 -16 105 0T15 40L51 205Q66 136 110 97T223 59Q278 59 310 87T343 163Q343 186 332 205T304 242T226 304Q157 354 132 394T108 481Q108 568 171 625T337 682Z"
				   horiz-adv-x="504" unicode="Ѕ"/>
			<glyph d="M142 666H344Q320 660 304 640T282 591L173 76Q169 55 169 48Q169 25 178 13T198 0H-1Q20 4 35 22T58 72L168 587Q172 608 172 616Q172 637 163 650T142 666Z"
				   horiz-adv-x="295" unicode="І"/>
			<glyph d="M142 666H344Q320 660 304 640T282 591L173 76Q169 55 169 48Q169 25 178 13T198 0H-1Q20 4 35 22T58 72L168 587Q172 608 172 616Q172 637 163 650T142 666ZM364 849Q387 849 400 834T414 797Q414 772 398 755Q382 739 357 739Q334 739 319 753T305 791Q305 816 322 832T364 849ZM178 849Q201 849 214 834T228 797Q228 772 211 755T170 739Q147 739 133 753T119 791Q119 815 135 832T178 849Z"
				   horiz-adv-x="295" unicode="Ї"/>
			<glyph d="M141 666H353Q331 660 313 637T289 578L195 132Q174 29 130 -20T14 -69Q-18 -69 -46 -58T-90 -26Q-75 -32 -55 -32Q-6 -32 30 16T85 152L176 577Q180 595 180 612Q180 629 175 639T164 656T141 666Z"
				   horiz-adv-x="302" unicode="Ј"/>
			<glyph d="M423 673H499L530 386H663Q756 386 807 342T859 225Q859 162 825 110T730 29T597 0H424Q437 2 446 20T456 68Q456 78 454 97L412 521L155 106Q124 54 124 29Q124 15 130 8T144 0H-31Q-18 2 8 31T63 107ZM537 322L565 70H599Q663 70 705 113T748 220Q748 268 720 295T646 322Z"
				   horiz-adv-x="887" unicode="Љ"/>
			<glyph d="M139 666H342Q320 660 303 639T281 591L235 376H509L554 587Q558 608 558 617Q558 636 549 649T527 666H730Q709 661 692 640T669 591L625 386H698Q791 386 842 342T894 225Q894 162 859 110T764 29T632 0H386Q406 4 422 23T444 72L494 308H221L172 76Q169 61 169 50Q169 30 178 16T200 0H1Q20 4 36 23T58 72L168 587Q171 604 171 616Q171 635 162 648T139 666ZM612 322L558 70H634Q697 70 740 113T783 220Q783 268 756 295T681 322Z"
				   horiz-adv-x="922" unicode="Њ"/>
			<glyph d="M116 666H665L631 514Q627 566 606 582T533 599H423L376 382Q443 421 524 421Q605 421 650 382T695 270Q695 241 686 199L664 97Q658 71 658 52Q658 12 690 0H490Q534 13 552 99L573 196Q581 236 581 255Q581 300 556 322T485 344Q424 344 361 310L311 76Q308 61 308 49Q308 28 317 14T336 0H140Q159 3 175 22T198 72L310 599H213Q160 599 131 580T81 516Z"
				   horiz-adv-x="759" unicode="Ћ"/>
			<glyph d="M135 666H340Q294 652 281 591L233 367L464 579Q513 625 513 650Q513 662 498 666H693Q648 653 579 591L337 374L488 100Q535 16 582 0H420L229 348L172 76Q169 61 169 50Q169 35 174 24T186 8T201 0H-1Q20 4 35 23T58 72L168 587Q171 602 171 615Q171 655 135 666ZM446 853H585L370 698Z"
				   horiz-adv-x="634" unicode="Ќ"/>
			<glyph d="M139 666H341Q318 660 301 640T279 591L195 198L571 587Q575 604 575 617Q575 635 567 648T544 666H746Q722 659 706 639T684 591L574 76Q570 59 570 49Q570 29 579 16T602 0H402Q422 3 438 21T461 72L546 465L170 76Q167 61 167 50Q167 35 172 24T184 8T199 0H-1Q21 4 36 23T58 72L168 587Q171 604 171 616Q171 635 162 648T139 666ZM332 853H466L483 698Z"
				   horiz-adv-x="696" unicode="Ѝ"/>
			<glyph d="M91 666H283Q269 663 260 649T252 614Q252 596 260 567L350 280L556 573Q566 588 572 605T579 636Q579 646 573 654T557 666H745Q730 661 702 631T638 551L338 129Q283 51 232 18T115 -15Q59 -15 28 0L53 114Q64 88 83 74T128 61Q149 61 171 72T214 103T274 173L152 554Q120 655 91 666ZM559 869L594 845Q513 717 413 717Q370 717 341 738T312 794Q312 817 332 832T383 848Q380 833 380 819Q381 764 429 764Q490 764 559 869Z"
				   horiz-adv-x="655" unicode="Ў"/>
			<glyph d="M140 666H340Q318 660 303 641T283 594L172 71H441L550 590Q553 608 553 616Q553 634 544 648T521 666H721Q700 661 685 642T664 594L554 79Q551 63 551 50Q551 31 559 18T582 0H426Q383 0 345 -34T278 -132L265 -161H257L256 -132Q254 -99 243 -66T211 -17T159 0H-4Q9 3 21 12T43 36T58 75L168 590Q172 611 172 617Q172 635 163 648T140 666Z"
				   horiz-adv-x="676" unicode="Џ"/>
			<glyph d="M423 673H506L569 103Q574 59 586 31T615 0H426Q442 4 450 21T459 68Q459 80 448 175H197L155 106Q124 54 124 29Q124 5 144 0H-31Q-17 3 9 33T63 107ZM412 521L240 243H440Z"
				   horiz-adv-x="685" unicode="А"/>
			<glyph d="M139 666H563L534 522Q531 562 510 579T437 596H282L240 400H318Q416 400 473 355T530 236Q530 170 492 115T390 30T250 0H0Q45 8 61 82L164 568Q171 601 171 616Q171 653 139 666ZM227 336L171 70H253Q320 70 366 116T412 231Q412 280 383 308T301 336Z"
				   horiz-adv-x="559" unicode="Б"/>
			<glyph d="M131 666H385Q466 666 518 625T571 519Q571 455 528 404T419 343Q477 330 508 289T539 192Q539 137 508 93T420 24T285 0H-1Q18 4 33 25T57 81L162 585Q165 599 165 612Q165 632 156 646T131 666ZM218 313L166 65H277Q343 65 382 100T421 194Q421 249 388 281T303 313ZM278 602L232 378H327Q381 378 418 415T455 508Q455 553 430 577T362 602Z"
				   horiz-adv-x="589" unicode="В"/>
			<glyph d="M137 666H538L509 522Q506 562 485 579T412 596H281L174 81Q170 60 170 52Q170 31 179 17T202 0H-9Q13 4 32 25T59 83L168 587Q171 602 171 615Q171 652 137 666Z"
				   horiz-adv-x="469" unicode="Г"/>
			<glyph d="M428 673H511L575 98Q577 84 583 79T603 75H632L581 -161H572Q569 -83 535 -41T446 0H155Q117 0 80 -19T10 -78T-41 -161H-49L1 75H25Q42 75 49 81T62 97ZM417 521L139 75H464Z"
				   horiz-adv-x="698" unicode="Д"/>
			<glyph d="M147 666H577L547 523Q545 562 524 579T450 596H290L244 376H378Q411 376 434 384T464 408L436 272Q431 292 415 300T364 308H230L181 70H343Q403 70 432 86T489 151L457 0H1Q25 5 43 26T69 83L170 552Q181 606 181 614Q181 634 171 648T147 666Z"
				   horiz-adv-x="546" unicode="Е"/>
			<glyph d="M124 666H313Q304 663 296 653T289 633Q289 605 317 561L445 357L489 564Q494 586 494 611Q494 631 487 645T465 666H652Q632 660 615 633T590 564L546 358L753 561Q815 622 815 647Q815 660 801 666H999Q975 661 933 632T844 557L636 354L772 108Q796 63 821 35T873 0H715L539 327L492 101Q484 63 484 50Q484 30 491 16T513 0H326Q347 4 364 29T391 101L438 324L136 0H-41Q15 14 108 111L352 365L234 558Q207 603 177 631T124 666Z"
				   horiz-adv-x="930" unicode="Ж"/>
			<glyph d="M336 682Q417 682 468 640T520 532Q520 460 471 406T340 334Q396 317 429 277T463 187Q463 130 429 83T336 11T199 -15Q73 -15 3 36L38 203Q49 135 92 96T199 58Q262 58 304 96T346 193Q346 246 297 274T161 303L176 374H240Q312 374 358 414T404 518Q404 558 380 581T316 605Q272 605 238 589T178 549T116 467L154 642Q247 682 336 682Z"
				   horiz-adv-x="512" unicode="З"/>
			<glyph d="M139 666H341Q318 660 301 640T279 591L195 198L571 587Q575 604 575 617Q575 635 567 648T544 666H746Q722 659 706 639T684 591L574 76Q570 59 570 49Q570 29 579 16T602 0H402Q422 3 438 21T461 72L546 465L170 76Q167 61 167 50Q167 35 172 24T184 8T199 0H-1Q21 4 36 23T58 72L168 587Q171 604 171 616Q171 635 162 648T139 666Z"
				   horiz-adv-x="696" unicode="И"/>
			<glyph d="M139 666H341Q318 660 301 640T279 591L195 198L571 587Q575 604 575 617Q575 635 567 648T544 666H746Q722 659 706 639T684 591L574 76Q570 59 570 49Q570 29 579 16T602 0H402Q422 3 438 21T461 72L546 465L170 76Q167 61 167 50Q167 35 172 24T184 8T199 0H-1Q21 4 36 23T58 72L168 587Q171 604 171 616Q171 635 162 648T139 666ZM588 869L623 845Q542 717 442 717Q399 717 370 738T341 794Q341 817 361 832T412 848Q409 833 409 819Q410 764 458 764Q519 764 588 869Z"
				   horiz-adv-x="696" unicode="Й"/>
			<glyph d="M135 666H340Q294 652 281 591L233 367L464 579Q513 625 513 650Q513 662 498 666H693Q648 653 579 591L337 374L488 100Q535 16 582 0H420L229 348L172 76Q169 61 169 50Q169 35 174 24T186 8T201 0H-1Q20 4 35 23T58 72L168 587Q171 602 171 615Q171 655 135 666Z"
				   horiz-adv-x="634" unicode="К"/>
			<glyph d="M423 673H506L569 103Q574 59 587 31T615 0H426Q441 3 449 20T459 68Q459 76 457 97L412 521L155 106Q124 54 124 29Q124 5 144 0H-31Q-17 3 9 33T63 107Z"
				   horiz-adv-x="685" unicode="Л"/>
			<glyph d="M138 666H314L420 199L714 666H891Q866 659 848 633T823 569L723 100Q718 73 718 59Q718 36 727 20T751 0H547Q567 4 585 30T613 98L704 516L367 -13L247 516L158 103Q153 81 153 65Q153 38 164 21T195 0H0Q24 5 44 30T74 101L174 569Q179 590 179 605Q179 630 168 645T138 666Z"
				   horiz-adv-x="847" unicode="М"/>
			<glyph d="M139 666H343Q320 660 303 640T281 591L235 376H524L569 587Q573 608 573 617Q573 636 565 649T542 666H746Q722 659 706 639T684 591L574 76Q570 59 570 49Q570 29 579 16T602 0H400Q421 4 436 22T459 72L509 308H221L172 76Q169 61 169 50Q169 35 173 25T185 8T201 0H-1Q18 3 34 22T58 72L168 587Q171 604 171 616Q171 635 162 648T139 666Z"
				   horiz-adv-x="696" unicode="Н"/>
			<glyph d="M435 682Q541 682 603 613T665 428Q665 315 611 210Q558 105 470 45T281 -15Q175 -15 113 53T52 239Q52 354 104 458T245 622T435 682ZM420 613Q356 613 299 558T207 411T172 227Q172 147 204 101T295 55Q360 55 417 108T510 253T546 438Q546 519 512 566T420 613Z"
				   horiz-adv-x="673" unicode="О"/>
			<glyph d="M139 666H726Q702 659 686 639T664 591L554 76Q550 59 550 49Q550 29 560 15T582 0H380Q400 3 416 22T439 72L551 599H282L172 76Q169 61 169 50Q169 35 174 24T186 7T201 0H-1Q19 3 35 22T58 72L168 587Q171 604 171 616Q171 635 162 648T139 666Z"
				   horiz-adv-x="676" unicode="П"/>
			<glyph d="M136 666H378Q471 666 524 619T578 496Q578 435 545 382T452 299T316 269Q291 269 258 273T215 282L170 76Q167 61 167 50Q167 35 172 24T184 8T199 0H-1Q19 4 35 22T58 72L169 587Q172 601 172 614Q172 634 162 647T136 666ZM284 602L228 347Q270 337 305 337Q354 337 390 357T447 413T467 494Q467 542 438 572T361 602Z"
				   horiz-adv-x="567" unicode="Р"/>
			<glyph d="M448 680Q493 680 531 669T591 642L559 494Q535 609 436 609Q371 609 310 557T212 419T175 245Q175 159 215 110T324 61Q373 61 418 83T500 151L479 54Q447 21 394 2T282 -16Q216 -16 163 15T82 106T53 241Q53 354 110 459T256 622T448 680Z"
				   horiz-adv-x="552" unicode="С"/>
			<glyph d="M116 666H650L616 514Q613 565 591 582T519 599H423L311 76Q308 61 308 49Q308 30 317 16T337 0H139Q158 3 174 22T198 72L310 599H212Q161 599 132 580T81 516Z"
				   horiz-adv-x="581" unicode="Т"/>
			<glyph d="M91 666H283Q269 663 260 649T252 614Q252 596 260 567L350 280L556 573Q566 588 572 605T579 636Q579 646 573 654T557 666H745Q730 661 702 631T638 551L338 129Q283 51 232 18T115 -15Q59 -15 28 0L53 114Q64 88 83 74T128 61Q149 61 171 72T214 103T274 173L152 554Q120 655 91 666Z"
				   horiz-adv-x="655" unicode="У"/>
			<glyph d="M350 682H545Q524 678 506 652T478 577Q575 565 635 507T696 369Q696 298 656 238T541 139T375 93Q367 54 367 38Q367 15 375 0T398 -16H205Q218 -12 229 -1T250 28T272 92Q172 107 112 163T53 300Q53 371 92 430T206 528T375 576Q381 605 381 623Q381 646 373 662T350 682ZM462 503L390 164Q444 171 489 199T561 269T587 362Q587 415 554 452T462 503ZM360 506Q306 498 261 470T190 401T165 308Q165 253 197 216T288 167Z"
				   horiz-adv-x="706" unicode="Ф"/>
			<glyph d="M107 666H296Q273 657 273 631Q273 614 281 594L350 425L498 594Q527 628 527 647Q527 662 511 666H688Q649 649 600 594L383 345L488 84Q502 48 518 25T547 0H359Q368 2 373 12T379 37Q379 55 368 84L302 251L155 84Q119 43 119 19Q119 4 132 0H-41Q-28 4 -1 28T52 84L269 332L162 594Q139 650 107 666Z"
				   horiz-adv-x="609" unicode="Х"/>
			<glyph d="M141 666H339Q319 661 304 642T283 594L172 71H441L550 590Q553 608 553 616Q553 653 521 666H720Q701 661 685 642T664 594L560 107Q558 95 558 91Q558 80 564 75T588 71H616L566 -161H558Q556 -113 540 -76T497 -19T431 0H-3Q8 2 20 11T43 36T58 75L168 590Q172 611 172 617Q172 653 141 666Z"
				   horiz-adv-x="686" unicode="Ц"/>
			<glyph d="M105 666H305Q262 653 243 567L222 470Q214 434 214 411Q214 367 239 344T310 322Q371 322 434 356L479 567Q487 607 487 617Q487 657 456 666H660Q634 659 618 633T593 567L492 95Q487 76 487 54Q487 31 495 16T516 0H314Q333 2 351 27T378 96L418 283Q352 245 271 245Q190 245 145 284T100 396Q100 425 109 467L131 569Q137 597 137 614Q137 655 105 666Z"
				   horiz-adv-x="610" unicode="Ч"/>
			<glyph d="M141 666H339Q320 661 304 642T283 594L172 71H391L500 590Q503 605 503 616Q503 653 471 666H670Q651 661 635 642T614 594L502 71H722L831 590Q834 605 834 616Q834 654 802 666H1001Q980 660 965 641T945 594L835 79Q832 62 832 50Q832 32 840 18T862 0H-3Q8 2 20 11T43 36T58 75L168 590Q172 611 172 617Q172 653 141 666Z"
				   horiz-adv-x="957" unicode="Ш"/>
			<glyph d="M141 666H338Q318 660 303 641T283 594L172 71H391L500 590Q503 605 503 616Q503 652 471 666H669Q627 653 614 594L502 71H722L831 590Q834 605 834 616Q834 654 802 666H1000Q958 653 945 594L841 107Q839 96 839 91Q839 80 846 75T869 71H897L847 -161H839Q837 -113 821 -75T778 -19T712 0H-2Q18 3 35 24T58 75L168 590Q172 611 172 617Q172 653 141 666Z"
				   horiz-adv-x="967" unicode="Щ"/>
			<glyph d="M116 666H482Q460 662 442 636T416 567L381 403H453Q549 403 603 357T657 236Q657 170 621 116T523 31T384 0H139Q185 8 200 82L310 599H213Q161 599 132 580T81 516ZM367 339L310 70H386Q453 70 499 116T546 231Q546 282 516 310T436 339Z"
				   horiz-adv-x="685" unicode="Ъ"/>
			<glyph d="M139 666H343Q319 661 302 634T276 567L241 403H313Q409 403 463 357T517 236Q517 170 481 116T383 31T244 0H-1Q44 8 60 82L164 567Q171 599 171 615Q172 633 164 646T139 666ZM227 339L170 70H246Q312 70 359 116T406 231Q406 281 377 310T296 339ZM674 666H876Q853 661 836 640T814 591L705 76Q701 55 701 48Q701 25 710 13T730 0H531Q551 3 567 22T590 72L700 587Q704 608 704 616Q704 640 694 652T674 666Z"
				   horiz-adv-x="827" unicode="Ы"/>
			<glyph d="M139 666H343Q319 661 302 634T276 567L241 403H318Q414 403 468 357T522 236Q522 170 486 116T388 31T249 0H-1Q44 8 60 82L164 567Q171 599 171 615Q171 634 163 647T139 666ZM227 339L170 70H251Q319 70 365 117T411 231Q411 282 381 310T301 339Z"
				   horiz-adv-x="550" unicode="Ь"/>
			<glyph d="M309 682Q415 682 479 612T543 423Q543 311 489 206T348 43T161 -15Q53 -15 0 24L32 172Q54 55 168 55Q246 55 310 123T407 306H212Q180 306 157 298T126 275L154 411Q157 393 173 383T226 374H421Q424 396 424 425Q424 506 382 555T273 605Q228 605 179 576T92 497L121 636Q162 657 211 669T309 682Z"
				   horiz-adv-x="552" unicode="Э"/>
			<glyph d="M709 682Q812 682 872 613T933 428Q933 317 880 211T741 45T558 -15Q455 -15 395 53T335 239Q335 275 340 308H219L170 76Q167 61 167 50Q167 30 176 17T198 0H1Q20 4 36 23T58 72L168 587Q171 604 171 616Q171 635 162 648T139 666H340Q318 660 301 639T279 591L233 376H355Q380 463 434 534T560 643T709 682ZM693 613Q634 613 580 560T490 414T455 227Q455 146 486 100T573 55Q633 55 689 110T779 257T814 438Q814 521 781 567T693 613Z"
				   horiz-adv-x="941" unicode="Ю"/>
			<glyph d="M375 666H640Q612 658 597 632T571 559L474 104Q464 59 464 47Q464 11 496 0H293Q316 5 333 31T360 101L398 281H364Q336 281 309 264T252 202L111 0H-62Q-41 5 -17 22T26 66L136 217Q185 284 240 299Q180 312 145 352T111 449Q111 510 144 560T238 638T375 666ZM377 596Q311 596 266 551T221 442Q221 397 252 371T335 346H412L465 596Z"
				   horiz-adv-x="590" unicode="Я"/>
			<glyph d="M491 486L415 142Q405 99 405 75Q405 53 416 41T452 27L290 -15L307 81Q277 39 230 12T139 -15Q86 -15 56 24T27 131Q27 218 68 298T178 427T321 476Q346 476 377 470T419 464Q450 464 491 486ZM314 417Q270 417 229 378T160 274T133 146Q133 105 148 82T191 60Q212 60 236 76Q261 93 282 120T317 189T345 287T359 370Q359 393 349 405T314 417Z"
				   unicode="а"/>
			<glyph d="M543 704Q529 658 499 626T433 586Q407 578 347 576Q309 575 289 570T253 554T225 524T203 483T177 402Q251 448 318 448Q359 448 393 427T446 368T465 279Q465 204 430 134T338 25T210 -14Q129 -14 82 38T36 186Q36 275 70 379T159 548Q240 645 370 660L424 666Q515 676 543 704ZM275 380Q219 380 160 335Q135 234 135 170Q135 52 218 52Q255 52 286 80T338 164T359 276Q359 324 336 352T275 380Z"
				   horiz-adv-x="494" unicode="б"/>
			<glyph d="M300 484Q348 484 382 468T435 425T453 363Q453 322 422 291T336 247Q380 237 406 209T432 140Q432 97 403 61Q375 25 324 5T210 -14Q152 -14 110 9T48 75T27 173Q27 250 64 323T164 440T300 484ZM134 213Q130 192 130 163Q130 107 153 78T221 49Q270 49 300 75T331 142Q331 174 309 193T244 213ZM295 422Q250 422 211 380T148 269H248Q295 269 324 294T354 359Q354 386 339 404T295 422Z"
				   horiz-adv-x="469" unicode="в"/>
			<glyph d="M235 486Q295 486 332 456T370 374Q370 319 338 279T237 207Q161 172 141 159T112 132T103 100Q103 76 122 62T169 49Q214 49 256 76T332 156L304 24Q278 6 240 -4T163 -15Q92 -15 54 15T16 98Q16 155 52 195T168 271Q236 300 260 321T284 372Q284 394 268 408T220 422Q144 422 101 328Q72 356 72 389Q72 431 118 458T235 486Z"
				   horiz-adv-x="385" unicode="г"/>
			<glyph d="M340 694Q420 694 463 635T506 466Q506 353 461 234T346 50T199 -15Q150 -15 111 6T51 69T29 166Q29 242 66 313T163 426T289 468Q352 468 404 428L405 471Q405 542 375 581T294 621Q254 621 213 600T141 545Q159 608 215 651T340 694ZM289 402Q248 402 211 369T154 280T133 155Q133 107 152 79T206 51Q241 51 271 74Q301 98 327 145T372 258T396 356Q374 377 345 389T289 402Z"
				   horiz-adv-x="507" unicode="д"/>
			<glyph d="M332 485Q381 485 412 459T443 390Q443 335 400 288T282 212T130 179V172Q130 120 157 88T230 57Q269 57 314 78T391 133Q379 90 347 56T271 3T183 -16Q111 -16 68 29T26 152Q26 233 69 311T184 437T332 485ZM305 422Q273 422 236 396T170 328T131 235Q189 238 244 259T327 310T355 375Q355 396 341 409T305 422Z"
				   horiz-adv-x="445" unicode="е"/>
			<glyph d="M215 485Q276 485 309 442T343 322Q343 288 337 255L428 386L446 468H539L477 176L610 361Q651 418 701 451T812 485Q852 485 872 467T892 417Q892 383 866 348T804 301Q812 314 812 341Q812 380 800 397T767 415Q738 415 707 378T656 285T636 179Q636 120 660 88T729 56Q791 56 850 133Q832 66 781 25T670 -16Q608 -16 575 27T542 147Q542 181 548 212L457 83L440 0H345L408 291L276 108Q229 44 180 14T74 -16Q34 -16 13 2T-7 52Q-7 86 19 121T81 168Q73 154 73 128Q73 89 84 71T118 54Q147 54 178 90T229 184T249 290Q249 350 224 381T156 413Q94 413 35 336Q54 402 104 443T215 485Z"
				   horiz-adv-x="889" unicode="ж"/>
			<glyph d="M230 485Q298 485 341 452T384 367Q384 320 349 286T257 241Q300 230 325 202T350 135Q350 91 322 57T244 4T136 -14Q94 -14 56 -4T-6 20L15 122Q27 90 61 69T138 49Q189 49 220 74T251 142Q251 173 225 189T156 206H107L120 265H157Q219 265 254 290T289 360Q289 388 270 405T219 422Q145 422 95 335Q67 359 67 391Q67 432 113 458T230 485Z"
				   horiz-adv-x="400" unicode="з"/>
			<glyph d="M227 486L154 153Q149 133 149 109Q149 55 196 55Q237 55 279 97T334 195L369 355Q376 388 376 402Q376 422 365 430T332 443L500 486L443 233Q410 88 410 67Q410 35 447 29L454 28L296 -15L314 73Q286 36 236 11T140 -14Q43 -14 43 76Q43 99 50 132L96 354Q101 381 101 398Q101 418 92 429T59 443Z"
				   horiz-adv-x="518" unicode="и"/>
			<glyph d="M227 486L154 153Q149 133 149 109Q149 55 196 55Q237 55 279 97T334 195L369 355Q376 388 376 402Q376 422 365 430T332 443L500 486L443 233Q410 88 410 67Q410 35 447 29L454 28L296 -15L314 73Q286 36 236 11T140 -14Q43 -14 43 76Q43 99 50 132L96 354Q101 381 101 398Q101 418 92 429T59 443ZM452 697L487 673Q406 545 306 545Q263 545 234 566T205 622Q205 645 225 660T276 676Q273 661 273 647Q274 592 322 592Q383 592 452 697Z"
				   horiz-adv-x="518" unicode="й"/>
			<glyph d="M229 488L176 248Q201 251 221 263T261 296T314 369T364 438T401 465T444 475Q479 475 499 452T520 390Q516 396 504 401T475 406Q455 406 434 389T387 339Q328 263 271 242L378 83Q402 47 425 30T475 13Q461 4 437 -3T389 -11Q367 -11 350 -5T320 11T288 47T172 230L123 0H21L94 335Q100 363 100 379Q100 424 63 423H52Z"
				   horiz-adv-x="508" unicode="к"/>
			<glyph d="M285 481H348L397 100Q402 62 414 45T453 25L462 24L309 -17L268 337L117 96Q95 61 95 38Q95 22 105 12T127 0H-30Z"
				   horiz-adv-x="482" unicode="л"/>
			<glyph d="M80 469H229L298 174L492 469H613L539 110Q531 71 531 55Q531 32 538 17T552 0H420L499 366L249 -12L163 364L107 97Q102 75 102 57Q102 37 109 21T127 0H18L97 366Q103 395 103 412Q103 433 96 449T80 469Z"
				   horiz-adv-x="635" unicode="м"/>
			<glyph d="M228 486L181 271H360L401 468H504L426 110Q420 80 420 58Q420 32 427 16T440 0H300L345 206H167L123 0H21L103 374Q106 388 106 399Q106 416 95 427T66 442L59 443Z"
				   horiz-adv-x="523" unicode="н"/>
			<glyph d="M297 484Q349 484 387 460T445 394T466 297Q466 219 429 145Q392 72 329 29T194 -14Q142 -14 104 9T46 76T27 173Q27 250 64 323T163 440T297 484ZM287 418Q248 418 213 383T155 281T131 161Q131 111 151 81T205 52Q243 52 277 86Q312 120 336 185T360 308Q360 359 340 388T287 418Z"
				   horiz-adv-x="493" unicode="о"/>
			<glyph d="M221 486L203 399Q237 438 285 461T377 485Q474 485 474 395Q474 374 463 321L420 109Q414 83 414 59Q414 33 420 17T435 0H293L359 300Q368 337 368 358Q367 416 319 416Q293 416 263 396T212 345T183 277L123 0H21L104 380Q106 390 106 399Q106 416 94 428T59 443Z"
				   unicode="п"/>
			<glyph d="M219 486L201 390Q234 436 281 461T375 486Q429 486 460 443T492 329Q492 267 468 201T403 86T311 12T212 -13Q155 -13 131 22L85 -186H-17L98 349Q105 381 105 396Q105 417 94 427T57 443ZM322 409Q301 409 277 395T232 358T195 303T166 211T153 118Q153 51 215 51Q256 51 293 86Q330 122 356 188T382 316Q382 360 366 384T322 409Z"
				   horiz-adv-x="518" unicode="р"/>
			<glyph d="M330 485Q373 485 398 467T423 417Q423 383 397 348Q372 313 335 301Q343 314 343 341Q343 377 327 396T284 415Q246 415 210 381T154 291T133 179Q133 120 160 88T236 56Q272 56 310 76T381 133Q362 69 304 26T178 -16Q108 -16 67 28T27 147Q27 234 68 313T179 439T330 485Z"
				   horiz-adv-x="420" unicode="с"/>
			<glyph d="M220 486L202 399Q233 437 280 461T373 485Q456 485 467 398Q492 432 543 458T642 485Q688 485 712 462T737 395Q737 370 726 321L682 109Q677 85 677 59Q677 33 683 18T698 0H557L617 276Q630 334 630 359Q630 385 620 400T584 416Q544 416 504 375T451 277L391 0H288L354 301Q362 336 362 358Q362 416 316 416Q291 416 262 396T212 345T183 277L123 0H21L104 380Q106 390 106 399Q106 417 94 429T59 443Z"
				   horiz-adv-x="778" unicode="т"/>
			<glyph d="M177 485L252 102Q301 173 347 267T394 412Q394 436 384 450T357 468H509Q495 420 452 330T351 147T233 -22T113 -144T12 -191Q-24 -191 -42 -173T-60 -129Q-60 -117 -53 -97Q-33 -115 1 -115Q35 -115 79 -85T171 0L92 379Q85 412 69 426T21 444Z"
				   horiz-adv-x="497" unicode="у"/>
			<glyph d="M463 695L418 483Q502 469 552 411T602 272Q602 250 597 226Q581 131 503 64T314 -15L281 -186H178L215 -13Q130 3 81 61T32 199Q32 268 68 330T169 433T321 484L333 540Q344 592 344 606Q344 644 311 651L301 653ZM307 417Q257 408 218 378T157 301T135 206Q135 152 160 114T230 58ZM404 411L327 54Q373 62 413 93T476 171T499 270Q499 321 474 358T404 411Z"
				   horiz-adv-x="634" unicode="ф"/>
			<glyph d="M194 486L230 399Q257 333 267 311L337 388Q372 426 372 448Q372 463 353 469H503L295 248Q301 238 336 156L367 81Q376 60 386 48T409 31T451 24L295 -18L216 168L124 67Q97 38 97 20Q97 13 102 8T114 1L118 0H-29L188 231L124 381Q109 416 93 429T48 443H38Z"
				   horiz-adv-x="479" unicode="х"/>
			<glyph d="M227 486L154 153Q149 133 149 109Q149 55 196 55Q237 55 279 97T334 195L369 355Q376 388 376 402Q376 422 364 431T332 443L500 486L424 146Q418 119 418 102Q418 55 463 55H475L450 -52Q435 -117 405 -149T329 -182Q304 -182 287 -169T271 -137Q271 -125 277 -113T297 -95Q311 -120 339 -120Q364 -120 377 -100T399 -46L407 -14Q371 -13 346 9T317 77Q285 35 240 10T150 -14Q100 -14 71 9T43 76Q43 99 50 132Q88 318 94 349T101 398Q101 418 92 429T59 443Z"
				   horiz-adv-x="520" unicode="ц"/>
			<glyph d="M211 486L173 316Q167 290 167 272Q167 246 178 232T215 218Q242 218 271 235T322 282T350 345L377 468H480L401 110Q395 80 395 58Q395 31 401 16T415 0H275L325 227Q292 189 251 169T165 149Q118 149 90 172T62 239Q62 268 68 296L80 355Q85 382 85 398Q85 418 76 429T43 443Z"
				   horiz-adv-x="496" unicode="ч"/>
			<glyph d="M228 486L163 189Q158 164 154 145T150 111Q150 52 196 52Q237 52 276 93T329 191L389 468H492L426 167Q418 133 418 110Q418 52 464 52Q489 52 517 71T567 122T597 191L657 468H759L676 88Q674 79 674 69Q674 51 685 39T721 25L560 -18L578 69Q546 30 499 6T407 -17Q365 -17 341 5T313 70Q285 34 234 8T138 -17Q94 -17 69 7T44 74Q44 101 54 147L96 350Q102 379 102 398Q102 418 93 429T60 443Z"
				   horiz-adv-x="783" unicode="ш"/>
			<glyph d="M228 486L163 189Q158 164 154 145T150 111Q150 52 196 52Q237 52 276 93T329 191L389 468H492L426 167Q418 133 418 110Q418 52 464 52Q489 52 517 70T567 121T597 191L657 468H759L688 143Q682 116 682 99Q682 76 693 65T727 55H739L714 -52Q698 -119 668 -150T593 -182Q568 -182 551 -169T535 -137Q535 -125 541 -113T561 -95Q574 -120 603 -120Q628 -120 641 -100T663 -46L671 -14Q636 -13 611 7T581 70Q549 31 501 7T407 -17Q365 -17 341 5T313 70Q285 34 234 8T138 -17Q94 -17 69 7T44 74Q44 101 54 147L96 350Q102 375 102 398Q102 418 93 429T60 443Z"
				   horiz-adv-x="784" unicode="щ"/>
			<glyph d="M116 478Q140 478 183 472T247 467Q273 467 306 472L264 273Q302 291 355 291Q419 291 458 256T498 166Q498 84 438 35T280 -14Q213 -14 174 21T135 117Q135 136 140 161L191 403H153Q73 403 40 337Q32 356 32 380Q32 427 54 452T116 478ZM311 227Q276 227 252 214L237 143Q234 127 234 112Q234 81 250 66T294 52Q337 52 363 82T390 159Q390 190 369 208T311 227Z"
				   horiz-adv-x="536" unicode="ъ"/>
			<glyph d="M222 486L175 273Q216 291 266 291Q330 291 369 256T409 166Q409 84 349 35T191 -14Q123 -14 84 21T46 117Q46 139 51 161L91 355Q96 376 96 398Q96 418 87 429T54 443ZM222 227Q188 227 163 214L148 143Q145 127 145 112Q145 81 161 66T205 52Q248 52 274 82T301 159Q301 190 280 208T222 227ZM673 486L592 109Q585 79 585 53Q585 28 591 14T605 0H464L548 381Q550 394 550 400Q550 417 538 430T510 443H503Z"
				   horiz-adv-x="694" unicode="ы"/>
			<glyph d="M222 486L175 273Q215 291 268 291Q332 291 373 257T414 166Q414 84 353 35T193 -14Q124 -14 85 21T46 117Q46 139 51 161L91 355Q96 376 96 398Q96 418 87 429T54 443ZM224 227Q189 227 163 214L148 143Q145 127 145 112Q145 82 161 67T207 52Q251 52 278 82T306 159Q306 190 284 208T224 227Z"
				   horiz-adv-x="452" unicode="ь"/>
			<glyph d="M239 485Q313 485 362 433T411 303Q411 213 377 140T281 26T136 -14Q104 -14 68 -4T10 20L31 122Q44 91 75 70T145 49Q200 49 238 90T295 206H102L115 265H307Q308 278 308 289Q308 346 279 379T201 413Q164 413 126 394T53 335Q81 413 128 449T239 485Z"
				   horiz-adv-x="442" unicode="э"/>
			<glyph d="M226 486L179 271H280Q311 365 379 424T529 484Q580 484 616 460T673 394T694 297Q694 220 657 146T560 29T428 -14Q354 -14 309 37T265 173Q265 192 267 206H165L121 0H20L102 374Q105 388 105 399Q105 416 93 428T58 443ZM518 418Q480 418 447 382T391 281T369 161Q369 111 388 81T440 52Q477 52 510 89T566 191T588 308Q588 357 569 387T518 418Z"
				   horiz-adv-x="721" unicode="ю"/>
			<glyph d="M292 468H466L389 111Q383 82 383 60Q383 38 388 21T402 0H263L305 192H292Q264 192 244 180T201 142L82 0H-68Q-54 2 -33 15T3 46L90 145Q138 199 187 209Q131 216 98 246T66 320Q66 388 128 428T292 468ZM292 409Q233 409 200 383T167 312Q167 283 190 265T260 248H318L353 409Z"
				   horiz-adv-x="486" unicode="я"/>
			<glyph d="M332 485Q381 485 412 459T443 390Q443 335 400 288T282 212T130 179V172Q130 120 157 88T230 57Q269 57 314 78T391 133Q379 90 347 56T271 3T183 -16Q111 -16 68 29T26 152Q26 233 69 311T184 437T332 485ZM305 422Q273 422 236 396T170 328T131 235Q189 238 244 259T327 310T355 375Q355 396 341 409T305 422ZM212 666H346L362 511Z"
				   horiz-adv-x="445" unicode="ѐ"/>
			<glyph d="M332 485Q381 485 412 459T443 390Q443 335 400 288T282 212T130 179V172Q130 120 157 88T230 57Q269 57 314 78T391 133Q379 90 347 56T271 3T183 -16Q111 -16 68 29T26 152Q26 233 69 311T184 437T332 485ZM305 422Q273 422 236 396T170 328T131 235Q189 238 244 259T327 310T355 375Q355 396 341 409T305 422ZM403 669Q426 669 439 655T453 619Q453 595 436 579T395 563Q373 563 359 577T346 613Q346 637 362 653T403 669ZM220 669Q242 669 255 655T269 619Q269 596 253 579Q237 563 212 563Q189 563 175 577T162 613Q162 637 179 653T220 669Z"
				   horiz-adv-x="445" unicode="ё"/>
			<glyph d="M274 696L252 596H421L411 544H241L208 397Q238 434 287 459T380 485Q425 485 449 461T474 395Q474 372 465 328L395 0Q376 -87 330 -136T221 -185Q185 -185 152 -172T108 -141Q130 -147 150 -147Q206 -147 240 -111T292 0L360 304Q368 343 368 357Q368 383 357 399T322 416Q272 416 232 369T176 247L123 0H21L140 544H97L107 596H148Q151 606 151 616Q151 650 106 653Z"
				   unicode="ђ"/>
			<glyph d="M235 486Q295 486 332 456T370 374Q370 319 338 279T237 207Q161 172 141 159T112 132T103 100Q103 76 122 62T169 49Q214 49 256 76T332 156L304 24Q278 6 240 -4T163 -15Q92 -15 54 15T16 98Q16 155 52 195T168 271Q236 300 260 321T284 372Q284 394 268 408T220 422Q144 422 101 328Q72 356 72 389Q72 431 118 458T235 486ZM272 666H410L196 511Z"
				   horiz-adv-x="385" unicode="ѓ"/>
			<glyph d="M330 485Q373 485 398 467T423 417Q423 384 399 359T335 321Q343 339 343 356Q343 381 327 398T284 415Q242 415 202 372T144 265H323L310 206H132Q131 192 131 179Q131 120 159 88T236 56Q272 56 310 76T381 133Q361 68 303 26T178 -16Q108 -16 67 28T27 147Q27 234 69 313T180 439T330 485Z"
				   horiz-adv-x="420" unicode="є"/>
			<glyph d="M261 486Q318 486 354 464T390 407Q390 366 327 328Q330 345 330 350Q330 383 307 402T249 422Q216 422 189 403T163 354Q163 333 183 312T255 257Q346 198 346 127Q346 62 292 23T154 -16Q111 -16 69 -5T5 20L41 161Q46 110 75 79T153 48Q193 48 219 65T245 111Q245 131 227 150T158 205Q114 234 92 265T70 333Q70 379 95 414T165 467T261 486Z"
				   horiz-adv-x="404" unicode="ѕ"/>
			<glyph d="M229 486L148 109Q141 79 141 53Q141 28 147 14T161 0H20L104 381Q106 395 106 400Q106 417 94 430T66 443H59ZM201 687Q228 687 244 670T260 627Q260 597 240 577T191 558Q164 558 147 575T131 618Q131 647 151 667T201 687Z"
				   horiz-adv-x="247" unicode="і"/>
			<glyph d="M229 486L148 109Q141 79 141 52Q141 27 147 14T160 0H20L104 381Q106 395 106 400Q106 417 91 430T59 443ZM288 669Q311 669 324 655T337 619Q337 594 320 578T280 563Q257 563 243 577T230 613Q230 636 246 652T288 669ZM114 669Q137 669 150 655T163 619Q163 594 146 578T106 563Q83 563 70 577T57 613Q57 637 73 653T114 669Z"
				   horiz-adv-x="247" unicode="ї"/>
			<glyph d="M201 687Q228 687 244 670T260 627Q260 597 240 577T191 558Q164 558 147 575T131 618Q131 647 151 667T201 687ZM231 486L126 0Q108 -85 61 -135T-50 -185Q-86 -185 -117 -172T-161 -141Q-139 -147 -119 -147Q-63 -147 -28 -111T23 0L105 381Q107 389 107 397Q107 414 94 427T65 443H60Z"
				   horiz-adv-x="247" unicode="ј"/>
			<glyph d="M274 481H335L365 255Q437 291 496 291Q559 291 599 256T639 166Q639 87 580 36T428 -14Q364 -14 328 16T285 114L258 334L117 96Q95 61 95 38Q95 22 104 12T126 0H-30ZM452 227Q416 227 372 205L384 116Q392 52 442 52Q479 52 505 82T531 159Q531 190 510 208T452 227Z"
				   horiz-adv-x="677" unicode="љ"/>
			<glyph d="M228 486L181 271H345L386 468H489L446 273Q487 291 536 291Q600 291 639 257T679 166Q679 84 619 35T461 -14Q392 -14 353 21T315 116Q315 127 316 140T330 206H167L123 0H21L103 374Q106 388 106 399Q106 416 95 428T59 443ZM492 227Q458 227 434 214Q417 142 416 131T415 112Q415 81 431 66T475 52Q518 52 544 82T571 159Q571 190 550 208T492 227Z"
				   horiz-adv-x="717" unicode="њ"/>
			<glyph d="M273 696L251 596H420L410 544H239L207 397Q236 434 285 459T379 485Q425 485 449 461T473 395Q473 375 468 348L418 109Q413 86 413 58Q413 32 419 17T433 0H292L359 304Q367 343 367 357Q367 383 355 398T321 413Q271 413 231 368T175 247L122 0H20L138 544H96L106 596H147Q150 606 150 616Q150 650 105 653Z"
				   unicode="ћ"/>
			<glyph d="M229 488L176 248Q201 251 221 263T261 296T314 369T364 438T401 465T444 475Q479 475 499 452T520 390Q516 396 504 401T475 406Q455 406 434 389T387 339Q328 263 271 242L378 83Q402 47 425 30T475 13Q461 4 437 -3T389 -11Q367 -11 350 -5T320 11T288 47T172 230L123 0H21L94 335Q100 363 100 379Q100 424 63 423H52ZM328 666H466L252 511Z"
				   horiz-adv-x="508" unicode="ќ"/>
			<glyph d="M227 486L154 153Q149 133 149 109Q149 55 196 55Q237 55 279 97T334 195L369 355Q376 388 376 402Q376 422 365 430T332 443L500 486L443 233Q410 88 410 67Q410 35 447 29L454 28L296 -15L314 73Q286 36 236 11T140 -14Q43 -14 43 76Q43 99 50 132L96 354Q101 381 101 398Q101 418 92 429T59 443ZM214 666H348L364 511Z"
				   horiz-adv-x="518" unicode="ѝ"/>
			<glyph d="M177 485L252 102Q301 173 347 267T394 412Q394 436 384 450T357 468H509Q495 420 452 330T351 147T233 -22T113 -144T12 -191Q-24 -191 -42 -173T-60 -129Q-60 -117 -53 -97Q-33 -115 1 -115Q35 -115 79 -85T171 0L92 379Q85 412 69 426T21 444ZM439 697L474 673Q393 545 293 545Q250 545 221 566T192 622Q192 645 212 660T263 676Q260 661 260 647Q261 592 309 592Q370 592 439 697Z"
				   horiz-adv-x="497" unicode="ў"/>
			<glyph d="M218 -24L226 -183H116ZM227 486L154 153Q149 133 149 109Q149 55 196 55Q237 55 279 97T334 195L369 355Q376 388 376 402Q376 422 364 431T332 443L500 486L443 232Q410 88 410 67Q410 35 447 29L454 28L296 -15L314 73Q287 36 237 11T140 -14Q43 -14 43 76Q43 99 50 132L96 356Q101 382 101 398Q101 418 92 429T59 443Z"
				   horiz-adv-x="518" unicode="џ"/>
			<glyph d="M556 800H565L523 596H281L177 97Q170 65 170 49Q170 31 178 18T201 0H-6Q21 7 37 33T63 103L162 559Q171 599 171 615Q171 651 137 666H386Q436 666 481 701T556 800Z"
				   horiz-adv-x="469" unicode="Ґ"/>
			<glyph d="M422 589H432L393 403H210L123 0H21L103 376Q108 397 108 417Q108 433 100 448T83 468H257Q310 468 353 498T422 589Z"
				   horiz-adv-x="373" unicode="ґ"/>
			<glyph d="M106 666H294Q263 656 260 604Q260 589 261 568L301 175L496 511L491 564Q487 608 476 633T451 666H631Q615 661 606 644T597 604Q597 589 598 570L637 175L859 562Q886 610 886 636Q886 660 865 666H1044Q1025 660 1000 633T952 564L619 -9H549L509 391L277 -9H207L149 564Q145 604 134 631T106 666ZM448 853H582L599 698Z"
				   horiz-adv-x="954" unicode="Ẁ"/>
			<glyph d="M183 485L213 149L397 473H458L500 142L635 370Q658 411 658 431Q658 459 627 468H782L475 -13H414L376 307L188 -13H127L91 373Q88 409 75 424T37 443L28 444ZM315 666H449L465 511Z"
				   horiz-adv-x="745" unicode="ẁ"/>
			<glyph d="M106 666H294Q263 656 260 604Q260 589 261 568L301 175L496 511L491 564Q487 608 476 633T451 666H631Q615 661 606 644T597 604Q597 589 598 570L637 175L859 562Q886 610 886 636Q886 660 865 666H1044Q1025 660 1000 633T952 564L619 -9H549L509 391L277 -9H207L149 564Q145 604 134 631T106 666ZM607 853H746L531 698Z"
				   horiz-adv-x="954" unicode="Ẃ"/>
			<glyph d="M183 485L213 149L397 473H458L500 142L635 370Q658 411 658 431Q658 459 627 468H782L475 -13H414L376 307L188 -13H127L91 373Q88 409 75 424T37 443L28 444ZM463 666H601L387 511Z"
				   horiz-adv-x="745" unicode="ẃ"/>
			<glyph d="M106 666H294Q263 656 260 604Q260 589 261 568L301 175L496 511L491 564Q487 608 476 633T451 666H631Q615 661 606 644T597 604Q597 589 598 570L637 175L859 562Q886 610 886 636Q886 660 865 666H1044Q1025 660 1000 633T952 564L619 -9H549L509 391L277 -9H207L149 564Q145 604 134 631T106 666ZM682 847Q705 847 718 832T732 795Q732 770 716 753Q700 737 675 737Q652 737 637 751T623 789Q623 814 640 830T682 847ZM496 847Q519 847 532 832T546 795Q546 770 529 753T488 737Q465 737 451 751T437 789Q437 813 453 830T496 847Z"
				   horiz-adv-x="954" unicode="Ẅ"/>
			<glyph d="M183 485L213 149L397 473H458L500 142L635 370Q658 411 658 431Q658 459 627 468H782L475 -13H414L376 307L188 -13H127L91 373Q88 409 75 424T37 443L28 444ZM542 669Q565 669 578 655T592 619Q592 595 575 579T534 563Q512 563 498 577T485 613Q485 637 501 653T542 669ZM359 669Q381 669 394 655T408 619Q408 596 392 579Q376 563 351 563Q328 563 314 577T301 613Q301 637 318 653T359 669Z"
				   horiz-adv-x="745" unicode="ẅ"/>
			<glyph d="M467 680Q595 680 693 604L497 376Q561 350 595 303T629 197Q629 141 598 92T514 15T395 -13Q300 -13 233 37L254 136Q272 100 307 81T387 62Q444 62 481 100T519 190Q519 298 357 331L556 567Q509 602 447 602Q368 602 310 542T232 386L168 76Q164 55 164 48Q164 24 173 12T193 0H-6Q14 3 30 21T53 72L117 375Q147 517 241 598T467 680Z"
				   horiz-adv-x="722" unicode="ẞ"/>
			<glyph d="M423 673H506L569 103Q574 59 586 31T615 0H426Q442 4 450 21T459 68Q459 80 448 175H197L155 106Q124 54 124 29Q124 5 144 0H-31Q-17 3 9 33T63 107ZM412 521L240 243H440ZM277 -65Q303 -65 318 -81T334 -123Q334 -151 315 -170Q297 -189 268 -189Q241 -189 225 -173T210 -131Q210 -103 229 -84T277 -65Z"
				   horiz-adv-x="685" unicode="Ạ"/>
			<glyph d="M491 486L415 142Q405 99 405 75Q405 53 416 41T452 27L290 -15L307 81Q277 39 230 12T139 -15Q86 -15 56 24T27 131Q27 218 68 298T178 427T321 476Q346 476 377 470T419 464Q450 464 491 486ZM314 417Q270 417 229 378T160 274T133 146Q133 105 148 82T191 60Q212 60 236 76Q261 93 282 120T317 189T345 287T359 370Q359 393 349 405T314 417ZM193 -65Q219 -65 234 -81T250 -123Q250 -151 231 -170Q213 -189 184 -189Q157 -189 141 -173T126 -131Q126 -103 145 -84T193 -65Z"
				   unicode="ạ"/>
			<glyph d="M423 673H506L569 103Q574 59 586 31T615 0H426Q442 4 450 21T459 68Q459 80 448 175H197L155 106Q124 54 124 29Q124 5 144 0H-31Q-17 3 9 33T63 107ZM412 521L240 243H440ZM508 897Q542 897 564 880T586 836Q586 791 537 764Q507 748 497 741T488 726Q488 716 501 713Q493 708 482 708Q465 708 452 715T440 738Q440 765 478 788Q514 810 514 831Q514 840 507 846T490 852Q473 852 454 839T421 807L436 882Q473 897 508 897Z"
				   horiz-adv-x="685" unicode="Ả"/>
			<glyph d="M491 486L415 142Q405 99 405 75Q405 53 416 41T452 27L290 -15L307 81Q277 39 230 12T139 -15Q86 -15 56 24T27 131Q27 218 68 298T178 427T321 476Q346 476 377 470T419 464Q450 464 491 486ZM314 417Q270 417 229 378T160 274T133 146Q133 105 148 82T191 60Q212 60 236 76Q261 93 282 120T317 189T345 287T359 370Q359 393 349 405T314 417ZM356 710Q390 710 412 693T434 649Q434 604 385 577Q355 561 345 554T336 539Q336 529 349 526Q341 521 330 521Q313 521 300 528T288 551Q288 578 326 601Q362 623 362 644Q362 653 355 659T338 665Q321 665 302 652T269 620L284 695Q321 710 356 710Z"
				   unicode="ả"/>
			<glyph d="M423 673H506L569 103Q574 59 586 31T615 0H426Q442 4 450 21T459 68Q459 80 448 175H197L155 106Q124 54 124 29Q124 5 144 0H-31Q-17 3 9 33T63 107ZM412 521L240 243H440ZM634 920H748L560 787ZM491 851L606 699L477 757L316 699Z"
				   horiz-adv-x="685" unicode="Ấ"/>
			<glyph d="M491 486L415 142Q405 99 405 75Q405 53 416 41T452 27L290 -15L307 81Q277 39 230 12T139 -15Q86 -15 56 24T27 131Q27 218 68 298T178 427T321 476Q346 476 377 470T419 464Q450 464 491 486ZM314 417Q270 417 229 378T160 274T133 146Q133 105 148 82T191 60Q212 60 236 76Q261 93 282 120T317 189T345 287T359 370Q359 393 349 405T314 417ZM499 752H613L425 619ZM356 683L471 531L342 589L181 531Z"
				   unicode="ấ"/>
			<glyph d="M423 673H506L569 103Q574 59 586 31T615 0H426Q442 4 450 21T459 68Q459 80 448 175H197L155 106Q124 54 124 29Q124 5 144 0H-31Q-17 3 9 33T63 107ZM412 521L240 243H440ZM266 920H372L398 787ZM491 851L606 699L477 757L316 699Z"
				   horiz-adv-x="685" unicode="Ầ"/>
			<glyph d="M491 486L415 142Q405 99 405 75Q405 53 416 41T452 27L290 -15L307 81Q277 39 230 12T139 -15Q86 -15 56 24T27 131Q27 218 68 298T178 427T321 476Q346 476 377 470T419 464Q450 464 491 486ZM314 417Q270 417 229 378T160 274T133 146Q133 105 148 82T191 60Q212 60 236 76Q261 93 282 120T317 189T345 287T359 370Q359 393 349 405T314 417ZM131 752H237L263 619ZM356 683L471 531L342 589L181 531Z"
				   unicode="ầ"/>
			<glyph d="M423 673H506L569 103Q574 59 586 31T615 0H426Q442 4 450 21T459 68Q459 80 448 175H197L155 106Q124 54 124 29Q124 5 144 0H-31Q-17 3 9 33T63 107ZM412 521L240 243H440ZM491 851L606 699L477 757L316 699ZM635 940Q663 940 680 927T697 892Q697 873 686 858T655 831T626 813T619 800Q619 792 629 789Q621 785 614 785Q599 785 589 791T579 810Q579 823 588 833T610 850T631 866T640 886Q640 894 634 898T620 903Q593 903 564 866L576 928Q606 940 635 940Z"
				   horiz-adv-x="685" unicode="Ẩ"/>
			<glyph d="M491 486L415 142Q405 99 405 75Q405 53 416 41T452 27L290 -15L307 81Q277 39 230 12T139 -15Q86 -15 56 24T27 131Q27 218 68 298T178 427T321 476Q346 476 377 470T419 464Q450 464 491 486ZM314 417Q270 417 229 378T160 274T133 146Q133 105 148 82T191 60Q212 60 236 76Q261 93 282 120T317 189T345 287T359 370Q359 393 349 405T314 417ZM356 683L471 531L342 589L181 531ZM500 772Q528 772 545 759T562 724Q562 705 551 690T520 663T491 645T484 632Q484 624 494 621Q486 617 479 617Q464 617 454 623T444 642Q444 655 453 665T475 682T496 698T505 718Q505 726 499 730T485 735Q458 735 429 698L441 760Q471 772 500 772Z"
				   unicode="ẩ"/>
			<glyph d="M423 673H506L569 103Q574 59 586 31T615 0H426Q442 4 450 21T459 68Q459 80 448 175H197L155 106Q124 54 124 29Q124 5 144 0H-31Q-17 3 9 33T63 107ZM412 521L240 243H440ZM491 851L606 699L477 757L316 699ZM643 990Q649 978 649 956Q649 917 625 892T563 868Q547 868 530 876T497 894T465 912T436 920Q415 920 400 902T377 858Q371 867 370 892Q370 931 393 955T454 980Q471 980 489 972T525 954T557 936T585 928Q606 928 621 945T643 990Z"
				   horiz-adv-x="685" unicode="Ẫ"/>
			<glyph d="M491 486L415 142Q405 99 405 75Q405 53 416 41T452 27L290 -15L307 81Q277 39 230 12T139 -15Q86 -15 56 24T27 131Q27 218 68 298T178 427T321 476Q346 476 377 470T419 464Q450 464 491 486ZM314 417Q270 417 229 378T160 274T133 146Q133 105 148 82T191 60Q212 60 236 76Q261 93 282 120T317 189T345 287T359 370Q359 393 349 405T314 417ZM356 683L471 531L342 589L181 531ZM508 822Q514 810 514 788Q514 749 490 724T428 700Q412 700 395 708T362 726T330 744T301 752Q280 752 265 734T242 690Q236 699 235 724Q235 763 258 787T319 812Q336 812 354 804T390 786T422 768T450 760Q471 760 486 777T508 822Z"
				   unicode="ẫ"/>
			<glyph d="M423 673H506L569 103Q574 59 586 31T615 0H426Q442 4 450 21T459 68Q459 80 448 175H197L155 106Q124 54 124 29Q124 5 144 0H-31Q-17 3 9 33T63 107ZM412 521L240 243H440ZM500 880L609 699L479 776L321 699ZM277 -65Q303 -65 318 -81T334 -123Q334 -151 315 -170Q297 -189 268 -189Q241 -189 225 -173T210 -131Q210 -103 229 -84T277 -65Z"
				   horiz-adv-x="685" unicode="Ậ"/>
			<glyph d="M491 486L415 142Q405 99 405 75Q405 53 416 41T452 27L290 -15L307 81Q277 39 230 12T139 -15Q86 -15 56 24T27 131Q27 218 68 298T178 427T321 476Q346 476 377 470T419 464Q450 464 491 486ZM314 417Q270 417 229 378T160 274T133 146Q133 105 148 82T191 60Q212 60 236 76Q261 93 282 120T317 189T345 287T359 370Q359 393 349 405T314 417ZM193 -65Q219 -65 234 -81T250 -123Q250 -151 231 -170Q213 -189 184 -189Q157 -189 141 -173T126 -131Q126 -103 145 -84T193 -65ZM360 692L459 512L339 589L191 512Z"
				   unicode="ậ"/>
			<glyph d="M423 673H506L569 103Q574 59 586 31T615 0H426Q442 4 450 21T459 68Q459 80 448 175H197L155 106Q124 54 124 29Q124 5 144 0H-31Q-17 3 9 33T63 107ZM412 521L240 243H440ZM373 849Q384 819 412 801T480 784Q515 784 550 800Q586 816 613 849Q598 790 556 753T467 717Q424 717 397 745T370 820Q370 833 373 849ZM521 950H635L447 817Z"
				   horiz-adv-x="685" unicode="Ắ"/>
			<glyph d="M491 486L415 142Q405 99 405 75Q405 53 416 41T452 27L290 -15L307 81Q277 39 230 12T139 -15Q86 -15 56 24T27 131Q27 218 68 298T178 427T321 476Q346 476 377 470T419 464Q450 464 491 486ZM314 417Q270 417 229 378T160 274T133 146Q133 105 148 82T191 60Q212 60 236 76Q261 93 282 120T317 189T345 287T359 370Q359 393 349 405T314 417ZM233 678Q244 648 272 630T340 613Q375 613 410 629Q446 645 473 678Q458 619 416 582T327 546Q284 546 257 574T230 649Q230 662 233 678ZM381 779H495L307 646Z"
				   unicode="ắ"/>
			<glyph d="M423 673H506L569 103Q574 59 586 31T615 0H426Q442 4 450 21T459 68Q459 80 448 175H197L155 106Q124 54 124 29Q124 5 144 0H-31Q-17 3 9 33T63 107ZM412 521L240 243H440ZM373 849Q384 819 412 801T480 784Q515 784 550 800Q586 816 613 849Q598 790 556 753T467 717Q424 717 397 745T370 820Q370 833 373 849ZM395 950H501L527 817Z"
				   horiz-adv-x="685" unicode="Ằ"/>
			<glyph d="M491 486L415 142Q405 99 405 75Q405 53 416 41T452 27L290 -15L307 81Q277 39 230 12T139 -15Q86 -15 56 24T27 131Q27 218 68 298T178 427T321 476Q346 476 377 470T419 464Q450 464 491 486ZM314 417Q270 417 229 378T160 274T133 146Q133 105 148 82T191 60Q212 60 236 76Q261 93 282 120T317 189T345 287T359 370Q359 393 349 405T314 417ZM233 678Q244 648 272 630T340 613Q375 613 410 629Q446 645 473 678Q458 619 416 582T327 546Q284 546 257 574T230 649Q230 662 233 678ZM255 779H361L387 646Z"
				   unicode="ằ"/>
			<glyph d="M423 673H506L569 103Q574 59 586 31T615 0H426Q442 4 450 21T459 68Q459 80 448 175H197L155 106Q124 54 124 29Q124 5 144 0H-31Q-17 3 9 33T63 107ZM412 521L240 243H440ZM373 849Q384 818 412 801T479 784Q514 784 549 800Q585 816 613 849Q597 788 556 752T467 717Q425 717 397 745T370 818Q370 833 373 849ZM517 1000Q550 1000 571 983T592 941Q592 897 543 871Q515 856 506 849T497 835Q497 825 510 822Q502 817 492 817Q474 817 462 824T451 847Q451 873 489 896Q523 916 523 937Q523 945 516 951T499 957Q482 957 464 944T432 913L447 986Q479 1000 517 1000Z"
				   horiz-adv-x="685" unicode="Ẳ"/>
			<glyph d="M491 486L415 142Q405 99 405 75Q405 53 416 41T452 27L290 -15L307 81Q277 39 230 12T139 -15Q86 -15 56 24T27 131Q27 218 68 298T178 427T321 476Q346 476 377 470T419 464Q450 464 491 486ZM314 417Q270 417 229 378T160 274T133 146Q133 105 148 82T191 60Q212 60 236 76Q261 93 282 120T317 189T345 287T359 370Q359 393 349 405T314 417ZM233 678Q244 647 272 630T339 613Q374 613 409 629Q445 645 473 678Q457 617 416 581T327 546Q285 546 257 574T230 647Q230 662 233 678ZM377 829Q410 829 431 812T452 770Q452 726 403 700Q375 685 366 678T357 664Q357 654 370 651Q362 646 352 646Q334 646 322 653T311 676Q311 702 349 725Q383 745 383 766Q383 774 376 780T359 786Q342 786 324 773T292 742L307 815Q339 829 377 829Z"
				   unicode="ẳ"/>
			<glyph d="M423 673H506L569 103Q574 59 586 31T615 0H426Q442 4 450 21T459 68Q459 80 448 175H197L155 106Q124 54 124 29Q124 5 144 0H-31Q-17 3 9 33T63 107ZM412 521L240 243H440ZM373 849Q384 819 412 801T479 784Q514 784 550 800T613 849Q598 790 556 753T467 717Q424 717 397 745T370 820Q370 833 373 849ZM639 990Q645 978 645 956Q645 917 621 892T559 868Q543 868 526 876T493 894T461 912T432 920Q411 920 396 902T373 858Q366 866 366 892Q366 931 389 955T450 980Q466 980 486 971T522 953T554 935T581 928Q602 928 617 945T639 990Z"
				   horiz-adv-x="685" unicode="Ẵ"/>
			<glyph d="M491 486L415 142Q405 99 405 75Q405 53 416 41T452 27L290 -15L307 81Q277 39 230 12T139 -15Q86 -15 56 24T27 131Q27 218 68 298T178 427T321 476Q346 476 377 470T419 464Q450 464 491 486ZM314 417Q270 417 229 378T160 274T133 146Q133 105 148 82T191 60Q212 60 236 76Q261 93 282 120T317 189T345 287T359 370Q359 393 349 405T314 417ZM233 678Q244 648 272 630T339 613Q374 613 410 629T473 678Q458 619 416 582T327 546Q284 546 257 574T230 649Q230 662 233 678ZM499 819Q505 807 505 785Q505 746 481 721T419 697Q403 697 386 705T353 723T321 741T292 749Q271 749 256 731T233 687Q226 695 226 721Q226 760 249 784T310 809Q326 809 346 800T382 782T414 764T441 757Q462 757 477 774T499 819Z"
				   unicode="ẵ"/>
			<glyph d="M423 673H506L569 103Q574 59 586 31T615 0H426Q442 4 450 21T459 68Q459 80 448 175H197L155 106Q124 54 124 29Q124 5 144 0H-31Q-17 3 9 33T63 107ZM412 521L240 243H440ZM391 877Q399 843 425 823T489 803Q524 803 558 821Q593 840 619 877Q605 811 564 770T474 730Q434 730 410 758T386 832Q386 850 391 877ZM277 -65Q303 -65 318 -81T334 -123Q334 -151 315 -170Q297 -189 268 -189Q241 -189 225 -173T210 -131Q210 -103 229 -84T277 -65Z"
				   horiz-adv-x="685" unicode="Ặ"/>
			<glyph d="M491 486L415 142Q405 99 405 75Q405 53 416 41T452 27L290 -15L307 81Q277 39 230 12T139 -15Q86 -15 56 24T27 131Q27 218 68 298T178 427T321 476Q346 476 377 470T419 464Q450 464 491 486ZM314 417Q270 417 229 378T160 274T133 146Q133 105 148 82T191 60Q212 60 236 76Q261 93 282 120T317 189T345 287T359 370Q359 393 349 405T314 417ZM193 -65Q219 -65 234 -81T250 -123Q250 -151 231 -170Q213 -189 184 -189Q157 -189 141 -173T126 -131Q126 -103 145 -84T193 -65ZM242 692Q250 659 276 639T340 619Q375 619 409 637Q444 655 470 692Q456 626 414 585T325 545Q285 545 261 573T237 648Q237 667 242 692Z"
				   unicode="ặ"/>
			<glyph d="M147 666H577L547 523Q545 562 524 579T450 596H290L244 376H378Q411 376 434 384T464 408L436 272Q431 292 415 300T364 308H230L181 70H343Q403 70 432 86T489 151L457 0H1Q25 5 43 26T69 83L170 552Q181 606 181 614Q181 634 171 648T147 666ZM232 -65Q258 -65 273 -81T289 -123Q289 -151 270 -170Q252 -189 223 -189Q196 -189 180 -173T165 -131Q165 -103 184 -84T232 -65Z"
				   horiz-adv-x="546" unicode="Ẹ"/>
			<glyph d="M332 485Q381 485 412 459T443 390Q443 335 400 288T282 212T130 179V172Q130 120 157 88T230 57Q269 57 314 78T391 133Q379 90 347 56T271 3T183 -16Q111 -16 68 29T26 152Q26 233 69 311T184 437T332 485ZM305 422Q273 422 236 396T170 328T131 235Q189 238 244 259T327 310T355 375Q355 396 341 409T305 422ZM162 -65Q188 -65 203 -81T219 -123Q219 -151 200 -170Q182 -189 153 -189Q126 -189 110 -173T95 -131Q95 -103 114 -84T162 -65Z"
				   horiz-adv-x="445" unicode="ẹ"/>
			<glyph d="M147 666H577L547 523Q545 562 524 579T450 596H290L244 376H378Q411 376 434 384T464 408L436 272Q431 292 415 300T364 308H230L181 70H343Q403 70 432 86T489 151L457 0H1Q25 5 43 26T69 83L170 552Q181 606 181 614Q181 634 171 648T147 666ZM400 897Q434 897 456 880T478 836Q478 791 429 764Q399 748 389 741T380 726Q380 716 393 713Q385 708 374 708Q357 708 344 715T332 738Q332 765 370 788Q406 810 406 831Q406 840 399 846T382 852Q365 852 346 839T313 807L328 882Q365 897 400 897Z"
				   horiz-adv-x="546" unicode="Ẻ"/>
			<glyph d="M332 485Q381 485 412 459T443 390Q443 335 400 288T282 212T130 179V172Q130 120 157 88T230 57Q269 57 314 78T391 133Q379 90 347 56T271 3T183 -16Q111 -16 68 29T26 152Q26 233 69 311T184 437T332 485ZM305 422Q273 422 236 396T170 328T131 235Q189 238 244 259T327 310T355 375Q355 396 341 409T305 422ZM334 710Q368 710 390 693T412 649Q412 604 363 577Q333 561 323 554T314 539Q314 529 327 526Q319 521 308 521Q291 521 278 528T266 551Q266 578 304 601Q340 623 340 644Q340 653 333 659T316 665Q299 665 280 652T247 620L262 695Q299 710 334 710Z"
				   horiz-adv-x="445" unicode="ẻ"/>
			<glyph d="M147 666H577L547 523Q545 562 524 579T450 596H290L244 376H378Q411 376 434 384T464 408L436 272Q431 292 415 300T364 308H230L181 70H343Q403 70 432 86T489 151L457 0H1Q25 5 43 26T69 83L170 552Q181 606 181 614Q181 634 171 648T147 666ZM520 862Q532 844 532 821Q532 785 506 757T445 729Q427 729 409 735T374 751T339 766T308 773Q263 773 256 707Q244 726 244 746Q244 787 268 813T329 839Q348 839 367 832T404 817T438 802T468 796Q492 796 504 813Q517 831 520 862Z"
				   horiz-adv-x="546" unicode="Ẽ"/>
			<glyph d="M332 485Q381 485 412 459T443 390Q443 335 400 288T282 212T130 179V172Q130 120 157 88T230 57Q269 57 314 78T391 133Q379 90 347 56T271 3T183 -16Q111 -16 68 29T26 152Q26 233 69 311T184 437T332 485ZM305 422Q273 422 236 396T170 328T131 235Q189 238 244 259T327 310T355 375Q355 396 341 409T305 422ZM451 691Q463 673 463 650Q463 614 437 586T376 558Q357 558 339 565T305 580T271 596T239 603Q194 603 187 537Q175 553 175 576Q175 615 199 641T260 668Q277 668 296 661T334 646T369 631T399 625Q423 625 435 642Q448 660 451 691Z"
				   horiz-adv-x="445" unicode="ẽ"/>
			<glyph d="M147 666H577L547 523Q545 562 524 579T450 596H290L244 376H378Q411 376 434 384T464 408L436 272Q431 292 415 300T364 308H230L181 70H343Q403 70 432 86T489 151L457 0H1Q25 5 43 26T69 83L170 552Q181 606 181 614Q181 634 171 648T147 666ZM548 920H662L474 787ZM405 851L520 699L391 757L230 699Z"
				   horiz-adv-x="546" unicode="Ế"/>
			<glyph d="M332 485Q381 485 412 459T443 390Q443 335 400 288T282 212T130 179V172Q130 120 157 88T230 57Q269 57 314 78T391 133Q379 90 347 56T271 3T183 -16Q111 -16 68 29T26 152Q26 233 69 311T184 437T332 485ZM305 422Q273 422 236 396T170 328T131 235Q189 238 244 259T327 310T355 375Q355 396 341 409T305 422ZM478 752H592L404 619ZM335 683L450 531L321 589L160 531Z"
				   horiz-adv-x="445" unicode="ế"/>
			<glyph d="M147 666H577L547 523Q545 562 524 579T450 596H290L244 376H378Q411 376 434 384T464 408L436 272Q431 292 415 300T364 308H230L181 70H343Q403 70 432 86T489 151L457 0H1Q25 5 43 26T69 83L170 552Q181 606 181 614Q181 634 171 648T147 666ZM180 920H286L312 787ZM405 851L520 699L391 757L230 699Z"
				   horiz-adv-x="546" unicode="Ề"/>
			<glyph d="M332 485Q381 485 412 459T443 390Q443 335 400 288T282 212T130 179V172Q130 120 157 88T230 57Q269 57 314 78T391 133Q379 90 347 56T271 3T183 -16Q111 -16 68 29T26 152Q26 233 69 311T184 437T332 485ZM305 422Q273 422 236 396T170 328T131 235Q189 238 244 259T327 310T355 375Q355 396 341 409T305 422ZM110 752H216L242 619ZM335 683L450 531L321 589L160 531Z"
				   horiz-adv-x="445" unicode="ề"/>
			<glyph d="M147 666H577L547 523Q545 562 524 579T450 596H290L244 376H378Q411 376 434 384T464 408L436 272Q431 292 415 300T364 308H230L181 70H343Q403 70 432 86T489 151L457 0H1Q25 5 43 26T69 83L170 552Q181 606 181 614Q181 634 171 648T147 666ZM405 851L520 699L391 757L230 699ZM549 940Q577 940 594 927T611 892Q611 873 600 858T569 831T540 813T533 800Q533 792 543 789Q535 785 528 785Q513 785 503 791T493 810Q493 823 502 833T524 850T545 866T554 886Q554 894 548 898T534 903Q507 903 478 866L490 928Q520 940 549 940Z"
				   horiz-adv-x="546" unicode="Ể"/>
			<glyph d="M332 485Q381 485 412 459T443 390Q443 335 400 288T282 212T130 179V172Q130 120 157 88T230 57Q269 57 314 78T391 133Q379 90 347 56T271 3T183 -16Q111 -16 68 29T26 152Q26 233 69 311T184 437T332 485ZM305 422Q273 422 236 396T170 328T131 235Q189 238 244 259T327 310T355 375Q355 396 341 409T305 422ZM335 683L450 531L321 589L160 531ZM479 772Q507 772 524 759T541 724Q541 705 530 690T499 663T470 645T463 632Q463 624 473 621Q465 617 458 617Q443 617 433 623T423 642Q423 655 432 665T454 682T475 698T484 718Q484 726 478 730T464 735Q437 735 408 698L420 760Q450 772 479 772Z"
				   horiz-adv-x="445" unicode="ể"/>
			<glyph d="M147 666H577L547 523Q545 562 524 579T450 596H290L244 376H378Q411 376 434 384T464 408L436 272Q431 292 415 300T364 308H230L181 70H343Q403 70 432 86T489 151L457 0H1Q25 5 43 26T69 83L170 552Q181 606 181 614Q181 634 171 648T147 666ZM405 851L520 699L391 757L230 699ZM557 990Q563 978 563 956Q563 917 539 892T477 868Q461 868 444 876T411 894T379 912T350 920Q329 920 314 902T291 858Q285 867 284 892Q284 931 307 955T368 980Q385 980 403 972T439 954T471 936T499 928Q520 928 535 945T557 990Z"
				   horiz-adv-x="546" unicode="Ễ"/>
			<glyph d="M332 485Q381 485 412 459T443 390Q443 335 400 288T282 212T130 179V172Q130 120 157 88T230 57Q269 57 314 78T391 133Q379 90 347 56T271 3T183 -16Q111 -16 68 29T26 152Q26 233 69 311T184 437T332 485ZM305 422Q273 422 236 396T170 328T131 235Q189 238 244 259T327 310T355 375Q355 396 341 409T305 422ZM335 683L450 531L321 589L160 531ZM487 822Q493 810 493 788Q493 749 469 724T407 700Q391 700 374 708T341 726T309 744T280 752Q259 752 244 734T221 690Q215 699 214 724Q214 763 237 787T298 812Q315 812 333 804T369 786T401 768T429 760Q450 760 465 777T487 822Z"
				   horiz-adv-x="445" unicode="ễ"/>
			<glyph d="M147 666H577L547 523Q545 562 524 579T450 596H290L244 376H378Q411 376 434 384T464 408L436 272Q431 292 415 300T364 308H230L181 70H343Q403 70 432 86T489 151L457 0H1Q25 5 43 26T69 83L170 552Q181 606 181 614Q181 634 171 648T147 666ZM410 880L519 699L389 776L231 699ZM232 -65Q258 -65 273 -81T289 -123Q289 -151 270 -170Q252 -189 223 -189Q196 -189 180 -173T165 -131Q165 -103 184 -84T232 -65Z"
				   horiz-adv-x="546" unicode="Ệ"/>
			<glyph d="M332 485Q381 485 412 459T443 390Q443 335 400 288T282 212T130 179V172Q130 120 157 88T230 57Q269 57 314 78T391 133Q379 90 347 56T271 3T183 -16Q111 -16 68 29T26 152Q26 233 69 311T184 437T332 485ZM305 422Q273 422 236 396T170 328T131 235Q189 238 244 259T327 310T355 375Q355 396 341 409T305 422ZM163 -65Q189 -65 204 -81T220 -123Q220 -151 201 -170Q183 -189 154 -189Q127 -189 111 -173T96 -131Q96 -103 115 -84T163 -65ZM337 692L436 512L316 589L168 512Z"
				   horiz-adv-x="445" unicode="ệ"/>
			<glyph d="M142 666H344Q320 660 304 640T282 591L173 76Q169 55 169 48Q169 25 178 13T198 0H-1Q20 4 35 22T58 72L168 587Q172 608 172 616Q172 637 163 650T142 666ZM285 897Q319 897 341 880T363 836Q363 791 314 764Q284 748 274 741T265 726Q265 716 278 713Q270 708 259 708Q242 708 229 715T217 738Q217 765 255 788Q291 810 291 831Q291 840 284 846T267 852Q250 852 231 839T198 807L213 882Q250 897 285 897Z"
				   horiz-adv-x="295" unicode="Ỉ"/>
			<glyph d="M229 486L148 109Q141 79 141 52Q141 29 147 15T160 0H20L104 381Q106 393 106 400Q106 417 91 430T59 443ZM214 710Q248 710 270 693T292 649Q292 604 243 577Q213 561 203 554T194 539Q194 529 207 526Q199 521 188 521Q171 521 158 528T146 551Q146 578 184 601Q220 623 220 644Q220 653 213 659T196 665Q179 665 160 652T127 620L142 695Q179 710 214 710Z"
				   horiz-adv-x="247" unicode="ỉ"/>
			<glyph d="M142 666H344Q320 660 304 640T282 591L173 76Q169 55 169 48Q169 25 178 13T198 0H-1Q20 4 35 22T58 72L168 587Q172 608 172 616Q172 637 163 650T142 666ZM81 -65Q107 -65 122 -81T138 -123Q138 -151 119 -170Q101 -189 72 -189Q45 -189 29 -173T14 -131Q14 -103 33 -84T81 -65Z"
				   horiz-adv-x="295" unicode="Ị"/>
			<glyph d="M229 486L148 109Q141 79 141 53Q141 28 147 14T161 0H20L104 381Q106 395 106 400Q106 417 94 430T66 443H59ZM201 687Q228 687 244 670T260 627Q260 597 240 577T191 558Q164 558 147 575T131 618Q131 647 151 667T201 687ZM57 -65Q83 -65 98 -81T114 -123Q114 -151 95 -170Q77 -189 48 -189Q21 -189 5 -173T-10 -131Q-10 -103 9 -84T57 -65Z"
				   horiz-adv-x="247" unicode="ị"/>
			<glyph d="M435 682Q541 682 603 613T665 428Q665 315 611 210Q558 105 470 45T281 -15Q175 -15 113 53T52 239Q52 354 104 458T245 622T435 682ZM420 613Q356 613 299 558T207 411T172 227Q172 147 204 101T295 55Q360 55 417 108T510 253T546 438Q546 519 512 566T420 613ZM262 -65Q288 -65 303 -81T319 -123Q319 -151 300 -170Q282 -189 253 -189Q226 -189 210 -173T195 -131Q195 -103 214 -84T262 -65Z"
				   horiz-adv-x="673" unicode="Ọ"/>
			<glyph d="M297 484Q349 484 387 460T445 394T466 297Q466 219 429 145Q392 72 329 29T194 -14Q142 -14 104 9T46 76T27 173Q27 250 64 323T163 440T297 484ZM287 418Q248 418 213 383T155 281T131 161Q131 111 151 81T205 52Q243 52 277 86Q312 120 336 185T360 308Q360 359 340 388T287 418ZM172 -65Q198 -65 213 -81T229 -123Q229 -151 210 -170Q192 -189 163 -189Q136 -189 120 -173T105 -131Q105 -103 124 -84T172 -65Z"
				   horiz-adv-x="493" unicode="ọ"/>
			<glyph d="M435 682Q541 682 603 613T665 428Q665 315 611 210Q558 105 470 45T281 -15Q175 -15 113 53T52 239Q52 354 104 458T245 622T435 682ZM420 613Q356 613 299 558T207 411T172 227Q172 147 204 101T295 55Q360 55 417 108T510 253T546 438Q546 519 512 566T420 613ZM493 907Q527 907 549 890T571 846Q571 801 522 774Q492 758 482 751T473 736Q473 726 486 723Q478 718 467 718Q450 718 437 725T425 748Q425 775 463 798Q499 820 499 841Q499 850 492 856T475 862Q458 862 439 849T406 817L421 892Q458 907 493 907Z"
				   horiz-adv-x="673" unicode="Ỏ"/>
			<glyph d="M297 484Q349 484 387 460T445 394T466 297Q466 219 429 145Q392 72 329 29T194 -14Q142 -14 104 9T46 76T27 173Q27 250 64 323T163 440T297 484ZM287 418Q248 418 213 383T155 281T131 161Q131 111 151 81T205 52Q243 52 277 86Q312 120 336 185T360 308Q360 359 340 388T287 418ZM343 710Q377 710 399 693T421 649Q421 604 372 577Q342 561 332 554T323 539Q323 529 336 526Q328 521 317 521Q300 521 287 528T275 551Q275 578 313 601Q349 623 349 644Q349 653 342 659T325 665Q308 665 289 652T256 620L271 695Q308 710 343 710Z"
				   horiz-adv-x="493" unicode="ỏ"/>
			<glyph d="M435 682Q541 682 603 613T665 428Q665 315 611 210Q558 105 470 45T281 -15Q175 -15 113 53T52 239Q52 354 104 458T245 622T435 682ZM420 613Q356 613 299 558T207 411T172 227Q172 147 204 101T295 55Q360 55 417 108T510 253T546 438Q546 519 512 566T420 613ZM613 926H727L539 793ZM470 857L585 705L456 763L295 705Z"
				   horiz-adv-x="673" unicode="Ố"/>
			<glyph d="M297 484Q349 484 387 460T445 394T466 297Q466 219 429 145Q392 72 329 29T194 -14Q142 -14 104 9T46 76T27 173Q27 250 64 323T163 440T297 484ZM287 418Q248 418 213 383T155 281T131 161Q131 111 151 81T205 52Q243 52 277 86Q312 120 336 185T360 308Q360 359 340 388T287 418ZM485 752H599L411 619ZM342 683L457 531L328 589L167 531Z"
				   horiz-adv-x="493" unicode="ố"/>
			<glyph d="M435 682Q541 682 603 613T665 428Q665 315 611 210Q558 105 470 45T281 -15Q175 -15 113 53T52 239Q52 354 104 458T245 622T435 682ZM420 613Q356 613 299 558T207 411T172 227Q172 147 204 101T295 55Q360 55 417 108T510 253T546 438Q546 519 512 566T420 613ZM245 926H351L377 793ZM470 857L585 705L456 763L295 705Z"
				   horiz-adv-x="673" unicode="Ồ"/>
			<glyph d="M297 484Q349 484 387 460T445 394T466 297Q466 219 429 145Q392 72 329 29T194 -14Q142 -14 104 9T46 76T27 173Q27 250 64 323T163 440T297 484ZM287 418Q248 418 213 383T155 281T131 161Q131 111 151 81T205 52Q243 52 277 86Q312 120 336 185T360 308Q360 359 340 388T287 418ZM117 752H223L249 619ZM342 683L457 531L328 589L167 531Z"
				   horiz-adv-x="493" unicode="ồ"/>
			<glyph d="M435 682Q541 682 603 613T665 428Q665 315 611 210Q558 105 470 45T281 -15Q175 -15 113 53T52 239Q52 354 104 458T245 622T435 682ZM420 613Q356 613 299 558T207 411T172 227Q172 147 204 101T295 55Q360 55 417 108T510 253T546 438Q546 519 512 566T420 613ZM470 857L585 705L456 763L295 705ZM614 946Q642 946 659 933T676 898Q676 879 665 864T634 837T605 819T598 806Q598 798 608 795Q600 791 593 791Q578 791 568 797T558 816Q558 829 567 839T589 856T610 872T619 892Q619 900 613 904T599 909Q572 909 543 872L555 934Q585 946 614 946Z"
				   horiz-adv-x="673" unicode="Ổ"/>
			</font>
</defs>
</svg>
