<?xml version="1.0" encoding="UTF-8"?>
<svg height="100%" width="100%" xmlns="http://www.w3.org/2000/svg">
	<defs>
		<font horiz-adv-x="529" id="web">
			<font-face alphabetic="0" ascent="1006" descent="-258" font-family="" panose-1="2 2 8 3 5 0 0 9 0 4"/>
			<missing-glyph
					d="M0 718H512V0H0ZM50 667V50H462V667ZM259 609Q313 609 348 573T383 478Q383 446 371 421T319 357Q285 326 278 311Q271 294 271 234H225L223 253Q223 308 238 335T286 395Q332 436 332 474Q332 508 308 533T256 559Q186 559 174 464L124 472Q138 609 259 609ZM222 184H278V117H222Z"
					horiz-adv-x="512"/>
			<glyph d="" horiz-adv-x="213" unicode=" "/>
			<glyph d="M137 666H361Q322 652 291 537L236 334Q224 287 199 245T148 176Q121 219 121 283Q121 306 125 334L155 537Q160 570 160 600Q160 655 137 666ZM129 127Q158 127 175 108T192 62Q192 31 170 9T116 -12Q87 -12 70 6T53 52Q53 83 75 105T129 127Z"
				   horiz-adv-x="299" unicode="!"/>
			<glyph d="M390 666H505L472 507Q462 459 436 412T378 330H375Q352 378 351 443Q351 457 352 475T390 666ZM181 666H296L263 507Q253 461 227 413T169 330H165Q141 385 141 443Q141 477 148 507Z"
				   horiz-adv-x="528" unicode="&quot;"/>
			<glyph d="M226 666H292L245 470H403L449 666H518L471 470H561V413H457L421 259H523V203H406L356 0H291L339 203H181L131 0H67L115 203H22V259H129L166 413H66V470H179ZM232 413L195 259H354L390 413Z"
				   horiz-adv-x="578" unicode="#"/>
			<glyph d="M307 741H405L388 657Q463 646 506 619L470 456Q463 509 422 540T328 572Q280 572 250 549T220 491Q220 464 245 439T341 371Q462 297 462 204Q462 124 404 70T254 7L236 -80H138L156 7Q66 15 11 57L54 249Q57 180 104 137T220 95Q268 95 299 118T331 178Q331 206 303 232T213 295Q95 364 95 463Q95 538 146 590T289 657Z"
				   unicode="$"/>
			<glyph d="M269 682Q328 682 362 642T396 537Q396 449 342 383Q289 317 208 317Q150 317 115 357T81 462Q81 550 134 616T269 682ZM637 666H724L196 0H107ZM619 352Q677 352 711 312T745 207Q745 118 691 52Q637 -13 558 -13Q500 -13 465 25T431 131Q431 220 484 286T619 352ZM254 608Q223 608 199 563T175 463Q175 391 222 391Q255 391 278 439T302 536Q302 608 254 608ZM603 278Q570 278 547 232T525 133Q525 61 572 61Q605 61 628 108T652 206Q652 235 640 256T603 278Z"
				   horiz-adv-x="770" unicode="%"/>
			<glyph d="M361 683Q436 683 484 643T533 540Q533 488 494 440T356 339Q408 264 476 194Q521 239 549 284T577 359Q577 389 554 399H766Q730 384 686 310Q625 208 547 135Q616 87 656 87Q689 87 735 127Q673 -10 584 -10Q523 -10 442 55Q334 -12 220 -12Q128 -12 79 28T30 139Q30 203 69 252T194 351Q149 438 149 492Q149 576 211 629T361 683ZM350 597Q318 597 293 572T269 509Q269 483 283 455T310 406Q419 465 419 527Q419 561 398 579T350 597ZM239 280Q158 228 158 169Q158 129 184 106T256 84Q309 84 368 119Q297 193 239 280Z"
				   horiz-adv-x="749" unicode="&amp;"/>
			<glyph d="M149 666H264L231 507Q221 459 194 410T136 330H133Q109 384 109 443Q109 477 116 507Z"
				   horiz-adv-x="252" unicode="'"/>
			<glyph d="M442 705Q366 664 300 569T192 336T151 72Q151 -16 175 -90T252 -205Q149 -174 88 -76T27 150Q27 270 81 385T231 585Q327 671 442 705Z"
				   horiz-adv-x="348" unicode="("/>
			<glyph d="M109 705Q214 673 274 575T334 351Q334 170 215 9T-82 -205Q-1 -162 64 -64T169 171T209 429Q209 521 184 593Q159 666 109 705Z"
				   horiz-adv-x="348" unicode=")"/>
			<glyph d="M225 710L352 672Q286 599 258 526Q347 536 419 578V441Q388 455 348 469T258 486Q291 403 352 344L227 299Q235 344 235 381Q235 418 221 472Q157 414 120 332L42 439Q128 454 198 504Q133 544 41 557L117 671Q155 592 221 537Q233 585 233 623Q233 662 225 710Z"
				   horiz-adv-x="407" unicode="*"/>
			<glyph d="M371 567H461L411 329H640L621 240H392L341 0H251L301 240H71L90 329H321Z" horiz-adv-x="683"
				   unicode="+"/>
			<glyph d="M97 151Q136 151 160 122T185 46Q185 -4 155 -56T72 -142T-58 -178Q-63 -178 -71 -177Q-14 -157 28 -109T75 -8V4Q71 3 67 3Q38 5 23 24T9 66Q9 102 35 126T97 151Z"
				   horiz-adv-x="252" unicode=","/>
			<glyph d="M56 303H309L289 209H36Z" horiz-adv-x="333" unicode="-"/>
			<glyph d="M101 151Q136 151 156 129T176 74Q176 36 150 11T86 -14Q51 -14 31 7T11 62Q11 100 37 125T101 151Z"
				   horiz-adv-x="252" unicode="."/>
			<glyph d="M417 681H526L77 -15H-36Z" horiz-adv-x="452" unicode="/"/>
			<glyph d="M357 680Q443 680 491 614T540 440Q540 338 493 222Q447 107 376 45T220 -16Q136 -16 87 50T38 225Q38 335 86 449T206 622T357 680ZM330 582Q290 582 252 526T192 378T169 216Q169 154 189 118T245 82Q285 82 320 132T381 280T407 447Q407 509 386 545T330 582Z"
				   unicode="0"/>
			<glyph d="M340 666H441L329 135Q321 97 321 75Q321 16 356 0H172L278 506L187 423L135 485Q250 576 340 666Z"
				   unicode="1"/>
			<glyph d="M334 681Q424 681 479 634T535 512Q535 462 509 413T436 310T216 102H371Q454 102 493 161L456 0H-28L169 182Q288 290 346 365T404 495Q404 540 376 564T306 588Q262 588 233 565T204 507Q204 489 216 473T252 451L153 358Q85 393 85 476Q85 561 155 621T334 681Z"
				   unicode="2"/>
			<glyph d="M172 666H600L339 390Q403 372 444 327T486 217Q486 114 408 49T207 -15Q122 -15 69 21T0 115L118 193Q127 77 227 77Q279 77 316 111T353 195Q353 305 161 315L387 563H244Q163 563 118 511Z"
				   unicode="3"/>
			<glyph d="M365 666H525L436 240H500L478 142H415Q401 69 401 54Q401 19 420 0H260L292 142H-7L3 190ZM382 552L145 240H314Z"
				   unicode="4"/>
			<glyph d="M562 686L517 564H277L233 420Q346 418 414 363T483 221Q483 116 405 50T207 -15Q124 -15 68 21T-1 115L117 193Q122 133 151 105T224 77Q276 77 313 113T350 202Q350 258 299 289T162 320H98L199 666H445Q532 666 562 686Z"
				   unicode="5"/>
			<glyph d="M379 682L570 663Q331 590 196 388L202 384Q257 439 339 439Q413 439 459 390T505 260Q505 189 468 123T369 21T227 -16Q136 -16 84 39T32 190Q32 337 131 479T379 682ZM281 347Q228 347 193 302T158 190Q158 135 186 107T254 79Q305 79 340 123T376 235Q376 292 347 319T281 347Z"
				   unicode="6"/>
			<glyph d="M139 666H612L390 349Q241 133 210 0H37Q235 316 421 567H226Q186 567 150 552T85 500Z" unicode="7"/>
			<glyph d="M352 681Q433 681 484 640T536 533Q536 472 497 422T395 358Q449 335 474 295T499 210Q499 116 419 50T225 -16Q131 -16 74 28T18 146Q18 217 65 272T193 344Q108 386 108 477Q108 565 179 623T352 681ZM333 592Q291 592 262 561T233 484Q233 444 256 421T314 398Q355 398 385 429T416 509Q416 547 392 569T333 592ZM266 294Q217 294 182 258T148 168Q148 125 175 99T245 74Q293 74 327 108Q362 142 362 198Q362 242 335 268T266 294Z"
				   unicode="8"/>
			<glyph d="M342 681Q433 681 485 626T538 476Q538 327 439 188T192 -11L1 8Q241 81 373 277L368 282Q310 226 230 226Q158 226 111 274T64 406Q64 476 100 540T199 643T342 681ZM316 587Q264 587 228 541T193 430Q193 381 219 350T288 319Q339 319 375 363T411 475Q411 530 383 558T316 587Z"
				   unicode="9"/>
			<glyph d="M168 459Q203 459 222 437T242 382Q242 345 216 319T152 293Q117 293 97 314T78 369Q78 407 103 433T168 459ZM102 151Q137 151 157 129T177 74Q177 36 151 11T87 -14Q52 -14 32 7T12 62Q12 100 37 125T102 151Z"
				   horiz-adv-x="252" unicode=":"/>
			<glyph d="M174 459Q209 459 229 437T249 382Q249 345 223 319T159 293Q124 293 104 314T84 369Q84 407 109 433T174 459ZM91 151Q130 151 154 122T179 46Q179 -4 149 -56T66 -142T-64 -178Q-69 -178 -77 -177Q-20 -157 22 -109T69 -8V4Q65 3 61 3Q32 5 17 24T3 66Q3 102 29 126T91 151Z"
				   horiz-adv-x="252" unicode=";"/>
			<glyph d="M661 587L639 485L226 284L225 278L555 86L534 -15L106 251L121 319Z" horiz-adv-x="683"
				   unicode="&lt;"/>
			<glyph d="M113 436H663L643 347H94ZM68 223H617L598 134H48Z" horiz-adv-x="683" unicode="="/>
			<glyph d="M177 587L605 319L590 251L50 -15L71 87L485 287L486 293L155 486Z" horiz-adv-x="683" unicode="&gt;"/>
			<glyph d="M331 682Q417 682 466 649T515 555Q515 504 481 457T379 366Q296 310 269 283T243 229Q243 208 268 198Q243 177 211 177Q179 177 153 196T128 249Q128 289 157 327T247 405Q311 448 338 476T365 532Q365 560 343 573T291 586Q243 586 194 558T110 488L142 643Q177 660 228 671T331 682ZM170 127Q199 127 216 108T233 62Q233 31 211 10T157 -11Q128 -11 111 6T94 52Q94 83 115 105T170 127Z"
				   horiz-adv-x="474" unicode="?"/>
			<glyph d="M544 638Q703 638 799 548T895 321Q895 235 859 158T760 36T623 -9Q581 -9 549 12T518 66V70Q490 31 450 10T368 -10Q310 -10 277 31T245 143Q245 221 281 300T380 426T514 474Q544 474 570 466T615 459Q645 459 690 484L619 147Q611 107 611 93Q611 46 650 46Q698 46 741 82T810 183T835 319Q835 438 754 515T538 592Q428 592 331 538T178 391T123 187Q123 39 225 -52T494 -143Q593 -143 680 -109T828 -18L873 -47Q808 -116 702 -153T494 -191Q294 -191 179 -91T64 179Q64 305 128 411T305 577T544 638ZM502 403Q451 403 407 323T364 154Q364 122 375 98T414 74Q441 74 470 111T522 229T544 345Q544 403 502 403Z"
				   horiz-adv-x="942" unicode="@"/>
			<glyph d="M422 669H541L603 103Q607 62 619 34T651 0H426Q443 4 452 22T461 71Q461 86 458 110T453 156H210L180 104Q150 53 150 30Q150 6 172 0H-35Q-21 3 5 31T63 110ZM419 493L266 243H443Z"
				   horiz-adv-x="704" unicode="A"/>
			<glyph d="M122 666H399Q486 666 543 623T601 511Q601 448 559 399T456 341Q510 327 540 284T570 189Q570 104 497 52T301 0H-8Q35 12 51 81L156 585Q159 603 159 611Q159 632 148 647T122 666ZM242 304L196 83H295Q353 83 387 113T421 194Q421 242 392 273T315 304ZM301 583L260 386H345Q392 386 423 417T454 496Q454 531 435 557T370 583Z"
				   horiz-adv-x="609" unicode="B"/>
			<glyph d="M454 679Q505 679 543 667T600 642L564 473Q548 534 515 560T441 587Q381 587 325 538T236 410T203 250Q203 173 238 127T340 81Q382 81 427 101T510 170L484 51Q450 18 396 1T286 -16Q178 -16 112 57T47 245Q47 354 102 456T251 618T454 679Z"
				   horiz-adv-x="555" unicode="C"/>
			<glyph d="M126 666H392Q516 666 590 587T664 374Q664 274 617 187T485 50T288 0H-7Q36 12 52 90L156 584Q159 606 159 614Q159 655 126 666ZM299 579L196 87H287Q385 87 447 171T509 384Q509 475 473 527T367 579Z"
				   horiz-adv-x="668" unicode="D"/>
			<glyph d="M140 666H591L557 497Q555 543 527 559T452 575H313L273 385H388Q456 383 479 419L446 260Q440 299 370 298H255L212 90H356Q416 90 446 104T509 172L473 0H-6Q48 13 64 83L169 569Q176 601 176 613Q175 657 140 666Z"
				   horiz-adv-x="559" unicode="E"/>
			<glyph d="M137 666H590L556 497Q551 544 524 559T452 575H313L274 385H395Q462 385 484 419L451 259Q446 298 376 298H255L210 81Q206 62 206 53Q206 10 240 0H-7Q47 13 63 83L172 587Q175 600 175 614Q175 655 137 666Z"
				   horiz-adv-x="552" unicode="F"/>
			<glyph d="M484 681Q526 681 569 670T636 642L600 473Q577 587 459 587Q393 587 332 537T237 408T202 244Q202 166 237 119T336 72Q358 72 386 83L414 226Q416 243 416 248Q416 291 380 302H618Q569 287 559 232L518 33Q480 10 422 -3T306 -17Q184 -17 115 51T47 242Q47 352 106 455T266 620T484 681Z"
				   horiz-adv-x="621" unicode="G"/>
			<glyph d="M132 666H372Q322 653 308 591L263 385H518L561 587Q566 608 565 616Q565 655 532 666H771Q722 653 708 591L598 76Q594 61 594 49Q594 10 627 0H390Q411 3 427 22T451 72L499 298H245L198 76Q195 62 195 50Q195 10 228 0H-8Q12 3 28 22T52 72L162 587Q165 608 165 616Q165 655 132 666Z"
				   horiz-adv-x="713" unicode="H"/>
			<glyph d="M134 666H372Q322 653 308 591L199 76Q195 56 195 49Q195 25 205 13T227 0H-8Q11 2 28 21T53 72L162 587Q166 607 166 614Q166 639 155 651T134 666Z"
				   horiz-adv-x="315" unicode="I"/>
			<glyph d="M140 666H384Q334 653 317 574L222 124Q201 23 156 -27T33 -78Q-7 -78 -39 -63T-87 -24Q-69 -29 -51 -29Q41 -29 81 145L170 565Q177 598 177 612Q177 657 140 666Z"
				   horiz-adv-x="325" unicode="J"/>
			<glyph d="M128 666H368Q321 651 308 591L259 366L475 575Q524 624 524 649Q524 661 509 666H728Q684 651 619 589L390 374L525 103Q550 53 577 28T622 0H424L253 339L198 76Q195 57 195 50Q195 10 229 0H-8Q10 2 27 21T52 72L162 587Q165 600 165 614Q165 654 128 666Z"
				   horiz-adv-x="664" unicode="K"/>
			<glyph d="M124 666H365Q317 651 304 591L197 91H328Q395 91 430 113T488 187L448 0H-9Q8 2 25 22T48 72L158 587Q161 601 161 614Q161 655 124 666Z"
				   horiz-adv-x="526" unicode="L"/>
			<glyph d="M131 666H347L447 250L712 666H931Q904 659 884 629T856 558L760 112Q755 89 755 64Q755 10 790 0H551Q599 14 621 111L702 480L382 -15L262 480L184 116Q178 90 178 71Q178 11 222 0H-7Q54 16 76 115L169 550Q176 580 176 599Q176 653 131 666Z"
				   horiz-adv-x="881" unicode="M"/>
			<glyph d="M105 666H287L504 250L575 590Q578 607 578 613Q578 653 539 666H742Q696 650 686 594L557 -4H458L454 11Q434 80 407 134L245 442L165 60V50Q166 10 203 0H-7Q13 2 30 19T55 68Q164 564 164 577Q164 599 144 629T105 666Z"
				   horiz-adv-x="683" unicode="N"/>
			<glyph d="M435 682Q549 682 614 611T680 422Q680 312 626 208Q573 105 482 45T289 -15Q177 -15 111 55T46 246Q46 358 98 460T241 622T435 682ZM418 589Q362 589 312 538T232 401T202 232Q202 163 228 120T307 78Q364 78 414 128T494 262T525 433Q525 502 498 545T418 589Z"
				   horiz-adv-x="682" unicode="O"/>
			<glyph d="M129 666H396Q493 666 550 617T608 489Q608 427 573 372T477 286T340 255Q281 256 238 268L197 76Q194 59 194 50Q194 11 228 0H-8Q11 3 28 22T52 72L163 587Q167 607 167 614Q167 654 129 666ZM307 583L255 351Q282 343 319 342Q385 342 424 383T464 486Q464 525 441 554T375 583Z"
				   horiz-adv-x="594" unicode="P"/>
			<glyph d="M435 682Q549 682 614 611T680 422Q680 310 625 206T478 41Q505 10 559 -10Q614 -31 677 -33Q612 -78 521 -78Q412 -78 330 -12Q314 -15 289 -15Q177 -15 111 55T46 246Q46 358 98 460T241 622T435 682ZM418 589Q362 589 312 538T232 401T202 232Q202 163 228 120T307 78Q364 78 414 128T494 262T525 433Q525 502 498 545T418 589Z"
				   horiz-adv-x="682" unicode="Q"/>
			<glyph d="M128 666H402Q498 666 556 620T614 496Q614 417 559 357T424 288Q438 275 450 243L514 83Q539 16 584 0H389L310 229Q289 286 265 286H243L196 76Q192 61 192 50Q192 11 226 0H-9Q11 3 28 21T52 72L162 587Q166 607 166 614Q166 655 128 666ZM306 583L259 358H332Q394 358 431 395T469 489Q469 531 445 557T385 583Z"
				   horiz-adv-x="615" unicode="R"/>
			<glyph d="M345 682Q392 682 439 668T522 633L489 475Q465 530 422 558T335 587Q294 587 269 566T245 506Q245 475 272 445T363 373Q481 293 481 195Q481 102 411 43T221 -16Q163 -16 103 1T11 43L52 232Q74 154 123 118T233 82Q279 82 305 105T331 167Q331 197 306 224T217 295Q102 372 102 474Q102 562 169 622T345 682Z"
				   horiz-adv-x="517" unicode="S"/>
			<glyph d="M114 666H674L636 492Q632 542 609 560T527 578H446L338 76Q335 62 335 49Q335 11 366 0H132Q180 11 194 72L301 578H217Q157 578 126 559T74 493Z"
				   horiz-adv-x="601" unicode="T"/>
			<glyph d="M124 666H363Q313 653 302 603L224 243Q216 207 216 177Q216 120 240 101T313 82Q368 82 408 116T462 216Q503 411 542 600Q543 615 543 620Q543 655 511 666H718Q673 655 661 600L583 230Q555 98 487 41T282 -15Q72 -15 72 163Q72 211 83 262Q135 498 152 579Q160 613 160 622Q160 654 124 666Z"
				   horiz-adv-x="661" unicode="U"/>
			<glyph d="M97 666H322Q284 653 284 602Q284 588 288 544L323 199L543 562Q571 608 571 633Q571 656 546 666H766Q747 660 719 630T663 556L305 -5H204L142 563Q131 652 97 666Z"
				   horiz-adv-x="672" unicode="V"/>
			<glyph d="M97 666H321Q283 654 283 600Q283 574 291 498L318 215L490 514L486 563Q478 650 446 666H659Q621 653 621 599Q621 581 626 528L655 216L851 565Q875 607 875 633Q875 656 851 666H1064Q1020 651 969 564L641 -5H540L507 360L296 -5H195L140 563Q132 649 97 666Z"
				   horiz-adv-x="970" unicode="W"/>
			<glyph d="M104 666H329Q317 662 310 653T304 630Q304 616 313 594L372 449L498 594Q527 626 527 646Q527 654 522 658T510 666H719L711 663Q680 649 631 594L415 345L520 84Q548 12 580 0H358Q379 6 379 37Q379 55 368 84L311 226L188 84Q153 44 153 20Q153 5 166 0H-40Q-30 2 -4 24T53 84L268 331L161 594Q150 621 135 640T104 666Z"
				   horiz-adv-x="628" unicode="X"/>
			<glyph d="M85 666H303Q283 658 283 627Q283 613 289 594L346 386L496 591Q522 628 522 645Q522 656 516 660T506 666H701Q662 654 618 593L375 265L334 76Q330 56 330 49Q330 10 363 0H128Q148 3 166 23T190 72L231 265L143 593Q127 652 85 666Z"
				   horiz-adv-x="602" unicode="Y"/>
			<glyph d="M136 666H637L213 90H385Q440 90 476 107T544 173L501 0H-21L402 575H224Q175 575 141 556T98 510Z"
				   horiz-adv-x="583" unicode="Z"/>
			<glyph d="M160 681H415L400 611H248L100 -101H252L237 -173H-18Z" horiz-adv-x="343" unicode="["/>
			<glyph d="M103 681H211L378 -15H268Z" horiz-adv-x="447" unicode="\"/>
			<glyph d="M120 681H375L196 -173H-59L-44 -101H108L256 611H105Z" horiz-adv-x="343" unicode="]"/>
			<glyph d="M366 703H457L558 179H454L383 579H379L146 179H44Z" horiz-adv-x="683" unicode="^"/>
			<glyph d="M-54 -82H563L551 -136H-65Z" horiz-adv-x="617" unicode="_"/>
			<glyph d="M214 666H378L389 506Z" horiz-adv-x="486" unicode="`"/>
			<glyph d="M513 486L440 151Q430 111 430 85Q430 39 482 34L288 -15L300 64Q268 25 224 5T141 -15Q86 -15 55 28T24 141Q24 226 65 304T175 429T321 475Q352 475 385 469T431 463Q469 463 513 486ZM313 401Q256 401 208 322T160 155Q160 79 209 79Q230 79 254 100Q279 121 296 152T331 258T350 359Q350 401 313 401Z"
				   unicode="a"/>
			<glyph d="M302 696L239 408Q268 444 309 464T386 485Q443 485 474 443T506 333Q506 244 465 161T358 33T208 -11Q171 -11 133 -1T82 9Q51 9 18 -12L147 587Q149 596 149 603Q149 621 136 631T95 645ZM321 389Q296 389 273 372T231 326T195 219T178 109Q178 87 190 79T229 71Q284 71 325 148Q366 226 366 309Q365 389 321 389Z"
				   horiz-adv-x="530" unicode="b"/>
			<glyph d="M331 484Q378 484 405 462T433 405Q433 362 399 323Q365 285 321 279Q332 294 332 325Q332 352 320 374T282 397Q234 397 196 334T159 193Q159 137 184 105T259 73Q293 73 329 90T396 140Q374 71 314 27T183 -16Q108 -16 66 29T24 151Q24 239 65 317T178 439T331 484Z"
				   horiz-adv-x="429" unicode="c"/>
			<glyph d="M561 696L435 119Q430 89 430 79Q430 57 444 46T487 33L288 -15L305 62Q238 -14 152 -14Q93 -14 59 28T25 143Q25 223 62 303T161 434T292 485Q351 485 375 449L407 590Q408 595 408 601Q408 637 349 645ZM295 398Q245 398 203 319T162 159Q162 76 209 76Q261 76 310 161Q320 181 334 239T348 330Q348 398 295 398Z"
				   horiz-adv-x="528" unicode="d"/>
			<glyph d="M333 484Q389 484 423 455T458 377Q458 299 372 240T154 174L157 159Q163 121 186 97T252 74Q291 74 334 92T410 140Q390 73 329 28T193 -16Q115 -16 69 31T24 160Q24 242 67 318T181 439T333 484ZM301 406Q259 406 213 358T154 243Q232 249 288 281Q345 314 345 362Q345 382 333 394T301 406Z"
				   horiz-adv-x="456" unicode="e"/>
			<glyph d="M345 693Q391 693 415 673T440 628Q440 605 424 586T377 562Q384 572 384 584Q384 597 375 607T350 617Q322 617 305 583T272 466H397L381 390H258L176 -6Q137 -189 -8 -189Q-80 -189 -115 -135Q-94 -139 -77 -139Q-23 -139 5 -101T45 -1L126 390H45L60 466H141Q189 693 345 693Z"
				   horiz-adv-x="361" unicode="f"/>
			<glyph d="M552 486L533 395H439Q450 385 457 362T464 320Q464 246 396 197T230 147Q216 147 204 149Q155 128 155 114Q155 102 187 94T242 82Q361 62 404 31T447 -47Q447 -113 370 -152T184 -192Q78 -192 19 -162T-40 -83Q-40 -57 -4 -28T100 16Q65 28 44 46T23 86Q23 131 127 172Q57 215 57 288Q57 376 126 430T298 484Q338 484 386 472Q409 465 458 465Q518 465 552 486ZM272 410Q234 410 209 378T185 300Q185 267 201 244T252 221Q288 221 314 251T341 330Q341 366 322 388T272 410ZM174 -5Q81 -30 81 -69Q81 -89 110 -104T202 -120Q247 -120 278 -106Q310 -92 310 -72Q310 -43 273 -28T174 -5Z"
				   horiz-adv-x="524" unicode="g"/>
			<glyph d="M299 696L236 417Q264 446 309 465T396 485Q491 485 493 395Q493 372 486 339L439 109Q434 86 434 63Q435 9 458 0H284L349 296Q357 325 357 346Q355 398 314 398Q284 398 251 367T211 299L147 0H17L144 587Q146 597 146 604Q145 639 95 645Z"
				   horiz-adv-x="524" unicode="h"/>
			<glyph d="M254 486L173 109Q166 81 166 56Q166 8 190 0H17L98 368Q101 379 101 391Q101 409 84 422T47 435ZM214 689Q246 689 264 669T282 619Q282 585 258 561Q235 537 200 537Q168 537 149 557T131 607Q131 642 155 665T214 689Z"
				   horiz-adv-x="266" unicode="i"/>
			<glyph d="M214 689Q246 689 264 669T282 619Q282 585 258 561T200 537Q169 537 150 557T131 607Q131 641 155 665T214 689ZM255 486L151 0Q131 -89 81 -136T-32 -183Q-75 -183 -111 -168T-164 -131Q-140 -137 -121 -137Q-8 -137 19 0L100 377Q101 382 101 389Q101 407 84 421T48 435Z"
				   horiz-adv-x="268" unicode="j"/>
			<glyph d="M299 696L204 269L330 391Q368 426 368 446Q368 460 351 466H580Q519 451 454 388L321 258L414 86Q449 19 510 19Q462 -12 398 -12Q327 -12 292 55L198 240L148 0H17L140 569Q146 594 146 602Q144 637 92 645Z"
				   horiz-adv-x="539" unicode="k"/>
			<glyph d="M299 696L172 109Q165 83 165 55Q165 8 189 0H17L141 573Q146 594 146 603Q145 639 96 645Z"
				   horiz-adv-x="266" unicode="l"/>
			<glyph d="M241 486L228 414Q257 444 301 464T390 485Q475 485 490 414Q516 443 566 464T658 485Q758 485 759 395Q759 373 750 330L704 109Q700 89 700 65Q701 13 724 0H550L601 233Q622 324 622 347Q622 398 581 398Q553 398 528 375T489 316T466 233L415 0H283L350 306Q356 336 356 346Q356 398 314 398Q282 398 250 362T207 269L148 0H18L85 306Q102 381 102 391Q102 412 85 423T48 435Z"
				   horiz-adv-x="794" unicode="m"/>
			<glyph d="M242 486L228 413Q306 485 392 485Q494 485 494 394Q494 368 486 330L440 109Q436 89 436 64Q436 8 460 0H286L353 306Q359 336 359 346Q359 398 316 398Q287 398 254 368T211 290L148 0H18L95 352Q102 383 102 390Q101 429 48 435Z"
				   horiz-adv-x="524" unicode="n"/>
			<glyph d="M301 483Q387 483 435 430T484 291Q484 214 447 143Q411 73 347 30T205 -13Q120 -13 72 40T24 179Q24 257 62 329T164 442T301 483ZM290 398Q236 398 196 319T156 165Q156 122 172 96T217 71Q253 71 283 107T331 200T350 302Q350 346 334 372T290 398Z"
				   horiz-adv-x="508" unicode="o"/>
			<glyph d="M387 486Q444 486 476 440T508 322Q508 241 470 161T368 35T224 -12Q178 -12 155 14L110 -183H-20L94 349Q100 378 100 387Q100 407 86 421T45 435L237 485L226 407Q255 442 298 464T387 486ZM318 387Q297 387 269 365T226 316T195 227T179 126Q179 70 229 70Q265 70 296 105T348 198T368 307Q368 387 318 387Z"
				   horiz-adv-x="531" unicode="p"/>
			<glyph d="M515 484L392 -80Q385 -115 385 -135Q385 -177 406 -183H238L293 62Q220 -15 146 -15Q88 -15 57 26T26 136Q26 222 63 303T168 432T324 481Q366 481 398 472T451 464Q479 464 515 484ZM302 399Q249 399 208 322T167 164Q167 83 212 83Q258 83 300 145Q313 166 333 242T354 361Q354 383 341 391T302 399Z"
				   unicode="q"/>
			<glyph d="M249 486L231 396Q257 435 296 459T371 484Q401 484 420 467T440 414Q440 376 407 344T320 309Q332 326 332 350Q331 388 306 388Q277 388 247 348T195 215L148 0H18Q80 281 97 359Q103 382 103 389Q103 426 45 435Z"
				   horiz-adv-x="418" unicode="r"/>
			<glyph d="M265 485Q327 485 365 461T404 400Q404 353 331 316Q334 325 334 333Q334 367 310 384T256 402Q226 402 205 387T184 350Q184 331 207 310T271 264Q363 204 363 132Q363 66 306 25T158 -16Q63 -16 0 22L40 181Q46 133 76 100T155 67Q184 67 207 79T231 116Q231 134 212 152T148 200Q64 254 64 327Q64 397 121 441T265 485Z"
				   horiz-adv-x="412" unicode="s"/>
			<glyph d="M281 598L253 466H381L365 390H237L194 195Q182 147 182 117Q182 88 196 76T239 64Q279 64 330 91Q307 40 261 12T155 -16Q45 -16 42 81Q42 104 48 131L107 390H34Z"
				   horiz-adv-x="352" unicode="t"/>
			<glyph d="M253 486L181 156Q177 140 177 120Q177 73 218 73Q251 73 282 105T323 181L359 338Q367 376 367 393Q367 415 354 423T319 435L521 486L438 109Q436 100 434 91T433 74Q433 39 483 35L292 -15L307 58Q278 26 233 6T143 -14Q41 -14 41 76Q41 99 48 132L90 338Q96 371 96 389Q97 432 50 435Z"
				   horiz-adv-x="537" unicode="u"/>
			<glyph d="M204 485L241 165L366 360Q392 398 392 426Q392 456 357 466H547L220 -9H131L85 367Q81 399 68 416T16 436Z"
				   horiz-adv-x="503" unicode="v"/>
			<glyph d="M207 485L233 182L394 468H482L518 175L628 358Q653 399 653 426Q653 455 621 466H805L494 -9H406L376 271L210 -9H121L87 374Q81 432 29 435L19 436Z"
				   horiz-adv-x="765" unicode="w"/>
			<glyph d="M227 485Q245 445 260 406T295 327L356 391Q387 426 387 445Q387 454 380 459T367 467H546L330 248Q351 212 403 80Q416 50 436 40T492 28L303 -21L229 148L152 67Q125 39 125 21Q125 5 144 0H-30L194 228L129 375Q114 410 96 421T52 435H38Z"
				   horiz-adv-x="519" unicode="x"/>
			<glyph d="M200 484L271 127Q315 193 352 271T389 401Q389 455 345 466H526Q485 329 384 163T186 -95T20 -189Q-22 -189 -42 -169T-62 -119Q-62 -100 -53 -75Q-30 -95 6 -95Q42 -95 87 -67T167 0L86 377Q80 405 64 419T11 436Z"
				   horiz-adv-x="510" unicode="y"/>
			<glyph d="M80 472H454L175 73H280Q331 73 356 84T406 137L372 0H-19L260 399H132Q101 399 76 384T43 350Z"
				   horiz-adv-x="443" unicode="z"/>
			<glyph d="M506 700Q430 695 391 662T339 566L312 435Q274 262 130 255Q177 250 197 237T231 202T244 141Q243 106 236 74L209 -57Q206 -72 204 -100Q204 -142 232 -162T320 -190Q179 -190 130 -167T82 -92Q82 -79 86 -55L116 87Q127 137 127 166Q127 207 105 228T22 255Q100 259 133 295T186 422L216 564Q226 614 255 643T334 685T506 700Z"
				   horiz-adv-x="387" unicode="{"/>
			<glyph d="M205 754H310L105 -209H1Z" horiz-adv-x="264" unicode="|"/>
			<glyph d="M84 700Q219 700 270 677T322 601Q322 587 318 564L288 422Q278 376 278 344Q278 301 299 280T382 255Q321 250 294 233T249 182T218 87L188 -55Q177 -106 147 -135T66 -176T-102 -190Q-27 -183 12 -152T65 -57L92 74Q104 135 129 172T185 230T276 255Q160 261 160 368Q160 403 168 435L195 566Q201 590 201 609Q201 651 172 672T84 700Z"
				   horiz-adv-x="387" unicode="}"/>
			<glyph d="M253 404Q319 404 387 350T490 297Q542 297 563 395H659Q617 196 474 196Q404 196 333 250T226 305Q201 305 182 284T149 208H53Q74 302 129 353T253 404Z"
				   horiz-adv-x="683" unicode="~"/>
			<glyph d="" horiz-adv-x="213" unicode=" "/>
			<glyph d="M171 308Q186 279 191 254T196 201Q196 178 187 112L163 -51Q158 -84 158 -114Q158 -169 180 -180H-42Q-4 -165 27 -51L77 133Q96 196 120 237T171 308ZM200 503Q229 503 246 484T264 438Q264 407 242 385T188 364Q159 364 142 382T125 428Q125 459 146 481T200 503Z"
				   horiz-adv-x="299" unicode="¡"/>
			<glyph d="M330 672H419L400 575Q436 570 459 549T483 498Q483 457 450 417T372 372Q383 387 383 418Q383 445 370 467T330 490Q282 490 245 427T208 287Q208 231 235 198T312 166Q380 166 447 234Q428 175 387 137T297 86L276 -16H186L207 80Q145 90 109 133T73 246Q73 363 141 454T309 569Z"
				   unicode="¢"/>
			<glyph d="M447 682Q537 682 581 646L518 531Q516 561 493 577T437 594Q391 594 362 549T309 383H428L410 297H291Q258 144 204 106Q224 107 245 107Q271 106 291 101T338 97Q384 97 413 108T477 149L487 31Q443 -15 356 -15Q310 -15 245 0T142 16Q108 16 72 6T13 -18L1 87Q59 88 92 132T155 297H90L109 383H174Q202 502 235 561T320 651T447 682Z"
				   unicode="£"/>
			<glyph d="M163 527L233 457Q261 471 296 471Q334 471 362 457L430 526L490 467L423 400Q439 371 439 333Q439 296 423 265L491 198L431 139L362 208Q332 193 296 193Q261 193 231 208L163 139L103 199L171 265Q154 295 154 333Q154 371 170 400L103 468ZM296 408Q260 408 242 384T224 332Q224 303 242 279T296 255Q333 255 351 279T370 332Q370 361 352 384T296 408Z"
				   horiz-adv-x="566" unicode="¤"/>
			<glyph d="M75 666H312Q277 653 277 592Q277 582 282 556L319 391L412 537Q459 613 459 641Q459 660 442 666H633Q587 650 521 549L450 441H555L541 371H406L354 293H524L510 222H335L313 115Q306 86 306 63Q306 33 316 17T340 0H100Q155 14 176 115L198 222H17L31 293H204L185 371H47L61 441H170L144 550Q133 596 114 627T75 666Z"
				   horiz-adv-x="542" unicode="¥"/>
			<glyph d="M172 675H277L202 325H97ZM66 175H171L96 -175H-8Z" horiz-adv-x="241" unicode="¦"/>
			<glyph d="M402 678Q468 678 520 658T591 605L494 517Q477 552 444 569T377 587Q341 587 312 566T284 517Q284 485 333 457L375 436Q482 388 518 351T554 273Q554 181 439 126Q484 89 484 26Q484 -56 412 -109T233 -163Q161 -163 97 -138T-3 -64L98 24Q116 -15 156 -41T245 -68Q286 -68 313 -48T341 3Q341 28 317 48T193 116Q138 142 106 177T75 248Q75 296 106 329T201 390Q145 427 145 491Q145 571 220 624T402 678ZM290 348Q258 340 234 319T210 274Q210 260 218 248T244 224T351 173Q383 181 403 202T423 248Q423 263 413 275T384 302Q365 316 290 348Z"
				   horiz-adv-x="607" unicode="§"/>
			<glyph d="M428 675Q454 675 469 658T485 616Q485 587 465 567T417 548Q391 548 375 564T359 607Q359 636 379 655T428 675ZM230 675Q256 675 271 658T287 616Q287 587 267 567T218 548Q192 548 176 564T161 607Q161 636 181 655T230 675Z"
				   horiz-adv-x="490" unicode="¨"/>
			<glyph d="M390 677Q485 677 563 634T685 512T729 333Q729 231 685 153T563 32T390 -11Q295 -11 216 32T93 153T49 333Q49 435 94 513T218 634T390 677ZM390 632Q310 632 243 595T139 490T101 334Q101 245 139 177T244 71T390 34Q514 34 595 116T677 333Q677 422 639 490T536 595T390 632ZM404 560Q459 560 517 525V380Q500 437 470 463T407 489Q359 489 329 447T300 339Q300 270 331 226T411 183Q479 183 524 248V163Q506 139 470 122T397 105Q310 105 258 166T206 324Q206 424 261 492T404 560Z"
				   horiz-adv-x="742" unicode="©"/>
			<glyph d="M398 685L346 447Q339 421 339 400Q339 368 377 363L238 328L246 384Q223 357 192 342T132 328Q91 328 70 359T49 440Q49 534 113 605T261 677Q286 677 305 673T339 669Q369 669 398 685ZM255 624Q217 624 181 570Q146 516 146 451Q147 396 181 396Q196 396 213 410T242 445T267 520T281 595Q281 624 255 624Z"
				   horiz-adv-x="381" unicode="ª"/>
			<glyph d="M392 432H506L331 251L423 72H323L225 252ZM184 432H297L129 251L227 72H126L21 252Z" horiz-adv-x="478"
				   unicode="«"/>
			<glyph d="M113 411H663L605 139H515L554 322H94Z" horiz-adv-x="692" unicode="¬"/>
			<glyph d="M68 303H320L301 208H48Z" horiz-adv-x="340" unicode="­"/>
			<glyph d="M388 677Q483 677 561 634T683 512T727 333Q727 231 683 153T561 32T388 -11Q293 -11 214 32T91 153T47 333Q47 435 92 513T216 634T388 677ZM388 632Q264 632 181 548T98 334Q98 245 136 177T241 71T388 34Q512 34 593 116T675 333Q675 422 637 490T534 595T388 632ZM239 557H400Q460 557 497 521T535 427Q535 379 509 345T444 307Q466 293 481 257L517 171Q535 129 561 119H451L430 173Q387 288 360 288H347V195Q347 162 355 142T373 119H243Q269 134 269 195V479Q269 541 239 557ZM347 496V348H390Q419 348 437 368T455 423Q455 452 438 474T389 496Z"
				   horiz-adv-x="738" unicode="®"/>
			<glyph d="M176 634H502L489 573H164Z" horiz-adv-x="486" unicode="¯"/>
			<glyph d="M211 681Q276 681 315 641T355 543Q355 485 315 444Q276 404 211 404Q146 404 106 444T67 543Q67 602 106 641T211 681ZM211 619Q175 619 156 596T137 542Q137 512 156 488T211 465Q246 465 265 488T285 542Q285 573 266 596T211 619Z"
				   horiz-adv-x="346" unicode="°"/>
			<glyph d="M379 613H470L431 429H651L632 341H412L373 155H282L321 341H100L119 429H341ZM47 88H579L560 0H28Z"
				   horiz-adv-x="692" unicode="±"/>
			<glyph d="M265 685Q329 685 365 658T401 582Q401 545 365 497T229 368L211 352H290Q337 352 369 384L349 291H51Q241 467 263 491T297 538T309 577Q309 600 292 614T253 629Q226 629 210 614T195 580Q195 554 221 548L159 491Q111 514 111 566Q111 614 156 649T265 685Z"
				   horiz-adv-x="328" unicode="²"/>
			<glyph d="M278 686Q336 686 372 660T408 595Q408 553 375 522T302 485Q340 471 358 446T376 399Q376 349 327 316T208 284Q149 284 112 307T70 366L163 415Q163 381 181 364T227 347Q250 347 263 360T277 390Q277 416 249 438T165 465L190 517Q222 511 233 511Q266 511 289 531T312 584Q312 608 295 618T258 629Q242 629 227 621T212 599Q212 589 219 579L132 546Q122 564 122 583Q122 629 165 657T278 686Z"
				   horiz-adv-x="336" unicode="³"/>
			<glyph d="M352 666H518L277 506Z" horiz-adv-x="486" unicode="´"/>
			<glyph d="M117 468H248L183 167Q176 134 176 120Q176 72 218 72Q251 72 281 103T323 178L386 468H517L443 136Q439 112 439 98Q439 54 482 53L363 -19Q317 -1 310 61Q251 -15 204 -15Q169 -15 152 13L110 -181H-58Q-40 -177 -24 -152T1 -88Z"
				   horiz-adv-x="536" unicode="µ"/>
			<glyph d="M397 669H675Q647 605 626 510L487 -180H406L564 598H474L316 -180H235L300 139H285Q172 139 106 200T41 359Q41 441 87 513T214 627T397 669Z"
				   horiz-adv-x="714" unicode="¶"/>
			<glyph d="M135 316Q170 316 190 294T210 240Q210 203 184 177T120 151Q85 151 65 172T45 227Q45 265 70 290T135 316Z"
				   horiz-adv-x="252" unicode="·"/>
			<glyph d="M242 8H308L269 -37Q302 -42 317 -59T333 -100Q333 -135 299 -159T216 -183Q164 -183 130 -159Q146 -162 161 -162Q199 -162 223 -145T247 -109Q247 -73 178 -69Z"
				   horiz-adv-x="486" unicode="¸"/>
			<glyph d="M254 679H332L268 376Q263 357 263 339Q263 297 278 291H154L211 554L96 451L118 553Q220 646 254 679Z"
				   horiz-adv-x="274" unicode="¹"/>
			<glyph d="M259 681Q319 681 354 644T389 546Q389 462 330 395Q272 328 187 328Q129 328 94 364T59 463Q59 550 117 615T259 681ZM251 619Q214 619 183 562T153 453Q153 428 162 408T195 388Q233 388 263 444T293 554Q293 580 283 599T251 619Z"
				   horiz-adv-x="391" unicode="º"/>
			<glyph d="M268 432H369L474 252L312 72H199L367 253ZM73 432H173L271 252L104 72H-10L165 253Z" horiz-adv-x="478"
				   unicode="»"/>
			<glyph d="M599 388H715L664 139H711L698 82H651L643 28Q643 5 652 0H541L560 82H375L383 115ZM587 679H669L235 0H150ZM610 310L475 139H573ZM266 679H344L280 376Q275 357 275 339Q275 297 290 291H166L223 554L108 451L130 553Q232 646 266 679Z"
				   horiz-adv-x="767" unicode="¼"/>
			<glyph d="M616 393Q679 393 715 366T752 290Q752 223 642 130L561 61H641Q668 61 690 70T720 92L700 0H402Q574 158 602 188T644 240T658 282Q658 305 641 318T601 332Q577 332 561 319T546 287Q546 262 572 256L509 200Q462 222 462 276Q462 320 506 356T616 393ZM583 679H665L231 0H147ZM257 679H335L271 376Q266 353 266 339Q266 297 281 291H157L214 554L99 451L121 553Q223 646 257 679Z"
				   horiz-adv-x="808" unicode="½"/>
			<glyph d="M701 388H818L766 139H814L801 82H753L746 32Q746 5 755 0H644L663 82H477L485 115ZM286 686Q344 686 380 660T416 595Q416 554 384 522T309 485H311Q349 471 366 446T384 399Q384 349 335 316T216 284Q157 284 120 307T78 366L171 415Q171 381 189 364T235 347Q258 347 271 360T285 390Q285 416 257 438T173 465L198 517Q230 511 241 511Q274 511 297 532T320 584Q320 608 303 618T266 629Q250 629 235 621T220 599Q220 589 227 579L140 546Q130 564 130 583Q130 629 173 657T286 686ZM679 679H761L327 0H242ZM713 310L578 139H675Z"
				   horiz-adv-x="900" unicode="¾"/>
			<glyph d="M323 502Q352 502 369 484T387 438Q387 406 365 384T311 363Q282 363 265 381T248 427Q248 459 269 480T323 502ZM273 315Q303 315 329 296T355 243Q355 203 325 165T237 87Q172 44 145 15T118 -40Q118 -67 140 -80T193 -94Q237 -94 288 -67T373 4L341 -151Q306 -168 254 -178T152 -189Q65 -189 17 -155T-31 -63Q-31 36 105 126Q183 177 211 206T240 263Q240 286 215 295Q239 315 273 315Z"
				   horiz-adv-x="474" unicode="¿"/>
			<glyph d="M422 669H541L603 103Q607 62 619 34T651 0H426Q443 4 452 22T461 71Q461 86 458 110T453 156H210L180 104Q150 53 150 30Q150 6 172 0H-35Q-21 3 5 31T63 110ZM419 493L266 243H443ZM348 856H512L523 696Z"
				   horiz-adv-x="704" unicode="À"/>
			<glyph d="M422 669H541L603 103Q607 62 619 34T651 0H426Q443 4 452 22T461 71Q461 86 458 110T453 156H210L180 104Q150 53 150 30Q150 6 172 0H-35Q-21 3 5 31T63 110ZM419 493L266 243H443ZM525 856H691L450 696Z"
				   horiz-adv-x="704" unicode="Á"/>
			<glyph d="M422 669H541L603 103Q607 62 619 34T651 0H426Q443 4 452 22T461 71Q461 86 458 110T453 156H210L180 104Q150 53 150 30Q150 6 172 0H-35Q-21 3 5 31T63 110ZM419 493L266 243H443ZM517 890L636 697L492 770L322 697Z"
				   horiz-adv-x="704" unicode="Â"/>
			<glyph d="M422 669H541L603 103Q607 62 619 34T651 0H426Q443 4 452 22T461 71Q461 86 458 110T453 156H210L180 104Q150 53 150 30Q150 6 172 0H-35Q-21 3 5 31T63 110ZM419 493L266 243H443ZM634 866Q648 846 648 822Q648 781 618 750T547 720Q515 720 472 744T405 769Q360 770 349 703Q334 721 334 747Q334 787 361 816T431 846Q463 846 509 822T577 799Q603 799 616 816Q629 834 634 866Z"
				   horiz-adv-x="704" unicode="Ã"/>
			<glyph d="M422 669H541L603 103Q607 62 619 34T651 0H426Q443 4 452 22T461 71Q461 86 458 110T453 156H210L180 104Q150 53 150 30Q150 6 172 0H-35Q-21 3 5 31T63 110ZM419 493L266 243H443ZM603 851Q629 851 644 834T660 792Q660 763 640 743T592 724Q566 724 550 740T534 783Q534 812 554 831T603 851ZM405 851Q431 851 446 834T462 792Q462 763 442 743T393 724Q367 724 351 740T336 783Q336 812 356 831T405 851Z"
				   horiz-adv-x="704" unicode="Ä"/>
			<glyph d="M422 669H541L603 103Q607 62 619 34T651 0H426Q443 4 452 22T461 71Q461 86 458 110T453 156H210L180 104Q150 53 150 30Q150 6 172 0H-35Q-21 3 5 31T63 110ZM419 493L266 243H443ZM494 893Q534 893 563 867T593 796Q593 750 564 723T494 697Q454 697 425 723T396 796Q396 841 425 867T494 893ZM494 849Q472 849 457 834T442 796Q442 771 457 756T494 741Q515 741 530 755Q545 770 545 796Q545 821 530 835T494 849Z"
				   horiz-adv-x="704" unicode="Å"/>
			<glyph d="M412 666H908L873 492Q870 575 770 575H632L602 385H712Q748 385 772 395T803 421L770 258Q768 278 748 288T694 298H589L557 90H680Q742 90 776 109T837 186L797 0H342Q402 14 416 88L427 156H220L185 107Q149 56 149 30Q149 5 172 0H-49Q-9 13 62 112L402 578Q432 619 432 642Q432 661 412 666ZM489 537L280 243H441Z"
				   horiz-adv-x="912" unicode="Æ"/>
			<glyph d="M454 679Q505 679 543 667T600 642L564 473Q550 533 516 560T441 587Q381 587 325 538T236 410T203 250Q203 174 238 127T340 81Q382 81 427 101T510 170L484 51Q434 3 335 -11L312 -37Q378 -47 378 -96Q378 -131 342 -157T257 -183Q206 -183 174 -159Q185 -162 205 -162Q247 -162 269 -145T291 -108Q291 -73 222 -68L267 -14Q168 -7 107 64T47 245Q47 354 102 456T251 618T454 679Z"
				   horiz-adv-x="555" unicode="Ç"/>
			<glyph d="M140 666H591L557 497Q555 543 527 559T452 575H313L273 385H388Q456 383 479 419L446 260Q440 299 370 298H255L212 90H356Q416 90 446 104T509 172L473 0H-6Q48 13 64 83L169 569Q176 601 176 613Q175 657 140 666ZM274 856H438L449 696Z"
				   horiz-adv-x="559" unicode="È"/>
			<glyph d="M140 666H591L557 497Q555 543 527 559T452 575H313L273 385H388Q456 383 479 419L446 260Q440 299 370 298H255L212 90H356Q416 90 446 104T509 172L473 0H-6Q48 13 64 83L169 569Q176 601 176 613Q175 657 140 666ZM403 856H569L328 696Z"
				   horiz-adv-x="559" unicode="É"/>
			<glyph d="M140 666H591L557 497Q555 543 527 559T452 575H313L273 385H388Q456 383 479 419L446 260Q440 299 370 298H255L212 90H356Q416 90 446 104T509 172L473 0H-6Q48 13 64 83L169 569Q176 601 176 613Q175 657 140 666ZM427 890L546 697L402 770L232 697Z"
				   horiz-adv-x="559" unicode="Ê"/>
			<glyph d="M140 666H591L557 497Q555 543 527 559T452 575H313L273 385H388Q456 383 479 419L446 260Q440 299 370 298H255L212 90H356Q416 90 446 104T509 172L473 0H-6Q48 13 64 83L169 569Q176 601 176 613Q175 657 140 666ZM495 851Q521 851 536 834T552 792Q552 763 532 743T484 724Q458 724 442 740T426 783Q426 812 446 831T495 851ZM297 851Q323 851 338 834T354 792Q354 763 334 743T285 724Q259 724 243 740T228 783Q228 812 248 831T297 851Z"
				   horiz-adv-x="559" unicode="Ë"/>
			<glyph d="M134 666H372Q322 653 308 591L199 76Q195 56 195 49Q195 25 205 13T227 0H-8Q11 2 28 21T53 72L162 587Q166 607 166 614Q166 639 155 651T134 666ZM114 856H278L289 696Z"
				   horiz-adv-x="315" unicode="Ì"/>
			<glyph d="M134 666H372Q322 653 308 591L199 76Q195 56 195 49Q195 25 205 13T227 0H-8Q11 2 28 21T53 72L162 587Q166 607 166 614Q166 639 155 651T134 666ZM295 856H461L220 696Z"
				   horiz-adv-x="315" unicode="Í"/>
			<glyph d="M134 666H372Q322 653 308 591L199 76Q195 56 195 49Q195 25 205 13T227 0H-8Q11 2 28 21T53 72L162 587Q166 607 166 614Q166 639 155 651T134 666ZM297 890L416 697L272 770L102 697Z"
				   horiz-adv-x="315" unicode="Î"/>
			<glyph d="M134 666H372Q322 653 308 591L199 76Q195 56 195 49Q195 25 205 13T227 0H-8Q11 2 28 21T53 72L162 587Q166 607 166 614Q166 639 155 651T134 666ZM382 851Q408 851 423 834T439 792Q439 763 419 743T371 724Q345 724 329 740T313 783Q313 812 333 831T382 851ZM184 851Q210 851 225 834T241 792Q241 763 221 743T172 724Q146 724 130 740T115 783Q115 812 135 831T184 851Z"
				   horiz-adv-x="315" unicode="Ï"/>
			<glyph d="M126 666H392Q516 666 590 587T664 374Q664 274 617 187T484 50T288 0H-7Q36 11 52 90L95 293H22L37 367H110L156 584Q159 606 159 614Q159 655 126 666ZM299 579L254 367H374L359 293H239L196 87H287Q349 87 399 129T479 244T509 392Q509 480 471 529T367 579Z"
				   horiz-adv-x="668" unicode="Ð"/>
			<glyph d="M105 666H287L504 250L575 590Q578 607 578 613Q578 653 539 666H742Q696 650 686 594L557 -4H458L454 11Q434 80 407 134L245 442L165 60V50Q166 10 203 0H-7Q13 2 30 19T55 68Q164 564 164 577Q164 599 144 629T105 666ZM596 866Q610 846 610 822Q610 781 580 750T509 720Q477 720 434 744T367 769Q322 770 311 703Q296 721 296 747Q296 787 323 816T393 846Q425 846 471 822T539 799Q565 799 578 816Q591 834 596 866Z"
				   horiz-adv-x="683" unicode="Ñ"/>
			<glyph d="M435 682Q549 682 614 611T680 422Q680 312 626 208Q573 105 482 45T289 -15Q177 -15 111 55T46 246Q46 358 98 460T241 622T435 682ZM418 589Q362 589 312 538T232 401T202 232Q202 163 228 120T307 78Q364 78 414 128T494 262T525 433Q525 502 498 545T418 589ZM353 856H517L529 696Z"
				   horiz-adv-x="682" unicode="Ò"/>
			<glyph d="M435 682Q549 682 614 611T680 422Q680 312 626 208Q573 105 482 45T289 -15Q177 -15 111 55T46 246Q46 358 98 460T241 622T435 682ZM418 589Q362 589 312 538T232 401T202 232Q202 163 228 120T307 78Q364 78 414 128T494 262T525 433Q525 502 498 545T418 589ZM459 856H625L384 696Z"
				   horiz-adv-x="682" unicode="Ó"/>
			<glyph d="M435 682Q549 682 614 611T680 422Q680 312 626 208Q573 105 482 45T289 -15Q177 -15 111 55T46 246Q46 358 98 460T241 622T435 682ZM418 589Q362 589 312 538T232 401T202 232Q202 163 228 120T307 78Q364 78 414 128T494 262T525 433Q525 502 498 545T418 589ZM474 890L593 697L449 770L279 697Z"
				   horiz-adv-x="682" unicode="Ô"/>
			<glyph d="M435 682Q549 682 614 611T680 422Q680 312 626 208Q573 105 482 45T289 -15Q177 -15 111 55T46 246Q46 358 98 460T241 622T435 682ZM418 589Q362 589 312 538T232 401T202 232Q202 163 228 120T307 78Q364 78 414 128T494 262T525 433Q525 502 498 545T418 589ZM594 866Q608 848 608 821Q608 782 578 751T507 720Q476 720 433 744T365 769Q320 769 309 703Q294 722 294 749Q294 789 322 818T392 847Q425 847 471 823T538 799Q584 799 594 866Z"
				   horiz-adv-x="682" unicode="Õ"/>
			<glyph d="M435 682Q549 682 614 611T680 422Q680 312 626 208Q573 105 482 45T289 -15Q177 -15 111 55T46 246Q46 358 98 460T241 622T435 682ZM418 589Q362 589 312 538T232 401T202 232Q202 163 228 120T307 78Q364 78 414 128T494 262T525 433Q525 502 498 545T418 589ZM557 850Q583 850 598 833T613 791Q613 762 593 742T545 723Q519 723 503 739T487 782Q487 811 507 830T557 850ZM359 850Q385 850 400 833T415 791Q415 762 395 742T347 723Q321 723 305 739T289 782Q289 811 309 830T359 850Z"
				   horiz-adv-x="682" unicode="Ö"/>
			<glyph d="M200 565L373 346L638 565L688 501L423 282L594 64L518 1L347 220L81 0L32 64L297 283L125 503Z"
				   horiz-adv-x="692" unicode="×"/>
			<glyph d="M640 697L704 676L626 589Q676 518 676 422Q676 312 622 208T479 45T285 -15Q195 -15 136 33L72 -38L6 -20L92 77Q42 144 42 246Q42 358 94 460T237 622T431 682Q523 682 582 632ZM415 592Q333 592 267 485T197 247Q197 221 201 201L500 540Q472 592 415 592ZM517 465L218 125Q245 75 301 75Q385 75 451 179T522 418Q522 445 517 465Z"
				   horiz-adv-x="678" unicode="Ø"/>
			<glyph d="M124 666H363Q313 653 302 603L224 243Q216 207 216 177Q216 120 240 101T313 82Q368 82 408 116T462 216Q503 411 542 600Q543 615 543 620Q543 655 511 666H718Q673 655 661 600L583 230Q555 98 487 41T282 -15Q72 -15 72 163Q72 211 83 262Q135 498 152 579Q160 613 160 622Q160 654 124 666ZM328 856H492L504 696Z"
				   horiz-adv-x="661" unicode="Ù"/>
			<glyph d="M124 666H363Q313 653 302 603L224 243Q216 207 216 177Q216 120 240 101T313 82Q368 82 408 116T462 216Q503 411 542 600Q543 615 543 620Q543 655 511 666H718Q673 655 661 600L583 230Q555 98 487 41T282 -15Q72 -15 72 163Q72 211 83 262Q135 498 152 579Q160 613 160 622Q160 654 124 666ZM459 856H625L384 696Z"
				   horiz-adv-x="661" unicode="Ú"/>
			<glyph d="M124 666H363Q313 653 302 603L224 243Q216 207 216 177Q216 120 240 101T313 82Q368 82 408 116T462 216Q503 411 542 600Q543 615 543 620Q543 655 511 666H718Q673 655 661 600L583 230Q555 98 487 41T282 -15Q72 -15 72 163Q72 211 83 262Q135 498 152 579Q160 613 160 622Q160 654 124 666ZM480 890L599 697L455 770L285 697Z"
				   horiz-adv-x="661" unicode="Û"/>
			<glyph d="M124 666H363Q313 653 302 603L224 243Q216 207 216 177Q216 120 240 101T313 82Q368 82 408 116T462 216Q503 411 542 600Q543 615 543 620Q543 655 511 666H718Q673 655 661 600L583 230Q555 98 487 41T282 -15Q72 -15 72 163Q72 211 83 262Q135 498 152 579Q160 613 160 622Q160 654 124 666ZM546 850Q572 850 587 833T602 791Q602 762 582 742T534 723Q508 723 492 739T476 782Q476 811 496 830T546 850ZM348 850Q374 850 389 833T404 791Q404 762 384 742T336 723Q310 723 294 739T278 782Q278 811 298 830T348 850Z"
				   horiz-adv-x="661" unicode="Ü"/>
			<glyph d="M85 666H303Q283 658 283 627Q283 613 289 594L346 386L496 591Q522 628 522 645Q522 656 516 660T506 666H701Q662 654 618 593L375 265L334 76Q330 56 330 49Q330 10 363 0H128Q148 3 166 23T190 72L231 265L143 593Q127 652 85 666ZM458 856H624L383 696Z"
				   horiz-adv-x="602" unicode="Ý"/>
			<glyph d="M133 666H372Q349 661 332 640T308 591L298 544H367Q465 544 522 495T579 367Q579 305 544 250T448 164T311 133Q262 133 213 146L203 98Q195 68 195 49Q195 6 225 0H-8Q10 2 28 21T54 76L162 587Q166 607 166 614Q166 639 155 651T133 666ZM281 462L231 229Q260 221 293 221Q358 221 398 262T438 365Q438 407 413 434T349 462Z"
				   horiz-adv-x="590" unicode="Þ"/>
			<glyph d="M434 698Q520 698 569 663T618 573Q618 490 525 435Q473 404 452 386T431 351Q431 333 450 314T514 266Q597 208 597 142Q597 72 532 27T380 -17Q317 -17 279 6T241 65Q241 92 258 115T304 152L302 137Q302 106 325 87T388 69Q425 69 448 85T472 122Q472 143 452 164T392 211Q312 264 312 327Q312 402 397 454Q443 484 462 505T482 554Q482 586 458 602T405 619Q360 619 323 584T272 481L177 15Q156 -91 105 -137T-15 -184Q-84 -184 -117 -127Q-101 -129 -87 -129Q17 -129 45 15L139 472Q162 579 241 638T434 698Z"
				   horiz-adv-x="637" unicode="ß"/>
			<glyph d="M513 486L440 151Q430 111 430 85Q430 39 482 34L288 -15L300 64Q268 25 224 5T141 -15Q86 -15 55 28T24 141Q24 226 65 304T175 429T321 475Q352 475 385 469T431 463Q469 463 513 486ZM313 401Q256 401 208 322T160 155Q160 79 209 79Q230 79 254 100Q279 121 296 152T331 258T350 359Q350 401 313 401ZM230 666H394L405 506Z"
				   unicode="à"/>
			<glyph d="M513 486L440 151Q430 111 430 85Q430 39 482 34L288 -15L300 64Q268 25 224 5T141 -15Q86 -15 55 28T24 141Q24 226 65 304T175 429T321 475Q352 475 385 469T431 463Q469 463 513 486ZM313 401Q256 401 208 322T160 155Q160 79 209 79Q230 79 254 100Q279 121 296 152T331 258T350 359Q350 401 313 401ZM348 666H514L273 506Z"
				   unicode="á"/>
			<glyph d="M513 486L440 151Q430 111 430 85Q430 39 482 34L288 -15L300 64Q268 25 224 5T141 -15Q86 -15 55 28T24 141Q24 226 65 304T175 429T321 475Q352 475 385 469T431 463Q469 463 513 486ZM313 401Q256 401 208 322T160 155Q160 79 209 79Q230 79 254 100Q279 121 296 152T331 258T350 359Q350 401 313 401ZM367 697L471 506L342 579L186 506Z"
				   unicode="â"/>
			<glyph d="M513 486L440 151Q430 111 430 85Q430 39 482 34L288 -15L300 64Q268 25 224 5T141 -15Q86 -15 55 28T24 141Q24 226 65 304T175 429T321 475Q352 475 385 469T431 463Q469 463 513 486ZM313 401Q256 401 208 322T160 155Q160 79 209 79Q230 79 254 100Q279 121 296 152T331 258T350 359Q350 401 313 401ZM479 694Q493 674 493 650Q493 609 463 578T392 548Q360 548 317 572T250 597Q205 598 194 531Q179 549 179 575Q179 615 206 644T276 674Q308 674 354 650T422 627Q448 627 461 644Q474 662 479 694Z"
				   unicode="ã"/>
			<glyph d="M513 486L440 151Q430 111 430 85Q430 39 482 34L288 -15L300 64Q268 25 224 5T141 -15Q86 -15 55 28T24 141Q24 226 65 304T175 429T321 475Q352 475 385 469T431 463Q469 463 513 486ZM313 401Q256 401 208 322T160 155Q160 79 209 79Q230 79 254 100Q279 121 296 152T331 258T350 359Q350 401 313 401ZM446 676Q472 676 487 659T503 617Q503 588 483 568T435 549Q409 549 393 565T377 608Q377 637 397 656T446 676ZM248 676Q274 676 289 659T305 617Q305 588 285 568T236 549Q210 549 194 565T179 608Q179 637 199 656T248 676Z"
				   unicode="ä"/>
			<glyph d="M513 486L440 151Q430 111 430 85Q430 39 482 34L288 -15L300 64Q268 25 224 5T141 -15Q86 -15 55 28T24 141Q24 226 65 304T175 429T321 475Q352 475 385 469T431 463Q469 463 513 486ZM313 401Q256 401 208 322T160 155Q160 79 209 79Q230 79 254 100Q279 121 296 152T331 258T350 359Q350 401 313 401ZM327 706Q367 706 396 680T426 609Q426 563 397 536T327 510Q287 510 258 536T229 609Q229 654 258 680T327 706ZM327 662Q305 662 290 647T275 609Q275 584 290 569T327 554Q348 554 363 568Q378 583 378 609Q378 634 363 648T327 662Z"
				   unicode="å"/>
			<glyph d="M279 486Q334 486 369 467T414 419Q494 481 587 483Q644 483 679 453T714 372Q714 297 644 256T407 203Q405 194 405 185Q405 134 432 104T506 74Q545 74 588 92T664 140Q643 71 582 27T448 -16Q353 -16 310 54Q249 -15 126 -15Q71 -15 34 14T-3 94Q-3 238 296 261Q313 335 313 351Q312 410 253 410Q220 410 197 393T175 355Q175 336 189 328L52 295Q49 312 49 322Q49 392 118 439T279 486ZM556 406Q511 406 471 367T415 269Q519 276 559 297Q600 318 600 360Q600 381 588 393T556 406ZM283 195Q198 188 158 169T118 114Q118 94 134 79T176 65Q205 65 234 83T272 140Z"
				   horiz-adv-x="704" unicode="æ"/>
			<glyph d="M328 484Q376 484 404 462T432 403Q432 360 398 321T321 279Q332 292 332 325Q332 358 318 377T283 397Q235 397 197 336T159 196Q159 141 184 106T259 72Q291 72 329 90T398 140Q377 77 323 34T207 -15L188 -37Q253 -46 253 -96Q253 -131 217 -157T132 -183Q81 -183 49 -159Q68 -162 80 -162Q122 -162 144 -145T166 -109Q166 -93 150 -81T97 -68L144 -12Q84 0 53 43T23 155Q23 241 64 318T177 439T328 484Z"
				   horiz-adv-x="429" unicode="ç"/>
			<glyph d="M333 484Q389 484 423 455T458 377Q458 299 372 240T154 174L157 159Q163 121 186 97T252 74Q291 74 334 92T410 140Q390 73 329 28T193 -16Q115 -16 69 31T24 160Q24 242 67 318T181 439T333 484ZM301 406Q259 406 213 358T154 243Q232 249 288 281Q345 314 345 362Q345 382 333 394T301 406ZM202 666H366L377 506Z"
				   horiz-adv-x="456" unicode="è"/>
			<glyph d="M333 484Q389 484 423 455T458 377Q458 299 372 240T154 174L157 159Q163 121 186 97T252 74Q291 74 334 92T410 140Q390 73 329 28T193 -16Q115 -16 69 31T24 160Q24 242 67 318T181 439T333 484ZM301 406Q259 406 213 358T154 243Q232 249 288 281Q345 314 345 362Q345 382 333 394T301 406ZM308 666H474L233 506Z"
				   horiz-adv-x="456" unicode="é"/>
			<glyph d="M333 484Q389 484 423 455T458 377Q458 299 372 240T154 174L157 159Q163 121 186 97T252 74Q291 74 334 92T410 140Q390 73 329 28T193 -16Q115 -16 69 31T24 160Q24 242 67 318T181 439T333 484ZM301 406Q259 406 213 358T154 243Q232 249 288 281Q345 314 345 362Q345 382 333 394T301 406ZM346 697L450 506L321 579L165 506Z"
				   horiz-adv-x="456" unicode="ê"/>
			<glyph d="M333 484Q389 484 423 455T458 377Q458 299 372 240T154 174L157 159Q163 121 186 97T252 74Q291 74 334 92T410 140Q390 73 329 28T193 -16Q115 -16 69 31T24 160Q24 242 67 318T181 439T333 484ZM301 406Q259 406 213 358T154 243Q232 249 288 281Q345 314 345 362Q345 382 333 394T301 406ZM422 676Q448 676 463 659T479 617Q479 588 459 568T411 549Q385 549 369 565T353 608Q353 637 373 656T422 676ZM224 676Q250 676 265 659T281 617Q281 588 261 568T212 549Q186 549 170 565T155 608Q155 637 175 656T224 676Z"
				   horiz-adv-x="456" unicode="ë"/>
			<glyph d="M254 486L173 109Q166 74 166 62Q166 5 190 0H17L97 365Q101 380 101 391Q101 407 82 420T47 435ZM100 666H264L275 506Z"
				   horiz-adv-x="266" unicode="ì"/>
			<glyph d="M254 486L173 109Q166 74 166 62Q166 5 190 0H17L97 365Q101 380 101 391Q101 407 82 420T47 435ZM185 666H351L110 506Z"
				   horiz-adv-x="266" unicode="í"/>
			<glyph d="M254 486L173 109Q166 74 166 62Q166 5 190 0H17L97 365Q101 380 101 391Q101 407 82 420T47 435ZM229 697L333 506L204 579L48 506Z"
				   horiz-adv-x="266" unicode="î"/>
			<glyph d="M254 486L173 109Q166 74 166 62Q166 5 190 0H17L100 377Q101 384 101 391Q101 407 82 420T47 435ZM310 676Q336 676 351 659T367 617Q367 588 347 568T299 549Q273 549 257 565T241 608Q241 637 261 656T310 676ZM120 676Q146 676 161 659T177 617Q177 588 157 568T108 549Q82 549 66 565T51 608Q51 637 71 656T120 676Z"
				   horiz-adv-x="266" unicode="ï"/>
			<glyph d="M522 697V643L423 606Q495 511 495 366Q495 264 458 176T356 38T204 -13Q121 -13 73 38T25 177Q25 254 61 325T158 440T283 483Q344 483 381 428Q352 506 299 561L159 509V561L254 597Q218 623 178 637L326 694Q360 672 387 645ZM293 397Q258 397 227 360T176 266T156 162Q156 124 171 98T216 72Q251 72 282 108T333 200T352 305Q352 348 336 372T293 397Z"
				   horiz-adv-x="518" unicode="ð"/>
			<glyph d="M242 486L228 413Q306 485 392 485Q494 485 494 394Q494 368 486 330L440 109Q436 89 436 64Q436 8 460 0H286L353 306Q359 336 359 346Q359 398 316 398Q287 398 254 368T211 290L148 0H18L95 352Q102 383 102 390Q101 429 48 435ZM477 694Q491 674 491 650Q491 609 461 578T390 548Q358 548 315 572T248 597Q203 598 192 531Q177 549 177 575Q177 615 204 644T274 674Q306 674 352 650T420 627Q446 627 459 644Q472 662 477 694Z"
				   horiz-adv-x="524" unicode="ñ"/>
			<glyph d="M301 483Q387 483 435 430T484 291Q484 214 447 143Q411 73 347 30T205 -13Q120 -13 72 40T24 179Q24 257 62 329T164 442T301 483ZM290 398Q236 398 196 319T156 165Q156 122 172 96T217 71Q253 71 283 107T331 200T350 302Q350 346 334 372T290 398ZM213 666H377L388 506Z"
				   horiz-adv-x="508" unicode="ò"/>
			<glyph d="M301 483Q387 483 435 430T484 291Q484 214 447 143Q411 73 347 30T205 -13Q120 -13 72 40T24 179Q24 257 62 329T164 442T301 483ZM290 398Q236 398 196 319T156 165Q156 122 172 96T217 71Q253 71 283 107T331 200T350 302Q350 346 334 372T290 398ZM343 666H509L268 506Z"
				   horiz-adv-x="508" unicode="ó"/>
			<glyph d="M301 483Q387 483 435 430T484 291Q484 214 447 143Q411 73 347 30T205 -13Q120 -13 72 40T24 179Q24 257 62 329T164 442T301 483ZM290 398Q236 398 196 319T156 165Q156 122 172 96T217 71Q253 71 283 107T331 200T350 302Q350 346 334 372T290 398ZM345 697L449 506L320 579L164 506Z"
				   horiz-adv-x="508" unicode="ô"/>
			<glyph d="M301 483Q387 483 435 430T484 291Q484 214 447 143Q411 73 347 30T205 -13Q120 -13 72 40T24 179Q24 257 62 329T164 442T301 483ZM290 398Q236 398 196 319T156 165Q156 122 172 96T217 71Q253 71 283 107T331 200T350 302Q350 346 334 372T290 398ZM476 694Q490 674 490 650Q490 609 460 578T389 548Q357 548 314 572T247 597Q202 598 191 531Q176 549 176 575Q176 615 203 644T273 674Q305 674 351 650T419 627Q445 627 458 644Q471 662 476 694Z"
				   horiz-adv-x="508" unicode="õ"/>
			<glyph d="M301 483Q387 483 435 430T484 291Q484 214 447 143Q411 73 347 30T205 -13Q120 -13 72 40T24 179Q24 257 62 329T164 442T301 483ZM290 398Q236 398 196 319T156 165Q156 122 172 96T217 71Q253 71 283 107T331 200T350 302Q350 346 334 372T290 398ZM424 675Q450 675 465 658T481 616Q481 587 461 567T413 548Q387 548 371 564T355 607Q355 636 375 655T424 675ZM226 675Q252 675 267 658T283 616Q283 587 263 567T214 548Q188 548 172 564T157 607Q157 636 177 655T226 675Z"
				   horiz-adv-x="508" unicode="ö"/>
			<glyph d="M93 330H643L624 243H74ZM325 162Q352 162 367 144T383 101Q383 72 363 52T313 32Q285 32 269 49T253 92Q253 121 273 141T325 162ZM406 544Q434 544 449 526T465 483Q465 454 445 434T394 414Q366 414 350 430T335 473Q335 503 355 523T406 544Z"
				   horiz-adv-x="690" unicode="÷"/>
			<glyph d="M451 523L506 506L438 424Q482 372 482 294Q482 217 445 145T343 30T200 -13Q143 -13 103 13L60 -38L4 -24L63 47Q21 97 21 177Q21 299 103 391T301 483Q354 483 397 457ZM289 397Q257 397 227 367T176 282T154 175V162L331 376Q316 397 289 397ZM345 308L168 94Q184 72 212 72Q247 72 278 106T328 194T346 292Q346 296 345 308Z"
				   horiz-adv-x="500" unicode="ø"/>
			<glyph d="M253 486L181 156Q177 140 177 120Q177 73 218 73Q251 73 282 105T323 181L359 338Q367 376 367 393Q367 415 354 423T319 435L521 486L438 109Q436 100 434 91T433 74Q433 39 483 35L292 -15L307 58Q278 26 233 6T143 -14Q41 -14 41 76Q41 99 48 132L90 338Q96 371 96 389Q97 432 50 435ZM214 666H378L389 506Z"
				   horiz-adv-x="537" unicode="ù"/>
			<glyph d="M253 486L181 156Q177 140 177 120Q177 73 218 73Q251 73 282 105T323 181L359 338Q367 376 367 393Q367 415 354 423T319 435L521 486L438 109Q436 100 434 91T433 74Q433 39 483 35L292 -15L307 58Q278 26 233 6T143 -14Q41 -14 41 76Q41 99 48 132L90 338Q96 371 96 389Q97 432 50 435ZM348 666H514L273 506Z"
				   horiz-adv-x="537" unicode="ú"/>
			<glyph d="M253 486L181 156Q177 140 177 120Q177 73 218 73Q251 73 282 105T323 181L359 338Q367 376 367 393Q367 415 354 423T319 435L521 486L438 109Q436 100 434 91T433 74Q433 39 483 35L292 -15L307 58Q278 26 233 6T143 -14Q41 -14 41 76Q41 99 48 132L90 338Q96 371 96 389Q97 432 50 435ZM363 697L467 506L338 579L182 506Z"
				   horiz-adv-x="537" unicode="û"/>
			<glyph d="M253 486L181 156Q177 140 177 120Q177 73 218 73Q251 73 282 105T323 181L359 338Q367 376 367 393Q367 415 354 423T319 435L521 486L438 109Q436 100 434 91T433 74Q433 39 483 35L292 -15L307 58Q278 26 233 6T143 -14Q41 -14 41 76Q41 99 48 132L90 338Q96 371 96 389Q97 432 50 435ZM444 675Q470 675 485 658T501 616Q501 587 481 567T433 548Q407 548 391 564T375 607Q375 636 395 655T444 675ZM246 675Q272 675 287 658T303 616Q303 587 283 567T234 548Q208 548 192 564T177 607Q177 636 197 655T246 675Z"
				   horiz-adv-x="537" unicode="ü"/>
			<glyph d="M200 484L271 127Q315 193 352 271T389 401Q389 455 345 466H526Q485 329 384 163T186 -95T20 -189Q-22 -189 -42 -169T-62 -119Q-62 -100 -53 -75Q-30 -95 6 -95Q42 -95 87 -67T167 0L86 377Q80 405 64 419T11 436ZM346 666H512L271 506Z"
				   horiz-adv-x="510" unicode="ý"/>
			<glyph d="M299 696L236 417Q265 447 305 466T384 486Q441 486 473 440T506 322Q506 240 468 160T365 34T218 -12Q173 -12 152 14L108 -184H-22L144 587Q146 595 146 603Q146 638 95 645ZM317 387Q295 387 270 367T225 318T191 220T177 126Q177 70 224 70Q280 70 323 148T366 307Q365 387 317 387Z"
				   unicode="þ"/>
			<glyph d="M200 484L271 127Q315 193 352 271T389 401Q389 455 345 466H526Q485 329 384 163T186 -95T20 -189Q-22 -189 -42 -169T-62 -119Q-62 -100 -53 -75Q-30 -95 6 -95Q42 -95 87 -67T167 0L86 377Q80 405 64 419T11 436ZM414 675Q440 675 455 658T471 616Q471 587 451 567T403 548Q377 548 361 564T345 607Q345 636 365 655T414 675ZM216 675Q242 675 257 658T273 616Q273 587 253 567T204 548Q178 548 162 564T147 607Q147 636 167 655T216 675Z"
				   horiz-adv-x="510" unicode="ÿ"/>
			<glyph d="M422 669H541L603 103Q607 62 619 34T651 0H426Q443 4 452 22T461 71Q461 86 458 110T453 156H210L180 104Q150 53 150 30Q150 6 172 0H-35Q-21 3 5 31T63 110ZM419 493L266 243H443ZM341 817H667L654 756H329Z"
				   horiz-adv-x="704" unicode="Ā"/>
			<glyph d="M513 486L440 151Q430 111 430 85Q430 39 482 34L288 -15L300 64Q268 25 224 5T141 -15Q86 -15 55 28T24 141Q24 226 65 304T175 429T321 475Q352 475 385 469T431 463Q469 463 513 486ZM313 401Q256 401 208 322T160 155Q160 79 209 79Q230 79 254 100Q279 121 296 152T331 258T350 359Q350 401 313 401ZM186 634H512L499 573H174Z"
				   unicode="ā"/>
			<glyph d="M422 669H541L603 103Q607 62 619 34T651 0H426Q443 4 452 22T461 71Q461 86 458 110T453 156H210L180 104Q150 53 150 30Q150 6 172 0H-35Q-21 3 5 31T63 110ZM419 493L266 243H443ZM395 883Q407 845 436 827T501 809Q537 809 573 827Q610 846 640 883Q624 810 579 767T483 724Q445 724 417 751T389 830Q389 854 395 883Z"
				   horiz-adv-x="704" unicode="Ă"/>
			<glyph d="M513 486L440 151Q430 111 430 85Q430 39 482 34L288 -15L300 64Q268 25 224 5T141 -15Q86 -15 55 28T24 141Q24 226 65 304T175 429T321 475Q352 475 385 469T431 463Q469 463 513 486ZM313 401Q256 401 208 322T160 155Q160 79 209 79Q230 79 254 100Q279 121 296 152T331 258T350 359Q350 401 313 401ZM237 696Q249 658 278 640T343 622Q421 622 482 696Q466 623 421 580T325 537Q284 537 258 566T232 651Q232 662 233 673T237 696Z"
				   unicode="ă"/>
			<glyph d="M421 669H540L602 103Q606 63 618 35T650 0Q598 -6 563 -30T528 -85Q528 -124 573 -124Q598 -124 636 -106Q617 -145 583 -164T519 -184Q488 -184 466 -167T444 -121Q444 -52 525 0H426Q460 9 460 71Q460 84 459 92L452 156H209L179 104Q149 53 149 30Q149 4 170 0H-35Q-23 2 3 31T62 110ZM418 493L265 243H442Z"
				   horiz-adv-x="704" unicode="Ą"/>
			<glyph d="M513 486L444 170Q430 109 430 85Q430 40 482 33Q399 8 358 -22T317 -84Q317 -123 363 -123Q391 -123 425 -106Q406 -144 372 -163T308 -183Q276 -183 254 -166T233 -117Q233 -63 294 -13L300 64Q268 25 224 5T141 -15Q84 -15 54 28T24 140Q24 277 115 375T333 474Q361 474 387 468T424 463Q474 463 513 486ZM312 401Q256 401 208 322T160 155Q160 79 209 79Q228 79 248 95Q268 112 286 141T327 247T350 359Q350 401 312 401Z"
				   unicode="ą"/>
			<glyph d="M454 679Q505 679 543 667T600 642L564 473Q548 534 515 560T441 587Q381 587 325 538T236 410T203 250Q203 173 238 127T340 81Q382 81 427 101T510 170L484 51Q450 18 396 1T286 -16Q178 -16 112 57T47 245Q47 354 102 456T251 618T454 679ZM413 856H579L338 696Z"
				   horiz-adv-x="555" unicode="Ć"/>
			<glyph d="M331 484Q378 484 405 462T433 405Q433 362 399 323Q365 285 321 279Q332 294 332 325Q332 352 320 374T282 397Q234 397 196 334T159 193Q159 137 184 105T259 73Q293 73 329 90T396 140Q374 71 314 27T183 -16Q108 -16 66 29T24 151Q24 239 65 317T178 439T331 484ZM306 666H472L231 506Z"
				   horiz-adv-x="429" unicode="ć"/>
			<glyph d="M454 679Q505 679 543 667T600 642L564 473Q548 534 515 560T441 587Q381 587 325 538T236 410T203 250Q203 173 238 127T340 81Q382 81 427 101T510 170L484 51Q450 18 396 1T286 -16Q178 -16 112 57T47 245Q47 354 102 456T251 618T454 679ZM470 890L589 697L445 770L275 697Z"
				   horiz-adv-x="555" unicode="Ĉ"/>
			<glyph d="M331 484Q378 484 405 462T433 405Q433 362 399 323Q365 285 321 279Q332 294 332 325Q332 352 320 374T282 397Q234 397 196 334T159 193Q159 137 184 105T259 73Q293 73 329 90T396 140Q374 71 314 27T183 -16Q108 -16 66 29T24 151Q24 239 65 317T178 439T331 484ZM325 697L429 506L300 579L144 506Z"
				   horiz-adv-x="429" unicode="ĉ"/>
			<glyph d="M454 679Q505 679 543 667T600 642L564 473Q548 534 515 560T441 587Q381 587 325 538T236 410T203 250Q203 173 238 127T340 81Q382 81 427 101T510 170L484 51Q450 18 396 1T286 -16Q178 -16 112 57T47 245Q47 354 102 456T251 618T454 679ZM471 864Q502 864 520 844T538 795Q538 760 515 737T457 714Q427 714 408 733T389 783Q389 816 413 840T471 864Z"
				   horiz-adv-x="555" unicode="Ċ"/>
			<glyph d="M331 484Q378 484 405 462T433 405Q433 362 399 323Q365 285 321 279Q332 294 332 325Q332 352 320 374T282 397Q234 397 196 334T159 193Q159 137 184 105T259 73Q293 73 329 90T396 140Q374 71 314 27T183 -16Q108 -16 66 29T24 151Q24 239 65 317T178 439T331 484ZM324 684Q355 684 373 664T391 615Q391 580 368 557T310 534Q280 534 261 553T242 603Q242 636 266 660T324 684Z"
				   horiz-adv-x="429" unicode="ċ"/>
			<glyph d="M454 679Q505 679 543 667T600 642L564 473Q548 534 515 560T441 587Q381 587 325 538T236 410T203 250Q203 173 238 127T340 81Q382 81 427 101T510 170L484 51Q450 18 396 1T286 -16Q178 -16 112 57T47 245Q47 354 102 456T251 618T454 679ZM302 893L446 820L616 893L421 700Z"
				   horiz-adv-x="555" unicode="Č"/>
			<glyph d="M331 484Q378 484 405 462T433 405Q433 362 399 323Q365 285 321 279Q332 294 332 325Q332 352 320 374T282 397Q234 397 196 334T159 193Q159 137 184 105T259 73Q293 73 329 90T396 140Q374 71 314 27T183 -16Q108 -16 66 29T24 151Q24 239 65 317T178 439T331 484ZM184 700L313 626L469 700L288 509Z"
				   horiz-adv-x="429" unicode="č"/>
			<glyph d="M126 666H392Q516 666 590 587T664 374Q664 274 617 187T485 50T288 0H-7Q36 12 52 90L156 584Q159 606 159 614Q159 655 126 666ZM299 579L196 87H287Q385 87 447 171T509 384Q509 475 473 527T367 579ZM271 893L415 820L585 893L390 700Z"
				   horiz-adv-x="668" unicode="Ď"/>
			<glyph d="M561 696L435 119Q430 89 430 79Q430 57 444 46T487 33L288 -15L305 62Q238 -14 152 -14Q93 -14 59 28T25 143Q25 223 62 303T161 434T292 485Q351 485 375 449L407 590Q408 595 408 601Q408 637 349 645ZM295 398Q245 398 203 319T162 159Q162 76 209 76Q261 76 310 161Q320 181 334 239T348 330Q348 398 295 398ZM630 682H756L569 491Z"
				   horiz-adv-x="552" unicode="ď"/>
			<glyph d="M126 666H392Q516 666 590 587T664 374Q664 274 617 187T484 50T288 0H-7Q36 11 52 90L95 293H22L37 367H110L156 584Q159 606 159 614Q159 655 126 666ZM299 579L254 367H374L359 293H239L196 87H287Q349 87 399 129T479 244T509 392Q509 480 471 529T367 579Z"
				   horiz-adv-x="668" unicode="Đ"/>
			<glyph d="M561 696L539 595H592L580 536H526L435 119Q430 97 430 79Q430 56 449 44T487 33L287 -15L305 62Q237 -14 154 -14Q97 -14 60 26T24 143Q24 225 62 305T162 435T289 484Q351 484 375 449L395 536H245L258 595H407Q407 620 392 629T349 645ZM295 398Q246 398 203 317T161 159Q161 76 209 76Q239 76 268 105T312 170T337 255T348 330Q348 398 295 398Z"
				   horiz-adv-x="528" unicode="đ"/>
			<glyph d="M140 666H591L557 497Q555 543 527 559T452 575H313L273 385H388Q456 383 479 419L446 260Q440 299 370 298H255L212 90H356Q416 90 446 104T509 172L473 0H-6Q48 13 64 83L169 569Q176 601 176 613Q175 657 140 666ZM234 817H560L547 756H222Z"
				   horiz-adv-x="559" unicode="Ē"/>
			<glyph d="M333 484Q389 484 423 455T458 377Q458 299 372 240T154 174L157 159Q163 121 186 97T252 74Q291 74 334 92T410 140Q390 73 329 28T193 -16Q115 -16 69 31T24 160Q24 242 67 318T181 439T333 484ZM301 406Q259 406 213 358T154 243Q232 249 288 281Q345 314 345 362Q345 382 333 394T301 406ZM157 634H483L470 573H145Z"
				   horiz-adv-x="456" unicode="ē"/>
			<glyph d="M140 666H591L557 497Q555 543 527 559T452 575H313L273 385H388Q456 383 479 419L446 260Q440 299 370 298H255L212 90H356Q416 90 446 104T509 172L473 0H-6Q48 13 64 83L169 569Q176 601 176 613Q175 657 140 666ZM297 883Q309 845 338 827T403 809Q481 809 542 883Q526 810 481 767T385 724Q344 724 318 753T292 838Q292 849 293 860T297 883Z"
				   horiz-adv-x="559" unicode="Ĕ"/>
			<glyph d="M333 484Q389 484 423 455T458 377Q458 299 372 240T154 174L157 159Q163 121 186 97T252 74Q291 74 334 92T410 140Q390 73 329 28T193 -16Q115 -16 69 31T24 160Q24 242 67 318T181 439T333 484ZM301 406Q259 406 213 358T154 243Q232 249 288 281Q345 314 345 362Q345 382 333 394T301 406ZM219 696Q231 658 260 640T325 622Q403 622 464 696Q448 623 403 580T307 537Q266 537 240 566T214 651Q214 662 215 673T219 696Z"
				   horiz-adv-x="456" unicode="ĕ"/>
			<glyph d="M140 666H591L557 497Q555 543 527 559T452 575H313L273 385H388Q456 383 479 419L446 260Q440 299 370 298H255L212 90H356Q416 90 446 104T509 172L473 0H-6Q48 13 64 83L169 569Q176 601 176 613Q175 657 140 666ZM403 864Q434 864 452 844T470 795Q470 760 447 737T389 714Q359 714 340 733T321 783Q321 816 345 840T403 864Z"
				   horiz-adv-x="559" unicode="Ė"/>
			<glyph d="M333 484Q389 484 423 455T458 377Q458 299 372 240T154 174L157 159Q163 121 186 97T252 74Q291 74 334 92T410 140Q390 73 329 28T193 -16Q115 -16 69 31T24 160Q24 242 67 318T181 439T333 484ZM301 406Q259 406 213 358T154 243Q232 249 288 281Q345 314 345 362Q345 382 333 394T301 406ZM327 684Q358 684 376 664T394 615Q394 580 371 557T313 534Q283 534 264 553T245 603Q245 636 269 660T327 684Z"
				   horiz-adv-x="456" unicode="ė"/>
			<glyph d="M140 666H591L557 497Q555 543 526 559T457 575H313L273 385H388Q457 384 479 419L446 260Q443 298 370 298H255L212 90H356Q420 90 453 109T512 182L473 0Q427 -3 391 -29T355 -85Q355 -123 400 -124Q429 -124 463 -107Q444 -145 410 -164T346 -184Q314 -184 292 -166T271 -118Q271 -84 294 -52T354 0H-6Q47 11 64 83L172 587Q176 607 176 613Q174 657 140 666Z"
				   horiz-adv-x="559" unicode="Ę"/>
			<glyph d="M333 483Q387 483 423 454T459 375Q459 326 421 280T313 206T154 174Q156 136 182 104T252 73Q291 73 334 92T410 140Q388 57 297 9Q246 -18 227 -38T208 -85Q208 -124 253 -124Q277 -124 315 -106Q296 -145 262 -164T198 -184Q168 -184 145 -166T122 -116Q122 -65 182 -15Q110 -12 67 34T24 161Q24 242 67 318T181 438T333 483ZM301 406Q259 406 212 356T154 243Q229 247 286 280Q344 314 344 361Q344 381 332 393T301 406Z"
				   horiz-adv-x="456" unicode="ę"/>
			<glyph d="M140 666H591L557 497Q555 543 527 559T452 575H313L273 385H388Q456 383 479 419L446 260Q440 299 370 298H255L212 90H356Q416 90 446 104T509 172L473 0H-6Q48 13 64 83L169 569Q176 601 176 613Q175 657 140 666ZM265 893L409 820L579 893L384 700Z"
				   horiz-adv-x="559" unicode="Ě"/>
			<glyph d="M333 484Q389 484 423 455T458 377Q458 299 372 240T154 174L157 159Q163 121 186 97T252 74Q291 74 334 92T410 140Q390 73 329 28T193 -16Q115 -16 69 31T24 160Q24 242 67 318T181 439T333 484ZM301 406Q259 406 213 358T154 243Q232 249 288 281Q345 314 345 362Q345 382 333 394T301 406ZM197 700L326 626L482 700L301 509Z"
				   horiz-adv-x="456" unicode="ě"/>
			<glyph d="M484 681Q526 681 569 670T636 642L600 473Q577 587 459 587Q393 587 332 537T237 408T202 244Q202 166 237 119T336 72Q358 72 386 83L414 226Q416 243 416 248Q416 291 380 302H618Q569 287 559 232L518 33Q480 10 422 -3T306 -17Q184 -17 115 51T47 242Q47 352 106 455T266 620T484 681ZM509 890L628 697L484 770L314 697Z"
				   horiz-adv-x="621" unicode="Ĝ"/>
			<glyph d="M552 486L533 395H439Q450 385 457 362T464 320Q464 246 396 197T230 147Q216 147 204 149Q155 128 155 114Q155 102 187 94T242 82Q361 62 404 31T447 -47Q447 -113 370 -152T184 -192Q78 -192 19 -162T-40 -83Q-40 -57 -4 -28T100 16Q65 28 44 46T23 86Q23 131 127 172Q57 215 57 288Q57 376 126 430T298 484Q338 484 386 472Q409 465 458 465Q518 465 552 486ZM272 410Q234 410 209 378T185 300Q185 267 201 244T252 221Q288 221 314 251T341 330Q341 366 322 388T272 410ZM174 -5Q81 -30 81 -69Q81 -89 110 -104T202 -120Q247 -120 278 -106Q310 -92 310 -72Q310 -43 273 -28T174 -5ZM341 697L445 506L316 579L160 506Z"
				   horiz-adv-x="524" unicode="ĝ"/>
			<glyph d="M484 681Q526 681 569 670T636 642L600 473Q577 587 459 587Q393 587 332 537T237 408T202 244Q202 166 237 119T336 72Q358 72 386 83L414 226Q416 243 416 248Q416 291 380 302H618Q569 287 559 232L518 33Q480 10 422 -3T306 -17Q184 -17 115 51T47 242Q47 352 106 455T266 620T484 681ZM376 883Q388 845 417 827T482 809Q560 809 621 883Q605 810 560 767T464 724Q423 724 397 753T371 838Q371 849 372 860T376 883Z"
				   horiz-adv-x="621" unicode="Ğ"/>
			<glyph d="M552 486L533 395H439Q450 385 457 362T464 320Q464 246 396 197T230 147Q216 147 204 149Q155 128 155 114Q155 102 187 94T242 82Q361 62 404 31T447 -47Q447 -113 370 -152T184 -192Q78 -192 19 -162T-40 -83Q-40 -57 -4 -28T100 16Q65 28 44 46T23 86Q23 131 127 172Q57 215 57 288Q57 376 126 430T298 484Q338 484 386 472Q409 465 458 465Q518 465 552 486ZM272 410Q234 410 209 378T185 300Q185 267 201 244T252 221Q288 221 314 251T341 330Q341 366 322 388T272 410ZM174 -5Q81 -30 81 -69Q81 -89 110 -104T202 -120Q247 -120 278 -106Q310 -92 310 -72Q310 -43 273 -28T174 -5ZM219 696Q231 658 260 640T325 622Q403 622 464 696Q448 623 403 580T307 537Q266 537 240 566T214 651Q214 662 215 673T219 696Z"
				   horiz-adv-x="524" unicode="ğ"/>
			<glyph d="M484 681Q526 681 569 670T636 642L600 473Q577 587 459 587Q393 587 332 537T237 408T202 244Q202 166 237 119T336 72Q358 72 386 83L414 226Q416 243 416 248Q416 291 380 302H618Q569 287 559 232L518 33Q480 10 422 -3T306 -17Q184 -17 115 51T47 242Q47 352 106 455T266 620T484 681ZM490 864Q521 864 539 844T557 795Q557 760 534 737T476 714Q446 714 427 733T408 783Q408 816 432 840T490 864Z"
				   horiz-adv-x="621" unicode="Ġ"/>
			<glyph d="M552 486L533 395H439Q450 385 457 362T464 320Q464 246 396 197T230 147Q216 147 204 149Q155 128 155 114Q155 102 187 94T242 82Q361 62 404 31T447 -47Q447 -113 370 -152T184 -192Q78 -192 19 -162T-40 -83Q-40 -57 -4 -28T100 16Q65 28 44 46T23 86Q23 131 127 172Q57 215 57 288Q57 376 126 430T298 484Q338 484 386 472Q409 465 458 465Q518 465 552 486ZM272 410Q234 410 209 378T185 300Q185 267 201 244T252 221Q288 221 314 251T341 330Q341 366 322 388T272 410ZM174 -5Q81 -30 81 -69Q81 -89 110 -104T202 -120Q247 -120 278 -106Q310 -92 310 -72Q310 -43 273 -28T174 -5ZM319 684Q350 684 368 664T386 615Q386 580 363 557T305 534Q275 534 256 553T237 603Q237 636 261 660T319 684Z"
				   horiz-adv-x="524" unicode="ġ"/>
			<glyph d="M484 681Q526 681 569 670T636 642L600 473Q577 587 459 587Q393 587 332 537T237 408T202 244Q202 166 237 119T336 72Q358 72 386 83L414 226Q416 243 416 248Q416 291 380 302H618Q569 287 559 232L518 33Q480 10 422 -3T306 -17Q184 -17 115 51T47 242Q47 352 106 455T266 620T484 681ZM286 -36Q307 -36 322 -51T337 -90Q337 -128 306 -155T233 -183H222Q244 -178 261 -159T283 -119Q263 -117 252 -105T242 -80Q242 -63 254 -49T286 -36Z"
				   horiz-adv-x="621" unicode="Ģ"/>
			<glyph d="M359 669Q364 669 370 668Q349 664 331 645T310 605Q330 603 340 591T351 565Q351 548 338 535T306 522Q285 522 270 537T255 576Q255 613 286 641T359 669ZM552 486L533 395H439Q450 385 457 362T464 320Q464 246 396 197T230 147Q216 147 204 149Q155 128 155 114Q155 102 187 94T242 82Q361 62 404 31T447 -47Q447 -113 370 -152T184 -192Q78 -192 19 -162T-40 -83Q-40 -57 -4 -28T100 16Q65 28 44 46T23 86Q23 131 127 172Q57 215 57 288Q57 376 126 430T298 484Q338 484 386 472Q409 465 458 465Q518 465 552 486ZM272 410Q234 410 209 378T185 300Q185 267 201 244T252 221Q288 221 314 251T341 330Q341 366 322 388T272 410ZM174 -5Q81 -30 81 -69Q81 -89 110 -104T202 -120Q247 -120 278 -106Q310 -92 310 -72Q310 -43 273 -28T174 -5Z"
				   horiz-adv-x="524" unicode="ģ"/>
			<glyph d="M132 666H372Q322 653 308 591L263 385H518L561 587Q566 608 565 616Q565 655 532 666H771Q722 653 708 591L598 76Q594 61 594 49Q594 10 627 0H390Q411 3 427 22T451 72L499 298H245L198 76Q195 62 195 50Q195 10 228 0H-8Q12 3 28 22T52 72L162 587Q165 608 165 616Q165 655 132 666ZM490 890L609 697L465 770L295 697Z"
				   horiz-adv-x="713" unicode="Ĥ"/>
			<glyph d="M299 696L236 417Q264 446 309 465T396 485Q491 485 493 395Q493 372 486 339L439 109Q434 86 434 63Q435 9 458 0H284L349 296Q357 325 357 346Q355 398 314 398Q284 398 251 367T211 299L147 0H17L144 587Q146 597 146 604Q145 639 95 645ZM383 890L502 697L358 770L188 697Z"
				   horiz-adv-x="524" unicode="ĥ"/>
			<glyph d="M132 666H372Q319 648 308 590L299 551H554Q565 605 565 616Q564 657 531 666H771Q718 647 708 590L598 76Q594 57 594 49Q594 10 625 0H390Q437 12 451 72L499 297H244L198 76Q195 61 195 49Q196 8 226 0H-7Q38 13 52 72L161 581Q165 607 165 616Q165 656 132 666ZM282 476L263 385H518L537 476Z"
				   horiz-adv-x="713" unicode="Ħ"/>
			<glyph d="M298 696L276 597H427L415 536H262L236 415Q264 444 308 464T396 485Q493 485 493 395Q493 370 487 343L438 109Q434 87 434 63Q434 10 458 0H284L352 308Q357 336 357 345Q356 395 316 396Q280 396 248 363T207 281L147 0H17L133 536H89L102 597H146Q146 618 134 629T95 645Z"
				   horiz-adv-x="524" unicode="ħ"/>
			<glyph d="M134 666H372Q322 653 308 591L199 76Q195 56 195 49Q195 25 205 13T227 0H-8Q11 2 28 21T53 72L162 587Q166 607 166 614Q166 639 155 651T134 666ZM411 866Q425 846 425 822Q425 781 395 750T324 720Q292 720 249 744T182 769Q137 770 126 703Q111 721 111 747Q111 787 138 816T208 846Q240 846 286 822T354 799Q380 799 393 816Q406 834 411 866Z"
				   horiz-adv-x="315" unicode="Ĩ"/>
			<glyph d="M254 486L173 109Q166 74 166 62Q166 5 190 0H17L97 365Q101 380 101 391Q101 407 82 420T47 435ZM342 694Q356 674 356 650Q356 609 326 578T255 548Q223 548 180 572T113 597Q68 598 57 531Q42 549 42 575Q42 615 69 644T139 674Q171 674 217 650T285 627Q311 627 324 644Q337 662 342 694Z"
				   horiz-adv-x="266" unicode="ĩ"/>
			<glyph d="M134 666H372Q322 653 308 591L199 76Q195 56 195 49Q195 25 205 13T227 0H-8Q11 2 28 21T53 72L162 587Q166 607 166 614Q166 639 155 651T134 666ZM116 817H442L429 756H104Z"
				   horiz-adv-x="315" unicode="Ī"/>
			<glyph d="M77 634H347L335 573H64ZM254 486L173 109Q166 74 166 62Q166 5 190 0H17L97 365Q101 380 101 391Q101 407 82 420T47 435Z"
				   horiz-adv-x="266" unicode="ī"/>
			<glyph d="M134 666H372Q322 653 308 591L199 76Q195 56 195 49Q195 25 205 13T227 0H-8Q11 2 28 21T53 72L162 587Q166 607 166 614Q166 639 155 651T134 666ZM173 883Q185 845 214 827T279 809Q357 809 418 883Q402 810 357 767T261 724Q220 724 194 753T168 838Q168 849 169 860T173 883Z"
				   horiz-adv-x="315" unicode="Ĭ"/>
			<glyph d="M254 486L173 109Q166 74 166 62Q166 5 190 0H17L97 365Q101 380 101 391Q101 407 82 420T47 435ZM101 696Q113 658 142 640T207 622Q285 622 346 696Q330 623 285 580T189 537Q148 537 122 566T96 651Q96 662 97 673T101 696Z"
				   horiz-adv-x="266" unicode="ĭ"/>
			<glyph d="M134 666H371Q343 656 328 636T308 591L198 76Q195 56 195 49Q195 26 205 13T225 0Q171 -2 134 -25T98 -85Q99 -123 143 -124Q171 -124 205 -107Q186 -145 152 -164T88 -184Q57 -184 35 -166T13 -118Q13 -54 94 0H-5Q37 10 53 72L161 581Q166 602 166 616Q165 657 134 666Z"
				   horiz-adv-x="315" unicode="Į"/>
			<glyph d="M254 486L173 109Q166 74 166 62Q166 5 190 0Q137 -6 104 -31T71 -84Q71 -122 116 -123Q144 -123 178 -106Q159 -144 125 -163T61 -183Q30 -183 8 -166T-13 -117Q-13 -83 11 -52T70 0H18L93 344Q102 379 102 391Q102 408 83 421T47 435ZM213 685Q245 685 263 665T281 615Q281 580 257 556T199 533Q167 533 148 552T130 603Q130 637 154 661T213 685Z"
				   horiz-adv-x="266" unicode="į"/>
			<glyph d="M134 666H372Q322 653 308 591L199 76Q195 56 195 49Q195 25 205 13T227 0H-8Q11 2 28 21T53 72L162 587Q166 607 166 614Q166 639 155 651T134 666ZM278 864Q309 864 327 844T345 795Q345 760 322 737T264 714Q234 714 215 733T196 783Q196 816 220 840T278 864Z"
				   horiz-adv-x="315" unicode="İ"/>
			<glyph d="M254 486L173 109Q166 74 166 62Q166 5 190 0H17L97 365Q101 380 101 391Q101 407 82 420T47 435Z"
				   horiz-adv-x="266" unicode="ı"/>
			<glyph d="M134 666H372Q322 653 308 591L199 76Q195 56 195 49Q195 25 205 13T227 0H-8Q11 2 28 21T53 72L162 587Q166 607 166 614Q166 639 155 651T134 666ZM455 666H699Q649 653 632 574L537 124Q516 23 471 -27T348 -78Q308 -78 275 -63T228 -24Q246 -29 264 -29Q356 -29 396 145L485 565Q492 598 492 612Q492 657 455 666Z"
				   horiz-adv-x="640" unicode="Ĳ"/>
			<glyph d="M254 486L173 109Q166 81 166 56Q166 8 190 0H17L98 368Q101 379 101 391Q101 409 84 422T47 435ZM214 689Q246 689 264 669T282 619Q282 585 258 561Q235 537 200 537Q168 537 149 557T131 607Q131 642 155 665T214 689ZM480 689Q512 689 530 669T548 619Q548 585 524 561T466 537Q435 537 416 557T397 607Q397 641 421 665T480 689ZM521 486L417 0Q397 -89 347 -136T234 -183Q191 -183 155 -168T102 -131Q126 -137 145 -137Q258 -137 285 0L366 377Q367 382 367 389Q367 407 350 421T314 435Z"
				   horiz-adv-x="536" unicode="ĳ"/>
			<glyph d="M140 666H384Q334 653 317 574L222 124Q201 23 156 -27T33 -78Q-7 -78 -39 -63T-87 -24Q-69 -29 -51 -29Q41 -29 81 145L170 565Q177 598 177 612Q177 657 140 666ZM308 890L427 697L283 770L113 697Z"
				   horiz-adv-x="325" unicode="Ĵ"/>
			<glyph d="M221 697L325 506L196 579L40 506ZM255 486L151 0Q131 -89 81 -136T-32 -183Q-75 -183 -111 -168T-164 -131Q-140 -137 -121 -137Q-8 -137 19 0L100 377Q101 382 101 389Q101 407 84 421T48 435Z"
				   horiz-adv-x="268" unicode="ĵ"/>
			<glyph d="M128 666H368Q321 651 308 591L259 366L475 575Q524 624 524 649Q524 661 509 666H728Q684 651 619 589L390 374L525 103Q550 53 577 28T622 0H424L253 339L198 76Q195 57 195 50Q195 10 229 0H-8Q10 2 27 21T52 72L162 587Q165 600 165 614Q165 654 128 666ZM299 -36Q320 -36 335 -51T350 -90Q350 -128 319 -155T246 -183H235Q257 -178 274 -159T296 -119Q276 -117 265 -105T255 -80Q255 -63 267 -49T299 -36Z"
				   horiz-adv-x="664" unicode="Ķ"/>
			<glyph d="M299 696L204 269L330 391Q368 426 368 446Q368 460 351 466H580Q519 451 454 388L321 258L414 86Q449 19 510 19Q462 -12 398 -12Q327 -12 292 55L198 240L148 0H17L140 569Q146 594 146 602Q144 637 92 645ZM231 -36Q252 -36 267 -51T282 -90Q282 -128 251 -155T178 -183H167Q189 -178 206 -159T228 -119Q208 -117 197 -105T187 -80Q187 -63 199 -49T231 -36Z"
				   horiz-adv-x="539" unicode="ķ"/>
			<glyph d="M254 486L204 268L330 391Q368 426 368 446Q368 460 351 466H580Q519 450 454 388L321 258L413 86Q449 20 510 18Q459 -12 397 -12Q326 -12 291 54L198 240L148 0H17L96 365Q101 385 101 392Q100 426 47 435Z"
				   horiz-adv-x="539" unicode="ĸ"/>
			<glyph d="M124 666H365Q317 651 304 591L197 91H328Q395 91 430 113T488 187L448 0H-9Q8 2 25 22T48 72L158 587Q161 601 161 614Q161 655 124 666ZM335 856H501L260 696Z"
				   horiz-adv-x="526" unicode="Ĺ"/>
			<glyph d="M299 696L172 109Q165 83 165 55Q165 8 189 0H17L141 573Q146 594 146 603Q145 639 96 645ZM247 856H413L172 696Z"
				   horiz-adv-x="266" unicode="ĺ"/>
			<glyph d="M124 666H365Q317 651 304 591L197 91H328Q395 91 430 113T488 187L448 0H-9Q8 2 25 22T48 72L158 587Q161 601 161 614Q161 655 124 666ZM231 -36Q252 -36 267 -51T282 -90Q282 -128 251 -155T178 -183H167Q189 -178 206 -159T228 -119Q208 -117 197 -105T187 -80Q187 -63 199 -49T231 -36Z"
				   horiz-adv-x="526" unicode="Ļ"/>
			<glyph d="M299 696L172 109Q165 83 165 55Q165 8 189 0H17L141 573Q146 594 146 603Q145 639 96 645ZM77 -36Q98 -36 113 -51T128 -90Q128 -128 97 -155T24 -183H13Q35 -178 52 -159T74 -119Q54 -117 43 -105T33 -80Q33 -63 45 -49T77 -36Z"
				   horiz-adv-x="266" unicode="ļ"/>
			<glyph d="M124 666H365Q317 651 304 591L197 91H328Q395 91 430 113T488 187L448 0H-9Q8 2 25 22T48 72L158 587Q161 601 161 614Q161 655 124 666ZM425 682H551L364 491Z"
				   horiz-adv-x="526" unicode="Ľ"/>
			<glyph d="M299 696L172 109Q165 83 165 55Q165 8 189 0H17L141 573Q146 594 146 603Q145 639 96 645ZM372 682H498L311 491Z"
				   horiz-adv-x="283" unicode="ľ"/>
			<glyph d="M124 666H365Q317 651 304 591L197 91H328Q395 91 430 113T488 187L448 0H-9Q8 2 25 22T48 72L158 587Q161 601 161 614Q161 655 124 666ZM478 416Q509 416 527 396T545 347Q545 312 522 289T464 266Q434 266 415 285T396 335Q396 368 420 392T478 416Z"
				   horiz-adv-x="598" unicode="Ŀ"/>
			<glyph d="M299 696L172 109Q165 83 165 55Q165 8 189 0H17L141 573Q146 594 146 603Q145 639 96 645ZM371 380Q402 380 420 360T438 311Q438 276 415 253T357 230Q327 230 308 249T289 299Q289 332 313 356T371 380Z"
				   horiz-adv-x="443" unicode="ŀ"/>
			<glyph d="M124 666H365Q317 651 304 591L267 418L368 484L350 396L248 330L197 91H328Q395 91 430 112T488 187L448 0H-9Q8 3 24 20T48 72L81 224L3 173L21 261L100 312L158 587Q161 607 161 614Q161 654 124 666Z"
				   horiz-adv-x="523" unicode="Ł"/>
			<glyph d="M300 696L244 438L314 484L295 396L225 350L173 109Q167 79 167 55Q167 6 191 0H18L73 252L2 206L21 293L92 339L139 555Q148 593 148 603Q148 638 97 645Z"
				   horiz-adv-x="269" unicode="ł"/>
			<glyph d="M105 666H287L504 250L575 590Q578 607 578 613Q578 653 539 666H742Q696 650 686 594L557 -4H458L454 11Q434 80 407 134L245 442L165 60V50Q166 10 203 0H-7Q13 2 30 19T55 68Q164 564 164 577Q164 599 144 629T105 666ZM482 856H648L407 696Z"
				   horiz-adv-x="683" unicode="Ń"/>
			<glyph d="M242 486L228 413Q306 485 392 485Q494 485 494 394Q494 368 486 330L440 109Q436 89 436 64Q436 8 460 0H286L353 306Q359 336 359 346Q359 398 316 398Q287 398 254 368T211 290L148 0H18L95 352Q102 383 102 390Q101 429 48 435ZM342 666H508L267 506Z"
				   horiz-adv-x="524" unicode="ń"/>
			<glyph d="M105 666H287L504 250L575 590Q578 607 578 613Q578 653 539 666H742Q696 650 686 594L557 -4H458L454 11Q434 80 407 134L245 442L165 60V50Q166 10 203 0H-7Q13 2 30 19T55 68Q164 564 164 577Q164 599 144 629T105 666ZM293 -36Q314 -36 329 -51T344 -90Q344 -128 313 -155T240 -183H229Q251 -178 268 -159T290 -119Q270 -117 259 -105T249 -80Q249 -63 261 -49T293 -36Z"
				   horiz-adv-x="683" unicode="Ņ"/>
			<glyph d="M242 486L228 413Q306 485 392 485Q494 485 494 394Q494 368 486 330L440 109Q436 89 436 64Q436 8 460 0H286L353 306Q359 336 359 346Q359 398 316 398Q287 398 254 368T211 290L148 0H18L95 352Q102 383 102 390Q101 429 48 435ZM208 -36Q229 -36 244 -51T259 -90Q259 -128 228 -155T155 -183H144Q166 -178 183 -159T205 -119Q185 -117 174 -105T164 -80Q164 -63 176 -49T208 -36Z"
				   horiz-adv-x="524" unicode="ņ"/>
			<glyph d="M105 666H287L504 250L575 590Q578 607 578 613Q578 653 539 666H742Q696 650 686 594L557 -4H458L454 11Q434 80 407 134L245 442L165 60V50Q166 10 203 0H-7Q13 2 30 19T55 68Q164 564 164 577Q164 599 144 629T105 666ZM320 893L464 820L634 893L439 700Z"
				   horiz-adv-x="683" unicode="Ň"/>
			<glyph d="M242 486L228 413Q306 485 392 485Q494 485 494 394Q494 368 486 330L440 109Q436 89 436 64Q436 8 460 0H286L353 306Q359 336 359 346Q359 398 316 398Q287 398 254 368T211 290L148 0H18L95 352Q102 383 102 390Q101 429 48 435ZM217 700L346 626L502 700L321 509Z"
				   horiz-adv-x="524" unicode="ň"/>
			<glyph d="M249 486L235 411Q315 485 400 485Q502 485 502 394Q502 367 496 339L448 109Q443 87 443 64Q443 9 467 0H294L361 310Q366 333 366 346Q365 395 325 396Q305 396 283 383T248 349T217 274T187 150L156 0H26L103 353Q109 378 109 390Q109 408 90 421T56 435ZM114 680Q135 680 150 664T165 626Q165 589 134 561T61 533L50 534Q71 538 88 556T111 597Q91 599 80 610T70 637Q70 654 82 667T114 680Z"
				   horiz-adv-x="532" unicode="ŉ"/>
			<glyph d="M105 666H287L504 250L575 590Q578 605 578 613Q578 630 570 643T541 666H740Q696 648 686 594L572 60Q549 -41 481 -96T314 -151Q436 -83 436 24Q436 77 406 134L245 442L171 89Q165 69 165 50Q165 27 176 14T201 0H-5Q43 10 55 68L151 511Q164 565 164 577Q164 597 144 628T105 666Z"
				   horiz-adv-x="683" unicode="Ŋ"/>
			<glyph d="M242 486L228 413Q307 485 392 485Q492 485 492 391Q492 383 490 357Q487 319 459 197L440 111Q431 76 431 45Q431 13 440 0Q372 -92 269 -92Q224 -92 193 -70Q234 -51 250 -35T278 1T298 58L345 269L356 326Q359 342 359 346Q358 398 316 398Q287 398 254 368T211 290L148 0H18Q102 375 102 390Q102 410 85 422T48 435Z"
				   horiz-adv-x="524" unicode="ŋ"/>
			<glyph d="M435 682Q549 682 614 611T680 422Q680 312 626 208Q573 105 482 45T289 -15Q177 -15 111 55T46 246Q46 358 98 460T241 622T435 682ZM418 589Q362 589 312 538T232 401T202 232Q202 163 228 120T307 78Q364 78 414 128T494 262T525 433Q525 502 498 545T418 589ZM293 817H618L606 756H280Z"
				   horiz-adv-x="682" unicode="Ō"/>
			<glyph d="M301 483Q387 483 435 430T484 291Q484 214 447 143Q411 73 347 30T205 -13Q120 -13 72 40T24 179Q24 257 62 329T164 442T301 483ZM290 398Q236 398 196 319T156 165Q156 122 172 96T217 71Q253 71 283 107T331 200T350 302Q350 346 334 372T290 398ZM179 634H505L492 573H167Z"
				   horiz-adv-x="508" unicode="ō"/>
			<glyph d="M435 682Q549 682 614 611T680 422Q680 312 626 208Q573 105 482 45T289 -15Q177 -15 111 55T46 246Q46 358 98 460T241 622T435 682ZM418 589Q362 589 312 538T232 401T202 232Q202 163 228 120T307 78Q364 78 414 128T494 262T525 433Q525 502 498 545T418 589ZM352 883Q364 845 393 827T458 809Q494 809 530 827Q567 846 597 883Q581 810 536 767T440 724Q402 724 374 751T346 830Q346 854 352 883Z"
				   horiz-adv-x="682" unicode="Ŏ"/>
			<glyph d="M301 483Q387 483 435 430T484 291Q484 214 447 143Q411 73 347 30T205 -13Q120 -13 72 40T24 179Q24 257 62 329T164 442T301 483ZM290 398Q236 398 196 319T156 165Q156 122 172 96T217 71Q253 71 283 107T331 200T350 302Q350 346 334 372T290 398ZM227 696Q239 658 268 640T333 622Q411 622 472 696Q456 623 411 580T315 537Q274 537 248 566T222 651Q222 662 223 673T227 696Z"
				   horiz-adv-x="508" unicode="ŏ"/>
			<glyph d="M435 682Q549 682 614 611T680 422Q680 312 626 208Q573 105 482 45T289 -15Q177 -15 111 55T46 246Q46 358 98 460T241 622T435 682ZM418 589Q362 589 312 538T232 401T202 232Q202 163 228 120T307 78Q364 78 414 128T494 262T525 433Q525 502 498 545T418 589ZM602 857H756L509 697ZM409 857H563L317 697Z"
				   horiz-adv-x="682" unicode="Ő"/>
			<glyph d="M301 483Q387 483 435 430T484 291Q484 214 447 143Q411 73 347 30T205 -13Q120 -13 72 40T24 179Q24 257 62 329T164 442T301 483ZM290 398Q236 398 196 319T156 165Q156 122 172 96T217 71Q253 71 283 107T331 200T350 302Q350 346 334 372T290 398ZM446 666H600L353 506ZM253 666H407L161 506Z"
				   horiz-adv-x="508" unicode="ő"/>
			<glyph d="M431 682Q482 682 525 666H944L909 492Q905 575 806 575H666L626 385H741Q777 385 801 395T832 421L799 258Q797 277 777 287T723 298H608L565 90H709Q771 90 805 109T866 186L826 0H386Q339 -15 286 -15Q174 -15 108 55T43 246Q43 358 95 459T237 621T431 682ZM417 592Q361 592 310 539T228 399T198 229Q198 160 225 117T303 75Q348 75 393 120Q435 189 466 291T506 484Q504 532 481 562T417 592Z"
				   horiz-adv-x="912" unicode="Œ"/>
			<glyph d="M638 484Q692 484 728 455T764 375Q764 329 725 283T618 207T459 174Q459 133 487 103T556 74Q595 74 638 92Q682 111 714 140Q693 71 631 27T498 -16Q407 -16 366 51Q297 -13 202 -13Q117 -13 69 40T21 179Q21 257 58 328T160 441T298 483Q399 483 442 401Q532 484 638 484ZM606 406Q564 406 517 356T459 243Q535 245 592 279Q650 313 650 362Q650 382 638 394T606 406ZM286 398Q233 398 192 319T152 165Q152 122 168 96T213 71Q249 71 279 107T327 200T346 302Q346 346 330 372T286 398Z"
				   horiz-adv-x="755" unicode="œ"/>
			<glyph d="M128 666H402Q498 666 556 620T614 496Q614 417 559 357T424 288Q438 275 450 243L514 83Q539 16 584 0H389L310 229Q289 286 265 286H243L196 76Q192 61 192 50Q192 11 226 0H-9Q11 3 28 21T52 72L162 587Q166 607 166 614Q166 655 128 666ZM306 583L259 358H332Q394 358 431 395T469 489Q469 531 445 557T385 583ZM417 856H583L342 696Z"
				   horiz-adv-x="615" unicode="Ŕ"/>
			<glyph d="M249 486L231 396Q257 435 296 459T371 484Q401 484 420 467T440 414Q440 376 407 344T320 309Q332 326 332 350Q331 388 306 388Q277 388 247 348T195 215L148 0H18Q80 281 97 359Q103 382 103 389Q103 426 45 435ZM278 666H444L203 506Z"
				   horiz-adv-x="418" unicode="ŕ"/>
			<glyph d="M128 666H402Q498 666 556 620T614 496Q614 417 559 357T424 288Q438 275 450 243L514 83Q539 16 584 0H389L310 229Q289 286 265 286H243L196 76Q192 61 192 50Q192 11 226 0H-9Q11 3 28 21T52 72L162 587Q166 607 166 614Q166 655 128 666ZM306 583L259 358H332Q394 358 431 395T469 489Q469 531 445 557T385 583ZM284 -36Q305 -36 320 -51T335 -90Q335 -128 304 -155T231 -183H220Q242 -178 259 -159T281 -119Q261 -117 250 -105T240 -80Q240 -63 252 -49T284 -36Z"
				   horiz-adv-x="615" unicode="Ŗ"/>
			<glyph d="M249 486L231 396Q257 435 296 459T371 484Q401 484 420 467T440 414Q440 376 407 344T320 309Q332 326 332 350Q331 388 306 388Q277 388 247 348T195 215L148 0H18Q80 281 97 359Q103 382 103 389Q103 426 45 435ZM118 -36Q139 -36 154 -51T169 -90Q169 -128 138 -155T65 -183H54Q76 -178 93 -159T115 -119Q95 -117 84 -105T74 -80Q74 -63 86 -49T118 -36Z"
				   horiz-adv-x="418" unicode="ŗ"/>
			<glyph d="M128 666H402Q498 666 556 620T614 496Q614 417 559 357T424 288Q438 275 450 243L514 83Q539 16 584 0H389L310 229Q289 286 265 286H243L196 76Q192 61 192 50Q192 11 226 0H-9Q11 3 28 21T52 72L162 587Q166 607 166 614Q166 655 128 666ZM306 583L259 358H332Q394 358 431 395T469 489Q469 531 445 557T385 583ZM261 893L405 820L575 893L380 700Z"
				   horiz-adv-x="615" unicode="Ř"/>
			<glyph d="M249 486L231 396Q257 435 296 459T371 484Q401 484 420 467T440 414Q440 376 407 344T320 309Q332 326 332 350Q331 388 306 388Q277 388 247 348T195 215L148 0H18Q80 281 97 359Q103 382 103 389Q103 426 45 435ZM164 700L293 626L449 700L268 509Z"
				   horiz-adv-x="418" unicode="ř"/>
			<glyph d="M345 682Q392 682 439 668T522 633L489 475Q465 530 422 558T335 587Q294 587 269 566T245 506Q245 475 272 445T363 373Q481 293 481 195Q481 102 411 43T221 -16Q163 -16 103 1T11 43L52 232Q74 154 123 118T233 82Q279 82 305 105T331 167Q331 197 306 224T217 295Q102 372 102 474Q102 562 169 622T345 682ZM353 856H519L278 696Z"
				   horiz-adv-x="517" unicode="Ś"/>
			<glyph d="M265 485Q327 485 365 461T404 400Q404 353 331 316Q334 325 334 333Q334 367 310 384T256 402Q226 402 205 387T184 350Q184 331 207 310T271 264Q363 204 363 132Q363 66 306 25T158 -16Q63 -16 0 22L40 181Q46 133 76 100T155 67Q184 67 207 79T231 116Q231 134 212 152T148 200Q64 254 64 327Q64 397 121 441T265 485ZM289 666H455L214 506Z"
				   horiz-adv-x="412" unicode="ś"/>
			<glyph d="M345 682Q392 682 439 668T522 633L489 475Q465 530 422 558T335 587Q294 587 269 566T245 506Q245 475 272 445T363 373Q481 293 481 195Q481 102 411 43T221 -16Q163 -16 103 1T11 43L52 232Q74 154 123 118T233 82Q279 82 305 105T331 167Q331 197 306 224T217 295Q102 372 102 474Q102 562 169 622T345 682ZM384 890L503 697L359 770L189 697Z"
				   horiz-adv-x="517" unicode="Ŝ"/>
			<glyph d="M265 485Q327 485 365 461T404 400Q404 353 331 316Q334 325 334 333Q334 367 310 384T256 402Q226 402 205 387T184 350Q184 331 207 310T271 264Q363 204 363 132Q363 66 306 25T158 -16Q63 -16 0 22L40 181Q46 133 76 100T155 67Q184 67 207 79T231 116Q231 134 212 152T148 200Q64 254 64 327Q64 397 121 441T265 485ZM304 697L408 506L279 579L123 506Z"
				   horiz-adv-x="412" unicode="ŝ"/>
			<glyph d="M345 682Q392 682 439 668T522 633L489 475Q466 530 423 558T335 587Q294 587 269 566T245 506Q245 475 273 444T362 374Q481 294 481 195Q481 106 418 48T249 -15L230 -37Q268 -42 282 -59T297 -95Q297 -130 261 -157T175 -184Q125 -184 92 -159Q102 -162 123 -162Q164 -162 186 -145T209 -108Q209 -95 194 -82T140 -69L185 -14Q77 -3 11 43L52 232Q75 154 124 118T233 82Q279 82 305 105T331 167Q331 199 306 225T217 295Q102 372 102 474Q102 562 169 622T345 682Z"
				   horiz-adv-x="517" unicode="Ş"/>
			<glyph d="M265 485Q327 485 365 462T404 400Q404 354 331 315Q334 327 334 332Q334 367 310 384T256 402Q226 402 204 388T183 350Q183 333 198 316T273 262Q365 202 363 132Q363 73 318 34T194 -13L173 -37Q213 -44 226 -60T240 -95Q240 -130 204 -157T118 -184Q68 -184 35 -159Q46 -162 66 -162Q107 -162 129 -145T152 -108Q152 -93 137 -82T83 -69L127 -15Q50 -10 0 22L40 181Q47 129 77 98T155 67Q183 67 207 79T231 116Q231 134 213 151T148 200Q64 254 64 327Q64 398 122 441T265 485Z"
				   horiz-adv-x="412" unicode="ş"/>
			<glyph d="M345 682Q392 682 439 668T522 633L489 475Q465 530 422 558T335 587Q294 587 269 566T245 506Q245 475 272 445T363 373Q481 293 481 195Q481 102 411 43T221 -16Q163 -16 103 1T11 43L52 232Q74 154 123 118T233 82Q279 82 305 105T331 167Q331 197 306 224T217 295Q102 372 102 474Q102 562 169 622T345 682ZM230 893L374 820L544 893L349 700Z"
				   horiz-adv-x="517" unicode="Š"/>
			<glyph d="M265 485Q327 485 365 461T404 400Q404 353 331 316Q334 325 334 333Q334 367 310 384T256 402Q226 402 205 387T184 350Q184 331 207 310T271 264Q363 204 363 132Q363 66 306 25T158 -16Q63 -16 0 22L40 181Q46 133 76 100T155 67Q184 67 207 79T231 116Q231 134 212 152T148 200Q64 254 64 327Q64 397 121 441T265 485ZM151 700L280 626L436 700L255 509Z"
				   horiz-adv-x="412" unicode="š"/>
			<glyph d="M114 666H674L636 492Q632 542 609 560T527 578H446L338 76Q335 62 335 49Q335 11 366 0H132Q180 11 194 72L301 578H217Q157 578 126 559T74 493ZM227 -36Q248 -36 263 -51T278 -90Q278 -128 247 -155T174 -183H163Q185 -178 202 -159T224 -119Q204 -117 193 -105T183 -80Q183 -63 195 -49T227 -36Z"
				   horiz-adv-x="601" unicode="Ţ"/>
			<glyph d="M281 598L253 466H381L365 390H237L194 195Q182 147 182 117Q182 88 196 76T239 64Q279 64 330 91Q307 40 261 12T155 -16Q45 -16 42 81Q42 104 48 131L107 390H34ZM139 -36Q160 -36 175 -51T190 -90Q190 -128 159 -155T86 -183H75Q97 -178 114 -159T136 -119Q116 -117 105 -105T95 -80Q95 -63 107 -49T139 -36Z"
				   horiz-adv-x="352" unicode="ţ"/>
			<glyph d="M114 666H674L636 492Q632 542 609 560T527 578H446L338 76Q335 62 335 49Q335 11 366 0H132Q180 11 194 72L301 578H217Q157 578 126 559T74 493ZM273 898L417 825L587 898L392 705Z"
				   horiz-adv-x="601" unicode="Ť"/>
			<glyph d="M281 598L253 466H381L365 390H237L194 195Q182 147 182 117Q182 88 196 76T239 64Q279 64 330 91Q307 40 261 12T155 -16Q45 -16 42 81Q42 104 48 131L107 390H34ZM367 682H493L306 491Z"
				   horiz-adv-x="352" unicode="ť"/>
			<glyph d="M114 666H674L636 492Q632 542 609 560T527 578H446L396 349H490L477 287H383L338 76Q335 56 335 49Q335 10 366 0H133Q180 12 194 72L239 287H149L162 349H253L301 578H217Q157 578 126 559T74 493Z"
				   horiz-adv-x="601" unicode="Ŧ"/>
			<glyph d="M282 603L253 466H380L365 387H236L212 275H329L316 214H198Q182 139 182 116Q182 64 239 64Q279 64 330 91Q307 39 261 12T155 -15Q42 -13 41 81Q41 105 67 214H8L20 275H81L107 387H33Z"
				   horiz-adv-x="352" unicode="ŧ"/>
			<glyph d="M124 666H363Q313 653 302 603L224 243Q216 207 216 177Q216 120 240 101T313 82Q368 82 408 116T462 216Q503 411 542 600Q543 615 543 620Q543 655 511 666H718Q673 655 661 600L583 230Q555 98 487 41T282 -15Q72 -15 72 163Q72 211 83 262Q135 498 152 579Q160 613 160 622Q160 654 124 666ZM583 866Q597 848 597 821Q597 782 567 751T496 720Q465 720 422 744T354 769Q309 769 298 703Q283 722 283 749Q283 789 311 818T381 847Q414 847 460 823T527 799Q573 799 583 866Z"
				   horiz-adv-x="661" unicode="Ũ"/>
			<glyph d="M253 486L181 156Q177 140 177 120Q177 73 218 73Q251 73 282 105T323 181L359 338Q367 376 367 393Q367 415 354 423T319 435L521 486L438 109Q436 100 434 91T433 74Q433 39 483 35L292 -15L307 58Q278 26 233 6T143 -14Q41 -14 41 76Q41 99 48 132L90 338Q96 371 96 389Q97 432 50 435ZM475 694Q489 674 489 650Q489 609 459 578T388 548Q356 548 313 572T246 597Q201 598 190 531Q175 549 175 575Q175 615 202 644T272 674Q304 674 350 650T418 627Q444 627 457 644Q470 662 475 694Z"
				   horiz-adv-x="537" unicode="ũ"/>
			<glyph d="M124 666H363Q313 653 302 603L224 243Q216 207 216 177Q216 120 240 101T313 82Q368 82 408 116T462 216Q503 411 542 600Q543 615 543 620Q543 655 511 666H718Q673 655 661 600L583 230Q555 98 487 41T282 -15Q72 -15 72 163Q72 211 83 262Q135 498 152 579Q160 613 160 622Q160 654 124 666ZM303 817H628L616 756H290Z"
				   horiz-adv-x="661" unicode="Ū"/>
			<glyph d="M253 486L181 156Q177 140 177 120Q177 73 218 73Q251 73 282 105T323 181L359 338Q367 376 367 393Q367 415 354 423T319 435L521 486L438 109Q436 100 434 91T433 74Q433 39 483 35L292 -15L307 58Q278 26 233 6T143 -14Q41 -14 41 76Q41 99 48 132L90 338Q96 371 96 389Q97 432 50 435ZM176 634H502L489 573H164Z"
				   horiz-adv-x="537" unicode="ū"/>
			<glyph d="M124 666H363Q313 653 302 603L224 243Q216 207 216 177Q216 120 240 101T313 82Q368 82 408 116T462 216Q503 411 542 600Q543 615 543 620Q543 655 511 666H718Q673 655 661 600L583 230Q555 98 487 41T282 -15Q72 -15 72 163Q72 211 83 262Q135 498 152 579Q160 613 160 622Q160 654 124 666ZM352 883Q364 845 393 827T458 809Q536 809 597 883Q581 810 536 767T440 724Q399 724 373 753T347 838Q347 849 348 860T352 883Z"
				   horiz-adv-x="661" unicode="Ŭ"/>
			<glyph d="M253 486L181 156Q177 140 177 120Q177 73 218 73Q251 73 282 105T323 181L359 338Q367 376 367 393Q367 415 354 423T319 435L521 486L438 109Q436 100 434 91T433 74Q433 39 483 35L292 -15L307 58Q278 26 233 6T143 -14Q41 -14 41 76Q41 99 48 132L90 338Q96 371 96 389Q97 432 50 435ZM236 696Q248 658 277 640T342 622Q420 622 481 696Q465 623 420 580T324 537Q283 537 257 566T231 651Q231 662 232 673T236 696Z"
				   horiz-adv-x="537" unicode="ŭ"/>
			<glyph d="M124 666H363Q313 653 302 603L224 243Q216 207 216 177Q216 120 240 101T313 82Q368 82 408 116T462 216Q503 411 542 600Q543 615 543 620Q543 655 511 666H718Q673 655 661 600L583 230Q555 98 487 41T282 -15Q72 -15 72 163Q72 211 83 262Q135 498 152 579Q160 613 160 622Q160 654 124 666ZM443 902Q483 902 512 876T542 805Q542 759 513 732T443 706Q403 706 374 732T345 805Q345 850 374 876T443 902ZM443 858Q421 858 406 843T391 805Q391 780 406 765T443 750Q464 750 479 764Q494 779 494 805Q494 830 479 844T443 858Z"
				   horiz-adv-x="661" unicode="Ů"/>
			<glyph d="M253 486L181 156Q177 140 177 120Q177 73 218 73Q251 73 282 105T323 181L359 338Q367 376 367 393Q367 415 354 423T319 435L521 486L438 109Q436 100 434 91T433 74Q433 39 483 35L292 -15L307 58Q278 26 233 6T143 -14Q41 -14 41 76Q41 99 48 132L90 338Q96 371 96 389Q97 432 50 435ZM338 706Q378 706 407 680T437 609Q437 563 408 536T338 510Q298 510 269 536T240 609Q240 654 269 680T338 706ZM338 662Q316 662 301 647T286 609Q286 584 301 569T338 554Q359 554 374 568Q389 583 389 609Q389 634 374 648T338 662Z"
				   horiz-adv-x="537" unicode="ů"/>
			<glyph d="M124 666H363Q313 653 302 603L224 243Q216 207 216 177Q216 120 240 101T313 82Q368 82 408 116T462 216Q503 411 542 600Q543 615 543 620Q543 655 511 666H718Q673 655 661 600L583 230Q555 98 487 41T282 -15Q72 -15 72 163Q72 211 83 262Q135 498 152 579Q160 613 160 622Q160 654 124 666ZM573 857H727L480 697ZM380 857H534L288 697Z"
				   horiz-adv-x="661" unicode="Ű"/>
			<glyph d="M253 486L181 156Q177 140 177 120Q177 73 218 73Q251 73 282 105T323 181L359 338Q367 376 367 393Q367 415 354 423T319 435L521 486L438 109Q436 100 434 91T433 74Q433 39 483 35L292 -15L307 58Q278 26 233 6T143 -14Q41 -14 41 76Q41 99 48 132L90 338Q96 371 96 389Q97 432 50 435ZM466 666H620L373 506ZM273 666H427L181 506Z"
				   horiz-adv-x="537" unicode="ű"/>
			<glyph d="M126 666H361Q312 651 302 603L223 241Q214 197 214 166Q214 124 236 103T313 82Q370 82 409 116T462 216L529 540Q543 600 543 620Q543 654 512 666H717Q690 655 677 638T660 600L580 223Q557 119 513 66T390 -4Q326 -19 302 -38T278 -85Q279 -124 324 -124Q348 -124 386 -106Q367 -145 333 -164T269 -184Q238 -184 215 -166T193 -116Q193 -62 255 -14Q159 -12 113 29T68 151Q68 192 78 241L150 571Q159 608 159 622Q159 635 152 646T126 666Z"
				   horiz-adv-x="661" unicode="Ų"/>
			<glyph d="M254 486L182 156Q178 129 178 120Q178 74 218 74Q299 74 341 249Q369 364 369 393Q369 431 324 435H321L523 486L438 96Q434 79 434 74Q434 62 448 49T485 35Q407 14 358 -18T310 -84Q311 -122 356 -123Q384 -123 418 -106Q399 -144 365 -163T301 -183Q269 -183 247 -165T225 -116Q225 -60 294 -9L308 59Q279 25 235 5T147 -14Q42 -14 42 76Q42 99 49 132L87 320Q98 372 98 389Q98 409 84 422T52 435Z"
				   horiz-adv-x="537" unicode="ų"/>
			<glyph d="M97 666H321Q283 654 283 600Q283 574 291 498L318 215L490 514L486 563Q478 650 446 666H659Q621 653 621 599Q621 581 626 528L655 216L851 565Q875 607 875 633Q875 656 851 666H1064Q1020 651 969 564L641 -5H540L507 360L296 -5H195L140 563Q132 649 97 666ZM602 890L721 697L577 770L407 697Z"
				   horiz-adv-x="970" unicode="Ŵ"/>
			<glyph d="M207 485L233 182L394 468H482L518 175L628 358Q653 399 653 426Q653 455 621 466H805L494 -9H406L376 271L210 -9H121L87 374Q81 432 29 435L19 436ZM479 697L583 506L454 579L298 506Z"
				   horiz-adv-x="765" unicode="ŵ"/>
			<glyph d="M85 666H303Q283 658 283 627Q283 613 289 594L346 386L496 591Q522 628 522 645Q522 656 516 660T506 666H701Q662 654 618 593L375 265L334 76Q330 56 330 49Q330 10 363 0H128Q148 3 166 23T190 72L231 265L143 593Q127 652 85 666ZM439 890L558 697L414 770L244 697Z"
				   horiz-adv-x="602" unicode="Ŷ"/>
			<glyph d="M200 484L271 127Q315 193 352 271T389 401Q389 455 345 466H526Q485 329 384 163T186 -95T20 -189Q-22 -189 -42 -169T-62 -119Q-62 -100 -53 -75Q-30 -95 6 -95Q42 -95 87 -67T167 0L86 377Q80 405 64 419T11 436ZM345 697L449 506L320 579L164 506Z"
				   horiz-adv-x="510" unicode="ŷ"/>
			<glyph d="M85 666H303Q283 658 283 627Q283 613 289 594L346 386L496 591Q522 628 522 645Q522 656 516 660T506 666H701Q662 654 618 593L375 265L334 76Q330 56 330 49Q330 10 363 0H128Q148 3 166 23T190 72L231 265L143 593Q127 652 85 666ZM521 851Q547 851 562 834T578 792Q578 763 558 743T510 724Q484 724 468 740T452 783Q452 812 472 831T521 851ZM323 851Q349 851 364 834T380 792Q380 763 360 743T311 724Q285 724 269 740T254 783Q254 812 274 831T323 851Z"
				   horiz-adv-x="602" unicode="Ÿ"/>
			<glyph d="M136 666H637L213 90H385Q440 90 476 107T544 173L501 0H-21L402 575H224Q175 575 141 556T98 510ZM411 856H577L336 696Z"
				   horiz-adv-x="583" unicode="Ź"/>
			<glyph d="M80 472H454L175 73H280Q331 73 356 84T406 137L372 0H-19L260 399H132Q101 399 76 384T43 350ZM296 666H462L221 506Z"
				   horiz-adv-x="443" unicode="ź"/>
			<glyph d="M136 666H637L213 90H385Q440 90 476 107T544 173L501 0H-21L402 575H224Q175 575 141 556T98 510ZM408 864Q439 864 457 844T475 795Q475 760 452 737T394 714Q364 714 345 733T326 783Q326 816 350 840T408 864Z"
				   horiz-adv-x="583" unicode="Ż"/>
			<glyph d="M80 472H454L175 73H280Q331 73 356 84T406 137L372 0H-19L260 399H132Q101 399 76 384T43 350ZM292 684Q323 684 341 664T359 615Q359 580 336 557T278 534Q248 534 229 553T210 603Q210 636 234 660T292 684Z"
				   horiz-adv-x="443" unicode="ż"/>
			<glyph d="M136 666H637L213 90H385Q440 90 476 107T544 173L501 0H-21L402 575H224Q175 575 141 556T98 510ZM278 900L407 826L563 900L382 709Z"
				   horiz-adv-x="583" unicode="Ž"/>
			<glyph d="M80 472H454L175 73H280Q331 73 356 84T406 137L372 0H-19L260 399H132Q101 399 76 384T43 350ZM166 700L295 626L451 700L270 509Z"
				   horiz-adv-x="443" unicode="ž"/>
			<glyph d="M347 692Q394 692 417 674T441 630Q441 605 424 586T376 562Q383 572 383 584Q383 598 374 607T350 617Q323 617 306 585T277 486L179 7Q156 -90 111 -139T-9 -189Q-80 -189 -115 -135L-76 -139Q-26 -139 3 -104T46 6L125 387H44L59 466H141Q163 575 216 633T347 692Z"
				   horiz-adv-x="307" unicode="ſ"/>
			<glyph d="M469 682Q532 682 574 661L529 560Q515 571 493 577T457 583Q426 583 406 555T375 468L360 405H454L438 322H343L289 86Q257 -35 200 -95T47 -155Q4 -155 -47 -134L-6 -28Q-3 -33 18 -44T59 -56Q93 -56 111 -26T149 84L203 322H116L132 405H219Q250 545 310 613T469 682Z"
				   unicode="ƒ"/>
			<glyph d="M760 713Q788 713 806 693T824 645Q824 596 782 550T675 479L680 422Q680 312 626 208T482 45T289 -15Q177 -15 111 55T46 246Q46 358 98 460T241 622T435 682Q524 682 581 639T663 527Q712 549 728 582Q711 588 698 603T686 642Q686 672 707 692T760 713ZM418 589Q362 589 312 538T232 401T202 232Q202 163 228 120T307 78Q364 78 414 128T494 262T525 433Q525 502 498 545T418 589Z"
				   horiz-adv-x="709" unicode="Ơ"/>
			<glyph d="M550 565Q577 565 595 545T613 497Q613 451 574 406Q536 361 480 337Q484 315 484 291Q484 214 447 143T347 30T205 -13Q120 -13 72 40T24 179Q24 257 61 328T163 441T301 483Q420 483 464 385Q502 406 518 434Q501 440 488 455T475 494Q475 524 496 544T550 565ZM290 398Q236 398 196 319T156 165Q156 122 172 96T217 71Q253 71 283 107T331 200T350 302Q350 346 334 372T290 398Z"
				   horiz-adv-x="534" unicode="ơ"/>
			<glyph d="M794 713Q821 713 839 693T857 645Q857 583 789 526T631 460L583 230Q556 99 488 42T282 -15Q177 -15 124 28T72 165Q72 213 83 262L156 598Q160 613 160 622Q160 655 125 666H362Q339 661 323 644T302 603L224 242Q216 208 216 167Q216 120 240 101T313 82Q369 82 408 115T462 216L540 592Q543 613 543 620Q543 655 511 666H675L642 510Q693 520 723 542T762 582Q745 588 732 604T719 642Q719 674 738 693T794 713Z"
				   horiz-adv-x="742" unicode="Ư"/>
			<glyph d="M630 565Q658 565 676 545T694 497Q694 459 666 419T592 350T483 314L441 121Q433 87 433 74Q433 41 483 35L292 -15L307 58Q278 26 233 6T143 -14Q41 -14 41 76Q41 99 48 132L93 355Q96 380 96 388Q96 411 86 421T50 435L253 486L181 156Q177 140 177 120Q177 73 218 73Q251 73 282 105T325 190L359 338Q367 367 367 393Q367 430 319 435L521 486L494 366Q540 376 565 397T598 434Q581 440 568 456T556 494Q556 524 577 544T630 565Z"
				   horiz-adv-x="615" unicode="ư"/>
			<glyph d="M345 682Q392 682 439 668T522 633L489 475Q465 530 422 558T335 587Q294 587 269 566T245 506Q245 475 272 445T363 373Q481 293 481 195Q481 102 411 43T221 -16Q163 -16 103 1T11 43L52 232Q74 154 123 118T233 82Q279 82 305 105T331 167Q331 197 306 224T217 295Q102 372 102 474Q102 562 169 622T345 682ZM221 -36Q242 -36 257 -51T272 -90Q272 -128 241 -155T168 -183H157Q179 -178 196 -159T218 -119Q198 -117 187 -105T177 -80Q177 -63 189 -49T221 -36Z"
				   horiz-adv-x="517" unicode="Ș"/>
			<glyph d="M265 485Q327 485 365 461T404 400Q404 353 331 316Q334 325 334 333Q334 367 310 384T256 402Q226 402 205 387T184 350Q184 331 207 310T271 264Q363 204 363 132Q363 66 306 25T158 -16Q63 -16 0 22L40 181Q46 133 76 100T155 67Q184 67 207 79T231 116Q231 134 212 152T148 200Q64 254 64 327Q64 397 121 441T265 485ZM150 -36Q171 -36 186 -51T201 -90Q201 -128 170 -155T97 -183H86Q108 -178 125 -159T147 -119Q127 -117 116 -105T106 -80Q106 -63 118 -49T150 -36Z"
				   horiz-adv-x="412" unicode="ș"/>
			<glyph d="M114 666H674L636 492Q632 542 609 560T527 578H446L338 76Q335 62 335 49Q335 11 366 0H132Q180 11 194 72L301 578H217Q157 578 126 559T74 493ZM228 -36Q249 -36 264 -51T279 -90Q279 -128 248 -155T175 -183H164Q186 -178 203 -159T225 -119Q205 -117 194 -105T184 -80Q184 -63 196 -49T228 -36Z"
				   horiz-adv-x="601" unicode="Ț"/>
			<glyph d="M281 598L253 466H381L365 390H237L194 195Q182 147 182 117Q182 88 196 76T239 64Q279 64 330 91Q307 40 261 12T155 -16Q45 -16 42 81Q42 104 48 131L107 390H34ZM159 -36Q180 -36 195 -51T210 -90Q210 -128 179 -155T106 -183H95Q117 -178 134 -159T156 -119Q136 -117 125 -105T115 -80Q115 -63 127 -49T159 -36Z"
				   horiz-adv-x="352" unicode="ț"/>
			<glyph d="M353 697L457 506L328 579L172 506Z" horiz-adv-x="486" unicode="ˆ"/>
			<glyph d="M193 700L322 626L478 700L297 509Z" horiz-adv-x="486" unicode="ˇ"/>
			<glyph d="M229 696Q241 658 270 640T335 622Q413 622 474 696Q458 623 413 580T317 537Q276 537 250 566T224 651Q224 662 225 673T229 696Z"
				   horiz-adv-x="486" unicode="˘"/>
			<glyph d="M345 684Q376 684 394 664T412 615Q412 580 389 557T331 534Q301 534 282 553T263 603Q263 636 287 660T345 684Z"
				   horiz-adv-x="486" unicode="˙"/>
			<glyph d="M319 706Q359 706 388 680T418 609Q418 563 389 536T319 510Q279 510 250 536T221 609Q221 654 250 680T319 706ZM319 662Q297 662 282 647T267 609Q267 584 282 569T319 554Q340 554 355 568Q370 583 370 609Q370 634 355 648T319 662Z"
				   horiz-adv-x="486" unicode="˚"/>
			<glyph d="M244 3L322 2Q283 -12 262 -36T242 -85Q242 -124 287 -124Q311 -124 349 -106Q329 -145 296 -164T232 -184Q200 -184 179 -166T158 -119Q158 -86 180 -53T244 3Z"
				   horiz-adv-x="486" unicode="˛"/>
			<glyph d="M476 694Q490 674 490 650Q490 609 460 578T389 548Q357 548 314 572T247 597Q202 598 191 531Q176 549 176 575Q176 615 203 644T273 674Q305 674 351 650T419 627Q445 627 458 644Q471 662 476 694Z"
				   horiz-adv-x="486" unicode="˜"/>
			<glyph d="M387 666H541L294 506ZM194 666H348L102 506Z" horiz-adv-x="486" unicode="˝"/>
			<glyph d="M-72 666H92L103 506Z" horiz-adv-x="0" unicode="̀"/>
			<glyph d="M-30 666H136L-105 506Z" horiz-adv-x="0" unicode="́"/>
			<glyph d="M53 697L157 506L28 579L-128 506Z" horiz-adv-x="0" unicode="̂"/>
			<glyph d="M160 694Q174 674 174 650Q174 609 144 578T73 548Q41 548 -1 572T-69 597Q-114 598 -125 531Q-140 549 -140 575Q-140 615 -112 644T-43 674Q-11 674 35 650T103 627Q129 627 142 644Q155 662 160 694Z"
				   horiz-adv-x="0" unicode="̃"/>
			<glyph d="M-100 696Q-88 658 -58 640T6 622Q84 622 145 696Q129 623 84 580T-12 537Q-53 537 -79 566T-105 651Q-105 662 -103 673T-100 696Z"
				   horiz-adv-x="0" unicode="̆"/>
			<glyph d="M21 715Q54 715 76 697T99 650Q99 624 85 606T51 577T16 557T1 537Q1 527 13 523Q3 518 -9 518Q-24 518 -36 525T-48 549Q-48 566 -37 578T-12 600T12 619T23 642Q23 663 0 663Q-33 663 -71 617L-55 699Q-16 715 21 715Z"
				   horiz-adv-x="0" unicode="̉"/>
			<glyph d="M38 713Q65 713 83 693T101 645Q101 597 59 549T-54 476L-74 522Q-48 530 -26 547T6 582Q-11 588 -24 604T-37 642Q-37 672 -15 692T38 713Z"
				   horiz-adv-x="0" unicode="̛"/>
			<glyph d="M22 -57Q53 -57 71 -76T89 -126Q89 -161 66 -184T8 -207Q-22 -207 -41 -188T-60 -138Q-60 -105 -36 -81T22 -57Z"
				   horiz-adv-x="0" unicode="̣"/>
			<glyph d="M174 459Q209 459 229 437T249 382Q249 345 223 319T159 293Q124 293 104 314T84 369Q84 407 109 433T174 459ZM91 151Q130 151 154 122T179 46Q179 -4 149 -56T66 -142T-64 -178Q-69 -178 -77 -177Q-20 -157 22 -109T69 -8V4Q65 3 61 3Q32 5 17 24T3 66Q3 102 29 126T91 151Z"
				   horiz-adv-x="252" unicode=";"/>
			<glyph d="M277 678H421L256 496Z" horiz-adv-x="466" unicode="΄"/>
			<glyph d="M449 664Q473 664 486 649T500 611Q500 585 482 567Q465 549 439 549Q415 549 400 564T386 602Q386 629 404 646T449 664ZM212 664Q235 664 249 649T263 611Q263 585 245 567T201 549Q177 549 162 564T148 602Q148 629 166 646T212 664ZM306 747H448L294 573Z"
				   horiz-adv-x="504" unicode="΅"/>
			<glyph d="M422 669H541L603 103Q607 62 619 34T651 0H426Q443 4 452 22T461 71Q461 86 458 110T453 156H210L180 104Q150 53 150 30Q150 6 172 0H-35Q-21 3 5 31T63 110ZM419 493L266 243H443ZM192 667H336L171 485Z"
				   horiz-adv-x="704" unicode="Ά"/>
			<glyph d="M135 316Q170 316 190 294T210 240Q210 203 184 177T120 151Q85 151 65 172T45 227Q45 265 70 290T135 316Z"
				   horiz-adv-x="252" unicode="·"/>
			<glyph d="M186 666H637L603 497Q601 543 573 559T498 575H359L319 385H434Q502 383 525 419L492 260Q486 299 416 298H301L258 90H402Q462 90 492 104T555 172L519 0H40Q94 13 110 83L215 569Q222 601 222 613Q221 657 186 666ZM36 667H180L15 485Z"
				   horiz-adv-x="605" unicode="Έ"/>
			<glyph d="M186 666H426Q376 653 362 591L317 385H572L615 587Q620 608 619 616Q619 655 586 666H825Q776 653 762 591L652 76Q648 61 648 49Q648 10 681 0H444Q465 3 481 22T505 72L553 298H299L252 76Q249 62 249 50Q249 10 282 0H46Q66 3 82 22T106 72L216 587Q219 608 219 616Q219 655 186 666ZM33 667H177L12 485Z"
				   horiz-adv-x="768" unicode="Ή"/>
			<glyph d="M185 666H423Q373 653 359 591L250 76Q246 56 246 49Q246 25 256 13T278 0H43Q62 2 79 21T104 72L213 587Q217 607 217 614Q217 639 206 651T185 666ZM33 667H177L12 485Z"
				   horiz-adv-x="366" unicode="Ί"/>
			<glyph d="M440 682Q554 682 619 611T685 422Q685 312 631 208Q578 105 487 45T294 -15Q182 -15 116 55T51 246Q51 358 103 460T246 622T440 682ZM423 589Q367 589 317 538T237 401T207 232Q207 163 233 120T312 78Q369 78 419 128T499 262T530 433Q530 502 503 545T423 589ZM42 667H186L21 485Z"
				   horiz-adv-x="687" unicode="Ό"/>
			<glyph d="M177 666H395Q375 658 375 627Q375 613 381 594L438 386L588 591Q614 628 614 645Q614 656 608 660T598 666H793Q754 654 710 593L467 265L426 76Q422 56 422 49Q422 10 455 0H220Q240 3 258 23T282 72L323 265L235 593Q219 652 177 666ZM33 667H177L12 485Z"
				   horiz-adv-x="694" unicode="Ύ"/>
			<glyph d="M502 681Q624 681 696 608T768 418Q768 325 722 238T596 92H632Q687 92 715 106T783 173L733 0H377Q409 16 459 64T545 166T599 283T618 409Q618 491 580 538T474 585Q383 585 312 481T241 231Q241 158 269 94T341 0H1L22 173Q39 120 65 105T174 92Q108 174 107 297Q107 399 159 488T302 629T502 681ZM83 667H227L62 485Z"
				   horiz-adv-x="825" unicode="Ώ"/>
			<glyph d="M263 487L191 153Q187 125 187 116Q187 75 224 73Q264 73 305 121Q265 -16 152 -16Q108 -16 79 13T51 90Q51 117 60 155L102 347Q109 378 109 389Q109 431 56 435ZM350 664Q374 664 387 649T401 611Q401 585 383 567Q366 549 340 549Q316 549 301 564T287 602Q287 629 305 646T350 664ZM113 664Q136 664 150 649T164 611Q164 585 146 567T102 549Q78 549 63 564T49 602Q49 629 67 646T113 664ZM207 747H349L195 573Z"
				   horiz-adv-x="330" unicode="ΐ"/>
			<glyph d="M422 669H541L603 103Q607 62 619 34T651 0H426Q443 4 452 22T461 71Q461 86 458 110T453 156H210L180 104Q150 53 150 30Q150 6 172 0H-35Q-21 3 5 31T63 110ZM419 493L266 243H443Z"
				   horiz-adv-x="704" unicode="Α"/>
			<glyph d="M122 666H399Q486 666 543 623T601 511Q601 448 559 399T456 341Q510 327 540 284T570 189Q570 104 497 52T301 0H-8Q35 12 51 81L156 585Q159 603 159 611Q159 632 148 647T122 666ZM242 304L196 83H295Q353 83 387 113T421 194Q421 242 392 273T315 304ZM301 583L260 386H345Q392 386 423 417T454 496Q454 531 435 557T370 583Z"
				   horiz-adv-x="609" unicode="Β"/>
			<glyph d="M129 666H566L532 497Q528 544 501 559T428 575H303L200 81Q196 60 196 53Q196 28 208 14T232 0H-16Q38 13 54 83L163 587Q166 607 166 614Q166 654 129 666Z"
				   horiz-adv-x="493" unicode="Γ"/>
			<glyph d="M421 669H541L615 0H-6ZM419 490L171 94H459Z" horiz-adv-x="704" unicode="Δ"/>
			<glyph d="M140 666H591L557 497Q555 543 527 559T452 575H313L273 385H388Q456 383 479 419L446 260Q440 299 370 298H255L212 90H356Q416 90 446 104T509 172L473 0H-6Q48 13 64 83L169 569Q176 601 176 613Q175 657 140 666Z"
				   horiz-adv-x="559" unicode="Ε"/>
			<glyph d="M136 666H637L213 90H385Q440 90 476 107T544 173L501 0H-21L402 575H224Q175 575 141 556T98 510Z"
				   horiz-adv-x="583" unicode="Ζ"/>
			<glyph d="M132 666H372Q322 653 308 591L263 385H518L561 587Q566 608 565 616Q565 655 532 666H771Q722 653 708 591L598 76Q594 61 594 49Q594 10 627 0H390Q411 3 427 22T451 72L499 298H245L198 76Q195 62 195 50Q195 10 228 0H-8Q12 3 28 22T52 72L162 587Q165 608 165 616Q165 655 132 666Z"
				   horiz-adv-x="713" unicode="Η"/>
			<glyph d="M294 413Q304 382 364 382H439Q498 382 519 413L486 258Q486 272 468 282T418 292H341Q311 292 289 281T261 258ZM458 682Q584 682 658 610T732 417Q732 306 678 205T528 44T319 -15Q196 -15 121 58T46 251Q46 364 101 465T252 624T458 682ZM444 589Q380 589 324 541T235 409T202 237Q202 166 236 122T334 78Q400 78 456 127Q513 176 545 260T578 428Q578 502 543 545T444 589Z"
				   horiz-adv-x="734" unicode="Θ"/>
			<glyph d="M134 666H372Q322 653 308 591L199 76Q195 56 195 49Q195 25 205 13T227 0H-8Q11 2 28 21T53 72L162 587Q166 607 166 614Q166 639 155 651T134 666Z"
				   horiz-adv-x="315" unicode="Ι"/>
			<glyph d="M128 666H368Q321 651 308 591L259 366L475 575Q524 624 524 649Q524 661 509 666H728Q684 651 619 589L390 374L525 103Q550 53 577 28T622 0H424L253 339L198 76Q195 57 195 50Q195 10 229 0H-8Q10 2 27 21T52 72L162 587Q165 600 165 614Q165 654 128 666Z"
				   horiz-adv-x="664" unicode="Κ"/>
			<glyph d="M422 669H541L603 103Q607 60 621 31T651 0H426Q440 2 450 21T461 72L419 491L181 104Q152 56 152 30Q152 4 174 0H-36Q-7 4 63 110Z"
				   horiz-adv-x="704" unicode="Λ"/>
			<glyph d="M131 666H347L447 250L712 666H931Q904 659 884 629T856 558L760 112Q755 89 755 64Q755 10 790 0H551Q599 14 621 111L702 480L382 -15L262 480L184 116Q178 90 178 71Q178 11 222 0H-7Q54 16 76 115L169 550Q176 580 176 599Q176 653 131 666Z"
				   horiz-adv-x="881" unicode="Μ"/>
			<glyph d="M105 666H287L504 250L575 590Q578 607 578 613Q578 653 539 666H742Q696 650 686 594L557 -4H458L454 11Q434 80 407 134L245 442L165 60V50Q166 10 203 0H-7Q13 2 30 19T55 68Q164 564 164 577Q164 599 144 629T105 666Z"
				   horiz-adv-x="683" unicode="Ν"/>
			<glyph d="M16 186Q28 133 54 112T139 92H340Q393 92 428 109T503 186L441 0H14ZM152 666H560L525 497Q523 538 498 556T426 575H246Q154 576 116 499ZM157 413Q167 382 226 382H371Q431 382 452 413L420 258Q419 273 400 282T351 292H204Q145 292 124 258Z"
				   unicode="Ξ"/>
			<glyph d="M435 682Q549 682 614 611T680 422Q680 312 626 208Q573 105 482 45T289 -15Q177 -15 111 55T46 246Q46 358 98 460T241 622T435 682ZM418 589Q362 589 312 538T232 401T202 232Q202 163 228 120T307 78Q364 78 414 128T494 262T525 433Q525 502 498 545T418 589Z"
				   horiz-adv-x="682" unicode="Ο"/>
			<glyph d="M132 666H754Q725 657 710 636T690 588L582 85Q577 57 577 47Q578 9 609 0H373Q421 10 436 82L541 577H304L200 84Q196 64 196 50Q196 9 228 0H-7Q37 7 54 82L150 529Q165 591 165 615Q165 657 132 666Z"
				   horiz-adv-x="696" unicode="Π"/>
			<glyph d="M129 666H396Q493 666 550 617T608 489Q608 427 573 372T477 286T340 255Q281 256 238 268L197 76Q194 59 194 50Q194 11 228 0H-8Q11 3 28 22T52 72L163 587Q167 607 167 614Q167 654 129 666ZM307 583L255 351Q282 343 319 342Q385 342 424 383T464 486Q464 525 441 554T375 583Z"
				   horiz-adv-x="594" unicode="Ρ"/>
			<glyph d="M105 666H582L545 491Q542 538 517 556T446 575H292L390 344L164 99H349Q409 99 441 115T505 179L453 0H-42L251 319Z"
				   horiz-adv-x="550" unicode="Σ"/>
			<glyph d="M114 666H674L636 492Q632 542 609 560T527 578H446L338 76Q335 62 335 49Q335 11 366 0H132Q180 11 194 72L301 578H217Q157 578 126 559T74 493Z"
				   horiz-adv-x="601" unicode="Τ"/>
			<glyph d="M85 666H303Q283 658 283 627Q283 613 289 594L346 386L496 591Q522 628 522 645Q522 656 516 660T506 666H701Q662 654 618 593L375 265L334 76Q330 56 330 49Q330 10 363 0H128Q148 3 166 23T190 72L231 265L143 593Q127 652 85 666Z"
				   horiz-adv-x="602" unicode="Υ"/>
			<glyph d="M358 682H579Q532 668 513 585Q614 573 677 515T741 373Q741 258 649 178T407 84Q400 47 400 37Q400 -8 431 -16H211Q257 -5 276 83Q175 97 112 155T49 298Q49 412 143 491T383 584Q388 609 388 626Q386 673 358 682ZM493 491L426 175Q499 186 549 238T600 364Q600 412 572 445T493 491ZM363 493Q286 479 239 427T192 306Q192 255 220 221T296 177Z"
				   horiz-adv-x="747" unicode="Φ"/>
			<glyph d="M104 666H329Q317 662 310 653T304 630Q304 616 313 594L372 449L498 594Q527 626 527 646Q527 654 522 658T510 666H719L711 663Q680 649 631 594L415 345L520 84Q548 12 580 0H358Q379 6 379 37Q379 55 368 84L311 226L188 84Q153 44 153 20Q153 5 166 0H-40Q-30 2 -4 24T53 84L268 331L161 594Q150 621 135 640T104 666Z"
				   horiz-adv-x="628" unicode="Χ"/>
			<glyph d="M102 666H319Q273 647 257 572T236 476T229 438T227 411Q227 358 255 335T331 308L386 570Q390 587 390 609Q390 655 361 666H581Q532 647 516 568L461 307Q590 315 625 471Q652 587 652 611Q652 657 625 666H845Q817 656 800 629T776 565L755 464Q728 339 650 278T440 210Q411 77 411 56Q411 9 442 0H222Q269 14 286 96L310 212Q99 233 97 404Q97 435 105 473Q118 531 124 557T130 609Q129 656 102 666Z"
				   horiz-adv-x="760" unicode="Ψ"/>
			<glyph d="M502 681Q624 681 696 608T768 418Q768 325 722 238T596 92H632Q687 92 715 106T783 173L733 0H377Q409 16 459 64T545 166T599 283T618 409Q618 491 580 538T474 585Q383 585 312 481T241 231Q241 158 269 94T341 0H1L22 173Q39 120 65 105T174 92Q108 174 107 297Q107 399 159 488T302 629T502 681Z"
				   horiz-adv-x="825" unicode="Ω"/>
			<glyph d="M134 666H372Q322 653 308 591L199 76Q195 56 195 49Q195 25 205 13T227 0H-8Q11 2 28 21T53 72L162 587Q166 607 166 614Q166 639 155 651T134 666ZM382 851Q408 851 423 834T439 792Q439 763 419 743T371 724Q345 724 329 740T313 783Q313 812 333 831T382 851ZM184 851Q210 851 225 834T241 792Q241 763 221 743T172 724Q146 724 130 740T115 783Q115 812 135 831T184 851Z"
				   horiz-adv-x="315" unicode="Ϊ"/>
			<glyph d="M85 666H303Q283 658 283 627Q283 613 289 594L346 386L496 591Q522 628 522 645Q522 656 516 660T506 666H701Q662 654 618 593L375 265L334 76Q330 56 330 49Q330 10 363 0H128Q148 3 166 23T190 72L231 265L143 593Q127 652 85 666ZM521 851Q547 851 562 834T578 792Q578 763 558 743T510 724Q484 724 468 740T452 783Q452 812 472 831T521 851ZM323 851Q349 851 364 834T380 792Q380 763 360 743T311 724Q285 724 269 740T254 783Q254 812 274 831T323 851Z"
				   horiz-adv-x="602" unicode="Ϋ"/>
			<glyph d="M486 490L575 413Q550 404 524 370T443 217L438 160V150Q438 102 458 78T506 55L396 -19Q370 -8 350 19T326 82Q256 -14 160 -14Q97 -14 60 28T24 143Q24 229 61 308T160 436T282 485Q330 485 358 450T391 353Q435 462 486 490ZM287 401Q240 401 200 319T160 153Q161 75 214 75Q246 75 277 112Q309 150 328 204Q335 260 335 294Q335 357 323 379T287 401ZM325 678H469L304 496Z"
				   horiz-adv-x="543" unicode="ά"/>
			<glyph d="M278 485Q341 485 379 462T418 401Q418 354 354 325Q354 358 332 382T269 406Q231 406 205 385T179 330Q179 273 265 271H309L293 199H243Q192 199 162 180T133 129Q133 103 155 87T212 72Q257 72 301 90T378 140Q357 69 298 26T164 -16Q93 -16 47 19T1 110Q1 161 38 196T140 244Q111 253 87 277T64 340Q64 402 125 443T278 485ZM265 678H409L244 496Z"
				   horiz-adv-x="414" unicode="έ"/>
			<glyph d="M173 490Q196 482 208 457T222 406Q252 438 297 461T392 485Q493 485 493 394Q493 368 485 330L402 -72Q396 -99 396 -122Q396 -168 421 -181H246L352 306Q358 334 358 346Q357 398 315 398Q286 398 254 368T211 290L148 0H18L90 329Q95 351 95 372Q95 423 46 425ZM311 678H455L290 496Z"
				   unicode="ή"/>
			<glyph d="M263 487L191 153Q187 125 187 116Q187 75 224 73Q264 73 305 121Q265 -16 152 -16Q108 -16 79 13T51 90Q51 117 60 155L102 347Q109 378 109 389Q109 431 56 435ZM193 678H337L172 496Z"
				   horiz-adv-x="330" unicode="ί"/>
			<glyph d="M170 490Q191 482 207 456T223 388Q223 365 217 337L184 184Q179 156 179 139Q179 106 195 88T241 71Q282 71 313 108T366 222T387 352Q387 396 374 421T342 448Q378 489 432 489Q472 489 496 454T521 358Q521 301 500 227T438 99T341 15T219 -13Q142 -13 95 27T49 136Q49 159 55 186L85 325Q92 358 92 372Q92 423 42 425ZM456 664Q480 664 493 649T507 611Q507 585 489 567Q472 549 446 549Q422 549 407 564T393 602Q393 629 411 646T456 664ZM219 664Q242 664 256 649T270 611Q270 585 252 567T208 549Q184 549 169 564T155 602Q155 629 173 646T219 664ZM313 747H455L301 573Z"
				   horiz-adv-x="537" unicode="ΰ"/>
			<glyph d="M486 490L575 413Q550 404 524 370T443 217L438 160V150Q438 102 458 78T506 55L396 -19Q370 -8 350 19T326 82Q256 -14 160 -14Q97 -14 60 28T24 143Q24 229 61 308T160 436T282 485Q330 485 358 450T391 353Q435 462 486 490ZM287 401Q240 401 200 319T160 153Q161 75 214 75Q246 75 277 112Q309 150 328 204Q335 260 335 294Q335 357 323 379T287 401Z"
				   horiz-adv-x="543" unicode="α"/>
			<glyph d="M393 691Q469 691 516 652T564 551Q564 451 422 354Q459 330 483 291T508 207Q508 112 439 49T268 -13Q231 -13 201 -1T158 25L151 -6Q112 -189 -33 -189Q-107 -189 -140 -135Q-112 -139 -102 -139Q-47 -139 -20 -103T19 -6L115 458Q137 568 208 629T393 691ZM372 612Q327 612 294 574T249 472L187 166Q183 150 183 136Q183 106 203 89T258 73Q305 73 338 108T372 201Q372 245 343 277T277 333L335 378Q436 458 436 541Q436 572 419 592T372 612Z"
				   horiz-adv-x="546" unicode="β"/>
			<glyph d="M428 488Q457 488 476 469T495 420Q495 378 442 308L323 140Q278 75 255 10T213 -181H76Q96 -92 141 6Q135 96 123 179T96 331T66 419T21 440L192 485Q214 413 227 326T242 173L330 301Q378 373 378 408Q378 423 371 431T354 440Q350 440 345 439Q357 461 379 474T428 488Z"
				   horiz-adv-x="498" unicode="γ"/>
			<glyph d="M396 698Q463 698 505 667T547 595Q547 558 518 531T439 496Q448 514 448 535Q448 569 425 590T368 612Q330 612 303 592T276 535Q276 507 291 483Q307 459 365 411Q430 355 453 312T476 223Q476 120 403 53T216 -13Q129 -13 76 33T24 155Q24 236 76 300T216 398Q154 457 154 525Q154 602 222 650T396 698ZM267 351Q217 326 185 276T153 168Q153 124 173 97T229 71Q279 71 312 113T346 216Q346 283 286 335Z"
				   horiz-adv-x="513" unicode="δ"/>
			<glyph d="M278 485Q341 485 379 462T418 401Q418 354 354 325Q354 358 332 382T269 406Q231 406 205 385T179 330Q179 273 265 271H309L293 199H243Q192 199 162 180T133 129Q133 103 155 87T212 72Q257 72 301 90T378 140Q357 69 298 26T164 -16Q93 -16 47 19T1 110Q1 161 38 196T140 244Q111 253 87 277T64 340Q64 402 125 443T278 485Z"
				   horiz-adv-x="414" unicode="ε"/>
			<glyph d="M220 691Q276 691 340 686Q404 680 465 680Q515 680 549 686L270 383Q205 315 179 268T153 182Q153 128 219 95Q283 62 318 31T353 -44Q353 -100 305 -141T191 -187Q245 -146 245 -93Q245 -54 188 -24L145 -2Q80 31 51 69T22 159Q22 202 43 243T111 336L345 589L248 592Q194 592 163 571T114 513Q97 541 97 576Q97 625 131 658T220 691Z"
				   horiz-adv-x="430" unicode="ζ"/>
			<glyph d="M173 490Q196 482 208 457T222 406Q252 438 297 461T392 485Q493 485 493 394Q493 368 485 330L402 -72Q396 -99 396 -122Q396 -168 421 -181H246L352 306Q358 334 358 346Q357 398 315 398Q286 398 254 368T211 290L148 0H18L90 329Q95 351 95 372Q95 423 46 425Z"
				   unicode="η"/>
			<glyph d="M340 694Q432 694 481 626T531 444Q531 251 441 119T216 -13Q135 -13 92 26T50 128Q50 139 53 157Q65 216 65 233Q65 278 25 282L150 346Q194 324 194 265Q194 238 178 161Q174 135 174 127Q174 104 186 87T227 71Q282 71 329 148T396 358Q356 348 315 348Q231 348 180 392T129 506Q129 585 189 639T340 694ZM328 609Q296 609 273 582T251 518Q251 428 350 427Q369 427 402 433Q403 444 403 451Q403 541 382 575T328 609Z"
				   horiz-adv-x="537" unicode="θ"/>
			<glyph d="M263 487L191 153Q187 125 187 116Q187 75 224 73Q264 73 305 121Q265 -16 152 -16Q108 -16 79 13T51 90Q51 117 60 155L102 347Q109 378 109 389Q109 431 56 435Z"
				   horiz-adv-x="330" unicode="ι"/>
			<glyph d="M254 486L195 222L246 283L306 359Q355 423 392 450T469 478Q510 478 532 451T555 386Q555 379 554 370Q535 388 504 388Q443 388 317 241L408 95Q455 18 514 19Q498 8 468 -1T407 -11Q357 -11 325 15T228 158L170 104L148 0H17L93 348Q100 378 100 392Q100 427 47 435Z"
				   horiz-adv-x="543" unicode="κ"/>
			<glyph d="M240 694Q291 694 321 642T375 443L431 95Q444 11 479 0H342L304 282L130 0H-40Q-3 16 32 72L275 447L270 478Q250 607 149 606H141Q152 646 178 670T240 694Z"
				   horiz-adv-x="515" unicode="λ"/>
			<glyph d="M117 468H248L183 167Q176 134 176 120Q176 72 218 72Q251 72 281 103T323 178L386 468H517L443 136Q439 112 439 98Q439 54 482 53L363 -19Q317 -1 310 61Q251 -15 204 -15Q169 -15 152 13L110 -181H-58Q-40 -177 -24 -152T1 -88Z"
				   horiz-adv-x="536" unicode="μ"/>
			<glyph d="M430 488Q460 488 478 469T497 422Q497 381 445 310L310 117Q261 45 237 0H149L90 369Q85 403 69 419T21 436L205 485L247 173L337 306Q380 373 380 410Q380 423 373 431T356 440Q352 440 347 439Q358 461 381 474T430 488Z"
				   horiz-adv-x="500" unicode="ν"/>
			<glyph d="M356 698Q422 698 464 669T506 595Q506 557 475 530T397 496Q406 515 406 536Q406 568 385 590T330 612Q282 612 250 574T219 478Q219 427 250 400T338 374H401L384 293H315Q245 293 199 262T153 179Q153 153 167 132T223 92Q293 59 323 28T353 -44Q353 -102 304 -142T190 -187Q245 -149 245 -95Q245 -66 224 -48T155 -8Q22 54 22 162Q22 231 71 278T203 344Q161 358 132 392T103 481Q103 574 176 636T356 698Z"
				   horiz-adv-x="441" unicode="ξ"/>
			<glyph d="M301 483Q387 483 435 430T484 291Q484 214 447 143Q411 73 347 30T205 -13Q120 -13 72 40T24 179Q24 257 62 329T164 442T301 483ZM290 398Q236 398 196 319T156 165Q156 122 172 96T217 71Q253 71 283 107T331 200T350 302Q350 346 334 372T290 398Z"
				   horiz-adv-x="508" unicode="ο"/>
			<glyph d="M666 478L647 387Q614 377 562 377Q540 377 517 378L468 151Q464 129 464 117Q464 76 502 76Q522 76 545 89T582 121Q564 58 524 21T428 -16Q381 -16 354 12T328 85Q328 101 333 126L388 382L283 386L249 227Q228 125 196 66T109 -20L12 59Q68 78 112 136T175 277L199 388Q185 389 180 389Q89 389 44 296Q34 316 34 341Q34 402 79 438T194 474Q254 474 387 467T574 461Q628 461 666 478Z"
				   horiz-adv-x="627" unicode="π"/>
			<glyph d="M320 488Q401 488 451 434T501 294Q501 222 466 152T373 41T249 0Q212 0 185 17T147 57Q139 28 139 3Q139 -24 154 -38T219 -66Q290 -85 322 -106T354 -164Q354 -196 319 -222T237 -250Q260 -233 260 -212Q260 -193 235 -182T156 -155Q78 -132 49 -96T20 -1Q20 29 33 96L62 239Q113 488 320 488ZM304 403Q264 403 233 361T187 244T172 148Q172 82 237 82Q291 82 329 152T367 306Q367 403 304 403Z"
				   horiz-adv-x="523" unicode="ρ"/>
			<glyph d="M326 484Q380 484 405 461T431 405Q431 364 398 325Q366 286 319 279Q330 297 330 326Q330 353 318 375T280 397Q232 397 194 330T156 192Q156 124 217 93Q281 60 313 30T346 -44Q346 -101 299 -141T184 -188Q239 -147 239 -96Q239 -73 223 -55T146 -6Q24 55 24 167Q24 247 65 320T176 439T326 484Z"
				   horiz-adv-x="424" unicode="ς"/>
			<glyph d="M583 477L564 386Q535 378 475 378Q460 378 445 379Q475 328 475 260Q475 154 395 70T208 -13Q121 -13 72 39T24 182Q24 304 107 387T313 471Q348 471 393 466T485 462Q543 462 583 477ZM301 386Q239 386 198 321T156 167Q156 73 218 71Q271 71 311 150T352 322Q352 356 345 383Q326 386 301 386Z"
				   horiz-adv-x="544" unicode="σ"/>
			<glyph d="M492 478L473 387Q439 377 390 377Q343 377 319 380L279 195Q266 143 266 117Q266 88 280 76T323 64Q360 64 409 91Q360 -15 239 -15Q186 -15 157 11T128 84Q128 94 129 106T190 386Q182 387 172 387Q131 387 96 362T45 296Q35 314 35 342Q35 401 78 436T192 472Q239 472 300 466T404 461Q451 461 492 478Z"
				   horiz-adv-x="453" unicode="τ"/>
			<glyph d="M170 490Q191 482 207 456T223 388Q223 365 217 337L184 184Q179 156 179 139Q179 106 195 88T241 71Q282 71 313 108T366 222T387 352Q387 396 374 421T342 448Q378 489 432 489Q472 489 496 454T521 358Q521 301 500 227T438 99T341 15T219 -13Q142 -13 95 27T49 136Q49 159 55 186L85 325Q92 358 92 372Q92 423 42 425Z"
				   horiz-adv-x="537" unicode="υ"/>
			<glyph d="M222 485Q249 485 270 473T296 444Q237 430 196 359T156 202Q156 100 247 71L288 265Q313 380 369 432T515 485Q588 485 634 437T681 309Q681 170 591 83T355 -18L323 -187H192L229 -15Q135 3 82 61T30 207Q30 287 57 351T128 450T222 485ZM501 398Q440 398 412 259L372 69Q452 85 502 152T552 316Q551 398 501 398Z"
				   horiz-adv-x="702" unicode="φ"/>
			<glyph d="M429 488Q458 488 476 469T495 422Q495 397 479 368T437 305T295 125L347 -70Q369 -152 426 -154L252 -199L193 38L97 -93Q69 -130 69 -152Q69 -173 96 -181H-78L165 141L109 347Q84 437 21 436L202 485L266 222L332 310Q379 374 379 410Q379 424 372 432T355 440Q349 440 345 439Q376 488 429 488Z"
				   horiz-adv-x="498" unicode="χ"/>
			<glyph d="M343 666H513L390 73Q468 94 514 172T560 355Q560 439 521 448Q551 489 606 489Q640 489 666 458T693 358Q693 213 602 109T373 -14L338 -187H207L244 -13Q154 -1 104 45T55 163Q55 190 61 217L84 325Q90 352 90 372Q90 423 41 425L167 490Q188 482 204 457T220 388Q220 365 214 337L190 221Q184 192 184 173Q184 93 262 71L368 563Q374 591 374 611Q374 653 343 666Z"
				   horiz-adv-x="710" unicode="ψ"/>
			<glyph d="M593 487Q642 487 671 449T700 344Q700 294 681 223T626 99T542 16T442 -13Q400 -13 368 7T323 60Q267 -13 183 -13Q113 -13 71 38T30 179Q30 248 54 325T127 444T230 486Q256 486 277 473T303 444Q264 437 227 396T173 290T155 168Q155 71 205 71Q262 71 284 172L309 291H429L404 174Q399 142 399 131Q400 71 448 71Q500 71 535 163T570 338Q570 378 554 409T510 446Q522 463 546 475T593 487Z"
				   horiz-adv-x="719" unicode="ω"/>
			<glyph d="M263 487L191 153Q187 125 187 116Q187 75 224 73Q264 73 305 121Q265 -16 152 -16Q108 -16 79 13T51 90Q51 117 60 155L102 347Q109 378 109 389Q109 431 56 435ZM328 675Q354 675 369 658T385 616Q385 587 365 567T317 548Q291 548 275 564T259 607Q259 636 279 655T328 675ZM130 675Q156 675 171 658T187 616Q187 587 167 567T118 548Q92 548 76 564T61 607Q61 636 81 655T130 675Z"
				   horiz-adv-x="330" unicode="ϊ"/>
			<glyph d="M170 490Q191 482 207 456T223 388Q223 365 217 337L184 184Q179 156 179 139Q179 106 195 88T241 71Q282 71 313 108T366 222T387 352Q387 396 374 421T342 448Q378 489 432 489Q472 489 496 454T521 358Q521 301 500 227T438 99T341 15T219 -13Q142 -13 95 27T49 136Q49 159 55 186L85 325Q92 358 92 372Q92 423 42 425ZM440 675Q466 675 481 658T497 616Q497 587 477 567T429 548Q403 548 387 564T371 607Q371 636 391 655T440 675ZM242 675Q268 675 283 658T299 616Q299 587 279 567T230 548Q204 548 188 564T173 607Q173 636 193 655T242 675Z"
				   horiz-adv-x="537" unicode="ϋ"/>
			<glyph d="M301 483Q387 483 435 430T484 291Q484 214 447 143Q411 73 347 30T205 -13Q120 -13 72 40T24 179Q24 257 62 329T164 442T301 483ZM290 398Q236 398 196 319T156 165Q156 122 172 96T217 71Q253 71 283 107T331 200T350 302Q350 346 334 372T290 398ZM318 678H462L297 496Z"
				   horiz-adv-x="508" unicode="ό"/>
			<glyph d="M170 490Q191 482 207 456T223 388Q223 365 217 337L184 184Q179 156 179 139Q179 106 195 88T241 71Q282 71 313 108T366 222T387 352Q387 396 374 421T342 448Q378 489 432 489Q472 489 496 454T521 358Q521 301 500 227T438 99T341 15T219 -13Q142 -13 95 27T49 136Q49 159 55 186L85 325Q92 358 92 372Q92 423 42 425ZM310 678H454L289 496Z"
				   horiz-adv-x="537" unicode="ύ"/>
			<glyph d="M593 487Q642 487 671 449T700 344Q700 294 681 223T626 99T542 16T442 -13Q400 -13 368 7T323 60Q267 -13 183 -13Q113 -13 71 38T30 179Q30 248 54 325T127 444T230 486Q256 486 277 473T303 444Q264 437 227 396T173 290T155 168Q155 71 205 71Q262 71 284 172L309 291H429L404 174Q399 142 399 131Q400 71 448 71Q500 71 535 163T570 338Q570 378 554 409T510 446Q522 463 546 475T593 487ZM407 678H551L386 496Z"
				   horiz-adv-x="719" unicode="ώ"/>
			<glyph d="M140 666H591L557 497Q555 543 527 559T452 575H313L273 385H388Q456 383 479 419L446 260Q440 299 370 298H255L212 90H356Q416 90 446 104T509 172L473 0H-6Q48 13 64 83L169 569Q176 601 176 613Q175 657 140 666ZM274 856H438L449 696Z"
				   horiz-adv-x="559" unicode="Ѐ"/>
			<glyph d="M140 666H591L557 497Q555 543 527 559T452 575H313L273 385H388Q456 383 479 419L446 260Q440 299 370 298H255L212 90H356Q416 90 446 104T509 172L473 0H-6Q48 13 64 83L169 569Q176 601 176 613Q175 657 140 666ZM495 851Q521 851 536 834T552 792Q552 763 532 743T484 724Q458 724 442 740T426 783Q426 812 446 831T495 851ZM297 851Q323 851 338 834T354 792Q354 763 334 743T285 724Q259 724 243 740T228 783Q228 812 248 831T297 851Z"
				   horiz-adv-x="559" unicode="Ё"/>
			<glyph d="M114 666H686L648 492Q644 542 621 560T539 578H446L406 395Q472 426 549 426Q633 426 684 376T735 244Q735 122 653 44T441 -35Q506 -4 545 67T585 224Q585 277 558 304T489 332Q436 332 388 309L338 76Q335 58 335 49Q336 9 365 0H134Q180 10 194 72L301 578H217Q157 578 126 559T74 493Z"
				   horiz-adv-x="759" unicode="Ђ"/>
			<glyph d="M129 666H566L532 497Q528 544 501 559T428 575H303L200 81Q196 60 196 53Q196 28 208 14T232 0H-16Q38 13 54 83L163 587Q166 607 166 614Q166 654 129 666ZM387 856H553L312 696Z"
				   horiz-adv-x="493" unicode="Ѓ"/>
			<glyph d="M454 679Q505 679 543 667T600 642L564 473Q550 533 516 560T441 587Q375 587 315 529T224 382H396Q460 382 483 416L450 257Q441 295 378 295H204Q201 273 201 250Q201 174 237 127T340 81Q382 81 427 101T510 170L484 51Q450 18 396 1T286 -15Q180 -15 113 57T47 245Q47 354 102 456T251 618T454 679Z"
				   horiz-adv-x="555" unicode="Є"/>
			<glyph d="M345 682Q392 682 439 668T522 633L489 475Q465 530 422 558T335 587Q294 587 269 566T245 506Q245 475 272 445T363 373Q481 293 481 195Q481 102 411 43T221 -16Q163 -16 103 1T11 43L52 232Q74 154 123 118T233 82Q279 82 305 105T331 167Q331 197 306 224T217 295Q102 372 102 474Q102 562 169 622T345 682Z"
				   horiz-adv-x="517" unicode="Ѕ"/>
			<glyph d="M134 666H372Q322 653 308 591L199 76Q195 56 195 49Q195 25 205 13T227 0H-8Q11 2 28 21T53 72L162 587Q166 607 166 614Q166 639 155 651T134 666Z"
				   horiz-adv-x="315" unicode="І"/>
			<glyph d="M134 666H372Q322 653 308 591L199 76Q195 56 195 49Q195 25 205 13T227 0H-8Q11 2 28 21T53 72L162 587Q166 607 166 614Q166 639 155 651T134 666ZM382 851Q408 851 423 834T439 792Q439 763 419 743T371 724Q345 724 329 740T313 783Q313 812 333 831T382 851ZM184 851Q210 851 225 834T241 792Q241 763 221 743T172 724Q146 724 130 740T115 783Q115 812 135 831T184 851Z"
				   horiz-adv-x="315" unicode="Ї"/>
			<glyph d="M140 666H384Q334 653 317 574L222 124Q201 23 156 -27T33 -78Q-7 -78 -39 -63T-87 -24Q-69 -29 -51 -29Q41 -29 81 145L170 565Q177 598 177 612Q177 657 140 666Z"
				   horiz-adv-x="325" unicode="Ј"/>
			<glyph d="M416 669H532L561 394H687Q788 394 843 349T898 232Q898 132 818 66T619 0H422Q438 5 447 24T456 71L415 491L182 104Q152 54 152 30Q152 4 174 0H-35Q-19 3 7 32T64 110ZM571 307L594 90H609Q674 90 714 127T754 223Q754 260 731 283T659 307Z"
				   horiz-adv-x="919" unicode="Љ"/>
			<glyph d="M132 666H370Q349 661 331 641T307 591L262 385H503L547 587Q550 608 550 616Q550 635 541 648T517 666H755Q733 661 715 641T692 591L650 394H715Q817 394 871 349T926 232Q926 132 846 66T646 0H376Q423 12 437 72L484 298H244L197 76Q194 62 194 50Q194 10 226 0H-6Q38 12 52 72L162 587Q165 602 165 616Q165 657 132 666ZM632 307L585 90H645Q704 90 743 128T782 223Q782 260 759 283T689 307Z"
				   horiz-adv-x="947" unicode="Њ"/>
			<glyph d="M114 666H687L648 492Q645 542 621 560T521 578H446L406 394Q474 426 550 426Q631 426 678 388T726 273Q726 244 714 189Q688 66 688 51Q688 12 720 0H485Q507 5 524 30T550 96L574 206Q580 237 580 253Q580 332 492 332Q441 332 388 308L338 76Q335 62 335 49Q335 11 366 0H133Q179 10 194 72L301 578H217Q159 578 127 559T74 493Z"
				   horiz-adv-x="786" unicode="Ћ"/>
			<glyph d="M128 666H368Q321 651 308 591L259 366L475 575Q524 624 524 649Q524 661 509 666H728Q684 651 619 589L390 374L525 103Q550 53 577 28T622 0H424L253 339L198 76Q195 57 195 50Q195 10 229 0H-8Q10 2 27 21T52 72L162 587Q165 600 165 614Q165 654 128 666ZM461 856H627L386 696Z"
				   horiz-adv-x="664" unicode="Ќ"/>
			<glyph d="M131 666H370Q337 654 321 624T294 539L229 236L560 570Q566 594 566 612Q566 656 533 666H771Q742 658 726 630T699 548L599 83Q594 59 594 49Q594 7 627 0H392Q421 6 436 35T465 125L530 428L200 94Q193 66 193 50Q193 7 227 0H-8Q8 2 25 19T53 76L152 537Q165 597 165 617Q165 656 131 666ZM317 856H481L493 696Z"
				   horiz-adv-x="713" unicode="Ѝ"/>
			<glyph d="M87 666H315Q284 659 284 617Q284 607 286 594T376 310L557 572Q581 605 581 633Q581 658 556 666H777Q745 660 668 551L376 137Q316 52 260 16T136 -20Q71 -20 41 0L74 147Q96 87 154 87Q216 87 275 176L145 572Q119 655 87 666ZM575 880L621 849Q539 710 430 710Q376 710 347 734T319 792Q319 818 340 838T403 859Q400 843 400 828Q401 772 448 772Q476 772 506 796T575 880Z"
				   horiz-adv-x="685" unicode="Ў"/>
			<glyph d="M134 666H369Q321 652 307 584L202 92H439L543 582Q547 601 547 616Q547 655 514 666H749Q722 657 708 636T688 584L592 132Q579 72 579 50Q579 9 610 0H445Q398 0 352 -46T273 -171H265Q261 -84 232 -42T158 0H-11Q10 4 28 24T53 77L160 580Q166 606 166 617Q166 655 134 666Z"
				   horiz-adv-x="696" unicode="Џ"/>
			<glyph d="M422 669H541L603 103Q607 62 619 34T651 0H426Q443 4 452 22T461 71Q461 86 458 110T453 156H210L180 104Q150 53 150 30Q150 6 172 0H-35Q-21 3 5 31T63 110ZM419 493L266 243H443Z"
				   horiz-adv-x="704" unicode="А"/>
			<glyph d="M132 666H591L557 497Q553 544 526 559T453 575H304L267 405H336Q438 405 496 360T555 241Q555 137 472 68T267 0H-8Q18 6 32 25T57 93L157 561Q165 596 165 615Q165 654 132 666ZM249 319L201 90H267Q326 90 366 130T407 231Q407 269 383 294T310 319Z"
				   horiz-adv-x="577" unicode="Б"/>
			<glyph d="M122 666H399Q486 666 543 623T601 511Q601 448 559 399T456 341Q510 327 540 284T570 189Q570 104 497 52T301 0H-8Q35 12 51 81L156 585Q159 603 159 611Q159 632 148 647T122 666ZM242 304L196 83H295Q353 83 387 113T421 194Q421 242 392 273T315 304ZM301 583L260 386H345Q392 386 423 417T454 496Q454 531 435 557T370 583Z"
				   horiz-adv-x="609" unicode="В"/>
			<glyph d="M129 666H566L532 497Q528 544 501 559T428 575H303L200 81Q196 60 196 53Q196 28 208 14T232 0H-16Q38 13 54 83L163 587Q166 607 166 614Q166 654 129 666Z"
				   horiz-adv-x="493" unicode="Г"/>
			<glyph d="M420 669H540L599 118Q600 107 605 100T628 94H658L601 -171H592Q592 -131 576 -89T532 -24T463 0H161Q103 0 46 -51T-42 -171H-50L6 94H33Q50 94 57 100T70 116ZM418 490L173 94H456Z"
				   horiz-adv-x="713" unicode="Д"/>
			<glyph d="M140 666H591L557 497Q555 543 527 559T452 575H313L273 385H388Q456 383 479 419L446 260Q440 299 370 298H255L212 90H356Q416 90 446 104T509 172L473 0H-6Q48 13 64 83L169 569Q176 601 176 613Q175 657 140 666Z"
				   horiz-adv-x="559" unicode="Е"/>
			<glyph d="M117 666H339Q311 658 311 631Q311 600 342 549L456 363L497 554Q503 580 503 605Q503 628 494 645T472 666H695Q673 659 654 627T627 553L586 364L773 550Q841 618 841 646Q841 658 825 666H1057Q1042 663 1015 647T956 605T697 355L825 119Q884 13 926 0H737L575 312L533 111Q524 73 524 55Q524 29 533 15T554 0H332Q381 12 403 110L445 311L161 0H-49Q-37 2 -10 20T51 68T341 371L233 550Q203 599 172 629T117 666Z"
				   horiz-adv-x="978" unicode="Ж"/>
			<glyph d="M354 682Q438 682 492 639T546 529Q546 456 498 406T369 336Q421 322 456 285T491 194Q491 102 412 43T208 -15Q66 -15 3 37L41 215Q53 156 95 118T205 80Q266 80 304 112T343 195Q343 240 297 265T165 291L184 382H245Q313 382 356 414T399 506Q399 539 377 562T316 585Q260 585 207 550T112 451L153 642Q246 682 354 682Z"
				   horiz-adv-x="537" unicode="З"/>
			<glyph d="M131 666H370Q337 654 321 624T294 539L229 236L560 570Q566 594 566 612Q566 656 533 666H771Q742 658 726 630T699 548L599 83Q594 59 594 49Q594 7 627 0H392Q421 6 436 35T465 125L530 428L200 94Q193 66 193 50Q193 7 227 0H-8Q8 2 25 19T53 76L152 537Q165 597 165 617Q165 656 131 666Z"
				   horiz-adv-x="713" unicode="И"/>
			<glyph d="M131 666H370Q337 654 321 624T294 539L229 236L560 570Q566 594 566 612Q566 656 533 666H771Q742 658 726 630T699 548L599 83Q594 59 594 49Q594 7 627 0H392Q421 6 436 35T465 125L530 428L200 94Q193 66 193 50Q193 7 227 0H-8Q8 2 25 19T53 76L152 537Q165 597 165 617Q165 656 131 666ZM595 880L641 849Q559 710 450 710Q396 710 367 734T339 792Q339 818 360 838T423 859Q420 843 420 828Q421 772 468 772Q496 772 526 796T595 880Z"
				   horiz-adv-x="713" unicode="Й"/>
			<glyph d="M128 666H368Q321 651 308 591L259 366L475 575Q524 624 524 649Q524 661 509 666H728Q684 651 619 589L390 374L525 103Q550 53 577 28T622 0H424L253 339L198 76Q195 57 195 50Q195 10 229 0H-8Q10 2 27 21T52 72L162 587Q165 600 165 614Q165 654 128 666Z"
				   horiz-adv-x="664" unicode="К"/>
			<glyph d="M422 669H541L603 103Q607 60 621 31T651 0H426Q440 2 450 21T461 72L419 491L181 104Q152 56 152 30Q152 4 174 0H-36Q-7 4 63 110Z"
				   horiz-adv-x="704" unicode="Л"/>
			<glyph d="M131 666H347L447 250L712 666H931Q904 659 884 629T856 558L760 112Q755 89 755 64Q755 10 790 0H551Q599 14 621 111L702 480L382 -15L262 480L184 116Q178 90 178 71Q178 11 222 0H-7Q54 16 76 115L169 550Q176 580 176 599Q176 653 131 666Z"
				   horiz-adv-x="881" unicode="М"/>
			<glyph d="M132 666H372Q322 653 308 591L263 385H518L561 587Q566 608 565 616Q565 655 532 666H771Q722 653 708 591L598 76Q594 61 594 49Q594 10 627 0H390Q411 3 427 22T451 72L499 298H245L198 76Q195 62 195 50Q195 10 228 0H-8Q12 3 28 22T52 72L162 587Q165 608 165 616Q165 655 132 666Z"
				   horiz-adv-x="713" unicode="Н"/>
			<glyph d="M435 682Q549 682 614 611T680 422Q680 312 626 208Q573 105 482 45T289 -15Q177 -15 111 55T46 246Q46 358 98 460T241 622T435 682ZM418 589Q362 589 312 538T232 401T202 232Q202 163 228 120T307 78Q364 78 414 128T494 262T525 433Q525 502 498 545T418 589Z"
				   horiz-adv-x="682" unicode="О"/>
			<glyph d="M132 666H754Q725 657 710 636T690 588L582 85Q577 57 577 47Q578 9 609 0H373Q421 10 436 82L541 577H304L200 84Q196 64 196 50Q196 9 228 0H-7Q37 7 54 82L150 529Q165 591 165 615Q165 657 132 666Z"
				   horiz-adv-x="696" unicode="П"/>
			<glyph d="M129 666H396Q493 666 550 617T608 489Q608 427 573 372T477 286T340 255Q281 256 238 268L197 76Q194 59 194 50Q194 11 228 0H-8Q11 3 28 22T52 72L163 587Q167 607 167 614Q167 654 129 666ZM307 583L255 351Q282 343 319 342Q385 342 424 383T464 486Q464 525 441 554T375 583Z"
				   horiz-adv-x="594" unicode="Р"/>
			<glyph d="M454 679Q505 679 543 667T600 642L564 473Q548 534 515 560T441 587Q381 587 325 538T236 410T203 250Q203 173 238 127T340 81Q382 81 427 101T510 170L484 51Q450 18 396 1T286 -16Q178 -16 112 57T47 245Q47 354 102 456T251 618T454 679Z"
				   horiz-adv-x="555" unicode="С"/>
			<glyph d="M114 666H674L636 492Q632 542 609 560T527 578H446L338 76Q335 62 335 49Q335 11 366 0H132Q180 11 194 72L301 578H217Q157 578 126 559T74 493Z"
				   horiz-adv-x="601" unicode="Т"/>
			<glyph d="M87 666H315Q284 659 284 617Q284 607 286 594T376 310L557 572Q581 605 581 633Q581 658 556 666H777Q745 660 668 551L376 137Q316 52 260 16T136 -20Q71 -20 41 0L74 147Q96 87 154 87Q216 87 275 176L145 572Q119 655 87 666Z"
				   horiz-adv-x="685" unicode="У"/>
			<glyph d="M358 682H579Q532 668 513 585Q614 573 677 515T741 373Q741 258 649 178T407 84Q400 47 400 37Q400 -8 431 -16H211Q257 -5 276 83Q175 97 112 155T49 298Q49 412 143 491T383 584Q388 609 388 626Q386 673 358 682ZM493 491L426 175Q499 186 549 238T600 364Q600 412 572 445T493 491ZM363 493Q286 479 239 427T192 306Q192 255 220 221T296 177Z"
				   horiz-adv-x="747" unicode="Ф"/>
			<glyph d="M104 666H329Q317 662 310 653T304 630Q304 616 313 594L372 449L498 594Q527 626 527 646Q527 654 522 658T510 666H719L711 663Q680 649 631 594L415 345L520 84Q548 12 580 0H358Q379 6 379 37Q379 55 368 84L311 226L188 84Q153 44 153 20Q153 5 166 0H-40Q-30 2 -4 24T53 84L268 331L161 594Q150 621 135 640T104 666Z"
				   horiz-adv-x="628" unicode="Х"/>
			<glyph d="M134 666H368Q321 653 307 584L202 92H439L543 582Q547 601 547 616Q547 656 514 666H748Q702 651 688 584L592 135Q590 127 590 116Q589 92 619 92H647L591 -171H583Q579 -96 544 -48T453 0H-10Q13 5 29 25T53 77L160 580Q166 605 166 617Q166 653 134 666Z"
				   horiz-adv-x="706" unicode="Ц"/>
			<glyph d="M104 666H340Q312 655 297 630T275 570Q245 441 245 414Q245 333 332 333Q385 333 437 358L479 556Q489 599 489 615Q489 657 456 666H695Q665 656 650 632T627 567L526 95Q520 69 520 50Q520 10 551 0H309Q364 14 383 108L418 271Q353 240 274 239Q193 239 145 277T98 393Q98 421 107 461L129 566Q136 594 136 614Q136 654 104 666Z"
				   horiz-adv-x="638" unicode="Ч"/>
			<glyph d="M134 666H364Q317 653 303 584L198 92H388L491 582Q495 601 495 616Q495 655 463 666H693Q647 652 633 584L527 92H718L821 582Q825 602 825 616Q825 655 793 666H1023Q977 652 963 584L859 100Q852 70 852 50Q852 10 883 0H-10Q12 4 29 25T53 77L160 580Q166 608 166 617Q165 654 134 666Z"
				   horiz-adv-x="970" unicode="Ш"/>
			<glyph d="M134 666H364Q316 653 303 584L198 92H388L491 582Q495 604 495 616Q495 655 463 666H692Q647 653 633 584L527 92H718L821 582Q825 605 825 616Q825 655 793 666H1022Q977 652 963 584L869 144Q864 124 864 115Q864 92 892 92H922L865 -171H857Q852 -95 818 -47T727 0H-10Q12 5 29 25T53 77L160 580Q166 606 166 617Q165 655 134 666Z"
				   horiz-adv-x="980" unicode="Щ"/>
			<glyph d="M114 666H515Q462 653 444 570L410 411H473Q576 411 632 364T688 243Q688 139 607 69T402 0H132Q156 4 171 24T198 93L301 578H217Q157 578 126 559T74 493ZM391 325L342 90H402Q463 90 503 132T544 234Q544 273 520 299T446 325Z"
				   horiz-adv-x="708" unicode="Ъ"/>
			<glyph d="M132 666H374Q321 653 303 570L269 411H332Q434 411 490 364T547 243Q547 139 466 69T263 0H-8Q16 5 31 24T57 93L157 560Q165 595 165 615Q164 642 154 651T132 666ZM250 325L201 90H261Q323 90 363 132T403 234Q403 273 378 299T306 325ZM688 666H927Q877 653 863 591L753 76Q750 58 750 49Q750 25 759 13T781 0H547Q565 2 582 20T607 72L717 587Q721 607 721 614Q721 639 710 651T688 666Z"
				   horiz-adv-x="869" unicode="Ы"/>
			<glyph d="M132 666H374Q321 653 303 570L269 411H337Q439 411 495 364T552 243Q552 139 471 69T268 0H-9Q15 5 30 24T57 93L157 560Q165 595 165 615Q165 641 154 651T132 666ZM250 325L201 90H266Q327 90 367 131T408 234Q408 273 384 299T310 325Z"
				   horiz-adv-x="572" unicode="Ь"/>
			<glyph d="M315 682Q427 682 492 609T557 419Q557 309 503 206T359 44T161 -15Q109 -15 66 -4T1 22L37 191Q52 131 88 104T173 78Q242 78 297 134T384 295H210Q145 295 122 261L155 421Q164 382 227 382H402Q404 400 404 420Q404 496 366 540T264 585Q220 585 173 559T92 486L124 639Q212 682 315 682Z"
				   horiz-adv-x="561" unicode="Э"/>
			<glyph d="M735 682Q847 682 910 612T974 422Q974 313 921 209T780 45T591 -15Q484 -15 418 55T353 246Q353 259 356 298H243L196 76Q193 57 193 50Q193 9 225 0H-6Q37 11 52 72L162 587Q165 601 165 616Q165 657 132 666H369Q348 661 330 641T306 591L261 385H375Q417 518 516 600T735 682ZM717 589Q663 589 614 535T537 397T509 232Q509 163 534 120T610 78Q662 78 709 125T788 259T820 433Q820 504 793 546T717 589Z"
				   horiz-adv-x="976" unicode="Ю"/>
			<glyph d="M382 666H673Q623 654 604 563L505 100Q497 66 497 46Q497 10 529 0H289Q313 4 331 29T359 98L394 262H369Q324 262 278 194L145 0H-59Q-50 1 -23 17T34 76L80 140Q166 270 229 293Q178 308 143 347T108 447Q108 545 184 605T382 666ZM387 575Q328 575 289 536T250 441Q250 404 274 378T352 352H413L461 575Z"
				   horiz-adv-x="615" unicode="Я"/>
			<glyph d="M513 486L440 151Q430 111 430 85Q430 39 482 34L288 -15L300 64Q268 25 224 5T141 -15Q86 -15 55 28T24 141Q24 226 65 304T175 429T321 475Q352 475 385 469T431 463Q469 463 513 486ZM313 401Q256 401 208 322T160 155Q160 79 209 79Q230 79 254 100Q279 121 296 152T331 258T350 359Q350 401 313 401Z"
				   unicode="а"/>
			<glyph d="M570 714Q555 646 513 606Q471 567 404 564Q317 562 296 553T258 525T229 474T208 405Q285 458 358 458Q421 458 460 411T500 288Q500 209 464 138T366 27T230 -13Q137 -13 87 41T37 195Q37 226 43 264Q68 442 158 548T394 670Q494 679 524 689T570 714ZM291 365Q244 365 188 322Q165 225 165 175Q165 71 236 71Q271 71 300 100T346 179T363 272Q363 312 344 338T291 365Z"
				   horiz-adv-x="526" unicode="б"/>
			<glyph d="M313 484Q386 484 431 450T476 363Q476 319 445 288T361 244Q403 234 429 207T455 140Q455 74 389 30T220 -14Q129 -14 76 38T24 178Q24 257 61 328T166 441T313 484ZM155 197Q153 184 153 165Q154 64 235 64Q277 64 302 85T327 138Q327 197 231 197ZM297 406Q262 406 227 370T171 269H232Q350 269 350 350Q350 374 336 390T297 406Z"
				   horiz-adv-x="487" unicode="в"/>
			<glyph d="M239 486Q307 486 348 452T389 364Q389 309 358 269T262 200Q183 164 167 154T144 133T137 108Q137 89 153 78T193 68Q237 68 281 97T357 173L327 24Q263 -15 177 -15Q98 -15 55 19T13 107Q13 166 49 205T161 276Q217 300 244 317T272 362Q272 398 219 400Q136 400 103 320Q63 347 63 385Q63 429 111 457T239 486Z"
				   horiz-adv-x="402" unicode="г"/>
			<glyph d="M355 694Q440 694 485 633T531 466Q531 343 486 226T370 48T211 -13Q129 -13 78 37T27 174Q27 250 61 319T156 430T290 472Q356 472 401 430L402 465Q402 528 374 566T294 604Q215 604 144 539Q164 606 224 650T355 694ZM297 387Q240 387 199 323T158 163Q158 120 175 95T221 71Q276 71 324 148T391 345Q346 387 297 387Z"
				   horiz-adv-x="527" unicode="д"/>
			<glyph d="M333 484Q389 484 423 455T458 377Q458 299 372 240T154 174L157 159Q163 121 186 97T252 74Q291 74 334 92T410 140Q390 73 329 28T193 -16Q115 -16 69 31T24 160Q24 242 67 318T181 439T333 484ZM301 406Q259 406 213 358T154 243Q232 249 288 281Q345 314 345 362Q345 382 333 394T301 406Z"
				   horiz-adv-x="456" unicode="е"/>
			<glyph d="M227 485Q294 485 330 439T366 317Q366 284 361 261L438 368L460 468H580L523 196L641 357Q735 485 854 485Q896 485 919 464T942 408Q942 369 910 336T836 295Q848 312 848 339Q848 397 807 397Q768 397 732 331T696 193Q697 74 781 73Q838 73 894 138Q872 63 823 23T715 -16Q648 -16 612 29T576 151Q576 180 581 207L501 95L482 0H360L418 269L302 112Q208 -16 89 -16Q46 -16 23 4T0 60Q0 98 31 131T106 174Q94 157 94 130Q94 71 135 71Q175 71 210 137T246 275Q245 396 161 396Q104 396 48 331Q70 405 118 445T227 485Z"
				   horiz-adv-x="937" unicode="ж"/>
			<glyph d="M240 485Q315 485 360 452T406 365Q406 319 374 287T284 241Q327 230 351 202T375 137Q375 68 311 26T144 -15Q55 -15 -6 16L19 138Q34 106 67 85T146 64Q194 64 220 85T247 141Q247 168 223 183T157 199H106L122 272H160Q216 272 251 292T287 353Q287 377 269 391T222 406Q145 406 102 327Q67 352 67 389Q67 434 115 459T240 485Z"
				   horiz-adv-x="418" unicode="з"/>
			<glyph d="M253 486L181 156Q177 140 177 120Q177 73 218 73Q251 73 282 105T323 181L359 338Q367 376 367 393Q367 415 354 423T319 435L521 486L438 109Q436 100 434 91T433 74Q433 39 483 35L292 -15L307 58Q278 26 233 6T143 -14Q41 -14 41 76Q41 99 48 132L90 338Q96 371 96 389Q97 432 50 435Z"
				   horiz-adv-x="537" unicode="и"/>
			<glyph d="M253 486L181 156Q177 140 177 120Q177 73 218 73Q251 73 282 105T323 181L359 338Q367 376 367 393Q367 415 354 423T319 435L521 486L438 109Q436 100 434 91T433 74Q433 39 483 35L292 -15L307 58Q278 26 233 6T143 -14Q41 -14 41 76Q41 99 48 132L90 338Q96 371 96 389Q97 432 50 435ZM460 708L506 677Q424 538 315 538Q261 538 232 562T204 620Q204 646 225 666T288 687Q285 671 285 656Q286 600 333 600Q361 600 391 624T460 708Z"
				   horiz-adv-x="537" unicode="й"/>
			<glyph d="M254 486L201 248Q258 261 302 332Q352 414 373 437T415 469T462 478Q501 478 524 450T547 380V370Q529 388 498 388Q464 388 422 337Q368 269 317 242L408 95Q436 50 461 34T515 19Q470 -11 410 -11Q358 -11 324 17T248 124L194 216L148 0H17L92 341Q100 376 100 388Q100 412 84 422T48 435Z"
				   horiz-adv-x="541" unicode="к"/>
			<glyph d="M285 481H374L427 99Q432 63 445 47T493 29L312 -19L272 309L142 106Q117 69 117 40Q117 11 152 0H-34Z"
				   horiz-adv-x="503" unicode="л"/>
			<glyph d="M76 468H248L313 208L486 468H631L555 100Q548 67 548 50Q548 10 571 0H414L488 344L251 -14L165 338L114 96Q109 74 109 55Q109 13 137 0H16L96 368Q102 393 102 413Q102 439 93 452T76 468Z"
				   horiz-adv-x="648" unicode="м"/>
			<glyph d="M253 487L208 277H355L395 468H526L450 117Q444 87 444 65Q444 11 467 0H295L338 200H191L148 0H18L97 361Q102 382 102 390Q102 412 84 423T48 435Z"
				   horiz-adv-x="541" unicode="н"/>
			<glyph d="M301 483Q387 483 435 430T484 291Q484 214 447 143Q411 73 347 30T205 -13Q120 -13 72 40T24 179Q24 257 62 329T164 442T301 483ZM290 398Q236 398 196 319T156 165Q156 122 172 96T217 71Q253 71 283 107T331 200T350 302Q350 346 334 372T290 398Z"
				   horiz-adv-x="508" unicode="о"/>
			<glyph d="M242 486L228 413Q306 485 392 485Q494 485 494 394Q494 368 486 330L440 109Q436 89 436 64Q436 8 460 0H286L353 306Q359 336 359 346Q359 398 316 398Q287 398 254 368T211 290L148 0H18L95 352Q102 383 102 390Q101 429 48 435Z"
				   horiz-adv-x="524" unicode="п"/>
			<glyph d="M387 486Q444 486 476 440T508 322Q508 241 470 161T368 35T224 -12Q178 -12 155 14L110 -183H-20L94 349Q100 378 100 387Q100 407 86 421T45 435L237 485L226 407Q255 442 298 464T387 486ZM318 387Q297 387 269 365T226 316T195 227T179 126Q179 70 229 70Q265 70 296 105T348 198T368 307Q368 387 318 387Z"
				   horiz-adv-x="531" unicode="р"/>
			<glyph d="M331 484Q378 484 405 462T433 405Q433 362 399 323Q365 285 321 279Q332 294 332 325Q332 352 320 374T282 397Q234 397 196 334T159 193Q159 137 184 105T259 73Q293 73 329 90T396 140Q374 71 314 27T183 -16Q108 -16 66 29T24 151Q24 239 65 317T178 439T331 484Z"
				   horiz-adv-x="429" unicode="с"/>
			<glyph d="M241 486L228 414Q257 444 301 464T390 485Q475 485 490 414Q516 443 566 464T658 485Q758 485 759 395Q759 373 750 330L704 109Q700 89 700 65Q701 13 724 0H550L601 233Q622 324 622 347Q622 398 581 398Q553 398 528 375T489 316T466 233L415 0H283L350 306Q356 336 356 346Q356 398 314 398Q282 398 250 362T207 269L148 0H18L85 306Q102 381 102 391Q102 412 85 423T48 435Z"
				   horiz-adv-x="794" unicode="т"/>
			<glyph d="M200 484L271 127Q315 193 352 271T389 401Q389 455 345 466H526Q485 329 384 163T186 -95T20 -189Q-22 -189 -42 -169T-62 -119Q-62 -100 -53 -75Q-30 -95 6 -95Q42 -95 87 -67T167 0L86 377Q80 405 64 419T11 436Z"
				   horiz-adv-x="510" unicode="у"/>
			<glyph d="M487 697L442 482Q527 464 577 408T628 272Q628 161 547 81T339 -13L305 -187H175L213 -13Q128 5 78 61T28 199Q28 307 108 385T318 482Q335 555 338 588Q338 632 285 642ZM300 397Q236 380 197 326T158 207Q158 117 232 80ZM423 389L355 73Q416 89 457 146T498 269Q498 313 478 344T423 389Z"
				   horiz-adv-x="654" unicode="ф"/>
			<glyph d="M227 485Q245 445 260 406T295 327L356 391Q387 426 387 445Q387 454 380 459T367 467H546L330 248Q351 212 403 80Q416 50 436 40T492 28L303 -21L229 148L152 67Q125 39 125 21Q125 5 144 0H-30L194 228L129 375Q114 410 96 421T52 435H38Z"
				   horiz-adv-x="519" unicode="х"/>
			<glyph d="M253 486L181 156Q177 137 177 120Q177 73 218 73Q252 73 283 108T327 197L359 338Q367 376 367 393Q367 431 319 435L521 486L444 136Q439 110 439 101Q440 58 484 57H491L464 -52Q445 -128 413 -157T340 -187Q308 -187 291 -170T275 -134Q275 -102 304 -85Q315 -113 345 -113Q368 -113 383 -95T412 -18Q371 -18 345 3T312 64Q280 27 236 6T148 -14Q41 -14 41 76Q41 99 48 132L93 355Q96 374 96 389Q96 434 50 435Z"
				   horiz-adv-x="538" unicode="ц"/>
			<glyph d="M241 486L205 323Q198 293 198 273Q198 230 238 230Q271 230 305 263T350 343L378 468H508L432 114Q426 87 426 65Q426 33 433 17T449 0H277L323 209Q261 138 175 138Q127 138 95 165T63 243Q63 264 74 319Q84 367 84 390Q84 431 38 435Z"
				   horiz-adv-x="522" unicode="ч"/>
			<glyph d="M253 486L185 174Q177 142 177 123Q177 71 218 71Q253 71 283 105T326 200L384 468H516L449 163Q444 141 444 123Q444 71 485 71Q517 71 548 105T593 200L651 468H781L699 94Q697 83 697 75Q697 58 711 46T749 34L559 -16L574 56Q501 -15 409 -15Q329 -15 309 55Q287 29 237 7T142 -15Q95 -15 68 7T41 75Q41 96 50 139L90 337Q97 370 97 390Q97 431 51 435Z"
				   horiz-adv-x="798" unicode="ш"/>
			<glyph d="M253 486L185 174Q177 136 177 123Q177 71 218 71Q253 71 282 104T325 198L384 468H516L449 163Q444 138 444 123Q444 71 485 71Q516 71 547 104T592 198L651 468H781L708 135Q704 112 704 100Q705 58 748 57H754L729 -52Q699 -187 604 -187Q573 -187 556 -170T539 -134Q539 -103 569 -85Q580 -113 610 -113Q633 -113 648 -94T676 -18Q637 -18 611 2T577 59Q501 -15 409 -15Q327 -15 309 55Q287 29 237 7T142 -15Q95 -15 68 7T41 75Q41 96 50 139L90 337Q97 370 97 390Q97 431 51 435Z"
				   horiz-adv-x="798" unicode="щ"/>
			<glyph d="M136 481Q169 481 203 476T264 471Q307 471 337 479L296 287Q332 299 373 299Q448 299 490 262T533 170Q533 89 470 38T304 -13Q227 -13 182 24T138 124Q138 135 139 146T191 393H165Q80 393 43 312Q32 337 32 359Q32 417 60 449T136 481ZM327 222Q301 222 281 213Q276 191 270 167T264 120Q264 93 278 78T316 64Q351 64 374 90T398 159Q398 188 378 205T327 222Z"
				   horiz-adv-x="562" unicode="ъ"/>
			<glyph d="M249 486L205 287Q248 299 282 299Q357 299 399 262T442 170Q442 89 379 38T213 -13Q136 -13 91 25T47 124Q47 148 58 198Q93 370 93 392Q93 415 80 423T47 435ZM234 222Q208 222 190 213Q185 191 179 167T173 120Q173 93 187 78T225 64Q260 64 283 90T307 159Q307 188 286 205T234 222ZM719 486L638 109Q632 80 632 56Q633 7 656 0H482L563 365Q566 383 566 390Q565 431 513 435Z"
				   horiz-adv-x="733" unicode="ы"/>
			<glyph d="M249 486L205 287Q242 299 284 299Q360 299 403 262T447 170Q447 89 383 38T215 -13Q139 -13 93 24T47 124Q47 150 58 198Q76 285 84 331T93 392Q93 415 80 423T47 435ZM236 222Q210 222 190 213Q185 191 179 167T173 120Q173 93 187 78T227 64Q268 64 290 93T312 159Q312 188 291 205T236 222Z"
				   horiz-adv-x="478" unicode="ь"/>
			<glyph d="M249 484Q323 484 372 433T421 302Q421 167 341 77T135 -13Q57 -13 6 16L32 141Q49 108 80 89T147 70Q195 70 230 105T282 199H105L120 270H293Q294 278 294 286Q294 338 267 366T194 395Q120 395 49 325Q109 484 249 484Z"
				   horiz-adv-x="446" unicode="э"/>
			<glyph d="M251 487L206 277H301Q333 371 402 427T557 483Q640 483 688 430T736 291Q736 215 699 143T600 29T463 -13Q383 -13 334 40T286 179Q286 189 287 200H189L146 0H18L95 352Q102 384 102 393Q102 410 85 422T48 435ZM544 398Q513 398 485 366T437 273T417 165Q417 123 432 97T475 71Q508 71 536 106T583 198T601 302Q601 344 586 371T544 398Z"
				   horiz-adv-x="759" unicode="ю"/>
			<glyph d="M299 468H502L429 125Q422 95 422 64Q423 33 429 18T445 0H273L313 180H303Q279 180 262 170T225 135L116 0H-66Q-30 6 13 54L93 146Q136 193 178 205Q129 213 96 242T64 317Q64 386 128 427T299 468ZM304 395Q250 395 222 371T194 311Q194 285 215 268T277 251H328L359 395Z"
				   horiz-adv-x="519" unicode="я"/>
			<glyph d="M333 484Q389 484 423 455T458 377Q458 299 372 240T154 174L157 159Q163 121 186 97T252 74Q291 74 334 92T410 140Q390 73 329 28T193 -16Q115 -16 69 31T24 160Q24 242 67 318T181 439T333 484ZM301 406Q259 406 213 358T154 243Q232 249 288 281Q345 314 345 362Q345 382 333 394T301 406ZM202 666H366L377 506Z"
				   horiz-adv-x="456" unicode="ѐ"/>
			<glyph d="M333 484Q389 484 423 455T458 377Q458 299 372 240T154 174L157 159Q163 121 186 97T252 74Q291 74 334 92T410 140Q390 73 329 28T193 -16Q115 -16 69 31T24 160Q24 242 67 318T181 439T333 484ZM301 406Q259 406 213 358T154 243Q232 249 288 281Q345 314 345 362Q345 382 333 394T301 406ZM422 676Q448 676 463 659T479 617Q479 588 459 568T411 549Q385 549 369 565T353 608Q353 637 373 656T422 676ZM224 676Q250 676 265 659T281 617Q281 588 261 568T212 549Q186 549 170 565T155 608Q155 637 175 656T224 676Z"
				   horiz-adv-x="456" unicode="ё"/>
			<glyph d="M300 696L278 597H429L416 536H264L237 415Q264 443 310 464T397 485Q494 485 494 395Q494 367 487 334L417 0Q399 -88 350 -135T236 -182Q190 -182 153 -166T103 -130Q125 -136 146 -136Q255 -136 285 0L353 308Q359 334 359 345Q358 398 317 398Q276 398 246 358T203 252L148 0H18L135 536H91L103 597H146Q146 639 97 645Z"
				   horiz-adv-x="525" unicode="ђ"/>
			<glyph d="M239 486Q307 486 348 452T389 364Q389 309 358 269T262 200Q183 164 167 154T144 133T137 108Q137 89 153 78T193 68Q237 68 281 97T357 173L327 24Q263 -15 177 -15Q98 -15 55 19T13 107Q13 166 49 205T161 276Q217 300 244 317T272 362Q272 398 219 400Q136 400 103 320Q63 347 63 385Q63 429 111 457T239 486ZM275 666H441L200 506Z"
				   horiz-adv-x="402" unicode="ѓ"/>
			<glyph d="M327 484Q375 484 401 465T428 413Q428 378 396 349T321 314Q329 332 329 349Q329 370 316 383T280 397Q245 397 213 362T163 270H330L314 199H153Q153 139 179 106T254 73Q287 73 324 91T392 140Q368 70 310 27T188 -16Q114 -16 69 30T24 156Q24 241 65 317T176 438T327 484Z"
				   horiz-adv-x="424" unicode="є"/>
			<glyph d="M265 485Q327 485 365 461T404 400Q404 353 331 316Q334 325 334 333Q334 367 310 384T256 402Q226 402 205 387T184 350Q184 331 207 310T271 264Q363 204 363 132Q363 66 306 25T158 -16Q63 -16 0 22L40 181Q46 133 76 100T155 67Q184 67 207 79T231 116Q231 134 212 152T148 200Q64 254 64 327Q64 397 121 441T265 485Z"
				   horiz-adv-x="412" unicode="ѕ"/>
			<glyph d="M254 486L173 109Q166 81 166 56Q166 8 190 0H17L98 368Q101 379 101 391Q101 409 84 422T47 435ZM214 689Q246 689 264 669T282 619Q282 585 258 561Q235 537 200 537Q168 537 149 557T131 607Q131 642 155 665T214 689Z"
				   horiz-adv-x="266" unicode="і"/>
			<glyph d="M310 676Q336 676 351 659T367 617Q367 588 347 568T299 549Q273 549 257 565T241 608Q241 637 261 656T310 676ZM120 676Q146 676 161 659T177 617Q177 588 157 568T108 549Q82 549 66 565T51 608Q51 637 71 656T120 676ZM254 486L173 109Q166 74 166 62Q166 5 190 0H17L97 365Q101 380 101 391Q101 407 82 420T47 435Z"
				   horiz-adv-x="266" unicode="ї"/>
			<glyph d="M214 689Q246 689 264 669T282 619Q282 585 258 561T200 537Q169 537 150 557T131 607Q131 641 155 665T214 689ZM255 486L151 0Q131 -89 81 -136T-32 -183Q-75 -183 -111 -168T-164 -131Q-140 -137 -121 -137Q-8 -137 19 0L100 377Q101 382 101 389Q101 407 84 421T48 435Z"
				   horiz-adv-x="268" unicode="ј"/>
			<glyph d="M276 481H365L395 267Q459 294 518 294Q591 294 634 258T678 165Q678 88 615 37T457 -13Q375 -13 334 26T284 151L264 307L144 106Q119 64 119 40Q119 11 153 0H-32ZM470 217Q442 217 404 201L415 124Q423 65 468 65Q500 65 521 91T543 152Q543 182 522 199T470 217Z"
				   horiz-adv-x="710" unicode="љ"/>
			<glyph d="M253 487L208 277H343L383 468H513L472 282Q513 294 547 294Q619 294 663 258T708 165Q708 86 645 36T481 -13Q406 -13 361 24T316 126Q316 156 326 200H191L148 0H18L97 361Q102 382 102 391Q102 412 85 423T48 435ZM499 217Q477 217 457 209Q441 142 441 121Q441 92 455 78T493 64Q530 64 551 90T573 152Q573 182 552 199T499 217Z"
				   horiz-adv-x="739" unicode="њ"/>
			<glyph d="M298 696L276 597H427L415 536H262L236 415Q264 444 308 464T396 485Q493 485 493 395Q493 370 487 343L438 109Q434 87 434 63Q434 10 458 0H284L352 308Q357 336 357 345Q356 395 316 396Q280 396 248 363T207 281L147 0H17L133 536H89L102 597H146Q146 618 134 629T95 645Z"
				   horiz-adv-x="524" unicode="ћ"/>
			<glyph d="M254 486L201 248Q258 261 302 332Q352 414 373 437T415 469T462 478Q501 478 524 450T547 380V370Q529 388 498 388Q464 388 422 337Q368 269 317 242L408 95Q436 50 461 34T515 19Q470 -11 410 -11Q358 -11 324 17T248 124L194 216L148 0H17L92 341Q100 376 100 388Q100 412 84 422T48 435ZM347 666H513L272 506Z"
				   horiz-adv-x="541" unicode="ќ"/>
			<glyph d="M253 486L181 156Q177 140 177 120Q177 73 218 73Q251 73 282 105T323 181L359 338Q367 376 367 393Q367 415 354 423T319 435L521 486L438 109Q436 100 434 91T433 74Q433 39 483 35L292 -15L307 58Q278 26 233 6T143 -14Q41 -14 41 76Q41 99 48 132L90 338Q96 371 96 389Q97 432 50 435ZM215 666H379L390 506Z"
				   horiz-adv-x="537" unicode="ѝ"/>
			<glyph d="M200 484L271 127Q315 193 352 271T389 401Q389 455 345 466H526Q485 329 384 163T186 -95T20 -189Q-22 -189 -42 -169T-62 -119Q-62 -100 -53 -75Q-30 -95 6 -95Q42 -95 87 -67T167 0L86 377Q80 405 64 419T11 436ZM445 708L491 677Q409 538 300 538Q246 538 217 562T189 620Q189 646 210 666T273 687Q270 671 270 656Q271 600 318 600Q346 600 376 624T445 708Z"
				   horiz-adv-x="510" unicode="ў"/>
			<glyph d="M229 -17L246 -187H111ZM253 486L181 156Q177 134 177 120Q177 73 218 73Q251 73 282 105T323 181L359 338Q367 376 367 393Q367 432 319 435L521 486L438 109Q433 85 433 74Q433 58 446 46T483 35L292 -15L307 58Q278 26 233 6T143 -14Q41 -14 41 76Q41 99 48 132L90 338Q96 371 96 389Q96 433 50 435Z"
				   horiz-adv-x="537" unicode="џ"/>
			<glyph d="M586 810H596L547 575H303L202 89Q196 64 196 51Q196 31 206 17T230 0H-15Q11 5 29 30T56 93L160 573Q165 603 166 614Q167 652 129 666H395Q450 666 504 709T586 810Z"
				   horiz-adv-x="493" unicode="Ґ"/>
			<glyph d="M439 594H450L407 391H233L148 0H18L99 370Q105 395 105 413Q105 450 76 468H272Q323 468 366 500T439 594Z"
				   horiz-adv-x="391" unicode="ґ"/>
			<glyph d="M97 666H321Q283 654 283 600Q283 574 291 498L318 215L490 514L486 563Q478 650 446 666H659Q621 653 621 599Q621 581 626 528L655 216L851 565Q875 607 875 633Q875 656 851 666H1064Q1020 651 969 564L641 -5H540L507 360L296 -5H195L140 563Q132 649 97 666ZM430 856H594L606 696Z"
				   horiz-adv-x="970" unicode="Ẁ"/>
			<glyph d="M207 485L233 182L394 468H482L518 175L628 358Q653 399 653 426Q653 455 621 466H805L494 -9H406L376 271L210 -9H121L87 374Q81 432 29 435L19 436ZM304 666H468L479 506Z"
				   horiz-adv-x="765" unicode="ẁ"/>
			<glyph d="M97 666H321Q283 654 283 600Q283 574 291 498L318 215L490 514L486 563Q478 650 446 666H659Q621 653 621 599Q621 581 626 528L655 216L851 565Q875 607 875 633Q875 656 851 666H1064Q1020 651 969 564L641 -5H540L507 360L296 -5H195L140 563Q132 649 97 666ZM609 856H775L534 696Z"
				   horiz-adv-x="970" unicode="Ẃ"/>
			<glyph d="M207 485L233 182L394 468H482L518 175L628 358Q653 399 653 426Q653 455 621 466H805L494 -9H406L376 271L210 -9H121L87 374Q81 432 29 435L19 436ZM468 666H634L393 506Z"
				   horiz-adv-x="765" unicode="ẃ"/>
			<glyph d="M97 666H321Q283 654 283 600Q283 574 291 498L318 215L490 514L486 563Q478 650 446 666H659Q621 653 621 599Q621 581 626 528L655 216L851 565Q875 607 875 633Q875 656 851 666H1064Q1020 651 969 564L641 -5H540L507 360L296 -5H195L140 563Q132 649 97 666ZM694 850Q720 850 735 833T750 791Q750 762 730 742T682 723Q656 723 640 739T624 782Q624 811 644 830T694 850ZM496 850Q522 850 537 833T552 791Q552 762 532 742T484 723Q458 723 442 739T426 782Q426 811 446 830T496 850Z"
				   horiz-adv-x="970" unicode="Ẅ"/>
			<glyph d="M207 485L233 182L394 468H482L518 175L628 358Q653 399 653 426Q653 455 621 466H805L494 -9H406L376 271L210 -9H121L87 374Q81 432 29 435L19 436ZM561 675Q587 675 602 658T618 616Q618 587 598 567T550 548Q524 548 508 564T492 607Q492 636 512 655T561 675ZM363 675Q389 675 404 658T420 616Q420 587 400 567T351 548Q325 548 309 564T294 607Q294 636 314 655T363 675Z"
				   horiz-adv-x="765" unicode="ẅ"/>
			<glyph d="M475 681Q548 681 618 658T736 600L555 378Q618 347 646 299T675 200Q675 113 608 50T437 -13Q337 -13 270 44L295 156Q315 122 349 104T422 86Q472 86 503 117T534 192Q534 292 374 321L558 552Q511 579 460 579Q388 579 337 526T268 382L209 95Q204 70 204 57Q205 11 232 0H-3Q48 16 63 94L122 375Q151 516 246 598T475 681Z"
				   horiz-adv-x="753" unicode="ẞ"/>
			<glyph d="M422 669H541L603 103Q607 62 619 34T651 0H426Q443 4 452 22T461 71Q461 86 458 110T453 156H210L180 104Q150 53 150 30Q150 6 172 0H-35Q-21 3 5 31T63 110ZM419 493L266 243H443ZM293 -57Q324 -57 342 -76T360 -126Q360 -161 337 -184T279 -207Q249 -207 230 -188T211 -138Q211 -105 235 -81T293 -57Z"
				   horiz-adv-x="704" unicode="Ạ"/>
			<glyph d="M513 486L440 151Q430 111 430 85Q430 39 482 34L288 -15L300 64Q268 25 224 5T141 -15Q86 -15 55 28T24 141Q24 226 65 304T175 429T321 475Q352 475 385 469T431 463Q469 463 513 486ZM313 401Q256 401 208 322T160 155Q160 79 209 79Q230 79 254 100Q279 121 296 152T331 258T350 359Q350 401 313 401ZM205 -57Q236 -57 254 -76T272 -126Q272 -161 249 -184T191 -207Q161 -207 142 -188T123 -138Q123 -105 147 -81T205 -57Z"
				   unicode="ạ"/>
			<glyph d="M422 669H541L603 103Q607 62 619 34T651 0H426Q443 4 452 22T461 71Q461 86 458 110T453 156H210L180 104Q150 53 150 30Q150 6 172 0H-35Q-21 3 5 31T63 110ZM419 493L266 243H443ZM525 902Q558 902 580 884T603 837Q603 811 589 793T555 764T520 744T505 724Q505 714 517 710Q507 705 495 705Q480 705 468 712T456 736Q456 753 467 765T491 787T516 806T527 829Q527 850 504 850Q471 850 433 804L449 886Q488 902 525 902Z"
				   horiz-adv-x="704" unicode="Ả"/>
			<glyph d="M513 486L440 151Q430 111 430 85Q430 39 482 34L288 -15L300 64Q268 25 224 5T141 -15Q86 -15 55 28T24 141Q24 226 65 304T175 429T321 475Q352 475 385 469T431 463Q469 463 513 486ZM313 401Q256 401 208 322T160 155Q160 79 209 79Q230 79 254 100Q279 121 296 152T331 258T350 359Q350 401 313 401ZM365 715Q398 715 420 697T443 650Q443 624 429 606T395 577T360 557T345 537Q345 527 357 523Q347 518 335 518Q320 518 308 525T296 549Q296 566 307 578T331 600T356 619T367 642Q367 663 344 663Q311 663 273 617L289 699Q328 715 365 715Z"
				   unicode="ả"/>
			<glyph d="M422 669H541L603 103Q607 62 619 34T651 0H426Q443 4 452 22T461 71Q461 86 458 110T453 156H210L180 104Q150 53 150 30Q150 6 172 0H-35Q-21 3 5 31T63 110ZM419 493L266 243H443ZM645 925H772L578 787ZM511 857L630 697L493 752L328 697Z"
				   horiz-adv-x="704" unicode="Ấ"/>
			<glyph d="M513 486L440 151Q430 111 430 85Q430 39 482 34L288 -15L300 64Q268 25 224 5T141 -15Q86 -15 55 28T24 141Q24 226 65 304T175 429T321 475Q352 475 385 469T431 463Q469 463 513 486ZM313 401Q256 401 208 322T160 155Q160 79 209 79Q230 79 254 100Q279 121 296 152T331 258T350 359Q350 401 313 401ZM495 752H622L428 614ZM361 684L480 524L343 579L178 524Z"
				   unicode="ấ"/>
			<glyph d="M422 669H541L603 103Q607 62 619 34T651 0H426Q443 4 452 22T461 71Q461 86 458 110T453 156H210L180 104Q150 53 150 30Q150 6 172 0H-35Q-21 3 5 31T63 110ZM419 493L266 243H443ZM282 925H398L417 787ZM511 857L630 697L493 752L328 697Z"
				   horiz-adv-x="704" unicode="Ầ"/>
			<glyph d="M513 486L440 151Q430 111 430 85Q430 39 482 34L288 -15L300 64Q268 25 224 5T141 -15Q86 -15 55 28T24 141Q24 226 65 304T175 429T321 475Q352 475 385 469T431 463Q469 463 513 486ZM313 401Q256 401 208 322T160 155Q160 79 209 79Q230 79 254 100Q279 121 296 152T331 258T350 359Q350 401 313 401ZM132 752H248L267 614ZM361 684L480 524L343 579L178 524Z"
				   unicode="ầ"/>
			<glyph d="M422 669H541L603 103Q607 62 619 34T651 0H426Q443 4 452 22T461 71Q461 86 458 110T453 156H210L180 104Q150 53 150 30Q150 6 172 0H-35Q-21 3 5 31T63 110ZM419 493L266 243H443ZM511 857L630 697L493 752L328 697ZM655 942Q682 942 700 928T718 891Q718 868 705 853T678 830T650 814T638 798Q638 790 648 786Q643 784 639 783T630 782Q617 782 607 789T597 808Q597 830 627 849Q657 866 657 883Q657 891 651 895T637 900Q608 899 579 863L592 930Q625 942 655 942Z"
				   horiz-adv-x="704" unicode="Ẩ"/>
			<glyph d="M513 486L440 151Q430 111 430 85Q430 39 482 34L288 -15L300 64Q268 25 224 5T141 -15Q86 -15 55 28T24 141Q24 226 65 304T175 429T321 475Q352 475 385 469T431 463Q469 463 513 486ZM313 401Q256 401 208 322T160 155Q160 79 209 79Q230 79 254 100Q279 121 296 152T331 258T350 359Q350 401 313 401ZM361 684L480 524L343 579L178 524ZM505 769Q532 769 550 755T568 718Q568 695 555 680T528 657T500 641T488 625Q488 617 498 613Q493 611 489 610T480 609Q467 609 457 616T447 635Q447 657 477 676Q507 693 507 710Q507 718 501 722T487 727Q458 726 429 690L442 757Q475 769 505 769Z"
				   unicode="ẩ"/>
			<glyph d="M422 669H541L603 103Q607 62 619 34T651 0H426Q443 4 452 22T461 71Q461 86 458 110T453 156H210L180 104Q150 53 150 30Q150 6 172 0H-35Q-21 3 5 31T63 110ZM419 493L266 243H443ZM659 995Q669 979 669 956Q669 919 645 893T582 867Q554 867 514 893T453 919Q433 919 418 901T396 858Q385 872 385 897Q385 933 409 958T473 984Q502 984 543 958T603 933Q624 933 639 952Q655 972 659 995ZM511 857L630 697L493 752L328 697Z"
				   horiz-adv-x="704" unicode="Ẫ"/>
			<glyph d="M513 486L440 151Q430 111 430 85Q430 39 482 34L288 -15L300 64Q268 25 224 5T141 -15Q86 -15 55 28T24 141Q24 226 65 304T175 429T321 475Q352 475 385 469T431 463Q469 463 513 486ZM313 401Q256 401 208 322T160 155Q160 79 209 79Q230 79 254 100Q279 121 296 152T331 258T350 359Q350 401 313 401ZM509 822Q519 806 519 783Q519 746 495 720T432 694Q404 694 364 720T303 746Q283 746 268 728T246 685Q235 699 235 724Q235 760 259 785T323 811Q352 811 393 785T453 760Q474 760 489 779Q505 799 509 822ZM361 684L480 524L343 579L178 524Z"
				   unicode="ẫ"/>
			<glyph d="M422 669H541L603 103Q607 62 619 34T651 0H426Q443 4 452 22T461 71Q461 86 458 110T453 156H210L180 104Q150 53 150 30Q150 6 172 0H-35Q-21 3 5 31T63 110ZM419 493L266 243H443ZM294 -56Q325 -56 343 -75T361 -125Q361 -160 338 -183T280 -206Q250 -206 231 -187T212 -137Q212 -104 236 -80T294 -56ZM515 890L634 697L490 770L320 697Z"
				   horiz-adv-x="704" unicode="Ậ"/>
			<glyph d="M513 486L440 151Q430 111 430 85Q430 39 482 34L288 -15L300 64Q268 25 224 5T141 -15Q86 -15 55 28T24 141Q24 226 65 304T175 429T321 475Q352 475 385 469T431 463Q469 463 513 486ZM313 401Q256 401 208 322T160 155Q160 79 209 79Q230 79 254 100Q279 121 296 152T331 258T350 359Q350 401 313 401ZM205 -57Q236 -57 254 -76T272 -126Q272 -161 249 -184T191 -207Q161 -207 142 -188T123 -138Q123 -105 147 -81T205 -57ZM366 697L470 506L341 579L185 506Z"
				   unicode="ậ"/>
			<glyph d="M422 669H541L603 103Q607 62 619 34T651 0H426Q443 4 452 22T461 71Q461 86 458 110T453 156H210L180 104Q150 53 150 30Q150 6 172 0H-35Q-21 3 5 31T63 110ZM419 493L266 243H443ZM532 955H659L465 817ZM388 851Q420 789 499 789Q575 789 636 851Q621 790 578 752T486 715Q439 715 412 745T385 821Q385 835 388 851Z"
				   horiz-adv-x="704" unicode="Ắ"/>
			<glyph d="M513 486L440 151Q430 111 430 85Q430 39 482 34L288 -15L300 64Q268 25 224 5T141 -15Q86 -15 55 28T24 141Q24 226 65 304T175 429T321 475Q352 475 385 469T431 463Q469 463 513 486ZM313 401Q256 401 208 322T160 155Q160 79 209 79Q230 79 254 100Q279 121 296 152T331 258T350 359Q350 401 313 401ZM377 778H504L310 640ZM233 674Q265 612 344 612Q420 612 481 674Q466 613 423 575T331 538Q284 538 257 568T230 644Q230 658 233 674Z"
				   unicode="ắ"/>
			<glyph d="M422 669H541L603 103Q607 62 619 34T651 0H426Q443 4 452 22T461 71Q461 86 458 110T453 156H210L180 104Q150 53 150 30Q150 6 172 0H-35Q-21 3 5 31T63 110ZM419 493L266 243H443ZM388 851Q420 789 499 789Q575 789 636 851Q621 790 578 752T486 715Q439 715 412 745T385 821Q385 835 388 851ZM409 955H525L544 817Z"
				   horiz-adv-x="704" unicode="Ằ"/>
			<glyph d="M513 486L440 151Q430 111 430 85Q430 39 482 34L288 -15L300 64Q268 25 224 5T141 -15Q86 -15 55 28T24 141Q24 226 65 304T175 429T321 475Q352 475 385 469T431 463Q469 463 513 486ZM313 401Q256 401 208 322T160 155Q160 79 209 79Q230 79 254 100Q279 121 296 152T331 258T350 359Q350 401 313 401ZM233 674Q265 612 344 612Q420 612 481 674Q466 613 423 575T331 538Q284 538 257 568T230 644Q230 658 233 674ZM254 778H370L389 640Z"
				   unicode="ằ"/>
			<glyph d="M422 669H541L603 103Q607 62 619 34T651 0H426Q443 4 452 22T461 71Q461 86 458 110T453 156H210L180 104Q150 53 150 30Q150 6 172 0H-35Q-21 3 5 31T63 110ZM419 493L266 243H443ZM538 1000Q570 1000 592 983T614 940Q614 914 600 898T569 872T536 853T521 835Q521 825 533 822Q525 817 512 817Q497 817 484 824T471 846Q471 862 481 872T505 892T530 911T541 933Q541 952 518 952Q484 951 449 909L465 986Q502 1000 538 1000ZM388 851Q420 789 499 789Q575 789 636 851Q621 790 578 752T486 715Q439 715 412 745T385 821Q385 835 388 851Z"
				   horiz-adv-x="704" unicode="Ẳ"/>
			<glyph d="M513 486L440 151Q430 111 430 85Q430 39 482 34L288 -15L300 64Q268 25 224 5T141 -15Q86 -15 55 28T24 141Q24 226 65 304T175 429T321 475Q352 475 385 469T431 463Q469 463 513 486ZM313 401Q256 401 208 322T160 155Q160 79 209 79Q230 79 254 100Q279 121 296 152T331 258T350 359Q350 401 313 401ZM383 817Q415 817 437 800T459 757Q459 731 445 715T414 689T381 670T366 652Q366 642 378 639Q370 634 357 634Q342 634 329 641T316 663Q316 679 326 689T350 709T375 728T386 750Q386 769 363 769Q329 768 294 726L310 803Q347 817 383 817ZM233 668Q265 606 344 606Q420 606 481 668Q466 607 423 569T331 532Q284 532 257 562T230 638Q230 652 233 668Z"
				   unicode="ẳ"/>
			<glyph d="M422 669H541L603 103Q607 62 619 34T651 0H426Q443 4 452 22T461 71Q461 86 458 110T453 156H210L180 104Q150 53 150 30Q150 6 172 0H-35Q-21 3 5 31T63 110ZM419 493L266 243H443ZM388 851Q420 789 499 789Q575 789 636 851Q621 790 578 752T486 715Q439 715 412 745T385 821Q385 835 388 851ZM657 995Q667 979 667 956Q667 919 643 893T580 867Q552 867 512 893T451 919Q431 919 416 901T394 858Q383 872 383 897Q383 933 407 958T471 984Q500 984 541 958T601 933Q622 933 637 952Q653 972 657 995Z"
				   horiz-adv-x="704" unicode="Ẵ"/>
			<glyph d="M513 486L440 151Q430 111 430 85Q430 39 482 34L288 -15L300 64Q268 25 224 5T141 -15Q86 -15 55 28T24 141Q24 226 65 304T175 429T321 475Q352 475 385 469T431 463Q469 463 513 486ZM313 401Q256 401 208 322T160 155Q160 79 209 79Q230 79 254 100Q279 121 296 152T331 258T350 359Q350 401 313 401ZM233 674Q265 612 344 612Q420 612 481 674Q466 613 423 575T331 538Q284 538 257 568T230 644Q230 658 233 674ZM502 818Q512 802 512 779Q512 742 488 716T425 690Q397 690 357 716T296 742Q276 742 261 724T239 681Q228 695 228 720Q228 756 252 781T316 807Q345 807 386 781T446 756Q467 756 482 775Q498 795 502 818Z"
				   unicode="ẵ"/>
			<glyph d="M422 669H541L603 103Q607 62 619 34T651 0H426Q443 4 452 22T461 71Q461 86 458 110T453 156H210L180 104Q150 53 150 30Q150 6 172 0H-35Q-21 3 5 31T63 110ZM419 493L266 243H443ZM293 -57Q324 -57 342 -76T360 -126Q360 -161 337 -184T279 -207Q249 -207 230 -188T211 -138Q211 -105 235 -81T293 -57ZM396 883Q408 845 437 827T502 809Q538 809 574 827Q611 846 641 883Q625 810 580 767T484 724Q446 724 418 751T390 830Q390 854 396 883Z"
				   horiz-adv-x="704" unicode="Ặ"/>
			<glyph d="M513 486L440 151Q430 111 430 85Q430 39 482 34L288 -15L300 64Q268 25 224 5T141 -15Q86 -15 55 28T24 141Q24 226 65 304T175 429T321 475Q352 475 385 469T431 463Q469 463 513 486ZM313 401Q256 401 208 322T160 155Q160 79 209 79Q230 79 254 100Q279 121 296 152T331 258T350 359Q350 401 313 401ZM237 696Q249 658 278 640T343 622Q421 622 482 696Q466 623 421 580T325 537Q284 537 258 566T232 651Q232 662 233 673T237 696ZM205 -57Q236 -57 254 -76T272 -126Q272 -161 249 -184T191 -207Q161 -207 142 -188T123 -138Q123 -105 147 -81T205 -57Z"
				   unicode="ặ"/>
			<glyph d="M140 666H591L557 497Q555 543 527 559T452 575H313L273 385H388Q456 383 479 419L446 260Q440 299 370 298H255L212 90H356Q416 90 446 104T509 172L473 0H-6Q48 13 64 83L169 569Q176 601 176 613Q175 657 140 666ZM239 -57Q270 -57 288 -76T306 -126Q306 -161 283 -184T225 -207Q195 -207 176 -188T157 -138Q157 -105 181 -81T239 -57Z"
				   horiz-adv-x="559" unicode="Ẹ"/>
			<glyph d="M333 484Q389 484 423 455T458 377Q458 299 372 240T154 174L157 159Q163 121 186 97T252 74Q291 74 334 92T410 140Q390 73 329 28T193 -16Q115 -16 69 31T24 160Q24 242 67 318T181 439T333 484ZM301 406Q259 406 213 358T154 243Q232 249 288 281Q345 314 345 362Q345 382 333 394T301 406ZM170 -57Q201 -57 219 -76T237 -126Q237 -161 214 -184T156 -207Q126 -207 107 -188T88 -138Q88 -105 112 -81T170 -57Z"
				   horiz-adv-x="456" unicode="ẹ"/>
			<glyph d="M140 666H591L557 497Q555 543 527 559T452 575H313L273 385H388Q456 383 479 419L446 260Q440 299 370 298H255L212 90H356Q416 90 446 104T509 172L473 0H-6Q48 13 64 83L169 569Q176 601 176 613Q175 657 140 666ZM407 902Q440 902 462 884T485 837Q485 811 471 793T437 764T402 744T387 724Q387 714 399 710Q389 705 377 705Q362 705 350 712T338 736Q338 753 349 765T373 787T398 806T409 829Q409 850 386 850Q353 850 315 804L331 886Q370 902 407 902Z"
				   horiz-adv-x="559" unicode="Ẻ"/>
			<glyph d="M333 484Q389 484 423 455T458 377Q458 299 372 240T154 174L157 159Q163 121 186 97T252 74Q291 74 334 92T410 140Q390 73 329 28T193 -16Q115 -16 69 31T24 160Q24 242 67 318T181 439T333 484ZM301 406Q259 406 213 358T154 243Q232 249 288 281Q345 314 345 362Q345 382 333 394T301 406ZM344 715Q377 715 399 697T422 650Q422 624 408 606T374 577T339 557T324 537Q324 527 336 523Q326 518 314 518Q299 518 287 525T275 549Q275 566 286 578T310 600T335 619T346 642Q346 663 323 663Q290 663 252 617L268 699Q307 715 344 715Z"
				   horiz-adv-x="456" unicode="ẻ"/>
			<glyph d="M140 666H591L557 497Q555 543 527 559T452 575H313L273 385H388Q456 383 479 419L446 260Q440 299 370 298H255L212 90H356Q416 90 446 104T509 172L473 0H-6Q48 13 64 83L169 569Q176 601 176 613Q175 657 140 666ZM534 866Q548 848 548 821Q548 782 518 751T447 720Q416 720 373 744T305 769Q260 769 249 703Q234 722 234 749Q234 789 262 818T332 847Q365 847 411 823T478 799Q524 799 534 866Z"
				   horiz-adv-x="559" unicode="Ẽ"/>
			<glyph d="M333 484Q389 484 423 455T458 377Q458 299 372 240T154 174L157 159Q163 121 186 97T252 74Q291 74 334 92T410 140Q390 73 329 28T193 -16Q115 -16 69 31T24 160Q24 242 67 318T181 439T333 484ZM301 406Q259 406 213 358T154 243Q232 249 288 281Q345 314 345 362Q345 382 333 394T301 406ZM471 694Q485 674 485 650Q485 609 455 578T384 548Q352 548 309 572T242 597Q197 598 186 531Q171 549 171 575Q171 615 198 644T268 674Q300 674 346 650T414 627Q440 627 453 644Q466 662 471 694Z"
				   horiz-adv-x="456" unicode="ẽ"/>
			<glyph d="M140 666H591L557 497Q555 543 527 559T452 575H313L273 385H388Q456 383 479 419L446 260Q440 299 370 298H255L212 90H356Q416 90 446 104T509 172L473 0H-6Q48 13 64 83L169 569Q176 601 176 613Q175 657 140 666ZM544 925H671L477 787ZM410 857L529 697L392 752L227 697Z"
				   horiz-adv-x="559" unicode="Ế"/>
			<glyph d="M333 484Q389 484 423 455T458 377Q458 299 372 240T154 174L157 159Q163 121 186 97T252 74Q291 74 334 92T410 140Q390 73 329 28T193 -16Q115 -16 69 31T24 160Q24 242 67 318T181 439T333 484ZM301 406Q259 406 213 358T154 243Q232 249 288 281Q345 314 345 362Q345 382 333 394T301 406ZM477 752H604L410 614ZM343 684L462 524L325 579L160 524Z"
				   horiz-adv-x="456" unicode="ế"/>
			<glyph d="M140 666H591L557 497Q555 543 527 559T452 575H313L273 385H388Q456 383 479 419L446 260Q440 299 370 298H255L212 90H356Q416 90 446 104T509 172L473 0H-6Q48 13 64 83L169 569Q176 601 176 613Q175 657 140 666ZM181 925H297L316 787ZM410 857L529 697L392 752L227 697Z"
				   horiz-adv-x="559" unicode="Ề"/>
			<glyph d="M333 484Q389 484 423 455T458 377Q458 299 372 240T154 174L157 159Q163 121 186 97T252 74Q291 74 334 92T410 140Q390 73 329 28T193 -16Q115 -16 69 31T24 160Q24 242 67 318T181 439T333 484ZM301 406Q259 406 213 358T154 243Q232 249 288 281Q345 314 345 362Q345 382 333 394T301 406ZM114 752H230L249 614ZM343 684L462 524L325 579L160 524Z"
				   horiz-adv-x="456" unicode="ề"/>
			<glyph d="M140 666H591L557 497Q555 543 527 559T452 575H313L273 385H388Q456 383 479 419L446 260Q440 299 370 298H255L212 90H356Q416 90 446 104T509 172L473 0H-6Q48 13 64 83L169 569Q176 601 176 613Q175 657 140 666ZM410 857L529 697L392 752L227 697ZM554 942Q581 942 599 928T617 891Q617 868 604 853T577 830T549 814T537 798Q537 790 547 786Q542 784 538 783T529 782Q516 782 506 789T496 808Q496 830 526 849Q556 866 556 883Q556 891 550 895T536 900Q507 899 478 863L491 930Q524 942 554 942Z"
				   horiz-adv-x="559" unicode="Ể"/>
			<glyph d="M333 484Q389 484 423 455T458 377Q458 299 372 240T154 174L157 159Q163 121 186 97T252 74Q291 74 334 92T410 140Q390 73 329 28T193 -16Q115 -16 69 31T24 160Q24 242 67 318T181 439T333 484ZM301 406Q259 406 213 358T154 243Q232 249 288 281Q345 314 345 362Q345 382 333 394T301 406ZM343 684L462 524L325 579L160 524ZM487 769Q514 769 532 755T550 718Q550 695 537 680T510 657T482 641T470 625Q470 617 480 613Q475 611 471 610T462 609Q449 609 439 616T429 635Q429 657 459 676Q489 693 489 710Q489 718 483 722T469 727Q440 726 411 690L424 757Q457 769 487 769Z"
				   horiz-adv-x="456" unicode="ể"/>
			<glyph d="M140 666H591L557 497Q555 543 527 559T452 575H313L273 385H388Q456 383 479 419L446 260Q440 299 370 298H255L212 90H356Q416 90 446 104T509 172L473 0H-6Q48 13 64 83L169 569Q176 601 176 613Q175 657 140 666ZM558 995Q568 979 568 956Q568 919 544 893T481 867Q453 867 413 893T352 919Q332 919 317 901T295 858Q284 872 284 897Q284 933 308 958T372 984Q401 984 442 958T502 933Q523 933 538 952Q554 972 558 995ZM410 857L529 697L392 752L227 697Z"
				   horiz-adv-x="559" unicode="Ễ"/>
			<glyph d="M333 484Q389 484 423 455T458 377Q458 299 372 240T154 174L157 159Q163 121 186 97T252 74Q291 74 334 92T410 140Q390 73 329 28T193 -16Q115 -16 69 31T24 160Q24 242 67 318T181 439T333 484ZM301 406Q259 406 213 358T154 243Q232 249 288 281Q345 314 345 362Q345 382 333 394T301 406ZM491 823Q501 807 501 784Q501 747 477 721T414 695Q386 695 346 721T285 747Q265 747 250 729T228 686Q217 700 217 725Q217 761 241 786T305 812Q334 812 375 786T435 761Q456 761 471 780Q487 800 491 823ZM343 685L462 525L325 580L160 525Z"
				   horiz-adv-x="456" unicode="ễ"/>
			<glyph d="M140 666H591L557 497Q555 543 527 559T452 575H313L273 385H388Q456 383 479 419L446 260Q440 299 370 298H255L212 90H356Q416 90 446 104T509 172L473 0H-6Q48 13 64 83L169 569Q176 601 176 613Q175 657 140 666ZM239 -57Q270 -57 288 -76T306 -126Q306 -161 283 -184T225 -207Q195 -207 176 -188T157 -138Q157 -105 181 -81T239 -57ZM415 890L534 697L390 770L220 697Z"
				   horiz-adv-x="559" unicode="Ệ"/>
			<glyph d="M333 484Q389 484 423 455T458 377Q458 299 372 240T154 174L157 159Q163 121 186 97T252 74Q291 74 334 92T410 140Q390 73 329 28T193 -16Q115 -16 69 31T24 160Q24 242 67 318T181 439T333 484ZM301 406Q259 406 213 358T154 243Q232 249 288 281Q345 314 345 362Q345 382 333 394T301 406ZM171 -57Q202 -57 220 -76T238 -126Q238 -161 215 -184T157 -207Q127 -207 108 -188T89 -138Q89 -105 113 -81T171 -57ZM346 697L450 506L321 579L165 506Z"
				   horiz-adv-x="456" unicode="ệ"/>
			<glyph d="M134 666H372Q322 653 308 591L199 76Q195 56 195 49Q195 25 205 13T227 0H-8Q11 2 28 21T53 72L162 587Q166 607 166 614Q166 639 155 651T134 666ZM297 902Q330 902 352 884T375 837Q375 811 361 793T327 764T292 744T277 724Q277 714 289 710Q279 705 267 705Q252 705 240 712T228 736Q228 753 239 765T263 787T288 806T299 829Q299 850 276 850Q243 850 205 804L221 886Q260 902 297 902Z"
				   horiz-adv-x="315" unicode="Ỉ"/>
			<glyph d="M254 486L173 109Q166 74 166 62Q166 5 190 0H17L97 365Q101 380 101 391Q101 407 82 420T47 435ZM227 715Q260 715 282 697T305 650Q305 624 291 606T257 577T222 557T207 537Q207 527 219 523Q209 518 197 518Q182 518 170 525T158 549Q158 566 169 578T193 600T218 619T229 642Q229 663 206 663Q173 663 135 617L151 699Q190 715 227 715Z"
				   horiz-adv-x="266" unicode="ỉ"/>
			<glyph d="M134 666H372Q322 653 308 591L199 76Q195 56 195 49Q195 25 205 13T227 0H-8Q11 2 28 21T53 72L162 587Q166 607 166 614Q166 639 155 651T134 666ZM93 -57Q124 -57 142 -76T160 -126Q160 -161 137 -184T79 -207Q49 -207 30 -188T11 -138Q11 -105 35 -81T93 -57Z"
				   horiz-adv-x="315" unicode="Ị"/>
			<glyph d="M254 486L173 109Q166 81 166 56Q166 8 190 0H17L98 368Q101 379 101 391Q101 409 84 422T47 435ZM214 689Q246 689 264 669T282 619Q282 585 258 561Q235 537 200 537Q168 537 149 557T131 607Q131 642 155 665T214 689ZM70 -57Q101 -57 119 -76T137 -126Q137 -161 114 -184T56 -207Q26 -207 7 -188T-12 -138Q-12 -105 12 -81T70 -57Z"
				   horiz-adv-x="266" unicode="ị"/>
			<glyph d="M435 682Q549 682 614 611T680 422Q680 312 626 208Q573 105 482 45T289 -15Q177 -15 111 55T46 246Q46 358 98 460T241 622T435 682ZM418 589Q362 589 312 538T232 401T202 232Q202 163 228 120T307 78Q364 78 414 128T494 262T525 433Q525 502 498 545T418 589ZM268 -57Q299 -57 317 -76T335 -126Q335 -161 312 -184T254 -207Q224 -207 205 -188T186 -138Q186 -105 210 -81T268 -57Z"
				   horiz-adv-x="682" unicode="Ọ"/>
			<glyph d="M301 483Q387 483 435 430T484 291Q484 214 447 143Q411 73 347 30T205 -13Q120 -13 72 40T24 179Q24 257 62 329T164 442T301 483ZM290 398Q236 398 196 319T156 165Q156 122 172 96T217 71Q253 71 283 107T331 200T350 302Q350 346 334 372T290 398ZM181 -57Q212 -57 230 -76T248 -126Q248 -161 225 -184T167 -207Q137 -207 118 -188T99 -138Q99 -105 123 -81T181 -57Z"
				   horiz-adv-x="508" unicode="ọ"/>
			<glyph d="M435 682Q549 682 614 611T680 422Q680 312 626 208Q573 105 482 45T289 -15Q177 -15 111 55T46 246Q46 358 98 460T241 622T435 682ZM418 589Q362 589 312 538T232 401T202 232Q202 163 228 120T307 78Q364 78 414 128T494 262T525 433Q525 502 498 545T418 589ZM498 912Q531 912 553 894T576 847Q576 821 562 803T528 774T493 754T478 734Q478 724 490 720Q480 715 468 715Q453 715 441 722T429 746Q429 763 440 775T464 797T489 816T500 839Q500 860 477 860Q444 860 406 814L422 896Q461 912 498 912Z"
				   horiz-adv-x="682" unicode="Ỏ"/>
			<glyph d="M301 483Q387 483 435 430T484 291Q484 214 447 143Q411 73 347 30T205 -13Q120 -13 72 40T24 179Q24 257 62 329T164 442T301 483ZM290 398Q236 398 196 319T156 165Q156 122 172 96T217 71Q253 71 283 107T331 200T350 302Q350 346 334 372T290 398ZM352 715Q385 715 407 697T430 650Q430 624 416 606T382 577T347 557T332 537Q332 527 344 523Q334 518 322 518Q307 518 295 525T283 549Q283 566 294 578T318 600T343 619T354 642Q354 663 331 663Q298 663 260 617L276 699Q315 715 352 715Z"
				   horiz-adv-x="508" unicode="ỏ"/>
			<glyph d="M435 682Q549 682 614 611T680 422Q680 312 626 208Q573 105 482 45T289 -15Q177 -15 111 55T46 246Q46 358 98 460T241 622T435 682ZM418 589Q362 589 312 538T232 401T202 232Q202 163 228 120T307 78Q364 78 414 128T494 262T525 433Q525 502 498 545T418 589ZM609 931H736L542 793ZM475 863L594 703L457 758L292 703Z"
				   horiz-adv-x="682" unicode="Ố"/>
			<glyph d="M301 483Q387 483 435 430T484 291Q484 214 447 143Q411 73 347 30T205 -13Q120 -13 72 40T24 179Q24 257 62 329T164 442T301 483ZM290 398Q236 398 196 319T156 165Q156 122 172 96T217 71Q253 71 283 107T331 200T350 302Q350 346 334 372T290 398ZM483 752H610L416 614ZM349 684L468 524L331 579L166 524Z"
				   horiz-adv-x="508" unicode="ố"/>
			<glyph d="M435 682Q549 682 614 611T680 422Q680 312 626 208Q573 105 482 45T289 -15Q177 -15 111 55T46 246Q46 358 98 460T241 622T435 682ZM418 589Q362 589 312 538T232 401T202 232Q202 163 228 120T307 78Q364 78 414 128T494 262T525 433Q525 502 498 545T418 589ZM246 931H362L381 793ZM475 863L594 703L457 758L292 703Z"
				   horiz-adv-x="682" unicode="Ồ"/>
			<glyph d="M301 483Q387 483 435 430T484 291Q484 214 447 143Q411 73 347 30T205 -13Q120 -13 72 40T24 179Q24 257 62 329T164 442T301 483ZM290 398Q236 398 196 319T156 165Q156 122 172 96T217 71Q253 71 283 107T331 200T350 302Q350 346 334 372T290 398ZM120 752H236L255 614ZM349 684L468 524L331 579L166 524Z"
				   horiz-adv-x="508" unicode="ồ"/>
			<glyph d="M435 682Q549 682 614 611T680 422Q680 312 626 208Q573 105 482 45T289 -15Q177 -15 111 55T46 246Q46 358 98 460T241 622T435 682ZM418 589Q362 589 312 538T232 401T202 232Q202 163 228 120T307 78Q364 78 414 128T494 262T525 433Q525 502 498 545T418 589ZM475 863L594 703L457 758L292 703ZM619 948Q646 948 664 934T682 897Q682 874 669 859T642 836T614 820T602 804Q602 796 612 792Q607 790 603 789T594 788Q581 788 571 795T561 814Q561 836 591 855Q621 872 621 889Q621 897 615 901T601 906Q572 905 543 869L556 936Q589 948 619 948Z"
				   horiz-adv-x="682" unicode="Ổ"/>
			<glyph d="M301 483Q387 483 435 430T484 291Q484 214 447 143Q411 73 347 30T205 -13Q120 -13 72 40T24 179Q24 257 62 329T164 442T301 483ZM290 398Q236 398 196 319T156 165Q156 122 172 96T217 71Q253 71 283 107T331 200T350 302Q350 346 334 372T290 398ZM349 684L468 524L331 579L166 524ZM493 769Q520 769 538 755T556 718Q556 695 543 680T516 657T488 641T476 625Q476 617 486 613Q481 611 477 610T468 609Q455 609 445 616T435 635Q435 657 465 676Q495 693 495 710Q495 718 489 722T475 727Q446 726 417 690L430 757Q463 769 493 769Z"
				   horiz-adv-x="508" unicode="ổ"/>
			<glyph d="M435 682Q549 682 614 611T680 422Q680 312 626 208Q573 105 482 45T289 -15Q177 -15 111 55T46 246Q46 358 98 460T241 622T435 682ZM418 589Q362 589 312 538T232 401T202 232Q202 163 228 120T307 78Q364 78 414 128T494 262T525 433Q525 502 498 545T418 589ZM623 1001Q633 985 633 962Q633 925 609 899T546 873Q518 873 478 899T417 925Q397 925 382 907T360 864Q349 878 349 903Q349 939 373 964T437 990Q466 990 507 964T567 939Q588 939 603 958Q619 978 623 1001ZM475 863L594 703L457 758L292 703Z"
				   horiz-adv-x="682" unicode="Ỗ"/>
			<glyph d="M301 483Q387 483 435 430T484 291Q484 214 447 143Q411 73 347 30T205 -13Q120 -13 72 40T24 179Q24 257 62 329T164 442T301 483ZM290 398Q236 398 196 319T156 165Q156 122 172 96T217 71Q253 71 283 107T331 200T350 302Q350 346 334 372T290 398ZM497 822Q507 806 507 783Q507 746 483 720T420 694Q392 694 352 720T291 746Q271 746 256 728T234 685Q223 699 223 724Q223 760 247 785T311 811Q340 811 381 785T441 760Q462 760 477 779Q493 799 497 822ZM349 684L468 524L331 579L166 524Z"
				   horiz-adv-x="508" unicode="ỗ"/>
			<glyph d="M435 682Q549 682 614 611T680 422Q680 312 626 208Q573 105 482 45T289 -15Q177 -15 111 55T46 246Q46 358 98 460T241 622T435 682ZM418 589Q362 589 312 538T232 401T202 232Q202 163 228 120T307 78Q364 78 414 128T494 262T525 433Q525 502 498 545T418 589ZM269 -57Q300 -57 318 -76T336 -126Q336 -161 313 -184T255 -207Q225 -207 206 -188T187 -138Q187 -105 211 -81T269 -57ZM473 890L592 697L448 770L278 697Z"
				   horiz-adv-x="682" unicode="Ộ"/>
			<glyph d="M301 483Q387 483 435 430T484 291Q484 214 447 143Q411 73 347 30T205 -13Q120 -13 72 40T24 179Q24 257 62 329T164 442T301 483ZM290 398Q236 398 196 319T156 165Q156 122 172 96T217 71Q253 71 283 107T331 200T350 302Q350 346 334 372T290 398ZM181 -57Q212 -57 230 -76T248 -126Q248 -161 225 -184T167 -207Q137 -207 118 -188T99 -138Q99 -105 123 -81T181 -57ZM348 697L452 506L323 579L167 506Z"
				   horiz-adv-x="508" unicode="ộ"/>
			<glyph d="M760 713Q788 713 806 693T824 645Q824 596 782 550T675 479L680 422Q680 312 626 208T482 45T289 -15Q177 -15 111 55T46 246Q46 358 98 460T241 622T435 682Q524 682 581 639T663 527Q712 549 728 582Q711 588 698 603T686 642Q686 672 707 692T760 713ZM418 589Q362 589 312 538T232 401T202 232Q202 163 228 120T307 78Q364 78 414 128T494 262T525 433Q525 502 498 545T418 589ZM459 856H625L384 696Z"
				   horiz-adv-x="709" unicode="Ớ"/>
			<glyph d="M550 565Q577 565 595 545T613 497Q613 451 574 406Q536 361 480 337Q484 315 484 291Q484 214 447 143T347 30T205 -13Q120 -13 72 40T24 179Q24 257 61 328T163 441T301 483Q420 483 464 385Q502 406 518 434Q501 440 488 455T475 494Q475 524 496 544T550 565ZM290 398Q236 398 196 319T156 165Q156 122 172 96T217 71Q253 71 283 107T331 200T350 302Q350 346 334 372T290 398ZM343 666H509L268 506Z"
				   horiz-adv-x="534" unicode="ớ"/>
			<glyph d="M760 713Q788 713 806 693T824 645Q824 596 782 550T675 479L680 422Q680 312 626 208T482 45T289 -15Q177 -15 111 55T46 246Q46 358 98 460T241 622T435 682Q524 682 581 639T663 527Q712 549 728 582Q711 588 698 603T686 642Q686 672 707 692T760 713ZM418 589Q362 589 312 538T232 401T202 232Q202 163 228 120T307 78Q364 78 414 128T494 262T525 433Q525 502 498 545T418 589ZM352 856H516L528 696Z"
				   horiz-adv-x="709" unicode="Ờ"/>
			<glyph d="M550 565Q577 565 595 545T613 497Q613 451 574 406Q536 361 480 337Q484 315 484 291Q484 214 447 143T347 30T205 -13Q120 -13 72 40T24 179Q24 257 61 328T163 441T301 483Q420 483 464 385Q502 406 518 434Q501 440 488 455T475 494Q475 524 496 544T550 565ZM290 398Q236 398 196 319T156 165Q156 122 172 96T217 71Q253 71 283 107T331 200T350 302Q350 346 334 372T290 398ZM214 666H378L389 506Z"
				   horiz-adv-x="534" unicode="ờ"/>
			<glyph d="M760 713Q788 713 806 693T824 645Q824 596 782 550T675 479L680 422Q680 312 626 208T482 45T289 -15Q177 -15 111 55T46 246Q46 358 98 460T241 622T435 682Q524 682 581 639T663 527Q712 549 728 582Q711 588 698 603T686 642Q686 672 707 692T760 713ZM418 589Q362 589 312 538T232 401T202 232Q202 163 228 120T307 78Q364 78 414 128T494 262T525 433Q525 502 498 545T418 589ZM498 912Q531 912 553 894T576 847Q576 821 562 803T528 774T493 754T478 734Q478 724 490 720Q480 715 468 715Q453 715 441 722T429 746Q429 763 440 775T464 797T489 816T500 839Q500 860 477 860Q444 860 406 814L422 896Q461 912 498 912Z"
				   horiz-adv-x="709" unicode="Ở"/>
			<glyph d="M550 565Q577 565 595 545T613 497Q613 451 574 406Q536 361 480 337Q484 315 484 291Q484 214 447 143T347 30T205 -13Q120 -13 72 40T24 179Q24 257 61 328T163 441T301 483Q420 483 464 385Q502 406 518 434Q501 440 488 455T475 494Q475 524 496 544T550 565ZM290 398Q236 398 196 319T156 165Q156 122 172 96T217 71Q253 71 283 107T331 200T350 302Q350 346 334 372T290 398ZM352 715Q385 715 407 697T430 650Q430 624 416 606T382 577T347 557T332 537Q332 527 344 523Q334 518 322 518Q307 518 295 525T283 549Q283 566 294 578T318 600T343 619T354 642Q354 663 331 663Q298 663 260 617L276 699Q315 715 352 715Z"
				   horiz-adv-x="534" unicode="ở"/>
			<glyph d="M760 713Q788 713 806 693T824 645Q824 596 782 550T675 479L680 422Q680 312 626 208T482 45T289 -15Q177 -15 111 55T46 246Q46 358 98 460T241 622T435 682Q524 682 581 639T663 527Q712 549 728 582Q711 588 698 603T686 642Q686 672 707 692T760 713ZM418 589Q362 589 312 538T232 401T202 232Q202 163 228 120T307 78Q364 78 414 128T494 262T525 433Q525 502 498 545T418 589ZM595 866Q609 848 609 821Q609 782 579 751T508 720Q477 720 434 744T366 769Q321 769 310 703Q295 722 295 749Q295 789 323 818T393 847Q426 847 472 823T539 799Q585 799 595 866Z"
				   horiz-adv-x="709" unicode="Ỡ"/>
			<glyph d="M550 565Q577 565 595 545T613 497Q613 451 574 406Q536 361 480 337Q484 315 484 291Q484 214 447 143T347 30T205 -13Q120 -13 72 40T24 179Q24 257 61 328T163 441T301 483Q420 483 464 385Q502 406 518 434Q501 440 488 455T475 494Q475 524 496 544T550 565ZM290 398Q236 398 196 319T156 165Q156 122 172 96T217 71Q253 71 283 107T331 200T350 302Q350 346 334 372T290 398ZM476 694Q490 674 490 650Q490 609 460 578T389 548Q357 548 314 572T247 597Q202 598 191 531Q176 549 176 575Q176 615 203 644T273 674Q305 674 351 650T419 627Q445 627 458 644Q471 662 476 694Z"
				   horiz-adv-x="534" unicode="ỡ"/>
			<glyph d="M760 713Q788 713 806 693T824 645Q824 596 782 550T675 479L680 422Q680 312 626 208T482 45T289 -15Q177 -15 111 55T46 246Q46 358 98 460T241 622T435 682Q524 682 581 639T663 527Q712 549 728 582Q711 588 698 603T686 642Q686 672 707 692T760 713ZM418 589Q362 589 312 538T232 401T202 232Q202 163 228 120T307 78Q364 78 414 128T494 262T525 433Q525 502 498 545T418 589ZM268 -57Q299 -57 317 -76T335 -126Q335 -161 312 -184T254 -207Q224 -207 205 -188T186 -138Q186 -105 210 -81T268 -57Z"
				   horiz-adv-x="709" unicode="Ợ"/>
			<glyph d="M550 565Q577 565 595 545T613 497Q613 451 574 406Q536 361 480 337Q484 315 484 291Q484 214 447 143T347 30T205 -13Q120 -13 72 40T24 179Q24 257 61 328T163 441T301 483Q420 483 464 385Q502 406 518 434Q501 440 488 455T475 494Q475 524 496 544T550 565ZM290 398Q236 398 196 319T156 165Q156 122 172 96T217 71Q253 71 283 107T331 200T350 302Q350 346 334 372T290 398ZM181 -57Q212 -57 230 -76T248 -126Q248 -161 225 -184T167 -207Q137 -207 118 -188T99 -138Q99 -105 123 -81T181 -57Z"
				   horiz-adv-x="534" unicode="ợ"/>
			<glyph d="M124 666H363Q313 653 302 603L224 243Q216 207 216 177Q216 120 240 101T313 82Q368 82 408 116T462 216Q503 411 542 600Q543 615 543 620Q543 655 511 666H718Q673 655 661 600L583 230Q555 98 487 41T282 -15Q72 -15 72 163Q72 211 83 262Q135 498 152 579Q160 613 160 622Q160 654 124 666ZM274 -57Q305 -57 323 -76T341 -126Q341 -161 318 -184T260 -207Q230 -207 211 -188T192 -138Q192 -105 216 -81T274 -57Z"
				   horiz-adv-x="661" unicode="Ụ"/>
			<glyph d="M253 486L181 156Q177 140 177 120Q177 73 218 73Q251 73 282 105T323 181L359 338Q367 376 367 393Q367 415 354 423T319 435L521 486L438 109Q436 100 434 91T433 74Q433 39 483 35L292 -15L307 58Q278 26 233 6T143 -14Q41 -14 41 76Q41 99 48 132L90 338Q96 371 96 389Q97 432 50 435ZM210 -57Q241 -57 259 -76T277 -126Q277 -161 254 -184T196 -207Q166 -207 147 -188T128 -138Q128 -105 152 -81T210 -57Z"
				   horiz-adv-x="537" unicode="ụ"/>
			<glyph d="M124 666H363Q313 653 302 603L224 243Q216 207 216 177Q216 120 240 101T313 82Q368 82 408 116T462 216Q503 411 542 600Q543 615 543 620Q543 655 511 666H718Q673 655 661 600L583 230Q555 98 487 41T282 -15Q72 -15 72 163Q72 211 83 262Q135 498 152 579Q160 613 160 622Q160 654 124 666ZM462 902Q495 902 517 884T540 837Q540 811 526 793T492 764T457 744T442 724Q442 714 454 710Q444 705 432 705Q417 705 405 712T393 736Q393 753 404 765T428 787T453 806T464 829Q464 850 441 850Q408 850 370 804L386 886Q425 902 462 902Z"
				   horiz-adv-x="661" unicode="Ủ"/>
			<glyph d="M253 486L181 156Q177 140 177 120Q177 73 218 73Q251 73 282 105T323 181L359 338Q367 376 367 393Q367 415 354 423T319 435L521 486L438 109Q436 100 434 91T433 74Q433 39 483 35L292 -15L307 58Q278 26 233 6T143 -14Q41 -14 41 76Q41 99 48 132L90 338Q96 371 96 389Q97 432 50 435ZM361 715Q394 715 416 697T439 650Q439 624 425 606T391 577T356 557T341 537Q341 527 353 523Q343 518 331 518Q316 518 304 525T292 549Q292 566 303 578T327 600T352 619T363 642Q363 663 340 663Q307 663 269 617L285 699Q324 715 361 715Z"
				   horiz-adv-x="537" unicode="ủ"/>
			<glyph d="M794 713Q821 713 839 693T857 645Q857 583 789 526T631 460L583 230Q556 99 488 42T282 -15Q177 -15 124 28T72 165Q72 213 83 262L156 598Q160 613 160 622Q160 655 125 666H362Q339 661 323 644T302 603L224 242Q216 208 216 167Q216 120 240 101T313 82Q369 82 408 115T462 216L540 592Q543 613 543 620Q543 655 511 666H675L642 510Q693 520 723 542T762 582Q745 588 732 604T719 642Q719 674 738 693T794 713ZM459 856H625L384 696Z"
				   horiz-adv-x="742" unicode="Ứ"/>
			<glyph d="M630 565Q658 565 676 545T694 497Q694 459 666 419T592 350T483 314L441 121Q433 87 433 74Q433 41 483 35L292 -15L307 58Q278 26 233 6T143 -14Q41 -14 41 76Q41 99 48 132L93 355Q96 380 96 388Q96 411 86 421T50 435L253 486L181 156Q177 140 177 120Q177 73 218 73Q251 73 282 105T325 190L359 338Q367 367 367 393Q367 430 319 435L521 486L494 366Q540 376 565 397T598 434Q581 440 568 456T556 494Q556 524 577 544T630 565ZM348 666H514L273 506Z"
				   horiz-adv-x="615" unicode="ứ"/>
			<glyph d="M794 713Q821 713 839 693T857 645Q857 583 789 526T631 460L583 230Q556 99 488 42T282 -15Q177 -15 124 28T72 165Q72 213 83 262L156 598Q160 613 160 622Q160 655 125 666H362Q339 661 323 644T302 603L224 242Q216 208 216 167Q216 120 240 101T313 82Q369 82 408 115T462 216L540 592Q543 613 543 620Q543 655 511 666H675L642 510Q693 520 723 542T762 582Q745 588 732 604T719 642Q719 674 738 693T794 713ZM312 856H476L488 696Z"
				   horiz-adv-x="742" unicode="Ừ"/>
			<glyph d="M630 565Q658 565 676 545T694 497Q694 459 666 419T592 350T483 314L441 121Q433 87 433 74Q433 41 483 35L292 -15L307 58Q278 26 233 6T143 -14Q41 -14 41 76Q41 99 48 132L93 355Q96 380 96 388Q96 411 86 421T50 435L253 486L181 156Q177 140 177 120Q177 73 218 73Q251 73 282 105T325 190L359 338Q367 367 367 393Q367 430 319 435L521 486L494 366Q540 376 565 397T598 434Q581 440 568 456T556 494Q556 524 577 544T630 565ZM201 666H365L376 506Z"
				   horiz-adv-x="615" unicode="ừ"/>
			</font>
</defs>
</svg>
