<?xml version="1.0" encoding="UTF-8"?>
<svg height="100%" width="100%" xmlns="http://www.w3.org/2000/svg">
	<defs>
		<font horiz-adv-x="777" id="web">
			<font-face alphabetic="0" ascent="1006" descent="-258" font-family="" panose-1="2 2 9 3 5 0 0 2 0 4"/>
			<missing-glyph
					d="M0 718H512V0H0ZM50 667V50H462V667ZM259 609Q313 609 348 573T383 478Q383 446 371 421T319 357Q285 326 278 311Q271 294 271 234H225L223 253Q223 308 238 335T286 395Q332 436 332 474Q332 508 308 533T256 559Q186 559 174 464L124 472Q138 609 259 609ZM222 184H278V117H222Z"
					horiz-adv-x="512"/>
			<glyph d="" horiz-adv-x="213" unicode=" "/>
			<glyph d="M26 666H289Q274 664 259 630T240 535L225 365Q215 257 157 188Q100 253 89 365L75 535Q65 647 26 666ZM157 151Q197 151 221 127T246 68Q246 32 221 8T157 -15Q117 -15 92 8T68 68Q68 104 93 127T157 151Z"
				   horiz-adv-x="314" unicode="!"/>
			<glyph d="M332 666H467V489Q466 395 399 302H395Q367 343 349 394T332 489ZM107 666H242V489Q242 398 174 302H170Q141 345 124 395T107 489Z"
				   horiz-adv-x="573" unicode="&quot;"/>
			<glyph d="M208 666H284L244 469H391L429 666H508L468 469H557V403H453L424 266H525V201H409L366 0H291L333 201H186L143 0H69L111 201H17V266H125L154 403H55V469H168ZM230 403L201 266H348L376 403Z"
				   horiz-adv-x="593" unicode="#"/>
			<glyph d="M217 748H364V654Q423 644 463 617V450Q440 492 393 519T301 547Q227 547 227 494Q227 463 259 443T336 403Q408 370 439 343T488 281T506 201Q506 129 466 84T364 20V-92H217V9Q128 20 77 53V251Q142 121 265 121Q303 121 327 136T351 179Q351 204 327 225T249 272Q158 311 119 356T80 464Q80 536 118 581T217 646Z"
				   horiz-adv-x="583" unicode="$"/>
			<glyph d="M569 666H691L236 0H112ZM613 307Q688 307 735 262T782 148Q782 80 734 34T613 -11Q538 -11 491 34T444 148Q444 216 490 261T613 307ZM613 223Q556 223 556 147Q556 72 613 72Q670 72 670 147Q670 223 613 223ZM195 681Q270 681 317 636T364 522Q364 454 316 408T195 363Q120 363 73 408T26 522Q26 590 72 635T195 681ZM195 597Q138 597 138 521Q138 446 195 446Q252 446 252 521Q252 597 195 597Z"
				   horiz-adv-x="812" unicode="%"/>
			<glyph d="M312 682Q410 682 470 637T531 522Q531 475 500 432T389 342Q464 273 534 224Q592 287 592 341Q592 378 561 402H809Q787 388 767 363T742 321Q712 236 640 156Q714 114 765 114Q790 114 805 127T838 161Q816 84 797 51T752 1T690 -16Q634 -16 521 55Q406 -17 286 -17Q152 -17 88 24T25 157Q25 208 55 251T172 345Q122 405 105 439T88 501Q88 582 151 632T312 682ZM310 571Q285 571 265 557T245 513Q245 503 251 490T268 465T289 440T308 417Q384 463 384 515Q384 541 360 556T310 571ZM254 263Q207 227 207 188Q207 153 233 127T314 102Q356 102 410 130Q331 189 254 263Z"
				   horiz-adv-x="838" unicode="&amp;"/>
			<glyph d="M68 666H203V489Q203 398 135 302H131Q103 343 85 394T68 489Z" horiz-adv-x="271" unicode="'"/>
			<glyph d="M358 708Q282 668 233 545T185 257Q185 97 232 -28T358 -205Q213 -166 118 -36T24 252Q24 415 118 541Q212 668 358 708Z"
				   horiz-adv-x="363" unicode="("/>
			<glyph d="M5 708Q149 669 244 539T339 249Q339 88 246 -38T5 -205Q83 -163 130 -42T178 244Q178 405 131 531T5 708Z"
				   horiz-adv-x="363" unicode=")"/>
			<glyph d="M232 718Q220 651 220 611Q220 572 230 533Q294 591 335 683L422 550Q376 542 336 530T257 494Q295 467 332 454T419 434L331 304Q293 400 230 455Q219 413 219 368Q219 323 229 271L85 317Q160 391 187 470Q108 465 22 415V574Q67 547 101 534T187 517Q162 578 134 612T86 670Z"
				   horiz-adv-x="428" unicode="*"/>
			<glyph d="M299 570H407V340H629V233H407V0H299V233H76V340H299Z" horiz-adv-x="705" unicode="+"/>
			<glyph d="M137 179Q189 179 219 138T250 37Q250 -55 186 -121T16 -189Q63 -167 97 -120T131 -24Q131 -11 130 0Q125 -1 116 -1Q78 -1 58 23T39 80Q39 122 66 150T137 179Z"
				   horiz-adv-x="271" unicode=","/>
			<glyph d="M39 314H294V203H39Z" horiz-adv-x="330" unicode="-"/>
			<glyph d="M136 180Q182 180 210 152T239 83Q239 41 210 13T136 -15Q90 -15 62 13T34 83Q34 125 62 152T136 180Z"
				   horiz-adv-x="271" unicode="."/>
			<glyph d="M339 684H472L162 -15H25Z" horiz-adv-x="497" unicode="/"/>
			<glyph d="M295 681Q413 681 480 591T548 346Q548 180 479 82Q411 -15 289 -15Q167 -15 101 73T35 316Q35 484 104 582T295 681ZM279 559Q235 559 216 514T198 373Q198 107 300 107Q346 107 364 150T382 293Q382 559 279 559Z"
				   horiz-adv-x="583" unicode="0"/>
			<glyph d="M259 666H397V145Q397 37 459 0H172Q233 37 233 145V486L161 409L84 488Q215 616 259 666Z"
				   horiz-adv-x="583" unicode="1"/>
			<glyph d="M308 681Q410 681 474 628T539 484Q539 393 411 246L304 125H450Q532 125 564 177L540 0H19L195 193Q298 305 333 361T368 467Q368 510 341 537T271 564Q227 564 206 543T185 498Q185 475 201 456T250 433L149 315Q97 328 64 370T32 468Q32 526 67 576T163 653T308 681Z"
				   horiz-adv-x="583" unicode="2"/>
			<glyph d="M92 666H551L341 391Q431 377 485 328T540 200Q540 104 467 44T272 -15Q178 -15 111 23T21 124L157 219Q176 164 205 134T291 104Q330 104 351 128T373 184Q373 243 309 270T152 301L325 541H187Q143 541 114 529T65 489Z"
				   horiz-adv-x="583" unicode="3"/>
			<glyph d="M261 666H472V251H552V135H472V106Q472 61 486 32T523 0H263Q288 6 303 34T318 107V135H13V166ZM318 535L184 251H318Z"
				   horiz-adv-x="583" unicode="4"/>
			<glyph d="M509 687L488 543H240L228 424Q371 424 453 366T535 207Q535 106 462 45T266 -15Q174 -15 106 23T16 124L152 219Q172 156 205 130T285 104Q327 104 347 129T368 189Q368 241 323 271T185 301H77L108 666H383Q488 667 509 687Z"
				   horiz-adv-x="583" unicode="5"/>
			<glyph d="M275 673L517 656Q396 608 325 549T207 406L213 402Q264 457 346 457Q439 457 496 394T553 236Q553 168 521 109T429 17T291 -16Q171 -16 104 53T37 251Q37 378 99 492T275 673ZM292 337Q250 337 224 308T199 232Q199 176 229 138T311 100Q350 100 375 128T401 205Q401 260 371 298T292 337Z"
				   horiz-adv-x="583" unicode="6"/>
			<glyph d="M50 666H576L448 381Q356 175 354 0H143Q166 84 233 247T365 546H157Q71 546 27 474Z" horiz-adv-x="583"
				   unicode="7"/>
			<glyph d="M299 682Q397 682 461 637T526 520Q526 473 498 430Q471 388 410 368Q553 316 553 189Q553 95 477 39T286 -16Q167 -16 98 33T30 169Q30 227 67 271T176 337Q114 365 86 408T58 500Q58 580 129 631T299 682ZM283 570Q210 570 210 499Q210 459 235 435T301 411Q335 411 354 430Q374 449 374 486Q374 525 349 547T283 570ZM279 284Q233 284 213 257T193 198Q193 153 221 127T301 102Q392 102 392 184Q392 229 361 256T279 284Z"
				   horiz-adv-x="583" unicode="8"/>
			<glyph d="M288 681Q410 681 477 609T545 411Q545 284 483 171T307 -8L65 9Q190 59 260 118T375 257L369 262Q318 207 236 207Q144 207 86 269T29 428Q29 537 100 609T288 681ZM268 565Q229 565 205 535T182 457Q182 399 213 362T291 325Q333 325 358 354T383 432Q383 488 350 526T268 565Z"
				   horiz-adv-x="583" unicode="9"/>
			<glyph d="M135 472Q181 472 209 444T237 375Q237 333 209 305T135 278Q89 278 60 305T32 375Q32 417 60 444T135 472ZM135 180Q181 180 209 152T237 83Q237 41 209 13T135 -15Q89 -15 60 13T32 83Q32 125 60 152T135 180Z"
				   horiz-adv-x="271" unicode=":"/>
			<glyph d="M147 472Q193 472 221 444T250 375Q250 333 221 305T147 278Q101 278 73 305T45 375Q45 417 73 444T147 472ZM142 179Q194 179 224 138T255 37Q255 -58 189 -122Q124 -187 21 -189Q66 -169 101 -121T136 -24Q136 -12 135 0Q128 -1 121 -1Q83 -1 63 23T44 80Q44 122 71 150T142 179Z"
				   horiz-adv-x="271" unicode=";"/>
			<glyph d="M596 597V476L245 286V280L596 101V-21L109 249V327Z" horiz-adv-x="705" unicode="&lt;"/>
			<glyph d="M76 448H629V341H76ZM76 230H629V123H76Z" horiz-adv-x="705" unicode="="/>
			<glyph d="M109 597L596 327V249L109 -21V101L460 290V296L109 476Z" horiz-adv-x="705" unicode="&gt;"/>
			<glyph d="M253 683Q352 683 408 639T465 525Q465 437 365 364Q308 322 286 297T265 248Q265 225 274 217T299 208Q275 180 233 180Q181 180 149 206T117 278Q117 353 202 414Q258 456 272 472T286 509Q286 533 267 547T221 561Q175 561 132 529T63 446V639Q95 658 147 670T253 683ZM222 151Q262 151 286 127T311 68Q311 32 286 8T222 -15Q182 -15 157 8T133 68Q133 104 157 127T222 151Z"
				   horiz-adv-x="471" unicode="?"/>
			<glyph d="M517 640Q678 640 782 549T886 308Q886 176 811 86T625 -3Q572 -3 544 13T508 75Q467 -3 373 -3Q312 -3 277 42T243 167Q243 243 273 313T357 425T480 467Q516 467 546 457T609 447Q636 447 679 465L625 143Q622 131 622 116Q622 62 658 62Q700 62 737 92T795 176T817 309Q817 436 731 511T511 586Q408 586 318 538T176 403T125 204Q125 53 228 -40T501 -134Q590 -134 672 -104T815 -17L866 -53Q805 -114 707 -151T504 -189Q295 -189 175 -85T56 198Q56 327 117 427T285 584T517 640ZM474 390Q440 390 412 317T385 169Q385 81 427 81Q468 81 491 171T515 321Q515 390 474 390Z"
				   horiz-adv-x="942" unicode="@"/>
			<glyph d="M307 666H457L680 131Q698 87 717 58T752 16T780 0H466Q482 2 494 15T506 52Q506 73 480 137H234Q214 73 214 57Q214 32 226 17T255 0H-1Q50 17 98 136ZM355 460L275 244H438Z"
				   unicode="A"/>
			<glyph d="M22 666H412Q500 666 553 619T606 504Q606 451 573 409T488 353Q553 342 595 295T638 182Q638 102 580 51T426 0H33Q47 2 58 15T78 56T87 128V541Q87 591 71 624T22 666ZM261 288V114H357Q410 114 432 138T455 197Q455 288 346 288ZM261 555V397H346Q382 397 403 419T424 480Q424 514 402 534T344 555Z"
				   horiz-adv-x="668" unicode="B"/>
			<glyph d="M408 681Q514 681 590 643V435Q565 490 516 523T401 557Q324 557 273 496T223 339Q223 236 273 175T402 114Q456 114 510 141T602 218V78Q568 38 507 11T382 -15Q223 -15 131 77T40 319Q40 422 85 504T213 634T408 681Z"
				   horiz-adv-x="638" unicode="C"/>
			<glyph d="M23 666H361Q519 666 617 575T715 340Q715 186 616 93T346 0H33Q49 3 62 18T84 61T93 136V546Q93 649 23 666ZM269 555V114H350Q432 114 480 175T529 332Q529 437 473 496T318 555Z"
				   horiz-adv-x="755" unicode="D"/>
			<glyph d="M17 666H509V460Q491 513 460 534T380 555H264V391H369Q434 391 451 425V245Q448 260 425 269T371 279H264V114H392Q452 114 487 136T553 213L517 0H29Q42 2 57 16T80 59T89 132V546Q89 588 77 613T50 651T17 666Z"
				   horiz-adv-x="576" unicode="E"/>
			<glyph d="M22 666H511V462Q489 517 457 536T381 555H267V391H366Q403 391 424 401T448 426V244Q444 259 422 269T367 279H267V118Q267 65 281 34T321 0H32Q46 2 60 15T83 55T92 123V548Q92 588 81 613T54 651T22 666Z"
				   horiz-adv-x="530" unicode="F"/>
			<glyph d="M420 681Q531 681 615 643V445Q587 497 534 528T415 559Q325 559 267 495T209 333Q209 235 262 171T393 108Q426 108 455 116V199Q455 229 447 248T428 280T393 299H682Q667 296 654 286T632 256T623 203V22Q518 -15 368 -15Q265 -15 187 28T67 148T25 317Q25 417 74 501T213 633T420 681Z"
				   horiz-adv-x="692" unicode="G"/>
			<glyph d="M22 666H310Q298 664 285 650T263 612T255 544V391H511V544Q510 650 455 666H742Q718 662 703 630T688 544V122Q688 81 696 55T716 15T742 0H455Q469 2 481 15T502 53T511 122V279H255V122Q255 80 263 53T284 14T310 0H22Q35 2 48 14T69 53T78 122V544Q78 648 22 666Z"
				   horiz-adv-x="765" unicode="H"/>
			<glyph d="M27 666H312Q300 664 287 652T266 614T257 550V111Q257 74 265 50T285 14T311 0H27Q51 4 66 33T82 111V550Q82 648 27 666Z"
				   horiz-adv-x="339" unicode="I"/>
			<glyph d="M42 666H332Q308 661 293 631T278 550V116Q278 18 234 -34T106 -87Q62 -87 24 -69T-36 -21Q-19 -26 -1 -26Q44 -26 73 14T102 136V552Q102 651 42 666Z"
				   horiz-adv-x="359" unicode="J"/>
			<glyph d="M22 666H309Q296 664 283 650T263 611T255 544V379L399 540Q457 605 457 639Q457 661 431 666H731Q718 664 693 651T637 611T565 542L413 370L594 130Q684 13 737 0H481L255 303V121Q255 82 263 54T283 14T309 0H22Q35 2 48 15T70 55T78 121V544Q78 647 22 666Z"
				   horiz-adv-x="749" unicode="K"/>
			<glyph d="M22 666H302Q279 662 263 632T247 544V114H397Q455 114 484 129T542 193L511 0H28Q51 5 64 40T77 137V544Q77 649 22 666Z"
				   horiz-adv-x="568" unicode="L"/>
			<glyph d="M23 666H315L472 320L626 666H888Q874 664 860 650T838 611T830 547V124Q830 82 839 55T861 15T888 0H614Q628 3 639 16T657 55T665 124V459L448 -17L223 459V129Q223 76 240 41T291 0H28Q45 3 59 16T84 57T94 130V550Q94 651 23 666Z"
				   horiz-adv-x="915" unicode="M"/>
			<glyph d="M-6 666H249L529 328V547Q529 651 471 666H720Q695 661 680 630T666 547V0H529Q503 82 407 202L232 410V118Q232 65 251 34T296 0H42Q55 3 66 15T86 52T94 119V540Q94 613 -6 666Z"
				   horiz-adv-x="748" unicode="N"/>
			<glyph d="M399 681Q546 681 637 587T729 344Q729 244 683 161Q638 78 557 31T373 -15Q224 -15 132 79T40 322Q40 422 85 504T213 634T399 681ZM372 557Q303 557 261 503T220 353Q220 237 266 174T398 112Q465 112 508 165T551 316Q551 427 504 492T372 557Z"
				   horiz-adv-x="769" unicode="O"/>
			<glyph d="M23 666H345Q453 666 517 609T581 458Q581 357 513 295T331 234Q283 234 245 246V121Q245 78 254 53T278 15T309 0H23Q38 3 50 16T70 56T78 124V541Q78 648 23 666ZM245 555V358Q274 347 308 347Q354 347 377 376T401 456Q401 501 375 528T298 555Z"
				   horiz-adv-x="603" unicode="P"/>
			<glyph d="M399 681Q546 681 637 587T729 344Q729 257 694 181T594 56Q627 14 689 -9Q751 -33 814 -33Q738 -87 631 -87Q499 -87 405 -14Q388 -15 373 -15Q224 -15 132 79T40 322Q40 422 85 504T213 634T399 681ZM372 557Q303 557 261 503T220 353Q220 237 266 174T398 112Q465 112 508 165T551 316Q551 427 504 492T372 557Z"
				   horiz-adv-x="769" unicode="Q"/>
			<glyph d="M22 666H352Q464 666 532 609T600 465Q600 390 556 340T444 278Q470 261 494 218L570 85Q591 46 616 24T658 0H425L326 190Q308 225 295 234T269 244H256V121Q256 68 271 36T311 0H33Q47 2 60 15T81 54T89 121V540Q89 579 81 603T59 643T22 666ZM255 555V359H321Q371 359 398 387T425 461Q425 504 396 529T319 555Z"
				   horiz-adv-x="680" unicode="R"/>
			<glyph d="M302 680Q353 680 399 667T474 635V457Q451 498 399 529T294 561Q208 561 208 505Q208 482 228 463T333 407Q415 370 448 342T501 278T521 193Q521 96 447 41T252 -14Q134 -14 43 35V246Q113 107 252 107Q296 107 324 123T352 168Q352 194 328 215T236 267Q126 315 86 362T46 472Q46 566 116 623T302 680Z"
				   horiz-adv-x="560" unicode="S"/>
			<glyph d="M40 666H628L645 460Q623 517 592 536T516 555H422V122Q422 66 438 34T477 0H191Q216 4 230 36T245 122V555H127Q102 555 84 545T54 520T23 460H22Z"
				   horiz-adv-x="666" unicode="T"/>
			<glyph d="M22 666H309Q285 662 270 631T255 548V243Q255 165 284 135T376 106Q436 106 463 137T491 243V544Q491 594 475 626T430 666H700Q674 662 657 631T641 544V247Q641 119 573 52T370 -15Q218 -15 148 48T78 234V544Q78 650 22 666Z"
				   horiz-adv-x="723" unicode="U"/>
			<glyph d="M1 666H316Q297 664 282 652T268 618Q268 605 286 564L410 255L529 568Q541 599 541 617Q541 638 529 650T498 666H763Q741 662 712 625T662 530L453 0H321L103 535Q56 649 1 666Z"
				   horiz-adv-x="765" unicode="V"/>
			<glyph d="M1 666H315Q299 663 288 648T278 608Q278 579 290 545L383 265L483 535Q443 649 409 666H682Q665 663 652 647T639 603Q639 581 651 545L743 266L834 545Q845 580 845 606Q845 631 834 646T804 666H1067Q1039 660 1013 625T968 532L795 0H656L539 354L417 0H280L100 537Q60 651 1 666Z"
				   horiz-adv-x="1069" unicode="W"/>
			<glyph d="M1 666H329Q316 663 306 652T296 624Q296 608 305 585T383 463L440 540Q481 596 481 628Q481 646 472 655T454 666H726Q710 663 673 630T599 543L457 348L601 133Q646 67 678 35T727 0H395Q410 3 420 13T430 43Q430 59 420 83T344 205Q276 102 263 78T251 40Q251 21 259 11T279 0H1Q22 3 59 37T143 139L269 322L123 540Q51 649 1 666Z"
				   horiz-adv-x="728" unicode="X"/>
			<glyph d="M-5 666H310Q294 663 284 652T275 624Q275 594 301 549L380 415Q465 555 476 582T487 625Q487 644 477 654T455 666H709L701 662Q661 640 600 540L440 279V122Q440 81 448 55T468 15T494 0H207Q221 2 233 15T254 53T263 122V273L108 541Q44 650 -5 666Z"
				   horiz-adv-x="703" unicode="Y"/>
			<glyph d="M39 666H586L281 114H450Q564 114 610 213L589 0H19L326 555H192Q146 555 119 547T75 525T39 459Z"
				   horiz-adv-x="634" unicode="Z"/>
			<glyph d="M29 683H263V598H153V-94H263V-181H29Z" horiz-adv-x="291" unicode="["/>
			<glyph d="M25 684H158L472 -15H338Z" horiz-adv-x="497" unicode="\"/>
			<glyph d="M29 683H263V-181H29V-94H138V598H29Z" horiz-adv-x="291" unicode="]"/>
			<glyph d="M298 680H408L619 156H494L349 531H345L211 156H88Z" horiz-adv-x="705" unicode="^"/>
			<glyph d="M4 -78H580V-140H4Z" horiz-adv-x="585" unicode="_"/>
			<glyph d="M96 666H290L332 501Z" horiz-adv-x="506" unicode="`"/>
			<glyph d="M267 485Q364 485 413 447T463 329V160Q463 66 549 66L558 68L410 -25Q387 -22 362 -4T332 30Q310 8 270 -3T193 -15Q126 -15 84 20T43 112Q43 170 115 217T309 289V319Q309 394 256 393Q225 393 210 379T196 353Q196 334 214 325L63 270Q52 301 52 326Q52 394 117 439T267 485ZM309 205Q244 192 215 170T187 125Q187 107 202 94T243 82Q267 82 288 98T309 148Z"
				   horiz-adv-x="538" unicode="a"/>
			<glyph d="M223 703V438Q273 485 343 485Q429 485 481 424T534 257Q534 145 462 66T285 -13Q226 -13 187 0T134 14Q92 14 68 -15V511Q68 628 1 628H-10ZM292 368Q260 368 240 344T221 277V160Q221 128 238 112T281 96Q322 96 345 131T369 228Q369 287 347 327T292 368Z"
				   horiz-adv-x="568" unicode="b"/>
			<glyph d="M277 485Q352 485 399 440T451 320L307 264Q315 282 315 304Q315 333 301 353T258 374Q223 374 202 341T182 261Q182 192 218 145T316 98Q351 98 391 114T463 164Q450 86 389 35T254 -15Q150 -15 92 48T34 216Q34 333 104 409T277 485Z"
				   horiz-adv-x="481" unicode="c"/>
			<glyph d="M504 703V152Q504 52 563 52H579L360 -22L359 32Q339 12 304 -1T229 -15Q139 -15 86 46T34 214Q34 295 64 355T149 449T264 483Q320 483 349 465V510Q349 621 282 621H270ZM283 373Q245 373 221 339T197 247Q197 182 219 142T279 102Q310 102 330 122T350 184V299Q350 333 333 353T283 373Z"
				   horiz-adv-x="571" unicode="d"/>
			<glyph d="M273 485Q374 485 426 412T479 206H186Q199 152 241 125T336 99Q378 99 419 114T487 158Q473 70 415 27T267 -15Q164 -15 99 51T35 225Q35 335 102 410T273 485ZM270 386Q241 386 216 361T186 293H337Q337 341 317 363T270 386Z"
				   horiz-adv-x="519" unicode="e"/>
			<glyph d="M281 698Q305 698 326 694T356 690V555Q347 570 329 581T292 593Q244 593 244 521V465H356V366H244V132Q244 87 252 60T272 18T299 0H32Q47 3 59 16T79 57T88 132V366H11V465H88V494Q88 590 139 644T281 698Z"
				   horiz-adv-x="371" unicode="f"/>
			<glyph d="M262 485Q295 485 347 474T444 464Q494 464 522 478V371H451Q470 341 470 303Q470 231 410 184T252 138Q243 138 230 140Q201 122 201 110Q201 103 219 98T264 94L378 90Q447 87 485 57T523 -21Q523 -96 444 -145T225 -195Q128 -195 74 -172T21 -109Q21 -79 45 -52T108 -7Q44 13 44 55Q44 77 69 105T136 160Q92 178 63 216T34 302Q34 384 97 434T262 485ZM247 393Q221 393 207 371T193 321Q193 284 212 257T259 230Q287 230 300 252T313 303Q313 342 294 367T247 393ZM197 -24Q161 -47 161 -66Q161 -102 254 -102Q322 -102 353 -89T384 -61Q384 -33 320 -29T197 -24Z"
				   horiz-adv-x="536" unicode="g"/>
			<glyph d="M223 703V436Q244 455 283 470T358 485Q429 485 471 441T514 318V115Q514 75 522 51T542 14T568 0H318Q328 2 336 13T351 47T358 111V280Q358 368 297 368Q267 368 245 345T223 280V111Q223 74 231 49T250 14T274 0H12Q26 2 39 14T60 52T68 116V496Q68 613 1 613H-10Z"
				   horiz-adv-x="580" unicode="h"/>
			<glyph d="M225 490V116Q225 77 233 52T254 14T279 0H14Q39 4 54 34T69 116V308Q69 405 5 405H-9ZM138 694Q179 694 203 670T228 609Q228 571 203 547T138 523Q97 523 72 547T48 609Q48 646 72 670T138 694Z"
				   horiz-adv-x="292" unicode="i"/>
			<glyph d="M130 694Q171 694 195 670T220 609Q220 571 195 547T130 523Q89 523 64 547T40 609Q40 646 64 670T130 694ZM225 490V-15Q225 -99 178 -145T41 -192Q-1 -192 -36 -172T-80 -131Q-52 -141 -25 -141Q69 -141 69 -16V312Q69 405 5 405H-9Z"
				   horiz-adv-x="292" unicode="j"/>
			<glyph d="M225 700V269L321 374Q353 408 353 436Q353 449 345 456T327 465H598Q545 445 464 361L379 271L510 108Q585 15 620 15Q626 15 631 17Q588 -13 485 -13Q433 -13 398 7T331 73Q241 203 225 217V116Q225 77 233 52T253 14T279 0H14Q38 4 53 33T69 116V501Q69 618 1 618H-9Z"
				   horiz-adv-x="615" unicode="k"/>
			<glyph d="M225 700V116Q225 76 233 51T253 14T279 0H13Q38 4 53 34T68 116V501Q68 619 2 618H-10Z"
				   horiz-adv-x="292" unicode="l"/>
			<glyph d="M217 490L219 429Q245 453 288 469T367 485Q446 485 476 429Q499 452 544 468T640 485Q799 485 799 313V117Q799 77 807 52T827 14T853 0H594Q615 3 629 33T644 117V280Q644 368 584 368Q511 368 511 282V116Q511 63 525 33T560 0H306Q328 5 341 34T354 117V280Q354 368 299 368Q264 368 243 344T223 282V116Q223 77 230 51T249 14T272 0H11Q26 2 38 14T58 49T67 113V310Q67 405 10 405H-7Z"
				   horiz-adv-x="866" unicode="m"/>
			<glyph d="M217 490L218 428Q244 454 283 469T359 485Q514 485 514 312V117Q514 77 522 52T542 14T568 0H308Q330 4 343 32T357 112V280Q357 368 298 368Q265 368 243 344T222 277V111Q222 73 230 49T249 13T273 0H11Q26 2 38 14T58 49T67 113V310Q67 405 9 405H-7Z"
				   horiz-adv-x="579" unicode="n"/>
			<glyph d="M293 485Q408 485 477 420T547 247Q547 130 474 57T284 -15Q172 -15 103 49T34 227Q34 343 109 414T293 485ZM282 374Q244 374 217 340T191 249Q191 186 222 141T298 97Q336 97 361 132T387 227Q387 288 356 331T282 374Z"
				   horiz-adv-x="581" unicode="o"/>
			<glyph d="M208 490L210 426Q233 454 270 469T345 485Q426 485 480 423T534 253Q534 135 468 62T294 -10Q248 -10 219 7V-66Q219 -104 226 -126T243 -161T273 -181H18Q39 -176 51 -146T64 -66V299Q64 405 2 405H-10ZM287 368Q255 368 235 341T216 267V153Q216 97 280 97Q323 97 345 131T368 220Q368 291 346 329T287 368Z"
				   horiz-adv-x="568" unicode="p"/>
			<glyph d="M500 487V-66Q500 -104 507 -127T525 -162T555 -181H300Q320 -178 333 -147T346 -66V34Q294 -13 225 -13Q139 -13 86 48T34 215Q34 327 106 406T283 485Q338 485 376 471T432 458Q478 458 500 487ZM287 376Q246 376 222 341T199 244Q199 185 221 144T276 104Q308 104 327 128T346 196V312Q346 344 329 360T287 376Z"
				   horiz-adv-x="564" unicode="q"/>
			<glyph d="M212 490L214 396Q231 433 265 459T337 485Q365 485 393 469V280Q382 305 356 322T304 339Q265 339 243 302T221 197V116Q221 77 229 51T251 14T277 0H12Q37 4 52 34T67 116V317Q67 410 7 410H-6Z"
				   horiz-adv-x="413" unicode="r"/>
			<glyph d="M231 486Q302 486 359 459V312Q342 337 306 357T232 378Q185 378 185 349Q185 336 197 325T239 302Q333 261 363 226T394 139Q394 66 339 25T197 -15Q150 -15 104 -4T36 26V185Q58 146 99 118T194 91Q249 91 249 121Q249 135 235 146T181 175Q101 212 71 245T42 331Q42 402 91 444T231 486Z"
				   horiz-adv-x="418" unicode="s"/>
			<glyph d="M221 617V465H349V366H221V159Q221 100 274 100Q300 100 326 114T363 147Q345 -16 202 -16Q135 -16 100 19T66 106V366H-3Z"
				   horiz-adv-x="379" unicode="t"/>
			<glyph d="M-8 465H222V190Q222 102 281 102Q314 102 335 125T356 191V357Q356 452 302 465H511V160Q511 65 569 65H585L362 -20L360 42Q334 16 295 0T221 -15Q65 -15 65 157V351Q65 393 48 425T-8 465Z"
				   horiz-adv-x="577" unicode="u"/>
			<glyph d="M-2 465H276Q261 463 250 452T240 420Q240 402 252 372L319 206L378 361Q390 394 390 413Q390 436 378 449T348 465H585Q570 462 549 438T510 370L355 0H238L77 376Q44 450 -2 465Z"
				   horiz-adv-x="582" unicode="v"/>
			<glyph d="M-2 465H266Q255 463 247 453T239 424Q239 403 250 372L310 211L371 368Q354 414 337 437T305 465H548Q514 459 513 418Q513 399 523 372L581 212L634 360Q646 393 646 413Q646 435 636 448T609 465H840Q820 460 800 434T765 370L622 0H511L423 231L337 0H226L77 376Q60 418 38 440T-2 465Z"
				   horiz-adv-x="837" unicode="w"/>
			<glyph d="M-1 465H267Q245 458 245 437Q245 417 268 384L294 346L319 384Q344 420 344 440Q344 460 324 465H561Q537 461 508 437T452 374L364 244L488 68Q515 31 533 17T563 0H293Q313 9 312 27Q312 47 286 88L266 118L246 88Q217 44 217 25Q217 5 237 0H0Q19 3 48 27T108 94L196 219L79 387Q39 444 -1 465Z"
				   horiz-adv-x="561" unicode="x"/>
			<glyph d="M-2 465H276Q262 463 251 451T240 418Q240 404 252 372L313 209L372 363Q386 399 386 417Q386 437 375 449T343 465H580Q565 461 545 437T507 371L362 35Q326 -51 274 -114T182 -191L15 -89Q31 -92 45 -92Q151 -92 221 24L79 376Q63 416 40 439T-2 465Z"
				   horiz-adv-x="577" unicode="y"/>
			<glyph d="M34 465H464L249 97H373Q404 97 423 106T455 130T475 177V0H22L235 373H150Q54 372 34 282Z"
				   horiz-adv-x="496" unicode="z"/>
			<glyph d="M418 700Q345 696 314 660T283 558V430Q283 263 129 255Q190 250 219 230T266 175T283 80V-49Q283 -115 314 -151T418 -190Q239 -190 187 -156T135 -53V82Q135 145 123 181T85 235T3 255Q60 258 85 274T123 327T135 427V563Q135 637 191 668T418 700Z"
				   horiz-adv-x="396" unicode="{"/>
			<glyph d="M61 780H188V-220H61Z" horiz-adv-x="249" unicode="|"/>
			<glyph d="M-23 700Q150 700 205 668T260 563V427Q260 363 271 327T309 274T392 255Q334 251 308 234T271 181T260 82V-53Q260 -104 233 -134T153 -177T-23 -190Q49 -187 80 -151T112 -49V80Q112 140 130 176T178 231T266 255Q112 263 112 430V558Q112 624 81 660T-23 700Z"
				   horiz-adv-x="396" unicode="}"/>
			<glyph d="M228 418Q268 418 309 400T406 343T487 303Q511 303 523 325T538 406H655V396Q655 291 614 235T496 179Q451 179 410 197T310 256T223 298Q195 298 182 272T168 195H50Q53 304 102 361T228 418Z"
				   horiz-adv-x="705" unicode="~"/>
			<glyph d="" horiz-adv-x="213" unicode=" "/>
			<glyph d="M157 304Q183 274 202 226T225 127L239 -43Q250 -161 288 -174H26Q44 -167 56 -134T75 -43L89 127Q99 235 157 304ZM158 508Q198 508 222 484T246 425Q246 389 222 365T158 342Q118 342 93 365T68 425Q68 461 93 484T158 508Z"
				   horiz-adv-x="314" unicode="¡"/>
			<glyph d="M254 671H362V574Q422 561 459 517T498 415L354 359Q362 377 362 398Q362 427 348 447T305 468Q270 468 250 435T230 355Q230 282 267 237T359 192Q397 192 437 213T510 278Q499 202 457 152T362 88V-14H254V84Q170 101 126 161T82 311Q82 409 128 478T254 571Z"
				   horiz-adv-x="583" unicode="¢"/>
			<glyph d="M347 683Q451 683 511 644L469 508Q461 539 431 556T365 574Q321 574 302 538T284 395H409V290H284Q284 168 255 129Q284 128 312 124T367 121Q413 121 441 130T505 173L539 34Q508 -15 417 -15Q374 -15 301 0Q227 15 184 15Q145 15 107 5T48 -19L6 105Q65 104 87 145T112 290H54V395H114Q118 551 172 617T347 683Z"
				   horiz-adv-x="583" unicode="£"/>
			<glyph d="M157 540L231 466Q259 477 291 477Q325 477 353 466L426 540L498 469L428 398Q442 370 442 333Q442 294 428 268L498 199L426 127L353 199Q325 188 291 188Q257 188 229 199L157 127L85 199L155 268Q140 298 140 333Q140 368 155 398L85 469ZM291 403Q258 403 240 381T223 332Q223 305 239 282T291 260Q326 260 343 282T361 332Q361 359 343 381T291 403Z"
				   horiz-adv-x="583" unicode="¤"/>
			<glyph d="M-8 666H274Q264 664 256 652T249 621Q249 587 264 549L313 416Q339 485 355 527Q382 599 382 626Q382 660 363 666H582Q564 662 537 627T488 540L448 447H545V363H413L384 295H545V210H373V122Q373 81 381 55T401 15T427 0H145Q159 2 171 15T192 53T201 122V210H28V295H190L162 363H28V447H128L91 541Q48 649 -8 666Z"
				   horiz-adv-x="593" unicode="¥"/>
			<glyph d="M61 675H188V325H61ZM61 175H188V-175H61Z" horiz-adv-x="249" unicode="¦"/>
			<glyph d="M329 684Q395 684 451 665T534 614L437 508Q414 541 380 556T317 572Q289 572 269 560T250 525Q250 498 282 479T410 431Q571 381 571 268Q571 191 491 139Q557 93 557 20Q557 -66 487 -116T303 -166Q235 -166 170 -142T55 -72L154 34Q180 -5 223 -27T311 -50Q342 -50 362 -37T382 -2Q382 31 346 53T226 100Q67 146 67 249Q67 329 161 382Q81 425 81 497Q81 583 149 633T329 684ZM279 336Q258 330 243 314T228 281Q228 258 254 239T371 192Q389 197 401 210T414 243Q414 262 401 276T366 302Q343 315 279 336Z"
				   horiz-adv-x="625" unicode="§"/>
			<glyph d="M356 678Q391 678 411 658T431 608Q431 577 410 556T356 536Q322 536 302 556T282 608Q282 638 302 658T356 678ZM151 678Q185 678 205 658T225 608Q225 577 205 556Q185 536 151 536Q116 536 95 556T74 608Q74 638 95 658T151 678Z"
				   horiz-adv-x="506" unicode="¨"/>
			<glyph d="M369 677Q462 677 540 634T662 514T707 333Q707 231 663 153T541 32T369 -11Q274 -11 195 32T72 153T28 333Q28 435 73 513T197 634T369 677ZM369 626Q292 626 226 590T123 487T86 334Q86 247 124 179T227 76T369 40Q492 40 571 121T650 333Q650 420 613 486T513 589T369 626ZM383 559Q438 559 494 525V366Q478 421 449 447T389 473Q348 473 321 436T295 340Q295 279 322 239T393 199Q461 199 500 262V162Q482 139 447 122T377 106Q292 106 238 165T185 324Q185 427 242 493T383 559Z"
				   horiz-adv-x="740" unicode="©"/>
			<glyph d="M174 682Q317 682 317 573V448Q317 410 333 393T382 377L389 379L279 315Q265 317 246 329T222 355Q207 338 178 330T122 322Q74 322 44 347T14 413Q14 454 64 488T206 541V566Q206 615 167 615Q144 615 134 606T124 588Q124 574 137 567L29 527Q21 549 21 568Q21 616 67 649T174 682ZM206 481Q159 472 138 456T118 423Q118 410 128 401T158 392Q175 392 190 403T206 439Z"
				   horiz-adv-x="392" unicode="ª"/>
			<glyph d="M322 444H435L325 252L435 60H322L213 252ZM125 444H237L128 252L237 60H125L15 252Z" horiz-adv-x="452"
				   unicode="«"/>
			<glyph d="M76 414H629V140H522V308H76Z" horiz-adv-x="705" unicode="¬"/>
			<glyph d="M39 314H294V203H39Z" horiz-adv-x="330" unicode="­"/>
			<glyph d="M369 677Q462 677 540 634T662 514T707 333Q707 231 663 153T541 32T369 -11Q274 -11 195 32T72 153T28 333Q28 435 73 513T197 634T369 677ZM369 626Q292 626 226 590T123 487T86 334Q86 247 124 179T227 76T369 40Q492 40 571 121T650 333Q650 420 613 486T513 589T369 626ZM214 557H384Q443 557 482 520T521 426Q521 383 499 346T440 303Q455 293 468 260L501 171Q510 147 521 134T544 119H418L374 246Q362 281 344 281H339V199Q339 161 347 141T367 119H219Q233 123 240 144T247 199V474Q247 541 214 557ZM339 486V350H371Q395 350 412 368T429 419Q429 447 413 466T371 486Z"
				   horiz-adv-x="735" unicode="®"/>
			<glyph d="M84 635H421V565H84Z" horiz-adv-x="506" unicode="¯"/>
			<glyph d="M189 681Q257 681 298 640T340 537Q340 475 298 434T189 393Q121 393 79 434T38 537Q38 599 79 640T189 681ZM189 608Q156 608 138 586T120 537Q120 510 137 487T189 465Q224 465 241 487T258 537Q258 564 241 586T189 608Z"
				   horiz-adv-x="366" unicode="°"/>
			<glyph d="M299 619H407V447H617V342H407V170H299V342H88V447H299ZM88 106H617V0H88Z" horiz-adv-x="705"
				   unicode="±"/>
			<glyph d="M193 686Q259 686 303 654T348 569Q348 535 322 494T212 377H306Q344 377 363 411L339 295H13L118 407Q168 459 195 494T222 559Q222 585 207 596T175 608Q153 608 143 598T133 576Q133 551 163 545L98 466Q65 475 43 499T22 561Q22 613 69 649T193 686Z"
				   horiz-adv-x="381" unicode="²"/>
			<glyph d="M189 686Q257 686 300 658T343 585Q343 547 316 521T250 488Q292 480 321 455T350 394Q350 345 304 315T189 286Q129 286 81 309T22 362L130 433Q138 396 156 381T191 366Q222 366 223 397Q223 422 195 438T113 456L130 523Q151 519 172 519Q192 519 207 530T223 564Q223 581 209 594T174 608Q155 608 145 600T136 581Q136 568 146 561L46 519Q25 540 25 576Q25 604 46 630T103 671T189 686Z"
				   horiz-adv-x="381" unicode="³"/>
			<glyph d="M252 666H446L214 501Z" horiz-adv-x="506" unicode="´"/>
			<glyph d="M65 468H222V186Q222 102 285 102Q318 102 336 125T355 191V468H510V156Q510 65 584 65L459 -20Q427 -15 403 5T369 53Q330 -15 276 -15Q243 -15 222 4V-181H-6Q27 -174 46 -144T65 -67Z"
				   horiz-adv-x="577" unicode="µ"/>
			<glyph d="M367 670H617Q599 612 599 511V-181H503V587H414V-180H318V126Q196 130 117 204T39 395Q39 521 128 595T367 670Z"
				   horiz-adv-x="700" unicode="¶"/>
			<glyph d="M134 333Q180 333 208 305T237 236Q237 194 208 166T134 138Q88 138 60 166T32 236Q32 278 60 305T134 333Z"
				   horiz-adv-x="269" unicode="·"/>
			<glyph d="M228 9H306L274 -36Q316 -42 336 -62T356 -106Q356 -139 325 -162T247 -185Q195 -185 151 -159Q166 -162 181 -162Q217 -162 238 -149T259 -118Q259 -101 238 -87T176 -73Z"
				   horiz-adv-x="506" unicode="¸"/>
			<glyph d="M124 681H231V399Q231 319 280 294H60Q107 321 107 396V527Q76 492 25 437V560Q83 624 124 681Z"
				   horiz-adv-x="296" unicode="¹"/>
			<glyph d="M201 682Q286 682 335 635T384 511Q384 426 331 374T195 322Q112 322 63 369T15 496Q15 578 67 630T201 682ZM193 602Q165 602 146 578T128 512Q128 466 151 434T205 403Q232 403 250 428T269 496Q269 541 247 571T193 602Z"
				   horiz-adv-x="399" unicode="º"/>
			<glyph d="M213 444H325L435 252L325 60H213L323 252ZM18 444H129L240 252L129 60H18L127 252Z" horiz-adv-x="452"
				   unicode="»"/>
			<glyph d="M580 384H717V152H763V81H717V61Q717 13 755 0H556Q598 14 598 61V81H420V95ZM518 681H615L230 0H130ZM124 681H231V399Q231 319 280 294H60Q107 321 107 395V527Q67 482 25 437V560Q83 624 124 681ZM598 283L533 152H598Z"
				   horiz-adv-x="786" unicode="¼"/>
			<glyph d="M124 681H231V399Q231 319 280 294H60Q107 321 107 396V527Q76 492 25 437V560Q83 624 124 681ZM518 681H615L230 0H130ZM632 392Q698 392 742 360T787 275Q787 241 761 200T651 83H745Q783 83 802 117L778 1H452L557 113Q607 165 634 200T661 265Q661 291 646 302T614 314Q592 314 582 304T572 282Q572 257 602 251L537 172Q504 181 482 205T461 267Q461 319 508 355T632 392Z"
				   horiz-adv-x="836" unicode="½"/>
			<glyph d="M189 686Q257 686 300 658T343 585Q343 547 316 521T250 488Q292 479 321 456T350 394Q350 346 305 316T189 286Q129 286 81 309T22 362L130 433Q138 396 156 381T191 366Q223 366 223 396Q223 422 195 438T113 456L130 523Q154 519 172 519Q192 519 207 530T223 564Q223 581 210 594T174 608Q155 608 145 600T136 581Q136 568 146 561L46 519Q25 540 25 576Q25 604 45 630T102 671T189 686ZM660 384H797V152H843V81H797V59Q797 13 835 0H636Q677 11 678 58V81H500V95ZM598 681H695L310 0H210ZM678 283L613 152H678Z"
				   horiz-adv-x="928" unicode="¾"/>
			<glyph d="M250 508Q290 508 314 484T338 425Q338 389 314 365T250 342Q210 342 185 365T160 425Q160 461 185 484T250 508ZM239 313Q291 313 323 286T355 215Q355 140 270 79Q215 39 200 21T185 -16Q185 -40 203 -54T250 -68Q296 -68 339 -36T408 47V-146Q376 -165 324 -177T218 -190Q123 -190 65 -147T7 -31Q7 56 107 129Q166 171 186 195T207 245Q207 268 197 275T172 285Q196 313 239 313Z"
				   horiz-adv-x="471" unicode="¿"/>
			<glyph d="M307 666H457L680 131Q698 87 717 58T752 16T780 0H466Q482 2 494 15T506 52Q506 73 480 137H234Q214 73 214 57Q214 32 226 17T255 0H-1Q50 17 98 136ZM355 460L275 244H438ZM210 860H404L446 695Z"
				   unicode="À"/>
			<glyph d="M307 666H457L680 131Q698 87 717 58T752 16T780 0H466Q482 2 494 15T506 52Q506 73 480 137H234Q214 73 214 57Q214 32 226 17T255 0H-1Q50 17 98 136ZM355 460L275 244H438ZM357 860H551L319 695Z"
				   unicode="Á"/>
			<glyph d="M307 666H457L680 131Q698 87 717 58T752 16T780 0H466Q482 2 494 15T506 52Q506 73 480 137H234Q214 73 214 57Q214 32 226 17T255 0H-1Q50 17 98 136ZM355 460L275 244H438ZM387 900L559 695L387 764L218 695Z"
				   unicode="Â"/>
			<glyph d="M307 666H457L680 131Q698 87 717 58T752 16T780 0H466Q482 2 494 15T506 52Q506 73 480 137H234Q214 73 214 57Q214 32 226 17T255 0H-1Q50 17 98 136ZM355 460L275 244H438ZM524 871Q553 841 553 802Q553 766 526 739T459 712Q425 712 376 739Q328 766 301 766Q254 767 255 699Q224 731 224 771Q224 805 248 830T314 855Q350 855 403 829T478 803Q505 803 515 821T524 871Z"
				   unicode="Ã"/>
			<glyph d="M307 666H457L680 131Q698 87 717 58T752 16T780 0H466Q482 2 494 15T506 52Q506 73 480 137H234Q214 73 214 57Q214 32 226 17T255 0H-1Q50 17 98 136ZM355 460L275 244H438ZM484 852Q519 852 539 832T559 782Q559 751 538 730T484 710Q450 710 430 730T410 782Q410 812 430 832T484 852ZM279 852Q313 852 333 832T353 782Q353 751 333 730Q313 710 279 710Q244 710 223 730T202 782Q202 812 223 832T279 852Z"
				   unicode="Ä"/>
			<glyph d="M307 666H457L680 131Q698 87 717 58T752 16T780 0H466Q482 2 494 15T506 52Q506 73 480 137H234Q214 73 214 57Q214 32 226 17T255 0H-1Q50 17 98 136ZM355 460L275 244H438ZM382 893Q428 893 456 864T485 792Q485 745 455 717T382 689Q336 689 307 718T279 792Q279 836 308 864T382 893ZM382 844Q362 844 346 831T331 792Q331 766 346 752T382 738Q401 738 416 751Q431 765 431 792Q431 819 416 831T382 844Z"
				   unicode="Å"/>
			<glyph d="M401 666H966V460Q948 513 917 534T837 555H721V391H826Q894 391 908 433V236Q904 255 884 267T828 279H721V114H849Q909 114 944 136T1010 213L974 0H486Q502 3 515 18T537 61T546 132V279H367L281 132Q248 75 248 42Q248 22 257 11T277 0H2Q41 13 118 134L385 560Q417 611 417 640Q417 658 401 666ZM546 579L434 390H546Z"
				   horiz-adv-x="1033" unicode="Æ"/>
			<glyph d="M408 681Q514 681 590 643V435Q565 490 516 523T401 557Q325 557 274 497T223 339Q223 236 273 175T402 114Q456 114 510 141T602 218V78Q569 40 513 14T394 -15L379 -36Q421 -42 441 -62T461 -106Q461 -140 430 -162T352 -185Q299 -185 256 -159Q271 -162 286 -162Q324 -162 344 -148T364 -118Q364 -101 343 -87T281 -73L320 -11Q191 5 115 93T40 319Q40 422 85 504T213 634T408 681Z"
				   horiz-adv-x="638" unicode="Ç"/>
			<glyph d="M17 666H509V460Q491 513 460 534T380 555H264V391H369Q434 391 451 425V245Q448 260 425 269T371 279H264V114H392Q452 114 487 136T553 213L517 0H29Q42 2 57 16T80 59T89 132V546Q89 588 77 613T50 651T17 666ZM130 860H324L366 695Z"
				   horiz-adv-x="576" unicode="È"/>
			<glyph d="M17 666H509V460Q491 513 460 534T380 555H264V391H369Q434 391 451 425V245Q448 260 425 269T371 279H264V114H392Q452 114 487 136T553 213L517 0H29Q42 2 57 16T80 59T89 132V546Q89 588 77 613T50 651T17 666ZM251 860H445L213 695Z"
				   horiz-adv-x="576" unicode="É"/>
			<glyph d="M17 666H509V460Q491 513 460 534T380 555H264V391H369Q434 391 451 425V245Q448 260 425 269T371 279H264V114H392Q452 114 487 136T553 213L517 0H29Q42 2 57 16T80 59T89 132V546Q89 588 77 613T50 651T17 666ZM286 900L458 695L286 764L117 695Z"
				   horiz-adv-x="576" unicode="Ê"/>
			<glyph d="M17 666H509V460Q491 513 460 534T380 555H264V391H369Q434 391 451 425V245Q448 260 425 269T371 279H264V114H392Q452 114 487 136T553 213L517 0H29Q42 2 57 16T80 59T89 132V546Q89 588 77 613T50 651T17 666ZM376 852Q411 852 431 832T451 782Q451 751 430 730T376 710Q342 710 322 730T302 782Q302 812 322 832T376 852ZM171 852Q205 852 225 832T245 782Q245 751 225 730Q205 710 171 710Q136 710 115 730T94 782Q94 812 115 832T171 852Z"
				   horiz-adv-x="576" unicode="Ë"/>
			<glyph d="M27 666H312Q300 664 287 652T266 614T257 550V111Q257 74 265 50T285 14T311 0H27Q51 4 66 33T82 111V550Q82 648 27 666ZM-7 860H187L229 695Z"
				   horiz-adv-x="339" unicode="Ì"/>
			<glyph d="M27 666H312Q300 664 287 652T266 614T257 550V111Q257 74 265 50T285 14T311 0H27Q51 4 66 33T82 111V550Q82 648 27 666ZM153 860H347L115 695Z"
				   horiz-adv-x="339" unicode="Í"/>
			<glyph d="M27 666H312Q300 664 287 652T266 614T257 550V111Q257 74 265 50T285 14T311 0H27Q51 4 66 33T82 111V550Q82 648 27 666ZM169 900L341 695L169 764L0 695Z"
				   horiz-adv-x="339" unicode="Î"/>
			<glyph d="M27 666H312Q300 664 287 652T266 614T257 550V111Q257 74 265 50T285 14T311 0H27Q51 4 66 33T82 111V550Q82 648 27 666ZM274 852Q309 852 329 832T349 782Q349 751 328 730T274 710Q240 710 220 730T200 782Q200 812 220 832T274 852ZM69 852Q103 852 123 832T143 782Q143 751 123 730Q103 710 69 710Q34 710 13 730T-8 782Q-8 812 13 832T69 852Z"
				   horiz-adv-x="339" unicode="Ï"/>
			<glyph d="M23 666H361Q519 666 617 575T715 340Q715 188 616 94T346 0H33Q47 2 61 17T84 61T93 136V285H25V373H93V546Q93 649 23 666ZM269 555V373H389V285H269V114H350Q432 114 480 175T529 332Q529 437 473 496T318 555Z"
				   horiz-adv-x="755" unicode="Ð"/>
			<glyph d="M-6 666H249L529 328V547Q529 651 471 666H720Q695 661 680 630T666 547V0H529Q503 82 407 202L232 410V118Q232 65 251 34T296 0H42Q55 3 66 15T86 52T94 119V540Q94 613 -6 666ZM509 871Q538 841 538 802Q538 766 511 739T444 712Q410 712 361 739Q313 766 286 766Q239 767 240 699Q209 731 209 771Q209 805 233 830T299 855Q335 855 388 829T463 803Q490 803 500 821T509 871Z"
				   horiz-adv-x="748" unicode="Ñ"/>
			<glyph d="M399 681Q546 681 637 587T729 344Q729 244 683 161Q638 78 557 31T373 -15Q224 -15 132 79T40 322Q40 422 85 504T213 634T399 681ZM372 557Q303 557 261 503T220 353Q220 237 266 174T398 112Q465 112 508 165T551 316Q551 427 504 492T372 557ZM236 860H430L472 695Z"
				   horiz-adv-x="769" unicode="Ò"/>
			<glyph d="M399 681Q546 681 637 587T729 344Q729 244 683 161Q638 78 557 31T373 -15Q224 -15 132 79T40 322Q40 422 85 504T213 634T399 681ZM372 557Q303 557 261 503T220 353Q220 237 266 174T398 112Q465 112 508 165T551 316Q551 427 504 492T372 557ZM336 860H530L298 695Z"
				   horiz-adv-x="769" unicode="Ó"/>
			<glyph d="M399 681Q546 681 637 587T729 344Q729 244 683 161Q638 78 557 31T373 -15Q224 -15 132 79T40 322Q40 422 85 504T213 634T399 681ZM372 557Q303 557 261 503T220 353Q220 237 266 174T398 112Q465 112 508 165T551 316Q551 427 504 492T372 557ZM383 900L555 695L383 764L214 695Z"
				   horiz-adv-x="769" unicode="Ô"/>
			<glyph d="M399 681Q546 681 637 587T729 344Q729 244 683 161Q638 78 557 31T373 -15Q224 -15 132 79T40 322Q40 422 85 504T213 634T399 681ZM372 557Q303 557 261 503T220 353Q220 237 266 174T398 112Q465 112 508 165T551 316Q551 427 504 492T372 557ZM520 871Q549 841 549 802Q549 766 522 739T455 712Q421 712 372 739Q324 766 297 766Q250 767 251 699Q220 731 220 771Q220 805 244 830T310 855Q346 855 399 829T474 803Q501 803 511 821T520 871Z"
				   horiz-adv-x="769" unicode="Õ"/>
			<glyph d="M399 681Q546 681 637 587T729 344Q729 244 683 161Q638 78 557 31T373 -15Q224 -15 132 79T40 322Q40 422 85 504T213 634T399 681ZM372 557Q303 557 261 503T220 353Q220 237 266 174T398 112Q465 112 508 165T551 316Q551 427 504 492T372 557ZM488 852Q523 852 543 832T563 782Q563 751 542 730T488 710Q454 710 434 730T414 782Q414 812 434 832T488 852ZM283 852Q317 852 337 832T357 782Q357 751 337 730Q317 710 283 710Q248 710 227 730T206 782Q206 812 227 832T283 852Z"
				   horiz-adv-x="769" unicode="Ö"/>
			<glyph d="M143 570L353 361L562 570L638 495L428 285L638 76L562 0L353 210L143 0L68 76L277 285L68 495Z"
				   horiz-adv-x="705" unicode="×"/>
			<glyph d="M574 703L654 679L606 605Q663 556 692 486T721 342Q721 243 677 160T552 31T365 -16Q278 -16 210 17L168 -46L86 -25L143 62Q86 111 59 180T32 323Q32 421 77 504T203 635T391 683Q470 683 540 650ZM364 559Q294 559 253 503T212 353Q212 269 242 211L458 527Q415 559 364 559ZM510 460L294 142Q335 110 390 110Q457 110 499 164T542 316Q542 405 510 460Z"
				   horiz-adv-x="753" unicode="Ø"/>
			<glyph d="M22 666H309Q285 662 270 631T255 548V243Q255 165 284 135T376 106Q436 106 463 137T491 243V544Q491 594 475 626T430 666H700Q674 662 657 631T641 544V247Q641 119 573 52T370 -15Q218 -15 148 48T78 234V544Q78 650 22 666ZM203 860H397L439 695Z"
				   horiz-adv-x="723" unicode="Ù"/>
			<glyph d="M22 666H309Q285 662 270 631T255 548V243Q255 165 284 135T376 106Q436 106 463 137T491 243V544Q491 594 475 626T430 666H700Q674 662 657 631T641 544V247Q641 119 573 52T370 -15Q218 -15 148 48T78 234V544Q78 650 22 666ZM353 860H547L315 695Z"
				   horiz-adv-x="723" unicode="Ú"/>
			<glyph d="M22 666H309Q285 662 270 631T255 548V243Q255 165 284 135T376 106Q436 106 463 137T491 243V544Q491 594 475 626T430 666H700Q674 662 657 631T641 544V247Q641 119 573 52T370 -15Q218 -15 148 48T78 234V544Q78 650 22 666ZM360 900L532 695L360 764L191 695Z"
				   horiz-adv-x="723" unicode="Û"/>
			<glyph d="M22 666H309Q285 662 270 631T255 548V243Q255 165 284 135T376 106Q436 106 463 137T491 243V544Q491 594 475 626T430 666H700Q674 662 657 631T641 544V247Q641 119 573 52T370 -15Q218 -15 148 48T78 234V544Q78 650 22 666ZM465 852Q500 852 520 832T540 782Q540 751 519 730T465 710Q431 710 411 730T391 782Q391 812 411 832T465 852ZM260 852Q294 852 314 832T334 782Q334 751 314 730Q294 710 260 710Q225 710 204 730T183 782Q183 812 204 832T260 852Z"
				   horiz-adv-x="723" unicode="Ü"/>
			<glyph d="M-5 666H310Q294 663 284 652T275 624Q275 594 301 549L380 415Q465 555 476 582T487 625Q487 644 477 654T455 666H709L701 662Q661 640 600 540L440 279V122Q440 81 448 55T468 15T494 0H207Q221 2 233 15T254 53T263 122V273L108 541Q44 650 -5 666ZM393 860H587L355 695Z"
				   horiz-adv-x="703" unicode="Ý"/>
			<glyph d="M27 666H311Q287 661 272 633T257 555V549Q326 557 358 557Q469 557 535 499T602 347Q602 247 530 185T343 123Q296 123 257 133V111Q257 74 265 50T285 14T311 0H27Q52 5 67 33T82 111V555Q82 599 69 628T27 666ZM326 443Q302 443 257 435V243Q286 235 314 235Q362 235 392 263T422 345Q422 443 326 443Z"
				   horiz-adv-x="623" unicode="Þ"/>
			<glyph d="M354 695Q449 695 508 655T567 549Q567 510 545 483T496 438T447 405T425 374Q425 353 477 323L526 294Q626 233 626 139Q626 70 570 30T426 -10Q329 -10 277 33L316 147Q334 118 361 105T415 92Q438 92 453 100T468 125Q468 149 445 171T367 226Q265 287 265 356Q265 391 286 413T332 453T379 489T400 534Q400 568 376 584T323 601Q276 601 247 565T219 474V132Q219 87 227 59T248 16T274 0H7Q22 2 34 15T54 57T63 132V450Q63 560 142 627T354 695Z"
				   horiz-adv-x="653" unicode="ß"/>
			<glyph d="M267 485Q364 485 413 447T463 329V160Q463 66 549 66L558 68L410 -25Q387 -22 362 -4T332 30Q310 8 270 -3T193 -15Q126 -15 84 20T43 112Q43 170 115 217T309 289V319Q309 394 256 393Q225 393 210 379T196 353Q196 334 214 325L63 270Q52 301 52 326Q52 394 117 439T267 485ZM309 205Q244 192 215 170T187 125Q187 107 202 94T243 82Q267 82 288 98T309 148ZM121 666H315L357 501Z"
				   horiz-adv-x="538" unicode="à"/>
			<glyph d="M267 485Q364 485 413 447T463 329V160Q463 66 549 66L558 68L410 -25Q387 -22 362 -4T332 30Q310 8 270 -3T193 -15Q126 -15 84 20T43 112Q43 170 115 217T309 289V319Q309 394 256 393Q225 393 210 379T196 353Q196 334 214 325L63 270Q52 301 52 326Q52 394 117 439T267 485ZM309 205Q244 192 215 170T187 125Q187 107 202 94T243 82Q267 82 288 98T309 148ZM242 666H436L204 501Z"
				   horiz-adv-x="538" unicode="á"/>
			<glyph d="M267 485Q364 485 413 447T463 329V160Q463 66 549 66L558 68L410 -25Q387 -22 362 -4T332 30Q310 8 270 -3T193 -15Q126 -15 84 20T43 112Q43 170 115 217T309 289V319Q309 394 256 393Q225 393 210 379T196 353Q196 334 214 325L63 270Q52 301 52 326Q52 394 117 439T267 485ZM309 205Q244 192 215 170T187 125Q187 107 202 94T243 82Q267 82 288 98T309 148ZM267 703L419 501L267 570L118 501Z"
				   horiz-adv-x="538" unicode="â"/>
			<glyph d="M267 485Q364 485 413 447T463 329V160Q463 66 549 66L558 68L410 -25Q387 -22 362 -4T332 30Q310 8 270 -3T193 -15Q126 -15 84 20T43 112Q43 170 115 217T309 289V319Q309 394 256 393Q225 393 210 379T196 353Q196 334 214 325L63 270Q52 301 52 326Q52 394 117 439T267 485ZM309 205Q244 192 215 170T187 125Q187 107 202 94T243 82Q267 82 288 98T309 148ZM404 697Q433 667 433 628Q433 592 406 565T339 538Q305 538 256 565Q208 592 181 592Q134 593 135 525Q104 557 104 597Q104 631 128 656T194 681Q230 681 283 655T358 629Q385 629 395 647T404 697Z"
				   horiz-adv-x="538" unicode="ã"/>
			<glyph d="M267 485Q364 485 413 447T463 329V160Q463 66 549 66L558 68L410 -25Q387 -22 362 -4T332 30Q310 8 270 -3T193 -15Q126 -15 84 20T43 112Q43 170 115 217T309 289V319Q309 394 256 393Q225 393 210 379T196 353Q196 334 214 325L63 270Q52 301 52 326Q52 394 117 439T267 485ZM309 205Q244 192 215 170T187 125Q187 107 202 94T243 82Q267 82 288 98T309 148ZM372 678Q407 678 427 658T447 608Q447 577 426 556T372 536Q338 536 318 556T298 608Q298 638 318 658T372 678ZM167 678Q201 678 221 658T241 608Q241 577 221 556Q201 536 167 536Q132 536 111 556T90 608Q90 638 111 658T167 678Z"
				   horiz-adv-x="538" unicode="ä"/>
			<glyph d="M267 485Q364 485 413 447T463 329V160Q463 66 549 66L558 68L410 -25Q387 -22 362 -4T332 30Q310 8 270 -3T193 -15Q126 -15 84 20T43 112Q43 170 115 217T309 289V319Q309 394 256 393Q225 393 210 379T196 353Q196 334 214 325L63 270Q52 301 52 326Q52 394 117 439T267 485ZM309 205Q244 192 215 170T187 125Q187 107 202 94T243 82Q267 82 288 98T309 148ZM269 709Q315 709 343 680T372 608Q372 561 342 533T269 505Q223 505 194 534T166 608Q166 652 195 680T269 709ZM269 660Q249 660 233 647T218 608Q218 582 233 568T269 554Q288 554 303 567Q318 581 318 608Q318 635 303 647T269 660Z"
				   horiz-adv-x="538" unicode="å"/>
			<glyph d="M265 485Q368 485 416 443Q471 485 545 485Q646 485 698 412T751 206H458Q473 148 516 123T608 99Q650 99 691 114T759 158Q745 70 688 27T540 -16Q437 -16 372 51Q317 -15 203 -15Q130 -15 86 20T43 112Q43 170 115 217T309 289V322Q309 393 256 393Q226 393 211 380T196 353Q196 334 214 325L63 270Q53 299 53 326Q53 393 117 439T265 485ZM542 386Q513 386 488 361T458 293H609Q609 342 588 364T542 386ZM309 205Q244 194 215 171T187 125Q187 107 202 94T243 82Q267 82 288 98T309 148Z"
				   horiz-adv-x="791" unicode="æ"/>
			<glyph d="M277 485Q351 485 399 440T451 320L307 264Q315 282 315 304Q315 333 301 353T258 374Q222 374 202 341T182 261Q182 192 218 145T316 98Q351 98 391 114T463 164Q452 95 400 45T277 -13L261 -36Q303 -42 323 -62T343 -106Q343 -140 312 -162T234 -185Q182 -185 138 -159Q154 -162 168 -162Q206 -162 226 -148T246 -118Q246 -101 226 -88T163 -73L202 -10Q119 4 76 65T34 216Q34 333 104 409T277 485Z"
				   horiz-adv-x="481" unicode="ç"/>
			<glyph d="M273 485Q374 485 426 412T479 206H186Q199 152 241 125T336 99Q378 99 419 114T487 158Q473 70 415 27T267 -15Q164 -15 99 51T35 225Q35 335 102 410T273 485ZM270 386Q241 386 216 361T186 293H337Q337 341 317 363T270 386ZM111 666H305L347 501Z"
				   horiz-adv-x="519" unicode="è"/>
			<glyph d="M273 485Q374 485 426 412T479 206H186Q199 152 241 125T336 99Q378 99 419 114T487 158Q473 70 415 27T267 -15Q164 -15 99 51T35 225Q35 335 102 410T273 485ZM270 386Q241 386 216 361T186 293H337Q337 341 317 363T270 386ZM252 666H446L214 501Z"
				   horiz-adv-x="519" unicode="é"/>
			<glyph d="M273 485Q374 485 426 412T479 206H186Q199 152 241 125T336 99Q378 99 419 114T487 158Q473 70 415 27T267 -15Q164 -15 99 51T35 225Q35 335 102 410T273 485ZM270 386Q241 386 216 361T186 293H337Q337 341 317 363T270 386ZM258 703L410 501L258 570L109 501Z"
				   horiz-adv-x="519" unicode="ê"/>
			<glyph d="M273 485Q374 485 426 412T479 206H186Q199 152 241 125T336 99Q378 99 419 114T487 158Q473 70 415 27T267 -15Q164 -15 99 51T35 225Q35 335 102 410T273 485ZM270 386Q241 386 216 361T186 293H337Q337 341 317 363T270 386ZM363 678Q398 678 418 658T438 608Q438 577 417 556T363 536Q329 536 309 556T289 608Q289 638 309 658T363 678ZM158 678Q192 678 212 658T232 608Q232 577 212 556Q192 536 158 536Q123 536 102 556T81 608Q81 638 102 658T158 678Z"
				   horiz-adv-x="519" unicode="ë"/>
			<glyph d="M225 490V116Q225 77 233 52T253 14T279 0H14Q38 4 53 33T69 116V308Q69 405 5 405H-9ZM9 666H203L245 501Z"
				   horiz-adv-x="292" unicode="ì"/>
			<glyph d="M225 490V116Q225 77 233 52T253 14T279 0H14Q38 4 53 33T69 116V308Q69 405 5 405H-9ZM99 666H293L61 501Z"
				   horiz-adv-x="292" unicode="í"/>
			<glyph d="M225 490V116Q225 77 233 52T253 14T279 0H14Q38 4 53 33T69 116V308Q69 405 5 405H-9ZM146 703L298 501L146 570L-3 501Z"
				   horiz-adv-x="292" unicode="î"/>
			<glyph d="M225 490V116Q225 77 233 52T253 14T279 0H14Q38 4 53 33T69 116V308Q69 405 5 405H-9ZM251 678Q286 678 306 658T326 608Q326 577 305 556T251 536Q217 536 197 556T177 608Q177 638 197 658T251 678ZM46 678Q80 678 100 658T120 608Q120 577 100 556Q80 536 46 536Q11 536 -10 556T-31 608Q-31 638 -10 658T46 678Z"
				   horiz-adv-x="292" unicode="ï"/>
			<glyph d="M275 696Q307 681 344 653L440 689L485 642L395 608Q461 539 494 449T527 263Q527 133 458 58T270 -16Q164 -16 98 59T33 246Q33 308 56 362T122 450T228 484Q282 484 316 465T376 416Q322 505 257 556L155 518L109 565L196 597Q156 619 112 635ZM249 371Q224 371 206 350T189 282Q189 208 226 153T308 98Q332 98 349 120T366 191Q366 266 329 318T249 371Z"
				   horiz-adv-x="556" unicode="ð"/>
			<glyph d="M217 490L218 428Q244 454 283 469T359 485Q514 485 514 312V117Q514 77 522 52T542 14T568 0H308Q330 4 343 32T357 112V280Q357 368 298 368Q265 368 243 344T222 277V111Q222 73 230 49T249 13T273 0H11Q26 2 38 14T58 49T67 113V310Q67 405 9 405H-7ZM425 697Q454 667 454 628Q454 592 427 565T360 538Q326 538 277 565Q229 592 202 592Q155 593 156 525Q125 557 125 597Q125 631 149 656T215 681Q251 681 304 655T379 629Q406 629 416 647T425 697Z"
				   horiz-adv-x="579" unicode="ñ"/>
			<glyph d="M293 485Q408 485 477 420T547 247Q547 130 474 57T284 -15Q172 -15 103 49T34 227Q34 343 109 414T293 485ZM282 374Q244 374 217 340T191 249Q191 186 222 141T298 97Q336 97 361 132T387 227Q387 288 356 331T282 374ZM122 666H316L358 501Z"
				   horiz-adv-x="581" unicode="ò"/>
			<glyph d="M293 485Q408 485 477 420T547 247Q547 130 474 57T284 -15Q172 -15 103 49T34 227Q34 343 109 414T293 485ZM282 374Q244 374 217 340T191 249Q191 186 222 141T298 97Q336 97 361 132T387 227Q387 288 356 331T282 374ZM273 666H467L235 501Z"
				   horiz-adv-x="581" unicode="ó"/>
			<glyph d="M293 485Q408 485 477 420T547 247Q547 130 474 57T284 -15Q172 -15 103 49T34 227Q34 343 109 414T293 485ZM282 374Q244 374 217 340T191 249Q191 186 222 141T298 97Q336 97 361 132T387 227Q387 288 356 331T282 374ZM289 703L441 501L289 570L140 501Z"
				   horiz-adv-x="581" unicode="ô"/>
			<glyph d="M293 485Q408 485 477 420T547 247Q547 130 474 57T284 -15Q172 -15 103 49T34 227Q34 343 109 414T293 485ZM282 374Q244 374 217 340T191 249Q191 186 222 141T298 97Q336 97 361 132T387 227Q387 288 356 331T282 374ZM426 697Q455 667 455 628Q455 592 428 565T361 538Q327 538 278 565Q230 592 203 592Q156 593 157 525Q126 557 126 597Q126 631 150 656T216 681Q252 681 305 655T380 629Q407 629 417 647T426 697Z"
				   horiz-adv-x="581" unicode="õ"/>
			<glyph d="M293 485Q408 485 477 420T547 247Q547 130 474 57T284 -15Q172 -15 103 49T34 227Q34 343 109 414T293 485ZM282 374Q244 374 217 340T191 249Q191 186 222 141T298 97Q336 97 361 132T387 227Q387 288 356 331T282 374ZM394 678Q429 678 449 658T469 608Q469 577 448 556T394 536Q360 536 340 556T320 608Q320 638 340 658T394 678ZM189 678Q223 678 243 658T263 608Q263 577 243 556Q223 536 189 536Q154 536 133 556T112 608Q112 638 133 658T189 678Z"
				   horiz-adv-x="581" unicode="ö"/>
			<glyph d="M352 546Q378 546 399 528T421 477Q421 443 398 426T352 409Q327 409 305 426T284 477Q284 509 305 527T352 546ZM75 341H628V237H75ZM351 168Q376 168 398 151T420 100Q420 67 398 49T351 32Q325 32 304 49T283 100Q283 133 304 150T351 168Z"
				   horiz-adv-x="705" unicode="÷"/>
			<glyph d="M422 533L490 514L448 442Q547 378 547 247Q547 130 474 57T284 -15Q232 -15 189 0L162 -46L93 -30L128 31Q34 95 34 227Q34 343 108 414T293 485Q344 485 386 472ZM282 374Q244 374 217 340T191 249Q191 206 208 170L323 363Q303 374 282 374ZM370 306L253 111Q275 97 298 97Q336 97 361 132T387 227Q387 270 370 306Z"
				   horiz-adv-x="581" unicode="ø"/>
			<glyph d="M-8 465H222V190Q222 102 281 102Q314 102 335 125T356 191V357Q356 452 302 465H511V160Q511 65 569 65H585L362 -20L360 42Q334 16 295 0T221 -15Q65 -15 65 157V351Q65 393 48 425T-8 465ZM140 666H334L376 501Z"
				   horiz-adv-x="577" unicode="ù"/>
			<glyph d="M-8 465H222V190Q222 102 281 102Q314 102 335 125T356 191V357Q356 452 302 465H511V160Q511 65 569 65H585L362 -20L360 42Q334 16 295 0T221 -15Q65 -15 65 157V351Q65 393 48 425T-8 465ZM261 666H455L223 501Z"
				   horiz-adv-x="577" unicode="ú"/>
			<glyph d="M-8 465H222V190Q222 102 281 102Q314 102 335 125T356 191V357Q356 452 302 465H511V160Q511 65 569 65H585L362 -20L360 42Q334 16 295 0T221 -15Q65 -15 65 157V351Q65 393 48 425T-8 465ZM287 703L439 501L287 570L138 501Z"
				   horiz-adv-x="577" unicode="û"/>
			<glyph d="M-8 465H222V190Q222 102 281 102Q314 102 335 125T356 191V357Q356 452 302 465H511V160Q511 65 569 65H585L362 -20L360 42Q334 16 295 0T221 -15Q65 -15 65 157V351Q65 393 48 425T-8 465ZM392 678Q427 678 447 658T467 608Q467 577 446 556T392 536Q358 536 338 556T318 608Q318 638 338 658T392 678ZM187 678Q221 678 241 658T261 608Q261 577 241 556Q221 536 187 536Q152 536 131 556T110 608Q110 638 131 658T187 678Z"
				   horiz-adv-x="577" unicode="ü"/>
			<glyph d="M-2 465H276Q262 463 251 451T240 418Q240 404 252 372L313 209L372 363Q386 399 386 417Q386 437 375 449T343 465H580Q565 461 545 437T507 371L362 35Q326 -51 274 -114T182 -191L15 -89Q31 -92 45 -92Q151 -92 221 24L79 376Q63 416 40 439T-2 465ZM311 666H505L273 501Z"
				   horiz-adv-x="577" unicode="ý"/>
			<glyph d="M220 700V434Q243 458 278 471T348 485Q431 485 483 422T536 253Q536 132 469 61T297 -10Q248 -10 221 7V-66Q221 -104 228 -127T246 -162T276 -181H21Q32 -179 42 -166T59 -129T66 -66V501Q66 559 50 588T0 618H-10ZM290 368Q258 368 239 340T220 261V153Q220 97 283 97Q326 97 348 131T371 220Q371 291 349 329T290 368Z"
				   horiz-adv-x="568" unicode="þ"/>
			<glyph d="M-2 465H276Q262 463 251 451T240 418Q240 404 252 372L313 209L372 363Q386 399 386 417Q386 437 375 449T343 465H580Q565 461 545 437T507 371L362 35Q326 -51 274 -114T182 -191L15 -89Q31 -92 45 -92Q151 -92 221 24L79 376Q63 416 40 439T-2 465ZM402 678Q437 678 457 658T477 608Q477 577 456 556T402 536Q368 536 348 556T328 608Q328 638 348 658T402 678ZM197 678Q231 678 251 658T271 608Q271 577 251 556Q231 536 197 536Q162 536 141 556T120 608Q120 638 141 658T197 678Z"
				   horiz-adv-x="577" unicode="ÿ"/>
			<glyph d="M307 666H457L680 131Q698 87 717 58T752 16T780 0H466Q482 2 494 15T506 52Q506 73 480 137H234Q214 73 214 57Q214 32 226 17T255 0H-1Q50 17 98 136ZM355 460L275 244H438ZM214 819H551V749H214Z"
				   unicode="Ā"/>
			<glyph d="M267 485Q364 485 413 447T463 329V160Q463 66 549 66L558 68L410 -25Q387 -22 362 -4T332 30Q310 8 270 -3T193 -15Q126 -15 84 20T43 112Q43 170 115 217T309 289V319Q309 394 256 393Q225 393 210 379T196 353Q196 334 214 325L63 270Q52 301 52 326Q52 394 117 439T267 485ZM309 205Q244 192 215 170T187 125Q187 107 202 94T243 82Q267 82 288 98T309 148ZM100 635H437V565H100Z"
				   horiz-adv-x="538" unicode="ā"/>
			<glyph d="M307 666H457L680 131Q698 87 717 58T752 16T780 0H466Q482 2 494 15T506 52Q506 73 480 137H234Q214 73 214 57Q214 32 226 17T255 0H-1Q50 17 98 136ZM355 460L275 244H438ZM252 885Q274 847 309 828T382 810Q464 810 514 885Q513 803 474 758T382 713Q327 713 289 760T252 885Z"
				   unicode="Ă"/>
			<glyph d="M267 485Q364 485 413 447T463 329V160Q463 66 549 66L558 68L410 -25Q387 -22 362 -4T332 30Q310 8 270 -3T193 -15Q126 -15 84 20T43 112Q43 170 115 217T309 289V319Q309 394 256 393Q225 393 210 379T196 353Q196 334 214 325L63 270Q52 301 52 326Q52 394 117 439T267 485ZM309 205Q244 192 215 170T187 125Q187 107 202 94T243 82Q267 82 288 98T309 148ZM138 701Q160 663 195 644T268 626Q350 626 400 701Q399 619 360 574T268 529Q213 529 175 576T138 701Z"
				   horiz-adv-x="538" unicode="ă"/>
			<glyph d="M307 666H457L680 131Q699 87 717 58T753 15T780 0H758Q698 0 669 -20T640 -67Q640 -90 655 -103T696 -117Q722 -117 754 -99Q742 -141 710 -163T645 -185Q605 -185 577 -160T549 -96Q549 -70 564 -43T607 0H466Q483 3 494 16T506 52Q506 73 480 137H234Q214 72 214 57Q214 32 226 17T255 0H-1Q50 17 98 136ZM355 460L275 244H438Z"
				   unicode="Ą"/>
			<glyph d="M265 485Q364 485 413 447T463 329V160Q463 66 549 66L558 68Q488 21 457 -10T426 -70Q426 -90 441 -102T481 -114Q507 -114 539 -96Q527 -138 495 -160T430 -182Q390 -182 362 -157T334 -93Q334 -47 373 -11Q343 6 332 30Q309 7 270 -4T193 -15Q126 -15 84 20T43 112Q43 170 115 217T309 289V319Q309 393 256 393Q224 393 210 379T196 353Q196 334 214 325L63 270Q52 301 52 326Q52 394 118 439T265 485ZM309 205Q245 192 216 170T187 125Q187 107 202 94T243 82Q267 82 288 98T309 148Z"
				   horiz-adv-x="538" unicode="ą"/>
			<glyph d="M408 681Q514 681 590 643V435Q565 490 516 523T401 557Q324 557 273 496T223 339Q223 236 273 175T402 114Q456 114 510 141T602 218V78Q568 38 507 11T382 -15Q223 -15 131 77T40 319Q40 422 85 504T213 634T408 681ZM325 860H519L287 695Z"
				   horiz-adv-x="638" unicode="Ć"/>
			<glyph d="M277 485Q352 485 399 440T451 320L307 264Q315 282 315 304Q315 333 301 353T258 374Q223 374 202 341T182 261Q182 192 218 145T316 98Q351 98 391 114T463 164Q450 86 389 35T254 -15Q150 -15 92 48T34 216Q34 333 104 409T277 485ZM226 666H420L188 501Z"
				   horiz-adv-x="481" unicode="ć"/>
			<glyph d="M408 681Q514 681 590 643V435Q565 490 516 523T401 557Q324 557 273 496T223 339Q223 236 273 175T402 114Q456 114 510 141T602 218V78Q568 38 507 11T382 -15Q223 -15 131 77T40 319Q40 422 85 504T213 634T408 681ZM347 900L519 695L347 764L178 695Z"
				   horiz-adv-x="638" unicode="Ĉ"/>
			<glyph d="M277 485Q352 485 399 440T451 320L307 264Q315 282 315 304Q315 333 301 353T258 374Q223 374 202 341T182 261Q182 192 218 145T316 98Q351 98 391 114T463 164Q450 86 389 35T254 -15Q150 -15 92 48T34 216Q34 333 104 409T277 485ZM259 703L411 501L259 570L110 501Z"
				   horiz-adv-x="481" unicode="ĉ"/>
			<glyph d="M408 681Q514 681 590 643V435Q565 490 516 523T401 557Q324 557 273 496T223 339Q223 236 273 175T402 114Q456 114 510 141T602 218V78Q568 38 507 11T382 -15Q223 -15 131 77T40 319Q40 422 85 504T213 634T408 681ZM353 874Q386 874 407 854T428 804Q428 773 407 752T353 732Q319 732 298 752T278 804Q278 834 298 854T353 874Z"
				   horiz-adv-x="638" unicode="Ċ"/>
			<glyph d="M277 485Q352 485 399 440T451 320L307 264Q315 282 315 304Q315 333 301 353T258 374Q223 374 202 341T182 261Q182 192 218 145T316 98Q351 98 391 114T463 164Q450 86 389 35T254 -15Q150 -15 92 48T34 216Q34 333 104 409T277 485ZM242 680Q275 680 296 660T317 610Q317 579 296 558T242 538Q208 538 187 558T167 610Q167 640 187 660T242 680Z"
				   horiz-adv-x="481" unicode="ċ"/>
			<glyph d="M408 681Q514 681 590 643V435Q565 490 516 523T401 557Q324 557 273 496T223 339Q223 236 273 175T402 114Q456 114 510 141T602 218V78Q568 38 507 11T382 -15Q223 -15 131 77T40 319Q40 422 85 504T213 634T408 681ZM218 904L370 835L519 904L370 703Z"
				   horiz-adv-x="638" unicode="Č"/>
			<glyph d="M277 485Q352 485 399 440T451 320L307 264Q315 282 315 304Q315 333 301 353T258 374Q223 374 202 341T182 261Q182 192 218 145T316 98Q351 98 391 114T463 164Q450 86 389 35T254 -15Q150 -15 92 48T34 216Q34 333 104 409T277 485ZM100 703L252 634L401 703L252 502Z"
				   horiz-adv-x="481" unicode="č"/>
			<glyph d="M23 666H361Q519 666 617 575T715 340Q715 186 616 93T346 0H33Q49 3 62 18T84 61T93 136V546Q93 649 23 666ZM269 555V114H350Q432 114 480 175T529 332Q529 437 473 496T318 555ZM227 904L379 835L528 904L379 703Z"
				   horiz-adv-x="755" unicode="Ď"/>
			<glyph d="M504 703V152Q504 52 563 52H579L360 -22L359 32Q339 12 304 -1T229 -15Q139 -15 86 46T34 214Q34 295 64 355T149 449T264 483Q320 483 349 465V510Q349 621 282 621H270ZM283 373Q245 373 221 339T197 247Q197 182 219 142T279 102Q310 102 330 122T350 184V299Q350 333 333 353T283 373ZM563 682H711L540 481Z"
				   horiz-adv-x="572" unicode="ď"/>
			<glyph d="M23 666H361Q519 666 617 575T715 340Q715 188 616 94T346 0H33Q47 2 61 17T84 61T93 136V285H25V373H93V546Q93 649 23 666ZM269 555V373H389V285H269V114H350Q432 114 480 175T529 332Q529 437 473 496T318 555Z"
				   horiz-adv-x="755" unicode="Đ"/>
			<glyph d="M504 703V580H552V525H504V152Q504 52 565 52H579L360 -22L359 32Q339 12 304 -1T229 -15Q139 -15 86 46T34 214Q34 295 64 355T149 449T264 483Q320 483 349 465V510L348 525H224V580H339Q323 621 282 621H270ZM283 373Q245 373 221 339T197 247Q197 182 219 142T279 102Q310 102 330 122T350 184V299Q350 333 333 353T283 373Z"
				   horiz-adv-x="571" unicode="đ"/>
			<glyph d="M17 666H509V460Q491 513 460 534T380 555H264V391H369Q434 391 451 425V245Q448 260 425 269T371 279H264V114H392Q452 114 487 136T553 213L517 0H29Q42 2 57 16T80 59T89 132V546Q89 588 77 613T50 651T17 666ZM123 819H460V749H123Z"
				   horiz-adv-x="576" unicode="Ē"/>
			<glyph d="M273 485Q374 485 426 412T479 206H186Q199 152 241 125T336 99Q378 99 419 114T487 158Q473 70 415 27T267 -15Q164 -15 99 51T35 225Q35 335 102 410T273 485ZM270 386Q241 386 216 361T186 293H337Q337 341 317 363T270 386ZM91 635H428V565H91Z"
				   horiz-adv-x="519" unicode="ē"/>
			<glyph d="M17 666H509V460Q491 513 460 534T380 555H264V391H369Q434 391 451 425V245Q448 260 425 269T371 279H264V114H392Q452 114 487 136T553 213L517 0H29Q42 2 57 16T80 59T89 132V546Q89 588 77 613T50 651T17 666ZM162 885Q184 847 219 828T292 810Q374 810 424 885Q423 803 384 758T292 713Q237 713 199 760T162 885Z"
				   horiz-adv-x="576" unicode="Ĕ"/>
			<glyph d="M273 485Q374 485 426 412T479 206H186Q199 152 241 125T336 99Q378 99 419 114T487 158Q473 70 415 27T267 -15Q164 -15 99 51T35 225Q35 335 102 410T273 485ZM270 386Q241 386 216 361T186 293H337Q337 341 317 363T270 386ZM138 701Q160 663 195 644T268 626Q350 626 400 701Q399 619 360 574T268 529Q213 529 175 576T138 701Z"
				   horiz-adv-x="519" unicode="ĕ"/>
			<glyph d="M17 666H509V460Q491 513 460 534T380 555H264V391H369Q434 391 451 425V245Q448 260 425 269T371 279H264V114H392Q452 114 487 136T553 213L517 0H29Q42 2 57 16T80 59T89 132V546Q89 588 77 613T50 651T17 666ZM292 854Q325 854 346 834T367 784Q367 753 346 732T292 712Q258 712 237 732T217 784Q217 814 237 834T292 854Z"
				   horiz-adv-x="576" unicode="Ė"/>
			<glyph d="M273 485Q374 485 426 412T479 206H186Q199 152 241 125T336 99Q378 99 419 114T487 158Q473 70 415 27T267 -15Q164 -15 99 51T35 225Q35 335 102 410T273 485ZM270 386Q241 386 216 361T186 293H337Q337 341 317 363T270 386ZM259 680Q292 680 313 660T334 610Q334 579 313 558T259 538Q225 538 204 558T184 610Q184 640 204 660T259 680Z"
				   horiz-adv-x="519" unicode="ė"/>
			<glyph d="M18 666H509V460Q491 513 460 534T380 555H264V391H369Q437 391 451 433V237Q437 279 371 279H264V114H392Q452 114 487 136T553 213L517 0Q482 -5 461 -23T440 -67Q440 -90 455 -103T496 -117Q522 -117 554 -99Q542 -141 510 -163T445 -185Q405 -185 377 -160T349 -96Q349 -70 364 -43T407 0H29Q44 2 58 17T80 60T89 132V546Q89 648 18 666Z"
				   horiz-adv-x="576" unicode="Ę"/>
			<glyph d="M273 485Q374 485 426 412T479 206H186Q215 99 336 99Q378 99 419 114T487 158Q473 71 401 20L364 -7Q324 -35 324 -72Q324 -91 339 -104T380 -117Q406 -117 438 -99Q426 -141 394 -163T329 -185Q289 -185 261 -160T233 -96Q233 -51 271 -15H267Q164 -15 99 51T35 225Q35 337 102 411T273 485ZM270 386Q241 386 215 361T186 293H337Q337 342 316 364T270 386Z"
				   horiz-adv-x="519" unicode="ę"/>
			<glyph d="M17 666H509V460Q491 513 460 534T380 555H264V391H369Q434 391 451 425V245Q448 260 425 269T371 279H264V114H392Q452 114 487 136T553 213L517 0H29Q42 2 57 16T80 59T89 132V546Q89 588 77 613T50 651T17 666ZM137 904L289 835L438 904L289 703Z"
				   horiz-adv-x="576" unicode="Ě"/>
			<glyph d="M273 485Q374 485 426 412T479 206H186Q199 152 241 125T336 99Q378 99 419 114T487 158Q473 70 415 27T267 -15Q164 -15 99 51T35 225Q35 335 102 410T273 485ZM270 386Q241 386 216 361T186 293H337Q337 341 317 363T270 386ZM109 703L261 634L410 703L261 502Z"
				   horiz-adv-x="519" unicode="ě"/>
			<glyph d="M420 681Q531 681 615 643V445Q587 497 534 528T415 559Q325 559 267 495T209 333Q209 235 262 171T393 108Q426 108 455 116V199Q455 229 447 248T428 280T393 299H682Q667 296 654 286T632 256T623 203V22Q518 -15 368 -15Q265 -15 187 28T67 148T25 317Q25 417 74 501T213 633T420 681ZM374 900L546 695L374 764L205 695Z"
				   horiz-adv-x="692" unicode="Ĝ"/>
			<glyph d="M262 485Q295 485 347 474T444 464Q494 464 522 478V371H451Q470 341 470 303Q470 231 410 184T252 138Q243 138 230 140Q201 122 201 110Q201 103 219 98T264 94L378 90Q447 87 485 57T523 -21Q523 -96 444 -145T225 -195Q128 -195 74 -172T21 -109Q21 -79 45 -52T108 -7Q44 13 44 55Q44 77 69 105T136 160Q92 178 63 216T34 302Q34 384 97 434T262 485ZM247 393Q221 393 207 371T193 321Q193 284 212 257T259 230Q287 230 300 252T313 303Q313 342 294 367T247 393ZM197 -24Q161 -47 161 -66Q161 -102 254 -102Q322 -102 353 -89T384 -61Q384 -33 320 -29T197 -24ZM266 703L418 501L266 570L117 501Z"
				   horiz-adv-x="536" unicode="ĝ"/>
			<glyph d="M420 681Q531 681 615 643V445Q587 497 534 528T415 559Q325 559 267 495T209 333Q209 235 262 171T393 108Q426 108 455 116V199Q455 229 447 248T428 280T393 299H682Q667 296 654 286T632 256T623 203V22Q518 -15 368 -15Q265 -15 187 28T67 148T25 317Q25 417 74 501T213 633T420 681ZM250 895Q272 857 307 838T380 820Q462 820 512 895Q511 813 472 768T380 723Q325 723 287 770T250 895Z"
				   horiz-adv-x="692" unicode="Ğ"/>
			<glyph d="M262 485Q295 485 347 474T444 464Q494 464 522 478V371H451Q470 341 470 303Q470 231 410 184T252 138Q243 138 230 140Q201 122 201 110Q201 103 219 98T264 94L378 90Q447 87 485 57T523 -21Q523 -96 444 -145T225 -195Q128 -195 74 -172T21 -109Q21 -79 45 -52T108 -7Q44 13 44 55Q44 77 69 105T136 160Q92 178 63 216T34 302Q34 384 97 434T262 485ZM247 393Q221 393 207 371T193 321Q193 284 212 257T259 230Q287 230 300 252T313 303Q313 342 294 367T247 393ZM197 -24Q161 -47 161 -66Q161 -102 254 -102Q322 -102 353 -89T384 -61Q384 -33 320 -29T197 -24ZM137 701Q159 663 194 644T267 626Q349 626 399 701Q398 619 359 574T267 529Q212 529 174 576T137 701Z"
				   horiz-adv-x="536" unicode="ğ"/>
			<glyph d="M420 681Q531 681 615 643V445Q587 497 534 528T415 559Q325 559 267 495T209 333Q209 235 262 171T393 108Q426 108 455 116V199Q455 229 447 248T428 280T393 299H682Q667 296 654 286T632 256T623 203V22Q518 -15 368 -15Q265 -15 187 28T67 148T25 317Q25 417 74 501T213 633T420 681ZM380 854Q413 854 434 834T455 784Q455 753 434 732T380 712Q346 712 325 732T305 784Q305 814 325 834T380 854Z"
				   horiz-adv-x="692" unicode="Ġ"/>
			<glyph d="M262 485Q295 485 347 474T444 464Q494 464 522 478V371H451Q470 341 470 303Q470 231 410 184T252 138Q243 138 230 140Q201 122 201 110Q201 103 219 98T264 94L378 90Q447 87 485 57T523 -21Q523 -96 444 -145T225 -195Q128 -195 74 -172T21 -109Q21 -79 45 -52T108 -7Q44 13 44 55Q44 77 69 105T136 160Q92 178 63 216T34 302Q34 384 97 434T262 485ZM247 393Q221 393 207 371T193 321Q193 284 212 257T259 230Q287 230 300 252T313 303Q313 342 294 367T247 393ZM197 -24Q161 -47 161 -66Q161 -102 254 -102Q322 -102 353 -89T384 -61Q384 -33 320 -29T197 -24ZM268 680Q301 680 322 660T343 610Q343 579 322 558T268 538Q234 538 213 558T193 610Q193 640 213 660T268 680Z"
				   horiz-adv-x="536" unicode="ġ"/>
			<glyph d="M420 681Q531 681 615 643V445Q587 497 534 528T415 559Q325 559 267 495T209 333Q209 235 262 171T393 108Q426 108 455 116V199Q455 229 447 248T428 280T393 299H682Q667 296 654 286T632 256T623 203V22Q518 -15 368 -15Q265 -15 187 28T67 148T25 317Q25 417 74 501T213 633T420 681ZM364 -34Q385 -34 401 -50T417 -96Q417 -130 390 -159Q364 -188 321 -194Q339 -185 351 -164T363 -124Q338 -123 326 -110T314 -81Q314 -64 327 -49T364 -34Z"
				   horiz-adv-x="692" unicode="Ģ"/>
			<glyph d="M297 688Q280 680 267 659Q255 638 255 618Q281 617 292 604T304 575Q304 558 290 543T254 528Q233 528 217 544T201 590Q201 625 228 654T297 688ZM262 485Q295 485 347 474T444 464Q494 464 522 478V371H451Q470 341 470 303Q470 231 410 184T252 138Q243 138 230 140Q201 122 201 110Q201 103 219 98T264 94L378 90Q447 87 485 57T523 -21Q523 -96 444 -145T225 -195Q128 -195 74 -172T21 -109Q21 -79 45 -52T108 -7Q44 13 44 55Q44 77 69 105T136 160Q92 178 63 216T34 302Q34 384 97 434T262 485ZM247 393Q221 393 207 371T193 321Q193 284 212 257T259 230Q287 230 300 252T313 303Q313 342 294 367T247 393ZM197 -24Q161 -47 161 -66Q161 -102 254 -102Q322 -102 353 -89T384 -61Q384 -33 320 -29T197 -24Z"
				   horiz-adv-x="536" unicode="ģ"/>
			<glyph d="M22 666H310Q298 664 285 650T263 612T255 544V391H511V544Q510 650 455 666H742Q718 662 703 630T688 544V122Q688 81 696 55T716 15T742 0H455Q469 2 481 15T502 53T511 122V279H255V122Q255 80 263 53T284 14T310 0H22Q35 2 48 14T69 53T78 122V544Q78 648 22 666ZM381 900L553 695L381 764L212 695Z"
				   horiz-adv-x="765" unicode="Ĥ"/>
			<glyph d="M223 703V436Q244 455 283 470T358 485Q429 485 471 441T514 318V115Q514 75 522 51T542 14T568 0H318Q328 2 336 13T351 47T358 111V280Q358 368 297 368Q267 368 245 345T223 280V111Q223 74 231 49T250 14T274 0H12Q26 2 39 14T60 52T68 116V496Q68 613 1 613H-10ZM284 900L456 695L284 764L115 695Z"
				   horiz-adv-x="580" unicode="ĥ"/>
			<glyph d="M22 666H308Q284 660 270 629T255 553H511Q510 599 495 629T455 666H740Q688 650 688 544V122Q688 69 703 36T741 0H456Q483 7 497 39T511 122V279H255V122Q255 70 269 37T308 0H23Q50 7 64 39T78 122V544Q78 595 64 626T22 666ZM255 483V391H511V483Z"
				   horiz-adv-x="765" unicode="Ħ"/>
			<glyph d="M223 703V605H398V535H223V436Q244 455 282 470T358 485Q429 485 471 442T514 317V115Q514 75 522 51T542 14T568 0H318Q330 3 337 13T351 47T358 111V280Q358 368 297 368Q267 368 245 345T223 278V111Q223 74 231 49T250 13T274 0H12Q26 2 39 14T60 52T68 116V496Q68 613 1 613H-10Z"
				   horiz-adv-x="580" unicode="ħ"/>
			<glyph d="M27 666H312Q300 664 287 652T266 614T257 550V111Q257 74 265 50T285 14T311 0H27Q51 4 66 33T82 111V550Q82 648 27 666ZM306 871Q335 841 335 802Q335 766 308 739T241 712Q207 712 158 739Q110 766 83 766Q36 767 37 699Q6 731 6 771Q6 805 30 830T96 855Q132 855 185 829T260 803Q287 803 297 821T306 871Z"
				   horiz-adv-x="339" unicode="Ĩ"/>
			<glyph d="M225 490V116Q225 77 233 52T253 14T279 0H14Q38 4 53 33T69 116V308Q69 405 5 405H-9ZM283 697Q312 667 312 628Q312 592 285 565T218 538Q184 538 135 565Q87 592 60 592Q13 593 14 525Q-17 557 -17 597Q-17 631 7 656T73 681Q109 681 162 655T237 629Q264 629 274 647T283 697Z"
				   horiz-adv-x="292" unicode="ĩ"/>
			<glyph d="M27 666H312Q300 664 287 652T266 614T257 550V111Q257 74 265 50T285 14T311 0H27Q51 4 66 33T82 111V550Q82 648 27 666ZM2 816H339V746H2Z"
				   horiz-adv-x="339" unicode="Ī"/>
			<glyph d="M225 490V116Q225 77 233 52T253 14T279 0H14Q38 4 53 33T69 116V308Q69 405 5 405H-9ZM-21 635H316V565H-21Z"
				   horiz-adv-x="292" unicode="ī"/>
			<glyph d="M27 666H312Q300 664 287 652T266 614T257 550V111Q257 74 265 50T285 14T311 0H27Q51 4 66 33T82 111V550Q82 648 27 666ZM43 885Q65 847 100 828T173 810Q255 810 305 885Q304 803 265 758T173 713Q118 713 80 760T43 885Z"
				   horiz-adv-x="339" unicode="Ĭ"/>
			<glyph d="M225 490V116Q225 77 233 52T253 14T279 0H14Q38 4 53 33T69 116V308Q69 405 5 405H-9ZM16 701Q38 663 73 644T146 626Q228 626 278 701Q277 619 238 574T146 529Q91 529 53 576T16 701Z"
				   horiz-adv-x="292" unicode="ĭ"/>
			<glyph d="M27 666H311Q257 648 257 550V111Q257 65 271 34T309 0Q250 0 215 -21T180 -70Q180 -115 236 -117Q262 -117 294 -99Q282 -141 250 -163T185 -185Q145 -185 117 -160T89 -96Q89 -70 104 -43T147 0H28Q54 7 68 36T82 111V550Q82 596 67 626T27 666Z"
				   horiz-adv-x="339" unicode="Į"/>
			<glyph d="M225 490V116Q225 67 239 36T277 0Q215 0 180 -18T145 -71Q145 -91 160 -104T201 -117Q227 -117 259 -99Q247 -141 215 -163T150 -185Q110 -185 82 -160T54 -96Q54 -70 69 -43T112 0H15Q69 14 69 116V308Q69 405 5 405H-9ZM138 694Q179 694 203 670T228 609Q228 571 203 547T138 523Q97 523 72 547T48 609Q48 646 72 670T138 694Z"
				   horiz-adv-x="292" unicode="į"/>
			<glyph d="M27 666H312Q300 664 287 652T266 614T257 550V111Q257 74 265 50T285 14T311 0H27Q51 4 66 33T82 111V550Q82 648 27 666ZM170 874Q203 874 224 854T245 804Q245 773 224 752T170 732Q136 732 115 752T95 804Q95 834 115 854T170 874Z"
				   horiz-adv-x="339" unicode="İ"/>
			<glyph d="M225 490V116Q225 77 233 52T253 14T279 0H14Q38 4 53 33T69 116V308Q69 405 5 405H-9Z"
				   horiz-adv-x="292" unicode="ı"/>
			<glyph d="M27 666H312Q300 664 287 652T266 614T257 550V111Q257 74 265 50T285 14T311 0H27Q51 4 66 33T82 111V550Q82 648 27 666ZM381 666H671Q647 661 632 631T617 550V116Q617 18 573 -34T445 -87Q401 -87 363 -69T303 -21Q320 -26 338 -26Q383 -26 412 14T441 136V552Q441 651 381 666Z"
				   horiz-adv-x="698" unicode="Ĳ"/>
			<glyph d="M225 490V116Q225 77 233 52T254 14T279 0H14Q39 4 54 34T69 116V308Q69 405 5 405H-9ZM138 694Q179 694 203 670T228 609Q228 571 203 547T138 523Q97 523 72 547T48 609Q48 646 72 670T138 694ZM422 694Q463 694 487 670T512 609Q512 571 487 547T422 523Q381 523 356 547T332 609Q332 646 356 670T422 694ZM517 490V-15Q517 -99 470 -145T333 -192Q291 -192 256 -172T212 -131Q240 -141 267 -141Q361 -141 361 -16V312Q361 405 297 405H283Z"
				   horiz-adv-x="584" unicode="ĳ"/>
			<glyph d="M42 666H332Q308 661 293 631T278 550V116Q278 18 234 -34T106 -87Q62 -87 24 -69T-36 -21Q-19 -26 -1 -26Q44 -26 73 14T102 136V552Q102 651 42 666ZM190 900L362 695L190 764L21 695Z"
				   horiz-adv-x="359" unicode="Ĵ"/>
			<glyph d="M225 490V-15Q225 -99 178 -145T41 -192Q2 -192 -35 -172T-80 -131Q-52 -141 -25 -141Q69 -141 69 -16V312Q69 405 5 405H-9ZM144 703L296 501L144 570L-5 501Z"
				   horiz-adv-x="292" unicode="ĵ"/>
			<glyph d="M22 666H309Q296 664 283 650T263 611T255 544V379L399 540Q457 605 457 639Q457 661 431 666H731Q718 664 693 651T637 611T565 542L413 370L594 130Q684 13 737 0H481L255 303V121Q255 82 263 54T283 14T309 0H22Q35 2 48 15T70 55T78 121V544Q78 647 22 666ZM373 -34Q394 -34 410 -50T426 -96Q426 -130 399 -159Q373 -188 330 -194Q348 -185 360 -164T372 -124Q347 -123 335 -110T323 -81Q323 -64 336 -49T373 -34Z"
				   horiz-adv-x="749" unicode="Ķ"/>
			<glyph d="M225 700V269L321 374Q353 408 353 436Q353 449 345 456T327 465H598Q545 445 464 361L379 271L510 108Q585 15 620 15Q626 15 631 17Q588 -13 485 -13Q433 -13 398 7T331 73Q241 203 225 217V116Q225 77 233 52T253 14T279 0H14Q38 4 53 33T69 116V501Q69 618 1 618H-9ZM306 -34Q327 -34 343 -50T359 -96Q359 -130 332 -159Q306 -188 263 -194Q281 -185 293 -164T305 -124Q280 -123 268 -110T256 -81Q256 -64 269 -49T306 -34Z"
				   horiz-adv-x="615" unicode="ķ"/>
			<glyph d="M222 490V265L318 371Q352 408 352 436Q352 449 344 456T326 465H595Q542 446 461 361L376 271L507 108Q582 15 617 15Q622 15 628 17Q586 -13 483 -13Q431 -13 395 7T328 73Q240 200 222 217V116Q222 77 230 51T251 13T275 0H12Q35 6 46 23T62 62T67 115V308Q67 357 53 381T7 405H-7Z"
				   horiz-adv-x="612" unicode="ĸ"/>
			<glyph d="M22 666H302Q279 662 263 632T247 544V114H397Q455 114 484 129T542 193L511 0H28Q51 5 64 40T77 137V544Q77 649 22 666ZM231 860H425L193 695Z"
				   horiz-adv-x="568" unicode="Ĺ"/>
			<glyph d="M225 700V116Q225 76 233 51T253 14T279 0H13Q38 4 53 34T68 116V501Q68 619 2 618H-10ZM103 860H297L65 695Z"
				   horiz-adv-x="292" unicode="ĺ"/>
			<glyph d="M22 666H302Q279 662 263 632T247 544V114H397Q455 114 484 129T542 193L511 0H28Q51 5 64 40T77 137V544Q77 649 22 666ZM282 -34Q303 -34 319 -50T335 -96Q335 -130 308 -159Q282 -188 239 -194Q257 -185 269 -164T281 -124Q256 -123 244 -110T232 -81Q232 -64 245 -49T282 -34Z"
				   horiz-adv-x="568" unicode="Ļ"/>
			<glyph d="M225 700V116Q225 76 233 51T253 14T279 0H13Q38 4 53 34T68 116V501Q68 619 2 618H-10ZM146 -34Q167 -34 183 -50T199 -96Q199 -130 172 -159Q146 -188 103 -194Q121 -185 133 -164T145 -124Q120 -123 108 -110T96 -81Q96 -64 109 -49T146 -34Z"
				   horiz-adv-x="292" unicode="ļ"/>
			<glyph d="M22 666H302Q279 662 263 632T247 544V114H397Q455 114 484 129T542 193L511 0H28Q51 5 64 40T77 137V544Q77 649 22 666ZM363 682H511L340 481Z"
				   horiz-adv-x="568" unicode="Ľ"/>
			<glyph d="M225 700V116Q225 76 233 51T253 14T279 0H13Q38 4 53 34T68 116V501Q68 619 2 618H-10ZM284 682H432L261 481Z"
				   horiz-adv-x="292" unicode="ľ"/>
			<glyph d="M22 666H302Q279 662 263 632T247 544V114H397Q455 114 484 129T542 193L511 0H28Q51 5 64 40T77 137V544Q77 649 22 666ZM459 435Q505 435 533 407T562 338Q562 296 533 268T459 240Q413 240 385 268T357 338Q357 380 385 407T459 435Z"
				   horiz-adv-x="604" unicode="Ŀ"/>
			<glyph d="M225 700V116Q225 76 233 51T253 14T279 0H13Q38 4 53 34T68 116V501Q68 619 2 618H-10ZM406 393Q452 393 480 365T509 296Q509 254 480 226T406 198Q360 198 332 226T304 296Q304 338 332 365T406 393Z"
				   horiz-adv-x="536" unicode="ŀ"/>
			<glyph d="M23 666H303Q279 663 263 630T247 544V442L336 507V405L247 340V114H378Q442 114 482 149T551 246L512 0H28Q50 4 64 39T78 137V217L16 173V275L78 319V544Q78 648 23 666Z"
				   horiz-adv-x="568" unicode="Ł"/>
			<glyph d="M224 700V438L280 480V378L224 336V116Q224 76 231 52T249 15T272 0H13Q39 5 53 34T68 116V220L6 173V275L68 322V501Q68 618 2 618H-10Z"
				   horiz-adv-x="285" unicode="ł"/>
			<glyph d="M-6 666H249L529 328V547Q529 651 471 666H720Q695 661 680 630T666 547V0H529Q503 82 407 202L232 410V118Q232 65 251 34T296 0H42Q55 3 66 15T86 52T94 119V540Q94 613 -6 666ZM350 860H544L312 695Z"
				   horiz-adv-x="748" unicode="Ń"/>
			<glyph d="M217 490L218 428Q244 454 283 469T359 485Q514 485 514 312V117Q514 77 522 52T542 14T568 0H308Q330 4 343 32T357 112V280Q357 368 298 368Q265 368 243 344T222 277V111Q222 73 230 49T249 13T273 0H11Q26 2 38 14T58 49T67 113V310Q67 405 9 405H-7ZM294 666H488L256 501Z"
				   horiz-adv-x="579" unicode="ń"/>
			<glyph d="M-6 666H249L529 328V547Q529 651 471 666H720Q695 661 680 630T666 547V0H529Q503 82 407 202L232 410V118Q232 65 251 34T296 0H42Q55 3 66 15T86 52T94 119V540Q94 613 -6 666ZM372 -34Q393 -34 409 -50T425 -96Q425 -130 398 -159Q372 -188 329 -194Q347 -185 359 -164T371 -124Q346 -123 334 -110T322 -81Q322 -64 335 -49T372 -34Z"
				   horiz-adv-x="748" unicode="Ņ"/>
			<glyph d="M217 490L218 428Q244 454 283 469T359 485Q514 485 514 312V117Q514 77 522 52T542 14T568 0H308Q330 4 343 32T357 112V280Q357 368 298 368Q265 368 243 344T222 277V111Q222 73 230 49T249 13T273 0H11Q26 2 38 14T58 49T67 113V310Q67 405 9 405H-7ZM288 -34Q309 -34 325 -50T341 -96Q341 -130 314 -159Q288 -188 245 -194Q263 -185 275 -164T287 -124Q262 -123 250 -110T238 -81Q238 -64 251 -49T288 -34Z"
				   horiz-adv-x="579" unicode="ņ"/>
			<glyph d="M-6 666H249L529 328V547Q529 651 471 666H720Q695 661 680 630T666 547V0H529Q503 82 407 202L232 410V118Q232 65 251 34T296 0H42Q55 3 66 15T86 52T94 119V540Q94 613 -6 666ZM223 904L375 835L524 904L375 703Z"
				   horiz-adv-x="748" unicode="Ň"/>
			<glyph d="M217 490L218 428Q244 454 283 469T359 485Q514 485 514 312V117Q514 77 522 52T542 14T568 0H308Q330 4 343 32T357 112V280Q357 368 298 368Q265 368 243 344T222 277V111Q222 73 230 49T249 13T273 0H11Q26 2 38 14T58 49T67 113V310Q67 405 9 405H-7ZM139 703L291 634L440 703L291 502Z"
				   horiz-adv-x="579" unicode="ň"/>
			<glyph d="M51 687Q72 687 88 670T104 625Q104 591 77 562Q51 533 8 527Q25 535 37 556T50 597Q24 598 12 611T1 640Q1 657 14 672T51 687ZM217 490L218 428Q244 454 283 469T359 485Q514 485 514 312V117Q514 77 522 52T542 14T568 0H308Q330 4 343 32T357 112V280Q357 368 298 368Q265 368 243 344T222 277V111Q222 73 230 49T249 13T273 0H11Q26 2 38 14T58 49T67 113V310Q67 405 9 405H-7Z"
				   horiz-adv-x="579" unicode="ŉ"/>
			<glyph d="M-6 666H249L529 328V547Q529 597 514 628T472 666H718Q693 660 679 628T666 547V55Q666 -34 592 -93T400 -153Q454 -128 479 -86T505 3Q505 85 441 161L232 410V118Q232 65 250 34T295 0H43Q68 6 81 38T94 119V540Q94 613 -6 666Z"
				   horiz-adv-x="748" unicode="Ŋ"/>
			<glyph d="M217 490L218 428Q247 455 285 470T358 485Q514 485 514 312V-15Q514 -99 467 -145T330 -192Q290 -192 254 -173T209 -131Q237 -141 264 -141Q357 -141 357 -16V280Q357 368 298 368Q265 368 243 345T222 280V111Q222 73 230 49T249 14T273 0H11Q26 2 38 14T58 49T67 113V310Q67 405 9 405H-7Z"
				   horiz-adv-x="579" unicode="ŋ"/>
			<glyph d="M399 681Q546 681 637 587T729 344Q729 244 683 161Q638 78 557 31T373 -15Q224 -15 132 79T40 322Q40 422 85 504T213 634T399 681ZM372 557Q303 557 261 503T220 353Q220 237 266 174T398 112Q465 112 508 165T551 316Q551 427 504 492T372 557ZM212 819H549V749H212Z"
				   horiz-adv-x="769" unicode="Ō"/>
			<glyph d="M293 485Q408 485 477 420T547 247Q547 130 474 57T284 -15Q172 -15 103 49T34 227Q34 343 109 414T293 485ZM282 374Q244 374 217 340T191 249Q191 186 222 141T298 97Q336 97 361 132T387 227Q387 288 356 331T282 374ZM122 635H459V565H122Z"
				   horiz-adv-x="581" unicode="ō"/>
			<glyph d="M399 681Q546 681 637 587T729 344Q729 244 683 161Q638 78 557 31T373 -15Q224 -15 132 79T40 322Q40 422 85 504T213 634T399 681ZM372 557Q303 557 261 503T220 353Q220 237 266 174T398 112Q465 112 508 165T551 316Q551 427 504 492T372 557ZM251 895Q273 857 308 838T381 820Q463 820 513 895Q512 813 473 768T381 723Q326 723 288 770T251 895Z"
				   horiz-adv-x="769" unicode="Ŏ"/>
			<glyph d="M293 485Q408 485 477 420T547 247Q547 130 474 57T284 -15Q172 -15 103 49T34 227Q34 343 109 414T293 485ZM282 374Q244 374 217 340T191 249Q191 186 222 141T298 97Q336 97 361 132T387 227Q387 288 356 331T282 374ZM159 701Q181 663 216 644T289 626Q371 626 421 701Q420 619 381 574T289 529Q234 529 196 576T159 701Z"
				   horiz-adv-x="581" unicode="ŏ"/>
			<glyph d="M399 681Q546 681 637 587T729 344Q729 244 683 161Q638 78 557 31T373 -15Q224 -15 132 79T40 322Q40 422 85 504T213 634T399 681ZM372 557Q303 557 261 503T220 353Q220 237 266 174T398 112Q465 112 508 165T551 316Q551 427 504 492T372 557ZM513 867H687L462 702ZM304 867H478L254 702Z"
				   horiz-adv-x="769" unicode="Ő"/>
			<glyph d="M293 485Q408 485 477 420T547 247Q547 130 474 57T284 -15Q172 -15 103 49T34 227Q34 343 109 414T293 485ZM282 374Q244 374 217 340T191 249Q191 186 222 141T298 97Q336 97 361 132T387 227Q387 288 356 331T282 374ZM389 666H563L338 501ZM180 666H354L130 501Z"
				   horiz-adv-x="581" unicode="ő"/>
			<glyph d="M399 683Q458 683 511 666H964V450Q956 498 922 526T835 555H719V391H823Q848 391 863 397T889 412T906 444V226Q903 247 881 263T825 279H719V114H846Q909 114 948 143T1010 229L972 0H490Q439 -16 373 -16Q274 -16 198 28T81 151T40 323Q40 421 85 504T211 635T399 683ZM372 559Q302 559 261 503T220 353Q220 241 266 175T398 110Q465 110 507 164T550 316Q550 432 503 495T372 559Z"
				   horiz-adv-x="1030" unicode="Œ"/>
			<glyph d="M293 485Q401 485 471 427Q535 485 624 485Q725 485 777 412T830 206H537Q544 159 588 129T687 99Q729 99 770 114T838 158Q824 70 767 27T619 -16Q523 -16 458 45Q387 -15 284 -15Q172 -15 103 49T34 227Q34 343 108 414T293 485ZM621 386Q592 386 566 361T537 293H688Q688 342 667 364T621 386ZM282 374Q244 374 217 340T191 249Q191 186 222 141T298 97Q336 97 361 132T387 227Q387 288 356 331T282 374Z"
				   horiz-adv-x="870" unicode="œ"/>
			<glyph d="M22 666H352Q464 666 532 609T600 465Q600 390 556 340T444 278Q470 261 494 218L570 85Q591 46 616 24T658 0H425L326 190Q308 225 295 234T269 244H256V121Q256 68 271 36T311 0H33Q47 2 60 15T81 54T89 121V540Q89 579 81 603T59 643T22 666ZM255 555V359H321Q371 359 398 387T425 461Q425 504 396 529T319 555ZM316 860H510L278 695Z"
				   horiz-adv-x="680" unicode="Ŕ"/>
			<glyph d="M212 490L214 396Q231 433 265 459T337 485Q365 485 393 469V280Q382 305 356 322T304 339Q265 339 243 302T221 197V116Q221 77 229 51T251 14T277 0H12Q37 4 52 34T67 116V317Q67 410 7 410H-6ZM162 666H356L124 501Z"
				   horiz-adv-x="413" unicode="ŕ"/>
			<glyph d="M22 666H352Q464 666 532 609T600 465Q600 390 556 340T444 278Q470 261 494 218L570 85Q591 46 616 24T658 0H425L326 190Q308 225 295 234T269 244H256V121Q256 68 271 36T311 0H33Q47 2 60 15T81 54T89 121V540Q89 579 81 603T59 643T22 666ZM255 555V359H321Q371 359 398 387T425 461Q425 504 396 529T319 555ZM338 -34Q359 -34 375 -50T391 -96Q391 -130 364 -159Q338 -188 295 -194Q313 -185 325 -164T337 -124Q312 -123 300 -110T288 -81Q288 -64 301 -49T338 -34Z"
				   horiz-adv-x="680" unicode="Ŗ"/>
			<glyph d="M212 490L214 396Q231 433 265 459T337 485Q365 485 393 469V280Q382 305 356 322T304 339Q265 339 243 302T221 197V116Q221 77 229 51T251 14T277 0H12Q37 4 52 34T67 116V317Q67 410 7 410H-6ZM176 -34Q197 -34 213 -50T229 -96Q229 -130 202 -159Q176 -188 133 -194Q151 -185 163 -164T175 -124Q150 -123 138 -110T126 -81Q126 -64 139 -49T176 -34Z"
				   horiz-adv-x="413" unicode="ŗ"/>
			<glyph d="M22 666H352Q464 666 532 609T600 465Q600 390 556 340T444 278Q470 261 494 218L570 85Q591 46 616 24T658 0H425L326 190Q308 225 295 234T269 244H256V121Q256 68 271 36T311 0H33Q47 2 60 15T81 54T89 121V540Q89 579 81 603T59 643T22 666ZM255 555V359H321Q371 359 398 387T425 461Q425 504 396 529T319 555ZM169 904L321 835L470 904L321 703Z"
				   horiz-adv-x="680" unicode="Ř"/>
			<glyph d="M212 490L214 396Q231 433 265 459T337 485Q365 485 393 469V280Q382 305 356 322T304 339Q265 339 243 302T221 197V116Q221 77 229 51T251 14T277 0H12Q37 4 52 34T67 116V317Q67 410 7 410H-6ZM61 703L213 634L362 703L213 502Z"
				   horiz-adv-x="413" unicode="ř"/>
			<glyph d="M302 680Q353 680 399 667T474 635V457Q451 498 399 529T294 561Q208 561 208 505Q208 482 228 463T333 407Q415 370 448 342T501 278T521 193Q521 96 447 41T252 -14Q134 -14 43 35V246Q113 107 252 107Q296 107 324 123T352 168Q352 194 328 215T236 267Q126 315 86 362T46 472Q46 566 116 623T302 680ZM256 860H450L218 695Z"
				   horiz-adv-x="560" unicode="Ś"/>
			<glyph d="M231 486Q302 486 359 459V312Q342 337 306 357T232 378Q185 378 185 349Q185 336 197 325T239 302Q333 261 363 226T394 139Q394 66 339 25T197 -15Q150 -15 104 -4T36 26V185Q58 146 99 118T194 91Q249 91 249 121Q249 135 235 146T181 175Q101 212 71 245T42 331Q42 402 91 444T231 486ZM175 666H369L137 501Z"
				   horiz-adv-x="418" unicode="ś"/>
			<glyph d="M302 680Q353 680 399 667T474 635V457Q451 498 399 529T294 561Q208 561 208 505Q208 482 228 463T333 407Q415 370 448 342T501 278T521 193Q521 96 447 41T252 -14Q134 -14 43 35V246Q113 107 252 107Q296 107 324 123T352 168Q352 194 328 215T236 267Q126 315 86 362T46 472Q46 566 116 623T302 680ZM288 900L460 695L288 764L119 695Z"
				   horiz-adv-x="560" unicode="Ŝ"/>
			<glyph d="M231 486Q302 486 359 459V312Q342 337 306 357T232 378Q185 378 185 349Q185 336 197 325T239 302Q333 261 363 226T394 139Q394 66 339 25T197 -15Q150 -15 104 -4T36 26V185Q58 146 99 118T194 91Q249 91 249 121Q249 135 235 146T181 175Q101 212 71 245T42 331Q42 402 91 444T231 486ZM208 703L360 501L208 570L59 501Z"
				   horiz-adv-x="418" unicode="ŝ"/>
			<glyph d="M302 680Q353 680 399 667T474 635V457Q451 498 399 529T294 561Q208 561 208 504Q208 482 228 462T333 407Q415 370 448 342T501 278T521 193Q521 112 469 59T319 -9L300 -36Q342 -41 362 -61T382 -106Q382 -140 351 -162T273 -185Q217 -185 177 -159L207 -162Q245 -162 265 -148T285 -118Q285 -101 265 -87T202 -73L239 -14Q116 -10 43 35V246Q113 107 252 107Q296 107 324 123T352 168Q352 194 328 215T236 267Q126 315 86 362T46 472Q46 566 115 623T302 680Z"
				   horiz-adv-x="560" unicode="Ş"/>
			<glyph d="M231 486Q307 486 359 459V312Q342 337 305 357T232 378Q185 378 185 349Q185 336 197 325T239 302Q333 261 363 226T394 139Q394 76 354 38T247 -11L230 -36Q272 -42 292 -62T312 -106Q312 -140 281 -162T203 -185Q151 -185 107 -159Q123 -162 137 -162Q174 -162 194 -148T215 -118Q215 -101 195 -87T132 -73L169 -14Q73 -7 36 26V185Q58 146 99 118T194 91Q249 91 249 121Q249 135 235 146T181 175Q101 212 71 245T42 331Q42 402 91 444T231 486Z"
				   horiz-adv-x="418" unicode="ş"/>
			<glyph d="M302 680Q353 680 399 667T474 635V457Q451 498 399 529T294 561Q208 561 208 505Q208 482 228 463T333 407Q415 370 448 342T501 278T521 193Q521 96 447 41T252 -14Q134 -14 43 35V246Q113 107 252 107Q296 107 324 123T352 168Q352 194 328 215T236 267Q126 315 86 362T46 472Q46 566 116 623T302 680ZM107 901L279 832L448 901L279 696Z"
				   horiz-adv-x="560" unicode="Š"/>
			<glyph d="M231 486Q302 486 359 459V312Q342 337 306 357T232 378Q185 378 185 349Q185 336 197 325T239 302Q333 261 363 226T394 139Q394 66 339 25T197 -15Q150 -15 104 -4T36 26V185Q58 146 99 118T194 91Q249 91 249 121Q249 135 235 146T181 175Q101 212 71 245T42 331Q42 402 91 444T231 486ZM60 703L212 634L361 703L212 502Z"
				   horiz-adv-x="418" unicode="š"/>
			<glyph d="M40 666H628L645 460Q623 517 592 536T516 555H422V122Q422 66 438 34T477 0H191Q216 4 230 36T245 122V555H127Q102 555 84 545T54 520T23 460H22ZM330 -34Q351 -34 367 -50T383 -96Q383 -130 356 -159Q330 -188 287 -194Q305 -185 317 -164T329 -124Q304 -123 292 -110T280 -81Q280 -64 293 -49T330 -34Z"
				   horiz-adv-x="666" unicode="Ţ"/>
			<glyph d="M221 617V465H349V366H221V159Q221 100 274 100Q300 100 326 114T363 147Q345 -16 202 -16Q135 -16 100 19T66 106V366H-3ZM198 -34Q219 -34 235 -50T251 -96Q251 -130 224 -159Q198 -188 155 -194Q173 -185 185 -164T197 -124Q172 -123 160 -110T148 -81Q148 -64 161 -49T198 -34Z"
				   horiz-adv-x="379" unicode="ţ"/>
			<glyph d="M40 666H628L645 460Q623 517 592 536T516 555H422V122Q422 66 438 34T477 0H191Q216 4 230 36T245 122V555H127Q102 555 84 545T54 520T23 460H22ZM182 904L334 835L483 904L334 703Z"
				   horiz-adv-x="666" unicode="Ť"/>
			<glyph d="M221 617V465H349V366H221V159Q221 100 274 100Q300 100 326 114T363 147Q345 -16 202 -16Q135 -16 100 19T66 106V366H-3ZM303 682H451L280 481Z"
				   horiz-adv-x="379" unicode="ť"/>
			<glyph d="M40 666H628L645 460Q622 516 591 535T516 555H422V350H501V280H422V122Q422 72 435 39T475 0H192Q206 2 218 15T237 55T245 122V280H164V350H245V555H127Q102 555 84 545T54 520T23 460H22Z"
				   horiz-adv-x="666" unicode="Ŧ"/>
			<glyph d="M221 617V465H349V366H221V277H315V207H221V159Q221 100 274 100Q300 100 326 113T363 147Q345 -16 202 -16Q135 -16 100 19T66 106V207H8V277H66V366H-3Z"
				   horiz-adv-x="379" unicode="ŧ"/>
			<glyph d="M22 666H309Q285 662 270 631T255 548V243Q255 165 284 135T376 106Q436 106 463 137T491 243V544Q491 594 475 626T430 666H700Q674 662 657 631T641 544V247Q641 119 573 52T370 -15Q218 -15 148 48T78 234V544Q78 650 22 666ZM522 871Q551 841 551 802Q551 766 524 739T457 712Q423 712 374 739Q326 766 299 766Q252 767 253 699Q222 731 222 771Q222 805 246 830T312 855Q348 855 401 829T476 803Q503 803 513 821T522 871Z"
				   horiz-adv-x="723" unicode="Ũ"/>
			<glyph d="M-8 465H222V190Q222 102 281 102Q314 102 335 125T356 191V357Q356 452 302 465H511V160Q511 65 569 65H585L362 -20L360 42Q334 16 295 0T221 -15Q65 -15 65 157V351Q65 393 48 425T-8 465ZM424 697Q453 667 453 628Q453 592 426 565T359 538Q325 538 276 565Q228 592 201 592Q154 593 155 525Q124 557 124 597Q124 631 148 656T214 681Q250 681 303 655T378 629Q405 629 415 647T424 697Z"
				   horiz-adv-x="577" unicode="ũ"/>
			<glyph d="M22 666H309Q285 662 270 631T255 548V243Q255 165 284 135T376 106Q436 106 463 137T491 243V544Q491 594 475 626T430 666H700Q674 662 657 631T641 544V247Q641 119 573 52T370 -15Q218 -15 148 48T78 234V544Q78 650 22 666ZM207 819H544V749H207Z"
				   horiz-adv-x="723" unicode="Ū"/>
			<glyph d="M-8 465H222V190Q222 102 281 102Q314 102 335 125T356 191V357Q356 452 302 465H511V160Q511 65 569 65H585L362 -20L360 42Q334 16 295 0T221 -15Q65 -15 65 157V351Q65 393 48 425T-8 465ZM120 635H457V565H120Z"
				   horiz-adv-x="577" unicode="ū"/>
			<glyph d="M22 666H309Q285 662 270 631T255 548V243Q255 165 284 135T376 106Q436 106 463 137T491 243V544Q491 594 475 626T430 666H700Q674 662 657 631T641 544V247Q641 119 573 52T370 -15Q218 -15 148 48T78 234V544Q78 650 22 666ZM239 885Q261 847 296 828T369 810Q451 810 501 885Q500 803 461 758T369 713Q314 713 276 760T239 885Z"
				   horiz-adv-x="723" unicode="Ŭ"/>
			<glyph d="M-8 465H222V190Q222 102 281 102Q314 102 335 125T356 191V357Q356 452 302 465H511V160Q511 65 569 65H585L362 -20L360 42Q334 16 295 0T221 -15Q65 -15 65 157V351Q65 393 48 425T-8 465ZM157 701Q179 663 214 644T287 626Q369 626 419 701Q418 619 379 574T287 529Q232 529 194 576T157 701Z"
				   horiz-adv-x="577" unicode="ŭ"/>
			<glyph d="M22 666H309Q285 662 270 631T255 548V243Q255 165 284 135T376 106Q436 106 463 137T491 243V544Q491 594 475 626T430 666H700Q674 662 657 631T641 544V247Q641 119 573 52T370 -15Q218 -15 148 48T78 234V544Q78 650 22 666ZM361 900Q407 900 435 871T464 799Q464 752 434 724T361 696Q315 696 286 725T258 799Q258 843 287 871T361 900ZM361 851Q341 851 325 838T310 799Q310 773 325 759T361 745Q380 745 395 758Q410 772 410 799Q410 826 395 838T361 851Z"
				   horiz-adv-x="723" unicode="Ů"/>
			<glyph d="M-8 465H222V190Q222 102 281 102Q314 102 335 125T356 191V357Q356 452 302 465H511V160Q511 65 569 65H585L362 -20L360 42Q334 16 295 0T221 -15Q65 -15 65 157V351Q65 393 48 425T-8 465ZM288 709Q334 709 362 680T391 608Q391 561 361 533T288 505Q242 505 213 534T185 608Q185 652 214 680T288 709ZM288 660Q268 660 252 647T237 608Q237 582 252 568T288 554Q307 554 322 567Q337 581 337 608Q337 635 322 647T288 660Z"
				   horiz-adv-x="577" unicode="ů"/>
			<glyph d="M22 666H309Q285 662 270 631T255 548V243Q255 165 284 135T376 106Q436 106 463 137T491 243V544Q491 594 475 626T430 666H700Q674 662 657 631T641 544V247Q641 119 573 52T370 -15Q218 -15 148 48T78 234V544Q78 650 22 666ZM480 867H654L429 702ZM271 867H445L221 702Z"
				   horiz-adv-x="723" unicode="Ű"/>
			<glyph d="M-8 465H222V190Q222 102 281 102Q314 102 335 125T356 191V357Q356 452 302 465H511V160Q511 65 569 65H585L362 -20L360 42Q334 16 295 0T221 -15Q65 -15 65 157V351Q65 393 48 425T-8 465ZM362 666H536L311 501ZM153 666H327L103 501Z"
				   horiz-adv-x="577" unicode="ű"/>
			<glyph d="M22 666H307Q255 650 255 548V243Q255 165 284 135T376 106Q436 106 463 137T491 243V544Q491 593 475 626T431 666H698Q670 659 655 626T641 544V247Q641 35 460 -5Q427 -13 406 -26T386 -69Q386 -90 400 -103T442 -117Q468 -117 500 -99Q488 -141 456 -163T391 -185Q351 -185 323 -160T295 -96Q295 -50 334 -14Q78 -1 78 234V544Q78 595 63 627T22 666Z"
				   horiz-adv-x="723" unicode="Ų"/>
			<glyph d="M-7 465H222V190Q222 102 281 102Q314 102 335 125T356 191V357Q356 402 342 430T303 465H511V160Q511 65 569 65H585Q445 -7 445 -76Q445 -117 488 -117Q514 -117 546 -99Q534 -141 502 -163T437 -185Q389 -185 366 -158T343 -97Q343 -43 385 -1L366 46Q339 19 300 2T221 -15Q65 -15 65 158V351Q65 397 46 427T-7 465Z"
				   horiz-adv-x="577" unicode="ų"/>
			<glyph d="M1 666H315Q299 663 288 648T278 608Q278 579 290 545L383 265L483 535Q443 649 409 666H682Q665 663 652 647T639 603Q639 581 651 545L743 266L834 545Q845 580 845 606Q845 631 834 646T804 666H1067Q1039 660 1013 625T968 532L795 0H656L539 354L417 0H280L100 537Q60 651 1 666ZM553 900L725 695L553 764L384 695Z"
				   horiz-adv-x="1069" unicode="Ŵ"/>
			<glyph d="M-2 465H266Q255 463 247 453T239 424Q239 403 250 372L310 211L371 368Q354 414 337 437T305 465H548Q514 459 513 418Q513 399 523 372L581 212L634 360Q646 393 646 413Q646 435 636 448T609 465H840Q820 460 800 434T765 370L622 0H511L423 231L337 0H226L77 376Q60 418 38 440T-2 465ZM436 703L588 501L436 570L287 501Z"
				   horiz-adv-x="837" unicode="ŵ"/>
			<glyph d="M-5 666H310Q294 663 284 652T275 624Q275 594 301 549L380 415Q465 555 476 582T487 625Q487 644 477 654T455 666H709L701 662Q661 640 600 540L440 279V122Q440 81 448 55T468 15T494 0H207Q221 2 233 15T254 53T263 122V273L108 541Q44 650 -5 666ZM380 900L552 695L380 764L211 695Z"
				   horiz-adv-x="703" unicode="Ŷ"/>
			<glyph d="M-2 465H276Q262 463 251 451T240 418Q240 404 252 372L313 209L372 363Q386 399 386 417Q386 437 375 449T343 465H580Q565 461 545 437T507 371L362 35Q326 -51 274 -114T182 -191L15 -89Q31 -92 45 -92Q151 -92 221 24L79 376Q63 416 40 439T-2 465ZM306 703L458 501L306 570L157 501Z"
				   horiz-adv-x="577" unicode="ŷ"/>
			<glyph d="M-5 666H310Q294 663 284 652T275 624Q275 594 301 549L380 415Q465 555 476 582T487 625Q487 644 477 654T455 666H709L701 662Q661 640 600 540L440 279V122Q440 81 448 55T468 15T494 0H207Q221 2 233 15T254 53T263 122V273L108 541Q44 650 -5 666ZM465 852Q500 852 520 832T540 782Q540 751 519 730T465 710Q431 710 411 730T391 782Q391 812 411 832T465 852ZM260 852Q294 852 314 832T334 782Q334 751 314 730Q294 710 260 710Q225 710 204 730T183 782Q183 812 204 832T260 852Z"
				   horiz-adv-x="703" unicode="Ÿ"/>
			<glyph d="M39 666H586L281 114H450Q564 114 610 213L589 0H19L326 555H192Q146 555 119 547T75 525T39 459ZM313 860H507L275 695Z"
				   horiz-adv-x="634" unicode="Ź"/>
			<glyph d="M34 465H464L249 97H373Q404 97 423 106T455 130T475 177V0H22L235 373H150Q54 372 34 282ZM214 666H408L176 501Z"
				   horiz-adv-x="496" unicode="ź"/>
			<glyph d="M39 666H586L281 114H450Q564 114 610 213L589 0H19L326 555H192Q146 555 119 547T75 525T39 459ZM321 854Q354 854 375 834T396 784Q396 753 375 732T321 712Q287 712 266 732T246 784Q246 814 266 834T321 854Z"
				   horiz-adv-x="634" unicode="Ż"/>
			<glyph d="M34 465H464L249 97H373Q404 97 423 106T455 130T475 177V0H22L235 373H150Q54 372 34 282ZM249 680Q282 680 303 660T324 610Q324 579 303 558T249 538Q215 538 194 558T174 610Q174 640 194 660T249 680Z"
				   horiz-adv-x="496" unicode="ż"/>
			<glyph d="M39 666H586L281 114H450Q564 114 610 213L589 0H19L326 555H192Q146 555 119 547T75 525T39 459ZM166 904L318 835L467 904L318 703Z"
				   horiz-adv-x="634" unicode="Ž"/>
			<glyph d="M34 465H464L249 97H373Q404 97 423 106T455 130T475 177V0H22L235 373H150Q54 372 34 282ZM97 703L249 634L398 703L249 502Z"
				   horiz-adv-x="496" unicode="ž"/>
			<glyph d="M281 701Q305 701 326 697T356 693V558Q347 573 329 584T292 596Q244 596 244 526V134Q244 90 252 61T273 17T299 0H32Q46 2 58 15T79 57T88 132V366H11V465H88V497Q88 593 139 647T281 701Z"
				   horiz-adv-x="371" unicode="ſ"/>
			<glyph d="M427 682Q494 682 544 659L506 537Q470 558 431 558Q370 558 366 455L363 409H466L458 308H355L336 115Q322 -19 266 -90T98 -162Q53 -162 -6 -139L27 -10Q68 -37 96 -37Q130 -37 143 -7T163 86L185 308H91L99 409H193Q207 554 266 618T427 682Z"
				   horiz-adv-x="583" unicode="ƒ"/>
			<glyph d="M755 718Q786 718 807 695T829 638Q829 587 794 544Q760 501 707 476Q729 412 729 344Q729 244 683 161T557 31T373 -15Q224 -15 132 79T40 322Q40 422 85 504T213 634T399 681Q499 681 570 639T682 529Q719 547 733 579Q679 595 679 647Q679 676 699 697T755 718ZM372 557Q303 557 261 503T220 353Q220 237 266 174T398 112Q465 112 508 165T551 316Q551 427 504 492T372 557Z"
				   horiz-adv-x="804" unicode="Ơ"/>
			<glyph d="M562 570Q593 570 614 547T636 490Q636 444 607 404Q579 364 532 337Q547 296 547 247Q547 130 473 57T284 -15Q172 -15 103 49T34 227Q34 343 109 414T293 485Q433 485 505 390Q529 408 540 431Q486 449 486 499Q486 528 506 549T562 570ZM282 374Q244 374 217 340T191 249Q191 186 222 141T298 97Q336 97 361 132T387 227Q387 288 356 331T282 374Z"
				   horiz-adv-x="611" unicode="ơ"/>
			<glyph d="M764 718Q795 718 816 695T838 638Q838 572 781 519T641 458V247Q641 119 573 52T370 -15Q218 -15 148 48T78 234V544Q78 579 72 602T56 640T23 666H306Q283 661 269 629T255 548V243Q255 166 284 136T376 106Q436 106 463 137T491 243V544Q491 593 475 626T431 666H641V515Q716 526 742 579Q688 597 688 647Q688 676 708 697T764 718Z"
				   horiz-adv-x="813" unicode="Ư"/>
			<glyph d="M622 570Q653 570 674 547T696 490Q696 427 643 375T511 311V160Q511 65 569 65H585L362 -20L360 42Q334 16 295 0T221 -15Q65 -15 65 157V354Q65 397 48 427T-6 468H222V190Q222 102 281 102Q314 102 335 125T356 191V360Q356 449 304 468H511V369Q576 382 600 431Q546 449 546 499Q546 528 566 549T622 570Z"
				   horiz-adv-x="671" unicode="ư"/>
			<glyph d="M302 680Q353 680 399 667T474 635V457Q451 498 399 529T294 561Q208 561 208 505Q208 482 228 463T333 407Q415 370 448 342T501 278T521 193Q521 96 447 41T252 -14Q134 -14 43 35V246Q113 107 252 107Q296 107 324 123T352 168Q352 194 328 215T236 267Q126 315 86 362T46 472Q46 566 116 623T302 680ZM277 -34Q298 -34 314 -50T330 -96Q330 -130 303 -159Q277 -188 234 -194Q252 -185 264 -164T276 -124Q251 -123 239 -110T227 -81Q227 -64 240 -49T277 -34Z"
				   horiz-adv-x="560" unicode="Ș"/>
			<glyph d="M231 486Q302 486 359 459V312Q342 337 306 357T232 378Q185 378 185 349Q185 336 197 325T239 302Q333 261 363 226T394 139Q394 66 339 25T197 -15Q150 -15 104 -4T36 26V185Q58 146 99 118T194 91Q249 91 249 121Q249 135 235 146T181 175Q101 212 71 245T42 331Q42 402 91 444T231 486ZM217 -34Q238 -34 254 -50T270 -96Q270 -130 243 -159Q217 -188 174 -194Q192 -185 204 -164T216 -124Q191 -123 179 -110T167 -81Q167 -64 180 -49T217 -34Z"
				   horiz-adv-x="418" unicode="ș"/>
			<glyph d="M40 666H628L645 460Q623 517 592 536T516 555H422V122Q422 66 438 34T477 0H191Q216 4 230 36T245 122V555H127Q102 555 84 545T54 520T23 460H22ZM337 -34Q358 -34 374 -50T390 -96Q390 -130 363 -159Q337 -188 294 -194Q312 -185 324 -164T336 -124Q311 -123 299 -110T287 -81Q287 -64 300 -49T337 -34Z"
				   horiz-adv-x="666" unicode="Ț"/>
			<glyph d="M221 617V465H349V366H221V159Q221 100 274 100Q300 100 326 114T363 147Q345 -16 202 -16Q135 -16 100 19T66 106V366H-3ZM189 -34Q210 -34 226 -50T242 -96Q242 -130 215 -159Q189 -188 146 -194Q164 -185 176 -164T188 -124Q163 -123 151 -110T139 -81Q139 -64 152 -49T189 -34Z"
				   horiz-adv-x="379" unicode="ț"/>
			<glyph d="M251 703L403 501L251 570L102 501Z" horiz-adv-x="506" unicode="ˆ"/>
			<glyph d="M87 703L239 634L388 703L239 502Z" horiz-adv-x="506" unicode="ˇ"/>
			<glyph d="M123 701Q145 663 180 644T253 626Q335 626 385 701Q384 619 345 574T253 529Q198 529 160 576T123 701Z"
				   horiz-adv-x="506" unicode="˘"/>
			<glyph d="M253 680Q286 680 307 660T328 610Q328 579 307 558T253 538Q219 538 198 558T178 610Q178 640 198 660T253 680Z"
				   horiz-adv-x="506" unicode="˙"/>
			<glyph d="M233 709Q279 709 307 680T336 608Q336 561 306 533T233 505Q187 505 158 534T130 608Q130 652 159 680T233 709ZM233 660Q213 660 197 647T182 608Q182 582 197 568T233 554Q252 554 267 567Q282 581 282 608Q282 635 267 647T233 660Z"
				   horiz-adv-x="506" unicode="˚"/>
			<glyph d="M209 0H299Q269 -11 255 -30T242 -67Q242 -89 257 -103T298 -117Q324 -117 356 -99Q344 -141 312 -163T247 -185Q206 -185 178 -160T151 -96Q151 -70 167 -43T209 0Z"
				   horiz-adv-x="506" unicode="˛"/>
			<glyph d="M387 697Q416 667 416 628Q416 592 389 565T322 538Q288 538 239 565Q191 592 164 592Q117 593 118 525Q87 557 87 597Q87 631 111 656T177 681Q213 681 266 655T341 629Q368 629 378 647T387 697Z"
				   horiz-adv-x="506" unicode="˜"/>
			<glyph d="M313 666H487L262 501ZM104 666H278L54 501Z" horiz-adv-x="506" unicode="˝"/>
			<glyph d="M-117 666H77L119 501Z" horiz-adv-x="0" unicode="̀"/>
			<glyph d="M-77 666H117L-115 501Z" horiz-adv-x="0" unicode="́"/>
			<glyph d="M1 703L153 501L1 570L-148 501Z" horiz-adv-x="0" unicode="̂"/>
			<glyph d="M140 697Q169 667 169 628Q169 592 142 565T75 538Q41 538 -8 565Q-56 592 -83 592Q-130 593 -129 525Q-160 557 -160 597Q-160 631 -135 656T-70 681Q-34 681 19 655T94 629Q121 629 131 647T140 697Z"
				   horiz-adv-x="0" unicode="̃"/>
			<glyph d="M-130 701Q-108 663 -73 644T0 626Q82 626 132 701Q131 619 92 574T0 529Q-55 529 -92 576T-130 701Z"
				   horiz-adv-x="0" unicode="̆"/>
			<glyph d="M0 720Q41 720 68 700T95 643Q95 617 83 600T57 574T31 555T20 537Q20 526 35 521Q25 516 8 516Q-14 516 -28 527T-42 559Q-42 573 -33 584T-14 603T4 619T13 637Q13 659 -13 660Q-46 660 -82 614V704Q-43 720 0 720Z"
				   horiz-adv-x="0" unicode="̉"/>
			<glyph d="M0 718Q31 718 52 695T74 638Q74 587 39 543T-53 474L-81 526Q-40 542 -22 579Q-76 597 -76 647Q-76 676 -55 697T0 718Z"
				   horiz-adv-x="0" unicode="̛"/>
			<glyph d="M1 -61Q34 -61 55 -81T76 -131Q76 -162 55 -182T1 -203Q-33 -203 -53 -182T-74 -131Q-74 -101 -53 -81T1 -61Z"
				   horiz-adv-x="0" unicode="̣"/>
			<glyph d="M147 472Q193 472 221 444T250 375Q250 333 221 305T147 278Q101 278 73 305T45 375Q45 417 73 444T147 472ZM142 179Q194 179 224 138T255 37Q255 -58 189 -122Q124 -187 21 -189Q66 -169 101 -121T136 -24Q136 -12 135 0Q128 -1 121 -1Q83 -1 63 23T44 80Q44 122 71 150T142 179Z"
				   horiz-adv-x="271" unicode=";"/>
			<glyph d="M175 681H341L196 491Z" horiz-adv-x="466" unicode="΄"/>
			<glyph d="M400 664Q431 664 449 646T467 601Q467 573 448 554T400 536Q369 536 351 554T333 601Q333 628 351 646T400 664ZM143 664Q174 664 192 646T210 601Q210 573 192 554Q174 536 143 536Q112 536 93 554T74 601Q74 628 93 646T143 664ZM231 752H387L250 571Z"
				   horiz-adv-x="542" unicode="΅"/>
			<glyph d="M307 666H457L680 131Q698 87 717 58T752 16T780 0H466Q482 2 494 15T506 52Q506 73 480 137H234Q214 73 214 57Q214 32 226 17T255 0H-1Q50 17 98 136ZM355 460L275 244H438ZM82 667H248L103 477Z"
				   unicode="Ά"/>
			<glyph d="M134 333Q180 333 208 305T237 236Q237 194 208 166T134 138Q88 138 60 166T32 236Q32 278 60 305T134 333Z"
				   horiz-adv-x="269" unicode="·"/>
			<glyph d="M97 666H589V460Q571 513 540 534T460 555H344V391H449Q514 391 531 425V245Q528 260 505 269T451 279H344V114H472Q532 114 567 136T633 213L597 0H109Q122 2 137 16T160 59T169 132V546Q169 588 157 613T130 651T97 666ZM-67 667H99L-46 477Z"
				   horiz-adv-x="656" unicode="Έ"/>
			<glyph d="M102 666H390Q378 664 365 650T343 612T335 544V391H591V544Q590 650 535 666H822Q798 662 783 630T768 544V122Q768 81 776 55T796 15T822 0H535Q549 2 561 15T582 53T591 122V279H335V122Q335 80 343 53T364 14T390 0H102Q115 2 128 14T149 53T158 122V544Q158 648 102 666ZM-67 667H99L-46 477Z"
				   horiz-adv-x="845" unicode="Ή"/>
			<glyph d="M103 666H388Q376 664 363 652T342 614T333 550V111Q333 74 341 50T361 14T387 0H103Q127 4 142 33T158 111V550Q158 648 103 666ZM-67 667H99L-46 477Z"
				   horiz-adv-x="415" unicode="Ί"/>
			<glyph d="M399 681Q546 681 637 587T729 344Q729 244 683 161Q638 78 557 31T373 -15Q224 -15 132 79T40 322Q40 422 85 504T213 634T399 681ZM372 557Q303 557 261 503T220 353Q220 237 266 174T398 112Q465 112 508 165T551 316Q551 427 504 492T372 557ZM-35 667H131L-14 477Z"
				   horiz-adv-x="769" unicode="Ό"/>
			<glyph d="M98 666H413Q397 663 387 652T378 624Q378 594 404 549L483 415Q568 555 579 582T590 625Q590 644 580 654T558 666H812L804 662Q764 640 703 540L543 279V122Q543 81 551 55T571 15T597 0H310Q324 2 336 15T357 53T366 122V273L211 541Q147 650 98 666ZM-67 667H99L-46 477Z"
				   horiz-adv-x="806" unicode="Ύ"/>
			<glyph d="M440 681Q589 681 678 592T767 365Q767 218 666 114H690Q752 114 781 130T837 193L826 0H440Q460 10 504 64T570 181T592 302Q592 422 543 489T413 557Q343 557 302 499T261 341Q261 253 285 186T345 70T412 0H31L20 193Q45 146 74 130T163 114H192Q91 207 91 347Q91 438 135 515T259 637T440 681ZM7 667H173L28 477Z"
				   horiz-adv-x="857" unicode="Ώ"/>
			<glyph d="M231 490V161Q231 100 277 100Q300 100 322 114T353 147Q342 63 301 23T203 -16Q140 -16 108 21T76 114V308Q76 405 12 405H-2ZM286 664Q317 664 335 646T353 601Q353 573 334 554T286 536Q255 536 237 554T219 601Q219 628 237 646T286 664ZM29 664Q60 664 78 646T96 601Q96 573 78 554Q60 536 29 536Q-2 536 -21 554T-40 601Q-40 628 -21 646T29 664ZM117 752H273L136 571Z"
				   horiz-adv-x="363" unicode="ΐ"/>
			<glyph d="M307 666H457L680 131Q698 87 717 58T752 16T780 0H466Q482 2 494 15T506 52Q506 73 480 137H234Q214 73 214 57Q214 32 226 17T255 0H-1Q50 17 98 136ZM355 460L275 244H438Z"
				   unicode="Α"/>
			<glyph d="M22 666H412Q500 666 553 619T606 504Q606 451 573 409T488 353Q553 342 595 295T638 182Q638 102 580 51T426 0H33Q47 2 58 15T78 56T87 128V541Q87 591 71 624T22 666ZM261 288V114H357Q410 114 432 138T455 197Q455 288 346 288ZM261 555V397H346Q382 397 403 419T424 480Q424 514 402 534T344 555Z"
				   horiz-adv-x="668" unicode="Β"/>
			<glyph d="M9 666H497V462Q476 516 444 535T367 555H253V118Q253 12 305 0H19Q78 15 78 123V549Q78 595 60 627T9 666Z"
				   horiz-adv-x="516" unicode="Γ"/>
			<glyph d="M307 666H457L734 0H45ZM355 460L226 113H490Z" unicode="Δ"/>
			<glyph d="M17 666H509V460Q491 513 460 534T380 555H264V391H369Q434 391 451 425V245Q448 260 425 269T371 279H264V114H392Q452 114 487 136T553 213L517 0H29Q42 2 57 16T80 59T89 132V546Q89 588 77 613T50 651T17 666Z"
				   horiz-adv-x="576" unicode="Ε"/>
			<glyph d="M39 666H586L281 114H450Q564 114 610 213L589 0H19L326 555H192Q146 555 119 547T75 525T39 459Z"
				   horiz-adv-x="634" unicode="Ζ"/>
			<glyph d="M22 666H310Q298 664 285 650T263 612T255 544V391H511V544Q510 650 455 666H742Q718 662 703 630T688 544V122Q688 81 696 55T716 15T742 0H455Q469 2 481 15T502 53T511 122V279H255V122Q255 80 263 53T284 14T310 0H22Q35 2 48 14T69 53T78 122V544Q78 648 22 666Z"
				   horiz-adv-x="765" unicode="Η"/>
			<glyph d="M409 681Q510 681 588 637T707 516T749 344Q749 190 646 87T383 -15Q230 -15 135 79T40 322Q40 421 87 504T218 634T409 681ZM381 557Q310 557 265 501T220 349Q220 239 267 175T409 112Q480 112 525 168T571 320Q571 430 520 493T381 557ZM277 422Q282 408 303 399T356 391H434Q465 391 486 399T513 422V246Q498 279 436 279H354Q319 279 299 269T277 246Z"
				   horiz-adv-x="789" unicode="Θ"/>
			<glyph d="M27 666H312Q300 664 287 652T266 614T257 550V111Q257 74 265 50T285 14T311 0H27Q51 4 66 33T82 111V550Q82 648 27 666Z"
				   horiz-adv-x="339" unicode="Ι"/>
			<glyph d="M22 666H309Q296 664 283 650T263 611T255 544V379L399 540Q457 605 457 639Q457 661 431 666H731Q718 664 693 651T637 611T565 542L413 370L594 130Q684 13 737 0H481L255 303V121Q255 82 263 54T283 14T309 0H22Q35 2 48 15T70 55T78 121V544Q78 647 22 666Z"
				   horiz-adv-x="749" unicode="Κ"/>
			<glyph d="M309 666H441L659 131Q681 77 708 41T760 0H447Q469 3 481 15T494 46Q494 61 476 101Q444 183 353 413L233 98Q221 66 221 49Q221 28 232 15T262 0H0Q49 13 100 136Z"
				   horiz-adv-x="758" unicode="Λ"/>
			<glyph d="M23 666H315L472 320L626 666H888Q874 664 860 650T838 611T830 547V124Q830 82 839 55T861 15T888 0H614Q628 3 639 16T657 55T665 124V459L448 -17L223 459V129Q223 76 240 41T291 0H28Q45 3 59 16T84 57T94 130V550Q94 651 23 666Z"
				   horiz-adv-x="915" unicode="Μ"/>
			<glyph d="M-6 666H249L529 328V547Q529 651 471 666H720Q695 661 680 630T666 547V0H529Q503 82 407 202L232 410V118Q232 65 251 34T296 0H42Q55 3 66 15T86 52T94 119V540Q94 613 -6 666Z"
				   horiz-adv-x="748" unicode="Ν"/>
			<glyph d="M20 213Q47 156 80 135T172 114H402Q461 114 493 134T554 213L518 0H56ZM67 666H507V476Q482 555 382 555H192Q92 555 67 476ZM449 422V246Q436 279 372 279H202Q136 279 125 246V421Q131 408 150 399T204 391H370Q397 391 417 397T449 422Z"
				   horiz-adv-x="574" unicode="Ξ"/>
			<glyph d="M399 681Q546 681 637 587T729 344Q729 244 683 161Q638 78 557 31T373 -15Q224 -15 132 79T40 322Q40 422 85 504T213 634T399 681ZM372 557Q303 557 261 503T220 353Q220 237 266 174T398 112Q465 112 508 165T551 316Q551 427 504 492T372 557Z"
				   horiz-adv-x="769" unicode="Ο"/>
			<glyph d="M23 666H721Q697 660 682 627T668 544V122Q668 71 682 37T720 0H444Q464 5 477 37T491 122V555H255V122Q255 11 300 0H25Q47 6 62 39T78 122V544Q78 579 72 602T56 640T23 666Z"
				   horiz-adv-x="745" unicode="Π"/>
			<glyph d="M23 666H345Q453 666 517 609T581 458Q581 357 513 295T331 234Q283 234 245 246V121Q245 78 254 53T278 15T309 0H23Q38 3 50 16T70 56T78 124V541Q78 648 23 666ZM245 555V358Q274 347 308 347Q354 347 377 376T401 456Q401 501 375 528T298 555Z"
				   horiz-adv-x="603" unicode="Ρ"/>
			<glyph d="M16 666H531V460Q504 555 400 555H275L406 355L233 124H419Q484 124 514 139T572 203L539 0H5L244 320Z"
				   horiz-adv-x="595" unicode="Σ"/>
			<glyph d="M40 666H628L645 460Q623 517 592 536T516 555H422V122Q422 66 438 34T477 0H191Q216 4 230 36T245 122V555H127Q102 555 84 545T54 520T23 460H22Z"
				   horiz-adv-x="666" unicode="Τ"/>
			<glyph d="M-5 666H310Q294 663 284 652T275 624Q275 594 301 549L380 415Q465 555 476 582T487 625Q487 644 477 654T455 666H709L701 662Q661 640 600 540L440 279V122Q440 81 448 55T468 15T494 0H207Q221 2 233 15T254 53T263 122V273L108 541Q44 650 -5 666Z"
				   horiz-adv-x="703" unicode="Υ"/>
			<glyph d="M289 682H541Q520 677 506 656T493 604V594Q628 585 710 516T793 342Q793 236 710 163T493 76V66Q493 33 505 11T540 -16H289Q336 -4 336 64V75Q197 88 116 156T36 327Q36 433 119 505T336 593V603Q336 663 289 682ZM493 479V187Q546 195 580 233T615 332Q615 450 493 479ZM336 481Q284 471 250 434T216 341Q216 277 249 238T336 188Z"
				   horiz-adv-x="829" unicode="Φ"/>
			<glyph d="M1 666H329Q316 663 306 652T296 624Q296 608 305 585T383 463L440 540Q481 596 481 628Q481 646 472 655T454 666H726Q710 663 673 630T599 543L457 348L601 133Q646 67 678 35T727 0H395Q410 3 420 13T430 43Q430 59 420 83T344 205Q276 102 263 78T251 40Q251 21 259 11T279 0H1Q22 3 59 37T143 139L269 322L123 540Q51 649 1 666Z"
				   horiz-adv-x="728" unicode="Χ"/>
			<glyph d="M23 666H275Q231 649 231 567V472Q231 325 356 316V570Q356 610 342 635T307 666H559Q513 648 513 568V317Q637 326 637 472V567Q637 606 627 630T593 666H846Q817 655 806 628T795 565V476Q795 349 723 278T513 197V96Q513 55 526 30T563 0H306Q330 5 343 31T356 96V198Q73 215 73 468V565Q73 601 62 628T23 666Z"
				   horiz-adv-x="867" unicode="Ψ"/>
			<glyph d="M440 681Q589 681 678 592T767 365Q767 218 666 114H690Q752 114 781 130T837 193L826 0H440Q460 10 504 64T570 181T592 302Q592 422 543 489T413 557Q343 557 302 499T261 341Q261 253 285 186T345 70T412 0H31L20 193Q45 146 74 130T163 114H192Q91 207 91 347Q91 438 135 515T259 637T440 681Z"
				   horiz-adv-x="857" unicode="Ω"/>
			<glyph d="M27 666H312Q300 664 287 652T266 614T257 550V111Q257 74 265 50T285 14T311 0H27Q51 4 66 33T82 111V550Q82 648 27 666ZM274 852Q309 852 329 832T349 782Q349 751 328 730T274 710Q240 710 220 730T200 782Q200 812 220 832T274 852ZM69 852Q103 852 123 832T143 782Q143 751 123 730Q103 710 69 710Q34 710 13 730T-8 782Q-8 812 13 832T69 852Z"
				   horiz-adv-x="339" unicode="Ϊ"/>
			<glyph d="M-5 666H310Q294 663 284 652T275 624Q275 594 301 549L380 415Q465 555 476 582T487 625Q487 644 477 654T455 666H709L701 662Q661 640 600 540L440 279V122Q440 81 448 55T468 15T494 0H207Q221 2 233 15T254 53T263 122V273L108 541Q44 650 -5 666ZM465 852Q500 852 520 832T540 782Q540 751 519 730T465 710Q431 710 411 730T391 782Q391 812 411 832T465 852ZM260 852Q294 852 314 832T334 782Q334 751 314 730Q294 710 260 710Q225 710 204 730T183 782Q183 812 204 832T260 852Z"
				   horiz-adv-x="703" unicode="Ϋ"/>
			<glyph d="M451 494L579 404Q515 389 488 274L477 226L487 175Q510 65 583 65L455 -21Q394 -6 368 79Q313 -14 219 -14Q138 -14 86 46T34 210Q34 330 99 407T253 485Q301 485 336 454T382 369Q389 408 409 445T451 494ZM272 378Q239 378 218 340T197 242Q197 181 215 141T271 102Q296 102 317 130T344 204Q334 311 317 344T272 378ZM252 681H418L273 491Z"
				   horiz-adv-x="583" unicode="ά"/>
			<glyph d="M251 485Q328 485 402 463V313Q342 391 262 391Q229 391 210 376T191 337Q191 279 284 279H335V192H287Q191 192 191 141Q191 117 215 103T277 89Q322 89 363 108T432 158Q419 75 364 30T223 -15Q138 -15 83 23T28 122Q28 216 140 248Q97 256 69 285T41 352Q41 412 97 448T251 485ZM188 681H354L209 491Z"
				   horiz-adv-x="450" unicode="έ"/>
			<glyph d="M128 494Q162 483 181 458T208 411Q233 443 273 464T356 485Q512 485 512 312V-64Q512 -113 526 -144T564 -181H355V280Q355 368 296 368Q263 368 242 345T222 280V0H67V306Q67 399 -13 404ZM228 681H394L249 491Z"
				   horiz-adv-x="577" unicode="ή"/>
			<glyph d="M231 490V161Q231 100 277 100Q300 100 322 114T353 147Q342 63 301 23T203 -16Q140 -16 108 21T76 114V308Q76 405 12 405H-2ZM96 681H262L117 491Z"
				   horiz-adv-x="363" unicode="ί"/>
			<glyph d="M128 494Q173 480 197 437T222 330V197Q222 97 291 97Q332 97 355 140T379 268Q379 345 359 396T302 448Q340 493 405 493Q465 493 501 438T538 285Q538 147 468 66T282 -15Q183 -15 125 36T67 182V303Q67 351 48 376T-13 404ZM410 664Q441 664 459 646T477 601Q477 573 458 554T410 536Q379 536 361 554T343 601Q343 628 361 646T410 664ZM153 664Q184 664 202 646T220 601Q220 573 202 554Q184 536 153 536Q122 536 103 554T84 601Q84 628 103 646T153 664ZM241 752H397L260 571Z"
				   horiz-adv-x="578" unicode="ΰ"/>
			<glyph d="M451 494L579 404Q515 389 488 274L477 226L487 175Q510 65 583 65L455 -21Q394 -6 368 79Q313 -14 219 -14Q138 -14 86 46T34 210Q34 330 99 407T253 485Q301 485 336 454T382 369Q389 408 409 445T451 494ZM272 378Q239 378 218 340T197 242Q197 181 215 141T271 102Q296 102 317 130T344 204Q334 311 317 344T272 378Z"
				   horiz-adv-x="583" unicode="α"/>
			<glyph d="M317 698Q411 698 470 652T529 532Q529 435 427 367Q485 341 516 296T547 195Q547 102 482 44T325 -13Q262 -13 220 18V-181H24Q41 -178 54 -154T67 -88V457Q67 573 131 635T317 698ZM308 593Q266 593 243 560T220 470V176Q220 135 241 114T301 93Q341 93 362 118T383 184Q383 251 306 301L258 332L316 386Q377 445 377 514Q377 546 358 569T308 593Z"
				   horiz-adv-x="581" unicode="β"/>
			<glyph d="M423 490Q465 490 487 464T509 407Q509 359 466 281L394 138Q370 92 359 40T349 -112V-181H179Q181 -76 209 12Q177 120 142 214T68 383T-2 468H195Q254 364 295 211L342 307Q366 360 366 389Q366 406 359 419T340 432L331 431Q342 457 366 473T423 490Z"
				   horiz-adv-x="549" unicode="γ"/>
			<glyph d="M336 698Q422 698 479 656T541 553L402 491Q406 502 406 515Q406 545 382 566T322 587Q281 587 261 569T242 534Q242 505 276 482T377 421Q476 362 511 312T546 203Q546 105 474 44T289 -16Q175 -16 104 41T33 192Q33 323 187 397Q144 424 119 459T95 532Q95 609 161 653T336 698ZM263 342Q190 291 190 212Q190 162 220 129T293 96Q336 96 361 122T386 194Q386 219 376 240T346 281T263 342Z"
				   horiz-adv-x="581" unicode="δ"/>
			<glyph d="M251 485Q328 485 402 463V313Q342 391 262 391Q229 391 210 376T191 337Q191 279 284 279H335V192H287Q191 192 191 141Q191 117 215 103T277 89Q322 89 363 108T432 158Q419 75 364 30T223 -15Q138 -15 83 23T28 122Q28 216 140 248Q97 256 69 285T41 352Q41 412 97 448T251 485Z"
				   horiz-adv-x="450" unicode="ε"/>
			<glyph d="M47 683H478L256 382Q187 292 187 222Q187 187 203 160T269 109Q357 67 386 45T429 -1T442 -59Q442 -112 398 -150T280 -195Q324 -163 324 -116Q324 -86 305 -67T202 -12Q110 26 72 74T34 191Q34 221 46 253T81 324T262 571H157Q114 571 85 547T47 485Z"
				   horiz-adv-x="464" unicode="ζ"/>
			<glyph d="M128 494Q162 483 181 458T208 411Q233 443 273 464T356 485Q512 485 512 312V-64Q512 -113 526 -144T564 -181H355V280Q355 368 296 368Q263 368 242 345T222 280V0H67V306Q67 399 -13 404Z"
				   horiz-adv-x="577" unicode="η"/>
			<glyph d="M293 694Q413 694 480 603T547 357Q547 193 474 89Q402 -15 284 -15Q169 -15 101 77T34 328Q34 436 68 519T161 648T293 694ZM282 583Q245 583 218 533T188 384H387Q381 470 352 526T282 583ZM191 297Q197 210 227 153T298 97Q333 97 359 147T389 297Z"
				   horiz-adv-x="581" unicode="θ"/>
			<glyph d="M231 490V161Q231 100 277 100Q300 100 322 114T353 147Q342 63 301 23T203 -16Q140 -16 108 21T76 114V308Q76 405 12 405H-2Z"
				   horiz-adv-x="363" unicode="ι"/>
			<glyph d="M222 490V227L252 273L302 353Q342 424 375 452T450 481Q498 481 530 448T569 351Q549 371 516 371Q488 371 454 347T364 254L485 118Q577 14 626 14Q582 -13 494 -13Q452 -13 421 -2T358 35T261 146L222 97V0H67V312Q67 405 10 405H-2Z"
				   horiz-adv-x="610" unicode="κ"/>
			<glyph d="M204 698Q225 686 243 663T280 604T355 435L490 94Q522 13 562 0H393L301 251L193 0H-2Q31 8 68 89L230 442Q204 506 178 538T123 589T63 608Z"
				   horiz-adv-x="561" unicode="λ"/>
			<glyph d="M65 468H222V186Q222 102 285 102Q318 102 336 125T355 191V468H510V156Q510 65 584 65L459 -20Q427 -15 403 5T369 53Q330 -15 276 -15Q243 -15 222 4V-181H-6Q27 -174 46 -144T65 -67Z"
				   horiz-adv-x="577" unicode="μ"/>
			<glyph d="M423 490Q461 490 485 467T509 409Q509 381 499 352T381 113Q351 55 332 0H226L72 377Q59 408 38 435T-2 468H195L295 211L345 314Q366 359 366 390Q366 408 358 420T339 432Q334 432 331 431Q342 456 366 473T423 490Z"
				   horiz-adv-x="549" unicode="ν"/>
			<glyph d="M284 698Q368 698 423 658T486 553L347 491Q351 501 351 515Q351 545 330 566T276 587Q234 587 212 562T191 502Q191 447 231 415T340 384H404V287H333Q271 287 231 267T191 208Q191 179 211 158T284 113Q397 61 430 25T464 -59Q464 -112 420 -150T302 -195Q346 -163 346 -116Q346 -86 325 -66T225 -12Q119 33 76 79T34 188Q34 306 183 344Q48 390 48 507Q48 594 113 646T284 698Z"
				   horiz-adv-x="486" unicode="ξ"/>
			<glyph d="M293 485Q408 485 477 420T547 247Q547 130 474 57T284 -15Q172 -15 103 49T34 227Q34 343 109 414T293 485ZM282 374Q244 374 217 340T191 249Q191 186 222 141T298 97Q336 97 361 132T387 227Q387 288 356 331T282 374Z"
				   horiz-adv-x="581" unicode="ο"/>
			<glyph d="M639 478V371Q611 364 560 364Q541 363 508 365V164Q508 100 561 100Q581 100 601 110T629 135Q615 -16 489 -16Q426 -16 389 19T353 113V370L266 373V195Q266 98 245 48T172 -21L31 69Q65 69 96 96T146 170T165 277V374H156Q53 373 29 275Q10 302 10 341Q10 403 48 439T161 475Q228 475 359 469T545 463Q605 463 639 478Z"
				   horiz-adv-x="657" unicode="π"/>
			<glyph d="M304 485Q409 485 472 422T535 254Q535 134 469 62T304 -10Q250 -10 220 7V-181H19Q39 -178 52 -146T65 -60V239Q65 329 96 381T181 459T304 485ZM291 374Q259 374 239 344T219 255V158Q219 97 281 97Q323 97 346 131T369 230Q369 297 346 335T291 374Z"
				   horiz-adv-x="569" unicode="ρ"/>
			<glyph d="M280 485Q350 485 398 440T451 320L307 264Q315 282 315 304Q315 336 300 355T259 374Q223 374 202 339T182 249Q182 194 202 163T272 109Q360 67 389 45T432 -1T445 -59Q445 -112 401 -150T283 -195Q327 -163 327 -116Q327 -85 306 -66T205 -12Q126 22 80 75T34 215Q34 331 103 408T280 485Z"
				   horiz-adv-x="481" unicode="ς"/>
			<glyph d="M580 478V371Q550 364 491 364H472Q530 303 530 220Q530 121 459 53T279 -15Q172 -15 103 51T34 221Q34 330 104 401T291 472Q329 472 384 467T489 463Q544 463 580 478ZM297 371Q249 371 220 335T191 240Q191 178 216 137T284 97Q325 97 349 134T374 231Q374 309 349 369Z"
				   horiz-adv-x="588" unicode="σ"/>
			<glyph d="M464 478V371Q434 364 381 364Q347 364 312 367V160Q312 100 365 100Q391 100 417 114T454 147Q436 -16 293 -16Q226 -16 191 19T157 106V371H147Q52 371 29 275Q10 303 10 341Q10 401 46 436T143 472Q202 472 267 467T382 463Q431 463 464 478Z"
				   horiz-adv-x="482" unicode="τ"/>
			<glyph d="M128 494Q173 480 197 437T222 330V197Q222 97 291 97Q332 97 355 140T379 268Q379 345 359 396T302 448Q340 493 405 493Q465 493 501 438T538 285Q538 147 468 66T282 -15Q183 -15 125 36T67 182V303Q67 351 48 376T-13 404Z"
				   horiz-adv-x="578" unicode="υ"/>
			<glyph d="M197 485Q229 485 254 472T289 440Q244 432 217 386T190 271Q190 111 306 85V260Q306 365 365 425T528 485Q623 485 681 426T740 271Q740 149 669 73T458 -20V-86Q458 -126 469 -151T501 -181H306V-19Q171 -3 102 68T34 260Q34 366 77 425T197 485ZM519 374Q458 374 458 254V85Q584 118 584 257Q584 317 565 345T519 374Z"
				   horiz-adv-x="774" unicode="φ"/>
			<glyph d="M412 490Q446 490 471 468T497 409Q497 375 478 337T432 255L359 138L471 -86Q516 -173 552 -181H349L258 13L152 -181H-21Q18 -169 67 -88L192 132L79 371Q36 460 -2 468H195L297 247L333 316Q354 356 354 390Q354 409 346 420T328 432Q323 432 319 431Q330 457 355 473T412 490Z"
				   horiz-adv-x="537" unicode="χ"/>
			<glyph d="M261 666H457V95Q561 136 561 298Q561 365 544 406T501 448Q539 493 598 493Q653 493 684 445T716 315Q716 178 649 90T457 -18V-65Q457 -115 471 -145T508 -181H305V-20Q186 -5 121 62T57 237V303Q57 399 -13 404L124 494Q209 458 209 330V238Q209 131 305 96V557Q305 612 293 635T261 666Z"
				   horiz-adv-x="756" unicode="ψ"/>
			<glyph d="M199 485Q228 485 253 472T291 440Q248 440 219 392T191 269Q191 181 214 139T269 97Q317 97 317 183V300H469V180Q469 98 522 97Q595 97 595 267Q595 346 566 393T495 440Q509 460 539 472T597 485Q672 485 711 430T751 276Q751 144 690 64T535 -15Q437 -15 387 56Q338 -15 244 -15Q149 -15 92 58T35 256Q35 364 80 424T199 485Z"
				   horiz-adv-x="786" unicode="ω"/>
			<glyph d="M231 490V161Q231 100 277 100Q300 100 322 114T353 147Q342 63 301 23T203 -16Q140 -16 108 21T76 114V308Q76 405 12 405H-2ZM260 678Q295 678 315 658T335 608Q335 577 314 556T260 536Q226 536 206 556T186 608Q186 638 206 658T260 678ZM55 678Q89 678 109 658T129 608Q129 577 109 556Q89 536 55 536Q20 536 -1 556T-22 608Q-22 638 -1 658T55 678Z"
				   horiz-adv-x="363" unicode="ϊ"/>
			<glyph d="M128 494Q173 480 197 437T222 330V197Q222 97 291 97Q332 97 355 140T379 268Q379 345 359 396T302 448Q340 493 405 493Q465 493 501 438T538 285Q538 147 468 66T282 -15Q183 -15 125 36T67 182V303Q67 351 48 376T-13 404ZM388 678Q423 678 443 658T463 608Q463 577 442 556T388 536Q354 536 334 556T314 608Q314 638 334 658T388 678ZM183 678Q217 678 237 658T257 608Q257 577 237 556Q217 536 183 536Q148 536 127 556T106 608Q106 638 127 658T183 678Z"
				   horiz-adv-x="578" unicode="ϋ"/>
			<glyph d="M293 485Q408 485 477 420T547 247Q547 130 474 57T284 -15Q172 -15 103 49T34 227Q34 343 109 414T293 485ZM282 374Q244 374 217 340T191 249Q191 186 222 141T298 97Q336 97 361 132T387 227Q387 288 356 331T282 374ZM241 681H407L262 491Z"
				   horiz-adv-x="581" unicode="ό"/>
			<glyph d="M128 494Q173 480 197 437T222 330V197Q222 97 291 97Q332 97 355 140T379 268Q379 345 359 396T302 448Q340 493 405 493Q465 493 501 438T538 285Q538 147 468 66T282 -15Q183 -15 125 36T67 182V303Q67 351 48 376T-13 404ZM240 681H406L261 491Z"
				   horiz-adv-x="578" unicode="ύ"/>
			<glyph d="M199 485Q228 485 253 472T291 440Q248 440 219 392T191 269Q191 181 214 139T269 97Q317 97 317 183V300H469V180Q469 98 522 97Q595 97 595 267Q595 346 566 393T495 440Q509 460 539 472T597 485Q672 485 711 430T751 276Q751 144 690 64T535 -15Q437 -15 387 56Q338 -15 244 -15Q149 -15 92 58T35 256Q35 364 80 424T199 485ZM353 681H519L374 491Z"
				   horiz-adv-x="786" unicode="ώ"/>
			<glyph d="M17 666H509V460Q491 513 460 534T380 555H264V391H369Q434 391 451 425V245Q448 260 425 269T371 279H264V114H392Q452 114 487 136T553 213L517 0H29Q42 2 57 16T80 59T89 132V546Q89 588 77 613T50 651T17 666ZM130 860H324L366 695Z"
				   horiz-adv-x="576" unicode="Ѐ"/>
			<glyph d="M17 666H509V460Q491 513 460 534T380 555H264V391H369Q434 391 451 425V245Q448 260 425 269T371 279H264V114H392Q452 114 487 136T553 213L517 0H29Q42 2 57 16T80 59T89 132V546Q89 588 77 613T50 651T17 666ZM376 852Q411 852 431 832T451 782Q451 751 430 730T376 710Q342 710 322 730T302 782Q302 812 322 832T376 852ZM171 852Q205 852 225 832T245 782Q245 751 225 730Q205 710 171 710Q136 710 115 730T94 782Q94 812 115 832T171 852Z"
				   horiz-adv-x="576" unicode="Ё"/>
			<glyph d="M40 666H643L660 460Q639 516 607 535T531 555H422V409Q480 431 568 431Q674 431 736 368T799 198Q799 92 726 26T529 -40Q616 36 616 171Q616 245 582 282T499 320Q459 320 422 309V122Q422 71 435 38T474 0H193Q217 5 231 35T245 122V555H127Q93 555 68 534T22 460Z"
				   horiz-adv-x="833" unicode="Ђ"/>
			<glyph d="M9 666H497V462Q476 516 444 535T367 555H253V118Q253 12 305 0H19Q78 15 78 123V549Q78 595 60 627T9 666ZM239 860H433L201 695Z"
				   horiz-adv-x="516" unicode="Ѓ"/>
			<glyph d="M408 681Q516 681 590 643V435Q565 490 516 523T401 557Q336 557 287 512T224 391H399Q428 391 448 398T481 423V245Q478 260 455 269T401 279H225Q233 207 284 160T402 114Q456 114 510 141T602 218V78Q568 38 507 11T382 -15Q223 -15 131 77T40 319Q40 422 85 504T213 634T408 681Z"
				   horiz-adv-x="638" unicode="Є"/>
			<glyph d="M302 680Q353 680 399 667T474 635V457Q451 498 399 529T294 561Q208 561 208 505Q208 482 228 463T333 407Q415 370 448 342T501 278T521 193Q521 96 447 41T252 -14Q134 -14 43 35V246Q113 107 252 107Q296 107 324 123T352 168Q352 194 328 215T236 267Q126 315 86 362T46 472Q46 566 116 623T302 680Z"
				   horiz-adv-x="560" unicode="Ѕ"/>
			<glyph d="M27 666H312Q300 664 287 652T266 614T257 550V111Q257 74 265 50T285 14T311 0H27Q51 4 66 33T82 111V550Q82 648 27 666Z"
				   horiz-adv-x="339" unicode="І"/>
			<glyph d="M27 666H312Q300 664 287 652T266 614T257 550V111Q257 74 265 50T285 14T311 0H27Q51 4 66 33T82 111V550Q82 648 27 666ZM274 852Q309 852 329 832T349 782Q349 751 328 730T274 710Q240 710 220 730T200 782Q200 812 220 832T274 852ZM69 852Q103 852 123 832T143 782Q143 751 123 730Q103 710 69 710Q34 710 13 730T-8 782Q-8 812 13 832T69 852Z"
				   horiz-adv-x="339" unicode="Ї"/>
			<glyph d="M42 666H332Q308 661 293 631T278 550V116Q278 18 234 -34T106 -87Q62 -87 24 -69T-36 -21Q-19 -26 -1 -26Q44 -26 73 14T102 136V552Q102 651 42 666Z"
				   horiz-adv-x="359" unicode="Ј"/>
			<glyph d="M309 666H441L547 402H720Q830 402 894 349T959 210Q959 117 891 58T708 0H448Q494 9 494 46Q494 61 476 102Q431 214 353 413L233 98Q221 66 221 49Q221 27 233 14T262 0H0Q24 5 50 41T100 136ZM592 291L665 111H678Q728 111 753 137T779 201Q779 239 754 265T674 291Z"
				   horiz-adv-x="993" unicode="Љ"/>
			<glyph d="M23 666H297Q273 661 259 626T245 544V391H481V551Q481 595 467 626T427 666H710Q682 659 665 627T648 550V402H740Q850 402 914 349T979 210Q979 117 911 58T728 0H427Q453 7 467 40T481 124V279H245V122Q245 71 258 38T296 0H23Q49 5 63 37T78 122V544Q78 596 63 628T23 666ZM648 291V111H698Q748 111 773 137T799 201Q799 239 774 265T692 291Z"
				   horiz-adv-x="1013" unicode="Њ"/>
			<glyph d="M40 666H643L660 460Q638 516 607 535T531 555H422V409Q486 431 554 431Q672 431 729 374T787 200V101Q787 61 798 33T832 0H566Q610 13 610 99V196Q610 256 579 288T498 320Q458 320 422 309V122Q422 69 435 36T473 0H194Q219 6 232 38T245 122V555H127Q93 555 68 534T22 460Z"
				   horiz-adv-x="854" unicode="Ћ"/>
			<glyph d="M22 666H309Q296 664 283 650T263 611T255 544V379L399 540Q457 605 457 639Q457 661 431 666H731Q718 664 693 651T637 611T565 542L413 370L594 130Q684 13 737 0H481L255 303V121Q255 82 263 54T283 14T309 0H22Q35 2 48 15T70 55T78 121V544Q78 647 22 666ZM341 860H535L303 695Z"
				   horiz-adv-x="749" unicode="Ќ"/>
			<glyph d="M22 666H307Q283 660 268 627T254 544V274L512 554Q512 600 497 629T456 666H740Q688 650 688 544V122Q688 67 703 35T741 0H457Q484 7 498 39T512 122V392L254 112Q254 65 267 36T307 0H23Q50 7 64 39T78 122V544Q78 595 63 627T22 666ZM196 860H390L432 695Z"
				   horiz-adv-x="765" unicode="Ѝ"/>
			<glyph d="M-3 666H321Q277 656 276 621Q276 600 292 568L404 347L516 572Q528 596 528 620Q528 657 490 666H763Q724 660 666 551L452 146Q403 54 345 14T208 -25Q140 -25 102 0L103 184Q139 113 207 113Q261 113 296 168L100 555Q74 606 45 633T-3 666ZM323 871Q327 831 345 805T394 780Q424 780 441 806T462 871L570 844Q558 779 510 741T390 703Q318 703 270 741T212 844Z"
				   horiz-adv-x="758" unicode="Ў"/>
			<glyph d="M25 666H300Q279 662 267 630T255 544V114H491V544Q491 595 477 628T444 666H720Q696 661 682 628T668 544V122Q668 70 681 37T719 0H523Q477 0 437 -48T377 -181H368Q347 -98 306 -49T213 0H24Q49 6 63 39T78 122V544Q78 593 62 626T25 666Z"
				   horiz-adv-x="745" unicode="Џ"/>
			<glyph d="M307 666H457L680 131Q698 87 717 58T752 16T780 0H466Q482 2 494 15T506 52Q506 73 480 137H234Q214 73 214 57Q214 32 226 17T255 0H-1Q50 17 98 136ZM355 460L275 244H438Z"
				   unicode="А"/>
			<glyph d="M24 666H538V460Q520 513 489 534T409 555H245V411H342Q451 411 516 357T581 216Q581 122 510 61T330 0H25Q50 6 64 39T78 124V551Q78 651 24 666ZM245 300V111H300Q345 111 373 138T401 207Q401 249 373 274T296 300Z"
				   horiz-adv-x="615" unicode="Б"/>
			<glyph d="M22 666H412Q500 666 553 619T606 504Q606 451 573 409T488 353Q553 342 595 295T638 182Q638 102 580 51T426 0H33Q47 2 58 15T78 56T87 128V541Q87 591 71 624T22 666ZM261 288V114H357Q410 114 432 138T455 197Q455 288 346 288ZM261 555V397H346Q382 397 403 419T424 480Q424 514 402 534T344 555Z"
				   horiz-adv-x="668" unicode="В"/>
			<glyph d="M9 666H497V462Q476 516 444 535T367 555H253V118Q253 12 305 0H19Q78 15 78 123V549Q78 595 60 627T9 666Z"
				   horiz-adv-x="516" unicode="Г"/>
			<glyph d="M307 666H456L676 138Q681 127 687 120T712 114H742V-181H733Q722 -139 695 -96T632 -26T553 0H225Q183 0 145 -27T81 -99T45 -181H36V114H62Q82 114 87 120T97 136ZM354 460L225 114H489Z"
				   horiz-adv-x="776" unicode="Д"/>
			<glyph d="M17 666H509V460Q491 513 460 534T380 555H264V391H369Q434 391 451 425V245Q448 260 425 269T371 279H264V114H392Q452 114 487 136T553 213L517 0H29Q42 2 57 16T80 59T89 132V546Q89 588 77 613T50 651T17 666Z"
				   horiz-adv-x="576" unicode="Е"/>
			<glyph d="M14 666H296Q272 659 272 639Q272 606 326 540L463 369V544Q463 595 448 627T410 666H680Q630 649 630 534V369L767 540Q821 606 821 639Q821 654 811 659T797 666H1078Q1047 658 1005 624T924 542L777 365L954 130Q996 75 1032 40T1087 0H844L630 296V121Q630 80 637 54T656 15T680 0H411Q436 6 449 38T463 121V296L249 0H6Q23 4 59 38T139 130L316 365L169 542Q80 649 14 666Z"
				   horiz-adv-x="1093" unicode="Ж"/>
			<glyph d="M290 682Q396 682 463 636T531 513Q531 444 490 401T387 343Q457 329 500 287T543 184Q543 93 467 39T269 -15Q116 -15 40 38V228Q98 114 243 114Q297 114 328 134T360 189Q360 229 317 251T161 279V391H222Q285 391 317 415T350 485Q350 519 322 538T246 558Q187 558 137 523T62 435V643Q151 682 290 682Z"
				   horiz-adv-x="573" unicode="З"/>
			<glyph d="M22 666H307Q283 660 268 627T254 544V274L512 554Q512 600 497 629T456 666H740Q688 650 688 544V122Q688 67 703 35T741 0H457Q484 7 498 39T512 122V392L254 112Q254 65 267 36T307 0H23Q50 7 64 39T78 122V544Q78 595 63 627T22 666Z"
				   horiz-adv-x="765" unicode="И"/>
			<glyph d="M22 666H307Q283 660 268 627T254 544V274L512 554Q512 600 497 629T456 666H740Q688 650 688 544V122Q688 67 703 35T741 0H457Q484 7 498 39T512 122V392L254 112Q254 65 267 36T307 0H23Q50 7 64 39T78 122V544Q78 595 63 627T22 666ZM313 871Q317 831 335 805T384 780Q414 780 431 806T452 871L560 844Q548 779 500 741T380 703Q308 703 260 741T202 844Z"
				   horiz-adv-x="765" unicode="Й"/>
			<glyph d="M22 666H309Q296 664 283 650T263 611T255 544V379L399 540Q457 605 457 639Q457 661 431 666H731Q718 664 693 651T637 611T565 542L413 370L594 130Q684 13 737 0H481L255 303V121Q255 82 263 54T283 14T309 0H22Q35 2 48 15T70 55T78 121V544Q78 647 22 666Z"
				   horiz-adv-x="749" unicode="К"/>
			<glyph d="M309 666H441L659 131Q681 77 708 41T760 0H447Q469 3 481 15T494 46Q494 61 476 101Q444 183 353 413L233 98Q221 66 221 49Q221 28 232 15T262 0H0Q49 13 100 136Z"
				   horiz-adv-x="758" unicode="Л"/>
			<glyph d="M23 666H315L472 320L626 666H888Q874 664 860 650T838 611T830 547V124Q830 82 839 55T861 15T888 0H614Q628 3 639 16T657 55T665 124V459L448 -17L223 459V129Q223 76 240 41T291 0H28Q45 3 59 16T84 57T94 130V550Q94 651 23 666Z"
				   horiz-adv-x="915" unicode="М"/>
			<glyph d="M22 666H310Q298 664 285 650T263 612T255 544V391H511V544Q510 650 455 666H742Q718 662 703 630T688 544V122Q688 81 696 55T716 15T742 0H455Q469 2 481 15T502 53T511 122V279H255V122Q255 80 263 53T284 14T310 0H22Q35 2 48 14T69 53T78 122V544Q78 648 22 666Z"
				   horiz-adv-x="765" unicode="Н"/>
			<glyph d="M399 681Q546 681 637 587T729 344Q729 244 683 161Q638 78 557 31T373 -15Q224 -15 132 79T40 322Q40 422 85 504T213 634T399 681ZM372 557Q303 557 261 503T220 353Q220 237 266 174T398 112Q465 112 508 165T551 316Q551 427 504 492T372 557Z"
				   horiz-adv-x="769" unicode="О"/>
			<glyph d="M23 666H721Q697 660 682 627T668 544V122Q668 71 682 37T720 0H444Q464 5 477 37T491 122V555H255V122Q255 11 300 0H25Q47 6 62 39T78 122V544Q78 579 72 602T56 640T23 666Z"
				   horiz-adv-x="745" unicode="П"/>
			<glyph d="M23 666H345Q453 666 517 609T581 458Q581 357 513 295T331 234Q283 234 245 246V121Q245 78 254 53T278 15T309 0H23Q38 3 50 16T70 56T78 124V541Q78 648 23 666ZM245 555V358Q274 347 308 347Q354 347 377 376T401 456Q401 501 375 528T298 555Z"
				   horiz-adv-x="603" unicode="Р"/>
			<glyph d="M408 681Q514 681 590 643V435Q565 490 516 523T401 557Q324 557 273 496T223 339Q223 236 273 175T402 114Q456 114 510 141T602 218V78Q568 38 507 11T382 -15Q223 -15 131 77T40 319Q40 422 85 504T213 634T408 681Z"
				   horiz-adv-x="638" unicode="С"/>
			<glyph d="M40 666H628L645 460Q623 517 592 536T516 555H422V122Q422 66 438 34T477 0H191Q216 4 230 36T245 122V555H127Q102 555 84 545T54 520T23 460H22Z"
				   horiz-adv-x="666" unicode="Т"/>
			<glyph d="M-3 666H321Q277 656 276 621Q276 600 292 568L404 347L516 572Q528 596 528 620Q528 657 490 666H763Q724 660 666 551L452 146Q403 54 345 14T208 -25Q140 -25 102 0L103 184Q139 113 207 113Q261 113 296 168L100 555Q74 606 45 633T-3 666Z"
				   horiz-adv-x="758" unicode="У"/>
			<glyph d="M289 682H541Q520 677 506 656T493 604V594Q628 585 710 516T793 342Q793 236 710 163T493 76V66Q493 33 505 11T540 -16H289Q336 -4 336 64V75Q197 88 116 156T36 327Q36 433 119 505T336 593V603Q336 663 289 682ZM493 479V187Q546 195 580 233T615 332Q615 450 493 479ZM336 481Q284 471 250 434T216 341Q216 277 249 238T336 188Z"
				   horiz-adv-x="829" unicode="Ф"/>
			<glyph d="M1 666H329Q316 663 306 652T296 624Q296 608 305 585T383 463L440 540Q481 596 481 628Q481 646 472 655T454 666H726Q710 663 673 630T599 543L457 348L601 133Q646 67 678 35T727 0H395Q410 3 420 13T430 43Q430 59 420 83T344 205Q276 102 263 78T251 40Q251 21 259 11T279 0H1Q22 3 59 37T143 139L269 322L123 540Q51 649 1 666Z"
				   horiz-adv-x="728" unicode="Х"/>
			<glyph d="M25 666H300Q279 661 267 629T255 544V114H491V544Q491 595 478 627T444 666H720Q696 661 682 628T668 544V165Q668 114 706 114H736V-181H727Q716 -139 688 -95T625 -26T547 0H24Q49 6 63 37T78 122V544Q78 593 63 626T25 666Z"
				   horiz-adv-x="756" unicode="Ц"/>
			<glyph d="M22 666H288Q267 660 255 635T244 567V465Q244 346 345 346Q392 346 432 360V544Q432 596 418 628T381 666H660Q635 660 622 626T609 544V122Q609 71 623 38T661 0H370Q399 5 415 36T432 122V260Q363 234 290 234Q67 234 67 455V565Q67 605 55 633T22 666Z"
				   horiz-adv-x="686" unicode="Ч"/>
			<glyph d="M25 666H292Q271 661 259 629T247 544V114H413V544Q413 595 399 628T366 666H634Q610 661 596 628T582 544V114H748V544Q748 595 734 627T701 666H969Q945 661 931 628T917 544V122Q917 71 930 38T967 0H24Q49 6 63 37T78 122V544Q78 593 62 626T25 666Z"
				   horiz-adv-x="995" unicode="Ш"/>
			<glyph d="M25 666H292Q271 661 259 629T247 544V114H413V544Q413 595 400 626T366 666H634Q610 661 596 628T582 544V114H748V544Q748 595 735 627T701 666H969Q945 661 931 628T917 544V165Q917 114 955 114H985V-181H976Q965 -139 937 -95T874 -26T796 0H24Q49 6 63 37T78 122V544Q78 594 62 626T25 666Z"
				   horiz-adv-x="1005" unicode="Щ"/>
			<glyph d="M40 666H474Q446 659 429 627T412 550V422H504Q612 422 677 367T743 220Q743 121 673 60T492 0H192Q217 6 231 39T245 124V555H127Q102 555 84 545T54 520T23 460H22ZM412 311V111H462Q512 111 537 140T563 211Q563 254 538 282T455 311Z"
				   unicode="Ъ"/>
			<glyph d="M24 666H307Q279 659 262 627T245 550V422H337Q445 422 510 367T576 220Q576 121 506 60T325 0H25Q50 6 64 39T78 124V551Q78 651 24 666ZM604 666H888Q834 648 834 550V111Q834 65 848 34T886 0H605Q633 7 646 37T659 111V550Q659 596 645 626T604 666ZM245 311V111H295Q345 111 370 140T396 211Q396 254 371 282T289 311Z"
				   horiz-adv-x="911" unicode="Ы"/>
			<glyph d="M24 666H307Q279 659 262 627T245 550V422H342Q450 422 515 367T581 220Q581 121 511 60T330 0H25Q50 6 64 39T78 124V551Q78 651 24 666ZM245 311V111H300Q350 111 375 140T401 211Q401 254 376 282T288 311Z"
				   horiz-adv-x="615" unicode="Ь"/>
			<glyph d="M252 681Q414 681 507 588T600 339Q600 241 556 159T431 31T248 -15Q114 -15 38 38V228Q99 114 231 114Q302 114 354 159T415 279H239Q205 279 184 269T159 246V423Q164 409 186 400T241 391H416Q403 468 356 512T246 557Q179 557 127 523T50 435V643Q137 681 252 681Z"
				   horiz-adv-x="640" unicode="Э"/>
			<glyph d="M709 681Q852 681 942 588T1032 344Q1032 190 934 87T684 -15Q548 -15 461 67T360 279H247V122Q247 72 261 38T299 0H24Q49 6 63 36T78 122V544Q78 595 63 626T22 666H299Q275 659 261 625T247 544V391H364Q385 519 479 600T709 681ZM683 557Q617 557 577 503T538 353Q538 238 582 175T708 112Q772 112 813 165T854 316Q854 428 808 492T683 557Z"
				   horiz-adv-x="1072" unicode="Ю"/>
			<glyph d="M311 666H640Q610 658 592 624T574 540V121Q574 72 588 39T628 0H351Q365 2 377 15T398 53T407 121V244H396Q376 244 361 232T329 186L239 0H5Q23 2 48 25T93 85L158 209Q182 255 219 278Q63 322 63 459Q63 550 130 608T311 666ZM348 555Q293 555 265 527T238 462Q238 415 266 387T342 359H407V555Z"
				   horiz-adv-x="651" unicode="Я"/>
			<glyph d="M267 485Q364 485 413 447T463 329V160Q463 66 549 66L558 68L410 -25Q387 -22 362 -4T332 30Q310 8 270 -3T193 -15Q126 -15 84 20T43 112Q43 170 115 217T309 289V319Q309 394 256 393Q225 393 210 379T196 353Q196 334 214 325L63 270Q52 301 52 326Q52 394 117 439T267 485ZM309 205Q244 192 215 170T187 125Q187 107 202 94T243 82Q267 82 288 98T309 148Z"
				   horiz-adv-x="538" unicode="а"/>
			<glyph d="M506 724Q494 557 360 551Q280 547 256 538T217 501Q203 473 200 408Q268 468 339 468Q425 468 480 408T535 246Q535 131 465 58T285 -15Q169 -15 102 58T35 285Q35 653 334 680Q417 686 454 697T506 724ZM284 351Q240 351 198 309Q197 284 197 254Q197 94 285 94Q322 94 346 131T370 226Q370 280 346 315T284 351Z"
				   horiz-adv-x="569" unicode="б"/>
			<glyph d="M14 468H294Q379 468 425 439T471 358Q471 318 446 289T380 251Q496 233 496 134Q496 72 438 36T283 0H16Q39 8 53 37T67 105V361Q67 404 53 432T14 468ZM217 197V89H262Q336 89 336 143Q336 197 261 197ZM217 381V282H257Q286 282 300 297T315 335Q315 381 254 381Z"
				   horiz-adv-x="521" unicode="в"/>
			<glyph d="M14 468H401V304Q371 379 293 379H222V101Q222 64 236 36T272 0H16Q39 8 53 36T67 104V368Q67 405 52 432T14 468Z"
				   horiz-adv-x="419" unicode="г"/>
			<glyph d="M227 485H343L490 127Q498 108 506 101T528 94H560V-150H551Q524 -79 484 -39T400 0H173Q130 0 90 -38T22 -150H13V94H47Q70 94 84 129ZM263 274L197 94H332Z"
				   horiz-adv-x="581" unicode="д"/>
			<glyph d="M273 485Q374 485 426 412T479 206H186Q199 152 241 125T336 99Q378 99 419 114T487 158Q473 70 415 27T267 -15Q164 -15 99 51T35 225Q35 335 102 410T273 485ZM270 386Q241 386 216 361T186 293H337Q337 341 317 363T270 386Z"
				   horiz-adv-x="519" unicode="е"/>
			<glyph d="M13 465H276Q251 457 251 436Q251 413 282 366L339 283Q359 250 377 250V349Q377 399 364 429T328 465H577Q560 460 549 446T533 409T527 350V250Q533 250 540 254T565 283L622 366Q653 412 653 436Q653 458 627 465H891L871 457Q819 435 760 356L694 264L805 110Q843 59 873 38T920 17Q878 -13 786 -13Q681 -13 617 95Q579 158 560 186T536 218T527 222V116Q527 65 539 34T572 0H328Q352 6 364 37T377 115V222Q368 222 360 210T342 184L287 95Q223 -13 118 -13Q26 -13 -16 17Q1 17 31 37T99 110L210 264L144 356Q114 397 83 424T13 465Z"
				   horiz-adv-x="904" unicode="ж"/>
			<glyph d="M207 485Q411 485 413 361Q413 320 382 288T313 249Q426 227 426 135Q426 69 370 27T203 -15Q101 -15 32 11V155Q92 79 186 79Q266 79 266 137Q266 163 239 177T164 192H115V279H151Q211 279 237 298T263 342Q263 366 243 378T189 391Q154 391 121 374T52 313V463Q123 485 207 485Z"
				   horiz-adv-x="456" unicode="з"/>
			<glyph d="M14 468H269Q220 447 220 365V220L364 376Q364 445 316 468H568Q545 461 531 431T517 362V106Q517 62 531 34T566 0H318Q337 6 350 34T364 103V248L220 92Q220 56 234 30T268 0H16Q37 4 52 33T67 104V364Q67 402 55 429T14 468Z"
				   horiz-adv-x="584" unicode="и"/>
			<glyph d="M14 468H269Q220 447 220 365V220L364 376Q364 445 316 468H568Q545 461 531 431T517 362V106Q517 62 531 34T566 0H318Q337 6 350 34T364 103V248L220 92Q220 56 234 30T268 0H16Q37 4 52 33T67 104V364Q67 402 55 429T14 468ZM222 699Q226 659 244 633T293 608Q323 608 340 634T361 699L469 672Q457 607 409 569T289 531Q217 531 169 569T111 672Z"
				   horiz-adv-x="584" unicode="й"/>
			<glyph d="M222 490V250Q240 250 264 283L324 366Q355 409 355 436Q355 449 346 457T329 465H598Q527 440 462 356L391 264L502 110Q540 59 571 37T620 15Q623 15 631 17Q587 -13 483 -13Q432 -13 395 9T328 74Q317 89 301 115T260 182Q236 222 222 222V116Q222 77 230 51T250 14T275 0H12Q36 7 46 23T62 62T67 115V308Q67 357 53 381T7 405H-7Z"
				   horiz-adv-x="615" unicode="к"/>
			<glyph d="M227 485H343L504 93Q536 15 582 0H306Q324 3 332 15T341 47Q341 65 329 97L263 270L204 108Q192 75 192 54Q192 31 203 17T232 0H-2Q37 13 72 99Z"
				   horiz-adv-x="581" unicode="л"/>
			<glyph d="M13 468H236L350 246L452 468H670Q652 461 637 431T623 366V92Q623 54 637 29T670 0H440Q459 7 468 31T478 92V322L319 -16L154 312V95Q154 54 169 28T204 0H18Q43 7 56 34T67 102V371Q67 408 51 434T13 468Z"
				   horiz-adv-x="690" unicode="м"/>
			<glyph d="M14 468H271Q222 447 222 365V283H362V365Q362 444 314 468H568Q546 461 531 433T517 362V106Q517 62 531 33T566 0H316Q335 5 348 34T362 103V195H222V103Q222 61 236 32T270 0H16Q38 6 52 34T67 104V364Q67 402 55 429T14 468Z"
				   horiz-adv-x="584" unicode="н"/>
			<glyph d="M293 485Q408 485 477 420T547 247Q547 130 474 57T284 -15Q172 -15 103 49T34 227Q34 343 109 414T293 485ZM282 374Q244 374 217 340T191 249Q191 186 222 141T298 97Q336 97 361 132T387 227Q387 288 356 331T282 374Z"
				   horiz-adv-x="581" unicode="о"/>
			<glyph d="M14 468H563Q540 461 526 431T512 362V106Q512 62 526 34T561 0H311Q330 6 343 34T357 103V379H222V103Q222 61 236 33T270 0H16Q37 6 52 34T67 104V364Q67 402 55 429T14 468Z"
				   horiz-adv-x="579" unicode="п"/>
			<glyph d="M208 490L210 426Q233 454 270 469T345 485Q426 485 480 423T534 253Q534 135 468 62T294 -10Q248 -10 219 7V-66Q219 -104 226 -126T243 -161T273 -181H18Q39 -176 51 -146T64 -66V299Q64 405 2 405H-10ZM287 368Q255 368 235 341T216 267V153Q216 97 280 97Q323 97 345 131T368 220Q368 291 346 329T287 368Z"
				   horiz-adv-x="568" unicode="р"/>
			<glyph d="M277 485Q352 485 399 440T451 320L307 264Q315 282 315 304Q315 333 301 353T258 374Q223 374 202 341T182 261Q182 192 218 145T316 98Q351 98 391 114T463 164Q450 86 389 35T254 -15Q150 -15 92 48T34 216Q34 333 104 409T277 485Z"
				   horiz-adv-x="481" unicode="с"/>
			<glyph d="M18 468H451V304Q421 379 343 379H312V101Q312 61 327 33T361 0H106Q127 7 142 34T157 104V379H126Q48 379 18 304Z"
				   horiz-adv-x="469" unicode="т"/>
			<glyph d="M-2 465H276Q262 463 251 451T240 418Q240 404 252 372L313 209L372 363Q386 399 386 417Q386 437 375 449T343 465H580Q565 461 545 437T507 371L362 35Q326 -51 274 -114T182 -191L15 -89Q31 -92 45 -92Q151 -92 221 24L79 376Q63 416 40 439T-2 465Z"
				   horiz-adv-x="577" unicode="у"/>
			<glyph d="M416 700V483Q524 465 586 401T649 247Q649 151 588 80T416 -12V-65Q416 -115 430 -145T467 -181H211Q237 -174 250 -143T264 -65V-14Q157 3 95 68T34 227Q34 324 97 391T264 481V504Q264 618 196 618H186ZM416 368V97Q451 115 471 150T491 229Q491 327 416 368ZM264 372Q229 355 209 321T189 247Q189 147 264 103Z"
				   horiz-adv-x="683" unicode="ф"/>
			<glyph d="M-1 465H267Q245 458 245 437Q245 417 268 384L294 346L319 384Q344 420 344 440Q344 460 324 465H561Q537 461 508 437T452 374L364 244L488 68Q515 31 533 17T563 0H293Q313 9 312 27Q312 47 286 88L266 118L246 88Q217 44 217 25Q217 5 237 0H0Q19 3 48 27T108 94L196 219L79 387Q39 444 -1 465Z"
				   horiz-adv-x="561" unicode="х"/>
			<glyph d="M18 468H268Q249 462 235 433T222 365V94H357V365Q357 406 343 434T309 468H563Q542 462 527 434T512 364V130Q512 94 541 94H577V-150H568Q541 -79 501 -39T417 0H16Q39 6 53 35T67 106V362Q67 406 53 434T18 468Z"
				   horiz-adv-x="589" unicode="ц"/>
			<glyph d="M11 468H256Q218 452 218 357V331Q218 243 279 243Q309 243 331 263T353 322V357Q353 401 340 430T303 468H561Q538 462 523 432T508 352V115Q508 67 520 36T552 0H300Q353 14 353 120V175Q336 158 296 142T218 126Q147 126 104 169T62 293V353Q62 400 48 430T11 468Z"
				   horiz-adv-x="575" unicode="ч"/>
			<glyph d="M18 468H266Q247 462 233 433T220 365V94H350V365Q350 406 336 434T302 468H554Q533 462 518 434T503 364V94H633V365Q633 406 619 434T585 468H837Q816 462 801 434T786 364V104Q786 60 802 32T839 0H16Q39 7 53 35T67 106V362Q67 406 53 434T18 468Z"
				   horiz-adv-x="853" unicode="ш"/>
			<glyph d="M18 468H266Q247 462 233 433T220 365V94H350V365Q350 406 336 434T302 468H554Q533 462 518 434T503 364V94H633V365Q633 406 619 434T585 468H837Q816 462 801 434T786 364V130Q786 94 814 94H851V-150H842Q815 -79 775 -39T691 0H16Q39 7 53 36T67 106V362Q67 406 53 434T18 468Z"
				   horiz-adv-x="863" unicode="щ"/>
			<glyph d="M18 468H369Q349 463 329 435T310 367V302H387Q480 302 532 265T585 159Q585 84 529 42T374 0H106Q125 5 141 34T157 107V379H126Q48 379 18 304ZM310 213V89H348Q424 89 425 151Q425 180 408 196T343 213Z"
				   horiz-adv-x="609" unicode="ъ"/>
			<glyph d="M15 468H279Q259 463 239 435T220 367V302H297Q390 302 442 265T495 159Q495 84 439 42T284 0H16Q34 4 50 33T67 107V367Q67 404 52 432T15 468ZM220 213V89H258Q335 89 335 151Q335 178 319 195T253 213ZM503 468H758Q709 447 709 365V103Q709 61 723 33T757 0H505Q526 6 541 34T556 104V364Q556 402 543 429T503 468Z"
				   horiz-adv-x="776" unicode="ы"/>
			<glyph d="M15 468H279Q259 463 239 435T220 367V302H302Q395 302 447 265T500 159Q500 84 444 42T289 0H16Q34 4 50 33T67 107V367Q67 405 52 432T15 468ZM220 213V89H263Q339 89 340 151Q340 179 324 196T255 213Z"
				   horiz-adv-x="524" unicode="ь"/>
			<glyph d="M221 485Q315 485 371 420T427 246Q427 129 358 57T177 -15Q93 -15 37 10V163Q95 96 178 96Q220 96 247 123T279 192H109V279H270Q263 320 230 346T153 372Q119 372 83 355T18 306Q32 386 88 435T221 485Z"
				   horiz-adv-x="461" unicode="э"/>
			<glyph d="M567 485Q679 485 746 420T814 247Q814 128 742 56T559 -15Q457 -15 392 41T318 195H220V103Q220 61 234 33T268 0H16Q38 7 52 34T67 104V364Q67 402 54 429T14 468H269Q220 448 220 365V283H321Q338 375 406 430T567 485ZM557 374Q522 374 497 340T473 249Q473 187 502 142T572 97Q607 97 630 132T654 227Q654 290 625 332T557 374Z"
				   horiz-adv-x="848" unicode="ю"/>
			<glyph d="M275 468H557Q533 464 518 433T504 359V105Q504 64 517 34T552 0H300Q321 7 336 35T351 104V169H345Q325 169 313 161T286 129L208 0H-3Q13 2 33 15T76 62L132 148Q154 182 186 197Q116 212 86 244T56 324Q56 388 112 428T275 468ZM304 381Q255 381 235 361T216 318Q216 292 234 273T298 254H351V381Z"
				   horiz-adv-x="571" unicode="я"/>
			<glyph d="M273 485Q374 485 426 412T479 206H186Q199 152 241 125T336 99Q378 99 419 114T487 158Q473 70 415 27T267 -15Q164 -15 99 51T35 225Q35 335 102 410T273 485ZM270 386Q241 386 216 361T186 293H337Q337 341 317 363T270 386ZM111 666H305L347 501Z"
				   horiz-adv-x="519" unicode="ѐ"/>
			<glyph d="M273 485Q374 485 426 412T479 206H186Q199 152 241 125T336 99Q378 99 419 114T487 158Q473 70 415 27T267 -15Q164 -15 99 51T35 225Q35 335 102 410T273 485ZM270 386Q241 386 216 361T186 293H337Q337 341 317 363T270 386ZM363 678Q398 678 418 658T438 608Q438 577 417 556T363 536Q329 536 309 556T289 608Q289 638 309 658T363 678ZM158 678Q192 678 212 658T232 608Q232 577 212 556Q192 536 158 536Q123 536 102 556T81 608Q81 638 102 658T158 678Z"
				   horiz-adv-x="519" unicode="ё"/>
			<glyph d="M223 703V605H398V535H223V432Q249 456 287 470T359 485Q515 485 515 314V-15Q515 -99 468 -145T331 -192Q292 -192 255 -172T210 -131Q238 -141 265 -141Q358 -141 358 -16V280Q358 368 299 368Q267 368 245 345T223 276V111Q223 66 236 36T271 0H14Q41 7 54 38T68 116V496Q68 613 1 613H-10Z"
				   horiz-adv-x="579" unicode="ђ"/>
			<glyph d="M14 468H401V304Q371 379 293 379H222V101Q222 64 236 36T272 0H16Q39 8 53 36T67 104V368Q67 405 52 432T14 468ZM191 666H385L153 501Z"
				   horiz-adv-x="419" unicode="ѓ"/>
			<glyph d="M278 485Q355 485 413 461V307Q358 374 279 374Q237 374 211 347T182 279H352V192H191Q198 150 230 124T309 98Q342 98 378 115T443 164Q428 81 372 33T242 -15Q146 -15 90 47T34 217Q34 335 104 410T278 485Z"
				   horiz-adv-x="461" unicode="є"/>
			<glyph d="M231 486Q302 486 359 459V312Q342 337 306 357T232 378Q185 378 185 349Q185 336 197 325T239 302Q333 261 363 226T394 139Q394 66 339 25T197 -15Q150 -15 104 -4T36 26V185Q58 146 99 118T194 91Q249 91 249 121Q249 135 235 146T181 175Q101 212 71 245T42 331Q42 402 91 444T231 486Z"
				   horiz-adv-x="418" unicode="ѕ"/>
			<glyph d="M225 490V116Q225 77 233 52T254 14T279 0H14Q39 4 54 34T69 116V308Q69 405 5 405H-9ZM138 694Q179 694 203 670T228 609Q228 571 203 547T138 523Q97 523 72 547T48 609Q48 646 72 670T138 694Z"
				   horiz-adv-x="292" unicode="і"/>
			<glyph d="M225 490V116Q225 77 233 52T253 14T279 0H14Q38 4 53 33T69 116V308Q69 405 5 405H-9ZM251 678Q286 678 306 658T326 608Q326 577 305 556T251 536Q217 536 197 556T177 608Q177 638 197 658T251 678ZM46 678Q80 678 100 658T120 608Q120 577 100 556Q80 536 46 536Q11 536 -10 556T-31 608Q-31 638 -10 658T46 678Z"
				   horiz-adv-x="292" unicode="ї"/>
			<glyph d="M130 694Q171 694 195 670T220 609Q220 571 195 547T130 523Q89 523 64 547T40 609Q40 646 64 670T130 694ZM225 490V-15Q225 -99 178 -145T41 -192Q-1 -192 -36 -172T-80 -131Q-52 -141 -25 -141Q69 -141 69 -16V312Q69 405 5 405H-9Z"
				   horiz-adv-x="292" unicode="ј"/>
			<glyph d="M227 485H342L420 283H541Q636 283 687 248T739 149Q739 78 683 39T528 0H302Q317 2 326 14T336 47Q336 65 324 97L263 270L204 108Q192 75 192 54Q192 10 230 0H-1Q39 16 72 99ZM454 194L494 89H502Q579 90 579 141Q579 167 561 180T498 194Z"
				   horiz-adv-x="763" unicode="љ"/>
			<glyph d="M14 468H269Q220 446 220 365V283H357V365Q357 444 309 468H561Q536 459 523 430T510 362V283H582Q677 283 728 248T780 149Q780 78 724 39T569 0H311Q330 7 343 34T357 103V195H220V103Q220 61 234 33T268 0H16Q37 6 52 34T67 104V364Q67 402 55 429T14 468ZM510 194V89H543Q620 89 620 141Q620 164 604 179T539 194Z"
				   horiz-adv-x="804" unicode="њ"/>
			<glyph d="M223 703V605H398V535H223V436Q244 455 282 470T358 485Q429 485 471 442T514 317V115Q514 75 522 51T542 14T568 0H318Q330 3 337 13T351 47T358 111V280Q358 368 297 368Q267 368 245 345T223 278V111Q223 74 231 49T250 13T274 0H12Q26 2 39 14T60 52T68 116V496Q68 613 1 613H-10Z"
				   horiz-adv-x="580" unicode="ћ"/>
			<glyph d="M222 490V265L318 371Q352 408 352 436Q352 449 344 456T326 465H595Q542 446 461 361L376 271L507 108Q582 15 617 15Q622 15 628 17Q586 -13 483 -13Q431 -13 395 7T328 73Q240 200 222 217V116Q222 77 230 51T251 13T275 0H12Q35 6 46 23T62 62T67 115V308Q67 357 53 381T7 405H-7ZM276 666H470L238 501Z"
				   horiz-adv-x="612" unicode="ќ"/>
			<glyph d="M14 468H269Q220 447 220 365V220L364 376Q364 445 316 468H568Q545 461 531 431T517 362V106Q517 62 531 34T566 0H318Q337 6 350 34T364 103V248L220 92Q220 56 234 30T268 0H16Q37 4 52 33T67 104V364Q67 402 55 429T14 468ZM113 666H307L349 501Z"
				   horiz-adv-x="584" unicode="ѝ"/>
			<glyph d="M-2 465H276Q262 463 251 451T240 418Q240 404 252 372L313 209L372 363Q386 399 386 417Q386 437 375 449T343 465H580Q565 461 545 437T507 371L362 35Q326 -51 274 -114T182 -191L15 -89Q31 -92 45 -92Q151 -92 221 24L79 376Q63 416 40 439T-2 465ZM233 699Q237 659 255 633T304 608Q334 608 351 634T372 699L480 672Q468 607 420 569T300 531Q228 531 180 569T122 672Z"
				   horiz-adv-x="577" unicode="ў"/>
			<glyph d="M18 468H268Q249 461 235 433T222 365V94H357V365Q357 406 343 434T309 468H563Q542 462 527 434T512 364V104Q512 60 528 33T565 0H420Q377 0 344 -38T294 -146H285Q247 0 150 0H16Q40 7 53 36T67 106V362Q67 406 53 434T18 468Z"
				   horiz-adv-x="579" unicode="џ"/>
			<glyph d="M488 820H497V555H253V118Q253 68 266 36T304 0H20Q47 5 62 36T78 123V548Q78 595 60 626T9 666H308Q348 666 385 688T450 748T488 820Z"
				   horiz-adv-x="516" unicode="Ґ"/>
			<glyph d="M390 599H399V379H222V102Q222 63 237 34T272 0H17Q37 5 52 35T67 104V365Q67 406 52 433T15 468H239Q291 468 331 503T390 599Z"
				   horiz-adv-x="419" unicode="ґ"/>
			<glyph d="M1 666H315Q299 663 288 648T278 608Q278 579 290 545L383 265L483 535Q443 649 409 666H682Q665 663 652 647T639 603Q639 581 651 545L743 266L834 545Q845 580 845 606Q845 631 834 646T804 666H1067Q1039 660 1013 625T968 532L795 0H656L539 354L417 0H280L100 537Q60 651 1 666ZM361 860H555L597 695Z"
				   horiz-adv-x="1069" unicode="Ẁ"/>
			<glyph d="M-2 465H266Q255 463 247 453T239 424Q239 403 250 372L310 211L371 368Q354 414 337 437T305 465H548Q514 459 513 418Q513 399 523 372L581 212L634 360Q646 393 646 413Q646 435 636 448T609 465H840Q820 460 800 434T765 370L622 0H511L423 231L337 0H226L77 376Q60 418 38 440T-2 465ZM240 666H434L476 501Z"
				   horiz-adv-x="837" unicode="ẁ"/>
			<glyph d="M1 666H315Q299 663 288 648T278 608Q278 579 290 545L383 265L483 535Q443 649 409 666H682Q665 663 652 647T639 603Q639 581 651 545L743 266L834 545Q845 580 845 606Q845 631 834 646T804 666H1067Q1039 660 1013 625T968 532L795 0H656L539 354L417 0H280L100 537Q60 651 1 666ZM525 860H719L487 695Z"
				   horiz-adv-x="1069" unicode="Ẃ"/>
			<glyph d="M-2 465H266Q255 463 247 453T239 424Q239 403 250 372L310 211L371 368Q354 414 337 437T305 465H548Q514 459 513 418Q513 399 523 372L581 212L634 360Q646 393 646 413Q646 435 636 448T609 465H840Q820 460 800 434T765 370L622 0H511L423 231L337 0H226L77 376Q60 418 38 440T-2 465ZM409 666H603L371 501Z"
				   horiz-adv-x="837" unicode="ẃ"/>
			<glyph d="M1 666H315Q299 663 288 648T278 608Q278 579 290 545L383 265L483 535Q443 649 409 666H682Q665 663 652 647T639 603Q639 581 651 545L743 266L834 545Q845 580 845 606Q845 631 834 646T804 666H1067Q1039 660 1013 625T968 532L795 0H656L539 354L417 0H280L100 537Q60 651 1 666ZM651 852Q686 852 706 832T726 782Q726 751 705 730T651 710Q617 710 597 730T577 782Q577 812 597 832T651 852ZM446 852Q480 852 500 832T520 782Q520 751 500 730Q480 710 446 710Q411 710 390 730T369 782Q369 812 390 832T446 852Z"
				   horiz-adv-x="1069" unicode="Ẅ"/>
			<glyph d="M-2 465H266Q255 463 247 453T239 424Q239 403 250 372L310 211L371 368Q354 414 337 437T305 465H548Q514 459 513 418Q513 399 523 372L581 212L634 360Q646 393 646 413Q646 435 636 448T609 465H840Q820 460 800 434T765 370L622 0H511L423 231L337 0H226L77 376Q60 418 38 440T-2 465ZM534 678Q569 678 589 658T609 608Q609 577 588 556T534 536Q500 536 480 556T460 608Q460 638 480 658T534 678ZM329 678Q363 678 383 658T403 608Q403 577 383 556Q363 536 329 536Q294 536 273 556T252 608Q252 638 273 658T329 678Z"
				   horiz-adv-x="837" unicode="ẅ"/>
			<glyph d="M418 681Q493 681 574 660T714 605L591 387Q662 365 701 315T740 201Q740 112 674 49T510 -14Q403 -14 349 34V174Q398 110 477 110Q514 110 539 133T565 197Q565 292 382 321L498 536Q449 556 407 556Q276 556 276 373V114Q276 77 284 52T303 15T324 0H46Q58 3 70 16T91 53T100 116V366Q100 512 187 596T418 681Z"
				   horiz-adv-x="784" unicode="ẞ"/>
			<glyph d="M307 666H457L680 131Q698 87 717 58T752 16T780 0H466Q482 2 494 15T506 52Q506 73 480 137H234Q214 73 214 57Q214 32 226 17T255 0H-1Q50 17 98 136ZM355 460L275 244H438ZM379 -61Q412 -61 433 -81T454 -131Q454 -162 433 -182T379 -203Q345 -203 324 -182T304 -131Q304 -101 324 -81T379 -61Z"
				   unicode="Ạ"/>
			<glyph d="M267 485Q364 485 413 447T463 329V160Q463 66 549 66L558 68L410 -25Q387 -22 362 -4T332 30Q310 8 270 -3T193 -15Q126 -15 84 20T43 112Q43 170 115 217T309 289V319Q309 394 256 393Q225 393 210 379T196 353Q196 334 214 325L63 270Q52 301 52 326Q52 394 117 439T267 485ZM309 205Q244 192 215 170T187 125Q187 107 202 94T243 82Q267 82 288 98T309 148ZM267 -61Q300 -61 321 -81T342 -131Q342 -162 321 -182T267 -203Q233 -203 212 -182T192 -131Q192 -101 212 -81T267 -61Z"
				   horiz-adv-x="538" unicode="ạ"/>
			<glyph d="M307 666H457L680 131Q698 87 717 58T752 16T780 0H466Q482 2 494 15T506 52Q506 73 480 137H234Q214 73 214 57Q214 32 226 17T255 0H-1Q50 17 98 136ZM355 460L275 244H438ZM383 907Q424 907 451 887T478 830Q478 804 466 787T440 761T414 742T403 724Q403 713 418 708Q408 703 391 703Q369 703 355 714T341 746Q341 760 349 771T368 790T387 806T396 824Q396 846 370 847Q337 847 301 801V891Q340 907 383 907Z"
				   unicode="Ả"/>
			<glyph d="M267 485Q364 485 413 447T463 329V160Q463 66 549 66L558 68L410 -25Q387 -22 362 -4T332 30Q310 8 270 -3T193 -15Q126 -15 84 20T43 112Q43 170 115 217T309 289V319Q309 394 256 393Q225 393 210 379T196 353Q196 334 214 325L63 270Q52 301 52 326Q52 394 117 439T267 485ZM309 205Q244 192 215 170T187 125Q187 107 202 94T243 82Q267 82 288 98T309 148ZM264 720Q305 720 332 700T359 643Q359 617 347 600T321 574T295 555T284 537Q284 526 299 521Q289 516 272 516Q250 516 236 527T222 559Q222 573 230 584T249 603T268 619T277 637Q277 659 251 660Q218 660 182 614V704Q221 720 264 720Z"
				   horiz-adv-x="538" unicode="ả"/>
			<glyph d="M307 666H457L680 131Q698 87 717 58T752 16T780 0H466Q482 2 494 15T506 52Q506 73 480 137H234Q214 73 214 57Q214 32 226 17T255 0H-1Q50 17 98 136ZM355 460L275 244H438ZM382 863L544 695L382 747L223 695ZM504 930H637L465 787Z"
				   unicode="Ấ"/>
			<glyph d="M267 485Q364 485 413 447T463 329V160Q463 66 549 66L558 68L410 -25Q387 -22 362 -4T332 30Q310 8 270 -3T193 -15Q126 -15 84 20T43 112Q43 170 115 217T309 289V319Q309 394 256 393Q225 393 210 379T196 353Q196 334 214 325L63 270Q52 301 52 326Q52 394 117 439T267 485ZM309 205Q244 192 215 170T187 125Q187 107 202 94T243 82Q267 82 288 98T309 148ZM267 685L429 517L267 569L108 517ZM389 752H522L350 609Z"
				   horiz-adv-x="538" unicode="ấ"/>
			<glyph d="M307 666H457L680 131Q698 87 717 58T752 16T780 0H466Q482 2 494 15T506 52Q506 73 480 137H234Q214 73 214 57Q214 32 226 17T255 0H-1Q50 17 98 136ZM355 460L275 244H438ZM382 863L544 695L382 747L223 695ZM131 930H264L303 787Z"
				   unicode="Ầ"/>
			<glyph d="M267 485Q364 485 413 447T463 329V160Q463 66 549 66L558 68L410 -25Q387 -22 362 -4T332 30Q310 8 270 -3T193 -15Q126 -15 84 20T43 112Q43 170 115 217T309 289V319Q309 394 256 393Q225 393 210 379T196 353Q196 334 214 325L63 270Q52 301 52 326Q52 394 117 439T267 485ZM309 205Q244 192 215 170T187 125Q187 107 202 94T243 82Q267 82 288 98T309 148ZM267 685L429 517L267 569L108 517ZM16 752H149L188 609Z"
				   horiz-adv-x="538" unicode="ầ"/>
			<glyph d="M307 666H457L680 131Q698 87 717 58T752 16T780 0H466Q482 2 494 15T506 52Q506 73 480 137H234Q214 73 214 57Q214 32 226 17T255 0H-1Q50 17 98 136ZM355 460L275 244H438ZM382 863L544 695L382 747L223 695ZM512 945Q544 945 566 930T588 883Q588 862 579 849T558 828T537 813T528 798Q528 787 540 785Q532 781 518 781Q501 781 489 790T478 815Q478 834 502 852Q522 867 522 878Q522 896 502 897Q476 897 446 860V932Q480 945 512 945Z"
				   unicode="Ẩ"/>
			<glyph d="M267 485Q364 485 413 447T463 329V160Q463 66 549 66L558 68L410 -25Q387 -22 362 -4T332 30Q310 8 270 -3T193 -15Q126 -15 84 20T43 112Q43 170 115 217T309 289V319Q309 394 256 393Q225 393 210 379T196 353Q196 334 214 325L63 270Q52 301 52 326Q52 394 117 439T267 485ZM309 205Q244 192 215 170T187 125Q187 107 202 94T243 82Q267 82 288 98T309 148ZM267 685L429 517L267 569L108 517ZM397 767Q429 767 451 752T473 705Q473 684 464 671T443 650T422 635T413 620Q413 609 425 607Q417 603 403 603Q386 603 374 612T363 637Q363 656 387 674Q407 689 407 700Q407 718 387 719Q361 719 331 682V754Q365 767 397 767Z"
				   horiz-adv-x="538" unicode="ẩ"/>
			<glyph d="M307 666H457L680 131Q698 87 717 58T752 16T780 0H466Q482 2 494 15T506 52Q506 73 480 137H234Q214 73 214 57Q214 32 226 17T255 0H-1Q50 17 98 136ZM355 460L275 244H438ZM382 863L544 695L382 747L223 695ZM505 1000Q530 975 530 942Q530 910 507 888T449 867Q416 867 375 892T312 917Q292 917 279 900T267 858Q240 883 240 915Q240 945 261 967T322 989Q354 989 397 964T461 940Q482 940 493 958Q505 976 505 1000Z"
				   unicode="Ẫ"/>
			<glyph d="M267 485Q364 485 413 447T463 329V160Q463 66 549 66L558 68L410 -25Q387 -22 362 -4T332 30Q310 8 270 -3T193 -15Q126 -15 84 20T43 112Q43 170 115 217T309 289V319Q309 394 256 393Q225 393 210 379T196 353Q196 334 214 325L63 270Q52 301 52 326Q52 394 117 439T267 485ZM309 205Q244 192 215 170T187 125Q187 107 202 94T243 82Q267 82 288 98T309 148ZM266 685L428 517L266 569L107 517ZM389 822Q414 797 414 764Q414 732 391 710T333 689Q300 689 259 714T196 739Q176 739 163 722T151 680Q124 705 124 737Q124 767 145 789T206 811Q238 811 281 786T345 762Q366 762 377 780Q389 798 389 822Z"
				   horiz-adv-x="538" unicode="ẫ"/>
			<glyph d="M307 666H457L680 131Q698 87 717 58T752 16T780 0H466Q482 2 494 15T506 52Q506 73 480 137H234Q214 73 214 57Q214 32 226 17T255 0H-1Q50 17 98 136ZM355 460L275 244H438ZM382 900L554 695L382 764L213 695ZM379 -61Q412 -61 433 -81T454 -131Q454 -162 433 -182T379 -203Q345 -203 324 -182T304 -131Q304 -101 324 -81T379 -61Z"
				   unicode="Ậ"/>
			<glyph d="M267 485Q364 485 413 447T463 329V160Q463 66 549 66L558 68L410 -25Q387 -22 362 -4T332 30Q310 8 270 -3T193 -15Q126 -15 84 20T43 112Q43 170 115 217T309 289V319Q309 394 256 393Q225 393 210 379T196 353Q196 334 214 325L63 270Q52 301 52 326Q52 394 117 439T267 485ZM309 205Q244 192 215 170T187 125Q187 107 202 94T243 82Q267 82 288 98T309 148ZM266 703L418 501L266 570L117 501ZM267 -61Q300 -61 321 -81T342 -131Q342 -162 321 -182T267 -203Q233 -203 212 -182T192 -131Q192 -101 212 -81T267 -61Z"
				   horiz-adv-x="538" unicode="ậ"/>
			<glyph d="M307 666H457L680 131Q698 87 717 58T752 16T780 0H466Q482 2 494 15T506 52Q506 73 480 137H234Q214 73 214 57Q214 32 226 17T255 0H-1Q50 17 98 136ZM355 460L275 244H438ZM251 854Q301 795 381 795Q458 795 513 854Q511 790 473 751T381 713Q327 713 290 752T251 854ZM381 960H514L342 817Z"
				   unicode="Ắ"/>
			<glyph d="M267 485Q364 485 413 447T463 329V160Q463 66 549 66L558 68L410 -25Q387 -22 362 -4T332 30Q310 8 270 -3T193 -15Q126 -15 84 20T43 112Q43 170 115 217T309 289V319Q309 394 256 393Q225 393 210 379T196 353Q196 334 214 325L63 270Q52 301 52 326Q52 394 117 439T267 485ZM309 205Q244 192 215 170T187 125Q187 107 202 94T243 82Q267 82 288 98T309 148ZM136 671Q186 612 266 612Q343 612 398 671Q396 607 358 568T266 530Q212 530 175 569T136 671ZM266 777H399L227 634Z"
				   horiz-adv-x="538" unicode="ắ"/>
			<glyph d="M307 666H457L680 131Q698 87 717 58T752 16T780 0H466Q482 2 494 15T506 52Q506 73 480 137H234Q214 73 214 57Q214 32 226 17T255 0H-1Q50 17 98 136ZM355 460L275 244H438ZM253 854Q303 795 383 795Q460 795 515 854Q513 790 475 751T383 713Q329 713 292 752T253 854ZM252 960H385L424 817Z"
				   unicode="Ằ"/>
			<glyph d="M267 485Q364 485 413 447T463 329V160Q463 66 549 66L558 68L410 -25Q387 -22 362 -4T332 30Q310 8 270 -3T193 -15Q126 -15 84 20T43 112Q43 170 115 217T309 289V319Q309 394 256 393Q225 393 210 379T196 353Q196 334 214 325L63 270Q52 301 52 326Q52 394 117 439T267 485ZM309 205Q244 192 215 170T187 125Q187 107 202 94T243 82Q267 82 288 98T309 148ZM137 671Q187 612 267 612Q344 612 399 671Q397 607 359 568T267 530Q213 530 176 569T137 671ZM136 777H269L308 634Z"
				   horiz-adv-x="538" unicode="ằ"/>
			<glyph d="M307 666H457L680 131Q698 87 717 58T752 16T780 0H466Q482 2 494 15T506 52Q506 73 480 137H234Q214 73 214 57Q214 32 226 17T255 0H-1Q50 17 98 136ZM355 460L275 244H438ZM251 854Q301 795 381 795Q458 795 513 854Q511 790 473 751T381 713Q327 713 290 752T251 854ZM383 1000Q421 1000 447 982T473 932Q473 907 462 893T438 869T413 852T402 836Q402 824 416 821Q405 817 391 817Q343 819 343 855Q343 875 370 895Q395 911 395 925Q395 946 371 946Q339 946 306 905V986Q342 1000 383 1000Z"
				   unicode="Ẳ"/>
			<glyph d="M267 485Q364 485 413 447T463 329V160Q463 66 549 66L558 68L410 -25Q387 -22 362 -4T332 30Q310 8 270 -3T193 -15Q126 -15 84 20T43 112Q43 170 115 217T309 289V319Q309 394 256 393Q225 393 210 379T196 353Q196 334 214 325L63 270Q52 301 52 326Q52 394 117 439T267 485ZM309 205Q244 192 215 170T187 125Q187 107 202 94T243 82Q267 82 288 98T309 148ZM136 659Q186 600 266 600Q343 600 398 659Q396 595 358 556T266 518Q212 518 175 557T136 659ZM268 805Q306 805 332 787T358 737Q358 712 347 698T323 674T298 657T287 641Q287 629 301 626Q290 622 276 622Q228 624 228 660Q228 680 255 700Q280 716 280 730Q280 751 256 751Q224 751 191 710V791Q227 805 268 805Z"
				   horiz-adv-x="538" unicode="ẳ"/>
			<glyph d="M307 666H457L680 131Q698 87 717 58T752 16T780 0H466Q482 2 494 15T506 52Q506 73 480 137H234Q214 73 214 57Q214 32 226 17T255 0H-1Q50 17 98 136ZM355 460L275 244H438ZM504 1000Q529 975 529 942Q529 910 506 888T448 867Q415 867 375 892T311 917Q291 917 278 900T266 858Q239 883 239 915Q239 945 260 967T321 989Q355 989 397 964T460 940Q481 940 492 958Q504 976 504 1000ZM251 854Q301 795 381 795Q458 795 513 854Q511 790 473 751T381 713Q327 713 290 752T251 854Z"
				   unicode="Ẵ"/>
			<glyph d="M267 485Q364 485 413 447T463 329V160Q463 66 549 66L558 68L410 -25Q387 -22 362 -4T332 30Q310 8 270 -3T193 -15Q126 -15 84 20T43 112Q43 170 115 217T309 289V319Q309 394 256 393Q225 393 210 379T196 353Q196 334 214 325L63 270Q52 301 52 326Q52 394 117 439T267 485ZM309 205Q244 192 215 170T187 125Q187 107 202 94T243 82Q267 82 288 98T309 148ZM389 817Q414 792 414 759Q414 727 391 705T333 684Q300 684 260 709T196 734Q176 734 163 717T151 675Q124 700 124 732Q124 762 145 784T206 806Q240 806 282 781T345 757Q366 757 377 775Q389 793 389 817ZM136 671Q186 612 266 612Q343 612 398 671Q396 607 358 568T266 530Q212 530 175 569T136 671Z"
				   horiz-adv-x="538" unicode="ẵ"/>
			<glyph d="M307 666H457L680 131Q698 87 717 58T752 16T780 0H466Q482 2 494 15T506 52Q506 73 480 137H234Q214 73 214 57Q214 32 226 17T255 0H-1Q50 17 98 136ZM355 460L275 244H438ZM251 895Q273 857 308 838T381 820Q462 820 513 895Q513 817 474 770T381 723Q326 723 288 770T251 895ZM379 -61Q412 -61 433 -81T454 -131Q454 -162 433 -182T379 -203Q345 -203 324 -182T304 -131Q304 -101 324 -81T379 -61Z"
				   unicode="Ặ"/>
			<glyph d="M267 485Q364 485 413 447T463 329V160Q463 66 549 66L558 68L410 -25Q387 -22 362 -4T332 30Q310 8 270 -3T193 -15Q126 -15 84 20T43 112Q43 170 115 217T309 289V319Q309 394 256 393Q225 393 210 379T196 353Q196 334 214 325L63 270Q52 301 52 326Q52 394 117 439T267 485ZM309 205Q244 192 215 170T187 125Q187 107 202 94T243 82Q267 82 288 98T309 148ZM136 701Q158 663 193 644T266 626Q348 626 398 701Q397 619 358 574T266 529Q211 529 173 576T136 701ZM267 -61Q300 -61 321 -81T342 -131Q342 -162 321 -182T267 -203Q233 -203 212 -182T192 -131Q192 -101 212 -81T267 -61Z"
				   horiz-adv-x="538" unicode="ặ"/>
			<glyph d="M17 666H509V460Q491 513 460 534T380 555H264V391H369Q434 391 451 425V245Q448 260 425 269T371 279H264V114H392Q452 114 487 136T553 213L517 0H29Q42 2 57 16T80 59T89 132V546Q89 588 77 613T50 651T17 666ZM294 -61Q327 -61 348 -81T369 -131Q369 -162 348 -182T294 -203Q260 -203 239 -182T219 -131Q219 -101 239 -81T294 -61Z"
				   horiz-adv-x="576" unicode="Ẹ"/>
			<glyph d="M273 485Q374 485 426 412T479 206H186Q199 152 241 125T336 99Q378 99 419 114T487 158Q473 70 415 27T267 -15Q164 -15 99 51T35 225Q35 335 102 410T273 485ZM270 386Q241 386 216 361T186 293H337Q337 341 317 363T270 386ZM261 -61Q294 -61 315 -81T336 -131Q336 -162 315 -182T261 -203Q227 -203 206 -182T186 -131Q186 -101 206 -81T261 -61Z"
				   horiz-adv-x="519" unicode="ẹ"/>
			<glyph d="M17 666H509V460Q491 513 460 534T380 555H264V391H369Q434 391 451 425V245Q448 260 425 269T371 279H264V114H392Q452 114 487 136T553 213L517 0H29Q42 2 57 16T80 59T89 132V546Q89 588 77 613T50 651T17 666ZM285 907Q326 907 353 887T380 830Q380 804 368 787T342 761T316 742T305 724Q305 713 320 708Q310 703 293 703Q271 703 257 714T243 746Q243 760 251 771T270 790T289 806T298 824Q298 846 272 847Q239 847 203 801V891Q242 907 285 907Z"
				   horiz-adv-x="576" unicode="Ẻ"/>
			<glyph d="M273 485Q374 485 426 412T479 206H186Q199 152 241 125T336 99Q378 99 419 114T487 158Q473 70 415 27T267 -15Q164 -15 99 51T35 225Q35 335 102 410T273 485ZM270 386Q241 386 216 361T186 293H337Q337 341 317 363T270 386ZM263 720Q304 720 331 700T358 643Q358 617 346 600T320 574T294 555T283 537Q283 526 298 521Q288 516 271 516Q249 516 235 527T221 559Q221 573 229 584T248 603T267 619T276 637Q276 659 250 660Q217 660 181 614V704Q220 720 263 720Z"
				   horiz-adv-x="519" unicode="ẻ"/>
			<glyph d="M17 666H509V460Q491 513 460 534T380 555H264V391H369Q434 391 451 425V245Q448 260 425 269T371 279H264V114H392Q452 114 487 136T553 213L517 0H29Q42 2 57 16T80 59T89 132V546Q89 588 77 613T50 651T17 666ZM422 871Q451 841 451 802Q451 766 424 739T357 712Q324 712 274 739T199 766Q152 766 153 699Q122 730 122 771Q122 807 147 831T212 855Q246 855 301 829T376 803Q403 803 412 820Q422 838 422 871Z"
				   horiz-adv-x="576" unicode="Ẽ"/>
			<glyph d="M273 485Q374 485 426 412T479 206H186Q199 152 241 125T336 99Q378 99 419 114T487 158Q473 70 415 27T267 -15Q164 -15 99 51T35 225Q35 335 102 410T273 485ZM270 386Q241 386 216 361T186 293H337Q337 341 317 363T270 386ZM398 697Q427 667 427 628Q427 592 400 565T333 538Q299 538 250 565Q202 592 175 592Q128 593 129 525Q98 557 98 597Q98 631 122 656T188 681Q224 681 277 655T352 629Q379 629 389 647T398 697Z"
				   horiz-adv-x="519" unicode="ẽ"/>
			<glyph d="M17 666H509V460Q491 513 460 534T380 555H264V391H369Q434 391 451 425V245Q448 260 425 269T371 279H264V114H392Q452 114 487 136T553 213L517 0H29Q42 2 57 16T80 59T89 132V546Q89 588 77 613T50 651T17 666ZM285 863L447 695L285 747L126 695ZM407 930H540L368 787Z"
				   horiz-adv-x="576" unicode="Ế"/>
			<glyph d="M273 485Q374 485 426 412T479 206H186Q199 152 241 125T336 99Q378 99 419 114T487 158Q473 70 415 27T267 -15Q164 -15 99 51T35 225Q35 335 102 410T273 485ZM270 386Q241 386 216 361T186 293H337Q337 341 317 363T270 386ZM258 685L420 517L258 569L99 517ZM380 752H513L341 609Z"
				   horiz-adv-x="519" unicode="ế"/>
			<glyph d="M17 666H509V460Q491 513 460 534T380 555H264V391H369Q434 391 451 425V245Q448 260 425 269T371 279H264V114H392Q452 114 487 136T553 213L517 0H29Q42 2 57 16T80 59T89 132V546Q89 588 77 613T50 651T17 666ZM285 863L447 695L285 747L126 695ZM34 930H167L206 787Z"
				   horiz-adv-x="576" unicode="Ề"/>
			<glyph d="M273 485Q374 485 426 412T479 206H186Q199 152 241 125T336 99Q378 99 419 114T487 158Q473 70 415 27T267 -15Q164 -15 99 51T35 225Q35 335 102 410T273 485ZM270 386Q241 386 216 361T186 293H337Q337 341 317 363T270 386ZM258 685L420 517L258 569L99 517ZM7 752H140L179 609Z"
				   horiz-adv-x="519" unicode="ề"/>
			<glyph d="M17 666H509V460Q491 513 460 534T380 555H264V391H369Q434 391 451 425V245Q448 260 425 269T371 279H264V114H392Q452 114 487 136T553 213L517 0H29Q42 2 57 16T80 59T89 132V546Q89 588 77 613T50 651T17 666ZM285 863L447 695L285 747L126 695ZM415 945Q447 945 469 930T491 883Q491 862 482 849T461 828T440 813T431 798Q431 787 443 785Q435 781 421 781Q404 781 392 790T381 815Q381 834 405 852Q425 867 425 878Q425 896 405 897Q379 897 349 860V932Q383 945 415 945Z"
				   horiz-adv-x="576" unicode="Ể"/>
			<glyph d="M273 485Q374 485 426 412T479 206H186Q199 152 241 125T336 99Q378 99 419 114T487 158Q473 70 415 27T267 -15Q164 -15 99 51T35 225Q35 335 102 410T273 485ZM270 386Q241 386 216 361T186 293H337Q337 341 317 363T270 386ZM258 685L420 517L258 569L99 517ZM388 767Q420 767 442 752T464 705Q464 684 455 671T434 650T413 635T404 620Q404 609 416 607Q408 603 394 603Q377 603 365 612T354 637Q354 656 378 674Q398 689 398 700Q398 718 378 719Q352 719 322 682V754Q356 767 388 767Z"
				   horiz-adv-x="519" unicode="ể"/>
			<glyph d="M17 666H509V460Q491 513 460 534T380 555H264V391H369Q434 391 451 425V245Q448 260 425 269T371 279H264V114H392Q452 114 487 136T553 213L517 0H29Q42 2 57 16T80 59T89 132V546Q89 588 77 613T50 651T17 666ZM285 863L447 695L285 747L126 695ZM408 1000Q433 975 433 942Q433 910 410 888T352 867Q319 867 278 892T215 917Q195 917 182 900T170 858Q143 883 143 915Q143 945 164 967T225 989Q257 989 300 964T364 940Q385 940 396 958Q408 976 408 1000Z"
				   horiz-adv-x="576" unicode="Ễ"/>
			<glyph d="M273 485Q374 485 426 412T479 206H186Q199 152 241 125T336 99Q378 99 419 114T487 158Q473 70 415 27T267 -15Q164 -15 99 51T35 225Q35 335 102 410T273 485ZM270 386Q241 386 216 361T186 293H337Q337 341 317 363T270 386ZM258 686L420 518L258 570L99 518ZM381 823Q406 798 406 765Q406 733 383 711T325 690Q292 690 251 715T188 740Q168 740 155 723T143 681Q116 706 116 738Q116 768 137 790T198 812Q230 812 273 787T337 763Q358 763 369 781Q381 799 381 823Z"
				   horiz-adv-x="519" unicode="ễ"/>
			<glyph d="M17 666H509V460Q491 513 460 534T380 555H264V391H369Q434 391 451 425V245Q448 260 425 269T371 279H264V114H392Q452 114 487 136T553 213L517 0H29Q42 2 57 16T80 59T89 132V546Q89 588 77 613T50 651T17 666ZM285 900L457 695L285 764L116 695ZM294 -61Q327 -61 348 -81T369 -131Q369 -162 348 -182T294 -203Q260 -203 239 -182T219 -131Q219 -101 239 -81T294 -61Z"
				   horiz-adv-x="576" unicode="Ệ"/>
			<glyph d="M273 485Q374 485 426 412T479 206H186Q199 152 241 125T336 99Q378 99 419 114T487 158Q473 70 415 27T267 -15Q164 -15 99 51T35 225Q35 335 102 410T273 485ZM270 386Q241 386 216 361T186 293H337Q337 341 317 363T270 386ZM258 703L410 501L258 570L109 501ZM261 -61Q294 -61 315 -81T336 -131Q336 -162 315 -182T261 -203Q227 -203 206 -182T186 -131Q186 -101 206 -81T261 -61Z"
				   horiz-adv-x="519" unicode="ệ"/>
			<glyph d="M27 666H312Q300 664 287 652T266 614T257 550V111Q257 74 265 50T285 14T311 0H27Q51 4 66 33T82 111V550Q82 648 27 666ZM170 907Q211 907 238 887T265 830Q265 804 253 787T227 761T201 742T190 724Q190 713 205 708Q195 703 178 703Q156 703 142 714T128 746Q128 760 136 771T155 790T174 806T183 824Q183 846 157 847Q124 847 88 801V891Q127 907 170 907Z"
				   horiz-adv-x="339" unicode="Ỉ"/>
			<glyph d="M225 490V116Q225 77 233 52T253 14T279 0H14Q38 4 53 33T69 116V308Q69 405 5 405H-9ZM143 720Q184 720 211 700T238 643Q238 617 226 600T200 574T174 555T163 537Q163 526 178 521Q168 516 151 516Q129 516 115 527T101 559Q101 573 109 584T128 603T147 619T156 637Q156 659 130 660Q97 660 61 614V704Q100 720 143 720Z"
				   horiz-adv-x="292" unicode="ỉ"/>
			<glyph d="M27 666H312Q300 664 287 652T266 614T257 550V111Q257 74 265 50T285 14T311 0H27Q51 4 66 33T82 111V550Q82 648 27 666ZM171 -61Q204 -61 225 -81T246 -131Q246 -162 225 -182T171 -203Q137 -203 116 -182T96 -131Q96 -101 116 -81T171 -61Z"
				   horiz-adv-x="339" unicode="Ị"/>
			<glyph d="M225 490V116Q225 77 233 52T254 14T279 0H14Q39 4 54 34T69 116V308Q69 405 5 405H-9ZM138 694Q179 694 203 670T228 609Q228 571 203 547T138 523Q97 523 72 547T48 609Q48 646 72 670T138 694ZM149 -61Q182 -61 203 -81T224 -131Q224 -162 203 -182T149 -203Q115 -203 94 -182T74 -131Q74 -101 94 -81T149 -61Z"
				   horiz-adv-x="292" unicode="ị"/>
			<glyph d="M399 681Q546 681 637 587T729 344Q729 244 683 161Q638 78 557 31T373 -15Q224 -15 132 79T40 322Q40 422 85 504T213 634T399 681ZM372 557Q303 557 261 503T220 353Q220 237 266 174T398 112Q465 112 508 165T551 316Q551 427 504 492T372 557ZM384 -61Q417 -61 438 -81T459 -131Q459 -162 438 -182T384 -203Q350 -203 329 -182T309 -131Q309 -101 329 -81T384 -61Z"
				   horiz-adv-x="769" unicode="Ọ"/>
			<glyph d="M293 485Q408 485 477 420T547 247Q547 130 474 57T284 -15Q172 -15 103 49T34 227Q34 343 109 414T293 485ZM282 374Q244 374 217 340T191 249Q191 186 222 141T298 97Q336 97 361 132T387 227Q387 288 356 331T282 374ZM290 -61Q323 -61 344 -81T365 -131Q365 -162 344 -182T290 -203Q256 -203 235 -182T215 -131Q215 -101 235 -81T290 -61Z"
				   horiz-adv-x="581" unicode="ọ"/>
			<glyph d="M399 681Q546 681 637 587T729 344Q729 244 683 161Q638 78 557 31T373 -15Q224 -15 132 79T40 322Q40 422 85 504T213 634T399 681ZM372 557Q303 557 261 503T220 353Q220 237 266 174T398 112Q465 112 508 165T551 316Q551 427 504 492T372 557ZM385 917Q426 917 453 897T480 840Q480 814 468 797T442 771T416 752T405 734Q405 723 420 718Q410 713 393 713Q371 713 357 724T343 756Q343 770 351 781T370 800T389 816T398 834Q398 856 372 857Q339 857 303 811V901Q342 917 385 917Z"
				   horiz-adv-x="769" unicode="Ỏ"/>
			<glyph d="M293 485Q408 485 477 420T547 247Q547 130 474 57T284 -15Q172 -15 103 49T34 227Q34 343 109 414T293 485ZM282 374Q244 374 217 340T191 249Q191 186 222 141T298 97Q336 97 361 132T387 227Q387 288 356 331T282 374ZM291 720Q332 720 359 700T386 643Q386 617 374 600T348 574T322 555T311 537Q311 526 326 521Q316 516 299 516Q277 516 263 527T249 559Q249 573 257 584T276 603T295 619T304 637Q304 659 278 660Q245 660 209 614V704Q248 720 291 720Z"
				   horiz-adv-x="581" unicode="ỏ"/>
			<glyph d="M399 681Q546 681 637 587T729 344Q729 244 683 161Q638 78 557 31T373 -15Q224 -15 132 79T40 322Q40 422 85 504T213 634T399 681ZM372 557Q303 557 261 503T220 353Q220 237 266 174T398 112Q465 112 508 165T551 316Q551 427 504 492T372 557ZM384 869L546 701L384 753L225 701ZM506 936H639L467 793Z"
				   horiz-adv-x="769" unicode="Ố"/>
			<glyph d="M293 485Q408 485 477 420T547 247Q547 130 474 57T284 -15Q172 -15 103 49T34 227Q34 343 109 414T293 485ZM282 374Q244 374 217 340T191 249Q191 186 222 141T298 97Q336 97 361 132T387 227Q387 288 356 331T282 374ZM290 685L452 517L290 569L131 517ZM412 752H545L373 609Z"
				   horiz-adv-x="581" unicode="ố"/>
			<glyph d="M399 681Q546 681 637 587T729 344Q729 244 683 161Q638 78 557 31T373 -15Q224 -15 132 79T40 322Q40 422 85 504T213 634T399 681ZM372 557Q303 557 261 503T220 353Q220 237 266 174T398 112Q465 112 508 165T551 316Q551 427 504 492T372 557ZM384 869L546 701L384 753L225 701ZM133 936H266L305 793Z"
				   horiz-adv-x="769" unicode="Ồ"/>
			<glyph d="M293 485Q408 485 477 420T547 247Q547 130 474 57T284 -15Q172 -15 103 49T34 227Q34 343 109 414T293 485ZM282 374Q244 374 217 340T191 249Q191 186 222 141T298 97Q336 97 361 132T387 227Q387 288 356 331T282 374ZM290 685L452 517L290 569L131 517ZM39 752H172L211 609Z"
				   horiz-adv-x="581" unicode="ồ"/>
			<glyph d="M399 681Q546 681 637 587T729 344Q729 244 683 161Q638 78 557 31T373 -15Q224 -15 132 79T40 322Q40 422 85 504T213 634T399 681ZM372 557Q303 557 261 503T220 353Q220 237 266 174T398 112Q465 112 508 165T551 316Q551 427 504 492T372 557ZM384 869L546 701L384 753L225 701ZM514 951Q546 951 568 936T590 889Q590 868 581 855T560 834T539 819T530 804Q530 793 542 791Q534 787 520 787Q503 787 491 796T480 821Q480 840 504 858Q524 873 524 884Q524 902 504 903Q478 903 448 866V938Q482 951 514 951Z"
				   horiz-adv-x="769" unicode="Ổ"/>
			<glyph d="M293 485Q408 485 477 420T547 247Q547 130 474 57T284 -15Q172 -15 103 49T34 227Q34 343 109 414T293 485ZM282 374Q244 374 217 340T191 249Q191 186 222 141T298 97Q336 97 361 132T387 227Q387 288 356 331T282 374ZM290 685L452 517L290 569L131 517ZM420 767Q452 767 474 752T496 705Q496 684 487 671T466 650T445 635T436 620Q436 609 448 607Q440 603 426 603Q409 603 397 612T386 637Q386 656 410 674Q430 689 430 700Q430 718 410 719Q384 719 354 682V754Q388 767 420 767Z"
				   horiz-adv-x="581" unicode="ổ"/>
			<glyph d="M399 681Q546 681 637 587T729 344Q729 244 683 161Q638 78 557 31T373 -15Q224 -15 132 79T40 322Q40 422 85 504T213 634T399 681ZM372 557Q303 557 261 503T220 353Q220 237 266 174T398 112Q465 112 508 165T551 316Q551 427 504 492T372 557ZM384 869L546 701L384 753L225 701ZM507 1006Q532 981 532 948Q532 916 509 894T451 873Q418 873 377 898T314 923Q294 923 281 906T269 864Q242 889 242 921Q242 951 263 973T324 995Q356 995 399 970T463 946Q484 946 495 964Q507 982 507 1006Z"
				   horiz-adv-x="769" unicode="Ỗ"/>
			<glyph d="M293 485Q408 485 477 420T547 247Q547 130 474 57T284 -15Q172 -15 103 49T34 227Q34 343 109 414T293 485ZM282 374Q244 374 217 340T191 249Q191 186 222 141T298 97Q336 97 361 132T387 227Q387 288 356 331T282 374ZM290 685L452 517L290 569L131 517ZM413 822Q438 797 438 764Q438 732 415 710T357 689Q324 689 283 714T220 739Q200 739 187 722T175 680Q148 705 148 737Q148 767 169 789T230 811Q262 811 305 786T369 762Q390 762 401 780Q413 798 413 822Z"
				   horiz-adv-x="581" unicode="ỗ"/>
			<glyph d="M399 681Q546 681 637 587T729 344Q729 244 683 161Q638 78 557 31T373 -15Q224 -15 132 79T40 322Q40 422 85 504T213 634T399 681ZM372 557Q303 557 261 503T220 353Q220 237 266 174T398 112Q465 112 508 165T551 316Q551 427 504 492T372 557ZM384 -61Q417 -61 438 -81T459 -131Q459 -162 438 -182T384 -203Q350 -203 329 -182T309 -131Q309 -101 329 -81T384 -61ZM383 900L555 695L383 764L214 695Z"
				   horiz-adv-x="769" unicode="Ộ"/>
			<glyph d="M293 485Q408 485 477 420T547 247Q547 130 474 57T284 -15Q172 -15 103 49T34 227Q34 343 109 414T293 485ZM282 374Q244 374 217 340T191 249Q191 186 222 141T298 97Q336 97 361 132T387 227Q387 288 356 331T282 374ZM290 -61Q323 -61 344 -81T365 -131Q365 -162 344 -182T290 -203Q256 -203 235 -182T215 -131Q215 -101 235 -81T290 -61ZM289 703L441 501L289 570L140 501Z"
				   horiz-adv-x="581" unicode="ộ"/>
			<glyph d="M755 718Q786 718 807 695T829 638Q829 587 794 544Q760 501 707 476Q729 412 729 344Q729 244 683 161T557 31T373 -15Q224 -15 132 79T40 322Q40 422 85 504T213 634T399 681Q499 681 570 639T682 529Q719 547 733 579Q679 595 679 647Q679 676 699 697T755 718ZM372 557Q303 557 261 503T220 353Q220 237 266 174T398 112Q465 112 508 165T551 316Q551 427 504 492T372 557ZM336 860H530L298 695Z"
				   horiz-adv-x="804" unicode="Ớ"/>
			<glyph d="M562 570Q593 570 614 547T636 490Q636 444 607 404Q579 364 532 337Q547 296 547 247Q547 130 473 57T284 -15Q172 -15 103 49T34 227Q34 343 109 414T293 485Q433 485 505 390Q529 408 540 431Q486 449 486 499Q486 528 506 549T562 570ZM282 374Q244 374 217 340T191 249Q191 186 222 141T298 97Q336 97 361 132T387 227Q387 288 356 331T282 374ZM273 666H467L235 501Z"
				   horiz-adv-x="611" unicode="ớ"/>
			<glyph d="M755 718Q786 718 807 695T829 638Q829 587 794 544Q760 501 707 476Q729 412 729 344Q729 244 683 161T557 31T373 -15Q224 -15 132 79T40 322Q40 422 85 504T213 634T399 681Q499 681 570 639T682 529Q719 547 733 579Q679 595 679 647Q679 676 699 697T755 718ZM372 557Q303 557 261 503T220 353Q220 237 266 174T398 112Q465 112 508 165T551 316Q551 427 504 492T372 557ZM236 860H430L472 695Z"
				   horiz-adv-x="804" unicode="Ờ"/>
			<glyph d="M562 570Q593 570 614 547T636 490Q636 444 607 404Q579 364 532 337Q547 296 547 247Q547 130 473 57T284 -15Q172 -15 103 49T34 227Q34 343 109 414T293 485Q433 485 505 390Q529 408 540 431Q486 449 486 499Q486 528 506 549T562 570ZM282 374Q244 374 217 340T191 249Q191 186 222 141T298 97Q336 97 361 132T387 227Q387 288 356 331T282 374ZM122 666H316L358 501Z"
				   horiz-adv-x="611" unicode="ờ"/>
			<glyph d="M755 718Q786 718 807 695T829 638Q829 587 794 544Q760 501 707 476Q729 412 729 344Q729 244 683 161T557 31T373 -15Q224 -15 132 79T40 322Q40 422 85 504T213 634T399 681Q499 681 570 639T682 529Q719 547 733 579Q679 595 679 647Q679 676 699 697T755 718ZM372 557Q303 557 261 503T220 353Q220 237 266 174T398 112Q465 112 508 165T551 316Q551 427 504 492T372 557ZM385 917Q426 917 453 897T480 840Q480 814 468 797T442 771T416 752T405 734Q405 723 420 718Q410 713 393 713Q371 713 357 724T343 756Q343 770 351 781T370 800T389 816T398 834Q398 856 372 857Q339 857 303 811V901Q342 917 385 917Z"
				   horiz-adv-x="804" unicode="Ở"/>
			<glyph d="M562 570Q593 570 614 547T636 490Q636 444 607 404Q579 364 532 337Q547 296 547 247Q547 130 473 57T284 -15Q172 -15 103 49T34 227Q34 343 109 414T293 485Q433 485 505 390Q529 408 540 431Q486 449 486 499Q486 528 506 549T562 570ZM282 374Q244 374 217 340T191 249Q191 186 222 141T298 97Q336 97 361 132T387 227Q387 288 356 331T282 374ZM291 720Q332 720 359 700T386 643Q386 617 374 600T348 574T322 555T311 537Q311 526 326 521Q316 516 299 516Q277 516 263 527T249 559Q249 573 257 584T276 603T295 619T304 637Q304 659 278 660Q245 660 209 614V704Q248 720 291 720Z"
				   horiz-adv-x="611" unicode="ở"/>
			<glyph d="M755 718Q786 718 807 695T829 638Q829 587 794 544Q760 501 707 476Q729 412 729 344Q729 244 683 161T557 31T373 -15Q224 -15 132 79T40 322Q40 422 85 504T213 634T399 681Q499 681 570 639T682 529Q719 547 733 579Q679 595 679 647Q679 676 699 697T755 718ZM372 557Q303 557 261 503T220 353Q220 237 266 174T398 112Q465 112 508 165T551 316Q551 427 504 492T372 557ZM520 871Q549 841 549 802Q549 766 522 739T455 712Q422 712 372 739T297 766Q250 766 251 699Q220 730 220 771Q220 807 245 831T310 855Q344 855 399 829T474 803Q501 803 510 820Q520 838 520 871Z"
				   horiz-adv-x="804" unicode="Ỡ"/>
			<glyph d="M562 570Q593 570 614 547T636 490Q636 444 607 404Q579 364 532 337Q547 296 547 247Q547 130 473 57T284 -15Q172 -15 103 49T34 227Q34 343 109 414T293 485Q433 485 505 390Q529 408 540 431Q486 449 486 499Q486 528 506 549T562 570ZM282 374Q244 374 217 340T191 249Q191 186 222 141T298 97Q336 97 361 132T387 227Q387 288 356 331T282 374ZM426 697Q455 667 455 628Q455 592 428 565T361 538Q327 538 278 565Q230 592 203 592Q156 593 157 525Q126 557 126 597Q126 631 150 656T216 681Q252 681 305 655T380 629Q407 629 417 647T426 697Z"
				   horiz-adv-x="611" unicode="ỡ"/>
			<glyph d="M755 718Q786 718 807 695T829 638Q829 587 794 544Q760 501 707 476Q729 412 729 344Q729 244 683 161T557 31T373 -15Q224 -15 132 79T40 322Q40 422 85 504T213 634T399 681Q499 681 570 639T682 529Q719 547 733 579Q679 595 679 647Q679 676 699 697T755 718ZM372 557Q303 557 261 503T220 353Q220 237 266 174T398 112Q465 112 508 165T551 316Q551 427 504 492T372 557ZM384 -61Q417 -61 438 -81T459 -131Q459 -162 438 -182T384 -203Q350 -203 329 -182T309 -131Q309 -101 329 -81T384 -61Z"
				   horiz-adv-x="804" unicode="Ợ"/>
			<glyph d="M562 570Q593 570 614 547T636 490Q636 444 607 404Q579 364 532 337Q547 296 547 247Q547 130 473 57T284 -15Q172 -15 103 49T34 227Q34 343 109 414T293 485Q433 485 505 390Q529 408 540 431Q486 449 486 499Q486 528 506 549T562 570ZM282 374Q244 374 217 340T191 249Q191 186 222 141T298 97Q336 97 361 132T387 227Q387 288 356 331T282 374ZM290 -61Q323 -61 344 -81T365 -131Q365 -162 344 -182T290 -203Q256 -203 235 -182T215 -131Q215 -101 235 -81T290 -61Z"
				   horiz-adv-x="611" unicode="ợ"/>
			<glyph d="M22 666H309Q285 662 270 631T255 548V243Q255 165 284 135T376 106Q436 106 463 137T491 243V544Q491 594 475 626T430 666H700Q674 662 657 631T641 544V247Q641 119 573 52T370 -15Q218 -15 148 48T78 234V544Q78 650 22 666ZM364 -61Q397 -61 418 -81T439 -131Q439 -162 418 -182T364 -203Q330 -203 309 -182T289 -131Q289 -101 309 -81T364 -61Z"
				   horiz-adv-x="723" unicode="Ụ"/>
			<glyph d="M-8 465H222V190Q222 102 281 102Q314 102 335 125T356 191V357Q356 452 302 465H511V160Q511 65 569 65H585L362 -20L360 42Q334 16 295 0T221 -15Q65 -15 65 157V351Q65 393 48 425T-8 465ZM290 -61Q323 -61 344 -81T365 -131Q365 -162 344 -182T290 -203Q256 -203 235 -182T215 -131Q215 -101 235 -81T290 -61Z"
				   horiz-adv-x="577" unicode="ụ"/>
			<glyph d="M22 666H309Q285 662 270 631T255 548V243Q255 165 284 135T376 106Q436 106 463 137T491 243V544Q491 594 475 626T430 666H700Q674 662 657 631T641 544V247Q641 119 573 52T370 -15Q218 -15 148 48T78 234V544Q78 650 22 666ZM366 907Q407 907 434 887T461 830Q461 804 449 787T423 761T397 742T386 724Q386 713 401 708Q391 703 374 703Q352 703 338 714T324 746Q324 760 332 771T351 790T370 806T379 824Q379 846 353 847Q320 847 284 801V891Q323 907 366 907Z"
				   horiz-adv-x="723" unicode="Ủ"/>
			<glyph d="M-8 465H222V190Q222 102 281 102Q314 102 335 125T356 191V357Q356 452 302 465H511V160Q511 65 569 65H585L362 -20L360 42Q334 16 295 0T221 -15Q65 -15 65 157V351Q65 393 48 425T-8 465ZM285 720Q326 720 353 700T380 643Q380 617 368 600T342 574T316 555T305 537Q305 526 320 521Q310 516 293 516Q271 516 257 527T243 559Q243 573 251 584T270 603T289 619T298 637Q298 659 272 660Q239 660 203 614V704Q242 720 285 720Z"
				   horiz-adv-x="577" unicode="ủ"/>
			<glyph d="M764 718Q795 718 816 695T838 638Q838 572 781 519T641 458V247Q641 119 573 52T370 -15Q218 -15 148 48T78 234V544Q78 579 72 602T56 640T23 666H306Q283 661 269 629T255 548V243Q255 166 284 136T376 106Q436 106 463 137T491 243V544Q491 593 475 626T431 666H641V515Q716 526 742 579Q688 597 688 647Q688 676 708 697T764 718ZM353 860H547L315 695Z"
				   horiz-adv-x="813" unicode="Ứ"/>
			<glyph d="M622 570Q653 570 674 547T696 490Q696 427 643 375T511 311V160Q511 65 569 65H585L362 -20L360 42Q334 16 295 0T221 -15Q65 -15 65 157V354Q65 397 48 427T-6 468H222V190Q222 102 281 102Q314 102 335 125T356 191V360Q356 449 304 468H511V369Q576 382 600 431Q546 449 546 499Q546 528 566 549T622 570ZM261 666H455L223 501Z"
				   horiz-adv-x="671" unicode="ứ"/>
			<glyph d="M764 718Q795 718 816 695T838 638Q838 572 781 519T641 458V247Q641 119 573 52T370 -15Q218 -15 148 48T78 234V544Q78 579 72 602T56 640T23 666H306Q283 661 269 629T255 548V243Q255 166 284 136T376 106Q436 106 463 137T491 243V544Q491 593 475 626T431 666H641V515Q716 526 742 579Q688 597 688 647Q688 676 708 697T764 718ZM173 860H367L409 695Z"
				   horiz-adv-x="813" unicode="Ừ"/>
			<glyph d="M622 570Q653 570 674 547T696 490Q696 427 643 375T511 311V160Q511 65 569 65H585L362 -20L360 42Q334 16 295 0T221 -15Q65 -15 65 157V354Q65 397 48 427T-6 468H222V190Q222 102 281 102Q314 102 335 125T356 191V360Q356 449 304 468H511V369Q576 382 600 431Q546 449 546 499Q546 528 566 549T622 570ZM100 666H294L336 501Z"
				   horiz-adv-x="671" unicode="ừ"/>
			<glyph d="M764 718Q795 718 816 695T838 638Q838 572 781 519T641 458V247Q641 119 573 52T370 -15Q218 -15 148 48T78 234V544Q78 579 72 602T56 640T23 666H306Q283 661 269 629T255 548V243Q255 166 284 136T376 106Q436 106 463 137T491 243V544Q491 593 475 626T431 666H641V515Q716 526 742 579Q688 597 688 647Q688 676 708 697T764 718ZM345 907Q386 907 413 887T440 830Q440 804 428 787T402 761T376 742T365 724Q365 713 380 708Q370 703 353 703Q331 703 317 714T303 746Q303 760 311 771T330 790T349 806T358 824Q358 846 332 847Q299 847 263 801V891Q302 907 345 907Z"
				   horiz-adv-x="813" unicode="Ử"/>
			<glyph d="M622 570Q653 570 674 547T696 490Q696 427 643 375T511 311V160Q511 65 569 65H585L362 -20L360 42Q334 16 295 0T221 -15Q65 -15 65 157V354Q65 397 48 427T-6 468H222V190Q222 102 281 102Q314 102 335 125T356 191V360Q356 449 304 468H511V369Q576 382 600 431Q546 449 546 499Q546 528 566 549T622 570ZM283 720Q324 720 351 700T378 643Q378 617 366 600T340 574T314 555T303 537Q303 526 318 521Q308 516 291 516Q269 516 255 527T241 559Q241 573 249 584T268 603T287 619T296 637Q296 659 270 660Q237 660 201 614V704Q240 720 283 720Z"
				   horiz-adv-x="671" unicode="ử"/>
			<glyph d="M764 718Q795 718 816 695T838 638Q838 572 781 519T641 458V247Q641 119 573 52T370 -15Q218 -15 148 48T78 234V544Q78 579 72 602T56 640T23 666H306Q283 661 269 629T255 548V243Q255 166 284 136T376 106Q436 106 463 137T491 243V544Q491 593 475 626T431 666H641V515Q716 526 742 579Q688 597 688 647Q688 676 708 697T764 718ZM505 871Q534 841 534 802Q534 766 507 739T440 712Q407 712 357 739T282 766Q235 766 236 699Q205 730 205 771Q205 807 230 831T295 855Q329 855 384 829T459 803Q486 803 495 820Q505 838 505 871Z"
				   horiz-adv-x="813" unicode="Ữ"/>
			<glyph d="M622 570Q653 570 674 547T696 490Q696 427 643 375T511 311V160Q511 65 569 65H585L362 -20L360 42Q334 16 295 0T221 -15Q65 -15 65 157V354Q65 397 48 427T-6 468H222V190Q222 102 281 102Q314 102 335 125T356 191V360Q356 449 304 468H511V369Q576 382 600 431Q546 449 546 499Q546 528 566 549T622 570ZM415 697Q444 667 444 628Q444 592 417 565T350 538Q316 538 267 565Q219 592 192 592Q145 593 146 525Q115 557 115 597Q115 631 139 656T205 681Q241 681 294 655T369 629Q396 629 406 647T415 697Z"
				   horiz-adv-x="671" unicode="ữ"/>
			<glyph d="M764 718Q795 718 816 695T838 638Q838 572 781 519T641 458V247Q641 119 573 52T370 -15Q218 -15 148 48T78 234V544Q78 579 72 602T56 640T23 666H306Q283 661 269 629T255 548V243Q255 166 284 136T376 106Q436 106 463 137T491 243V544Q491 593 475 626T431 666H641V515Q716 526 742 579Q688 597 688 647Q688 676 708 697T764 718ZM362 -61Q395 -61 416 -81T437 -131Q437 -162 416 -182T362 -203Q328 -203 307 -182T287 -131Q287 -101 307 -81T362 -61Z"
				   horiz-adv-x="813" unicode="Ự"/>
			<glyph d="M622 570Q653 570 674 547T696 490Q696 427 643 375T511 311V160Q511 65 569 65H585L362 -20L360 42Q334 16 295 0T221 -15Q65 -15 65 157V354Q65 397 48 427T-6 468H222V190Q222 102 281 102Q314 102 335 125T356 191V360Q356 449 304 468H511V369Q576 382 600 431Q546 449 546 499Q546 528 566 549T622 570ZM280 -61Q313 -61 334 -81T355 -131Q355 -162 334 -182T280 -203Q246 -203 225 -182T205 -131Q205 -101 225 -81T280 -61Z"
				   horiz-adv-x="671" unicode="ự"/>
			<glyph d="M-5 666H310Q294 663 284 652T275 624Q275 594 301 549L380 415Q465 555 476 582T487 625Q487 644 477 654T455 666H709L701 662Q661 640 600 540L440 279V122Q440 81 448 55T468 15T494 0H207Q221 2 233 15T254 53T263 122V273L108 541Q44 650 -5 666ZM177 860H371L413 695Z"
				   horiz-adv-x="703" unicode="Ỳ"/>
			<glyph d="M-2 465H276Q262 463 251 451T240 418Q240 404 252 372L313 209L372 363Q386 399 386 417Q386 437 375 449T343 465H580Q565 461 545 437T507 371L362 35Q326 -51 274 -114T182 -191L15 -89Q31 -92 45 -92Q151 -92 221 24L79 376Q63 416 40 439T-2 465ZM113 666H307L349 501Z"
				   horiz-adv-x="577" unicode="ỳ"/>
			<glyph d="M-5 666H310Q294 663 284 652T275 624Q275 594 301 549L380 415Q465 555 476 582T487 625Q487 644 477 654T455 666H709L701 662Q661 640 600 540L440 279V122Q440 81 448 55T468 15T494 0H207Q221 2 233 15T254 53T263 122V273L108 541Q44 650 -5 666ZM351 -61Q384 -61 405 -81T426 -131Q426 -162 405 -182T351 -203Q317 -203 296 -182T276 -131Q276 -101 296 -81T351 -61Z"
				   horiz-adv-x="703" unicode="Ỵ"/>
			<glyph d="M-2 465H276Q262 463 251 451T240 418Q240 404 252 372L313 209L372 363Q386 399 386 417Q386 437 375 449T343 465H580Q565 461 545 437T507 371L362 35Q326 -51 274 -114T182 -191L15 -89Q31 -92 45 -92Q151 -92 221 24L79 376Q63 416 40 439T-2 465ZM438 -61Q471 -61 492 -81T513 -131Q513 -162 492 -182T438 -203Q404 -203 383 -182T363 -131Q363 -101 383 -81T438 -61Z"
				   horiz-adv-x="577" unicode="ỵ"/>
			<glyph d="M-5 666H310Q294 663 284 652T275 624Q275 594 301 549L380 415Q465 555 476 582T487 625Q487 644 477 654T455 666H709L701 662Q661 640 600 540L440 279V122Q440 81 448 55T468 15T494 0H207Q221 2 233 15T254 53T263 122V273L108 541Q44 650 -5 666ZM369 907Q410 907 437 887T464 830Q464 804 452 787T426 761T400 742T389 724Q389 713 404 708Q394 703 377 703Q355 703 341 714T327 746Q327 760 335 771T354 790T373 806T382 824Q382 846 356 847Q323 847 287 801V891Q326 907 369 907Z"
				   horiz-adv-x="703" unicode="Ỷ"/>
			<glyph d="M-2 465H276Q262 463 251 451T240 418Q240 404 252 372L313 209L372 363Q386 399 386 417Q386 437 375 449T343 465H580Q565 461 545 437T507 371L362 35Q326 -51 274 -114T182 -191L15 -89Q31 -92 45 -92Q151 -92 221 24L79 376Q63 416 40 439T-2 465ZM302 720Q343 720 370 700T397 643Q397 617 385 600T359 574T333 555T322 537Q322 526 337 521Q327 516 310 516Q288 516 274 527T260 559Q260 573 268 584T287 603T306 619T315 637Q315 659 289 660Q256 660 220 614V704Q259 720 302 720Z"
				   horiz-adv-x="577" unicode="ỷ"/>
			<glyph d="M-5 666H310Q294 663 284 652T275 624Q275 594 301 549L380 415Q465 555 476 582T487 625Q487 644 477 654T455 666H709L701 662Q661 640 600 540L440 279V122Q440 81 448 55T468 15T494 0H207Q221 2 233 15T254 53T263 122V273L108 541Q44 650 -5 666ZM495 871Q524 841 524 802Q524 766 497 739T430 712Q397 712 347 739T272 766Q225 766 226 699Q195 730 195 771Q195 807 220 831T285 855Q319 855 374 829T449 803Q476 803 485 820Q495 838 495 871Z"
				   horiz-adv-x="703" unicode="Ỹ"/>
			<glyph d="M-2 465H276Q262 463 251 451T240 418Q240 404 252 372L313 209L372 363Q386 399 386 417Q386 437 375 449T343 465H580Q565 461 545 437T507 371L362 35Q326 -51 274 -114T182 -191L15 -89Q31 -92 45 -92Q151 -92 221 24L79 376Q63 416 40 439T-2 465ZM441 697Q470 667 470 628Q470 592 443 565T376 538Q342 538 293 565Q245 592 218 592Q171 593 172 525Q141 557 141 597Q141 631 165 656T231 681Q267 681 320 655T395 629Q422 629 432 647T441 697Z"
				   horiz-adv-x="577" unicode="ỹ"/>
			<glyph d="" horiz-adv-x="50" unicode=" "/>
			<glyph d="M33 284H633V186H33Z" horiz-adv-x="666" unicode="–"/>
			<glyph d="M33 284H1033V186H33Z" horiz-adv-x="1066" unicode="—"/>
			<glyph d="M33 284H967V186H33Z" horiz-adv-x="1000" unicode="―"/>
			<glyph d="M250 691Q198 665 166 619T135 527Q135 511 136 503Q143 504 150 504Q187 504 207 479T227 422Q227 380 200 351T129 323Q78 323 47 363T16 466Q16 526 45 577T127 659T250 691Z"
				   horiz-adv-x="271" unicode="‘"/>
			<glyph d="M141 681Q193 681 223 640T254 539Q254 447 189 380Q124 314 20 313Q65 334 99 380T135 478Q135 489 133 502Q126 501 119 501Q81 501 61 525T42 582Q42 621 69 651T141 681Z"
				   horiz-adv-x="271" unicode="’"/>
			<glyph d="M133 179Q185 179 215 138T246 37Q246 -56 182 -121Q118 -187 12 -189Q57 -168 92 -121T127 -24Q127 -8 126 0Q121 -1 112 -1Q74 -1 54 23T35 80Q35 122 62 150T133 179Z"
				   horiz-adv-x="271" unicode="‚"/>
			<glyph d="M544 691Q492 665 460 619T429 527Q429 515 430 503Q436 504 444 504Q480 504 500 480T521 422Q521 380 494 351T423 323Q372 323 341 363T310 466Q310 526 339 577T421 659T544 691ZM285 691Q233 665 201 619T170 527Q170 515 172 503Q181 504 186 504Q222 504 242 479T262 422Q262 381 235 352T164 323Q113 323 82 363T51 466Q51 526 80 577T162 659T285 691Z"
				   horiz-adv-x="573" unicode="“"/>
			<glyph d="M409 681Q461 681 491 640T522 539Q522 446 456 380Q391 315 288 313Q333 333 368 381T403 478Q403 491 402 502Q396 501 388 501Q350 501 330 525T311 582Q311 624 338 652T409 681ZM151 681Q203 681 233 640T264 539Q264 448 200 381Q136 315 30 313Q75 334 110 381T145 478Q145 491 143 502Q136 501 129 501Q91 501 71 525T52 582Q52 621 79 651T151 681Z"
				   horiz-adv-x="573" unicode="”"/>
			<glyph d="M397 179Q449 179 479 138T510 37Q510 -58 444 -122Q379 -187 276 -189Q321 -169 356 -121T391 -24Q391 -12 390 0Q383 -1 376 -1Q338 -1 318 23T299 80Q299 122 326 150T397 179ZM149 179Q201 179 231 138T262 37Q262 -56 197 -121Q133 -187 28 -189Q73 -169 108 -121T143 -24Q143 -10 141 0Q134 -1 127 -1Q89 -1 69 23T50 80Q50 119 77 149T149 179Z"
				   horiz-adv-x="544" unicode="„"/>
			<glyph d="M209 666H394Q385 663 377 652T364 616T358 549V474H468Q492 474 507 478T531 488T541 499V345Q537 356 519 364T466 372H358V11Q358 -99 302 -191Q246 -98 246 11V372H138Q105 372 86 365T62 346V499Q74 474 135 474H246V549Q246 589 240 614T226 651T209 666Z"
				   horiz-adv-x="603" unicode="†"/>
			<glyph d="M209 666H394Q386 664 378 652T364 616T358 549V474H468Q492 474 507 478T531 487T541 499V345Q536 357 516 364T466 372H358V113H466Q528 113 541 139V-14Q527 10 468 11H358V-64Q358 -104 363 -129T376 -166T394 -181H209Q219 -178 227 -164T241 -126T246 -64V11H135Q111 11 96 7T73 -2T62 -14V139Q76 113 138 113H246V372H138Q105 372 83 364T62 346V499Q78 474 135 474H246V549Q246 589 240 614T227 651T209 666Z"
				   horiz-adv-x="603" unicode="‡"/>
			<glyph d="M253 464Q329 464 379 413T429 283Q429 205 379 154Q330 104 253 104Q176 104 126 155T76 284Q76 361 126 412T253 464Z"
				   horiz-adv-x="500" unicode="•"/>
			<glyph d="M1004 180Q1050 180 1078 152T1107 83Q1107 41 1078 13T1004 -15Q958 -15 930 13T902 83Q902 125 930 152T1004 180ZM603 180Q649 180 677 152T706 83Q706 41 677 13T603 -15Q557 -15 529 13T501 83Q501 125 529 152T603 180ZM203 180Q249 180 277 152T305 83Q305 41 277 13T203 -15Q157 -15 128 13T100 83Q100 125 128 152T203 180Z"
				   horiz-adv-x="1206" unicode="…"/>
			<glyph d="M569 666H691L236 0H112ZM613 307Q688 307 735 262T782 148Q782 80 734 34T613 -11Q538 -11 491 34T444 148Q444 216 490 261T613 307ZM613 223Q556 223 556 147Q556 72 613 72Q670 72 670 147Q670 223 613 223ZM195 681Q270 681 317 636T364 522Q364 454 316 408T195 363Q120 363 73 408T26 522Q26 590 72 635T195 681ZM195 597Q138 597 138 521Q138 446 195 446Q252 446 252 521Q252 597 195 597ZM996 307Q1071 307 1118 262T1165 148Q1165 80 1117 34T996 -11Q921 -11 874 34T827 148Q827 216 873 261T996 307ZM996 223Q939 223 939 147Q939 72 996 72Q1053 72 1053 147Q1053 223 996 223Z"
				   horiz-adv-x="1199" unicode="‰"/>
			<glyph d="M129 444H243L134 251L243 58H129L21 251Z" horiz-adv-x="260" unicode="‹"/>
			<glyph d="M17 444H130L239 252L130 60H17L126 252Z" horiz-adv-x="260" unicode="›"/>
			<glyph d="M230 681H327L-58 0H-158Z" horiz-adv-x="168" unicode="⁄"/>
			<glyph d="M192 686Q266 686 309 634T353 494Q353 395 308 340Q264 286 189 286Q110 286 69 337T28 477Q28 573 71 629T192 686ZM183 616Q167 616 159 592T152 509Q152 356 195 356Q212 356 220 376T228 463Q228 616 183 616Z"
				   horiz-adv-x="381" unicode="⁰"/>
			<glyph d="M177 678H314V446H360V375H314V355Q314 305 352 294H153Q195 305 195 355V375H17V389ZM195 577L130 446H195Z"
				   horiz-adv-x="381" unicode="⁴"/>
			<glyph d="M325 706L309 597H171L164 540H183Q260 540 305 507T350 418Q350 359 302 322T177 286Q123 286 79 308T20 364L130 434Q133 402 148 383T183 365Q200 365 210 376T221 408Q221 462 137 462H49L77 678H236Q267 678 291 684T325 706Z"
				   horiz-adv-x="381" unicode="⁵"/>
			</font>
</defs>
</svg>
